<svg class="main-svg" xmlns="http://www.w3.org/2000/svg" xmlns:xlink="http://www.w3.org/1999/xlink" width="900" height="500" style="" viewBox="0 0 900 500"><rect x="0" y="0" width="900" height="500" style="fill: rgb(255, 255, 255); fill-opacity: 1;"/><defs id="defs-a483ff"><g class="clips"><clipPath id="clipa483ffxyplot" class="plotclip"><rect width="740" height="320"/></clipPath><clipPath class="axesclip" id="clipa483ffx"><rect x="80" y="0" width="740" height="500"/></clipPath><clipPath class="axesclip" id="clipa483ffy"><rect x="0" y="100" width="900" height="320"/></clipPath><clipPath class="axesclip" id="clipa483ffxy"><rect x="80" y="100" width="740" height="320"/></clipPath></g><g class="gradients"/><g class="patterns"/></defs><g class="bglayer"/><g class="layer-below"><g class="imagelayer"/><g class="shapelayer"/></g><g class="cartesianlayer"><g class="subplot xy"><g class="layer-subplot"><g class="shapelayer"/><g class="imagelayer"/></g><g class="gridlayer"><g class="x"><path class="xgrid crisp" transform="translate(170.35,0)" d="M0,100v320" style="stroke: rgb(235, 240, 248); stroke-opacity: 1; stroke-width: 1px;"/><path class="xgrid crisp" transform="translate(260.71000000000004,0)" d="M0,100v320" style="stroke: rgb(235, 240, 248); stroke-opacity: 1; stroke-width: 1px;"/><path class="xgrid crisp" transform="translate(351.06,0)" d="M0,100v320" style="stroke: rgb(235, 240, 248); stroke-opacity: 1; stroke-width: 1px;"/><path class="xgrid crisp" transform="translate(441.42,0)" d="M0,100v320" style="stroke: rgb(235, 240, 248); stroke-opacity: 1; stroke-width: 1px;"/><path class="xgrid crisp" transform="translate(531.77,0)" d="M0,100v320" style="stroke: rgb(235, 240, 248); stroke-opacity: 1; stroke-width: 1px;"/><path class="xgrid crisp" transform="translate(622.12,0)" d="M0,100v320" style="stroke: rgb(235, 240, 248); stroke-opacity: 1; stroke-width: 1px;"/><path class="xgrid crisp" transform="translate(712.48,0)" d="M0,100v320" style="stroke: rgb(235, 240, 248); stroke-opacity: 1; stroke-width: 1px;"/><path class="xgrid crisp" transform="translate(802.83,0)" d="M0,100v320" style="stroke: rgb(235, 240, 248); stroke-opacity: 1; stroke-width: 1px;"/></g><g class="y"><path class="ygrid crisp" transform="translate(0,388.17)" d="M80,0h740" style="stroke: rgb(235, 240, 248); stroke-opacity: 1; stroke-width: 1px;"/><path class="ygrid crisp" transform="translate(0,342.94)" d="M80,0h740" style="stroke: rgb(235, 240, 248); stroke-opacity: 1; stroke-width: 1px;"/><path class="ygrid crisp" transform="translate(0,297.71000000000004)" d="M80,0h740" style="stroke: rgb(235, 240, 248); stroke-opacity: 1; stroke-width: 1px;"/><path class="ygrid crisp" transform="translate(0,207.25)" d="M80,0h740" style="stroke: rgb(235, 240, 248); stroke-opacity: 1; stroke-width: 1px;"/><path class="ygrid crisp" transform="translate(0,162.03)" d="M80,0h740" style="stroke: rgb(235, 240, 248); stroke-opacity: 1; stroke-width: 1px;"/><path class="ygrid crisp" transform="translate(0,116.8)" d="M80,0h740" style="stroke: rgb(235, 240, 248); stroke-opacity: 1; stroke-width: 1px;"/></g></g><g class="zerolinelayer"><path class="yzl zl crisp" transform="translate(0,252.48)" d="M80,0h740" style="stroke: rgb(235, 240, 248); stroke-opacity: 1; stroke-width: 2px;"/></g><path class="xlines-below"/><path class="ylines-below"/><g class="overlines-below"/><g class="xaxislayer-below"/><g class="yaxislayer-below"/><g class="overaxes-below"/><g class="plot" transform="translate(80,100)" clip-path="url(#clipa483ffxyplot)"><g class="scatterlayer mlayer"><g class="trace scatter trace759e0b" style="stroke-miterlimit: 2; opacity: 1;"><g class="fills"/><g class="errorbars"/><g class="lines"><path class="js-line" d="M0,159.72L8.85,157.52L9.04,157.49L18.61,156.64L18.79,156.64L29.82,156.76L30,156.77L43.01,158.23L43.19,158.26L54.57,161.5L54.75,161.57L63.43,166L63.61,166.11L73.19,170.7L73.37,170.73L76.98,170.82L77.16,170.79L81.32,169.38L81.5,169.29L90.9,163.76L91.08,163.66L98.31,160.48L98.49,160.42L105.89,158.73L106.08,158.71L114.03,158.12L114.21,158.12L126.86,158.86L127.04,158.88L141.31,161.95L141.49,162.01L161.01,167.82L161.19,167.83L166.61,167.42L166.79,167.38L174.02,165.03L174.2,164.96L186.13,160.47L186.31,160.41L199.14,157.59L199.32,157.56L221.37,155.79L221.55,155.79L243.05,155.34L243.23,155.34L271.97,156.08L272.15,156.1L283.17,157.44L283.35,157.48L291.48,159.57L291.66,159.63L299.61,163.46L299.79,163.58L305.58,167.78L305.76,167.92L313.17,172.82L313.35,172.88L316.6,173.24L316.78,173.21L320.21,171.89L320.4,171.79L326.18,167.4L326.36,167.26L332.86,162.77L333.05,162.67L338.65,160.41L338.83,160.36L345.15,159.35L345.33,159.34L353.1,159.65L353.28,159.68L360.51,161.17L360.69,161.22L369.37,164.38L369.55,164.46L382.56,169.04L382.74,169.06L387.98,168.64L388.16,168.59L393.22,166.73L393.4,166.65L410.39,159.68L410.57,159.63L419.42,157.94L419.6,157.92L435.15,157.01L435.33,157.01L453.4,157.76L453.58,157.77L468.4,160.14L468.58,160.18L477.43,162.89L477.61,162.96L492.97,168.19L493.15,168.22L498.57,168.12L498.75,168.08L504.18,166.48L504.36,166.41L524.6,158.97L524.78,158.93L536.34,157.12L536.52,157.1L564.17,156.16L564.35,156.17L581.88,156.91L582.06,156.93L592.72,158.27L592.9,158.31L601.76,160.52L601.94,160.58L610.43,164.2L610.61,164.29L622.54,170.07L622.72,170.11L627.24,170.35L627.42,170.32L631.94,168.82L632.12,168.74L650.19,159.97L650.37,159.92L659.04,158.28L659.22,158.26L669.7,157.85L669.89,157.86L680.73,158.6L680.91,158.63L691.75,160.57L691.93,160.61L707.11,165.56L707.29,165.62L714.16,167.52L714.34,167.55L719.76,167.74L719.94,167.72L725.9,166.33L726.09,166.27L740,160.96" style="vector-effect: non-scaling-stroke; fill: none; stroke: rgb(76, 120, 168); stroke-opacity: 1; stroke-width: 1px; opacity: 1; stroke-dasharray: 9px, 9px;"/></g><g class="points"/><g class="text"/></g><g class="trace scatter trace1d8c04" style="stroke-miterlimit: 2; opacity: 1;"><g class="fills"/><g class="errorbars"/><g class="lines"><path class="js-line" d="M0,145.25L5.6,146.66L5.78,146.69L12.47,148.16L12.65,148.18L21.32,149.35L21.5,149.36L31.26,149.7L31.44,149.7L49.88,147.45L50.06,147.37L57.65,144.26L57.83,144.1L59.09,143.68L59.27,143.32L60.72,142.33L60.9,142.34L61.62,142.09L61.8,141.68L65.24,138.76L65.42,138.5L65.6,138.65L65.78,138.34L65.96,137.88L67.58,136.26L67.77,136.39L67.95,136.34L70.3,133.77L70.48,133.82L71.74,132.49L71.92,132.24L72.46,131.79L72.64,131.41L74.09,130.21L74.27,130.07L74.99,129.43L75.17,129.18L82.04,126.31L82.22,126.35L85.29,127.56L85.47,127.68L94.33,136.51L94.51,136.96L95.78,138.11L95.96,138.26L106.26,146.36L106.44,146.41L108.97,147.79L109.15,147.86L124.51,151.99L124.69,152.02L146.01,152L146.19,151.94L156.85,148.92L157.04,148.81L163.72,146.3L163.9,146.29L166.97,145.39L167.16,145.36L171.85,144.8L172.03,144.8L176.91,145.17L177.09,145.15L183.06,146.56L183.24,146.62L189.56,148.41L189.74,148.47L191.91,149.07L192.09,149.14L193.72,149.54L193.9,149.61L199.86,151L200.04,151.05L229.68,154.19L229.86,154.2L262.03,154.95L262.21,154.96L276.84,155.7L277.03,155.72L294.55,158.99L294.74,159.05L304.67,163.63L304.85,163.79L314.25,167.92L314.43,167.87L319.13,166.74L319.31,166.64L324.55,163.5L324.73,163.37L331.96,159.78L332.14,159.73L336.66,158.51L336.84,158.51L342.98,157.86L343.16,157.85L350.39,158.21L350.57,158.23L357.98,159.38L358.16,159.42L368.46,162.44L368.64,162.51L380.75,166.33L380.93,166.3L388.16,165.78L388.34,165.72L396.47,162.71L396.65,162.64L400.45,161.11L400.63,161.06L408.94,158.61L409.12,158.58L419.06,157.13L419.24,157.12L430.81,156.58L430.99,156.58L442.19,156.7L442.37,156.71L454.66,157.45L454.84,157.47L464.42,158.75L464.6,158.78L475.08,161.26L475.26,161.32L481.59,163.49L481.77,163.56L493.15,166.67L493.33,166.67L502.91,165.26L503.09,165.19L524.6,158.27L524.78,158.24L539.41,156.51L539.59,156.51L562.73,156.04L562.91,156.04L592.54,158.05L592.72,158.09L602.48,160.46L602.66,160.51L611.34,164.17L611.52,164.28L623.62,169.46L623.8,169.47L627.24,169.38L627.42,169.3L631.76,167.84L631.94,167.76L642.42,162.22L642.6,162.17L652.9,158.83L653.08,158.81L659.04,157.93L659.22,157.9L680.37,158.28L680.55,158.31L691.93,160.3L692.11,160.35L698.8,162.19L698.98,162.26L710.91,166.12L711.09,166.16L722.11,166.66L722.29,166.63L729.88,164.19L730.06,164.12L737.83,161.2L738.01,161.13L740,160.5" style="vector-effect: non-scaling-stroke; fill: none; stroke: rgb(76, 120, 168); stroke-opacity: 1; stroke-width: 1px; opacity: 1;"/></g><g class="points"/><g class="text"/></g><g class="trace scatter trace6e4d22" style="stroke-miterlimit: 2; opacity: 1;"><g class="fills"/><g class="errorbars"/><g class="lines"><path class="js-line" d="M0,125.35L6.32,138.31L6.51,138.62L11.93,146.48L12.11,146.7L18.07,152.82L18.25,152.98L26.93,159.71L27.11,159.84L37.41,168.71L37.59,168.91L43.55,176.64L43.73,176.92L48.61,185.85L48.79,186.23L54.57,200.54L54.75,201.04L63.25,222.38L63.43,222.62L65.42,223.79L65.6,223.75L66.86,222.63L67.04,222.34L68.67,218.17L68.85,217.53L71.2,205.68L71.38,204.51L74.81,176.73L74.99,175.06L81.5,121.32L81.68,120.31L84.39,109.57L84.57,109.14L86.56,106.49L86.74,106.42L88.19,106.75L88.37,106.89L90.35,109.54L90.53,109.86L93.79,117.16L93.97,117.61L104.09,141.56L104.27,141.9L109.87,151.2L110.05,151.45L116.74,159.81L116.92,160.01L132.64,178.48L132.82,178.73L147.64,199.23L147.82,199.35L150.35,200.09L150.53,200.06L152.52,198.92L152.7,198.73L154.87,195.33L155.05,194.95L157.76,187.3L157.94,186.67L161.91,169.9L162.1,169.05L169.68,136.21L169.87,135.64L173.12,127.94L173.3,127.65L176.01,124.9L176.19,124.81L178.54,124.6L178.72,124.64L181.79,126.4L181.97,126.55L187.03,131.73L187.21,131.94L197.15,141.89L197.33,142.04L204.56,146.76L204.74,146.85L212.69,150L212.87,150.05L220.64,151.88L220.83,151.91L242.87,154.84L243.05,154.86L261.3,158.53L261.48,158.59L269.26,161.83L269.44,161.92L275.76,166.27L275.94,166.43L281.18,172.09L281.36,172.33L286.24,180.33L286.42,180.69L290.58,190.56L290.76,191.06L295.46,206.62L295.64,207.31L305.4,243.74L305.58,244.02L307.02,244.8L307.2,244.7L308.29,242.97L308.47,242.48L310.1,235.33L310.28,234.21L312.44,215.67L312.63,213.72L316.42,163.49L316.6,160.91L321.12,107.24L321.3,105.79L323.65,92.79L323.83,92.22L325.46,89.61L325.64,89.57L326.72,90.22L326.9,90.46L328.53,94.01L328.71,94.54L331.96,106.52L332.14,107.27L341.36,142.63L341.54,143.2L347.5,159.42L347.68,159.85L357.98,182.52L358.16,182.92L369.19,205.7L369.37,205.96L372.08,208.45L372.26,208.51L373.89,208.32L374.07,208.21L375.69,206.3L375.87,205.98L378.04,200.39L378.22,199.77L381.11,186.94L381.29,185.97L387.26,149.38L387.44,148.3L391.59,128.11L391.78,127.47L394.67,120.21L394.85,119.93L397.02,118.04L397.2,117.99L399.18,118.37L399.37,118.47L402.08,121.13L402.26,121.36L408.04,130.3L408.22,130.6L416.17,141.99L416.35,142.21L422.86,148.69L423.04,148.84L429.72,153.47L429.9,153.58L453.04,166.4L453.22,166.53L460.63,173.23L460.81,173.43L467.13,181.53L467.31,181.8L481.41,203.01L481.59,203.15L483.94,203.85L484.12,203.82L485.92,202.67L486.11,202.47L488.27,198.66L488.45,198.22L491.16,189.47L491.35,188.74L495.5,168.51L495.68,167.53L502.37,134.8L502.55,134.15L505.8,125.35L505.98,125.02L508.51,122.14L508.69,122.04L510.86,121.81L511.04,121.86L513.57,123.42L513.75,123.58L518.45,129.04L518.63,129.28L528.39,141.06L528.57,141.24L535.8,147.09L535.98,147.21L544.11,151.32L544.29,151.39L554.95,154.76L555.14,154.8L574.47,160.83L574.65,160.91L582.06,165.02L582.24,165.15L588.57,170.59L588.75,170.78L593.81,177.17L593.99,177.44L599.05,186.36L599.23,186.73L605.01,200.3L605.19,200.77L612.42,217.69L612.6,217.96L614.77,219.89L614.95,219.92L616.4,219.28L616.58,219.08L618.2,215.93L618.38,215.42L620.55,206.71L620.73,205.77L623.8,185.21L623.99,183.78L632.3,121.42L632.48,120.57L635.19,111.76L635.37,111.41L637.36,109.45L637.54,109.41L639.16,110.03L639.35,110.19L641.69,113.47L641.88,113.8L646.39,123.59L646.57,124.01L654.53,140.68L654.71,141L661.03,150.41L661.21,150.63L667.54,157.53L667.72,157.71L685.06,174.95L685.25,175.17L694.46,188.13L694.64,188.4L701.69,198L701.87,198.17L704.76,199.93L704.94,199.96L706.93,199.58L707.11,199.47L709.1,197.35L709.28,197.07L711.63,192L711.81,191.5L715.06,180.05L715.24,179.3L726.27,132.97L726.45,132.49L729.52,126.67L729.7,126.45L732.23,124.7L732.41,124.66L734.76,124.93L734.94,125L738.01,127.12L738.19,127.28L740,129.06" style="vector-effect: non-scaling-stroke; fill: none; stroke: rgb(245, 133, 24); stroke-opacity: 1; stroke-width: 1px; opacity: 1; stroke-dasharray: 9px, 9px;"/></g><g class="points"/><g class="text"/></g><g class="trace scatter trace6ebc73" style="stroke-miterlimit: 2; opacity: 1;"><g class="fills"/><g class="errorbars"/><g class="lines"><path class="js-line" d="M0,179.62L0.54,167.95L0.9,169.97L1.08,171.97L1.45,172.75L1.63,170.42L1.81,168.18L2.17,169.11L2.35,170.08L2.53,170.6L2.71,167.86L2.89,168.28L3.07,172.56L3.79,169.01L3.98,171.21L4.16,174.23L4.52,169.49L4.7,172.76L4.88,171.84L5.06,170.12L5.24,172.58L5.42,174.02L5.96,171.65L6.32,172.17L6.51,171.26L6.69,172.64L6.87,170.75L7.05,169.23L7.41,168.17L7.77,170.19L7.95,170.09L8.13,166.49L8.85,170.19L9.22,170L9.4,169.31L9.58,168.71L9.76,170.16L9.94,170.67L10.3,165.57L10.84,166.6L11.02,167.51L11.2,170.33L11.38,166.09L11.57,163.87L12.11,167.54L12.29,166.94L12.47,164.49L12.83,164.65L13.01,167.76L13.19,168.3L13.37,164.74L13.55,164.53L13.73,165.72L14.28,165.26L14.46,166.5L14.64,163.54L14.82,161.31L15.54,161.46L15.72,160.1L16.44,162.4L16.63,161.97L16.81,161.18L17.35,164.33L17.53,159.52L17.89,161.45L18.07,158.87L18.43,161.16L18.61,161.25L18.97,157.88L19.16,159.09L19.34,161.55L20.06,157.67L20.24,158.49L20.42,159.54L21.14,157.54L21.32,159.58L21.5,159.77L21.68,157.79L21.87,158.77L22.05,156.9L22.23,153.73L22.41,151.34L22.59,155.01L22.77,154.21L22.95,154.74L23.49,153.97L23.85,158.91L24.03,157.38L24.4,154.23L24.76,155.97L24.94,156.95L25.3,153.79L25.84,154.8L26.02,155.41L26.56,150.12L26.93,152.69L27.11,153.22L27.47,150.21L28.01,151.44L28.19,152.48L29.09,149.46L29.27,151.06L30.36,148.01L30.54,149.08L30.72,149.24L30.9,148.55L31.08,147.97L31.44,149.4L31.62,147.77L31.8,147.47L32.17,150.27L32.35,148.47L32.53,146.28L33.25,148.49L33.43,146.38L33.97,144.97L34.33,150.86L34.52,145.99L34.88,146.83L35.06,145.42L35.24,145.49L35.42,145.34L35.6,146.51L35.78,146.74L35.96,145.23L36.14,145.55L36.32,144.06L36.68,140.43L36.86,141.24L37.05,144.79L37.41,139.44L37.95,141.24L38.13,141.32L38.85,139.33L39.03,141.05L39.21,141.69L39.39,138.93L39.94,139.12L40.3,136.53L40.48,136.66L40.84,139.15L41.2,138.6L41.38,137.68L41.92,137.23L42.11,139.04L42.29,138.55L42.47,136.43L42.83,136.91L43.01,136.73L43.19,136.12L43.55,137.4L43.73,134.17L43.91,131.31L44.45,133.85L44.63,133.25L45.18,127.01L45.36,129.9L45.54,132.22L46.26,129.57L46.44,130.92L47.53,126.9L47.71,128.75L48.43,126.13L48.61,125.1L48.79,127.18L48.97,125.56L49.15,121.32L50.24,118.29L50.42,118.76L50.78,119.17L50.96,118.56L51.14,113.08L51.32,112.77L51.5,116.28L52.22,113.02L52.41,111.09L52.77,113.69L52.95,111.59L53.13,108.85L53.49,109.55L53.67,108.84L53.85,108.13L54.03,108.52L54.21,105.73L54.57,104.92L54.75,105.67L54.94,103.51L55.48,102.7L55.66,101.57L56.02,96.88L56.38,98.85L56.56,98.91L57.83,87.31L58.01,87.97L58.19,89.35L58.37,87.17L58.55,84L59.09,85.31L59.27,82.46L60.18,76.37L60.36,77.14L61.44,68.21L61.62,69.75L64.69,43.69L64.87,44.48L65.24,41.73L65.42,39.78L65.6,41.2L65.78,40.69L65.96,35.3L66.5,30.62L66.68,32.73L66.86,33.31L67.77,26.07L67.95,28.81L69.93,16L70.11,20.03L70.66,17.48L70.84,18.74L71.02,19.36L71.2,17.23L71.74,18.07L71.92,18.27L72.1,20.82L72.64,18.15L72.83,18.34L74.63,34.91L74.81,31.01L74.99,30.34L75.17,32.42L75.36,34.34L76.62,54.77L76.98,54.38L77.16,56.95L79.51,94.46L79.69,95.64L81.5,124.29L81.68,127.76L86.2,191.24L86.38,191.92L87.64,206.97L87.82,206.17L88,205.78L88.19,210.44L89.27,221.17L89.45,219.25L89.63,216.59L89.99,221.5L90.17,221.63L90.35,220.75L90.53,224.24L91.62,228.88L91.8,228.54L91.98,230.3L92.16,227.52L92.34,226.05L92.88,232.66L93.06,231.18L93.25,228.34L93.43,227.27L93.61,230.11L93.79,232.99L94.69,227.57L94.87,228.94L95.05,229.14L95.41,228.22L96.14,230.53L96.32,228.62L96.68,229.62L97.4,225.82L97.58,227.83L97.76,229.68L98.12,226.28L98.31,225.81L98.67,226.18L98.85,225.66L99.03,225.11L99.75,219.18L100.11,220.86L100.29,222.07L101.02,216.17L101.2,217.47L101.38,218.18L101.92,219.75L102.28,215.71L102.46,215.06L103.18,209.56L103.55,209.63L103.73,206.95L103.91,210.98L104.27,206.42L104.63,210.39L104.81,207.24L104.99,206.58L105.17,209.14L105.35,209.14L105.53,206.4L106.08,201.01L106.44,203.74L106.62,202.18L107.52,198.29L107.7,199.22L108.97,192.55L109.15,193.07L109.33,194.89L109.51,196.11L109.69,192.34L109.87,190.99L110.05,192.98L110.23,190.57L110.41,188.29L110.77,191.29L110.95,188.92L111.14,188.29L111.32,189.73L111.68,187.33L111.86,184.53L112.04,186.46L112.4,184L112.58,183.86L113.12,184.51L113.3,182.38L113.67,184.41L113.85,182.67L114.03,180.66L114.39,178.8L114.93,179.35L115.11,180.84L115.83,176.85L116.01,174.27L116.38,177.35L116.56,175.6L116.74,173.46L116.92,172.55L117.1,174.91L117.28,179.62L118.36,171.3L118.54,171.85L118.73,172.78L118.91,171.1L119.27,172.15L119.45,172.39L119.63,173.76L119.81,172.82L119.99,168.99L120.89,165.54L121.07,166.17L121.26,167.11L121.8,167.36L121.98,165.58L122.16,166.98L122.34,167.52L122.52,166.51L122.7,166.76L122.88,166.53L123.6,164.44L123.79,165.66L124.15,165.87L124.69,163.89L124.87,161.29L125.59,165.55L125.95,164.08L126.13,165.04L126.5,161.1L126.68,159.1L127.22,162.44L127.4,161.34L127.58,160.48L127.94,157.15L128.12,160.94L128.3,161.69L128.66,162.07L128.84,162.44L129.03,163.07L129.21,162.08L129.39,159.82L130.47,157.18L130.65,157.45L131.01,154.04L131.19,156.21L131.37,157.97L131.56,156.35L131.74,158.73L131.92,160.45L132.28,157.9L132.46,153.72L133.18,157.96L133.36,154.46L133.72,157.76L133.9,153.7L134.09,154.1L134.27,154.75L134.45,153.99L134.63,158.25L134.99,151.21L135.53,153.13L135.71,156.41L135.89,157.03L136.07,153.84L136.25,155.11L136.62,152.48L136.8,152.03L136.98,154.63L137.34,150.33L137.7,154.18L137.88,152.73L138.42,149.71L138.78,150.9L138.96,153.19L139.69,148.46L139.87,148.89L140.05,150.19L140.23,147.16L140.95,147.29L141.13,149.3L142.22,146.47L142.4,146.09L142.76,143.11L142.94,144.53L143.12,145.9L144.21,144.2L144.39,142.23L144.75,144.44L144.93,141.5L145.11,143.48L145.29,143.87L146.37,140.37L146.55,141.8L147.46,136.69L147.64,137.48L147.82,137.01L148.36,137.48L149.08,131.39L149.26,133.43L149.63,135.68L149.81,132.95L149.99,132.35L150.17,134.52L150.53,130.37L150.71,128.72L151.07,130.79L151.25,127.64L151.43,127.98L151.61,126.87L151.79,126.98L151.98,130.76L152.52,126.66L153.06,127.12L153.24,127.21L153.78,123.13L153.96,125.36L154.14,126.22L154.87,117.76L155.05,119.22L155.23,121.88L155.41,119.73L155.95,120.85L156.13,120.71L157.22,115.52L157.4,114.46L158.3,118.04L158.48,117.57L158.66,115.4L159.02,112.17L159.2,116.01L159.38,116.36L159.75,112.04L160.29,113.07L160.47,114.89L161.01,113.57L161.19,114.85L161.37,114.6L161.55,112.43L161.73,115.07L162.1,113.69L162.28,115.97L162.82,118.26L163,115.75L163.36,118.57L163.54,116.02L163.72,114.4L163.9,118.2L164.44,116.24L164.63,116.06L164.99,121.73L165.35,117.53L165.53,118.7L165.71,118.36L165.89,121.11L166.97,124.26L167.16,124.28L167.34,124.33L167.52,125.66L168.6,132.86L168.78,132.07L169.14,130.5L169.32,132.19L169.5,133.54L170.41,137.71L170.59,136.37L172.03,148.05L172.21,143.89L172.4,141.53L174.38,155.42L174.56,153.67L174.93,151.9L175.11,156.37L175.29,158L175.47,155.54L175.83,157.65L176.01,155.91L177.27,165.69L177.46,165.03L177.64,164.28L177.82,164.18L178,162.67L178.36,166.92L178.9,166.75L179.08,165.57L180.17,172.48L180.35,171.38L180.53,169.52L180.89,171.86L181.07,170.68L181.25,170.28L181.43,170.34L181.61,172.43L181.79,174.14L182.33,173.49L182.52,172.75L182.88,174.63L183.24,172.88L183.42,173.86L183.6,173.71L183.78,174.04L183.96,174.96L184.14,175.4L184.5,175.16L184.68,174.33L184.86,174.14L185.05,177.44L185.95,175.73L186.13,178.09L186.31,178.1L186.49,174.62L186.67,173.29L187.03,176.07L187.21,179.31L187.58,174.9L187.94,177.27L188.12,177.44L188.48,174.91L188.66,178.47L188.84,177.06L189.02,177.61L189.38,181.24L189.56,178.64L189.74,175.96L190.11,180.63L190.47,176.31L190.65,177.4L191.01,177.07L191.19,174.83L191.55,176.78L191.91,176.42L192.09,174.38L192.45,179L193,177.96L193.18,176.98L193.9,174.88L194.08,175.02L194.26,175.84L194.8,178.38L194.98,176L195.16,174L195.35,176.47L195.89,174.97L196.07,173.85L196.43,173.43L196.61,174.48L196.79,175.69L196.97,173.85L197.15,171.46L197.51,175.03L197.69,173.24L197.88,170.18L198.06,169.21L198.24,171.14L198.42,172.23L198.78,175.78L199.14,172.95L199.32,170.13L199.68,173.73L200.04,171.38L200.22,171.95L200.59,168.32L200.95,169.41L201.13,173.53L201.31,173.91L201.49,170.87L201.85,173.64L202.21,171.21L202.39,170.83L202.57,171.87L202.75,170.67L202.94,168.91L203.12,166.19L203.48,169.74L203.66,168.69L203.84,168.49L204.02,168.62L204.2,167.96L204.38,167.67L204.56,167.91L204.74,167.66L204.92,169.38L205.1,169.62L205.28,167.79L205.65,171.36L206.01,167.7L206.19,168.72L207.09,169.38L207.27,166.54L207.45,164.55L207.81,168.21L208,166.02L208.18,167.01L208.54,167.45L208.72,166.13L208.9,166.82L209.08,168.1L209.44,165.02L209.98,165.52L210.16,164.52L210.34,164.89L210.53,162.76L210.71,162.7L210.89,164.19L211.07,164.73L211.25,163.54L211.43,162.81L211.61,162.03L211.97,163.72L212.15,163.64L213.05,165.89L213.24,164.2L213.42,162.83L213.78,163.84L213.96,164.93L214.14,164.74L214.32,165.01L214.5,163.55L214.68,159.82L215.22,159.93L215.4,163.12L215.77,158.48L215.95,160.8L216.13,164.61L216.31,164.15L216.49,160.54L216.67,160.54L216.85,161.41L217.39,158.81L217.57,160.59L217.75,160.75L217.93,160.45L218.11,161L218.3,161.34L218.48,159.44L219.02,161.35L219.2,160.74L219.74,163.38L219.92,161.92L220.1,160.65L220.28,162.13L220.46,160.27L220.64,157.11L221.55,160.07L221.73,159.67L222.27,161.02L222.45,162.01L222.63,162.16L222.81,160.8L222.99,160.24L223.17,162.59L223.54,163.49L223.72,162.57L224.26,156.52L224.62,158.12L224.8,157.21L225.7,160.76L225.89,159.48L226.25,162.1L226.43,161.25L226.61,159.67L226.79,160.78L226.97,157.46L227.15,156.92L227.33,160.16L227.69,156.78L227.87,157.67L228.05,159.13L228.23,159L228.42,155.73L229.14,159.21L229.32,157.34L229.5,156.29L230.04,159.98L230.22,159.82L230.4,156.52L230.76,158.28L231.31,157.72L231.49,157.38L231.67,157L231.85,158.48L232.75,155.17L232.93,155.8L233.11,157.16L233.47,158.54L233.84,157.47L234.02,157.29L234.2,157.2L234.38,155.97L234.56,156.13L234.74,154.95L235.1,158.64L235.64,157.53L235.82,158.21L236.37,157.04L236.73,161.98L236.91,160.55L237.63,152.79L237.81,158.21L237.99,161.84L238.35,157.01L238.53,157.05L238.9,157.15L239.08,157.69L239.8,155.31L239.98,156.01L240.16,158.37L240.34,155.58L240.88,155.79L241.06,156.85L241.79,153.66L241.97,154.67L242.15,154.39L242.51,157.79L242.69,154.8L242.87,153.38L243.96,158.08L244.14,158.43L244.32,156.87L244.68,157.33L244.86,158.74L245.76,152.4L245.94,155.36L246.31,152.28L246.49,154.03L246.67,158.42L246.85,158.1L247.03,158.64L247.21,161.26L247.57,155.16L248.11,157.37L248.29,159L248.65,154.4L249.2,154.92L249.38,155.63L249.56,155.36L249.74,155.9L249.92,156.34L250.1,154.18L250.46,158.54L250.64,155.86L250.82,156.15L251,156.69L251.18,152.83L251.55,157.15L252.09,155.46L252.27,156.45L252.63,159.28L252.81,158.06L252.99,157.36L253.17,159.11L253.53,158.1L253.71,156.77L253.89,156.77L254.08,159.3L254.44,161.04L254.62,159.63L254.8,155.38L254.98,154.98L255.16,156.93L255.34,157.07L255.52,153.76L256.42,158.72L256.61,155.2L256.79,153.73L256.97,155.38L257.15,157.3L257.33,154.32L257.69,158.35L257.87,159.71L258.05,159.63L258.23,155.95L259.14,159.31L259.32,156.72L259.68,159.44L259.86,156.07L260.22,160.01L260.58,159.47L260.76,157.73L261.12,154.36L261.48,158.3L261.67,160.21L262.57,155.66L262.75,158.76L263.11,155.58L263.47,156.88L263.65,159.95L264.01,158L264.2,158.73L264.38,155.98L264.56,155.83L264.74,156.71L265.82,163.34L266,159.07L266.18,157.39L266.36,159.17L266.73,158.1L266.91,160.06L267.09,160.02L267.27,158.27L267.81,158.55L267.99,160.1L268.35,159.44L268.53,159.94L268.71,161.1L269.26,162.47L269.44,161.62L269.62,159.92L269.98,158.47L270.16,160.06L270.34,161.32L270.52,160.69L270.7,157.62L270.88,155.85L271.06,161.89L271.24,162.72L271.42,161.04L271.6,160.58L271.79,161.13L271.97,161L272.15,158.72L273.05,164.35L273.23,162.87L273.41,160.86L273.95,159.77L274.32,163.37L274.5,162.82L274.68,160.19L275.04,163.97L275.22,163.96L275.58,160.08L275.76,162.23L275.94,164.93L276.3,164.73L276.48,165.75L276.66,164.19L276.84,162.86L277.21,164.97L277.39,166.25L278.29,163.43L278.47,166.16L279.19,165.08L279.37,166.14L280.1,163.9L280.28,166.17L281,168.45L281.18,164.55L282.09,171.22L282.27,168.73L282.45,166.96L282.63,169.42L282.81,172.13L282.99,172.12L283.17,170.96L283.53,172.58L283.71,170.23L283.89,167.8L284.8,175.04L284.98,174.21L285.16,170.58L285.52,178.05L285.88,173.32L286.06,174.4L286.42,175.76L286.6,174.27L286.78,174.43L286.96,175.23L288.05,177.56L288.23,176.97L288.41,176.3L288.59,177.33L288.77,179.24L288.95,178.73L289.13,181.09L289.31,183.37L289.68,179.22L289.86,178.85L290.04,177.66L290.4,179.63L290.58,181.51L291.66,189.35L291.84,187.24L292.02,184.7L292.21,183.97L292.39,185.17L292.57,186.2L292.75,186.35L292.93,188.29L293.11,189.73L293.29,187.82L293.65,189.43L293.83,189.25L294.37,194.52L294.55,192.5L294.74,190.64L295.46,195.19L295.64,192.34L295.82,193.49L297.08,200.93L297.26,199.25L297.45,200.08L297.81,202.67L298.35,202.14L298.53,200.42L298.89,204.3L299.07,206.96L299.43,202.71L299.79,204.53L299.98,207.75L300.16,211.04L300.7,209.48L300.88,208.32L301.06,210.32L301.6,208.64L301.78,208.51L302.14,213.13L302.69,212.83L302.87,211.14L303.77,216.62L303.95,214.18L304.13,212.8L304.67,219.78L304.85,217.42L305.04,216.3L305.58,218.29L305.94,218.01L306.12,217.21L306.48,214.35L307.02,215.07L307.2,216.99L307.75,213.6L307.93,213.02L309.37,204.96L309.55,206.44L309.73,207.73L311.72,194.69L311.9,190.93L312.08,191.19L312.26,190.42L312.44,187.78L313.53,177.02L313.71,175.85L314.07,173.4L314.25,167.79L316.06,150.36L316.24,152.12L318.59,123.64L318.77,121.5L319.13,119.18L319.31,117.29L319.49,117.39L319.67,116.28L320.4,110.26L320.58,112.05L320.76,112.46L321.12,111.93L321.3,108.75L322.2,101.9L322.38,102.38L322.56,102.82L322.74,104.78L322.93,101.17L323.11,98.37L323.47,103.17L323.83,100.48L324.01,100.59L324.37,99.87L324.73,101.41L324.91,100.55L325.27,106L325.82,103.9L326,104.61L326.36,106.81L326.54,104.74L326.72,104.13L327.08,105.41L327.26,108.83L327.8,111.9L327.99,110.15L328.17,110.3L329.43,117.37L329.61,117.21L329.79,115.06L330.7,119.52L330.88,117.74L331.06,117.66L332.32,124.67L332.5,124.24L333.41,131.21L333.59,130.87L333.77,127.85L334.67,134.8L335.03,134.1L335.21,135.36L335.39,135.42L335.58,137.88L335.76,138.08L335.94,135.22L337.02,144.04L337.2,139.8L337.38,140.19L337.56,143.3L337.92,143.14L338.11,144.89L338.65,143.02L338.83,145.34L339.01,146.54L339.37,144.41L339.55,144.8L339.73,145.12L339.91,148.02L340.27,146.31L340.45,148.5L340.63,151.19L341.18,153.38L341.36,152.62L341.54,151.25L342.08,153.72L342.44,153.18L342.62,151.68L343.71,157.27L343.89,157.88L344.07,156.36L344.25,158.16L344.43,162.32L345.15,158.96L345.33,159.8L345.51,160.88L345.69,158.4L346.06,161.17L346.24,162.03L346.42,164.1L346.6,161.89L346.96,162.17L347.14,162.29L348.22,164.59L348.41,164.75L348.77,164.52L349.13,168.43L349.31,167.66L349.49,165.46L350.21,169.42L350.39,171.92L350.75,167.51L351.3,168.66L351.48,169.08L351.84,171.72L352.02,170.15L352.2,169.19L352.56,167.39L352.92,175.21L353.1,173.14L353.28,170.64L354.37,175.85L354.55,176.45L354.73,176.68L354.91,173.69L355.09,172.36L355.27,177.91L355.63,176.53L356.18,178.85L356.36,176.27L356.54,174.87L356.9,177.86L357.08,177.03L357.26,173.37L357.62,179.22L357.8,179.94L357.98,179.32L358.16,180.32L358.34,181.86L358.53,179.93L359.07,180.16L359.25,181.88L359.97,182.42L360.15,184.39L360.51,182.98L360.87,183.23L361.05,185.86L362.14,189.87L362.32,188.06L362.5,189.17L362.68,188.29L362.86,185.3L364.13,193.61L364.31,191.37L364.49,190.6L364.67,189.92L364.85,190.79L365.03,192.77L365.21,191.56L365.57,193.11L365.75,193.95L366.48,195.72L366.66,194.2L366.84,194.51L367.02,198.03L367.74,195.23L367.92,197.4L368.1,197.24L368.28,196.89L368.46,198.02L368.64,198.73L369.01,199L369.19,198.58L369.37,195.87L369.73,201.57L370.09,197.11L370.27,198.1L370.45,196.48L370.63,200.25L370.81,200.13L371.17,197.34L371.54,197.62L371.72,199.44L371.9,199.93L372.08,202.91L372.44,195.91L372.98,198.7L373.16,195.62L373.34,193.54L373.52,198.93L373.7,200.52L374.61,195.05L374.79,195.36L375.33,197.48L375.51,196.44L375.69,195.1L376.05,195.4L376.23,193.8L376.6,190.3L377.14,190.79L377.32,188.62L377.5,188.74L377.68,189.8L378.58,182.73L378.76,184.56L378.95,186.58L379.85,181.05L380.03,181.79L380.21,182.38L380.75,174.44L381.29,175.4L381.47,174.84L381.84,171.84L382.02,173.72L382.2,173.71L383.28,164.77L383.46,164.46L383.64,164.51L383.82,160.77L384.37,158.22L384.55,158.96L384.73,159.83L385.45,149.62L385.81,151.33L385.99,151.57L387.08,143.18L387.26,143.66L387.44,144.33L388.16,139.03L388.34,139.27L388.52,140.83L389.43,133.74L389.61,132.7L390.15,134.26L390.33,133.18L390.51,133.14L391.23,127.11L391.59,129.59L391.78,127.76L391.96,124.96L392.32,128.71L392.5,128.54L393.04,123.55L393.58,123.87L393.76,125.13L393.94,126.46L394.12,124.12L394.31,122.5L394.67,121.92L394.85,124.11L395.03,122.44L395.21,123.46L395.39,126.56L396.11,120.36L396.29,120.91L396.47,124.61L396.65,127.5L396.84,121.23L397.02,120.75L397.38,127.27L397.56,122.39L397.74,118.37L398.82,125.35L399,123.91L399.18,122.04L399.73,127.37L400.09,124.8L400.27,125.44L400.45,123.49L400.99,125.48L401.17,125.47L401.71,124.75L402.08,129.62L402.26,125.73L402.62,129.06L403.16,127.97L403.34,127.11L403.7,128.7L404.06,128.58L404.24,133.17L404.42,133.54L404.61,131.56L404.79,131.76L404.97,131.55L405.15,129.9L405.33,128.88L405.51,129.12L405.69,134.98L405.87,134.75L406.05,133.26L406.59,131.93L406.95,136.65L407.14,136.39L407.5,131.9L407.86,133.98L408.04,135.12L408.4,138.25L408.58,136.77L408.76,135.68L409.3,139.12L409.85,138.92L410.03,138.79L410.75,139.42L410.93,142.11L411.11,142.3L411.29,140.85L411.83,138.72L412.01,140.99L412.2,144.01L412.56,137.93L412.74,139.9L413.1,146.22L413.46,142.91L413.64,144.57L414.18,145.51L414.54,141.93L414.73,143.52L415.63,147.64L415.81,147.36L416.17,148.47L416.71,142.8L416.89,145.46L417.44,149.92L417.62,148.67L417.8,146.81L417.98,146.86L418.16,147.97L418.52,146.83L418.7,148.38L419.6,150.48L419.79,149.76L419.97,148.58L421.23,152.83L421.41,150.58L421.95,149.58L422.13,148.88L422.5,152.85L422.68,147.18L422.86,148.04L423.76,154.34L423.94,152.37L424.12,150.58L425.03,153.97L425.21,153.49L425.57,149.84L425.75,152.13L425.93,154.85L426.11,155.57L426.29,154.57L426.47,153.62L426.65,152.32L427.01,152.52L427.19,153.96L428.28,151.27L428.46,153.61L428.82,157.15L429,156.99L429.18,153.7L429.9,158.05L430.09,156.62L430.27,153.41L430.63,153.08L430.81,154.03L430.99,157.5L431.35,154.06L431.71,155.51L431.89,158.86L432.25,153.75L432.62,157.63L432.8,155.78L433.16,155.93L433.52,154.19L433.7,155.34L434.24,158.43L434.42,156.06L434.78,155.42L434.96,155.8L435.15,158.93L435.33,160.89L435.69,156.96L435.87,156.64L436.23,160.72L436.41,158.83L436.59,156.48L436.77,154.97L436.95,156.04L437.13,158.65L437.31,159.52L437.49,158.22L437.68,155.79L438.4,159.12L438.76,158.04L438.94,158.73L439.48,158.96L439.66,157.1L440.57,160.58L440.75,160.39L440.93,160.32L441.11,160.66L441.29,159.8L441.47,158.53L441.65,158.65L441.83,160.84L442.01,161.34L442.19,159.26L443.1,161.52L443.28,160.29L443.46,161.82L443.82,159.74L444,159.02L444.72,160.95L444.9,159.05L445.08,158.4L445.26,159.98L445.45,161.29L445.81,162.71L446.17,159.18L446.35,162.12L447.25,164.38L447.43,160.85L447.61,158.94L447.79,161.88L447.98,164.55L448.34,164.84L448.52,163.04L448.7,159.69L449.06,165.25L449.24,163.74L449.42,166.09L449.78,161.43L449.96,161.71L450.14,164.89L450.51,161.56L450.69,163.66L450.87,162.72L451.77,165.73L452.13,165.28L452.31,165.83L452.67,164.35L452.85,166.15L453.04,166.4L453.4,164.8L453.58,166.18L454.12,168.09L454.3,165.68L454.66,163.81L455.02,165.89L455.2,168.57L455.38,168.47L455.57,166.06L455.75,165.58L455.93,166.3L456.11,168.08L456.47,169.79L456.83,168.74L457.01,167.44L457.37,170.83L457.55,171.87L458.64,168.79L458.82,172.13L459.18,168.67L459.54,169.28L459.72,170.51L459.9,173.84L460.26,170.51L460.44,169.87L460.99,169.22L461.17,173.89L461.35,173.58L461.53,171.37L462.25,169.4L462.43,170.81L462.61,173.01L463.34,175.79L463.52,175.36L463.7,174.7L464.06,177.08L464.42,176.47L464.6,175.31L465.14,178.33L465.32,175.11L465.5,173.43L465.68,177.69L465.87,179.01L466.23,174.47L466.77,175.64L466.95,177.09L467.31,179.83L467.49,176.21L467.67,175.73L468.4,180.93L468.58,179.53L468.76,179.6L469.48,184L469.66,181.52L469.84,180.85L470.02,181.03L470.2,182.92L470.38,184.78L470.74,180.75L470.93,184.41L471.11,183.79L471.65,183.04L472.01,186.23L472.19,184.48L472.91,187.59L473.09,190.22L473.46,191.69L473.64,189.25L474.18,192.6L474.36,190.69L474.54,188.26L475.62,193.41L475.8,190.66L475.99,188.83L476.17,191.75L476.35,193.86L476.53,193.45L477.07,194.02L477.25,193.99L477.61,193.14L477.79,194.53L477.97,193.03L478.15,191.14L478.52,194.6L478.7,197.68L479.06,196.62L479.24,198.24L479.42,197.84L479.6,198.63L479.78,198.76L479.96,197.34L480.32,195.31L480.68,196.42L480.86,197.3L481.05,200.06L481.59,198.58L481.77,197.08L481.95,197.34L482.13,196.26L482.85,198.73L483.03,195.96L483.58,199.24L483.76,198.37L483.94,197.46L484.12,198.76L484.3,197.67L484.48,195.84L484.84,197.41L485.02,196.18L485.2,195.13L485.74,196.17L485.92,195.66L486.11,194.32L486.29,193.85L486.65,194.91L486.83,195.05L487.55,194.55L487.73,192.26L488.09,188.77L488.27,191.05L488.45,193.38L489.18,187.45L489.36,188.76L489.54,190.03L489.9,185.84L490.26,189.28L490.44,188.46L491.35,181.34L491.53,181.17L491.71,182.4L492.07,180.29L492.25,178.92L493.15,171.61L493.33,172.49L493.51,174.87L494.78,166.99L494.96,167.3L495.14,162.62L495.5,164.09L497.67,154.94L497.85,155.12L498.03,151.92L498.94,147.3L499.12,148.24L500.38,138.78L500.56,141.22L500.74,142.25L500.92,139.42L501.1,137.3L501.28,138.11L501.47,136.65L501.65,133.54L501.83,136.45L502.19,130.49L502.37,132.95L502.55,134.16L502.91,132.53L503.09,130.22L503.27,130.34L503.45,131.58L503.63,132.31L503.81,129.16L504,126.31L504.18,133.13L504.36,134.24L505.26,126.92L505.44,128.54L506.16,125.46L506.34,127.89L506.53,127.7L506.71,125.76L506.89,125.64L507.07,128.22L507.25,128.47L507.43,125.79L508.15,120.87L508.51,122.19L508.69,122.2L509.05,121.95L509.24,124.54L509.42,123.41L509.6,123.41L509.78,125.09L510.14,122.81L510.32,123.54L510.5,124.24L510.68,124.76L510.86,123.65L511.04,123.03L511.58,127.16L511.77,126.35L511.95,123.99L512.31,128.75L512.67,125.5L512.85,125.49L513.21,123.86L513.39,126.66L513.57,128.55L513.75,128.37L513.93,129.96L514.66,125.37L514.84,130.61L515.74,125.69L515.92,127.07L516.28,133.26L516.46,130.98L516.64,127.33L517.19,129.66L517.37,132.56L517.55,133.2L517.91,132.08L518.09,131.95L518.45,135.79L518.99,134.83L519.17,136.14L519.36,132.5L519.72,137.73L519.9,136.45L520.08,133.55L520.98,139.12L521.16,136.85L521.34,136.13L522.43,139.68L522.61,139.58L522.79,139.84L522.97,139.34L523.33,139.93L523.51,136.43L523.69,137.21L523.87,141.44L524.6,137.71L524.78,139.09L524.96,141.11L525.14,143.21L525.5,139.66L525.68,139.96L525.86,139.08L526.04,140.17L526.22,141.28L526.4,141.49L526.58,142.92L526.76,144.7L526.95,141.42L527.13,140.76L527.67,144.49L527.85,141.65L528.03,141.61L528.75,144.58L528.93,142.65L529.11,141.47L529.29,145.43L529.47,147.64L529.84,143.7L530.02,141.32L530.2,140.5L530.38,143.46L531.28,147.86L531.46,148.08L532.19,143.94L532.37,145.35L532.55,145.86L532.73,145.03L532.91,146.63L533.09,148.53L533.27,148.35L533.45,149.6L533.81,146.77L533.99,145.53L534.72,149.37L534.9,148.45L535.08,145.92L536.16,150.43L536.34,149.71L536.7,146.45L537.06,149.86L537.25,150.75L537.43,150.47L537.61,148.57L537.97,150.66L538.15,149.27L538.33,146.75L538.69,152.25L538.87,149.68L539.05,148.42L539.59,153.75L539.96,151.62L540.14,150.62L540.86,153.65L541.04,153.28L541.22,150.4L541.58,153.09L541.76,153.62L541.94,153.17L542.12,154.28L542.31,155.84L542.85,149.36L543.21,150.87L543.39,150.68L543.57,150.79L543.75,152.8L543.93,153.24L544.11,155.93L544.29,155.23L544.47,151.09L545.2,154.7L545.38,153.39L545.56,153.07L545.92,152.69L546.28,153.37L546.46,155.06L547,155.58L547.18,152.76L547.55,155.21L547.73,152.76L547.91,151.16L548.27,155.63L548.63,152.63L548.81,152.55L548.99,150.74L549.17,153.48L549.35,155.31L549.89,149.82L550.08,152.85L550.26,154.84L550.44,152.73L550.8,156.7L550.98,154.23L551.16,154.26L551.34,153.57L551.7,154.73L551.88,155.13L552.06,157.87L552.24,154.64L552.42,151.77L553.51,154.61L553.69,151.16L554.41,154.86L554.77,154.6L554.95,155.22L555.86,159.6L556.04,156.44L556.22,154.69L556.58,156.82L556.76,157.41L557.3,153L557.48,155.93L557.67,157.15L557.85,155.27L558.39,156.47L558.57,157.03L558.93,152.49L559.29,155.25L559.47,154.98L559.83,156.35L560.01,154.68L561.1,161.83L561.28,159.51L562.18,153.99L562.36,156.15L562.73,158.17L562.91,155.96L563.09,156.77L563.27,156.95L563.45,157.64L563.63,156.41L563.81,153.66L563.99,158.14L564.71,157.57L564.89,156.89L565.44,154.33L565.62,156.38L565.8,158.33L566.52,155.28L566.7,158.72L567.24,159.16L567.42,158.2L568.15,155.9L568.33,156.69L568.51,159.26L568.69,160.2L569.05,158.63L569.23,158.95L569.59,158.81L569.95,159.44L570.13,158.22L570.32,156.8L570.5,158.7L570.68,160.99L570.86,161.46L571.04,159.41L571.58,157.99L571.76,158.86L571.94,160.38L572.66,163.31L572.84,160.43L573.03,158.43L573.39,159.97L573.57,160.68L573.75,161.01L573.93,159.45L574.65,164.42L574.83,161.21L575.01,159.49L575.92,164.59L576.1,160.73L576.28,159.89L576.46,163.3L576.64,164.65L576.82,162.25L577,161.48L577.18,160.8L577.36,161.74L577.54,162.87L577.9,160.94L578.09,161.34L578.27,162.42L578.99,161L579.17,163.5L579.53,161.21L579.89,165.42L580.07,163.6L580.25,161.9L580.8,162.54L580.98,166.14L581.52,162.96L582.06,163.68L582.24,164.09L582.42,163.24L582.6,165.8L582.78,166.45L582.96,163.71L583.51,164.08L583.69,165.59L584.05,163.71L584.23,166.59L584.41,168.69L584.77,165.68L584.95,164.97L585.13,163.27L585.49,166.73L585.68,167.77L586.04,165.31L586.22,166.28L586.4,169.27L586.94,170.92L587.12,168.47L587.48,165.69L587.66,166.95L587.84,171.74L588.21,169.67L588.57,169.82L588.75,172.16L589.29,169.99L589.47,170.29L589.65,173.3L589.83,172.1L590.01,172.41L590.19,174.87L590.37,170.78L590.92,171.07L591.1,172.31L591.28,170.61L591.64,172.69L591.82,172.13L592,173.12L592.18,177.89L592.72,175.62L592.9,175.89L593.26,174.64L593.45,177.92L593.99,173.45L594.17,177.64L594.35,179.38L594.71,176.99L594.89,175.55L595.07,174.62L595.25,175.45L595.43,178.78L595.79,183.3L596.16,178.52L596.34,177.87L596.7,177.2L597.24,182.64L597.42,181.95L597.6,181.16L597.96,184.59L598.51,183.81L598.69,183.88L598.87,183.76L599.05,184.97L599.95,189.9L600.13,189.49L600.31,188.79L600.49,189.04L600.67,187.8L601.04,185.77L601.22,189.27L601.4,191.93L601.94,188.22L602.12,188.92L602.3,191.15L602.48,190.47L602.66,191.69L602.84,192.33L603.02,192.15L603.2,193.45L603.93,196.74L604.11,196.1L604.29,197.04L604.47,195.63L604.83,197.27L605.01,196.25L605.19,199.68L605.55,197.46L605.73,200.55L605.91,199.77L606.1,200.72L606.28,202.7L606.46,202.97L606.64,202.33L606.82,201.74L608.08,209.28L608.26,208.5L608.44,206.28L608.81,208.25L608.99,205.89L609.35,209.98L609.53,208.29L609.71,206.96L610.25,209.79L610.43,207.56L610.61,207.86L610.97,214.09L611.52,212.53L611.7,212.78L612.24,215.88L612.42,213.03L613.32,216.42L613.5,215.09L613.68,213.8L613.87,217.14L614.23,213.96L614.41,216.3L614.59,215.39L614.77,217.71L614.95,218.3L615.31,214.69L615.85,214.81L616.03,215.69L616.21,214.07L616.58,216.35L616.76,214.65L616.94,214.39L617.3,212.13L617.48,213.34L617.66,215.01L618.02,211.7L618.2,207.65L618.38,207.74L618.56,209.92L619.29,206.16L619.47,207.09L619.65,208.91L620.91,199.6L621.09,199.74L623.08,183.41L623.26,184.06L623.44,184.68L624.89,170.19L625.07,171.92L625.43,169.43L625.61,166.97L626.7,156.73L626.88,155.06L627.06,156.08L627.24,151.72L629.05,136.55L629.23,137.28L629.77,136.46L629.95,132.89L630.31,131.07L630.49,130.64L630.67,130.9L630.85,127.52L631.58,123.63L631.76,121.16L631.94,121.83L632.12,118.59L632.3,117.98L632.48,120.58L632.66,121.12L632.84,118.06L633.02,118.96L633.38,117.53L633.56,118.74L633.74,117.6L634.65,114.13L634.83,113.81L635.19,111.11L635.55,113.25L635.73,112.7L636.09,113.23L636.45,110.72L636.63,111.09L636.82,110.78L637,113.43L637.72,113.28L637.9,111L638.08,110.63L638.26,112.52L638.8,111.32L638.98,112.42L639.16,113.52L639.53,108.94L639.89,113.37L640.07,114.43L640.43,112.64L640.61,112.76L640.79,114.7L641.15,113.65L641.51,116.75L641.69,114.95L641.88,113.16L642.06,116.12L642.24,118.19L642.42,115.37L642.78,119.42L642.96,117.62L643.14,117.63L643.68,116.41L644.04,121.51L644.22,121.18L644.41,120.48L645.67,128.55L645.85,127.81L646.39,123.32L646.57,125.15L646.75,125.86L646.94,124.33L647.12,126.19L647.3,127.61L647.84,129.68L648.02,131.07L648.38,128.61L648.92,129.02L649.1,131.3L650.37,137.41L650.55,137.27L651.09,134.66L651.27,135.32L651.45,136.94L652,138.79L652.18,140.52L652.36,142.87L652.72,137.8L652.9,138.46L653.62,141.82L653.8,141.35L653.98,142.34L654.16,143.17L654.34,139.8L654.71,140.65L654.89,139.65L655.07,143.13L656.15,148.81L656.33,144.52L657.24,143.31L657.42,147.64L657.78,145.7L657.96,148.49L658.14,149.02L658.32,144.8L658.86,148.06L659.04,148.92L659.22,148.09L659.4,150.6L659.58,150.9L659.95,147.54L660.31,149.87L660.49,151.2L660.85,147.29L661.21,151.47L661.39,152.56L661.75,153.9L662.3,153.47L662.48,152.49L662.84,150.22L663.56,156.04L663.74,151.88L664.28,151.11L664.64,156.61L664.83,154.86L665.01,153.81L665.55,157.95L665.73,156.48L665.91,154.56L666.45,159.25L666.81,158.46L666.99,156.5L667.17,153.55L667.54,159.49L667.72,155.79L667.9,157.07L668.98,162.53L669.16,161.78L669.34,161.44L669.52,160.86L669.7,160.96L669.89,162.41L670.07,162.21L670.25,160.76L670.61,161.88L670.79,160.37L670.97,158.9L671.51,160.11L671.69,160.38L672.6,165.85L672.96,164.15L673.14,163.52L673.5,160.72L674.04,161.1L674.22,162.62L674.4,162.94L674.58,165.3L675.13,165.71L675.49,161.61L675.67,164.27L676.21,167.18L676.75,166.49L676.93,166.01L677.11,167.59L677.47,165.04L677.66,165.54L677.84,166.9L678.02,163.93L678.2,163.09L678.56,170.12L679.1,167.87L679.28,167.58L679.46,168.78L679.82,167.28L680,168.48L680.19,167.98L680.37,167.43L680.55,170.4L680.73,171.39L680.91,169.06L681.09,168.81L681.63,172.79L681.81,171.15L681.99,168.84L683.08,173.19L683.26,173.54L683.44,173.93L683.62,171.15L683.98,171.41L684.16,169.57L684.34,170.61L684.52,174.59L684.7,176.95L685.06,173.59L685.25,175.36L685.43,175.28L685.97,177.26L686.15,176.51L686.33,175.04L686.69,175.56L686.87,177.73L687.23,174.75L687.41,177.52L687.59,180.21L687.96,176.14L688.14,178.08L688.32,178.27L688.5,177.43L688.68,179.92L688.86,179.06L689.04,178.88L689.94,181.55L690.12,180.19L690.49,180.28L690.67,182.68L690.85,185.68L691.21,180.35L691.39,181.75L691.75,183.19L691.93,183.02L692.11,180.8L693.02,188.84L693.2,187.66L693.38,184.82L693.92,183.33L694.1,184.23L694.28,186.31L694.46,185.92L694.64,186.8L694.82,186.66L695,184.34L695.73,188.74L695.91,187.72L696.09,186.79L696.63,191.43L696.99,190.48L697.17,188.85L697.35,189.27L697.53,194.11L697.89,192.28L698.26,192.68L698.44,193.11L698.8,193.86L698.98,193.3L699.16,190.64L699.52,195.49L699.7,195.34L699.88,191.74L700.06,191.45L700.24,195.4L700.42,196.04L700.79,194.98L700.97,194.46L701.15,192L701.51,196.34L701.69,194.16L701.87,193.9L702.77,197.1L702.95,196.65L703.14,193.42L703.32,192.16L703.5,195.26L703.68,196.42L703.86,196.57L704.04,198.01L704.4,199.39L704.58,196.48L704.94,197.57L705.12,197.38L705.3,195.35L705.48,194.13L705.67,198.17L705.85,200.31L706.03,196.66L706.21,197.55L706.39,197.62L706.57,197.22L706.75,199.29L707.47,194.33L707.83,195.52L708.01,196.42L708.2,196.49L708.38,195.75L708.92,196.04L709.28,192.54L709.46,192.23L709.82,190.95L710,194.01L710.18,194.25L710.36,192.26L711.09,189.65L711.27,190.95L711.45,191.14L711.63,189.1L711.99,189.43L712.17,187.6L712.35,188.19L712.53,189.99L713.62,182.6L713.8,183.05L713.98,184.03L714.16,181.8L714.34,181.29L714.52,181.57L714.7,181.2L714.88,180.65L715.42,174.2L715.79,176.77L715.97,176.58L717.05,167.3L717.23,170.25L717.41,170.91L718.5,161.15L718.68,160.62L718.86,161.28L719.04,159.91L719.4,160.66L719.58,159.11L719.94,155.71L720.12,153.39L720.66,154.59L720.84,151.85L721.21,153.2L721.39,152.59L721.57,152.31L722.83,141.49L723.01,142.43L723.56,142.77L724.1,140.31L724.28,139.97L724.46,140.31L724.64,139.79L724.82,138.58L725.9,132.66L726.09,133.5L726.27,134.43L726.81,131.94L727.17,132.75L727.35,132.61L728.07,128.14L728.25,129.79L728.43,128.95L729.34,126.03L729.52,124.83L730.42,130.15L730.6,129.14L731.51,123.16L731.69,124.79L731.87,125.81L732.05,126.57L732.23,124.72L732.59,126.37L732.77,123.59L732.95,123.11L733.13,124.82L733.31,124.39L733.49,125.79L733.68,126.03L734.04,129.45L734.22,128.41L734.4,127.62L734.94,123.53L735.3,124.4L735.48,124.96L736.21,128.82L736.39,126.93L736.57,125.92L736.75,126.02L736.93,128.91L737.11,128.61L737.29,126.78L737.47,125.88L737.65,127.95L737.83,128.61L738.01,127.27L738.19,130.21L738.37,131.35L739.1,128.14L739.28,129.24L739.64,128.56L740,131.27" style="vector-effect: non-scaling-stroke; fill: none; stroke: rgb(245, 133, 24); stroke-opacity: 1; stroke-width: 1px; opacity: 1;"/></g><g class="points"/><g class="text"/></g><g class="trace scatter traceee1fe1" style="stroke-miterlimit: 2; opacity: 1;"><g class="fills"/><g class="errorbars"/><g class="lines"><path class="js-line" d="M0,152.48L4.88,160.14L5.06,160.37L12.29,168.77L12.47,168.96L24.58,183.47L24.76,183.72L31.99,195.04L32.17,195.35L41.74,213.87L41.92,214.24L50.96,230.44L51.14,230.66L54.03,232.79L54.21,232.83L56.2,232.31L56.38,232.17L58.19,229.7L58.37,229.34L60.54,223.22L60.72,222.54L63.43,209.14L63.61,208.02L67.04,181.65L67.22,180.02L75.72,107.04L75.9,106.13L78.07,98.89L78.25,98.6L79.69,97.81L79.87,97.9L81.14,99.56L81.32,99.93L83.49,106.39L83.67,107.05L95.23,150.79L95.41,151.27L100.29,162L100.47,162.33L106.26,171.4L106.44,171.65L122.34,192.45L122.52,192.68L131.74,203.78L131.92,203.95L136.25,207.06L136.43,207.13L139.33,207.44L139.51,207.4L142.04,205.92L142.22,205.74L144.93,201.8L145.11,201.44L148.18,193.48L148.36,192.9L152.16,177.83L152.34,176.99L163.54,125.31L163.72,124.81L166.43,119.56L166.61,119.36L168.6,118.3L168.78,118.3L170.77,119.22L170.95,119.38L173.66,122.77L173.84,123.05L186.49,142.74L186.67,142.93L191.55,147.28L191.73,147.4L197.33,150.53L197.51,150.61L207.45,153.71L207.63,153.75L232.39,159.96L232.57,160.03L240.52,163.46L240.7,163.55L247.93,167.98L248.11,168.11L254.98,173.96L255.16,174.14L262.75,183.18L262.93,183.43L269.8,194.64L269.98,194.98L276.48,208.8L276.66,209.23L284.8,230.59L284.98,231.09L292.93,251.03L293.11,251.36L295.82,254.69L296,254.79L297.63,254.75L297.81,254.63L299.25,252.72L299.43,252.35L301.24,246.77L301.42,246.01L303.77,232.28L303.95,230.91L306.84,202.62L307.02,200.47L312.44,125.47L312.63,123.05L316.06,87.56L316.24,86.41L318.05,79.51L318.23,79.28L319.13,79.26L319.31,79.48L320.58,82.85L320.76,83.56L323.11,96.69L323.29,97.91L332.14,154.87L332.32,155.72L336.84,173.09L337.02,173.66L342.26,187.56L342.44,187.98L349.85,203L350.03,203.32L355.81,212.4L356,212.63L359.79,216.14L359.97,216.23L362.32,216.66L362.5,216.63L364.67,215.3L364.85,215.11L367.2,211.27L367.38,210.86L370.09,202.73L370.27,202.05L373.7,185.65L373.89,184.62L380.03,144.43L380.21,143.25L384.55,119.88L384.73,119.19L387.26,112.42L387.44,112.14L389.25,110.85L389.43,110.86L390.87,111.71L391.05,111.9L393.4,115.85L393.58,116.24L399,130.07L399.18,130.54L406.05,145.41L406.23,145.71L411.29,152.77L411.47,152.98L417.8,158.95L417.98,159.1L441.11,177.43L441.29,177.61L449.78,187.13L449.96,187.36L460.99,202.01L461.17,202.25L467.31,209.25L467.49,209.41L471.11,211.47L471.29,211.51L473.64,211.32L473.82,211.24L475.99,209.54L476.17,209.32L478.7,204.99L478.88,204.58L481.77,196.05L481.95,195.39L485.56,179.23L485.74,178.29L496.41,122.79L496.59,122.22L499.3,116.33L499.48,116.11L501.28,115.11L501.47,115.11L503.27,116.09L503.45,116.27L506.16,120.28L506.34,120.62L511.95,132.17L512.13,132.54L518.09,142.79L518.27,143.04L523.15,148.61L523.33,148.78L528.57,152.75L528.75,152.86L535.08,156.19L535.26,156.27L555.68,166.08L555.86,166.19L563.45,171.68L563.63,171.83L570.68,178.67L570.86,178.87L578.99,189.45L579.17,189.72L586.76,202.4L586.94,202.73L600.31,226.12L600.49,226.33L603.38,228.58L603.57,228.63L605.55,228.47L605.73,228.37L607.54,226.5L607.72,226.21L609.89,221.23L610.07,220.67L612.78,209.41L612.96,208.46L616.4,185.68L616.58,184.26L626.15,109.21L626.33,108.42L628.68,101.88L628.86,101.66L630.31,101.31L630.49,101.42L631.94,103.47L632.12,103.85L634.65,111.24L634.83,111.87L645.13,147.27L645.31,147.73L650.19,157.96L650.37,158.27L655.97,166.48L656.15,166.71L667.54,180.06L667.72,180.27L689.58,205.79L689.76,205.92L693.2,207.38L693.38,207.4L696.09,206.8L696.27,206.7L698.8,204.22L698.98,203.96L701.87,198.28L702.05,197.82L705.3,187.38L705.48,186.68L709.28,169.58L709.46,168.68L718.13,127.97L718.32,127.39L721.21,120.57L721.39,120.3L723.56,118.48L723.74,118.44L725.72,118.95L725.9,119.07L728.43,121.84L728.62,122.1L733.86,130.93L734.04,131.25L740,140.35" style="vector-effect: non-scaling-stroke; fill: none; stroke: rgb(228, 87, 86); stroke-opacity: 1; stroke-width: 1px; opacity: 1; stroke-dasharray: 9px, 9px;"/></g><g class="points"/><g class="text"/></g><g class="trace scatter trace94aa4d" style="stroke-miterlimit: 2; opacity: 1;"><g class="fills"/><g class="errorbars"/><g class="lines"><path class="js-line" d="M0,152.48L0.54,129.85L0.9,133.77L1.08,138.05L1.26,137.05L1.45,140.3L1.81,131.64L2.35,135.69L2.53,136.95L2.71,131.66L3.07,141.26L3.25,139.87L3.43,135.33L3.98,140.07L4.16,146.75L4.52,138.34L5.06,141.08L5.24,146.52L6.14,150.46L6.32,150.07L6.69,152.41L7.05,146.91L7.23,149.16L7.41,145.94L7.77,151.03L7.95,151.51L8.13,144.86L8.67,150.05L8.85,154.3L9.04,153.54L9.22,155.38L9.58,154.28L9.76,157.95L9.94,159.87L10.12,152.85L10.3,150.9L10.48,157.85L10.66,158.12L10.84,155.08L11.2,164.05L11.38,156.45L11.57,152.47L12.11,161.77L12.47,157.17L12.65,157.62L12.83,158.66L13.01,165.59L13.19,167.69L13.37,161.38L13.55,161.6L14.46,169.67L14.64,164.6L14.82,160.72L15.18,164.86L15.36,165.86L15.72,161.39L16.08,164.86L16.26,165.73L17.35,176.06L17.53,167.22L18.61,174.85L18.79,171.79L18.97,169.44L19.16,172.47L19.34,178.16L20.06,173.35L20.24,175.64L20.42,178.5L20.6,176.13L20.96,180.77L21.14,177.54L21.32,182.37L21.5,183.67L21.68,180.53L21.87,183.27L22.05,180.34L22.41,170.19L22.77,177L22.95,178.57L23.85,190.71L24.03,188.57L24.21,185.37L24.4,183.78L24.58,186.92L24.76,188.79L24.94,191.64L25.3,186.88L25.48,189.37L25.66,189.71L26.02,193.33L26.2,191.26L26.38,187.23L26.56,184.89L26.74,187.29L26.93,191.28L27.11,193.13L27.29,189.75L27.47,188.45L28.19,195.78L28.37,193.02L28.55,193.24L29.27,197.35L29.46,195.14L29.64,194.36L29.82,198.05L30,198.94L30.18,195.95L30.36,195.61L30.54,198.46L31.44,202.94L31.62,200.49L31.8,200.61L32.17,207.96L32.71,204.54L32.89,203.89L33.61,211.33L33.79,207.69L33.97,205.69L34.15,214.92L34.33,219.58L34.52,210.91L34.88,214.46L35.06,212.55L35.78,219.08L36.14,218.74L36.32,216.77L36.68,211.15L36.86,213.51L37.05,221.56L37.41,212.6L37.77,218.5L37.95,218.87L38.31,220.06L38.67,218.81L38.85,219.58L39.21,226.34L39.58,219.92L39.76,222.27L40.3,221.61L40.84,229.81L41.02,229.18L42.29,238.01L42.47,235.03L43.55,244.8L43.73,239.71L43.91,235.13L44.27,242.09L44.45,243.92L44.63,244.09L44.82,242.08L45.18,235.16L45.36,241.99L45.54,248.01L45.72,245.51L45.9,249.16L46.26,248.29L46.44,252.49L46.62,252.96L46.8,255.75L47.53,253.89L47.71,259.17L48.07,258.69L48.43,260.7L48.61,260.34L48.79,266.24L49.33,256.96L49.51,257.28L49.69,260.87L50.96,268.99L51.14,259.74L51.32,260.48L51.5,269.19L52.04,274.17L52.22,270.31L52.41,268.19L52.59,273.6L52.77,277.26L53.13,271.58L53.31,274.82L53.49,276.86L54.03,281L54.21,277.59L55.66,286.82L55.84,282.1L56.02,281.73L56.2,284.75L56.56,292.75L57.1,290.28L57.28,291.01L57.65,289.07L57.83,286.09L59.09,299.04L59.27,296.08L59.45,287.99L60,293.75L60.18,295.54L60.72,292.91L61.26,304L61.44,297.4L61.62,302.98L61.98,298.13L62.16,295.75L62.34,297.7L62.89,295.51L63.07,294.09L63.43,287.86L63.61,288.91L63.79,293.21L63.97,293.69L64.15,290.71L64.69,286.96L64.87,290.08L65.05,290.89L65.78,291.06L65.96,281.82L66.14,275.14L66.5,274.32L66.68,279.13L66.86,281.41L67.04,278.19L67.22,272.46L67.4,275.8L67.77,269.68L67.95,275.65L68.13,273.28L69.03,260.69L69.21,262.03L69.39,258.36L70.66,241.98L70.84,242.36L71.02,242L71.2,235.56L71.38,235.07L71.56,231.43L72.46,217.88L72.64,213.79L74.27,190.66L74.45,191.94L74.63,195.76L74.81,183.14L76.08,157.04L76.26,157.23L76.62,161.78L76.8,153.41L76.98,146.82L79.69,112.71L79.87,114.15L80.05,116.82L80.96,104.4L81.14,107.06L82.58,86.76L82.76,83.78L82.95,82.9L83.13,83.15L83.31,85.01L83.49,87.9L83.67,86.29L83.85,80.78L84.39,88.71L84.57,81.54L84.75,73.88L85.29,77.62L85.47,78.17L85.84,79.45L86.38,70.75L86.56,75.53L86.74,78.8L87.28,76.15L87.46,78.19L87.82,72.33L88,68.1L88.55,80.64L88.91,75.44L89.09,77.02L89.27,83.86L89.63,71.68L89.81,74.85L90.35,73.36L90.9,85.26L91.08,81.79L91.98,88.22L92.16,82.89L92.34,79.25L92.52,86.39L92.7,90.97L92.88,93.23L93.06,91.04L93.25,85.69L93.43,83.45L93.61,89.18L93.79,95.71L94.33,96.3L94.69,88.61L94.87,91.91L95.05,92.96L95.41,92.81L96.14,101.43L96.32,98.95L96.5,97.78L97.04,104.64L97.22,102.72L97.4,101.25L97.76,112.08L98.49,111.73L98.67,113.86L99.03,115.48L99.21,114.36L99.39,112.68L99.75,109.99L99.93,112.87L100.11,116.4L100.65,121.76L100.84,117.01L101.02,116.13L101.92,132.37L102.28,128.54L102.46,129.27L102.64,125.44L103,131.13L103.18,125.54L103.37,127.23L103.55,128.93L103.73,125.12L103.91,134.8L104.27,129.36L104.45,139.39L104.81,136.98L105.35,146.86L105.53,143.49L105.71,140.91L106.08,137.94L106.26,141.04L106.44,146.88L106.8,142.76L106.98,144.67L107.16,148.34L107.52,146.71L107.7,150.34L107.88,150.15L108.06,154.1L108.97,149.02L109.15,151.57L109.51,161.19L110.05,159.89L110.23,156.77L110.41,153.65L110.59,157.36L110.77,162.73L110.95,159.65L111.32,164.37L111.5,162.96L111.68,162.71L111.86,158.57L112.22,164.71L112.4,161.82L112.58,162.91L113.67,172.65L113.85,170.63L114.03,167.99L114.21,166.66L114.57,169.37L114.75,170.5L115.29,176.08L115.65,174.66L115.83,173.29L116.01,169.24L116.38,177.8L116.56,175.51L116.92,171.51L117.1,177.32L117.28,188.08L117.82,175.17L118.18,181.05L118.36,178.19L119.63,190.85L119.81,190.2L119.99,183.6L120.17,183.52L120.35,185.62L120.89,181.32L121.07,183.4L121.26,186.18L121.44,184.86L121.62,186.29L121.8,189.34L121.98,186.67L122.34,192.41L122.52,191.34L123.06,190.02L123.42,195.45L123.6,192.65L124.15,198.23L124.51,195.91L124.69,196.92L124.87,192.52L125.23,197.62L125.41,198.07L126.13,206.08L126.32,205.63L126.5,199.97L126.68,196.66L127.04,202.3L127.22,205.67L127.94,197.98L128.12,206.28L129.03,214.83L129.21,213.74L129.39,210.03L129.57,208.06L129.93,210.93L130.11,210.78L131.01,204.59L131.19,209.51L131.92,220.93L132.1,220.04L132.28,217.43L132.46,209.69L132.82,214.84L133,219.46L133.18,220.87L133.36,214.55L133.72,222.57L134.09,216.5L134.27,218.44L134.45,217.55L134.63,226.8L134.99,214.05L135.53,219.57L135.71,226.82L135.89,228.85L136.07,223.19L136.25,226.42L136.43,225.9L136.98,228.07L137.34,220.71L137.52,225.22L137.7,229.67L138.24,224.71L138.42,223.2L138.96,232.01L139.33,226.38L139.51,225.54L139.69,224.98L139.87,226.38L140.05,229.57L140.23,224.06L140.77,226.59L140.95,226.48L141.86,232.3L142.04,229.32L142.58,227.8L142.76,223.74L143.3,230.31L143.84,230.12L144.02,230.21L144.21,230.16L144.39,226.71L145.29,232.68L145.47,230.45L145.65,230.81L145.83,233.53L146.01,234.68L146.19,231.73L146.37,229.03L146.55,232.41L147.1,229.33L147.28,227.34L148,223.58L148.18,225.31L148.36,228.05L148.72,224.4L148.9,218.16L149.08,217.12L149.26,221.44L149.63,226.72L149.81,221.64L149.99,220.71L150.17,225.39L150.53,217.78L150.71,214.63L151.07,219.13L151.25,213.01L151.43,213.76L151.61,211.64L151.79,211.9L151.98,219.64L152.52,212.08L153.06,213.33L153.24,213.68L153.78,205.51L153.96,209.94L154.14,211.8L154.87,194.13L155.05,196.61L155.23,201.72L155.41,197.2L155.95,198.73L156.13,198.27L157.22,185.41L157.4,182.57L157.76,182.06L158.3,186.42L158.48,184.99L159.75,167.76L159.93,168.18L160.11,170.41L160.29,166.38L160.47,168.87L160.65,165.45L160.83,165.26L161.01,162.73L161.19,163.96L161.37,162.32L161.55,156.54L161.73,160.4L162.1,154.78L162.28,157.93L162.46,158.18L162.64,159.99L162.82,158.75L163,152.36L163.18,152.41L163.36,155.04L164.44,140.34L164.63,137.98L164.99,145.73L165.17,138.41L165.35,133.62L165.53,133.92L165.71,131.12L166.25,135.61L166.43,135.45L166.61,128.45L166.97,129.18L167.16,127.15L167.34,125.14L167.52,125.65L167.7,130.13L168.24,126.04L168.42,127.09L168.6,128.9L169.14,118.41L169.68,119.38L169.87,119.57L170.05,118.99L170.23,120.83L170.41,119.18L170.59,114.54L170.77,115.08L170.95,113.65L171.13,113.76L172.03,123.76L172.21,113.99L172.4,107.28L173.12,107.69L173.3,106.91L173.66,117.33L173.84,114.38L174.02,108.74L174.38,116.43L174.74,108.98L174.93,105.05L175.29,114.6L175.65,110.75L175.83,110.05L176.01,105.16L176.55,107.57L176.73,109.58L176.91,107.76L177.09,111.39L177.27,116.47L178,107.04L178.18,108.38L178.36,113.6L179.08,107.77L179.26,113.32L179.62,111.53L180.17,118.18L180.35,115.71L181.25,111.08L181.43,110.65L181.79,117.54L182.33,115.48L182.52,113.68L182.88,117.03L183.06,115.12L183.24,113.05L184.14,117.07L184.32,116L184.5,116.34L184.68,114.58L184.86,113.96L185.05,120.51L185.95,117.46L186.13,122.23L186.31,122.55L186.49,115.63L186.67,112.8L187.03,118.24L187.21,124.89L187.58,116.5L187.76,119.64L187.94,121.43L188.12,121.97L188.3,119.7L188.48,117.14L188.66,124.38L188.84,121.91L189.02,123.17L189.38,131.4L189.56,126.74L189.74,121.62L190.11,131.76L190.65,126.39L190.83,126.45L191.01,126.44L191.19,122.24L191.55,126.7L191.91,126.65L192.09,122.84L192.45,132.98L193,132.01L193.18,130.61L193.36,127.48L193.9,127.81L194.08,128.4L194.8,137.22L194.98,133.06L195.16,129.45L195.35,134.82L195.89,133.34L196.07,131.51L196.25,131.67L196.43,131.45L196.61,133.96L196.79,136.9L196.97,133.72L197.15,129.27L197.51,137.24L197.69,134.15L197.88,128.33L198.06,126.57L198.24,130.68L198.42,133.19L198.78,141.34L199.14,136.74L199.32,131.48L199.68,139.46L200.22,137.25L200.41,133.5L200.59,130.63L200.95,133.35L201.13,142.03L201.31,143.4L201.49,137.8L201.85,144.33L202.21,140.58L202.39,140.26L202.57,142.83L202.94,137.8L203.12,132.64L203.48,140.39L204.02,139.24L204.2,138.29L204.38,138.02L204.56,138.84L204.74,138.68L204.92,142.5L205.1,143.44L205.28,140.17L205.65,148.28L206.01,141.77L206.19,144.22L207.09,147.89L207.27,142.63L207.45,138.92L207.63,144.52L207.81,146.99L208,142.98L208.54,146.96L208.72,144.72L209.08,149.47L209.26,144.2L209.44,143.99L209.98,146L210.34,145.37L210.53,141.38L210.71,141.48L210.89,144.73L211.07,146.11L211.25,144.04L211.43,142.83L211.61,141.48L211.79,143.17L211.97,145.35L212.15,145.48L212.33,147.83L212.69,146.74L213.05,151.67L213.24,148.64L213.42,146.18L213.78,148.78L213.96,151.32L214.14,151.3L214.32,152.21L214.68,142.39L214.86,146.51L215.04,149.05L215.4,149.9L215.77,141.02L215.95,145.83L216.13,153.76L216.67,146.43L216.85,148.41L217.39,143.74L217.57,147.49L217.75,148.03L217.93,147.63L218.11,148.96L218.3,149.88L218.48,146.28L218.84,148.59L219.02,150.7L219.2,149.73L219.38,151.81L219.56,152.99L219.74,155.85L220.1,150.94L220.28,154.17L220.46,150.69L220.64,144.5L221.19,150.17L221.37,151L221.73,150.78L222.09,152.65L222.27,154.15L222.63,157.01L222.81,154.57L222.99,153.68L223.54,161.15L223.72,159.65L223.9,152.69L224.26,148.03L224.8,149.82L224.98,154.44L225.34,153.04L226.25,161.35L226.43,159.95L226.61,157.04L226.79,159.49L226.97,153.05L227.15,152.1L227.33,158.78L227.87,154.31L228.05,157.42L228.23,157.37L228.42,150.95L229.14,158.54L229.32,154.97L229.5,152.99L230.04,160.91L230.22,160.83L230.4,154.4L230.76,158.23L231.31,157.56L231.49,157.03L231.67,156.41L231.85,159.54L232.75,153.5L232.93,154.86L233.11,157.71L233.47,160.81L233.84,159.03L234.02,158.83L234.2,158.8L234.38,156.46L234.56,156.89L234.74,154.61L235.1,162.34L235.64,160.61L235.82,162.15L236.37,160.37L236.73,170.72L236.91,168.15L237.09,161.16L237.63,153.04L237.81,164.01L237.99,171.53L238.35,162.28L238.53,162.51L238.9,163.02L239.08,164.26L239.62,164.74L239.8,160.06L239.98,161.58L240.16,166.47L240.34,161.02L240.88,161.85L241.06,164.12L241.79,157.99L241.97,160.08L242.15,159.59L242.51,166.71L242.69,160.84L242.87,158.06L243.96,168.28L244.14,169.17L244.32,166.21L244.68,167.47L244.86,170.49L245.76,158.27L245.94,164.25L246.31,158.19L246.49,161.74L246.67,170.67L246.85,170.23L247.03,171.52L247.21,177.01L247.57,165.15L248.11,170L248.29,173.47L248.65,164.51L249.2,165.92L249.38,167.45L249.56,167.01L249.74,168.21L249.92,169.23L250.1,164.99L250.46,174.03L250.64,168.82L250.82,169.54L251,170.75L251.18,163.09L251.55,171.94L252.09,168.93L252.27,171.04L252.63,177.06L252.81,174.82L252.99,173.6L253.35,177.47L253.71,173.2L253.89,173.37L254.44,182.62L254.62,180.05L254.8,171.69L254.98,170.98L255.16,175.02L255.34,175.46L255.52,168.93L256.42,179.66L256.61,172.77L256.79,169.88L256.97,173.28L257.15,177.27L257.33,171.4L257.69,179.75L257.87,182.68L258.05,182.76L258.23,175.55L259.14,183.14L259.32,178.11L259.68,183.92L259.86,177.31L260.22,185.61L260.58,184.96L260.76,181.67L261.12,175.1L261.3,178L261.48,183.25L261.67,187.28L262.03,180.68L262.21,183.05L262.39,183.25L262.57,179.01L262.75,185.4L263.11,179.31L263.29,181.4L263.47,182.18L263.65,188.53L264.01,185.01L264.2,186.66L264.38,181.3L264.56,181.1L264.74,182.99L265.82,197.57L266,189.25L266.18,186.05L266.36,189.77L266.73,187.97L266.91,192.09L267.09,192.21L267.27,188.9L267.81,189.94L267.99,193.24L268.17,192.07L268.53,193.49L268.71,196.04L269.26,199.53L269.44,198.07L269.62,194.86L269.8,194.56L269.98,192.3L270.34,198.39L270.52,197.34L270.7,191.35L270.88,187.9L271.06,200.19L271.24,202.08L271.6,198.19L271.79,199.5L271.97,199.43L272.15,195.01L273.05,207.27L273.23,204.55L273.41,200.72L273.95,199.08L274.32,206.7L274.5,205.81L274.68,200.71L275.04,208.64L275.22,208.84L275.58,201.41L275.76,205.89L275.94,211.5L276.48,213.85L276.66,210.91L276.84,208.43L277.21,213.03L277.39,215.82L277.75,212.04L277.93,214.22L278.29,211.09L278.47,216.73L278.65,214.67L278.83,215.82L279.19,215.28L279.37,217.57L280.1,213.68L280.28,218.38L281,223.57L281.18,215.87L282.09,229.97L282.27,225.14L282.45,221.68L282.63,226.75L282.81,232.33L282.99,232.46L283.17,230.28L283.53,233.8L283.71,229.19L283.89,224.38L284.8,239.35L284.98,237.75L285.16,230.52L285.52,245.64L285.88,236.24L286.06,238.43L286.42,241.19L286.6,238.19L286.78,238.51L286.96,240.1L287.33,241.63L287.51,240.99L287.69,239.61L288.77,247.41L288.95,246.27L289.31,255.31L289.68,246.64L289.86,245.72L290.04,243.1L290.4,246.63L290.58,250.18L291.66,264.18L291.84,259.58L292.02,254.12L292.21,252.27L292.57,255.94L292.75,255.81L293.11,261.69L293.65,259.56L293.83,258.65L294.37,267.43L294.55,262.73L294.74,258.32L295.46,264.61L295.64,258.12L297.08,268.36L297.26,263.95L297.45,264.64L297.63,268.29L297.99,264.31L298.17,260.73L298.53,258.61L299.07,268.18L299.25,263.18L299.61,256.77L299.98,263.28L300.16,268.44L300.88,256.99L301.24,257.78L301.42,255.64L301.78,249.74L302.14,255.83L302.32,253.45L303.41,244.92L303.59,248.09L303.77,247.67L303.95,240.99L304.13,236.56L304.49,240.84L304.67,245.4L305.76,231.48L305.94,229.3L308.11,198.42L308.29,199.34L309.37,178.1L309.55,180.46L309.73,182.3L312.63,131.87L312.81,136.08L312.99,139.25L314.43,109.05L314.61,113.82L315.88,102.8L316.06,97.2L316.24,103.21L316.6,93.27L316.78,94.58L317.87,81.47L318.05,83.17L318.23,85.95L318.59,80.37L318.77,78.79L319.31,78.53L319.67,81.64L319.85,78.88L321.12,91.19L321.3,86.66L322.02,81.37L322.2,82.91L322.74,93.76L322.93,87.88L323.11,83.92L323.47,96.35L324.01,94.71L324.19,96.66L324.37,95.34L324.55,98.51L324.73,100.3L324.91,99.41L325.09,105.9L325.27,111.72L325.82,109.11L326,111.01L326.36,116.06L326.72,111.29L326.9,112.26L327.8,127.48L327.99,123.87L328.17,124.19L329.43,137.22L329.61,136.57L329.79,131.98L330.7,139.4L330.88,135.5L331.06,135.01L331.24,139.18L332.32,146.33L332.5,145.04L333.41,156.76L333.59,155.59L333.77,149.05L334.67,160.76L334.85,156.17L335.03,158.46L335.58,164.7L335.76,164.64L335.94,158.45L336.3,164.09L336.66,163.06L336.84,171.01L337.02,173.63L337.2,164.68L337.38,165.1L337.56,170.94L337.92,169.82L338.11,172.96L338.65,168.07L338.83,172.4L339.01,174.42L339.19,172.13L339.37,169.44L339.73,170.2L339.91,175.71L340.27,171.63L340.45,175.69L340.63,180.81L340.82,184.86L341.36,182.48L341.54,179.46L342.08,183.62L342.44,182L342.62,178.7L343.71,188.51L343.89,189.51L344.07,186.23L344.25,189.65L344.43,197.79L345.15,190.19L345.33,191.69L345.51,193.65L345.69,188.46L346.06,193.63L346.24,195.19L346.42,199.15L346.6,194.49L346.96,194.7L347.14,194.77L348.04,198.49L348.22,198.28L348.41,198.41L348.77,197.57L349.13,205.07L349.31,203.35L349.49,198.72L349.67,199.62L349.85,204.73L350.03,202.99L350.21,205.95L350.39,210.77L350.75,201.52L351.3,203.22L351.48,203.87L351.84,208.77L352.02,205.37L352.2,203.24L352.56,199.16L352.92,214.47L353.1,210.04L353.28,204.8L353.65,210.55L354.01,206.45L354.19,208.89L354.73,214.9L354.91,208.58L355.09,205.69L355.45,217.41L356,217.16L356.18,216.84L357.26,203.84L357.44,205.51L358.34,218.73L358.53,214.41L358.71,214.31L358.89,215.64L359.07,213.68L359.25,216.72L359.61,215.92L359.79,215.98L359.97,216.01L360.15,219.5L360.87,215.19L361.05,219.99L361.42,224.39L361.6,218.88L361.78,218.01L362.14,224.54L362.5,221.91L362.68,219.43L363.4,212.25L363.58,214.1L363.77,215.3L363.95,221.4L364.13,225.11L364.49,217.62L364.67,215.55L365.03,219.86L365.21,216.64L365.39,216.79L366.3,220.1L366.48,219.43L366.84,215.38L367.02,221.59L367.2,219L367.38,217.66L367.74,212.4L368.28,213.09L368.46,214.46L368.64,214.97L368.83,214.64L369.01,213.62L369.37,205.48L369.55,210.64L369.73,215.13L370.45,201.41L370.63,208.2L371.54,198.5L371.72,201.43L371.9,201.44L372.08,206.6L373.16,187.11L373.34,182.45L373.7,195.01L374.07,183.06L374.25,186.49L374.43,188.53L374.61,180.79L374.97,182.01L375.15,180.52L375.33,183.63L375.69,177.74L375.87,177.79L376.05,177.41L376.23,173.75L376.6,166.35L377.14,166.53L377.32,162.1L377.5,162.33L377.68,164.4L378.58,150.23L378.76,154.25L378.95,158.4L379.85,148.1L380.03,150.05L380.21,151.44L380.75,137.1L380.93,140.29L381.11,146.79L381.84,135.66L382.02,140.21L382.2,140.74L383.1,130.66L383.28,127.81L383.64,129.35L383.82,122.83L384,120.83L384.37,121.58L384.55,124.28L384.73,127.12L384.91,123.28L385.09,117.69L385.45,111.97L385.81,118.12L385.99,119.95L386.72,110.87L387.08,111.15L387.26,113.73L387.62,111.54L387.98,117.03L388.16,110.92L388.52,117.2L388.7,109.34L389.06,115.81L389.25,113.48L389.43,109.34L389.61,108.69L389.79,110.96L390.51,115.48L390.69,112.68L390.87,112.46L391.05,110.53L391.23,107.95L391.41,111.36L391.59,115.18L391.96,107.94L392.14,112.38L392.32,117.54L392.5,118.02L392.68,114.49L392.86,110.56L393.22,118.44L393.4,116.65L393.58,113.85L393.76,117.17L393.94,120.54L394.49,113.97L394.67,114.28L394.85,119.35L395.03,116.52L395.21,119.27L395.39,125.92L396.11,115.35L396.29,116.98L396.47,124.91L396.65,130.93L396.84,118.55L397.02,118.15L397.38,131.77L397.56,122.09L397.74,114.45L398.82,129.99L399,127.15L399.18,123.56L399.73,134.44L400.09,129.33L400.27,130.62L400.45,126.72L400.99,130.78L401.17,130.72L401.71,129.1L402.08,138.64L402.26,130.75L402.62,137.23L403.16,134.65L403.34,132.78L403.7,135.69L403.88,132.66L404.06,135.18L404.24,144.21L404.42,144.7L404.61,140.5L404.79,140.72L404.97,140.06L405.15,136.54L405.33,134.33L405.51,134.63L405.69,146.23L406.05,142.27L406.23,145.39L406.59,138.87L406.77,147.27L406.95,147.85L407.14,147.11L407.32,142.83L407.5,137.6L408.04,143.39L408.22,145.11L408.76,143.52L409.12,149.44L409.3,149.68L409.48,147.61L410.03,148.05L410.21,148.14L410.57,147.45L410.75,148.36L411.11,153.66L411.47,149.25L411.65,148.57L411.83,145.56L412.01,149.92L412.2,155.74L412.56,143.07L412.74,146.84L412.92,158.41L413.1,159.07L413.28,150.3L414.18,156.44L414.36,153.55L414.54,148.85L414.91,156.34L415.09,154.4L415.27,153.31L415.45,154.79L415.63,159.22L415.99,155.38L416.17,160.39L416.71,148.47L417.07,155.01L417.26,157.87L417.44,162.14L417.8,155.61L417.98,155.57L418.52,155.06L418.88,158.94L419.06,158.18L419.24,157.88L419.42,158.81L419.6,161.63L419.97,157.57L420.51,157.86L420.69,164.3L421.23,165.4L421.59,160.37L421.77,159.02L422.13,156.98L422.32,164.4L422.5,164.78L422.68,153.29L423.76,167.13L423.94,163.09L424.12,159.45L424.66,159.14L425.03,165.93L425.21,164.93L425.57,157.46L425.75,162.01L425.93,167.42L426.11,168.84L426.29,166.81L426.47,164.88L426.65,162.22L427.01,162.52L427.19,165.39L428.28,159.72L428.46,164.36L428.82,171.45L429,171.13L429.18,164.51L429.9,173.3L430.09,170.44L430.27,163.99L430.63,163.26L430.81,165.14L430.99,172.12L431.35,165.19L431.71,168.07L431.89,174.82L432.25,164.57L432.62,172.38L432.8,168.7L433.16,169.01L433.52,165.49L433.7,167.79L434.24,174.03L434.42,169.29L434.78,168.01L434.96,168.79L435.15,175.11L435.33,179.1L435.69,171.3L435.87,170.68L436.23,178.95L436.41,175.2L436.59,170.51L436.77,167.47L436.95,169.63L437.13,174.9L437.31,176.68L437.49,174.12L437.68,169.26L438.4,176.02L438.76,173.93L438.94,175.34L439.48,175.94L439.66,172.21L440.57,179.44L440.75,179.1L440.93,179.02L441.11,179.77L441.29,178.08L441.47,175.56L441.65,175.84L441.83,180.29L442.01,181.34L442.19,177.2L443.1,182.01L443.28,179.57L443.46,182.7L443.82,178.63L444,177.2L444.72,181.2L444.9,177.42L445.08,176.13L445.26,179.32L445.45,181.98L445.81,184.92L446.17,177.9L446.35,183.85L447.25,188.63L447.43,181.58L447.61,177.78L447.79,183.69L447.98,189.1L448.34,189.81L448.52,186.23L448.7,179.52L449.06,190.75L449.24,187.8L449.42,192.56L449.78,183.26L449.96,183.83L450.14,190.27L450.51,183.61L450.69,187.85L450.87,185.95L451.77,192.12L452.13,191.26L452.31,192.39L452.67,189.44L452.85,193.08L453.04,193.59L453.4,190.38L453.58,193.17L454.12,197.04L454.3,192.17L454.66,188.38L454.84,189.11L455.02,192.54L455.2,197.93L455.57,192.85L455.75,191.86L456.47,200.24L456.65,198.22L456.83,198.08L457.01,195.43L457.19,196.53L457.37,202.17L457.55,204.23L457.91,201.2L458.1,202.22L458.28,202.38L458.82,204.4L459.18,197.29L459.36,198.5L459.54,198.35L459.72,200.74L459.9,207.35L460.26,200.47L460.44,199.08L460.99,197.46L461.17,206.73L461.35,205.97L461.53,201.42L462.25,196.94L462.43,199.64L462.61,203.92L463.34,208.87L463.52,207.81L463.7,206.33L463.88,210.7L464.06,210.73L464.6,206.56L464.78,209L464.96,211.82L465.14,211.95L465.32,205.23L465.5,201.67L465.68,210.02L465.87,212.37L466.23,202.74L466.77,204.34L466.95,206.98L467.31,211.88L467.49,204.31L467.67,203.1L468.4,212.25L468.58,209.09L468.76,208.9L468.94,211.37L469.48,216.22L469.66,210.81L470.02,209.07L470.2,212.51L470.38,215.78L470.74,206.87L471.11,212.05L471.29,214.29L471.65,209.18L471.83,211.84L472.01,214.62L472.73,209.89L472.91,214.84L473.46,221.2L473.64,215.64L473.82,218.31L474.18,220.44L474.36,215.86L474.54,210.39L474.9,216.64L475.26,210.44L475.44,214.11L475.62,216.7L475.8,210.47L475.99,206.16L476.35,214.9L476.89,212.38L477.07,212.23L477.97,206.38L478.15,201.95L478.7,212.89L479.24,211.42L479.42,209.75L479.6,210.48L479.78,209.83L479.96,206.1L480.32,200.46L480.86,202.15L481.05,206.82L482.13,194.33L482.31,196.29L482.85,196.39L483.03,190.02L483.21,190.66L483.39,194.3L483.58,194.52L483.76,191.96L485.2,180.35L485.38,180.73L485.56,180.59L485.74,180.95L485.92,179.37L486.29,174.9L486.83,176.09L487.01,175.51L487.37,173.15L487.55,173.5L487.73,168.5L488.09,161.29L488.27,165.91L488.45,170.28L489.18,158.12L489.36,160.79L489.54,163.27L489.9,155.02L490.26,162.12L490.44,160.29L491.35,147.17L491.53,147.4L491.71,150.14L492.07,146.65L492.25,144.37L493.15,133.14L493.33,135.78L493.51,141.29L494.24,131.28L494.42,136.31L495.14,124.03L495.32,124.1L495.5,129.41L496.04,124.22L496.22,125.04L496.41,126.91L497.13,123.29L497.31,122.1L497.85,126L498.03,120.63L498.21,117.18L498.57,122.2L498.75,118.36L498.94,117.89L499.3,115.52L499.66,123.64L499.84,115.44L500.38,111.16L500.56,117.46L500.74,120.62L500.92,116.09L501.1,113.14L501.28,116.08L501.47,114.31L501.65,109.41L502.19,107.04L502.55,116.91L502.73,115.74L502.91,115.85L503.09,112.31L503.63,119.75L503.81,114.33L504,109.77L504.18,124.57L504.36,127.32L504.54,119.66L504.72,116.93L505.08,121.42L505.26,116.7L505.62,120.64L505.8,117.36L506.16,117.7L506.34,123.32L506.53,123.46L506.71,120.22L506.89,120.64L507.07,126.41L507.25,127.32L507.43,122.44L508.15,114.93L508.33,120.74L508.51,118.65L508.87,122.71L509.05,119.63L509.24,125.3L509.42,123.29L509.78,127.38L509.96,127.17L510.14,123.34L510.5,126.78L510.68,128.07L511.04,125.02L511.22,129.54L511.4,131.13L511.58,133.72L511.77,132.11L511.95,127.48L512.31,137.19L512.67,130.68L512.85,130.71L513.21,127.58L513.39,133.25L513.57,136.99L513.75,136.54L513.93,139.68L514.66,130.16L514.84,140.65L515.74,130.15L515.92,132.88L516.28,145.04L516.46,140.17L516.64,132.75L516.83,133.43L517.01,132.99L517.19,137.05L517.55,143.75L517.91,141.07L518.09,140.62L518.45,147.86L518.63,141.3L518.81,139.68L519.72,150.24L519.9,147.38L520.08,141.33L520.44,145.06L520.62,149L520.8,151.37L521.16,146.5L521.34,144.85L522.43,150.55L522.61,150.1L522.79,150.38L522.97,149.16L523.33,149.87L523.51,142.59L523.69,143.97L523.87,152.22L524.6,143.82L524.78,146.37L524.96,150.2L525.14,154.2L525.5,146.64L525.68,147.02L525.86,145.03L526.22,149.04L526.4,149.24L526.76,155.29L526.95,148.46L527.13,146.97L527.67,153.84L527.85,147.94L528.03,147.66L528.21,151.8L528.75,152.86L529.11,146.24L529.29,154.02L529.47,158.28L529.84,150.02L530.02,145.03L530.2,143.22L530.38,148.95L530.56,154.75L530.74,157.45L530.92,152.7L531.1,151.47L531.46,157.3L531.82,155.8L532,149.96L532.19,148.4L532.37,151.04L532.55,151.93L532.73,150.09L532.91,153.17L533.09,156.83L533.27,156.36L533.45,158.76L533.81,152.84L533.99,150.2L534.72,157.39L534.9,155.41L535.08,150.22L535.62,158.78L535.8,158.34L535.98,154.72L536.16,158.64L536.52,152.04L536.7,150.32L537.25,158.64L537.79,158.2L537.97,158.12L538.33,150.07L538.51,153.47L538.69,160.95L539.05,153.1L539.41,161.3L539.59,163.62L540.14,157.2L540.5,160.86L540.68,160.39L540.86,163.12L541.04,162.34L541.22,156.52L541.4,157.31L541.58,161.81L542.31,167.29L542.49,159.27L542.85,154.13L543.39,156.58L543.57,156.74L544.11,167.03L544.29,165.61L544.47,157.29L545.2,164.46L545.38,161.82L545.56,161.17L545.92,160.38L546.28,161.7L546.46,165.1L546.82,166.41L547,166.22L547.18,160.55L547.55,165.48L547.73,160.57L547.91,157.33L548.27,166.28L548.63,160.25L548.81,160.06L548.99,156.39L549.17,161.88L549.35,165.55L549.89,154.43L550.08,160.47L550.26,164.45L550.44,160.23L550.8,168.25L550.98,163.3L551.16,163.38L551.34,161.99L551.7,164.34L551.88,165.18L552.06,170.74L552.24,164.28L552.42,158.52L553.51,164.16L553.69,157.2L554.41,164.61L554.77,164.12L554.95,165.37L555.86,174.47L556.04,168.18L556.22,164.73L556.58,169.1L556.76,170.34L557.3,161.58L557.48,167.48L557.85,166.25L558.21,170.2L558.39,168.82L558.57,170L558.75,165.84L558.93,160.94L559.29,166.47L559.47,165.96L559.65,166.86L560.01,165.46L560.38,172.9L560.56,172.22L560.74,169.5L561.1,180.27L561.28,175.73L561.46,169.2L561.82,173.33L562.18,164.93L562.36,169.28L562.73,173.46L562.91,169.08L563.09,170.77L563.27,171.17L563.45,172.62L563.63,170.2L563.81,164.71L563.99,173.74L564.71,172.85L564.89,171.54L565.07,166.39L565.62,170.59L565.8,174.56L566.52,168.66L566.7,175.62L567.06,175.52L567.24,176.77L567.42,174.91L568.15,170.52L568.33,172.14L568.51,177.38L568.69,179.34L569.05,176.38L569.23,177.12L569.41,178.24L569.95,178.43L570.32,173.27L570.5,177.15L570.86,182.89L571.22,178.21L571.4,177.95L571.58,176.23L571.76,178.04L571.94,181.18L572.66,187.54L572.84,181.86L573.03,177.93L573.39,181.16L573.57,182.68L573.75,183.43L573.93,180.38L574.65,190.76L574.83,184.42L575.01,181.07L575.92,191.79L576.1,184.15L576.28,182.54L576.46,189.46L576.64,192.28L576.82,187.55L577,186.09L577.18,184.78L577.36,186.75L577.54,189.09L577.9,185.35L578.09,186.22L578.27,188.45L578.81,186.81L578.99,185.84L579.89,195.07L580.07,191.49L580.25,188.13L580.8,189.59L580.98,196.9L581.52,190.68L581.88,193.63L582.06,192.31L582.24,193.15L582.42,191.49L582.6,196.69L582.78,198.04L582.96,192.59L583.69,196.53L583.87,194.96L584.05,192.82L584.41,202.89L584.77,196.95L584.95,195.53L585.13,192.12L585.49,199.09L585.68,201.21L586.04,196.31L586.22,198.26L586.4,204.29L586.94,207.69L587.12,202.76L587.48,197.17L587.66,199.68L587.84,209.32L588.21,205.15L588.57,205.41L588.75,210.1L589.29,205.65L589.47,206.24L589.65,212.25L589.83,209.78L590.01,210.36L590.19,215.26L590.37,206.97L590.92,207.35L591.1,209.76L591.28,206.25L591.64,210.23L591.82,209.01L592,210.91L592.18,220.4L592.72,215.45L592.9,215.85L593.26,213.05L593.45,219.51L593.99,210.02L594.17,218.27L594.35,221.53L594.71,216.33L594.89,213.22L595.07,211.16L595.25,212.61L595.43,219.08L595.79,227.65L595.98,224.59L596.16,217.46L596.52,218.5L596.7,213.97L596.88,215.81L597.06,223.8L597.24,223.98L597.42,222.27L597.6,220.34L597.78,221.82L597.96,226.52L598.14,221.13L598.69,223.56L598.87,222.84L599.95,232.35L600.13,231.01L600.31,229.04L600.49,229.01L600.67,225.93L601.04,220.79L601.22,227.3L601.4,231.99L601.94,222.62L602.48,225.25L602.66,227.04L603.02,226.53L603.2,228.42L603.38,232.61L603.57,232.51L603.75,228.71L603.93,231.84L604.29,230.76L604.47,226.99L604.65,226.87L604.83,228.62L605.19,231.72L605.55,225.35L605.73,230.62L605.91,228.03L606.28,231.9L606.46,231.39L607.18,226.26L607.36,228.45L607.54,231.91L608.08,233.95L608.44,225.34L608.63,225.65L608.81,226.84L609.71,218.04L609.89,218.44L610.07,220.42L610.25,220L610.43,214.24L610.61,213.72L610.79,223.02L610.97,223.46L611.16,218.16L611.34,218.22L611.52,216.2L611.7,215.39L612.06,216.31L612.24,217.41L613.14,205.8L613.32,210.46L614.23,198.97L614.41,202.46L614.59,199.3L614.77,202.81L614.95,202.52L615.13,194.02L615.49,195.36L615.85,189.83L616.03,190.57L616.21,186.23L616.4,185.54L616.58,188.95L617.3,177.02L617.48,178.73L617.66,181.31L619.11,161.49L619.29,159.97L619.65,165.13L619.83,160.09L620.01,154.21L620.19,155.38L620.37,153.84L620.55,151.66L622.54,131.63L622.72,132.86L623.8,121.33L623.99,120.31L624.17,114.41L624.89,114.46L625.07,119.91L625.25,120.36L625.43,118.16L626.33,104.51L626.52,105.88L626.7,107.95L626.88,106.83L627.06,111.12L627.96,97.21L628.14,98.79L628.5,103.89L628.68,101.35L628.86,98.36L629.05,98.25L629.23,102.23L629.77,107.04L629.95,102.03L630.67,106.7L630.85,101.96L631.03,102.58L631.21,105.91L631.39,106.62L631.58,102.32L631.94,103L632.12,98.45L632.3,99.49L632.48,106.64L632.66,109.43L632.84,104.94L633.2,108.46L633.38,108.91L633.56,112.8L633.92,108.12L634.29,112.49L634.47,113.17L635.19,109.62L635.37,113.08L636.09,119.21L636.27,117.31L636.45,115.9L637.72,125.92L637.9,121.78L638.08,121.67L638.26,125.93L638.62,124.3L638.8,124.76L638.98,127.33L639.16,129.8L639.35,123.54L639.53,121.27L640.07,132.93L640.43,129.56L640.61,129.88L641.51,137.83L641.69,134.13L641.88,130.5L642.06,136.45L642.24,140.4L642.42,134.57L642.78,142.44L642.96,138.55L643.14,138.43L643.32,140.4L643.5,137.12L643.68,135.34L644.77,149.8L644.95,147.45L645.13,145.14L645.49,149.65L645.67,156.01L646.39,143.83L646.57,147.2L646.75,148.19L646.94,144.75L647.3,150.56L647.48,150.86L648.02,155.83L648.2,151.9L648.56,152.59L648.92,149.64L649.1,153.83L649.65,159.55L649.83,156.77L650.01,155.23L650.37,163.07L650.91,160.08L651.09,155.81L652,162.12L652.18,165.18L652.36,169.51L652.54,165.67L652.72,158.49L652.9,159.47L653.08,165.37L653.44,161.38L653.8,163.39L653.98,165.03L654.16,166.32L654.34,159.19L654.71,160.23L654.89,157.9L655.25,168.4L655.61,164.89L655.79,163.45L656.15,174.02L656.33,165.07L656.51,162.39L656.87,164.27L657.05,163.95L657.24,161.19L658.14,171.29L658.32,162.52L659.58,173.08L659.77,166.85L659.95,165.88L660.13,167.91L660.31,170.11L660.49,172.55L660.67,167.79L660.85,164.27L661.75,176.57L662.11,175.15L662.3,175.15L662.84,168.09L663.02,170.76L663.2,174.96L663.56,179.13L663.74,170.61L664.28,168.61L664.64,179.37L664.83,175.7L665.01,173.47L665.55,181.4L665.73,178.31L665.91,174.33L666.45,183.42L666.81,181.63L666.99,177.54L667.17,171.52L667.54,183.23L667.72,175.69L667.9,178.19L668.98,188.59L669.16,186.99L669.34,186.24L669.52,185L669.7,185.12L669.89,187.97L670.07,187.48L670.25,184.49L670.61,186.57L670.79,183.46L670.97,180.43L671.51,182.6L671.69,183.05L672.6,193.68L672.78,192.38L672.96,190.13L673.5,183L673.68,186.51L673.86,186.28L674.04,183.51L674.4,187.05L674.58,191.73L675.13,192.31L675.49,183.92L675.67,189.18L676.21,194.79L676.39,193.45L676.57,191.5L677.11,195.2L677.29,193.55L677.47,189.89L677.84,193.45L678.02,187.35L678.2,185.6L678.38,191.51L678.56,199.54L679.1,194.7L679.28,194.02L679.46,196.32L679.82,193.09L680,195.4L680.19,194.26L680.37,193.05L680.55,198.91L680.73,200.75L680.91,195.94L681.09,195.34L681.63,202.94L681.81,199.47L681.99,194.72L682.9,202.63L683.08,202.52L683.26,203.05L683.44,203.65L683.62,197.88L683.98,198.06L684.16,194.18L684.34,196.13L684.52,203.94L684.7,208.46L685.06,201.31L685.25,204.63L685.43,204.24L685.97,207.53L686.15,205.76L686.33,202.57L686.69,203.13L686.87,207.23L687.23,200.69L687.41,206.02L687.59,211.11L687.96,202.34L688.5,204.04L688.68,208.75L689.22,209.54L689.58,205.71L689.76,206.84L689.94,209.58L690.12,206.46L690.31,206.45L690.49,205.9L690.85,215.95L691.03,210.25L691.21,204.38L691.75,208.85L691.93,208.04L692.11,203.16L692.65,201.83L693.02,217.06L693.2,214.12L693.38,207.88L693.92,203.43L694.1,204.79L694.28,208.46L695,202.34L695.18,203.09L695.37,205.63L695.55,209.08L695.91,206.36L696.09,203.92L696.45,211.51L696.63,211.37L696.81,207.66L696.99,208.19L697.17,204.25L697.35,204.55L697.53,213.61L698.26,207.79L698.62,208.09L698.8,207.97L699.16,200.07L699.34,201.6L699.52,208.5L699.7,207.35L699.88,199.38L700.06,198.21L700.24,205.47L700.42,205.9L700.61,203.72L701.15,194.82L701.33,199.87L701.51,202.11L701.69,197.02L701.87,195.81L702.23,196.59L702.41,195.79L702.77,198.72L702.95,197.02L703.32,186.76L703.68,194.01L703.86,193.63L704.4,196.95L704.58,190.28L704.76,190.16L704.94,191.12L705.3,185.28L705.48,182.36L705.85,193.39L706.21,186.56L706.39,185.94L706.75,188.07L707.29,180.49L707.47,175.78L708.01,178.7L708.2,178.29L708.38,176.34L709.28,168.25L709.46,167.36L709.82,164.5L710,170.52L710.18,170.56L710.36,166.34L711.09,160.7L711.27,163.29L711.45,163.51L711.63,159.34L711.99,160.16L712.17,156.42L712.35,157.81L712.53,161.34L713.62,147.73L713.8,149.02L713.98,151.32L714.34,146.58L714.52,147.5L714.88,146.47L715.06,141L715.42,135.46L715.6,137.14L715.79,142.18L715.97,142.34L716.15,139.24L716.33,140.3L716.51,136.84L716.69,137.3L716.87,135.39L717.41,137.15L717.77,127.33L717.95,128.91L718.32,129.96L718.5,123.8L718.68,124.07L718.86,126.53L719.04,124.93L719.22,128.58L719.4,128.56L720.12,118.67L720.48,122.09L720.66,124.95L720.84,120.55L721.21,125.73L721.39,125.62L721.57,126.12L721.75,122.68L721.93,113.83L722.47,118.37L722.65,116.79L722.83,113.62L723.01,116.97L723.19,116.26L723.37,119.78L723.56,121.32L723.92,118.96L724.1,119.95L724.28,120.36L724.46,122.19L724.82,120.77L725,118.93L725.36,120.41L725.9,115.59L726.09,118.45L726.27,121.28L726.99,120.97L727.17,122.73L727.35,123.24L727.53,118.93L727.71,117.81L728.07,117.96L728.25,122.16L728.62,116.86L728.8,117.5L728.98,120.6L729.16,122.25L729.34,119.38L729.52,117.78L730.42,131.41L730.6,129.79L730.78,127.58L731.51,120.29L731.69,124.13L732.59,129.17L732.77,123.94L732.95,123.4L733.13,127.21L733.31,126.63L733.49,129.76L733.86,132.24L734.04,137.64L734.94,126.32L735.3,128.46L735.48,129.77L736.21,137.71L736.39,133.94L736.57,131.95L736.75,132.19L736.93,138.01L737.11,137.32L737.29,133.63L737.47,131.82L737.65,136L737.83,137.22L738.01,134.48L738.19,140.35L738.37,142.46L739.1,135.58L739.28,137.7L739.64,136.09L739.82,138.37L740,141.26" style="vector-effect: non-scaling-stroke; fill: none; stroke: rgb(228, 87, 86); stroke-opacity: 1; stroke-width: 1px; opacity: 1;"/></g><g class="points"/><g class="text"/></g></g></g><g class="overplot"/><path class="xlines-above crisp" d="M79,420.5H821M79,99.5H821" style="fill: none; stroke-width: 1px; stroke: rgb(0, 0, 0); stroke-opacity: 1;"/><path class="ylines-above crisp" d="M79.5,100V420M820.5,100V420" style="fill: none; stroke-width: 1px; stroke: rgb(0, 0, 0); stroke-opacity: 1;"/><g class="overlines-above"/><g class="xaxislayer-above"><path class="xtick ticks crisp" d="M0,421v5M0,99v-5" transform="translate(80,0)" style="stroke: rgb(68, 68, 68); stroke-opacity: 1; stroke-width: 1px;"/><path class="xtick ticks crisp" d="M0,421v5M0,99v-5" transform="translate(170.35,0)" style="stroke: rgb(68, 68, 68); stroke-opacity: 1; stroke-width: 1px;"/><path class="xtick ticks crisp" d="M0,421v5M0,99v-5" transform="translate(260.71000000000004,0)" style="stroke: rgb(68, 68, 68); stroke-opacity: 1; stroke-width: 1px;"/><path class="xtick ticks crisp" d="M0,421v5M0,99v-5" transform="translate(351.06,0)" style="stroke: rgb(68, 68, 68); stroke-opacity: 1; stroke-width: 1px;"/><path class="xtick ticks crisp" d="M0,421v5M0,99v-5" transform="translate(441.42,0)" style="stroke: rgb(68, 68, 68); stroke-opacity: 1; stroke-width: 1px;"/><path class="xtick ticks crisp" d="M0,421v5M0,99v-5" transform="translate(531.77,0)" style="stroke: rgb(68, 68, 68); stroke-opacity: 1; stroke-width: 1px;"/><path class="xtick ticks crisp" d="M0,421v5M0,99v-5" transform="translate(622.12,0)" style="stroke: rgb(68, 68, 68); stroke-opacity: 1; stroke-width: 1px;"/><path class="xtick ticks crisp" d="M0,421v5M0,99v-5" transform="translate(712.48,0)" style="stroke: rgb(68, 68, 68); stroke-opacity: 1; stroke-width: 1px;"/><path class="xtick ticks crisp" d="M0,421v5M0,99v-5" transform="translate(802.83,0)" style="stroke: rgb(68, 68, 68); stroke-opacity: 1; stroke-width: 1px;"/><g class="xtick"><text text-anchor="middle" x="0" y="440.4" transform="translate(80,0)" style="font-family: 'Open Sans', verdana, arial, sans-serif; font-size: 12px; fill: rgb(42, 63, 95); fill-opacity: 1; white-space: pre; opacity: 1;">0</text></g><g class="xtick"><text text-anchor="middle" x="0" y="440.4" style="font-family: 'Open Sans', verdana, arial, sans-serif; font-size: 12px; fill: rgb(42, 63, 95); fill-opacity: 1; white-space: pre; opacity: 1;" transform="translate(170.35,0)">500</text></g><g class="xtick"><text text-anchor="middle" x="0" y="440.4" style="font-family: 'Open Sans', verdana, arial, sans-serif; font-size: 12px; fill: rgb(42, 63, 95); fill-opacity: 1; white-space: pre; opacity: 1;" transform="translate(260.71000000000004,0)">1000</text></g><g class="xtick"><text text-anchor="middle" x="0" y="440.4" style="font-family: 'Open Sans', verdana, arial, sans-serif; font-size: 12px; fill: rgb(42, 63, 95); fill-opacity: 1; white-space: pre; opacity: 1;" transform="translate(351.06,0)">1500</text></g><g class="xtick"><text text-anchor="middle" x="0" y="440.4" style="font-family: 'Open Sans', verdana, arial, sans-serif; font-size: 12px; fill: rgb(42, 63, 95); fill-opacity: 1; white-space: pre; opacity: 1;" transform="translate(441.42,0)">2000</text></g><g class="xtick"><text text-anchor="middle" x="0" y="440.4" style="font-family: 'Open Sans', verdana, arial, sans-serif; font-size: 12px; fill: rgb(42, 63, 95); fill-opacity: 1; white-space: pre; opacity: 1;" transform="translate(531.77,0)">2500</text></g><g class="xtick"><text text-anchor="middle" x="0" y="440.4" style="font-family: 'Open Sans', verdana, arial, sans-serif; font-size: 12px; fill: rgb(42, 63, 95); fill-opacity: 1; white-space: pre; opacity: 1;" transform="translate(622.12,0)">3000</text></g><g class="xtick"><text text-anchor="middle" x="0" y="440.4" style="font-family: 'Open Sans', verdana, arial, sans-serif; font-size: 12px; fill: rgb(42, 63, 95); fill-opacity: 1; white-space: pre; opacity: 1;" transform="translate(712.48,0)">3500</text></g><g class="xtick"><text text-anchor="middle" x="0" y="440.4" style="font-family: 'Open Sans', verdana, arial, sans-serif; font-size: 12px; fill: rgb(42, 63, 95); fill-opacity: 1; white-space: pre; opacity: 1;" transform="translate(802.83,0)">4000</text></g></g><g class="yaxislayer-above"><path class="ytick ticks crisp" d="M79,0h-5M821,0h5" transform="translate(0,388.17)" style="stroke: rgb(68, 68, 68); stroke-opacity: 1; stroke-width: 1px;"/><path class="ytick ticks crisp" d="M79,0h-5M821,0h5" transform="translate(0,342.94)" style="stroke: rgb(68, 68, 68); stroke-opacity: 1; stroke-width: 1px;"/><path class="ytick ticks crisp" d="M79,0h-5M821,0h5" transform="translate(0,297.71000000000004)" style="stroke: rgb(68, 68, 68); stroke-opacity: 1; stroke-width: 1px;"/><path class="ytick ticks crisp" d="M79,0h-5M821,0h5" transform="translate(0,252.48)" style="stroke: rgb(68, 68, 68); stroke-opacity: 1; stroke-width: 1px;"/><path class="ytick ticks crisp" d="M79,0h-5M821,0h5" transform="translate(0,207.25)" style="stroke: rgb(68, 68, 68); stroke-opacity: 1; stroke-width: 1px;"/><path class="ytick ticks crisp" d="M79,0h-5M821,0h5" transform="translate(0,162.03)" style="stroke: rgb(68, 68, 68); stroke-opacity: 1; stroke-width: 1px;"/><path class="ytick ticks crisp" d="M79,0h-5M821,0h5" transform="translate(0,116.8)" style="stroke: rgb(68, 68, 68); stroke-opacity: 1; stroke-width: 1px;"/><g class="ytick"><text text-anchor="end" x="71.6" y="4.199999999999999" transform="translate(0,388.17)" style="font-family: 'Open Sans', verdana, arial, sans-serif; font-size: 12px; fill: rgb(42, 63, 95); fill-opacity: 1; white-space: pre; opacity: 1;">15</text></g><g class="ytick"><text text-anchor="end" x="71.6" y="4.199999999999999" style="font-family: 'Open Sans', verdana, arial, sans-serif; font-size: 12px; fill: rgb(42, 63, 95); fill-opacity: 1; white-space: pre; opacity: 1;" transform="translate(0,342.94)">10</text></g><g class="ytick"><text text-anchor="end" x="71.6" y="4.199999999999999" style="font-family: 'Open Sans', verdana, arial, sans-serif; font-size: 12px; fill: rgb(42, 63, 95); fill-opacity: 1; white-space: pre; opacity: 1;" transform="translate(0,297.71000000000004)">5</text></g><g class="ytick"><text text-anchor="end" x="71.6" y="4.199999999999999" style="font-family: 'Open Sans', verdana, arial, sans-serif; font-size: 12px; fill: rgb(42, 63, 95); fill-opacity: 1; white-space: pre; opacity: 1;" transform="translate(0,252.48)">0</text></g><g class="ytick"><text text-anchor="end" x="71.6" y="4.199999999999999" style="font-family: 'Open Sans', verdana, arial, sans-serif; font-size: 12px; fill: rgb(42, 63, 95); fill-opacity: 1; white-space: pre; opacity: 1;" transform="translate(0,207.25)">5</text></g><g class="ytick"><text text-anchor="end" x="71.6" y="4.199999999999999" style="font-family: 'Open Sans', verdana, arial, sans-serif; font-size: 12px; fill: rgb(42, 63, 95); fill-opacity: 1; white-space: pre; opacity: 1;" transform="translate(0,162.03)">10</text></g><g class="ytick"><text text-anchor="end" x="71.6" y="4.199999999999999" style="font-family: 'Open Sans', verdana, arial, sans-serif; font-size: 12px; fill: rgb(42, 63, 95); fill-opacity: 1; white-space: pre; opacity: 1;" transform="translate(0,116.8)">15</text></g></g><g class="overaxes-above"/></g></g><g class="polarlayer"/><g class="smithlayer"/><g class="ternarylayer"/><g class="geolayer"/><g class="funnelarealayer"/><g class="pielayer"/><g class="iciclelayer"/><g class="treemaplayer"/><g class="sunburstlayer"/><g class="glimages"/><defs id="topdefs-a483ff"><g class="clips"/><clipPath id="legenda483ff"><rect width="52" height="87" x="0" y="0"/></clipPath></defs><g class="layer-above"><g class="imagelayer"/><g class="shapelayer"/></g><g class="infolayer"><g class="legend" pointer-events="all" transform="translate(834.8000000000001,100)"><rect class="bg" shape-rendering="crispEdges" width="52" height="87" x="0" y="0" style="stroke: rgb(68, 68, 68); stroke-opacity: 1; fill: rgb(255, 255, 255); fill-opacity: 1; stroke-width: 0px;"/><g class="scrollbox" transform="" clip-path="url(#legenda483ff)"><g class="groups" transform=""><g class="traces" transform="translate(0,14.5)" style="opacity: 1;"><text class="legendtext" text-anchor="start" x="40" y="4.680000000000001" style="font-family: 'Open Sans', verdana, arial, sans-serif; font-size: 12px; fill: rgb(42, 63, 95); fill-opacity: 1; white-space: pre;">x</text><g class="layers" style="opacity: 1;"><g class="legendfill"/><g class="legendlines"><path class="js-line" d="M5,0h30" style="fill: none; stroke: rgb(76, 120, 168); stroke-opacity: 1; stroke-width: 1px;"/></g><g class="legendsymbols"><g class="legendpoints"/></g></g><rect class="legendtoggle" x="0" y="-9.5" width="47" height="19" style="fill: rgb(0, 0, 0); fill-opacity: 0;"/></g></g><g class="groups" transform="translate(0,10)"><g class="traces" transform="translate(0,33.5)" style="opacity: 1;"><text class="legendtext" text-anchor="start" x="40" y="4.680000000000001" style="font-family: 'Open Sans', verdana, arial, sans-serif; font-size: 12px; fill: rgb(42, 63, 95); fill-opacity: 1; white-space: pre;">y</text><g class="layers" style="opacity: 1;"><g class="legendfill"/><g class="legendlines"><path class="js-line" d="M5,0h30" style="fill: none; stroke: rgb(245, 133, 24); stroke-opacity: 1; stroke-width: 1px;"/></g><g class="legendsymbols"><g class="legendpoints"/></g></g><rect class="legendtoggle" x="0" y="-9.5" width="47" height="19" style="fill: rgb(0, 0, 0); fill-opacity: 0;"/></g></g><g class="groups" transform="translate(0,20)"><g class="traces" transform="translate(0,52.5)" style="opacity: 1;"><text class="legendtext" text-anchor="start" x="40" y="4.680000000000001" style="font-family: 'Open Sans', verdana, arial, sans-serif; font-size: 12px; fill: rgb(42, 63, 95); fill-opacity: 1; white-space: pre;">z</text><g class="layers" style="opacity: 1;"><g class="legendfill"/><g class="legendlines"><path class="js-line" d="M5,0h30" style="fill: none; stroke: rgb(228, 87, 86); stroke-opacity: 1; stroke-width: 1px;"/></g><g class="legendsymbols"><g class="legendpoints"/></g></g><rect class="legendtoggle" x="0" y="-9.5" width="47" height="19" style="fill: rgb(0, 0, 0); fill-opacity: 0;"/></g></g></g><rect class="scrollbar" rx="20" ry="3" width="0" height="0" x="0" y="0" style="fill: rgb(128, 139, 164); fill-opacity: 1;"/></g><g class="g-gtitle"/><g class="g-xtitle"/><g class="g-ytitle"/></g></svg>