<svg class="main-svg" xmlns="http://www.w3.org/2000/svg" xmlns:xlink="http://www.w3.org/1999/xlink" width="700" height="500" style="" viewBox="0 0 700 500"><rect x="0" y="0" width="700" height="500" style="fill: rgb(255, 255, 255); fill-opacity: 1;"/><defs id="defs-861f64"><g class="clips"><clipPath id="clip861f64xyplot" class="plotclip"><rect width="504" height="320"/></clipPath><clipPath class="axesclip" id="clip861f64x"><rect x="80" y="0" width="504" height="500"/></clipPath><clipPath class="axesclip" id="clip861f64y"><rect x="0" y="100" width="700" height="320"/></clipPath><clipPath class="axesclip" id="clip861f64xy"><rect x="80" y="100" width="504" height="320"/></clipPath></g><g class="gradients"/><g class="patterns"/></defs><g class="bglayer"/><g class="layer-below"><g class="imagelayer"/><g class="shapelayer"/></g><g class="cartesianlayer"><g class="subplot xy"><g class="layer-subplot"><g class="shapelayer"/><g class="imagelayer"/></g><g class="gridlayer"><g class="x"><path class="xgrid crisp" transform="translate(203.07999999999998,0)" d="M0,100v320" style="stroke: rgb(235, 240, 248); stroke-opacity: 1; stroke-width: 1px;"/><path class="xgrid crisp" transform="translate(326.15,0)" d="M0,100v320" style="stroke: rgb(235, 240, 248); stroke-opacity: 1; stroke-width: 1px;"/><path class="xgrid crisp" transform="translate(449.23,0)" d="M0,100v320" style="stroke: rgb(235, 240, 248); stroke-opacity: 1; stroke-width: 1px;"/><path class="xgrid crisp" transform="translate(572.31,0)" d="M0,100v320" style="stroke: rgb(235, 240, 248); stroke-opacity: 1; stroke-width: 1px;"/></g><g class="y"><path class="ygrid crisp" transform="translate(0,395.88)" d="M80,0h504" style="stroke: rgb(235, 240, 248); stroke-opacity: 1; stroke-width: 1px;"/><path class="ygrid crisp" transform="translate(0,341.28)" d="M80,0h504" style="stroke: rgb(235, 240, 248); stroke-opacity: 1; stroke-width: 1px;"/><path class="ygrid crisp" transform="translate(0,286.69)" d="M80,0h504" style="stroke: rgb(235, 240, 248); stroke-opacity: 1; stroke-width: 1px;"/><path class="ygrid crisp" transform="translate(0,177.49)" d="M80,0h504" style="stroke: rgb(235, 240, 248); stroke-opacity: 1; stroke-width: 1px;"/><path class="ygrid crisp" transform="translate(0,122.89)" d="M80,0h504" style="stroke: rgb(235, 240, 248); stroke-opacity: 1; stroke-width: 1px;"/></g></g><g class="zerolinelayer"><path class="xzl zl crisp" transform="translate(80,0)" d="M0,100v320" style="stroke: rgb(235, 240, 248); stroke-opacity: 1; stroke-width: 2px;"/><path class="yzl zl crisp" transform="translate(0,232.09)" d="M80,0h504" style="stroke: rgb(235, 240, 248); stroke-opacity: 1; stroke-width: 2px;"/></g><path class="xlines-below"/><path class="ylines-below"/><g class="overlines-below"/><g class="xaxislayer-below"/><g class="yaxislayer-below"/><g class="overaxes-below"/><g class="plot" transform="translate(80,100)" clip-path="url(#clip861f64xyplot)"><g class="scatterlayer mlayer"><g class="trace scatter trace36d696" style="stroke-miterlimit: 2; opacity: 1;"><g class="fills"/><g class="errorbars"/><g class="lines"><path class="js-line" d="M0,117.61L0.12,117.16L0.25,111.2L0.37,111.55L0.49,125.62L0.86,131.45L1.23,117.79L1.35,120.13L1.48,115.71L2.34,133.37L2.46,127.78L2.58,120.48L2.95,136.35L3.2,123.42L3.32,132.04L3.45,142.37L3.94,123.69L4.06,129.44L4.68,124.12L4.92,146.52L5.05,130.46L5.66,143.97L5.78,141.29L5.91,130.58L6.03,125.31L6.15,145.42L6.52,136.69L6.65,136.48L7.51,158.6L7.63,149.95L7.75,143.48L7.88,143.07L8,147.98L8.12,148.16L8.25,151.62L8.74,151.76L8.86,141.22L8.98,144.73L9.11,144.63L9.85,158.98L9.97,140.93L10.34,161.56L10.58,145.44L10.71,142.39L10.83,169.46L11.45,153.99L11.57,152.44L11.69,154.19L11.82,148.5L11.94,162.96L12.55,149.86L12.68,164.83L12.8,164.3L12.92,167.82L13.29,158.78L13.54,161.69L13.66,177.12L13.78,151.1L14.4,156.26L14.52,165.09L14.77,167.18L14.89,161.04L15.14,183.98L15.63,170.77L15.75,168.3L15.88,180.41L16.49,171.51L16.62,162.74L17.6,183.08L17.72,179.76L17.85,180.84L17.97,166.04L18.95,188.61L19.08,185.05L19.2,164.51L19.57,190.49L19.69,187.13L19.82,192.32L20.18,178.77L20.43,196.55L20.55,194.31L21.17,182.77L21.29,191.58L21.42,193.49L21.66,179.24L21.78,197.26L22.03,187.16L22.15,198.23L22.77,181.85L22.89,190.37L23.02,192.1L23.38,177.88L23.75,209.63L23.88,201.15L24,197.98L24.12,204.99L24.37,193.07L24.62,200.08L24.74,197.26L24.98,192.38L25.6,208.21L25.72,191.85L26.34,212.88L26.58,211.25L26.71,200.24L27.32,223.32L27.69,221.31L27.82,223.43L27.94,228.99L28.18,217.76L28.31,208.69L28.43,230.55L28.92,208.62L29.05,223.28L29.17,220.69L29.29,219.25L29.42,229.81L30.15,221.55L30.28,221.74L30.4,229.03L30.77,233.44L30.89,224.02L31.02,229.07L31.14,234.94L31.26,230.47L31.38,232.53L31.51,251.53L32.37,231.59L32.49,251.72L32.98,229.14L33.23,245.48L33.35,244.8L33.48,230.69L33.72,257.86L33.97,253.57L34.09,253.48L34.34,233.04L34.71,245.66L34.83,255.7L35.2,244.17L35.32,259.17L35.69,247.7L35.82,248.82L36.18,248.79L36.31,275.83L36.55,253.88L36.68,246.64L37.54,267.17L37.66,256.43L37.78,256.78L37.91,262.37L38.03,264.88L38.15,260.22L38.28,253.17L38.4,268.83L38.77,252.2L39.02,263.52L39.14,258.04L39.26,261.02L39.51,254.58L39.63,248.39L40.12,268.16L40.37,259.73L40.49,248.8L40.98,242.91L41.11,268.43L41.23,256.52L41.35,251.64L41.48,252.25L41.6,262.9L41.85,249.8L42.34,251.98L42.46,266.56L43.08,242.63L43.32,245.65L43.45,237.9L43.57,239.15L43.69,231.21L43.82,246.11L44.31,229.33L44.43,234.77L44.55,226.24L44.68,226.14L44.8,235.37L45.54,207.26L45.66,215.99L46.77,182.68L46.89,191.03L47.88,156.41L48,166.73L48.74,138.66L49.11,138.84L49.23,146.4L50.09,114.88L50.22,124.41L51.2,81.51L51.32,95.89L51.82,64.35L52.43,64.66L52.55,73.11L52.8,70.94L52.92,58.58L53.54,69.71L53.66,43.27L53.78,60.95L54.4,54.2L54.52,52.87L54.89,61.95L55.26,43.79L55.38,49.2L55.51,45.61L55.63,47.91L55.75,59.81L56.12,35.39L56.49,58.15L56.62,71.44L56.86,39.64L57.48,47.59L57.6,63.72L57.97,53.11L58.09,47.04L58.34,43.28L58.46,64.32L58.95,62.04L59.08,67.68L59.32,54.61L59.57,77.23L59.69,78.51L59.82,65.13L60.18,83.63L60.43,74.69L60.55,83.08L60.92,99.21L61.05,74.6L61.42,75.93L61.54,81.45L62.28,97.13L62.4,93.83L62.52,83.57L62.65,107.41L63.26,95.84L63.38,97.35L63.75,112.63L64.12,106.4L64.25,96.04L64.49,112.71L65.11,107.7L65.23,111.16L65.6,110.87L65.97,133.73L66.09,109.37L66.83,128.5L66.95,120.39L67.08,120.98L67.94,132.61L68.06,130.88L68.18,129.82L68.31,137.26L68.55,126.55L68.68,151.51L68.8,126.23L69.42,139.05L69.54,137.51L69.78,136.93L70.15,148.15L70.28,141.05L70.4,139.56L70.52,135.49L70.65,141.33L70.77,152.76L71.02,135.35L71.26,141.15L71.38,156.39L71.63,138.05L71.88,149.69L72,161.48L72.49,143.04L72.86,143.24L72.98,151.02L73.72,166.41L73.85,147.2L74.58,173.04L74.71,152.95L74.83,154.4L75.45,166.4L75.57,157.61L75.69,154.96L76.43,176.04L76.55,156.85L77.05,181.11L77.29,164.82L77.42,159.07L78.03,183.07L78.4,178.99L78.52,162.49L79.26,182.65L79.38,179.74L79.51,176.27L79.75,182.51L80.12,169.49L80.25,172.25L80.37,181.66L80.49,192.17L80.74,173.86L80.98,182.29L81.11,172.14L81.23,171.68L81.35,178.51L81.6,183.52L81.72,177.93L82.09,172.72L82.71,200.29L82.83,186.37L82.95,185.44L83.08,196.32L83.2,182.97L83.94,183.06L84.06,195.66L84.43,194.83L84.55,198.75L84.68,193.31L84.92,185.48L85.54,208.29L85.66,195.03L85.78,194.05L85.91,196.71L86.03,203.76L86.15,204.7L86.28,188.83L86.4,208.89L86.77,184.28L87.02,207.78L87.14,199.02L87.75,212.23L87.88,202.07L88,206.79L88.12,204.48L88.25,207.14L88.37,214.35L88.98,214.39L89.23,201.3L89.35,201.3L89.48,222.72L90.09,203.81L90.22,203.51L90.34,202.35L90.46,215.28L90.83,221.67L91.2,199.46L91.32,212.66L91.69,202L91.82,220.43L91.94,214L92.06,217.02L92.18,218.59L92.31,204.18L93.17,235.67L93.29,212.39L94.03,223.89L94.15,211.81L94.77,223.55L94.89,219.15L95.02,210.99L95.63,230.62L95.75,227.02L95.88,221.26L96,220.04L96.12,221.71L96.25,221.44L96.37,228.22L96.74,229.77L96.86,204.99L97.23,213.06L97.35,226.98L97.6,223.96L97.72,210.24L98.34,226.59L98.46,211.02L98.83,225.35L98.95,209.29L99.2,215.79L99.32,213.67L99.45,223.73L99.94,219.25L100.06,212.08L100.18,217.67L100.43,205.02L100.68,207.94L100.8,208.56L100.92,199.27L101.29,216.66L101.54,208.79L101.66,206.19L101.91,211.01L102.52,190.96L102.65,200.94L103.02,205.41L103.26,187.88L103.38,176.3L103.63,201.11L104.25,195.06L104.37,182.1L104.62,189.1L105.11,173.26L105.23,180.04L105.35,182.23L105.48,178.45L105.6,167.76L105.85,176.35L106.34,158.18L106.46,161.41L107.32,141.52L107.45,145.66L107.57,153.21L108.55,118.77L108.68,137.18L108.8,135.72L108.92,136.26L109.05,114.94L109.78,133.46L109.91,131.44L110.03,120.96L110.15,121.18L110.28,115.33L110.4,116.1L110.52,115.05L110.65,110.93L111.51,92.79L111.63,102.68L111.75,92.6L112.37,97.63L112.49,95.94L112.74,105.44L112.98,89.46L113.11,88.75L113.23,87.75L113.35,101.1L113.97,77.46L114.22,88.51L114.34,85.15L114.58,82.92L114.71,93.43L115.57,77.89L115.69,84.29L115.82,83.92L115.94,76.46L116.43,87.02L116.55,86.72L116.68,70.52L116.92,76.83L117.05,81.7L117.17,73.58L117.29,89.27L117.78,77.57L117.91,86.15L118.03,86.8L118.15,72.94L118.65,71.65L118.89,91.15L119.02,73.1L120.12,93.15L120.25,82.41L120.49,84.81L120.62,81.23L120.74,78.88L121.11,87.28L121.23,83.66L121.35,80.77L122.22,98.48L122.34,81.32L122.58,100.13L123.08,89.78L123.2,96.67L123.57,90.76L124.06,106.94L124.18,103.72L124.55,88.98L124.92,94.62L125.05,100.96L125.54,98.08L125.78,116.68L125.91,102.72L126.03,101.97L126.15,86.14L126.65,115.78L126.89,115.53L127.02,100.05L127.14,93.1L127.38,117.01L127.51,94.17L127.63,108.34L128.49,120.72L128.62,112.84L128.86,104.26L129.35,126.25L129.48,119.87L129.85,95.95L130.09,109.18L130.22,117.37L130.46,118.21L130.83,109.21L130.95,122.48L131.08,121.34L131.2,126.06L131.32,111.12L131.94,129.86L132.31,127.76L132.43,113.46L132.68,111.25L132.8,131.41L133.17,116.63L133.29,119.45L133.66,115.65L133.91,133.51L134.03,131.81L134.15,112.36L134.4,112.13L134.52,126.25L135.02,125.34L135.14,114L136.37,145.17L136.49,130.55L137.11,117.01L137.23,133.25L137.35,135.61L137.6,129L137.72,121.69L137.85,135.37L138.46,126.87L138.58,130.91L138.71,137.64L138.83,114.25L139.08,125.7L139.2,118.76L140.06,134.01L140.18,127.85L140.31,122.76L140.43,138.21L140.68,127.14L140.8,139.34L140.92,115.29L141.54,127.87L141.66,122.82L142.52,138.71L142.65,137.26L143.02,139.22L143.63,122.52L143.75,142.11L144,129.24L144.25,142.23L144.49,134.89L144.62,135.81L144.86,139.56L145.11,128.18L145.23,134.06L145.35,144.32L146.34,122.51L146.46,144.79L147.2,121.38L147.32,136.01L147.45,145.05L147.94,130.9L148.06,140.57L148.18,137.66L148.55,132.95L148.68,139.77L148.92,137.45L149.05,139.48L149.54,141.25L149.66,123.04L149.78,135.04L149.91,142.69L150.28,132.12L150.65,142.48L150.77,145.93L150.89,148.31L151.02,145.04L151.14,128.65L151.75,141.78L151.88,133.48L152,136.1L152.12,137.01L152.25,149.11L152.37,130.79L152.98,142.43L153.11,147.77L153.6,126.89L153.85,130.7L153.97,143.24L154.46,150.49L154.71,134.23L154.83,134.29L154.95,141.08L155.08,134.5L155.45,144.65L155.57,136.39L155.69,142.55L155.82,145.15L155.94,131.52L156.06,147.65L156.8,147.46L156.92,149.52L157.17,150.81L157.54,127.4L157.66,147.44L157.78,143.26L157.91,126.67L158.28,148.95L158.4,137.94L158.52,146.16L158.77,149.56L158.89,131.41L159.63,147.5L159.75,137.17L160,143.82L160.12,146.54L160.37,154.8L160.86,132.38L160.98,147.05L161.11,137.78L161.23,151.56L161.72,143.73L161.85,153.07L162.09,139.35L162.34,141.81L162.46,153.25L163.2,136L163.32,150.1L163.57,139.98L163.69,158.29L163.82,139.21L164.43,149.49L164.55,144.14L164.68,155.38L164.92,143.14L165.17,147.46L165.29,141.58L165.66,162.47L165.78,134.61L166.03,147.99L166.15,151.34L166.28,150.71L166.4,151.11L166.52,139.72L166.89,157.57L167.14,139.59L167.26,137.42L167.38,138.49L167.51,151.5L167.75,137.34L167.88,160.35L168.25,155.47L168.37,154.86L168.74,160.96L168.98,145.62L169.11,154.1L169.23,150.35L169.35,165.52L169.85,146.11L169.97,145.2L170.09,163.52L170.71,153.52L170.83,158.33L171.2,141.52L171.45,160L171.57,154.55L171.69,153.44L171.82,144.85L172.06,162.42L172.31,159.64L172.43,158.35L172.55,161.65L172.68,158.08L172.8,161.25L172.92,148.17L173.42,167.1L173.66,149.87L173.78,145.68L174.89,172.92L175.02,146.98L175.51,171.24L175.88,160.25L176,165.89L176.25,185.51L176.37,162.53L176.62,177.33L176.74,165.45L176.98,175.31L177.11,180.64L177.48,157.98L177.85,165.99L177.97,162.13L178.22,189.21L178.71,175.73L178.83,167.7L179.32,178.81L179.69,175.73L179.82,176.77L179.94,179.31L180.06,174.32L180.18,176.49L180.31,162.49L180.55,190.9L181.17,179.79L181.29,180.48L181.54,173.36L181.91,194.93L182.03,177.43L182.15,175.88L182.28,191.2L182.77,183.06L182.89,199.32L183.02,181.18L183.63,187.64L183.75,185.74L183.88,184.97L184,196.95L184.62,179.04L184.74,203.14L184.98,204.7L185.48,182.86L185.6,187.2L186.71,209.14L186.83,198.74L186.95,197.48L187.08,203.55L187.2,199.41L187.32,201.77L187.45,211.01L188.06,206.17L188.18,207.59L188.31,202.86L188.55,210.73L188.68,217.09L189.17,200.51L189.29,215.71L189.42,227.62L189.91,229.71L190.15,200.69L190.28,223.61L190.89,208.19L191.02,226.59L191.14,213.59L191.51,229.89L191.75,223.12L191.88,239.31L192.62,225.18L192.74,235.91L192.86,238.31L193.11,229.86L193.23,250.3L193.48,233.64L193.85,257.94L193.97,247.06L194.09,253.9L194.34,239.22L194.95,239.99L195.08,256.89L195.45,263.41L195.57,248.92L195.69,261.2L195.82,259.47L196.06,248.13L196.31,259.19L196.43,264.19L196.92,255.61L197.05,267.73L197.17,268.87L197.54,262.5L197.66,269.11L197.78,263.14L197.91,271.96L198.4,260.92L198.52,288.25L199.26,272.56L199.38,273.69L199.51,280.7L199.63,273.69L199.75,292.7L199.88,276.86L200,300.58L200.86,282.27L200.98,282.65L201.23,299.65L201.72,296.22L201.85,290.18L201.97,291.04L202.09,287.82L202.22,294.67L202.71,302.04L202.83,286.23L202.95,293.81L203.08,292.88L203.32,290.6L203.82,302.48L203.94,291.12L204.18,287.77L204.55,304L204.68,293.31L204.8,290.02L205.05,289.24L205.17,298.72L205.42,301.2L205.54,279.22L206.03,280.59L206.15,279.66L206.65,297.17L206.89,289.93L207.02,269.67L207.14,286.86L207.51,268.95L207.75,276.04L207.88,271.45L208,276.01L208.25,257.79L208.37,252.7L208.62,239.35L208.74,252.53L208.86,252.95L208.98,256.76L209.11,245.75L209.35,247.17L209.48,239.08L210.22,203.28L210.58,211.99L210.71,216.01L212.06,146.68L212.18,154.01L212.31,152.57L212.43,160.33L212.8,141.37L212.92,120.63L213.05,130.15L213.42,114.3L213.54,109.86L213.66,121.35L214.03,91.31L214.15,89.28L214.28,89.94L214.4,74.96L214.65,79.86L214.77,68.34L214.89,75.67L215.02,62.33L215.38,67.65L215.51,53.02L215.63,64.29L215.75,33.86L215.88,49.98L216.49,41.72L216.62,33.99L216.74,43L217.11,25.89L217.23,28.31L217.35,16L217.48,34.9L218.09,33.07L218.22,31.19L218.58,19.73L218.83,41.9L218.95,30.59L219.08,23.64L219.94,35.77L220.06,35.67L220.18,31.6L220.31,22.69L220.68,40.66L220.8,30.92L220.92,37.14L221.05,36.86L221.17,29.27L221.54,60.43L222.03,47.98L222.15,48.14L222.28,43.52L222.4,61.1L222.52,55.86L222.65,58.51L222.77,54.98L222.89,67.57L223.14,63.88L223.26,70.43L223.51,66.74L223.63,80.67L224,77.21L224.12,66.2L225.11,101L225.23,96.86L225.35,97.35L225.6,88.9L225.72,104.53L225.97,101.95L226.09,113.31L226.46,100.13L226.58,109.66L226.71,115.71L227.08,135.79L227.32,126.54L227.45,114.11L228.18,136.92L228.31,129.19L228.43,130.24L228.55,131.25L228.68,126.48L228.8,138.84L229.17,139.85L229.42,130.84L229.54,145.96L229.91,138.48L230.15,155.76L230.28,143.13L230.4,159.47L230.65,141.14L231.02,153.54L231.14,148.45L232,175.03L232.12,161.2L232.74,180.97L232.86,169.68L233.11,162.22L233.72,182.7L234.09,179.28L234.22,170.73L234.83,193.68L234.95,187.92L235.08,177.45L235.32,171.58L235.45,177.69L235.57,191.03L235.69,170.68L235.82,192.18L236.31,190.7L236.43,185.42L236.92,203.55L237.05,200.52L237.17,186.9L237.78,206.22L237.91,192.19L238.03,197.24L238.28,205.78L238.4,185.46L238.65,191.67L238.77,192.15L239.75,219.11L239.88,198.5L240.86,222.68L240.98,218.58L241.23,205.91L241.6,215.75L241.72,217.25L241.85,211.34L241.97,233.18L242.34,216.74L242.46,225.49L242.58,216.86L243.08,226.5L243.2,226.2L243.32,218.27L243.57,214.28L244.18,231.94L244.43,229.93L244.55,209.82L245.17,239.03L245.42,233.94L245.54,238.44L246.15,224.33L246.4,225.86L246.52,230.03L246.77,226.88L247.26,245.12L247.38,232.49L247.51,235.27L247.75,226.29L247.88,231.73L248,248.82L248.62,226.72L248.74,230.82L248.86,236.2L249.23,224.08L249.35,237.86L249.72,227.63L249.85,238.21L250.09,224.15L250.46,238.28L250.58,234.05L250.71,234.89L250.95,221.47L251.2,237.47L251.32,231.91L251.45,243.66L251.82,208.04L252.31,220.8L252.43,217.82L252.92,213.38L253.17,226.44L253.29,214.72L253.54,216.66L253.66,209.07L253.78,221.77L254.4,197.62L254.65,205L254.77,194.4L255.14,214.91L255.26,191.53L255.51,194.04L255.63,178.32L255.75,204.19L256.37,186.24L256.49,176.71L256.74,179.14L256.98,164.47L257.23,175.74L257.35,177.5L257.48,177.82L257.6,164.79L257.85,167.06L258.34,145.75L258.46,163.33L259.2,126.25L259.32,128.19L259.45,148.53L259.57,146.84L259.69,129.32L259.82,131.92L259.94,131.47L260.06,113.99L260.31,129.4L260.68,106.23L260.8,123.57L260.92,109.41L261.05,116.24L261.42,101.82L261.54,104.71L261.66,103.41L261.91,108.82L262.03,88.55L262.15,105.29L262.77,87.45L262.89,80.55L263.51,89.1L263.63,78.36L263.75,83.73L263.88,73.58L264.37,80.14L264.49,79.5L265.35,61.26L265.48,74.79L265.6,81.19L265.97,71.18L266.09,61.27L266.22,60.23L266.34,75.01L266.95,80.07L267.08,60.81L267.2,61.84L267.32,72.76L267.57,70.55L267.69,63.99L268.06,83.64L268.31,79.5L268.43,59.07L269.05,85.67L269.17,70.02L269.29,72.94L269.42,84.85L269.54,58.76L270.03,81.11L270.15,76.97L270.4,84.73L270.52,75.66L270.77,79.05L270.89,74.68L271.02,67.85L271.26,81.59L271.38,89L271.51,88.33L271.63,83.17L271.88,93.43L272.37,64.67L272.49,86.69L272.62,70.22L273.11,94.59L273.23,85.3L273.35,85.62L273.48,106.18L274.22,104.65L274.34,100.07L274.71,112.48L274.95,89.17L275.08,101.56L275.94,107.92L276.06,103.28L276.31,95.72L276.55,113.13L276.8,107.2L276.92,100.91L277.54,123.79L277.78,115.83L277.91,103.24L278.15,97.27L278.28,129.83L278.65,122.76L278.77,110.86L279.38,107.95L279.51,125.73L279.63,115.7L279.75,115.1L279.88,122.64L280,117.86L280.25,127.72L280.49,126.95L280.62,123.12L280.86,121.43L280.98,125.7L281.11,122.95L281.23,134.04L281.35,140.45L281.85,119.27L282.09,130.93L282.22,134.75L282.71,143.12L282.83,121.01L282.95,135.41L283.08,135.6L283.32,134.01L283.45,129.12L283.69,130.16L283.82,142.2L283.94,120.57L284.55,144.54L284.68,133.55L284.8,143L284.92,126.05L285.29,128.94L285.42,127.52L286.15,146.72L286.28,141.03L286.52,130.47L286.65,147.69L287.02,131.75L287.14,146.73L287.51,130.14L287.63,136.49L287.75,152.91L288.62,135.54L288.74,145.06L288.86,145.47L288.98,143.54L289.11,138.34L289.48,137.01L289.85,150.82L289.97,139.88L290.58,155.44L290.71,152.86L290.83,145.14L290.95,145.45L291.08,132.49L291.57,154.08L292.06,153.84L292.18,149.99L292.31,139.01L292.8,154.59L292.92,146.68L293.05,164.07L293.17,144.08L293.78,154.65L293.91,147.52L294.15,146.59L294.65,162.36L294.77,145.23L295.38,171.31L295.51,143.88L295.75,163.65L296.25,143.75L296.37,156.3L296.49,157.7L296.86,161.34L297.11,137.78L297.23,155.93L297.35,166.13L297.72,167.33L297.85,155.82L297.97,174.17L298.09,153.22L298.71,170.41L298.83,166.21L299.08,157.17L299.2,174.99L299.45,166.97L299.57,153.87L300.18,181.15L300.31,162.72L300.43,166.3L300.68,161.33L300.8,179.85L301.05,156.83L301.54,173.85L301.66,164.32L301.91,175.89L302.28,173.29L302.4,163.45L303.02,178.29L303.14,168.61L303.26,163.95L303.38,192.2L303.63,162.4L304,177.33L304.12,180.38L304.74,163.53L304.86,178.39L304.98,188.3L305.72,169.77L305.85,181.63L305.97,185.77L306.09,174.31L306.34,185.55L306.46,173.64L306.95,187.53L307.32,184.07L307.45,187.08L307.69,185.34L307.82,193.23L308.06,193.68L308.43,175.65L308.55,197.45L308.68,176.59L309.29,183.78L309.42,188L309.78,194.96L310.28,191.42L310.4,192.09L310.52,201.13L310.77,189.26L311.02,196.77L311.14,191.08L311.51,185.28L311.63,194.85L311.75,186.19L312.12,204.71L312.62,196.19L312.74,189.78L313.6,215.3L313.72,190.15L314.58,216.3L314.71,199.33L314.95,223.23L315.45,203.14L315.57,190.95L316.68,231.82L316.8,214.92L316.92,213.48L317.05,230.52L317.54,203.85L317.91,212.06L318.03,221.37L318.28,204.11L318.52,209.13L318.65,219.22L318.89,208.61L319.02,220.46L319.26,219.07L319.38,224.65L319.51,224.98L319.63,219.91L320,211.17L320.12,237.65L320.25,213.57L320.62,232.72L320.86,213.34L320.98,221.92L321.11,222.17L321.23,217.1L321.35,237.79L321.72,221.92L321.85,227.91L322.22,236.84L322.34,216.53L322.58,223.72L322.71,222.04L322.95,236.09L323.57,235.93L323.69,226.73L323.82,229.32L324.18,224.13L324.31,226.76L324.43,218.57L324.55,218.86L324.68,233.35L325.05,217.75L325.54,218.41L325.66,222.02L325.78,215.7L325.91,228.17L326.03,220.01L326.15,240.38L326.65,221.77L326.77,222.37L326.89,227.21L327.26,205.96L327.51,216.34L327.63,223.78L327.88,225.08L328.25,206.39L328.49,207.5L328.62,221.4L329.35,194.76L329.48,220.93L330.34,185.16L330.46,199.01L331.08,176.55L331.2,183.61L331.32,196.84L332.68,163.76L332.8,175.76L333.05,152L333.17,169.46L333.29,170.56L334.15,139.1L334.28,160.97L335.14,131.87L335.26,142.01L336,119.67L336.12,128.57L336.25,126.25L336.37,125.12L336.49,129.9L336.62,118.85L336.86,106.54L336.98,120.23L337.11,110.99L337.23,119.95L337.6,95L338.09,96.25L338.22,100.63L338.34,113.92L338.71,97.52L338.83,100.2L338.95,89.2L339.08,80.62L339.32,94.91L339.69,87.64L339.82,90.12L340.43,94.93L340.8,71.83L340.92,91.43L341.78,73.65L341.91,77.89L342.03,77.18L342.15,69.25L342.77,83.59L342.89,70.99L343.02,63.16L343.14,80.01L343.38,59.83L343.75,69.06L343.88,68.67L344.25,66.2L344.62,85.87L344.74,75.42L344.86,66.76L345.11,78.05L345.35,74.45L345.48,81.25L345.85,91.21L346.22,70.83L346.34,94.37L346.95,78.66L347.08,83.44L347.2,82.98L347.45,77.86L347.57,88.94L347.69,82.71L347.82,74.98L348.06,99.8L348.55,92.42L348.68,88.11L349.05,100.32L349.17,87.74L349.42,97.18L349.66,92.84L349.78,89.44L349.91,100.51L350.4,99.85L350.52,77.4L351.14,111.42L351.51,108.07L351.63,89.98L352.25,112.79L352.37,104.47L352.49,96.36L353.23,114.97L353.35,114.22L353.48,107.81L354.09,106.98L354.22,113.89L354.34,104.81L354.71,119.52L355.08,105.53L355.2,108.8L355.57,107.65L355.82,134.01L355.94,117.25L356.06,119.61L356.18,122.29L356.31,118.09L356.43,119.02L356.55,111.8L357.42,123.01L357.54,118.86L357.66,117.06L357.78,128.35L357.91,138.86L358.15,113.08L358.28,131.5L358.4,115.23L358.77,112.85L358.89,134.74L359.26,129.07L359.38,117.13L359.51,114.55L359.63,123.77L359.75,117.93L359.88,130.14L360.12,115.09L360.49,122.72L360.62,134.77L361.11,137.1L361.23,123.83L361.6,124.91L361.72,129.42L361.85,113.13L361.97,141.42L362.46,130.48L362.58,141.19L362.95,129.58L363.2,133.15L363.32,142.29L363.45,129.25L363.57,144.67L364.06,130.9L364.18,133.54L364.31,149.15L364.92,134.52L365.05,135.06L365.42,138.19L365.54,118.15L365.66,136.12L365.78,137.16L365.91,137.37L366.03,140.31L366.15,140.57L366.28,131.26L366.4,142.24L366.77,123.59L367.02,137.07L367.14,137.62L367.38,126.71L367.51,141.76L367.63,131.52L367.88,129.88L368.62,147.36L368.74,125.94L369.23,150.16L369.48,134.63L369.6,132.05L370.22,149.87L370.46,147.38L370.58,140.26L370.95,133.52L371.2,138.03L371.32,144.36L371.57,149.2L371.94,134.88L372.06,152.19L372.68,154.39L372.8,138.91L372.92,145.81L373.05,127.52L373.42,147.39L373.54,134.3L373.66,150.51L373.78,160.61L374.03,136.14L374.4,153.82L374.52,139.94L374.65,137.75L374.77,164.82L375.26,140.37L375.51,146.62L375.63,155.64L376.25,138.55L376.49,141.02L376.62,139.73L377.48,159.01L377.6,142.75L378.22,157.81L378.34,145.34L378.46,147.06L378.95,160.12L379.32,157.13L379.45,144.27L379.69,137.08L380.18,162.05L380.31,158.17L380.43,152.66L380.68,145.71L380.8,159.85L380.92,160.88L381.29,151.29L381.66,158.79L381.78,166.37L382.28,152.72L382.52,155.69L382.65,161.44L383.38,151.23L383.51,176.27L384.37,150.8L384.49,158.6L384.74,158.35L384.86,166.37L384.98,166.31L385.11,158.23L385.23,146.54L385.72,166.29L385.85,164.93L385.97,156.59L386.22,183.31L386.46,165.61L386.58,166.65L386.83,160.16L387.2,163.65L387.32,174.8L387.69,161.39L388.18,162.17L388.31,161.57L388.43,161.96L388.55,165.04L388.68,175.57L388.8,163.26L389.29,165.32L389.42,171.22L389.66,175.93L389.78,161.57L389.91,163.53L390.03,175.03L390.15,158.11L390.28,176.94L390.65,169L390.77,179.6L390.89,182.51L391.02,165.27L391.26,180.91L391.51,164.99L391.75,172.48L391.88,163.43L392.62,192.7L392.74,176.22L392.86,168.2L393.6,192.46L393.72,180.49L393.85,186.38L394.09,174.25L394.22,179.02L394.34,173.46L394.58,190.19L394.95,189.25L395.08,177.37L395.57,193.64L395.94,189.95L396.06,191.37L396.43,196.95L396.55,180.21L396.8,181.39L396.92,197.54L397.29,199.18L397.54,182.98L397.66,195.82L397.91,205.58L398.15,193.51L398.4,198.38L398.52,189.06L399.02,207.17L399.51,206.52L399.63,192.44L400.62,217.29L400.74,210.67L400.98,214.32L401.48,199.98L401.6,214.84L401.72,213.34L401.85,220.48L401.97,203.98L402.71,220.31L402.83,204.3L403.32,223.26L403.69,215.85L403.82,222.34L404.31,226.89L404.43,215.57L404.55,216.58L404.68,230.99L404.8,231.49L404.92,226.48L405.42,219.42L405.66,242.13L405.78,234.46L405.91,226.54L406.28,225.25L406.77,233.4L406.89,229.4L407.26,248.43L407.38,237.33L407.51,235.39L407.88,228.73L408.12,241.77L408.25,259.97L408.98,239.34L409.11,245.86L409.35,239.24L409.48,257.06L409.6,235.25L410.22,238.48L410.34,245.89L410.46,260L410.95,239.55L411.08,243.92L411.82,260.83L411.94,247.07L412.43,241.61L412.68,257.95L412.8,255.52L412.92,252L413.17,258.65L413.42,250.36L413.54,247.19L413.78,262.13L413.91,246.46L414.03,239.25L414.28,255.58L414.52,253.68L414.65,251.08L415.02,243.68L415.26,252.29L415.38,248L415.51,250.28L415.88,255.68L416,243.66L416.98,256.56L417.11,241.59L417.35,246.61L417.6,231.93L417.72,242.7L418.09,245.52L418.22,235.42L418.34,244.42L418.46,212.9L418.58,236.81L419.2,217.99L419.32,231.94L419.82,204L419.94,206.1L420.06,195.35L420.18,208.69L420.8,203.1L420.92,191.76L421.05,193.48L421.17,182.37L421.29,192.34L421.66,178.47L421.78,168.65L421.91,174.53L422.4,163.78L422.52,149.38L422.65,161.74L423.02,143.14L423.26,149.74L423.38,148.02L423.63,144.34L423.75,151.1L423.88,135.66L424.12,126.63L424.25,118.08L424.37,140.76L424.86,113.81L424.98,102.46L425.11,122.48L425.48,97.12L425.72,109.14L425.85,88.08L425.97,103.54L426.46,74.9L426.58,95.15L426.71,82.88L427.2,72.66L427.32,84.97L428.18,64.55L428.31,76.31L429.05,53.43L429.17,62.39L429.29,69.65L429.54,65.66L429.66,40.5L429.91,58.8L430.52,58.55L430.65,63.64L430.89,47.82L431.38,51.9L431.51,62.78L431.75,63.57L432,48.68L432.49,52.97L432.62,60.71L432.74,52.51L432.86,70.84L433.23,59.1L433.35,69.16L433.6,63.29L433.97,72.4L434.09,66.35L434.22,78L434.46,63.32L434.83,80.58L434.95,74.94L435.08,76.44L435.2,63.73L435.45,77.62L435.82,66.53L435.94,82.29L436.18,72.04L436.43,83.94L436.55,91.35L436.68,80.87L437.17,91.74L437.29,85.23L437.42,96.06L437.54,104.93L437.91,80.02L438.03,79.01L438.89,109.83L439.02,97.74L439.75,123.49L439.88,118.96L440,108.84L440.12,106.39L440.25,122.65L440.62,109.47L440.98,115.3L441.11,120.34L441.72,109.3L441.85,120.36L441.97,117.99L442.09,118.31L442.22,128.88L442.34,131.99L442.46,121.29L442.58,118.61L443.32,134.87L443.45,124.65L443.82,117.58L444.18,139.76L444.31,124.63L445.17,153.31L445.29,145.76L445.78,126.54L445.91,153.48L446.03,144.7L446.15,134.87L446.28,151.49L446.65,133.96L446.89,147.88L447.02,140.11L447.14,140.66L447.26,137.38L447.63,155.39L447.88,136.87L448,151.63L448.12,131.47L449.11,166.75L449.23,150.84L449.35,135.76L449.72,156.98L449.97,151.4L450.09,153.08L450.22,147.16L450.34,164.64L450.58,147.82L450.71,161.46L450.83,165.93L450.95,148.06L451.08,142.27L451.45,165.12L451.94,158.76L452.06,165.17L452.55,151.69L452.8,154.74L452.92,163.4L453.17,172.1L453.42,156.35L453.54,172.05L453.78,177.05L454.03,160.78L454.28,169.36L454.4,168.37L454.77,160.02L454.89,174.85L455.02,162.1L455.26,177.94L455.63,173.79L455.75,188.66L455.88,155.43L456.49,174.56L456.62,163.69L457.23,178.26L457.35,174.06L457.48,171.47L457.97,170.37L458.22,187.2L458.34,180.36L458.46,175.6L458.58,166.2L458.71,186.89L459.2,172.79L459.32,173.18L459.45,188.83L460.06,188.24L460.18,181.69L460.31,177.67L460.43,189.07L460.68,186.49L460.8,202.75L461.05,181.28L461.54,189.46L461.66,197.05L462.03,198.25L462.65,186.86L462.77,189.71L463.02,184.69L463.38,192.27L463.51,210.69L463.88,190.03L464,211.65L464.25,194.1L464.37,197.19L464.74,204.37L464.98,188.62L465.11,192.52L465.23,204.5L465.48,206.64L465.6,197.64L465.97,198.59L466.09,203.68L466.22,191.17L466.46,208.12L466.71,201.76L466.83,219.54L467.45,205.06L467.57,205.88L467.69,212.13L467.82,212.26L467.94,199.68L468.43,223.77L468.55,202.26L468.68,200.38L468.8,211.3L468.92,216.82L469.29,203.88L469.42,215.25L469.54,202.37L469.78,220.93L470.28,217.21L470.4,206.38L471.02,221.79L471.14,204.56L472,224.49L472.12,218.7L472.25,215.93L472.37,233.41L472.98,213.53L473.11,220.09L473.23,233.35L473.6,211.91L474.09,212.38L474.22,234.41L474.71,211.02L474.95,213.05L475.08,227.14L475.32,218.17L475.45,237.37L475.82,225.08L475.94,221.2L476.06,227.55L476.18,209.7L476.55,224.65L476.68,217.25L476.8,222.07L477.29,219.99L477.42,210.68L477.66,209.03L478.03,229.59L478.15,214.37L478.28,213.43L478.4,215.94L478.52,225.19L479.38,196.93L479.51,194.31L479.63,215.21L479.88,191.99L480.37,214.29L480.49,206.08L481.48,183.96L481.6,202.33L481.97,176.28L482.22,186.01L482.34,188.87L482.58,189.52L483.45,165.51L483.57,165.77L483.69,182.83L484.43,159.18L484.55,163.49L484.68,168.82L485.54,147.65L485.66,161.11L485.91,125.37L486.4,136.74L486.52,147.69L486.77,142.32L486.89,128.93L487.14,137.43L487.51,125.65L487.63,131.89L487.75,119.48L488.37,119.19L488.49,129.93L488.62,109.33L488.98,127.04L489.11,113L489.23,105.41L489.48,112.14L490.09,87.63L490.22,108.04L490.34,80.5L490.95,99.47L491.08,100.62L491.32,102.78L491.82,79.82L491.94,87.64L492.06,83.64L492.18,84.35L492.31,75.19L492.43,97.54L493.05,84.6L493.17,84.7L493.42,73.52L493.66,77.84L493.78,88.7L494.03,72.44L494.4,91.19L494.52,81.11L494.65,86.74L495.14,70.57L495.38,75.94L495.51,82.6L495.75,72.95L495.88,79.19L496,79.9L496.12,91.96L496.37,78.52L496.62,85.72L496.74,67.59L497.23,95.67L497.85,91.77L497.97,82.7L498.09,84.88L498.22,84.79L498.34,72.57L499.08,93.44L499.2,86.7L499.32,79.21L499.69,93.21L499.82,80.26L499.94,92.89L500.18,102.84L500.68,77.09L500.8,88.74L500.92,82.69L501.29,100.23L501.42,98.29L501.54,102.73L501.91,89.7L502.03,91.4L502.4,105.28L502.89,101.3L503.02,99.86L503.14,107.63L503.51,90.62L503.63,94.08L503.75,88.78L503.88,110.76L504,99.92" style="vector-effect: non-scaling-stroke; fill: none; stroke: rgb(99, 110, 250); stroke-opacity: 1; stroke-width: 2px; opacity: 1;"/></g><g class="points"/><g class="text"/></g><g class="trace scatter traceddb3f4" style="stroke-miterlimit: 2; opacity: 1;"><g class="fills"/><g class="errorbars"/><g class="lines"><path class="js-line" d="M0,148.47L0.25,111.33L0.74,119.16L0.86,131.05L1.48,115.96L1.6,126.01L1.72,128.75L1.97,126.94L2.09,131.79L2.34,133.16L2.58,120.81L2.83,128.03L2.95,136.13L3.2,123.76L3.45,141.94L3.57,130.47L3.69,137.85L3.94,123.9L4.18,142.63L4.43,133.46L4.55,135.96L4.68,124.51L4.92,145.96L5.17,134.7L5.29,141.54L5.42,142.01L5.54,137.92L6.03,125.78L6.15,145.02L6.28,143.95L6.4,136.14L6.52,136.7L6.65,136.58L6.77,142.75L7.14,149.07L7.26,139.49L7.38,149.12L7.51,158.21L7.88,143.18L8,147.88L8.12,148.19L8.37,142.94L8.74,151.52L8.86,141.47L9.85,158.62L9.97,141.34L10.34,161.26L10.46,155.96L10.58,145.62L10.71,142.94L10.83,168.74L11.2,145.44L11.69,154.07L11.82,148.85L12.68,164.57L12.8,164.3L12.92,167.71L13.29,158.99L13.42,165.88L13.54,162.01L13.66,176.42L13.78,151.6L14.28,164.53L14.4,156.62L15.14,183.53L15.26,172.77L15.38,169.51L15.51,165.64L15.63,170.64L15.75,168.53L15.88,180.09L16.62,163.07L16.74,170.7L16.86,181.95L17.23,171.11L17.48,176.38L17.6,182.91L17.97,166.49L18.22,178.43L18.34,176.95L18.71,174.53L18.95,188.45L19.08,184.76L19.2,165.17L19.82,192.15L20.06,181.86L20.18,178.94L20.43,196.26L20.92,191.09L21.05,187.33L21.42,193.28L21.66,179.71L21.78,196.89L22.15,197.86L22.4,184.33L22.52,193.41L22.77,182.19L23.02,192.15L23.14,199.84L23.26,203.76L23.38,178.79L23.75,209.31L24.25,201.81L24.37,193.33L24.98,192.78L25.11,206.66L25.23,204.23L25.35,196.22L25.72,192.48L25.85,210.02L26.09,209.45L26.22,203.36L26.34,212.66L26.71,200.56L26.95,209.89L27.08,208.71L27.94,228.72L28.06,218.38L28.18,217.67L28.31,209.24L28.43,230.06L28.92,209.13L29.05,223L29.17,220.64L29.29,219.49L29.42,229.55L30.15,221.62L30.28,221.85L30.4,228.85L30.77,233.13L30.89,224.24L31.02,229.11L31.14,234.71L31.26,230.56L31.38,232.84L31.51,250.82L32.37,232.11L32.49,251.15L32.98,229.48L33.23,245.2L33.35,244.53L33.48,231.33L33.72,257.5L33.97,253.55L34.09,253.13L34.34,233.43L34.71,245.96L34.83,255.42L35.2,244.52L35.32,258.91L35.69,247.86L35.82,249.03L36.31,274.89L36.55,253.85L36.68,246.85L37.54,266.85L37.66,256.59L37.78,256.93L37.91,262.29L38.03,264.74L38.15,260.18L38.28,253.6L38.4,268.33L38.77,252.47L39.02,263.37L39.14,258.21L39.26,260.88L39.51,254.5L39.63,248.56L40.12,267.77L40.37,259.49L40.49,249.16L40.98,243.61L41.11,267.8L41.23,256.54L41.35,251.82L41.48,252.43L41.6,262.51L41.85,249.91L42.34,252.34L42.46,266.04L43.08,242.94L43.32,245.52L43.45,238.08L43.57,239.01L43.69,231.59L43.82,245.64L44.31,229.54L44.43,234.52L44.55,226.36L44.8,234.73L44.92,210.05L45.17,224.65L45.54,207.53L45.66,215.67L45.78,206.31L46.77,183.02L46.89,190.61L47.88,156.89L48,166.47L49.11,139.22L49.23,146.11L50.09,115.06L50.22,123.91L51.2,81.8L51.32,95.5L52.43,64.89L52.55,72.91L52.8,70.75L52.92,58.84L53.54,69.08L53.66,44.03L53.78,60.68L54.4,54.3L54.52,52.82L54.89,61.59L55.26,43.96L55.38,49.04L55.51,45.69L55.63,48.09L55.75,59.25L56.12,35.8L56.49,58.33L56.62,70.85L56.86,40.36L57.48,48L57.6,63.4L57.72,62.19L57.85,62.73L57.97,53.17L58.34,43.94L58.46,63.92L58.71,47.29L58.83,57.58L59.32,55.01L59.69,78.24L59.82,65.37L59.94,65.97L60.06,79.05L60.31,72.21L60.92,98.4L61.05,75.12L61.78,90.77L62.03,89.48L62.15,84.5L62.52,84.2L62.65,106.82L62.89,102.69L63.02,93.6L63.51,100.63L63.63,100.19L63.75,112.34L64.25,96.41L64.37,107.63L64.49,112.45L64.74,104.15L65.23,111.17L65.35,114.52L65.6,111.23L65.97,133.15L66.09,109.93L67.2,128.41L67.32,121.56L67.45,122.43L67.57,131.87L67.69,131.57L67.82,129.19L68.31,137.11L68.43,135.17L68.55,127.18L68.68,150.65L68.8,126.79L69.29,128.92L69.42,138.86L69.66,143.59L69.78,137.15L69.91,143.46L70.15,147.99L70.4,139.55L70.52,135.66L71.38,156.06L71.51,150.24L71.63,138.48L72,160.97L72.12,145.43L72.25,160.63L72.49,143.56L72.98,151.13L73.11,163.26L73.23,162.62L73.35,157.48L73.72,166.04L73.85,147.67L74.58,172.49L74.71,153.34L74.83,154.64L75.45,166.07L75.57,157.66L75.69,155.11L76.43,175.6L76.55,157.3L77.05,180.69L77.29,164.82L77.42,159.31L78.03,182.71L78.4,178.56L78.52,162.95L79.26,182.44L79.38,179.7L79.51,176.3L79.75,182.25L80.12,169.6L80.25,172.35L80.37,181.65L80.49,191.63L80.74,174.14L80.98,182.1L81.11,172.34L81.23,171.83L81.35,178.37L81.6,183.35L81.72,178.09L81.97,183.28L82.09,173.28L82.71,199.71L82.83,186.54L82.95,185.73L83.08,195.87L83.2,183.33L83.57,195.1L83.69,184.71L83.94,183.36L84.8,205.82L84.92,186.06L85.54,207.93L85.66,195.25L85.78,194.18L86.15,204.39L86.28,189.48L86.4,208.48L86.77,184.78L87.02,207.4L87.14,199.38L87.75,211.94L87.88,202.32L88,206.7L88.12,204.53L88.25,207.22L88.37,213.98L88.98,214.11L89.23,201.42L89.35,201.67L89.48,222.11L90.09,203.95L90.22,203.53L90.34,202.57L90.46,214.86L90.83,221.19L91.2,200.04L91.32,212.38L91.69,202.59L91.82,220.06L91.94,214.07L92.06,217.04L92.18,218.29L92.31,204.5L93.17,235.04L93.29,212.92L94.03,223.53L94.15,212.13L94.77,223.48L94.89,219.1L95.02,211.45L95.63,230.24L95.75,226.91L95.88,221.4L96,220.12L96.12,221.67L96.25,221.56L96.37,227.94L96.74,229.03L96.86,205.75L97.23,213.57L97.35,226.73L97.6,223.77L97.72,210.53L98.09,220.2L98.22,214.97L98.34,226.12L98.95,209.73L99.08,220.98L99.2,215.78L99.32,213.92L99.45,223.4L99.82,217.14L99.94,219.1L100.92,199.69L101.05,213.71L101.29,216.51L102.52,191.17L102.65,200.72L103.02,205.07L103.26,187.78L103.38,176.76L103.63,200.67L104.25,194.55L104.37,182.18L104.62,188.68L105.11,173.46L105.23,179.94L105.35,182.1L105.48,178.35L105.6,167.86L105.85,175.86L106.34,158.51L106.46,161.31L106.58,156.03L107.32,141.8L107.45,145.74L107.57,152.81L108.55,119.41L108.68,136.85L108.8,135.66L108.92,135.9L109.05,115.41L109.78,133.24L109.91,131.26L110.03,121.19L111.51,93.05L111.63,102.33L111.75,92.9L111.88,102.5L112.37,97.6L112.49,96.08L112.74,105.07L112.98,89.52L113.11,88.72L113.23,88L113.35,100.63L113.97,77.84L114.22,88.38L114.34,85.19L114.46,83.09L114.58,83.1L114.71,93.01L115.57,78.03L115.69,84.17L115.82,83.76L115.94,76.71L116.43,86.9L116.55,86.42L116.68,70.84L116.8,71.44L116.92,76.77L117.17,73.97L117.29,88.92L117.66,85.55L117.78,77.85L118.03,86.5L118.15,73.38L118.52,81.79L118.65,71.89L118.89,90.54L119.38,84.31L119.51,76.08L120.12,92.86L120.37,83.72L120.49,84.7L120.74,78.96L121.11,87.09L121.35,81.07L121.48,93.75L121.97,96.32L122.09,84.36L122.22,97.97L122.34,81.86L122.58,100L122.95,93.81L123.08,89.97L124.06,106.73L124.18,103.62L124.55,89.25L124.92,94.68L125.05,100.98L125.54,98.22L125.78,116.17L125.91,102.93L126.03,101.79L126.15,86.73L126.65,115.43L126.89,115.23L127.02,100.2L127.14,93.62L127.38,116.43L127.51,94.86L127.63,108.28L128.49,120.49L128.62,113.12L128.86,104.75L129.35,125.86L129.48,119.82L129.85,96.6L130.09,109.29L130.22,117.15L130.46,118.09L130.83,109.57L130.95,122.23L131.08,121.39L131.2,125.74L131.32,111.49L131.82,114.45L131.94,129.32L132.68,111.79L132.8,130.88L133.17,116.71L133.42,127.2L133.54,132.09L133.91,133.26L134.4,112.46L134.52,126.01L134.65,125.34L134.77,117.75L135.02,125L135.14,114.25L136.37,144.63L136.49,130.59L137.11,117.45L137.23,133.03L137.35,135.49L137.6,128.99L137.72,122.09L137.85,135L138.46,126.98L138.58,130.97L138.71,137.09L138.83,114.81L139.08,125.45L139.2,119.07L140.06,133.85L140.18,127.86L140.31,123.15L140.43,137.76L140.68,127.43L140.8,138.69L140.92,116.04L141.54,127.73L141.66,123.04L142.52,138.57L142.65,137.21L143.02,138.87L143.63,122.92L143.75,141.67L144,129.54L144.25,141.91L144.49,134.92L144.62,135.73L144.86,139.29L145.11,128.36L145.23,134.12L145.35,143.9L146.34,123.01L146.46,144.09L147.2,121.81L147.32,135.93L147.45,144.65L147.94,131.23L148.06,140.39L148.18,137.61L148.55,133.09L148.68,139.57L148.92,137.47L149.05,139.38L149.54,140.65L149.66,123.52L149.78,135.04L149.91,142.37L150.28,132.45L150.65,142.45L150.77,145.88L150.89,148.21L151.02,144.83L151.14,129.16L151.38,129.12L151.75,141.48L151.88,133.65L152,136.11L152.12,137.18L152.25,148.56L152.37,131.34L152.98,142.41L153.11,147.3L153.6,127.39L153.85,130.98L153.97,142.93L154.46,150.04L154.71,134.31L154.83,134.37L154.95,140.84L155.08,134.66L155.45,144.37L155.57,136.62L155.69,142.51L155.82,144.82L155.94,132.05L156.8,147.31L156.92,149.27L157.17,150.48L157.54,127.98L157.66,147.05L157.78,142.95L157.91,127.27L158.28,148.66L158.4,138.27L158.52,146.07L158.77,149.21L158.89,131.95L159.63,147.22L159.75,137.35L160,143.75L160.12,146.37L160.37,154.31L160.86,132.88L160.98,146.68L161.11,138.11L161.23,151.31L161.72,143.92L161.85,152.86L162.09,139.69L162.34,142.05L162.46,152.81L163.2,136.42L163.32,149.82L163.57,140.47L163.69,157.64L163.82,139.54L164.43,149.46L164.55,144.45L164.68,155.11L164.92,143.34L165.17,147.28L165.29,141.93L165.66,161.77L165.78,135.27L166.03,147.93L166.15,151.27L166.28,150.72L166.4,150.91L166.52,140.11L166.89,157.28L167.14,139.74L167.26,137.48L167.38,138.68L167.51,151.31L167.75,138.08L167.88,159.93L168.25,155.45L168.37,154.78L168.74,160.68L168.98,145.97L169.11,153.9L169.23,150.64L169.35,164.94L169.85,146.36L169.97,145.6L170.09,163.02L170.71,153.63L170.83,158.14L171.2,141.86L171.45,159.64L171.57,154.6L171.69,153.35L171.82,145.19L172.06,162.03L172.31,159.5L172.43,158.37L172.55,161.55L172.68,158.18L172.8,160.99L172.92,148.61L173.42,166.81L173.66,150.04L173.78,145.87L174.89,172.18L175.02,147.64L175.51,170.98L175.88,160.45L176,165.87L176.25,184.82L176.37,162.96L176.62,176.86L176.74,165.67L176.98,175.24L177.11,180.13L177.48,158.21L177.85,165.9L177.97,162.45L178.22,188.72L178.71,175.52L178.83,167.98L179.32,178.51L179.69,175.73L179.82,176.8L179.94,179.17L180.06,174.43L180.18,176.22L180.31,162.95L180.55,190.3L181.17,179.76L181.29,180.51L181.54,173.59L181.91,194.26L182.03,177.65L182.15,176.26L182.28,190.87L182.77,183.42L182.89,198.71L183.02,181.6L183.63,187.51L183.75,185.74L183.88,185.21L184,196.6L184.62,179.59L184.74,202.41L184.98,204.22L185.48,183.16L185.6,187.29L185.72,193.76L185.97,190.21L186.22,191.42L186.34,202.48L186.71,208.95L186.95,197.66L187.08,203.37L187.2,199.51L187.94,210.82L188.06,206.3L188.31,203.03L188.55,210.77L188.68,216.75L189.17,201.08L189.29,215.69L189.42,227.01L189.91,229.25L190.15,201.37L190.28,222.95L190.89,208.74L191.02,226.06L191.14,213.88L191.51,229.6L191.75,223.4L191.88,238.85L192.62,225.55L192.74,235.8L192.86,238.21L193.11,230.38L193.23,249.68L193.48,234.05L193.85,257.49L193.97,247.31L194.09,253.64L194.34,239.55L194.95,240.51L195.08,256.55L195.45,263.03L195.57,249.4L195.69,261.01L195.82,259.36L196.06,248.36L196.31,259.13L196.43,263.97L196.92,255.96L197.05,267.54L197.17,268.67L197.54,262.63L197.66,268.89L197.78,263.37L197.91,271.63L198.4,261.5L198.52,287.62L199.26,272.67L199.38,273.79L199.51,280.44L199.63,274.13L199.75,292.1L199.88,277.49L200,299.95L200.86,282.49L200.98,282.81L201.23,299.26L201.72,295.94L201.85,290.28L201.97,291L202.09,287.98L202.22,294.49L202.71,301.65L202.83,286.64L202.95,293.72L203.08,292.9L203.32,290.72L203.82,302.15L203.94,291.45L204.18,288.05L204.55,303.71L204.68,293.45L204.8,290.12L204.92,289.28L205.05,289.4L205.17,298.35L205.42,300.63L205.54,279.88L206.03,280.63L206.15,279.94L206.65,296.84L206.89,289.66L207.02,270.35L207.14,286.44L207.51,269.38L207.75,276.03L207.88,271.68L208,275.88L208.12,272.12L208.25,258L208.62,239.77L209.11,246.1L209.23,254.23L210.22,203.69L210.58,212.14L210.71,215.82L212.06,147.13L212.18,153.87L212.31,152.67L212.43,159.93L212.8,141.06L212.92,121.18L213.05,129.84L213.42,114.22L213.54,110.12L213.66,120.7L214.03,91.31L214.15,89.32L214.28,89.65L214.4,75.29L214.65,79.6L214.77,68.67L214.89,75.33L215.02,62.47L215.38,67.19L215.51,53.44L215.63,63.61L215.75,34.64L215.88,49.61L216.49,41.6L216.62,34.3L216.74,42.56L217.11,26L217.23,28.08L217.35,16.54L217.48,34.53L218.09,32.96L218.22,31.31L218.34,34.54L218.46,24.75L218.58,19.96L218.83,41.37L219.08,23.91L219.2,26.99L219.57,24.78L219.94,35.62L220.06,35.56L220.18,31.53L220.31,23.14L220.68,40.38L220.8,31.16L220.92,37.04L221.05,36.68L221.17,29.53L221.54,59.6L222.03,48.13L222.15,48.06L222.28,43.87L222.4,60.67L222.52,55.9L222.65,58.41L222.77,55.22L222.89,67.22L223.14,63.97L223.26,70.37L223.51,67.13L223.63,80.3L224,76.88L224.12,66.53L225.11,100.63L225.23,96.91L225.35,97.26L225.6,89.23L225.72,103.98L225.97,102.01L226.09,113L226.46,100.44L226.58,109.62L226.71,115.64L227.08,135.15L227.32,126.28L227.45,114.56L228.18,136.69L228.31,129.36L228.43,130.31L228.55,131.16L228.68,126.81L228.8,138.58L229.17,139.64L229.42,131.19L229.54,145.78L229.91,138.79L230.15,155.23L230.28,143.61L230.4,159.23L230.65,141.77L231.02,153.53L231.14,148.78L232,174.6L232.12,161.47L232.74,180.71L232.86,169.95L232.98,171.44L233.11,162.52L233.72,182.51L234.09,179.07L234.22,171.02L234.83,193.38L234.95,187.8L235.08,177.63L235.32,171.72L235.45,177.8L235.57,190.38L235.69,171.37L235.82,191.79L236.31,190.56L236.43,185.54L236.92,203.38L237.05,200.32L237.17,187.46L237.78,205.66L237.91,192.48L238.03,197.32L238.28,205.36L238.4,186.04L238.65,191.71L238.77,192.27L239.75,218.63L239.88,199.08L240.86,222.32L240.98,218.54L241.23,206.2L241.6,215.77L241.72,217.12L241.85,211.82L241.97,232.53L242.34,216.96L242.46,225.21L242.58,217.01L243.08,226.4L243.2,226.04L243.57,214.36L243.94,225.91L244.06,229.48L244.18,231.73L244.31,223.47L244.43,229.48L244.55,210.5L245.17,238.52L245.42,233.83L245.54,238.16L246.15,224.61L246.4,226.05L246.52,230.12L246.77,227.31L247.26,244.57L247.38,232.71L247.51,235.29L247.75,226.56L247.88,231.96L248,248.12L248.62,226.89L248.74,230.86L248.86,235.97L249.23,224.46L249.35,237.58L249.72,227.92L249.85,237.95L250.09,224.42L250.46,237.97L250.58,234.09L250.71,234.69L250.95,221.68L251.2,237.21L251.32,232.21L251.45,243.17L251.82,208.85L252.31,220.83L252.43,218L252.92,213.58L253.17,226.11L253.29,214.89L253.54,216.44L253.66,209.41L253.78,221.26L254.4,197.91L254.65,204.77L254.77,194.75L255.14,214.22L255.38,191.69L255.51,193.68L255.63,179.05L255.75,203.36L256.25,189.16L256.37,186.18L256.98,164.67L257.23,175.64L257.35,177.47L257.48,177.6L257.6,164.88L257.85,166.69L258.34,146.38L258.46,162.89L259.2,126.7L259.32,128.59L259.45,148.08L259.57,146.49L259.69,129.73L259.82,131.93L259.94,131.14L260.06,114.58L260.31,129.13L260.68,106.9L260.8,123.09L260.92,109.69L261.05,116.05L261.42,101.91L261.54,104.62L261.66,103.46L261.91,108.4L262.03,89.2L262.15,104.79L262.65,97.36L262.77,87.48L262.89,80.85L263.14,88.71L263.38,86.82L263.51,88.87L263.88,73.84L264.25,77.82L264.37,80.08L264.49,79.28L264.62,68.06L264.74,77.83L264.98,67.72L265.23,71.25L265.35,61.67L265.6,80.82L266.09,61.44L266.22,60.53L266.95,79.57L267.08,61.14L267.2,62.09L267.32,72.5L267.57,70.48L267.69,64.2L268.06,83.24L268.31,79.11L268.43,59.73L269.05,85.16L269.17,70.3L269.29,73.16L269.42,84.13L269.54,59.47L270.03,80.83L270.15,77.05L270.4,84.47L270.65,75.75L270.77,78.88L270.89,74.61L271.02,68.15L271.26,81.58L271.38,88.84L271.51,88.22L271.63,83.18L271.88,93.1L272.37,65.45L272.49,86.05L272.62,70.74L273.11,94.28L273.23,85.45L273.35,86.02L273.48,105.52L274.22,104.44L274.34,100.05L274.71,111.86L274.95,89.56L275.08,101.42L275.94,107.83L276.06,103.42L276.31,96.13L276.55,112.82L276.8,107.08L276.92,101.13L277.54,123.13L277.78,115.56L277.91,103.61L278.15,98.09L278.28,128.99L278.65,122.37L278.77,111.26L279.38,108.52L279.51,125.28L279.63,115.79L279.75,115.31L279.88,122.41L280,118.04L280.25,127.59L280.49,126.87L280.62,123.18L280.86,121.53L280.98,125.58L281.11,123.18L281.23,133.96L281.35,139.96L281.85,119.53L282.09,130.82L282.22,134.46L282.71,142.51L282.83,121.64L282.95,135.24L283.08,135.5L283.32,133.95L283.45,129.22L283.69,130.35L283.82,141.6L283.94,121.19L284.55,144.25L284.68,133.9L284.8,142.58L284.92,126.37L285.29,129.08L285.42,127.88L286.15,146.5L286.28,140.96L286.52,130.83L286.65,147.14L287.02,132.18L287.14,146.42L287.51,130.49L287.63,136.72L287.75,152.48L288.62,135.77L288.74,144.92L288.86,145.39L288.98,143.5L289.11,138.5L289.48,137.34L289.85,150.61L289.97,140.27L290.58,155.33L290.71,152.78L290.83,145.31L291.08,132.78L291.32,151.44L291.45,142.79L291.57,153.87L292.31,139.37L292.43,147.41L292.55,149.89L292.8,154.32L292.92,147.1L293.05,163.44L293.17,144.71L293.78,154.37L293.91,147.84L294.15,146.87L294.65,162.01L294.77,145.8L295.38,170.51L295.51,144.52L295.75,163.3L296.25,144.29L296.37,156.17L296.49,157.48L296.86,161.05L297.11,138.34L297.23,155.78L297.35,165.76L297.72,167.05L297.85,156.34L297.97,173.51L298.09,153.89L298.22,173.59L298.71,170.23L298.83,166.22L299.08,157.61L299.2,174.66L299.45,166.9L299.57,154.39L300.18,180.44L300.31,163.03L300.43,166.3L300.68,161.71L300.8,179.14L301.05,157.26L301.54,173.41L301.66,164.5L301.91,175.72L302.28,173.14L302.4,163.82L303.02,178.02L303.14,168.69L303.26,164.57L303.38,191.27L303.63,162.93L304,177.43L304.12,180.11L304.74,164.01L304.86,178.31L304.98,187.83L305.72,170.11L305.85,181.5L305.97,185.44L306.09,174.58L306.34,185.16L306.46,173.97L306.95,187.28L307.32,184.13L307.45,187.05L307.69,185.52L307.82,192.8L308.06,193.33L308.43,176.26L308.55,196.74L308.68,177.18L309.29,183.98L309.42,188.03L309.78,194.84L310.28,191.46L310.4,192.25L310.52,200.78L310.77,189.39L311.02,196.57L311.14,191.21L311.51,185.55L311.63,194.53L311.75,186.43L312.12,204.45L312.62,196.03L312.74,190.04L313.6,214.44L313.72,190.68L314.58,215.68L314.71,199.83L314.95,222.94L315.45,203.01L315.57,191.36L316.68,231.27L316.8,215.17L316.92,213.9L317.05,230.12L317.54,204.16L317.91,212.28L318.03,221.12L318.28,204.52L318.65,218.98L318.77,215.36L318.89,208.96L319.02,220.21L319.26,219.16L319.38,224.53L319.51,224.85L319.63,220.08L320,211.83L320.12,236.77L320.25,214.13L320.62,232.37L320.86,213.61L320.98,221.75L321.11,222.04L321.23,217.56L321.35,237.17L321.72,222.14L321.85,227.65L321.97,216.92L322.22,236.14L322.58,223.59L322.71,222.13L323.57,235.68L323.69,226.95L323.82,229.31L324.18,224.25L324.31,226.59L324.43,218.72L324.55,219.14L324.68,232.94L325.05,218.05L325.54,218.71L325.66,221.9L325.78,216L325.91,227.82L326.03,220.45L326.15,240L327.26,206.39L327.38,213.92L327.51,216.37L327.75,212.97L327.88,224.7L328.12,215.7L328.25,206.68L328.62,220.75L328.74,197.12L328.98,211.93L329.11,213.23L329.35,195.45L329.48,220.15L329.85,209.51L329.97,210.26L330.34,185.59L330.71,190.75L330.83,195.35L331.08,176.81L331.32,196.51L331.57,187.82L331.69,188.35L332.68,164.02L332.8,175.48L333.05,152.71L333.17,169.23L333.29,170.35L334.15,139.58L334.28,160.43L335.14,132.2L335.26,141.67L336,120.11L336.12,128.41L336.25,126.22L336.37,125.24L336.49,129.62L336.62,118.99L336.86,106.94L336.98,119.84L337.11,111.25L337.23,119.54L337.6,95.29L338.09,96.4L338.22,100.76L338.34,113.41L338.71,97.65L338.83,99.98L338.95,89.23L339.08,80.9L339.32,94.67L339.69,87.63L339.82,89.88L340.43,94.43L340.8,72.19L340.92,90.79L341.78,73.96L341.91,77.85L342.03,77.02L342.15,69.52L342.77,83.31L342.89,71.09L343.02,63.64L343.14,79.6L343.38,60.47L343.75,69.19L343.88,68.84L344.25,66.63L344.62,85.58L344.74,75.44L344.86,67L345.11,77.8L345.35,74.6L345.48,80.99L345.85,90.7L346.22,71.5L346.34,93.76L346.95,78.84L347.08,83.34L347.2,83.06L347.45,78.22L347.57,88.67L347.69,82.63L347.82,75.3L348.06,99.19L348.55,92.11L348.68,88.17L349.05,99.93L349.17,87.97L349.42,96.95L349.66,92.82L349.78,89.7L349.91,100.14L350.4,99.41L350.52,78.05L351.14,110.81L351.51,107.45L351.63,90.54L352.25,112.51L352.37,104.48L352.49,96.73L353.23,114.63L353.35,114.07L353.48,108.06L354.09,107.18L354.22,113.63L354.34,105.17L354.71,119.24L355.08,105.71L355.2,109.02L355.57,108.26L355.82,133.57L355.94,117.64L356.06,119.69L356.18,122.14L356.31,118.18L356.43,118.91L356.55,112.03L357.42,122.91L357.54,118.9L357.66,117.3L357.78,128.31L357.91,138.4L358.15,113.72L358.28,130.9L358.4,115.58L358.77,113.43L358.89,134.28L359.26,128.89L359.38,117.31L359.51,114.79L359.63,123.48L359.75,118.2L359.88,129.83L360.12,115.44L360.49,123.02L360.62,134.49L361.11,136.7L361.23,124.18L361.6,125.05L361.72,129.05L361.85,113.91L361.97,140.67L362.34,135.28L362.46,130.75L362.95,129.67L363.32,141.91L363.45,129.74L364.31,148.73L364.43,141.62L365.17,125.75L365.29,132.69L365.42,137.69L365.54,118.82L366.15,140.38L366.28,131.62L366.4,142.06L366.77,123.94L367.02,136.96L367.14,137.64L367.26,140.06L367.38,127.2L367.51,141.34L368.12,131.99L368.25,138.28L368.62,146.88L368.74,126.5L369.23,149.77L369.48,134.77L369.6,132.25L370.22,149.51L370.46,147.21L370.58,140.33L370.95,133.66L371.2,138.16L371.32,144.22L371.57,149.01L371.94,135.36L372.06,151.78L372.68,154.09L373.05,128.08L373.17,141.8L373.29,141.47L373.42,147.07L373.54,134.8L373.78,160.03L374.15,147.24L374.28,149.41L374.65,138.32L374.77,163.98L374.89,146.55L375.02,141.73L375.26,140.63L375.63,155.31L375.75,145.97L375.88,147.57L376,147.41L376.12,143.68L376.25,138.9L376.37,152.87L376.62,139.97L376.74,149.24L377.23,140.85L377.48,158.43L377.6,143.08L378.22,157.57L378.58,156.03L378.71,153.18L378.83,150.32L378.95,159.8L379.2,155.37L379.32,156.86L379.69,137.84L379.82,161.34L380.06,157.69L380.18,161.87L380.68,146.04L380.8,159.62L380.92,160.73L381.29,151.5L381.66,158.89L381.78,165.99L382.28,152.93L382.52,155.75L382.65,161.26L383.38,151.72L383.51,175.48L384.37,151.01L384.49,158.49L384.86,166.22L384.98,166.13L385.11,158.18L385.23,146.89L385.72,166.04L385.85,164.78L385.97,156.79L386.22,182.39L386.46,165.63L386.58,166.51L386.83,160.3L387.2,163.87L387.32,174.44L387.69,161.63L388.18,162.3L388.31,161.61L388.43,162.01L388.55,165.17L388.68,175.15L388.8,163.56L389.29,165.51L389.42,171.09L389.66,175.56L389.78,161.84L389.91,163.76L390.03,174.5L390.15,158.71L390.28,176.47L390.65,169.14L390.77,179.45L390.89,182.12L391.02,165.73L391.26,180.69L391.51,165.37L391.75,172.23L391.88,163.73L392.62,192.2L392.74,176.37L392.86,168.73L393.6,192.1L393.72,180.76L393.85,186.26L394.09,174.5L394.22,178.86L394.34,173.58L394.58,189.76L394.95,188.88L395.08,177.75L395.57,193.45L395.94,189.82L396.06,191.11L396.43,196.42L396.55,180.68L396.8,181.78L396.92,197.26L397.29,199.01L397.42,191.65L397.54,183.4L397.91,205.43L398.4,198.15L398.52,189.38L399.02,206.75L399.51,206.13L399.63,192.83L400.62,216.88L400.74,210.66L400.98,214L401.48,200.36L401.6,214.56L401.72,213.42L401.85,220.09L401.97,204.33L402.58,218.23L402.71,220.01L402.83,204.79L403.32,222.89L403.45,208.53L403.57,216.86L403.69,215.93L403.82,222.28L404.31,226.65L404.43,215.79L404.55,216.86L404.68,230.71L404.8,231.35L404.92,226.76L405.42,219.6L405.66,241.68L405.78,234.42L405.91,226.83L406.28,225.45L406.77,233.28L406.89,229.53L407.26,248.09L407.38,237.5L407.51,235.37L407.88,228.9L408.12,241.98L408.25,259.31L408.98,239.6L409.11,245.74L409.35,239.65L409.48,256.36L409.6,235.7L410.22,238.89L410.34,246.05L410.46,259.46L410.95,239.8L411.08,243.91L411.82,260.4L411.94,247.42L412.43,242.03L412.68,257.77L412.8,255.51L412.92,252.15L413.17,258.45L413.42,250.35L413.54,247.3L413.78,261.62L413.91,246.59L414.03,239.65L414.28,255.26L414.77,246.99L414.89,247.4L415.02,243.81L415.26,252.11L415.51,250.28L415.63,251.59L415.88,255.42L416,243.99L416.98,256.25L417.11,241.86L417.35,246.33L417.6,232.28L417.85,239.93L417.97,240.03L418.09,245.24L418.22,235.75L418.34,243.77L418.46,213.87L418.58,236.45L419.2,218.25L419.32,231.62L419.82,204.12L419.94,205.89L420.06,195.75L420.18,208.39L420.8,202.85L420.92,191.99L421.05,193.29L421.17,182.72L421.29,192.07L421.66,178.34L421.78,168.93L421.91,174.29L422.4,163.62L422.52,149.86L422.65,161.53L423.02,143.67L423.26,149.8L423.38,148.15L423.63,144.57L423.75,150.74L423.88,135.9L424.12,126.62L424.25,118.66L424.37,140.16L424.86,113.82L424.98,103.06L425.11,121.73L425.48,97.28L425.72,108.58L425.85,88.7L425.97,103.17L426.46,75.36L426.58,94.52L426.71,82.98L427.2,72.99L427.32,84.72L428.18,64.96L428.31,75.82L429.05,53.63L429.17,62.35L429.29,69.42L429.54,65.27L429.66,41.25L429.91,58.55L430.52,58.49L430.65,63.31L430.89,47.97L431.38,52.17L431.51,62.53L431.75,63.32L432,49.01L432.49,53.08L432.62,60.39L432.74,52.94L432.86,70.22L433.23,59.13L433.35,68.85L433.6,63.38L433.97,72.14L434.09,66.63L434.22,77.72L434.46,63.7L434.83,80.45L434.95,75.08L435.08,76.21L435.2,64.1L435.45,77.38L435.82,66.93L435.94,81.9L436.18,72.31L436.43,83.97L436.55,91.03L436.68,81.08L437.17,91.55L437.29,85.54L437.42,96.04L437.54,104.61L437.91,80.34L438.03,79.49L438.89,109.57L439.02,98.35L439.75,123.16L439.88,118.88L440,109.05L440.12,106.78L440.25,122.14L440.62,109.74L440.98,115.34L441.11,120.2L441.72,109.64L441.85,120.13L441.97,117.98L442.09,118.51L442.22,128.73L442.34,131.71L442.46,121.45L442.58,118.85L443.32,134.44L443.45,124.97L443.82,118.17L444.18,139.34L444.31,125.12L445.17,152.93L445.29,145.56L445.78,127.19L445.91,152.86L446.03,144.58L446.15,135.42L446.28,151.19L446.65,134.36L446.89,147.6L447.02,140.26L447.14,140.63L447.26,137.54L447.63,155.12L447.88,137.44L448,151.06L448.12,131.96L449.11,166.25L449.23,150.81L449.35,136.29L449.72,156.55L449.97,151.45L450.09,152.92L450.22,147.56L450.34,164.31L450.58,148.37L450.71,161.34L450.83,165.47L450.95,148.3L451.08,142.73L451.45,164.81L451.94,158.93L452.06,164.94L452.55,152.12L452.8,155.01L452.92,163.24L453.17,171.8L453.42,156.84L453.54,171.63L453.78,176.77L454.03,161.15L454.28,169.26L454.4,168.37L454.77,160.33L454.89,174.35L455.02,162.37L455.26,177.59L455.63,173.96L455.75,187.79L455.88,156.2L456.49,174.29L456.62,164.06L457.23,178.1L457.35,174.08L457.48,171.67L457.97,170.69L458.22,186.89L458.34,180.39L458.46,175.56L458.58,166.74L458.71,186.34L459.2,172.96L459.32,173.47L459.45,188.34L460.06,188.08L460.18,181.74L460.31,177.97L460.43,188.81L460.68,186.8L460.8,202.1L461.05,181.52L461.54,189.61L461.66,196.84L462.03,198.07L462.65,186.94L462.77,189.6L463.02,184.86L463.38,192.56L463.51,209.99L463.88,190.5L464,211.01L464.25,194.27L464.37,197.04L464.74,204.12L464.98,188.89L465.11,192.68L465.23,204.21L465.48,206.43L465.6,197.86L465.97,198.77L466.09,203.38L466.22,191.64L466.46,207.92L466.71,202.11L466.83,219.01L467.45,205.29L467.57,206.02L467.69,212.01L467.94,200L468.31,211.06L468.43,223.16L468.68,200.7L469.29,204.13L469.42,214.82L469.54,202.75L469.78,220.55L470.03,208.88L470.15,219.06L470.4,206.79L470.52,217.2L470.77,211.93L471.02,221.34L471.14,205L472,224.22L472.12,218.73L472.25,216.33L472.37,232.88L472.98,213.9L473.11,220.25L473.23,232.71L473.6,212.22L474.09,212.86L474.22,233.81L474.71,211.44L474.95,213.51L475.08,226.82L475.32,218.58L475.45,236.75L475.82,224.89L475.94,221.36L476.06,227.14L476.18,210.21L476.55,224.45L476.68,217.45L476.8,222L477.29,219.81L477.42,210.9L477.66,209.25L478.03,229.08L478.15,214.58L478.28,213.57L478.4,216.03L478.52,224.69L479.38,197.23L479.51,194.78L479.88,192.64L480.25,214.96L480.37,214.1L480.49,206.2L481.48,184.55L481.6,202.01L481.97,176.89L482.22,186.05L482.34,188.77L482.58,189.24L483.45,165.61L483.57,166.09L483.69,182.31L484.43,159.28L484.55,163.52L484.68,168.52L485.54,148.07L485.66,160.74L485.91,125.99L486.4,137.19L486.52,147.53L486.77,142.19L486.89,129.29L487.14,137.29L487.51,125.82L487.63,131.56L487.75,119.83L488.37,119.52L488.49,129.4L488.62,109.71L488.98,126.69L489.11,113.13L489.23,105.52L489.48,111.68L490.09,88.24L490.22,107.22L490.34,81.11L490.95,99.37L491.08,100.33L491.32,102.47L491.82,80.11L491.94,87.44L492.06,83.68L492.18,84.2L492.31,75.74L492.43,96.96L493.05,84.54L493.17,84.62L493.42,73.74L493.66,78L493.78,88.35L494.03,72.73L494.4,90.84L494.52,81.37L494.65,86.52L495.14,70.93L495.38,76.17L495.51,82.51L495.75,73.22L495.88,79.11L496,80.06L496.12,91.62L496.37,78.81L496.62,85.37L496.74,68.07L497.23,95.34L497.85,91.57L497.97,82.94L498.09,84.86L498.22,84.55L498.34,73.14L499.08,93.23L499.2,86.66L499.32,79.54L499.69,92.86L499.82,80.68L499.94,92.48L500.18,102.38L500.68,77.48L500.8,88.45L500.92,82.86L501.29,100.04L501.42,98.37L501.54,102.62L501.91,89.81L502.03,91.45L502.4,105.02L502.89,101.17L503.02,100.01L503.14,107.29L503.51,90.86L503.63,93.99L503.75,89.24L503.88,110.2L504,100.04" style="vector-effect: non-scaling-stroke; fill: none; stroke: rgb(239, 85, 59); stroke-opacity: 1; stroke-width: 2px; opacity: 1;"/></g><g class="points"/><g class="text"/></g></g></g><g class="overplot"/><path class="xlines-above crisp" d="M0,0" style="fill: none;"/><path class="ylines-above crisp" d="M0,0" style="fill: none;"/><g class="overlines-above"/><g class="xaxislayer-above"><g class="xtick"><text text-anchor="middle" x="0" y="433" transform="translate(80,0)" style="font-family: 'Open Sans', verdana, arial, sans-serif; font-size: 12px; fill: rgb(42, 63, 95); fill-opacity: 1; white-space: pre; opacity: 1;">0</text></g><g class="xtick"><text text-anchor="middle" x="0" y="433" style="font-family: 'Open Sans', verdana, arial, sans-serif; font-size: 12px; fill: rgb(42, 63, 95); fill-opacity: 1; white-space: pre; opacity: 1;" transform="translate(203.07999999999998,0)">1000</text></g><g class="xtick"><text text-anchor="middle" x="0" y="433" style="font-family: 'Open Sans', verdana, arial, sans-serif; font-size: 12px; fill: rgb(42, 63, 95); fill-opacity: 1; white-space: pre; opacity: 1;" transform="translate(326.15,0)">2000</text></g><g class="xtick"><text text-anchor="middle" x="0" y="433" style="font-family: 'Open Sans', verdana, arial, sans-serif; font-size: 12px; fill: rgb(42, 63, 95); fill-opacity: 1; white-space: pre; opacity: 1;" transform="translate(449.23,0)">3000</text></g><g class="xtick"><text text-anchor="middle" x="0" y="433" style="font-family: 'Open Sans', verdana, arial, sans-serif; font-size: 12px; fill: rgb(42, 63, 95); fill-opacity: 1; white-space: pre; opacity: 1;" transform="translate(572.31,0)">4000</text></g></g><g class="yaxislayer-above"><g class="ytick"><text text-anchor="end" x="79" y="4.199999999999999" transform="translate(0,395.88)" style="font-family: 'Open Sans', verdana, arial, sans-serif; font-size: 12px; fill: rgb(42, 63, 95); fill-opacity: 1; white-space: pre; opacity: 1;">15</text></g><g class="ytick"><text text-anchor="end" x="79" y="4.199999999999999" style="font-family: 'Open Sans', verdana, arial, sans-serif; font-size: 12px; fill: rgb(42, 63, 95); fill-opacity: 1; white-space: pre; opacity: 1;" transform="translate(0,341.28)">10</text></g><g class="ytick"><text text-anchor="end" x="79" y="4.199999999999999" style="font-family: 'Open Sans', verdana, arial, sans-serif; font-size: 12px; fill: rgb(42, 63, 95); fill-opacity: 1; white-space: pre; opacity: 1;" transform="translate(0,286.69)">5</text></g><g class="ytick"><text text-anchor="end" x="79" y="4.199999999999999" style="font-family: 'Open Sans', verdana, arial, sans-serif; font-size: 12px; fill: rgb(42, 63, 95); fill-opacity: 1; white-space: pre; opacity: 1;" transform="translate(0,232.09)">0</text></g><g class="ytick"><text text-anchor="end" x="79" y="4.199999999999999" style="font-family: 'Open Sans', verdana, arial, sans-serif; font-size: 12px; fill: rgb(42, 63, 95); fill-opacity: 1; white-space: pre; opacity: 1;" transform="translate(0,177.49)">5</text></g><g class="ytick"><text text-anchor="end" x="79" y="4.199999999999999" style="font-family: 'Open Sans', verdana, arial, sans-serif; font-size: 12px; fill: rgb(42, 63, 95); fill-opacity: 1; white-space: pre; opacity: 1;" transform="translate(0,122.89)">10</text></g></g><g class="overaxes-above"/></g></g><g class="polarlayer"/><g class="smithlayer"/><g class="ternarylayer"/><g class="geolayer"/><g class="funnelarealayer"/><g class="pielayer"/><g class="iciclelayer"/><g class="treemaplayer"/><g class="sunburstlayer"/><g class="glimages"/><defs id="topdefs-861f64"><g class="clips"/><clipPath id="legend861f64"><rect width="94" height="48" x="0" y="0"/></clipPath></defs><g class="layer-above"><g class="imagelayer"/><g class="shapelayer"/></g><g class="infolayer"><g class="legend" pointer-events="all" transform="translate(594.08,100)"><rect class="bg" shape-rendering="crispEdges" width="94" height="48" x="0" y="0" style="stroke: rgb(68, 68, 68); stroke-opacity: 1; fill: rgb(255, 255, 255); fill-opacity: 1; stroke-width: 0px;"/><g class="scrollbox" transform="" clip-path="url(#legend861f64)"><g class="groups"><g class="traces" transform="translate(0,14.5)" style="opacity: 1;"><text class="legendtext" text-anchor="start" x="40" y="4.680000000000001" style="font-family: 'Open Sans', verdana, arial, sans-serif; font-size: 12px; fill: rgb(42, 63, 95); fill-opacity: 1; white-space: pre;">Stimulus</text><g class="layers" style="opacity: 1;"><g class="legendfill"/><g class="legendlines"><path class="js-line" d="M5,0h30" style="fill: none; stroke: rgb(99, 110, 250); stroke-opacity: 1; stroke-width: 2px;"/></g><g class="legendsymbols"><g class="legendpoints"/></g></g><rect class="legendtoggle" x="0" y="-9.5" width="88.796875" height="19" style="fill: rgb(0, 0, 0); fill-opacity: 0;"/></g><g class="traces" transform="translate(0,33.5)" style="opacity: 1;"><text class="legendtext" text-anchor="start" x="40" y="4.680000000000001" style="font-family: 'Open Sans', verdana, arial, sans-serif; font-size: 12px; fill: rgb(42, 63, 95); fill-opacity: 1; white-space: pre;">Percept</text><g class="layers" style="opacity: 1;"><g class="legendfill"/><g class="legendlines"><path class="js-line" d="M5,0h30" style="fill: none; stroke: rgb(239, 85, 59); stroke-opacity: 1; stroke-width: 2px;"/></g><g class="legendsymbols"><g class="legendpoints"/></g></g><rect class="legendtoggle" x="0" y="-9.5" width="88.796875" height="19" style="fill: rgb(0, 0, 0); fill-opacity: 0;"/></g></g></g><rect class="scrollbar" rx="20" ry="3" width="0" height="0" x="0" y="0" style="fill: rgb(128, 139, 164); fill-opacity: 1;"/></g><g class="g-gtitle"/><g class="g-xtitle"/><g class="g-ytitle"/></g></svg>