<svg class="main-svg" xmlns="http://www.w3.org/2000/svg" xmlns:xlink="http://www.w3.org/1999/xlink" width="900" height="500" style="" viewBox="0 0 900 500"><rect x="0" y="0" width="900" height="500" style="fill: rgb(255, 255, 255); fill-opacity: 1;"/><defs id="defs-762118"><g class="clips"><clipPath id="clip762118xyplot" class="plotclip"><rect width="740" height="320"/></clipPath><clipPath class="axesclip" id="clip762118x"><rect x="80" y="0" width="740" height="500"/></clipPath><clipPath class="axesclip" id="clip762118y"><rect x="0" y="100" width="900" height="320"/></clipPath><clipPath class="axesclip" id="clip762118xy"><rect x="80" y="100" width="740" height="320"/></clipPath></g><g class="gradients"/><g class="patterns"/></defs><g class="bglayer"/><g class="layer-below"><g class="imagelayer"/><g class="shapelayer"/></g><g class="cartesianlayer"><g class="subplot xy"><g class="layer-subplot"><g class="shapelayer"/><g class="imagelayer"/></g><g class="gridlayer"><g class="x"><path class="xgrid crisp" transform="translate(170.35,0)" d="M0,100v320" style="stroke: rgb(235, 240, 248); stroke-opacity: 1; stroke-width: 1px;"/><path class="xgrid crisp" transform="translate(260.71000000000004,0)" d="M0,100v320" style="stroke: rgb(235, 240, 248); stroke-opacity: 1; stroke-width: 1px;"/><path class="xgrid crisp" transform="translate(351.06,0)" d="M0,100v320" style="stroke: rgb(235, 240, 248); stroke-opacity: 1; stroke-width: 1px;"/><path class="xgrid crisp" transform="translate(441.42,0)" d="M0,100v320" style="stroke: rgb(235, 240, 248); stroke-opacity: 1; stroke-width: 1px;"/><path class="xgrid crisp" transform="translate(531.77,0)" d="M0,100v320" style="stroke: rgb(235, 240, 248); stroke-opacity: 1; stroke-width: 1px;"/><path class="xgrid crisp" transform="translate(622.12,0)" d="M0,100v320" style="stroke: rgb(235, 240, 248); stroke-opacity: 1; stroke-width: 1px;"/><path class="xgrid crisp" transform="translate(712.48,0)" d="M0,100v320" style="stroke: rgb(235, 240, 248); stroke-opacity: 1; stroke-width: 1px;"/><path class="xgrid crisp" transform="translate(802.83,0)" d="M0,100v320" style="stroke: rgb(235, 240, 248); stroke-opacity: 1; stroke-width: 1px;"/></g><g class="y"><path class="ygrid crisp" transform="translate(0,393.15)" d="M80,0h740" style="stroke: rgb(235, 240, 248); stroke-opacity: 1; stroke-width: 1px;"/><path class="ygrid crisp" transform="translate(0,345.84000000000003)" d="M80,0h740" style="stroke: rgb(235, 240, 248); stroke-opacity: 1; stroke-width: 1px;"/><path class="ygrid crisp" transform="translate(0,298.53)" d="M80,0h740" style="stroke: rgb(235, 240, 248); stroke-opacity: 1; stroke-width: 1px;"/><path class="ygrid crisp" transform="translate(0,203.91)" d="M80,0h740" style="stroke: rgb(235, 240, 248); stroke-opacity: 1; stroke-width: 1px;"/><path class="ygrid crisp" transform="translate(0,156.6)" d="M80,0h740" style="stroke: rgb(235, 240, 248); stroke-opacity: 1; stroke-width: 1px;"/><path class="ygrid crisp" transform="translate(0,109.28999999999999)" d="M80,0h740" style="stroke: rgb(235, 240, 248); stroke-opacity: 1; stroke-width: 1px;"/></g></g><g class="zerolinelayer"><path class="yzl zl crisp" transform="translate(0,251.22)" d="M80,0h740" style="stroke: rgb(235, 240, 248); stroke-opacity: 1; stroke-width: 2px;"/></g><path class="xlines-below"/><path class="ylines-below"/><g class="overlines-below"/><g class="xaxislayer-below"/><g class="yaxislayer-below"/><g class="overaxes-below"/><g class="plot" transform="translate(80,100)" clip-path="url(#clip762118xyplot)"><g class="scatterlayer mlayer"><g class="trace scatter trace19e18d" style="stroke-miterlimit: 2; opacity: 1;"><g class="fills"/><g class="errorbars"/><g class="lines"><path class="js-line" d="M0,158.79L7.23,156.78L7.41,156.74L18.97,155.56L19.16,155.55L36.32,156.24L36.5,156.26L47.35,158.21L47.53,158.25L56.38,161.46L56.56,161.54L67.4,167.78L67.58,167.88L73.91,170.41L74.09,170.43L78.07,170.18L78.25,170.13L82.76,168.1L82.95,168L97.22,159.98L97.4,159.91L104.27,158.03L104.45,158L111.32,157.21L111.5,157.21L121.8,157.36L121.98,157.38L131.56,158.64L131.74,158.68L140.59,160.9L140.77,160.95L160.83,167.24L161.01,167.26L166.61,166.84L166.79,166.8L173.48,164.57L173.66,164.49L191.91,157.96L192.09,157.92L200.41,156.38L200.59,156.35L212.15,155.18L212.33,155.17L242.33,154.22L242.51,154.22L254.98,154.27L255.16,154.27L272.33,155.01L272.51,155.03L282.81,156.34L282.99,156.37L290.94,158.44L291.12,158.5L297.45,161.37L297.63,161.48L303.77,165.73L303.95,165.88L313.53,172.61L313.71,172.67L316.78,172.91L316.96,172.87L320.03,171.64L320.21,171.53L324.73,168.07L324.91,167.91L333.59,161.58L333.77,161.49L339.01,159.41L339.19,159.36L345.51,158.38L345.69,158.37L353.1,158.72L353.28,158.74L362.5,160.92L362.68,160.98L382.74,168.56L382.92,168.57L387.08,168.33L387.26,168.29L392.86,166.3L393.04,166.21L411.11,158.55L411.29,158.5L419.97,156.86L420.15,156.84L429,156.11L429.18,156.1L453.04,156.7L453.22,156.72L467.67,159.05L467.85,159.09L480.32,163.27L480.5,163.35L493.33,167.7L493.51,167.73L499.48,167.38L499.66,167.34L505.44,165.32L505.62,165.24L522.07,158.66L522.25,158.61L532.37,156.56L532.55,156.53L551.16,155.17L551.34,155.16L581.16,155.78L581.34,155.8L592,157.14L592.18,157.17L601.22,159.43L601.4,159.49L609.53,162.98L609.71,163.07L623.08,169.74L623.26,169.78L627.24,169.92L627.42,169.89L631.76,168.42L631.94,168.33L650.91,158.85L651.09,158.8L659.4,157.25L659.58,157.23L670.25,156.85L670.43,156.86L680.55,157.61L680.73,157.63L691.03,159.5L691.21,159.55L700.06,162.26L700.24,162.33L716.15,167.21L716.33,167.23L721.93,166.83L722.11,166.79L728.98,164.51L729.16,164.43L740,160.08" style="vector-effect: non-scaling-stroke; fill: none; stroke: rgb(76, 120, 168); stroke-opacity: 1; stroke-width: 1px; opacity: 1; stroke-dasharray: 9px, 9px;"/></g><g class="points"/><g class="text"/></g><g class="trace scatter trace1a314b" style="stroke-miterlimit: 2; opacity: 1;"><g class="fills"/><g class="errorbars"/><g class="lines"><path class="js-line" d="M0,143.65L21.5,148.04L21.68,148.06L37.77,148.34L37.95,148.33L44.45,147.58L44.63,147.57L50.06,146.62L50.24,146.46L51.68,145.95L51.86,145.94L53.49,145.53L53.67,145.34L63.97,138.91L64.15,138.66L65.96,136.92L66.14,136.64L66.86,136.02L67.04,135.91L71.56,131.5L71.74,131.28L72.64,130.37L72.83,130.12L78.07,126.14L78.25,126.07L82.04,125.32L82.22,125.37L86.02,126.79L86.2,127.02L91.62,132.15L91.8,132.47L93.79,134.6L93.97,134.87L100.65,141.9L100.84,141.98L105.35,145.48L105.53,145.57L119.99,151.15L120.17,151.19L131.01,152.84L131.19,152.85L138.42,153.32L138.6,153.33L151.61,152.73L151.79,152.67L159.38,150.79L159.57,150.74L163.18,149.62L163.36,149.56L168.96,148.17L169.14,148.14L178.54,147.79L178.72,147.81L184.14,148.54L184.32,148.57L210.89,152.31L211.07,152.31L224.08,153.06L224.26,153.07L245.4,153.5L245.58,153.5L256.61,153.63L256.79,153.64L273.77,154.38L273.95,154.41L290.04,156.79L290.22,156.84L296.72,159.03L296.9,159.1L305.22,163.59L305.4,163.7L313.53,168.07L313.71,168.06L316.24,168.06L316.42,168.03L320.76,166.09L320.94,165.96L331.06,159.55L331.24,159.45L338.29,157.44L338.47,157.43L343.71,157.03L343.89,157.02L353.65,157.75L353.83,157.78L364.13,160.23L364.31,160.29L380.75,165.96L380.93,165.94L389.43,165.12L389.61,165.06L409.85,157.63L410.03,157.6L416.89,156.46L417.07,156.44L426.29,155.74L426.47,155.73L452.31,156.31L452.49,156.33L469.48,158.89L469.66,158.94L479.06,161.79L479.24,161.87L486.29,164.56L486.47,164.57L496.04,166.27L496.22,166.26L500.38,165.53L500.56,165.47L508.15,162.6L508.33,162.52L522.43,157.72L522.61,157.68L533.81,155.94L533.99,155.92L561.28,154.98L561.46,154.98L581.88,155.72L582.06,155.74L597.6,158.15L597.78,158.2L607.54,161.65L607.72,161.74L618.38,167.38L618.56,167.45L625.97,169.4L626.15,169.42L634.65,166.2L634.83,166.08L643.68,161.08L643.86,161L650.19,158.65L650.37,158.6L658.68,157.04L658.86,157.03L674.58,156.78L674.76,156.79L686.15,158.14L686.33,158.18L696.81,160.68L696.99,160.75L703.5,162.95L703.68,163.01L708.01,164.58L708.2,164.63L715.6,166.35L715.79,166.38L723.01,165.73L723.19,165.69L732.05,162.48L732.23,162.41L740,159.5" style="vector-effect: non-scaling-stroke; fill: none; stroke: rgb(76, 120, 168); stroke-opacity: 1; stroke-width: 1px; opacity: 1;"/></g><g class="points"/><g class="text"/></g><g class="trace scatter trace89c2eb" style="stroke-miterlimit: 2; opacity: 1;"><g class="fills"/><g class="errorbars"/><g class="lines"><path class="js-line" d="M0,122.83L5.96,135.73L6.14,136.07L12.11,145.17L12.29,145.4L18.07,151.57L18.25,151.74L30.18,161.36L30.36,161.51L37.95,168.81L38.13,169.02L43.55,176.48L43.73,176.78L48.97,186.93L49.15,187.33L55.12,203.07L55.3,203.6L62.71,223.48L62.89,223.78L64.87,225.77L65.05,225.81L66.32,225.29L66.5,225.09L68.13,221.72L68.31,221.16L70.3,212.42L70.48,211.38L73.37,189.95L73.55,188.35L82.04,115.57L82.22,114.63L84.75,105.47L84.93,105.08L86.74,103.04L86.92,102.99L88.37,103.53L88.55,103.69L90.72,106.99L90.9,107.36L94.87,117.16L95.05,117.65L103.55,138.68L103.73,139.05L109.69,149.6L109.87,149.87L116.74,158.88L116.92,159.09L132.64,178.41L132.82,178.67L147.28,199.83L147.46,199.98L150.17,201.03L150.35,201.01L152.34,199.97L152.52,199.79L154.69,196.43L154.87,196.04L157.58,188.29L157.76,187.64L161.73,170.33L161.91,169.44L170.41,131.92L170.59,131.39L173.66,124.69L173.84,124.43L176.19,122.27L176.37,122.2L178.54,122.05L178.72,122.1L181.43,123.63L181.61,123.78L186.31,128.67L186.49,128.88L196.97,139.99L197.15,140.14L204.02,144.93L204.2,145.03L211.43,148.21L211.61,148.27L221.19,150.69L221.37,150.72L260.4,157.25L260.58,157.31L269.26,160.98L269.44,161.09L275.22,165.15L275.4,165.31L280.46,170.74L280.64,170.98L285.16,178.17L285.34,178.51L289.68,188.48L289.86,188.97L294.37,203.61L294.55,204.29L299.07,223.25L299.25,224.06L304.67,245.15L304.85,245.58L306.66,247.87L306.84,247.86L307.75,247.07L307.93,246.74L309.37,241.95L309.55,241.06L311.54,226.71L311.72,224.99L314.61,189.61L314.79,187.02L321.3,102.47L321.48,101.01L323.83,88.21L324.01,87.68L325.64,85.4L325.82,85.4L326.9,86.31L327.08,86.6L328.89,91.13L329.07,91.72L333.05,107.82L333.23,108.62L340.82,139.06L341,139.68L347.14,157.54L347.32,158L357.8,182.22L357.98,182.63L369.19,206.89L369.37,207.16L372.08,209.77L372.26,209.84L374.07,209.52L374.25,209.38L375.87,207.2L376.05,206.84L378.22,200.7L378.4,200.04L381.47,185.24L381.66,184.19L391.96,124.42L392.14,123.79L394.85,117.16L395.03,116.89L397.2,115.13L397.38,115.1L399.18,115.52L399.37,115.64L401.89,118.18L402.08,118.41L407.86,127.71L408.04,128.02L416.35,140.47L416.53,140.7L422.86,147.26L423.04,147.41L429.36,152.03L429.54,152.15L441.83,158.79L442.01,158.89L453.22,165.93L453.4,166.08L459.54,171.75L459.72,171.95L465.14,178.7L465.32,178.96L472.37,190.4L472.55,190.72L480.32,203.07L480.5,203.26L483.21,204.94L483.39,204.96L485.2,204.36L485.38,204.22L487.37,201.46L487.55,201.09L489.9,194.62L490.08,193.99L493.33,179.66L493.51,178.73L503.27,129.42L503.45,128.83L506.53,121.56L506.71,121.29L509.05,119.22L509.24,119.16L511.22,119.27L511.4,119.34L513.93,121.19L514.11,121.37L517.91,126L518.09,126.24L528.39,139.29L528.57,139.47L534.53,144.7L534.72,144.83L541.58,148.88L541.76,148.97L552.06,152.76L552.24,152.81L577,161.18L577.18,161.28L584.41,166.13L584.59,166.28L590.74,172.68L590.92,172.91L595.98,180.59L596.16,180.92L601.04,191.04L601.22,191.47L609.35,212.82L609.53,213.28L613.32,220.69L613.5,220.9L615.31,221.81L615.49,221.77L616.76,220.75L616.94,220.48L618.56,216.66L618.74,216.06L620.73,207.2L620.91,206.18L624.17,182.75L624.35,181.22L632.12,119.77L632.3,118.85L635.01,109.03L635.19,108.64L637.18,106.23L637.36,106.17L638.8,106.48L638.98,106.61L640.97,109.06L641.15,109.36L644.77,116.99L644.95,117.42L655.07,139.82L655.25,140.14L661.21,149.27L661.39,149.5L667.72,156.69L667.9,156.87L685.25,175L685.43,175.23L694.1,187.99L694.28,188.28L701.69,198.87L701.87,199.05L704.76,200.86L704.94,200.89L706.93,200.46L707.11,200.34L709.1,198.09L709.28,197.79L711.63,192.44L711.81,191.91L715.06,179.88L715.24,179.09L726.27,130.7L726.45,130.2L729.52,124.17L729.7,123.95L732.23,122.15L732.41,122.11L734.76,122.42L734.94,122.5L737.83,124.56L738.01,124.73L740,126.76" style="vector-effect: non-scaling-stroke; fill: none; stroke: rgb(245, 133, 24); stroke-opacity: 1; stroke-width: 1px; opacity: 1; stroke-dasharray: 9px, 9px;"/></g><g class="points"/><g class="text"/></g><g class="trace scatter trace469322" style="stroke-miterlimit: 2; opacity: 1;"><g class="fills"/><g class="errorbars"/><g class="lines"><path class="js-line" d="M0,179.61L0.54,166.44L0.9,170.43L1.08,169.09L1.26,171.69L1.81,169.18L1.99,168.69L2.17,168.07L2.35,169.54L2.53,171.63L2.89,170.99L3.07,171.82L3.79,168.69L3.98,169.38L4.16,170.29L4.52,171.68L4.7,168.91L4.88,169.45L5.06,172.87L5.6,169.55L5.78,166.93L6.32,171.44L6.51,169.48L6.69,169.76L6.87,167.36L7.05,167.5L7.23,171.63L7.59,167.72L8.13,169.41L8.31,169.85L8.49,170.02L8.67,167.03L8.85,164.07L9.22,170.11L9.4,167.68L9.76,166.35L10.12,167.49L10.3,167.55L10.66,167.41L11.02,170.97L11.2,170.07L11.38,166.97L11.57,165.7L11.93,166.9L12.11,167.35L13.19,163.12L13.37,163.49L14.1,163.47L14.28,165.76L14.46,167.01L14.64,162.79L14.82,160.65L15,162.68L15.18,165.47L15.36,165.38L15.54,161.92L15.72,159.38L15.9,164.61L16.08,165.76L16.63,159.56L16.99,161L17.17,160.87L17.35,159.63L17.53,161.59L17.71,163.1L18.43,158.69L18.61,160.35L18.79,162.22L18.97,162.4L19.16,161.71L19.34,160.5L19.52,159.23L19.88,159.73L20.06,162.07L20.42,155.03L20.78,161.51L20.96,159.62L21.14,156.05L21.87,156.37L22.05,157.67L22.23,161.56L22.59,157.45L22.77,155.92L23.13,156.11L23.31,157.97L23.49,158.08L23.67,155.84L24.03,157.77L24.21,156.05L24.4,152.61L24.58,152.76L24.76,156.21L24.94,156.96L25.12,155.25L25.3,153.34L26.02,155.08L26.2,154.47L26.38,151.15L26.56,150.99L26.74,152.83L26.93,152.2L27.11,153.23L27.29,154.18L27.83,154.36L28.37,148.14L28.55,149.06L29.09,152.85L29.27,152.08L29.46,149.83L29.64,148.24L29.82,148.79L30,151.89L30.18,152.75L30.36,149.54L31.08,147.15L31.26,148.08L31.44,149.55L31.8,144.88L31.99,147.52L32.17,149.36L32.89,144.18L33.07,145.54L33.25,146.02L33.43,143.28L33.97,146.47L34.15,148.35L34.33,142.83L34.88,147.56L35.06,147.22L35.96,141.94L36.14,142.96L36.68,140.87L36.86,142.28L37.05,143.69L37.77,139.56L37.95,140.81L38.13,140.78L39.03,141.03L39.21,138.81L39.39,138.4L39.58,139.74L39.76,139.19L39.94,140.26L40.12,142.49L40.48,139.87L40.66,140.34L40.84,141.19L41.02,142.16L41.2,140.16L41.38,137.96L41.56,135.53L41.92,139.8L42.11,138.28L42.47,133.52L42.65,134.48L42.83,135.8L43.37,136.43L43.73,133.47L43.91,134.44L44.45,131.21L45,131.43L45.18,132.38L46.08,129.99L46.26,133.93L46.62,128.48L47.16,130.34L47.35,129.19L48.61,121.44L48.79,124.3L48.97,125.36L49.15,121.4L49.51,127.06L49.88,124.11L50.06,124.15L50.42,115.48L50.96,118.64L51.14,119.33L51.68,115.27L51.86,116.9L52.04,118.38L53.13,109.91L53.31,115.04L54.57,106.08L54.75,107.73L56.92,94.18L57.1,94.68L57.28,95.57L57.47,93.38L57.65,92.32L58.37,85.51L58.73,87.47L58.91,87.63L60.18,75.37L60.36,77.81L60.54,78.27L60.72,74.15L61.08,74.24L62.16,66.66L62.34,68.14L64.15,49.56L64.51,49.64L64.69,48.7L67.4,26.99L67.58,23.73L68.31,27.81L68.49,25.19L68.67,22.23L68.85,22.73L69.03,20.71L69.39,19.98L69.57,20.23L69.75,21.48L70.3,17.29L70.84,17.78L71.02,17.77L71.2,16L71.38,19.38L71.74,17.89L71.92,21.16L72.83,17.85L73.01,19.96L73.55,21.84L73.73,25.78L74.09,22.27L74.27,28.08L74.45,31.51L74.99,28.44L75.17,30.44L76.62,50.75L76.8,52.18L76.98,52.95L77.16,57.76L79.69,98.17L79.87,100.17L81.5,124.65L81.68,127.58L83.13,157.49L83.31,157.47L83.49,154.09L84.93,179.35L85.11,179.36L85.29,178.58L85.47,183.57L85.66,183.69L85.84,187.11L87.46,209.56L87.64,211.58L88,209.07L88.19,213.36L88.37,217.29L88.73,215.68L88.91,218.9L89.27,219.79L89.45,225.2L89.81,221.19L90.35,223.14L90.53,225.21L91.62,230.98L91.8,228.1L92.16,233.32L92.52,231.48L92.7,229.91L93.79,235.2L93.97,232.54L94.15,232.26L94.33,230.45L94.69,233.72L94.87,232.4L95.05,230.57L95.23,230.24L95.41,230.78L95.59,230.72L95.78,230.88L96.86,234.39L97.04,229.87L97.58,226.67L97.76,227.18L97.94,228.13L98.12,228.8L98.31,226.99L98.49,225.13L98.67,226.32L98.85,225.19L99.03,223.46L99.39,225.72L99.75,223.83L99.93,223.24L100.65,219.38L100.84,222.78L101.74,215.22L101.92,215.74L102.1,216.27L102.28,216.52L102.46,215.2L102.82,215.49L103.18,213.39L103.37,211.22L103.73,209.31L103.91,211.94L104.09,211.99L104.27,207.55L104.81,208.68L104.99,209.06L105.35,204.01L105.89,204.68L106.08,204.8L106.26,204.73L106.44,200.44L106.8,203.35L106.98,199L107.16,198.04L107.52,202.18L107.88,198.76L108.06,199.83L108.24,200.3L108.42,195.41L109.15,191.86L109.33,194.12L109.51,197.13L109.69,193.22L109.87,189.79L110.05,192.02L110.41,190.56L110.59,189.2L110.77,189.73L110.95,189.12L111.14,186.52L111.68,186.63L111.86,187.81L112.22,189.61L112.4,185.65L112.76,183.26L112.94,185.48L113.12,188.57L113.67,180.61L114.03,183.48L114.21,184.02L115.29,178.59L115.47,177.93L115.83,180.89L116.2,177.72L116.38,179.05L116.56,179.28L116.74,177.55L117.82,172.64L118,174.62L118.18,177.87L118.54,171.84L118.73,173.8L118.91,174.53L119.09,171.54L119.27,169.58L119.63,171.56L119.81,172.14L120.53,168.85L120.71,171.51L120.89,172.51L121.07,170.37L121.26,169.56L121.44,172.74L121.8,169.15L121.98,171.2L122.16,169.54L122.7,170.24L123.06,167.25L123.24,166.39L123.6,169.59L124.15,168.78L124.33,167.82L124.51,169.51L124.87,165.98L125.05,168.03L125.23,167.07L125.59,169.3L125.77,167L126.5,167.3L126.68,163.62L126.86,165.28L127.04,166.96L127.22,164.14L127.4,160.36L128.3,166.62L128.48,165.31L128.84,165.63L129.57,163.21L129.75,164.98L130.11,161.66L130.47,162.41L130.65,163.75L131.19,159.4L131.37,163.83L131.56,164.37L131.74,160.76L132.1,161.75L132.64,158.37L132.82,160.79L133,160.55L133.18,158.63L133.72,162.37L133.9,158.92L134.09,158.32L134.45,160.51L134.63,158.67L135.35,161.05L135.53,157.99L135.71,156.3L136.07,159.56L136.25,159.75L136.8,163.82L136.98,160.81L137.16,158.73L137.34,160.31L137.7,159.71L137.88,157.89L138.06,159.06L138.42,157.45L138.6,157.5L138.96,159.52L139.33,158.45L139.51,155.83L140.23,155.54L140.59,160.26L140.77,158.15L140.95,156.97L141.49,158.38L141.68,157.34L142.22,154.26L142.4,154.9L142.58,158.24L143.66,151.95L143.84,152.35L144.39,155.35L144.57,153.76L144.75,152.84L144.93,152.83L145.11,154.51L145.83,151.98L146.01,153.83L147.28,151.56L147.46,149.02L147.82,149.67L148,149L148.18,147.07L148.72,150.86L149.08,149.21L149.26,148.25L149.81,148.53L150.35,143.13L150.53,142.64L151.25,147.04L151.43,144.02L151.79,138.71L151.98,140.08L152.16,144.59L152.88,138.93L153.06,141.31L153.24,141.21L153.42,137.91L154.14,138.35L154.32,136.29L154.69,139.3L154.87,138.84L155.05,136.08L155.23,132.97L155.77,135.1L155.95,136.7L157.04,129.25L157.22,129.19L157.4,130.88L157.76,128.08L157.94,130.67L158.12,129.21L158.48,127.31L158.66,129.69L158.84,129.84L159.38,123.41L159.57,125.3L159.75,128.14L159.93,128.16L160.11,124.01L160.29,122.03L160.65,126.01L160.83,125.29L161.01,125.65L161.19,127.88L161.37,129.31L161.55,126.93L161.73,125.77L162.82,122.07L163,122.38L163.18,123.52L163.72,121.15L164.08,122.79L164.26,123.82L164.99,125.83L165.17,125.53L165.35,126.95L165.53,129.15L165.89,124.82L166.07,125.32L166.25,125.43L166.43,128.7L166.61,128.51L166.79,127.18L167.34,125.82L167.7,129.75L167.88,129.56L168.06,129.16L168.24,129.34L168.42,132.17L168.6,131.53L168.96,132.93L169.14,133.28L169.5,131.79L169.68,132.17L169.87,133.64L171.13,139.21L171.31,136.14L171.49,134.44L171.67,136.45L171.85,138.86L172.03,138.25L172.21,140.88L173.3,145.01L173.48,142.42L174.02,143.88L174.38,143.57L174.56,148L174.93,144.49L175.29,147.65L175.47,147.9L176.37,153.55L176.55,152.51L176.73,151.42L178,154.67L178.18,153.71L179.08,159.93L179.26,157.57L180.17,162.27L180.35,161.02L180.53,160.43L180.71,159.83L180.89,160.81L181.07,163.05L181.43,160.59L181.61,162.59L181.79,164.2L181.97,163.19L182.15,164.84L182.33,165.73L183.06,160.93L183.24,161.63L183.42,162.21L183.78,166.95L184.14,165.26L184.32,164.46L184.5,165.12L184.68,168.87L185.23,162.21L185.41,163.8L185.59,165.59L185.77,165.25L185.95,168.74L186.31,169.84L186.49,167.2L186.67,163.27L187.03,170.34L187.21,166L187.39,165.57L187.76,169.52L188.3,169.16L188.48,169.64L188.66,170.85L189.02,170.34L189.2,167.91L189.38,167.78L189.56,169.41L189.74,167.72L189.92,170.47L190.11,171.57L190.65,164.6L191.01,167.02L191.19,168.01L191.37,167.87L191.55,168.28L191.73,169.01L192.09,166.79L192.27,168.53L192.45,170.19L192.63,170.81L192.82,168.2L193,167.16L193.36,168.73L193.54,168.08L193.72,169.83L194.8,166.71L194.98,168.82L195.16,169.15L195.35,167L195.71,166.59L195.89,168.55L196.43,166.78L196.79,170.82L196.97,166.15L197.33,164.22L197.51,165.96L197.69,167.92L198.6,163.81L198.78,165.32L199.86,168.83L200.04,167.52L200.22,170.5L200.59,164.84L200.77,164.81L201.13,164.78L201.31,163.22L201.67,168.06L202.03,166.47L202.21,163.81L202.57,165.76L202.94,165.32L203.12,164.76L203.3,164.25L203.48,164.51L203.66,166.55L204.02,160.54L204.56,162.44L204.74,164.04L204.92,162.62L205.47,164L205.65,164.51L206.01,161.33L206.19,163.86L206.37,164.05L206.73,164.45L206.91,160.93L207.09,161.48L207.27,164.78L208,160.22L208.18,161.15L208.36,163.78L208.54,164.22L208.72,162.28L208.9,160.44L209.26,163.67L209.44,163.83L209.8,160.2L210.16,162.48L210.34,162.42L210.89,157.9L211.07,161.55L211.25,163.42L211.61,160.55L211.79,162.96L211.97,161.93L213.05,158.36L213.24,159.33L213.42,162.34L213.78,158.66L213.96,160.98L214.14,160.43L214.86,156.26L215.04,159.97L215.4,157.16L215.77,158.2L215.95,158.04L216.13,155.99L216.31,157.34L216.49,161.51L216.85,158.24L217.39,159.1L217.57,159.97L218.11,157.72L218.3,158.89L218.48,158.85L218.84,159.23L219.2,157.11L219.38,155.04L220.1,159.22L220.28,158.8L220.46,158.96L220.64,157.61L221.19,158.51L221.37,160.25L221.55,161.09L221.73,160.69L221.91,156.56L222.45,154.88L222.63,155.59L222.81,157.46L223.17,156.08L223.36,156.65L223.54,159.32L224.44,156.3L224.62,157.37L224.8,159.31L224.98,155.64L225.34,158.31L225.52,154.32L226.07,156.13L226.25,156.65L226.79,158.73L226.97,156.89L227.15,154.28L227.69,155.31L227.87,155.05L228.78,157.49L228.96,154.77L229.5,153.47L229.86,156.32L230.04,154.94L230.4,158.59L230.95,157L231.13,155.35L231.67,157L231.85,152.5L232.03,153.18L232.39,157.14L232.93,156.97L233.11,157.57L233.66,153.4L233.84,153.43L234.02,155.71L234.38,155.9L234.74,153.29L234.92,154.71L235.1,156.07L235.46,157.19L235.82,153.53L236,155.32L236.19,153.19L236.55,154.32L236.73,155.66L236.91,157.2L237.09,154.67L237.27,155.03L237.45,155.32L237.81,157.17L237.99,154.31L238.17,154.36L238.35,154.43L238.53,156.12L239.62,152.59L239.8,154.27L240.16,153.6L240.34,156.48L240.52,155.15L240.7,152.74L240.88,152.85L241.06,154.15L241.97,156.78L242.15,154.28L242.69,153.35L242.87,155.61L243.23,157.66L243.41,153.92L243.59,152.05L243.96,155.15L244.14,155.46L244.32,155.43L244.5,152.99L245.04,156.65L245.22,155.37L245.4,152.13L245.76,150.53L245.94,153.42L246.12,156.28L246.31,152.73L246.67,157.69L246.85,156.34L247.03,156.2L247.21,156.17L247.39,154.86L247.57,154.72L247.75,156.95L247.93,156.52L248.11,153.55L248.65,157.2L248.84,155.37L249.02,153.81L249.2,156.66L249.56,151.85L249.92,156.57L250.1,155.1L250.28,154.01L250.64,155.06L250.82,155.48L251.55,151.48L251.73,155.09L251.91,155.47L252.09,154.32L252.27,152.32L252.63,156.41L253.35,156.23L253.53,155.91L253.71,156.02L253.89,153.64L254.8,156.96L254.98,153.55L255.16,151.06L255.52,153.12L255.7,155.11L255.88,156.52L256.24,155.46L256.42,154.77L256.61,154.21L256.79,157.5L257.15,153.09L257.51,156.56L257.69,158.03L258.23,155.66L258.41,155.72L258.59,157.12L258.77,161.04L259.14,155.23L259.32,158.48L259.5,157.68L259.68,156L259.86,158.03L260.04,160.38L260.76,154.11L260.94,155.08L261.12,155.28L261.3,154.61L261.48,157.08L261.67,161.88L262.21,157.29L262.39,157.74L263.11,156.09L263.29,158.05L263.65,157.3L264.01,157.84L264.2,158.5L264.74,154.68L264.92,155.18L265.1,160.52L265.46,157.36L266,157.84L266.18,158.3L266.36,159.19L266.54,157.34L266.73,156.07L266.91,156.33L267.09,160.39L267.45,156.22L267.63,159.39L267.81,161.28L268.17,159.98L268.35,158.54L268.53,161.66L269.07,160.02L269.26,158.91L269.44,157.7L269.98,158.25L270.16,160.67L270.52,159.99L270.7,159.51L271.06,156.51L271.24,160.66L271.42,160.38L271.6,161.55L271.79,161.77L271.97,159.14L272.15,160.29L272.33,158.31L272.51,157.15L273.77,164.09L273.95,164.49L274.13,164.6L274.32,162.6L274.5,160.65L275.04,161.41L275.22,163.71L275.58,163.53L275.94,164.44L276.12,163.48L276.48,162.17L276.66,162.36L276.84,163.67L277.21,163.46L277.57,165.78L277.75,162.11L277.93,163.05L278.11,167.99L278.47,163.98L278.65,166.39L278.83,168.91L279.19,160.89L279.56,164.67L279.74,164.33L280.1,166.37L280.28,163.55L280.46,165.56L280.64,165.57L280.82,165.14L281,166.6L281.18,168.11L281.54,166.21L281.72,170L281.9,170.6L282.09,168.45L282.63,170.26L282.81,168.38L282.99,169.01L283.71,172.59L283.89,172.32L284.07,169.45L284.8,175.77L284.98,175.43L285.16,173.91L285.34,171.43L285.7,175.05L285.88,174.74L286.24,173.18L286.96,178.97L287.15,176.71L287.51,178.8L287.69,177.54L287.87,175.47L288.05,175.49L288.23,177.61L288.95,180.3L289.13,178.4L289.49,182.24L290.04,180.65L290.22,181.79L290.4,181.59L290.58,182.67L291.3,181.01L291.48,186.39L291.66,189.14L292.21,187.35L292.39,187.49L292.57,186.06L292.93,188.07L293.11,187.72L293.29,190.93L293.47,190.59L293.65,193.37L294.01,193.01L294.55,196.37L294.74,196.22L294.92,193.82L295.1,192.69L295.28,194.67L295.46,198.15L295.82,195.57L296,195.83L296.18,198.38L297.26,200.63L297.45,202.18L297.99,201.83L298.35,204.37L298.53,204.19L298.71,204.24L298.89,206.84L299.07,206.84L299.25,208.23L299.61,208.74L299.98,207.63L300.16,210.46L300.34,213L300.7,210.38L300.88,210.48L301.06,210.95L301.6,215.26L301.96,214.5L302.14,215.09L302.69,213.84L302.87,217.41L303.59,222.5L303.77,222.1L303.95,218.46L305.04,223.64L305.22,222.27L305.58,224.26L305.76,221.41L305.94,219L306.3,216.45L306.48,218.38L307.38,223.05L307.57,220.88L308.83,211.89L309.01,215.29L309.37,216.09L309.55,215.2L309.73,214.91L311.54,196.38L311.72,197.04L311.9,198.24L312.08,196.09L312.26,193.77L312.44,192.91L312.63,187.44L314.07,171.39L314.25,169.82L319.13,114.86L319.31,115.79L319.49,116.73L321.12,104.07L321.3,107.6L321.48,106.96L321.66,102.85L322.74,98.87L322.93,99.75L323.11,100.33L323.47,95.71L323.83,97.85L324.01,98.04L324.73,94.37L325.09,95.16L325.27,99.75L325.82,100.64L326.36,96.27L326.54,99.1L327.44,102.14L327.62,101.52L328.53,106.38L328.71,104.6L329.07,104.48L329.97,110.8L330.15,109.3L330.33,109.73L330.7,115.19L331.06,113.65L331.24,112.36L332.14,121.12L332.32,119.85L332.5,118.14L333.41,128.03L333.77,126.53L333.95,125.69L335.03,131.97L335.21,131.72L335.39,130.92L336.48,135.01L336.66,134.46L336.84,133.07L337.38,140.9L337.92,140.61L338.11,140.33L338.47,144.47L339.01,144L339.19,143.41L339.37,142.19L339.55,144.34L339.91,142.9L340.09,147.19L340.63,150.59L340.82,149.18L341,147.72L341.72,154.85L342.08,151.43L342.26,149.94L342.44,150.44L342.62,153.19L342.8,152.65L342.98,153.93L343.16,156.15L343.89,153.85L344.07,154.47L344.25,156.93L344.97,160.25L345.15,157.18L345.51,154.3L345.69,155.22L345.88,159.17L346.06,156.77L346.42,161.04L346.6,160.01L347.5,162.4L347.68,163.75L348.04,165.85L348.22,162.46L348.59,165.52L348.77,163.06L348.95,161.92L349.13,165.56L349.31,165.13L349.49,164.01L349.67,166.17L349.85,167.75L350.21,163.46L350.57,163.54L350.75,164.84L351.48,171.24L351.66,168.97L351.84,170.55L352.02,173.41L352.38,168.88L352.56,169.17L352.92,173.74L353.1,172.8L353.28,170.37L353.47,170.34L353.65,174.03L353.83,175.42L354.01,174.01L354.19,171.74L354.37,171.96L354.55,173.82L354.91,174.8L355.09,173.8L355.27,177.73L355.45,177.89L355.63,176.45L355.81,176.26L356,177.42L356.36,176.21L356.54,178.08L356.9,178.82L357.08,179.94L357.8,176.28L357.98,177.28L358.16,179.62L358.53,182.83L358.89,181.88L359.07,178.8L360.51,187.06L360.69,186.45L360.87,185.76L361.42,184.54L361.6,186.21L361.96,185.74L362.14,188.24L362.32,187.26L362.5,189.2L362.68,189.58L362.86,187.22L363.22,191.06L363.4,189.89L363.58,190.75L363.77,189.08L363.95,189.12L364.13,194.01L364.49,190.94L365.21,191.2L365.39,193.34L365.93,192.03L366.11,193.89L367.02,196.89L367.2,194.43L367.38,194.11L367.56,194.37L367.74,197.15L367.92,198.66L368.28,196.33L368.46,194.6L369.19,202.24L369.55,200.07L369.73,196.27L370.09,199.76L370.45,199.5L370.63,198.24L371.72,202.47L371.9,201L372.08,199.12L372.44,199.45L372.62,201.39L373.52,197.73L373.7,198.04L373.89,199.59L374.07,197.59L374.43,198.61L374.61,201.74L375.33,194.47L375.51,197.86L375.69,197.09L375.87,193.63L376.23,198.11L376.42,196.61L376.6,194.47L377.32,189.47L377.5,190.49L377.68,192.5L378.04,194.11L378.22,191.55L378.4,187.71L379.13,189.02L379.31,185.15L379.67,186.94L379.85,183.33L380.75,175.17L380.93,179.68L381.11,182.14L381.29,177.83L381.47,175.62L381.66,175.89L381.84,171.7L382.02,171.9L382.2,174.08L383.82,161.16L384,160.91L384.37,160.42L384.55,161.03L384.73,156.56L384.91,156.62L385.09,155.54L388.16,139.74L388.34,139.49L389.25,132.74L389.43,132.88L389.61,130.27L389.97,133.91L390.15,132.12L390.33,130.65L390.51,130.14L390.69,127.12L390.87,124.85L391.23,127.78L391.41,127.9L391.59,128.91L391.78,126.75L391.96,127.46L392.14,124.67L392.32,121.42L393.04,121.77L393.22,121.6L393.58,124.65L393.94,123.93L394.12,120.02L394.31,120.27L394.49,122.78L394.85,121.04L395.03,123.05L395.93,117.52L396.29,118.26L396.47,120.16L397.02,121.85L397.2,120.35L397.38,118.81L397.56,119.5L397.74,118.96L397.92,116.64L398.64,122.58L398.82,121.3L399,119.38L399.37,123.5L399.73,121.96L399.91,116.59L400.99,122.98L401.17,122.19L401.35,120.71L401.53,125.29L402.26,125.13L402.44,125.02L403.34,128.88L403.52,126.8L403.7,123.02L404.06,128.36L404.24,128.56L405.15,129.52L405.33,129.1L405.51,129.14L405.69,127.43L406.05,131.69L406.41,129.7L406.59,129.16L406.95,132.43L407.14,131.97L407.32,129.71L407.5,133.69L408.04,131.66L408.22,132.1L408.4,130.24L408.58,134.73L408.76,136.05L408.94,133.65L409.12,136.19L409.48,135.54L409.67,136.37L409.85,136.23L410.03,137.24L410.21,134.54L410.75,135.42L410.93,137.2L411.29,138.15L411.47,139.97L412.38,138.74L412.56,139.57L412.74,139.67L412.92,141.62L413.1,144.85L413.46,141.14L413.64,142.12L413.82,139.67L414,139.34L414.18,141.71L414.73,140.77L415.09,146.07L415.27,142.96L415.45,142.71L415.63,145.22L416.17,143.73L416.35,143.22L416.53,143.46L416.71,146.23L416.89,143.43L417.44,145.25L417.62,146.95L417.8,148.09L417.98,146.84L418.16,147.28L418.34,145.27L418.52,143.25L418.7,146.33L419.06,143.58L419.24,147.02L419.6,145.62L419.79,148.01L420.33,149.56L420.51,146.88L420.69,145.23L420.87,148.76L421.05,148.63L421.23,148.56L421.41,147.45L421.59,148.77L421.77,150.14L421.95,149.78L422.13,147.26L422.32,146.5L422.5,151.13L423.04,152.53L423.22,151.47L423.4,149.07L423.76,148.1L423.94,149.49L424.12,151.08L424.66,149.22L424.84,151.42L425.21,149.68L425.39,152.19L425.57,153.16L425.75,150.85L426.29,151.22L426.47,152.99L426.65,154.71L427.01,152.38L427.19,151.41L427.56,147.59L427.74,151.68L427.92,151.92L428.82,154.25L429,153.82L429.18,150.88L429.72,152.62L429.9,153.83L430.09,153.24L430.27,155.77L431.17,152.1L431.35,153.66L431.53,153.5L431.71,155.1L432.07,153.09L432.25,154.54L432.43,156.04L432.62,157.45L432.8,154.03L433.16,156.15L433.34,155.82L433.52,154.87L433.7,158.18L434.06,153.25L434.6,155.42L434.78,156.72L435.15,153.56L435.51,154.56L435.69,155.42L435.87,157.16L436.05,154.66L436.23,150.4L437.13,158.9L437.31,156.83L437.49,159.07L438.04,158.59L438.22,157.81L438.76,159.41L438.94,158.23L439.12,156.41L439.48,161.52L439.84,156.06L440.02,157.13L440.57,156.79L440.75,160.69L440.93,160.09L441.11,157.88L441.29,158.24L441.47,157.13L441.65,160.72L442.01,155.12L442.19,158.93L442.37,160.63L442.55,157.1L443.1,158.73L443.28,160.95L443.46,161.64L443.82,161.04L444,158.67L444.9,161.76L445.08,160.46L445.26,157.84L445.45,163.34L445.81,157.44L446.17,162.55L446.35,162.12L446.53,162.63L446.71,160.38L447.25,161.51L447.43,158.48L447.61,160.05L447.79,164.5L448.34,161.35L448.52,161.1L448.88,160.01L449.06,161.57L449.24,164.32L449.6,161.23L450.14,162.03L450.32,162.62L450.69,164.95L451.23,164.5L451.41,164.62L451.95,166.15L452.13,163.65L452.49,166.2L452.67,165.41L452.85,162.82L453.58,166.89L453.76,164.36L454.84,167.17L455.02,167.36L455.2,166.53L455.75,166.69L455.93,168.8L456.29,166.06L456.47,166.52L456.65,167.97L457.37,165.3L457.73,166.28L457.91,166.46L458.28,170.88L458.64,168.53L458.82,168.07L459.18,167.36L459.36,168.29L459.54,171.29L459.72,171.88L459.9,169.21L460.26,167.73L460.44,172.35L460.81,168.49L460.99,172.89L461.17,173.32L461.71,170.13L461.89,173.79L462.07,172.93L462.25,173.28L462.43,177.7L462.61,178.42L462.79,176.78L462.97,174.11L463.34,169.69L463.7,171.87L463.88,173.75L464.42,173.31L464.96,180.92L465.14,179.65L465.32,176.71L465.68,182.18L466.05,176.4L466.23,174.97L467.13,179.79L467.31,176.42L467.67,177.29L467.85,178.91L468.21,177.8L469.12,183.36L469.3,182.43L469.66,182.97L469.84,180.45L470.74,187.01L470.93,184.5L471.11,181.53L471.47,184.74L471.65,183.7L471.83,187.6L472.01,187.94L472.19,187.33L472.37,186.9L472.55,187.09L472.73,185.91L472.91,184.95L473.09,189.46L473.46,185.94L473.82,187.74L474,188.42L474.9,191.76L475.08,193.8L475.99,192.03L476.17,192.38L476.53,190.39L476.71,193.89L476.89,194.76L477.07,194.07L477.25,192.65L477.79,196.85L477.97,194.74L478.15,193.85L478.33,193.42L478.52,195.39L478.7,195.79L478.88,199.08L479.06,202.12L479.42,196.85L479.6,197.22L479.78,197.45L479.96,198.93L480.32,198.48L480.5,195.49L480.68,195.08L480.86,197.19L481.41,199.68L481.59,199.59L481.77,198.6L481.95,197.36L482.31,198.06L482.49,200.25L482.85,195.61L483.21,200.46L483.39,199.44L483.58,196.14L483.94,200.68L484.12,200.78L484.3,202.03L484.48,201.61L484.66,198.48L485.02,195.54L485.56,196.25L485.74,197.65L486.11,192.46L486.29,193.53L486.47,197.52L486.65,199.12L487.01,196.91L487.19,195.74L488.45,189.6L488.63,191.92L488.82,193.09L489,188.15L489.36,191.91L489.54,190.7L489.72,189.31L489.9,189.56L490.08,187.96L490.62,181.48L490.8,184.98L490.98,186.43L491.89,180.54L492.07,177.6L492.25,178.73L492.79,177.98L492.97,177.55L493.15,176.87L493.33,172.84L493.69,173.08L494.24,170.76L494.42,168.19L495.68,158.32L495.86,159.42L496.04,161.11L496.22,158.68L496.41,156.2L496.59,156.24L496.77,159.25L498.03,146.91L498.21,149.08L498.39,149.65L499.48,141.01L499.66,141.82L499.84,144.69L500.02,141.32L500.2,137.55L500.38,136.07L500.56,139.3L500.92,137.31L501.1,136.75L501.28,136.45L501.47,137L501.65,137.06L501.83,134.27L502.91,129.2L503.09,130.72L503.27,131.8L503.45,129.08L503.63,125.04L504,128.12L504.18,123.53L504.36,125.01L504.54,126.79L505.44,122.84L505.62,122.94L505.98,126.14L506.16,124.59L506.34,120.88L506.53,119.82L506.71,121.81L506.89,122.3L507.25,122.41L507.61,121.33L507.79,124.58L508.33,120.94L508.51,123.08L508.69,123.65L509.42,120.7L509.6,121.15L509.78,121.63L509.96,122.53L510.14,120.98L510.5,122.06L510.68,119.24L510.86,119.74L511.04,124.5L511.58,119.86L511.77,122.17L511.95,123.02L512.13,122.57L512.31,123.26L512.49,125.37L512.85,122.28L513.39,123.92L513.57,123.11L514.48,125.86L514.66,121.77L514.84,121.41L515.02,124.34L515.2,123.49L515.38,124.74L515.56,128.99L515.92,124.01L516.46,126.45L516.64,128.02L516.83,127.37L517.01,128.46L517.19,130.69L517.55,127.12L517.73,128.02L517.91,130.45L518.09,131.33L518.27,129.43L518.45,127.04L518.81,133.18L519.36,132.26L519.54,132.25L519.9,131.35L520.08,132.51L520.26,131.69L520.44,132.86L520.62,133.56L520.8,134.57L521.16,133.28L521.34,132.35L521.52,131.89L521.7,135.47L521.89,136.23L522.07,133.37L522.43,141.53L522.97,137.67L523.15,137.2L524.05,135.77L524.23,136.29L525.5,143.73L525.68,142.77L525.86,138.01L526.58,140.42L526.76,138.01L527.13,143.65L527.49,143.01L527.67,140.24L527.85,137.99L528.21,139.94L528.39,141.67L528.57,142.33L528.75,139.46L530.2,145.15L530.38,143.97L530.74,143.95L530.92,142.7L531.28,140.88L531.64,145.35L531.82,143.48L532.37,147.3L532.55,146.97L532.73,145.37L532.91,145.15L533.09,145.72L533.27,146.27L533.45,148.3L534.17,148.05L534.35,147.5L534.53,145.82L534.72,146.39L534.9,150.15L535.08,150.89L535.26,148.83L535.44,148.15L536.16,145.66L536.34,145.79L536.52,148.28L536.7,144.71L537.06,148.71L537.25,148.7L537.79,148.01L538.15,150.69L538.33,148.25L538.51,145.11L538.87,148.73L539.05,149.12L539.23,149.88L539.41,147.36L540.32,148.77L540.5,148.61L540.68,148.76L540.86,150.06L541.22,152.31L541.4,148.54L541.58,147.57L541.94,148.86L542.12,152.57L542.31,152.51L542.49,149.66L542.67,148.11L543.03,150.91L543.21,150.72L543.39,150L543.57,152.38L543.93,152.46L544.11,151.87L544.29,150.23L544.65,148.52L544.84,149.92L545.02,150.44L545.74,153.09L545.92,152.38L546.1,150.35L547.18,155.31L547.37,152.61L547.73,149.07L547.91,149.34L548.09,151.56L548.45,150.7L548.81,156.86L548.99,154.51L549.17,150.3L549.71,155.1L549.89,152.81L550.08,150.12L550.44,155.88L550.8,153.22L550.98,152.4L551.16,152.33L551.34,153.27L551.52,154.99L551.88,153.06L552.06,153.44L552.24,152.61L552.61,153.36L552.97,150.68L553.15,152.67L553.33,155.14L553.69,153.47L553.87,151.72L554.05,151.77L554.23,155.5L554.59,152.53L554.95,154.66L555.14,156.18L555.32,156.49L555.5,154.25L555.68,152.68L556.04,155.69L556.22,154.4L556.4,156.14L556.76,155.2L556.94,156.28L557.12,153.67L557.48,152.4L558.21,157.47L558.39,157.22L558.57,155.43L558.93,152.7L559.11,155.12L559.29,157.47L559.83,154.41L560.2,156.08L560.38,156.01L560.56,158.26L560.92,154.69L561.1,156.95L561.28,155.93L561.46,154.74L561.82,156.55L562,156.44L562.36,156.72L562.91,154.2L563.09,158.87L563.27,158.45L563.45,154.56L563.63,156.71L563.99,154.18L564.17,154.92L564.35,154.07L565.26,158.72L565.44,156.94L565.62,153.23L565.98,153.03L566.16,153.98L567.06,160.95L567.24,159.33L567.97,156.5L568.15,156.69L568.33,157.44L568.51,157.3L568.69,159.53L569.23,156.78L569.41,158.34L569.59,160.36L569.95,157.14L570.13,156.25L570.5,156.88L570.68,159.6L571.04,157.74L571.58,158.11L571.76,158.44L572.12,159.81L572.3,157.94L572.48,156.06L572.66,159.01L572.84,156.96L573.03,158.36L573.39,157.52L573.75,160.42L573.93,162.65L574.29,158.3L574.83,158.59L575.01,157.55L575.19,158.97L575.37,157.25L575.74,158.39L575.92,158.53L576.28,161.45L576.46,164.95L576.82,158.32L577.36,159.66L577.54,162.49L577.9,163.72L578.27,162.52L578.45,162.46L579.17,159.25L579.35,162.71L579.53,163L579.71,161.42L580.8,164.8L580.98,164.7L581.88,161.92L582.06,165.2L582.6,162.56L582.78,164.33L582.96,166.37L583.15,166.23L583.33,166.97L583.51,165.66L583.69,162.61L584.05,167.92L584.23,169.27L585.13,164.76L585.31,165.22L585.49,167.21L585.68,167.17L585.86,168.7L586.22,165.14L586.76,166.59L586.94,166.37L587.66,169.56L587.84,168.56L588.02,167.92L588.39,172.03L588.75,171.13L588.93,170.24L589.47,168.12L589.65,170.37L589.83,172.3L590.01,173.53L590.19,171.15L590.37,169.45L591.28,174.43L591.46,171.34L591.64,171.34L591.82,172.14L592.18,175.56L592.36,172.77L592.54,172.45L593.63,177.21L593.81,175.38L593.99,173.87L594.17,177.26L594.35,179.57L594.71,179.84L595.25,176.3L595.43,177.3L595.61,181.81L595.79,182.52L595.98,179.66L596.34,180.08L596.52,178.95L597.96,186.94L598.14,185.65L598.32,183.75L598.87,181.84L599.05,183.87L599.23,186.11L599.41,190.65L599.95,189.35L600.13,188.21L600.85,189.6L601.04,188.43L601.94,193.73L602.12,194.57L602.48,191.23L602.66,195.8L602.84,195.35L603.57,192.94L603.75,194.45L604.65,200.31L605.01,199.01L605.19,198.96L605.55,198.66L606.64,204.97L606.82,204.2L607,203.38L607.18,203.1L607.36,203.63L607.54,207.16L607.9,202.58L608.08,204.42L608.26,207.72L608.44,206.84L608.81,208.73L608.99,207.87L609.17,207.94L609.35,207.74L609.53,208.49L609.71,210.62L610.25,212.41L610.43,213.23L611.34,215.35L611.52,215.32L611.7,215.05L611.88,215.81L612.06,218.17L612.24,220.42L612.6,216.14L612.78,218.09L612.96,217.92L613.14,215.81L613.5,219.46L613.68,219.48L614.23,221.75L614.41,217.03L614.77,221.76L614.95,218.99L615.49,217.43L615.67,220.8L615.85,222.82L616.03,219.04L616.21,216.79L616.76,214.15L616.94,215.65L617.12,217.1L618.38,212.34L618.56,212.95L618.74,213.3L618.93,211.27L621.09,198.96L621.27,200.06L621.46,200.39L622.9,186.62L623.08,189.71L623.26,190.28L624.89,172.13L625.07,173.86L626.15,158.1L626.33,161.3L626.52,160.76L627.24,152.66L627.6,153.35L627.78,151.58L629.59,133.59L629.77,132.59L629.95,130.76L630.31,133.01L630.49,132.59L630.67,131.15L631.58,122.16L631.76,119.87L631.94,119L632.12,120.28L632.3,121.3L633.38,113.91L633.56,114.54L633.74,114.7L633.92,114.41L634.11,112.29L635.01,107.25L635.19,108.77L635.55,109.64L635.91,104.98L636.09,105.9L636.27,108.38L636.45,108.37L636.63,106.98L637.18,107.85L637.36,107.52L637.54,108.75L637.72,109.16L637.9,106.02L638.44,110.04L638.62,108.89L638.8,108.29L639.16,105.35L639.53,107.36L639.71,106.75L639.89,105.14L640.25,108.17L640.43,106.13L640.61,107.55L640.97,111.28L641.51,109.69L641.69,110.72L642.42,116L642.78,114.95L642.96,111.33L643.14,108.39L643.32,113.1L643.5,116.06L643.68,115.44L644.04,116.05L644.22,117.8L644.59,117.46L645.13,121.66L645.31,119.94L645.49,119.84L645.67,124.47L645.85,125.14L646.03,122.47L646.21,120.63L646.39,124.02L646.57,123.88L646.75,123.65L646.94,123.38L647.12,124.13L647.48,123.9L647.66,126.04L648.02,125.33L648.38,126.5L648.56,124.55L649.47,132.19L649.65,130.49L649.83,128.47L651.09,133.04L651.27,134.01L651.63,132.01L652.18,136.42L652.36,134.86L653.8,142.67L653.98,138.15L654.34,138.46L654.53,136.44L654.71,141.04L655.07,139.87L655.43,144.7L655.61,143.67L655.79,140.61L655.97,140.8L656.15,143.48L656.69,141.28L656.87,142.33L657.05,143.32L657.42,147.08L657.78,144.44L657.96,142.57L658.14,141.91L658.32,146.99L658.68,146.35L658.86,147.72L659.04,149.12L659.22,148.66L659.4,150.74L659.58,149.77L659.77,144.11L660.13,144.44L660.31,147.29L661.39,153L661.57,149.37L661.93,153.39L662.11,150.22L662.3,146.33L662.66,152.52L662.84,153.62L663.02,150.68L663.56,152.19L663.74,153.42L663.92,152.99L664.28,153.85L664.46,151.17L665.55,156.15L665.73,153.08L666.45,158.59L666.63,155.29L666.81,154.95L667.17,156.66L667.54,155.1L667.72,153.95L668.62,158.99L668.8,157.48L668.98,158.14L669.16,162.18L669.52,154.67L669.89,159.46L670.07,158.27L670.25,158.57L670.43,157.21L671.33,160.5L671.51,160.13L671.69,158.93L672.78,163.39L672.96,162.98L673.32,158.31L673.68,162.27L673.86,162.03L674.04,162.69L674.22,160.59L674.4,159.56L675.13,164.11L675.31,164.03L675.49,164.98L675.85,162.02L676.03,163.95L676.21,165.09L676.39,164.55L676.57,168.22L676.93,162.99L677.29,165.12L677.47,165.83L678.38,168.82L678.56,167.91L678.74,167.26L678.92,167.69L679.1,166.43L679.28,165.46L679.82,165.09L680.37,167.26L680.55,171.62L681.09,168.25L681.27,171.6L681.45,171.59L681.63,168.7L682.17,169.56L682.35,171.73L682.53,171.33L682.72,168.39L682.9,167.87L683.08,171.13L683.44,173.08L683.98,172.61L684.16,171.78L684.34,172.28L684.52,170.44L685.61,176.85L685.79,175.4L686.15,178.34L686.33,175.86L686.51,174.61L686.87,177.35L687.05,174.74L687.23,173.79L687.78,180.1L687.96,177.6L688.14,173.96L688.5,179.23L688.86,177.13L689.04,176.11L689.76,181.33L689.94,180.39L690.12,178.45L691.03,182.8L691.21,181.44L691.39,180.92L691.57,183.21L691.93,179.95L692.29,183.1L692.47,182.7L692.84,183.19L693.02,185.21L693.2,185.5L693.38,184.09L694.28,188.57L694.46,185.98L694.64,185.75L694.82,189.97L695.37,185.77L695.55,188.07L695.73,189.64L696.09,186.48L696.27,190.87L696.45,192.15L696.99,187.5L697.35,190.31L697.53,191.14L697.89,190.67L698.26,195.07L698.44,192.24L698.98,194.86L699.16,192.33L699.34,192.44L700.24,195.82L700.42,195.69L700.79,196.07L700.97,194.52L701.33,193.85L701.51,195.44L701.87,199.31L702.05,198.59L702.23,196.32L702.59,199.86L702.77,197.79L702.95,195.29L703.14,194.69L703.32,196.78L703.68,199.66L703.86,196.04L704.04,192.91L704.4,199.16L704.94,197.49L705.12,199.36L705.3,201.93L705.67,198.57L705.85,197.36L706.03,198.43L706.39,197.15L706.57,196.57L706.93,195.74L707.29,199.91L707.47,198.98L707.65,194.56L707.83,194.5L708.01,196.08L708.56,196.54L708.74,195.07L710,189.66L710.18,193.45L710.36,193.63L710.54,192.98L710.73,194.87L711.27,188.32L711.63,190.63L711.81,188.94L712.17,189.45L712.35,186.73L712.53,186.38L712.71,187.02L712.89,184.92L713.26,186.6L713.44,179.38L713.62,176.05L713.98,182.94L714.16,180.78L714.34,180.72L714.52,182.15L716.33,171.69L716.51,171.01L716.87,171.47L717.05,169.5L717.23,170.41L717.41,167.4L717.95,169.01L718.5,159.58L718.68,160.95L720.12,149.82L720.3,153.22L721.21,148.39L721.39,149.23L721.57,150.68L722.83,139.15L723.01,141.99L723.19,142.49L723.37,140.6L724.64,133.33L724.82,133.45L725,135.19L725.18,134.58L725.36,131.12L725.54,130.95L725.72,132.1L725.9,134.06L726.27,132.17L726.45,130.61L726.99,126.37L727.35,128.31L727.53,127.75L727.71,128.26L727.89,125.85L728.07,125.62L728.25,126.35L728.43,128.63L728.62,128.71L728.8,125.9L729.16,127.29L729.34,123.01L729.52,121.6L729.7,122.1L729.88,124.82L730.06,128.37L730.42,124L730.6,121.72L730.96,127.24L731.33,123.67L731.51,123.94L731.69,121.03L732.05,126.12L732.23,124.03L732.41,124.76L732.95,124.44L733.13,121.63L733.68,124.22L734.04,123.08L734.22,122.26L734.58,127.23L734.94,123.03L735.12,120.67L736.57,127.19L736.75,125.2L737.11,123.5L737.47,124.55L737.65,126.67L737.83,128.24L738.19,125.35L738.37,126.4L738.55,127.11L738.74,128.57L739.1,126.7L739.28,125.56L739.64,124L739.82,127.89L740,128.97" style="vector-effect: non-scaling-stroke; fill: none; stroke: rgb(245, 133, 24); stroke-opacity: 1; stroke-width: 1px; opacity: 1;"/></g><g class="points"/><g class="text"/></g><g class="trace scatter trace197317" style="stroke-miterlimit: 2; opacity: 1;"><g class="fills"/><g class="errorbars"/><g class="lines"><path class="js-line" d="M0,151.22L5.06,159.47L5.24,159.72L12.29,168.25L12.47,168.46L22.59,180.82L22.77,181.07L30.36,192.84L30.54,193.16L37.95,207.39L38.13,207.77L50.78,232.54L50.96,232.77L53.85,235.17L54.03,235.22L55.84,234.96L56.02,234.85L57.83,232.67L58.01,232.34L60.18,226.53L60.36,225.88L62.89,213.81L63.07,212.73L66.32,188.3L66.5,186.69L76.08,101.83L76.26,100.98L78.43,94.59L78.61,94.37L79.87,94.12L80.05,94.26L81.32,96.25L81.5,96.67L83.85,104.42L84.03,105.15L94.87,148.42L95.05,148.94L99.75,160.11L99.93,160.47L105.35,169.67L105.53,169.94L116.2,184.61L116.38,184.86L133,206.09L133.18,206.25L137.16,208.62L137.34,208.67L139.87,208.55L140.05,208.48L142.4,206.73L142.58,206.53L145.29,202.05L145.47,201.65L148.54,192.87L148.72,192.24L152.7,175.08L152.88,174.18L163.18,123.9L163.36,123.34L166.25,117.01L166.43,116.78L168.42,115.48L168.6,115.47L170.41,116.13L170.59,116.27L173.3,119.57L173.48,119.85L187.03,141.63L187.21,141.83L192.09,146.17L192.27,146.29L197.69,149.33L197.88,149.41L205.47,151.99L205.65,152.03L235.82,160.42L236,160.5L243.78,164.57L243.96,164.68L252.45,171.2L252.63,171.36L259.5,178.87L259.68,179.1L265.82,188.11L266,188.41L272.15,200.1L272.33,200.48L279.19,217.09L279.37,217.57L287.15,239.7L287.33,240.22L293.11,254.63L293.29,254.96L295.82,258.14L296,258.24L297.63,258.22L297.81,258.1L299.25,256.11L299.43,255.73L301.24,249.92L301.42,249.13L303.77,234.81L303.95,233.38L306.84,203.83L307.02,201.59L312.44,123.14L312.63,120.61L316.06,83.38L316.24,82.17L318.05,74.9L318.23,74.64L319.13,74.6L319.31,74.82L320.58,78.32L320.76,79.06L323.11,92.77L323.29,94.04L332.14,153.66L332.32,154.55L336.66,172.14L336.84,172.75L342.08,187.46L342.26,187.9L349.67,203.71L349.85,204.05L355.63,213.65L355.81,213.9L359.97,217.91L360.15,218L362.5,218.33L362.68,218.28L364.67,216.94L364.85,216.74L367.2,212.73L367.38,212.31L370.09,203.8L370.27,203.09L373.7,185.94L373.89,184.86L379.67,145.32L379.85,144.06L384.37,117.87L384.55,117.12L387.26,109.31L387.44,109.02L389.25,107.67L389.43,107.67L391.05,108.76L391.23,108.98L393.76,113.71L393.94,114.14L406.59,144.76L406.77,145.07L412.01,152.38L412.2,152.58L417.8,158L417.98,158.15L441.83,178.09L442.01,178.28L452.13,190.61L452.31,190.85L467.31,210.61L467.49,210.77L470.93,212.87L471.11,212.92L473.64,212.74L473.82,212.66L475.99,210.86L476.17,210.63L478.7,206.08L478.88,205.65L481.77,196.7L481.95,196.01L485.74,178.09L485.92,177.09L492.07,140.37L492.25,139.34L496.22,120.72L496.41,120.1L499.12,113.63L499.3,113.39L501.1,112.14L501.28,112.13L502.91,112.85L503.09,113.01L505.62,116.57L505.8,116.9L512.31,130.78L512.49,131.15L518.27,141.37L518.45,141.63L523.69,147.7L523.87,147.87L530.2,152.51L530.38,152.62L541.94,158.22L542.12,158.3L552.42,163.44L552.61,163.54L562.36,170.34L562.54,170.5L568.33,175.97L568.51,176.17L575.19,184.29L575.37,184.53L581.16,193.34L581.34,193.64L589.29,208.3L589.47,208.66L599.59,227.3L599.77,227.55L603.02,230.69L603.2,230.78L605.19,230.93L605.37,230.86L607.18,229.28L607.36,229.03L609.35,224.89L609.53,224.38L612.06,214.71L612.24,213.82L615.31,194.73L615.49,193.38L620.37,150.37L620.55,148.68L625.43,109.85L625.61,108.84L628.14,99.23L628.32,98.87L629.95,97.5L630.13,97.55L631.39,98.82L631.58,99.13L633.74,104.79L633.92,105.39L637.9,120.8L638.08,121.53L644.04,142.68L644.22,143.2L649.65,155.93L649.83,156.27L655.61,165.39L655.79,165.63L664.28,176.16L664.46,176.37L689.4,206.87L689.58,207.01L693.02,208.61L693.2,208.64L695.73,208.21L695.91,208.11L698.26,206.01L698.44,205.78L701.15,200.82L701.33,200.39L704.58,190.37L704.76,189.68L708.92,170.77L709.1,169.84L718.13,125.45L718.32,124.84L721.21,117.77L721.39,117.5L723.56,115.65L723.74,115.61L725.54,116.05L725.72,116.17L728.07,118.71L728.25,118.97L732.77,126.76L732.95,127.09L739.46,137.85L739.64,138.1L740,138.58" style="vector-effect: non-scaling-stroke; fill: none; stroke: rgb(228, 87, 86); stroke-opacity: 1; stroke-width: 1px; opacity: 1; stroke-dasharray: 9px, 9px;"/></g><g class="points"/><g class="text"/></g><g class="trace scatter trace3caa4e" style="stroke-miterlimit: 2; opacity: 1;"><g class="fills"/><g class="errorbars"/><g class="lines"><path class="js-line" d="M0,151.22L0.54,125.32L0.9,133.26L1.08,130.77L1.26,136.13L1.81,132.05L1.99,131.23L2.17,130.1L2.35,133.11L2.53,137.52L2.71,137.8L2.89,137.09L3.07,139.16L3.61,139.72L3.79,134.76L3.98,136.43L4.16,138.58L4.7,137.36L5.06,146.08L5.24,143.8L5.42,143.63L5.6,141.35L5.78,136.56L6.14,146.07L6.32,146.83L6.87,140.39L7.05,141.05L7.23,149.74L7.59,143.17L7.95,150.2L8.13,148.41L8.49,151.01L8.67,145.72L8.85,140.27L9.04,147.5L9.22,153.2L9.58,147.18L9.94,150.26L10.12,150.91L10.48,155.56L10.66,152.82L10.84,153.94L11.02,161.4L11.2,160.58L11.38,155.31L11.57,153.53L11.75,155.7L11.93,157.32L12.11,158.98L12.29,156.39L12.47,155.2L12.83,160.05L13.19,154.78L13.37,156.1L14.1,158.39L14.28,163.61L14.46,166.94L14.64,159.36L14.82,155.72L15.36,167.17L15.54,161.08L15.72,156.62L16.08,170.73L16.44,161.14L16.63,160.52L17.71,171.41L17.89,169.91L18.25,169.64L18.43,165.73L18.97,175.38L19.34,173.38L19.52,171.64L20.06,179.68L20.24,173.5L20.42,167.21L20.78,181.51L21.32,173.99L21.5,177.41L21.68,178.12L21.87,175.79L22.23,187.69L22.59,181.46L22.77,179.22L24.03,188.58L24.21,186.05L24.4,179.97L24.76,188.45L24.94,190.81L25.3,185.3L25.66,189.32L25.84,191.12L26.02,192.02L26.2,191.67L26.38,185.87L26.56,186.2L26.74,190.57L26.93,190.06L27.11,192.88L27.47,191.15L27.83,198.48L28.01,197.62L28.19,187.89L28.55,190.89L28.73,195.98L29.09,200.85L29.46,196.64L29.64,194.23L30.18,205.66L30.36,200.22L30.54,198.43L31.44,205.04L31.62,202.49L31.8,197.37L32.17,207.81L32.35,203.56L32.53,206.51L32.89,200.81L33.07,204.22L33.25,205.96L33.43,201.23L33.79,206L33.97,209.72L34.33,204.29L34.88,216.19L35.06,216.55L35.96,210.66L36.14,213.49L36.32,213.25L36.5,214.33L36.68,211.84L36.86,215.46L37.05,219.17L37.59,220.74L37.77,214.54L37.95,217.85L39.03,223.99L39.21,220.55L39.39,220.64L39.58,224.22L39.76,224.1L39.94,227.22L41.02,238.18L41.2,235.51L41.56,228.62L41.74,235.41L41.92,239.4L42.47,230.56L42.65,233.5L42.83,237.21L43.01,235.6L43.19,240.04L43.37,242.04L43.73,238.63L44.27,239.39L44.45,238.96L45.18,246.24L45.36,244.68L45.54,244.05L46.26,257.32L46.44,254.86L46.62,249.55L47.16,257.64L47.35,256.92L47.53,253.11L47.89,259.93L48.25,259.44L48.43,255.16L48.61,251.99L48.79,259.04L48.97,262.7L49.15,256.4L49.33,261.23L49.51,270.84L50.24,262.81L50.42,256.69L51.32,271.54L51.5,270.08L51.68,268.36L51.86,273.36L52.04,278.25L52.59,271.51L52.77,277.66L53.13,272.83L53.31,284.97L53.85,275.37L54.03,276.18L54.21,282.59L54.57,281.19L54.75,286.56L55.12,287.46L55.48,283.65L55.66,286.77L56.2,284.99L56.38,290.2L56.56,289.63L56.74,287.03L56.92,286.02L57.1,289.13L57.28,293.18L58.19,286.49L58.37,286.53L58.55,293.32L58.91,297.68L59.09,294.94L59.27,293.56L59.45,291.38L59.81,296.13L60,295.63L60.18,289.82L60.54,300.21L60.72,294.52L60.9,294.02L61.08,299.32L61.62,294.51L61.8,298.27L62.34,304L62.53,302.09L62.71,299.69L63.07,300.07L64.15,290.01L64.33,294.37L64.87,293.66L65.05,289.35L65.24,291.1L65.42,289.48L65.6,286.98L65.78,291.62L65.96,283.55L66.14,280.49L66.32,286.54L66.68,280.89L66.86,277.76L67.04,279.51L67.22,278.43L67.4,271.26L67.58,264.94L68.13,270.65L68.31,272.71L69.57,254.19L69.75,255.68L71.74,227.6L71.92,231.35L73.55,199.5L73.73,202.54L75.17,167.73L75.36,171.04L75.54,171.06L75.72,167.72L76.98,141.1L77.16,142.72L77.34,143.16L77.52,140.92L78.43,125.92L78.61,128.02L79.51,113.65L79.69,114.29L81.68,88.98L81.86,93.52L82.58,79.07L82.76,85.05L82.95,86.39L83.13,91.52L83.31,86.12L83.49,73.55L83.85,80.05L84.21,77.02L84.39,71.71L84.75,79.07L85.11,73.02L85.29,66.35L85.66,66.02L86.02,71.39L86.2,63.13L86.38,63.18L86.56,67.48L86.74,70.15L86.92,67.69L87.1,62.14L87.64,75.43L87.82,69.65L88,65.22L88.37,76.18L88.91,73.26L89.09,72.47L89.27,71.51L89.45,80.7L90.17,69.97L90.35,70.28L90.53,73L91.62,80.71L91.8,74.81L92.16,84.91L92.52,81.97L92.7,79.01L93.61,89.11L93.79,91.57L94.33,84.68L94.51,86.45L94.69,92.47L95.05,88.29L95.41,90.37L95.59,91.19L96.68,103.23L96.86,108.29L97.22,96.95L97.76,101.73L97.94,105.14L98.49,104.46L98.67,108.46L98.85,107.96L99.03,106.22L99.93,115.09L100.11,114.34L100.84,123.85L101.02,121.05L101.2,117.79L102.28,126.61L102.46,125.97L103,132.46L103.18,130.52L103.37,128.18L103.55,126.46L103.73,127.94L103.91,134.99L104.09,137.11L104.27,130.28L104.99,140.81L105.17,133.75L105.35,134.44L106.26,145.4L106.44,138.73L107.52,152.85L107.7,150.48L107.88,149.84L108.06,153.81L108.24,156.67L108.42,148.82L108.61,145.96L109.33,153.74L109.51,161.4L109.87,150.14L110.41,156.21L110.59,154.99L110.95,157.75L111.14,153.99L111.32,155.28L111.5,156.41L112.22,168.55L112.4,162.22L112.58,159.11L112.94,165.81L113.12,173.46L113.67,161.85L113.85,163.89L114.03,170.04L114.39,168.76L114.75,176.64L114.93,171.17L115.47,169.6L115.83,177.99L116.01,176.52L116.2,174.19L116.56,179.75L117.1,178.46L117.28,179.99L117.64,173.63L118,179.13L118.18,186.72L119.27,176.28L119.45,179.39L120.35,185.63L120.53,181.2L121.44,193.61L121.62,193.22L121.8,188.41L122.7,195.14L122.88,192.04L123.24,189.99L123.42,193.54L124.51,202.15L124.69,197.33L124.87,196.7L125.05,201.58L125.23,200.46L125.41,202.07L125.59,206.52L125.95,198.45L126.32,203.51L126.5,206.26L127.04,207.7L127.4,195.84L127.58,199.1L128.3,211.55L128.48,209.65L128.66,208.92L128.84,211.67L129.21,208.28L129.39,209.03L129.57,209.37L129.75,213.54L130.11,208.14L130.29,210.35L130.47,210.75L130.65,214.03L131.01,208.4L131.19,206.97L131.56,218.04L131.92,210.95L132.1,214.39L132.64,209.02L132.82,214.31L133,214.3L133.18,210.92L133.72,219.9L133.9,213.52L134.09,212.73L135.35,221.27L135.53,215.6L135.71,212.58L135.89,214.78L136.07,219.82L136.62,225.04L136.8,230.18L137.16,220.94L137.7,224.17L137.88,220.93L138.96,226.37L139.15,226.45L139.51,220.12L139.69,225L139.87,226.85L140.05,223.99L140.23,220.89L140.59,231.02L140.95,225.19L141.13,225.7L141.31,226.07L141.49,228.99L141.86,221.61L142.04,227.48L142.22,221.96L142.58,230.45L142.76,224.12L142.94,226.32L143.12,229.97L143.48,222.81L143.66,219.57L144.39,227.23L144.57,224.3L144.75,222.69L144.93,222.89L145.11,226.46L145.83,222.29L146.01,226.21L146.37,224.36L146.55,224.89L146.74,225.48L148.18,214.89L148.36,218.39L148.72,222.9L149.08,219.99L149.26,218.22L149.81,219.09L150.35,208.55L150.53,207.56L151.25,216.56L151.43,210.63L151.61,205.27L151.79,199.96L151.98,202.6L152.16,211.57L152.88,200.37L153.06,205.06L153.24,204.83L153.42,198.18L154.14,198.77L154.32,194.51L154.69,200.28L154.87,199.28L155.05,193.68L155.23,187.25L155.77,190.84L155.95,193.87L157.04,177.08L157.22,176.49L157.4,179.43L157.58,174.65L157.76,172.9L157.94,177.6L158.3,170.1L158.48,169.37L158.66,173.59L159.02,171.14L159.2,168.45L160.11,157.49L160.29,152.72L161.19,160.55L161.37,162.75L162.82,141.54L163,141.06L163.18,142.22L163.36,139.4L163.54,136.9L163.72,134.01L164.26,135.61L164.44,138.34L165.17,133.17L165.35,134.84L165.53,138.12L166.25,125.8L166.43,131.03L166.61,129.47L167.34,119.1L167.52,120.86L167.7,124.12L168.24,119.34L168.78,120.47L168.96,121.38L169.14,120.83L169.32,117.38L169.68,114.63L169.87,116.17L170.05,117.79L170.23,114.05L170.77,114.36L170.95,116.71L171.13,118.25L171.31,110.94L171.49,106.15L171.85,112.11L172.03,109.59L172.21,113.54L172.4,116.23L172.76,114.57L172.94,111.3L173.3,115.15L173.48,108.94L173.66,109.17L173.84,108.06L174.02,108.32L174.2,106.38L174.38,105.31L174.56,112.99L175.11,103.75L175.47,107.25L175.65,107.51L176.37,114.1L176.55,111.32L176.73,108.35L176.91,109.31L177.09,107.91L177.27,105.64L177.46,105.36L177.64,106.11L177.82,108.78L178,108.81L178.18,106.11L179.08,115.61L179.26,110.44L179.62,109.96L179.99,117.64L180.17,117.46L180.35,114.67L180.71,111.51L180.89,113.04L181.07,117.14L181.43,111.65L181.61,115.25L181.79,118.2L181.97,115.98L182.33,120.73L182.52,116.26L182.7,116.51L183.06,110.27L183.42,112.08L183.6,115.42L183.78,121.04L184.32,115.88L184.5,117.04L184.68,124.46L185.05,117.98L185.23,111.18L186.31,126.11L186.49,121.01L186.67,113.18L187.03,127.2L187.58,125.17L187.76,125.91L188.12,123.67L188.3,125.7L188.48,126.88L188.66,129.57L189.02,129.15L189.2,124.59L189.38,124.5L189.56,127.94L189.74,124.8L189.92,130.5L190.11,133.05L190.65,119.95L191.01,124.88L191.19,126.99L191.37,126.91L191.55,127.93L191.73,129.64L191.91,128.84L192.09,125.71L192.63,134.58L192.82,129.74L193,127.93L193.18,128.32L193.36,131.54L193.54,130.53L193.72,134.33L194.08,128.88L194.26,135.12L194.44,131.71L194.62,132.17L194.8,130.02L194.98,134.51L195.16,135.55L195.53,130.99L195.89,135.54L196.07,140.27L196.43,133.18L196.61,140.08L196.79,142.09L197.33,129.86L197.51,133.55L197.69,137.75L198.6,130.89L198.78,134.13L200.22,147.37L200.41,146.24L200.59,137.07L201.13,137.86L201.31,135.04L201.85,145.58L202.03,143.04L202.21,138.11L202.57,142.67L203.12,141.75L203.3,141.07L203.48,141.91L203.66,146.34L204.02,134.92L204.56,139.32L204.74,142.78L204.92,140.23L205.28,143.63L205.47,143.86L205.65,145.2L205.83,143.63L206.01,139.48L206.73,146.9L206.91,140.17L207.27,148.39L207.45,146.63L207.63,141.83L208,140.41L208.18,142.47L208.36,148.01L208.54,149.22L208.72,145.7L208.9,142.31L209.44,149.96L209.62,147.71L209.8,143.34L210.34,148.65L210.53,146.9L210.71,142.73L210.89,140.35L211.07,147.82L211.25,151.86L211.43,146.6L211.97,150.04L212.15,148L212.69,150.23L212.87,148.28L213.05,144.52L213.42,152.9L213.6,151.1L213.78,146.1L213.96,150.96L214.5,145.35L214.68,145.5L214.86,142.51L215.04,150.08L215.22,149.42L216.13,143.22L216.31,146.04L216.49,154.58L217.03,151.9L217.21,150.35L217.57,152.98L217.75,150.51L218.11,149.13L218.3,151.65L218.48,151.79L218.66,151.26L218.84,152.99L219.2,149.2L219.38,145.2L220.1,154.1L220.28,153.47L220.46,154.02L220.64,151.53L221.19,153.92L221.37,157.63L221.55,159.59L221.73,159.11L221.91,151.1L222.27,149.92L222.45,148.16L223.54,157.92L223.72,153.64L223.9,154.17L224.08,158.27L224.44,152.88L224.62,155.17L224.8,159.27L225.52,149.97L225.7,150.56L225.89,150.94L226.79,159.79L226.97,156.33L227.15,151.26L227.33,151.52L227.51,154.44L227.87,153.24L228.05,153.93L228.23,156.76L228.6,155.54L228.78,158.85L229.5,151.36L229.68,155.32L230.04,154.67L230.4,162.28L230.76,160.49L230.95,159.7L231.31,150.95L231.49,155.52L231.67,160.16L231.85,151.3L232.39,160.87L232.57,157.97L232.75,158.1L232.93,160.98L233.11,162.37L233.29,155.5L233.66,154.38L233.84,154.49L234.02,159.14L234.38,159.79L234.74,154.81L234.92,157.73L235.1,160.57L235.46,163.09L235.82,156.09L236,159.77L236.19,155.62L236.55,158.06L236.73,160.84L236.91,164.09L237.09,159.18L237.45,160.74L237.63,163.41L237.81,164.77L237.99,159.21L238.35,159.67L238.53,163.18L238.9,158.76L239.26,161.58L239.44,161.13L239.62,156.82L239.98,163.58L240.16,159.14L240.34,165.02L240.7,157.81L241.06,160.76L241.25,165.39L241.43,165.21L241.61,161.74L241.97,166.74L242.15,161.89L242.33,160.18L243.23,169.36L243.41,162.07L243.59,158.39L243.96,164.78L244.14,165.55L244.32,165.62L244.5,160.85L245.04,168.5L245.22,166.11L245.4,159.74L245.76,156.58L245.94,162.37L246.12,168.2L246.31,161.21L246.67,171.37L246.85,168.86L247.03,168.75L247.21,168.87L247.39,166.4L247.57,166.26L247.75,170.86L247.93,170.2L248.11,164.4L248.65,172.06L248.84,168.58L249.02,165.58L249.56,162.05L249.92,171.74L250.1,168.94L250.28,166.9L250.64,169.23L250.82,170.19L251.55,162.59L251.73,169.85L251.91,170.74L252.09,168.57L252.27,164.68L253.35,173.24L253.53,172.78L253.71,173.16L253.89,168.54L254.8,175.93L254.98,169.26L255.16,164.36L255.52,168.55L255.7,172.6L255.88,175.57L256.42,172.56L256.61,171.56L256.79,178.28L257.15,169.73L257.33,175.57L257.51,176.95L257.69,180.08L258.05,177.14L258.23,175.91L258.41,176.18L258.59,179.16L258.77,187.23L259.14,176.08L259.32,182.78L259.5,181.39L259.68,178.22L259.86,182.48L260.04,187.41L260.76,175.49L260.94,177.53L261.12,178.05L261.3,176.84L261.48,181.92L261.67,191.75L262.21,183.36L262.39,184.47L263.11,181.86L263.29,185.96L263.47,184.75L263.83,186.36L264.01,186.32L264.2,187.84L264.56,186.05L264.74,180.77L264.92,181.87L265.1,192.74L265.46,186.87L266,188.41L266.18,189.53L266.36,191.52L266.54,188.02L266.73,185.65L266.91,186.3L267.09,194.61L267.45,186.7L267.63,193.22L267.81,197.23L268.17,195.15L268.35,192.49L268.53,198.95L269.07,196.36L269.26,194.34L269.44,192.1L269.8,194.83L269.98,193.73L270.16,198.76L270.34,199.03L270.52,197.87L270.88,194.93L271.06,191.43L271.79,202.79L271.97,197.74L272.15,200.25L272.33,196.46L272.51,194.29L273.77,209.4L273.95,210.47L274.13,210.98L274.32,207.23L274.5,203.54L275.04,205.65L275.22,210.46L275.94,212.86L276.12,211.16L276.48,208.93L276.66,209.49L276.84,212.3L277.57,217.34L277.75,210.17L278.11,222.3L278.29,217.87L278.47,214.71L278.83,224.98L279.01,219.68L279.19,209.31L280.1,221L280.28,215.5L281.18,225.33L281.36,223.87L281.54,221.82L281.9,230.95L282.45,230.13L282.63,230.85L282.81,227.2L283.17,233.02L283.35,233.54L283.53,229.77L283.71,236.15L284.07,230.05L284.25,237.64L284.43,237.69L284.62,241.91L284.8,243.06L284.98,242.45L285.16,239.48L285.34,234.54L285.7,241.82L285.88,241.23L286.24,238.1L286.96,249.63L287.15,245.08L287.51,249.15L287.69,246.55L287.87,242.31L288.05,242.22L288.23,246.36L288.95,251.23L289.13,247.24L289.49,254.58L289.86,251L290.04,250.71L290.58,253.96L290.94,252.49L291.12,253.27L291.3,249.34L291.48,259.78L291.66,264.95L292.75,256.3L292.93,259.59L293.11,258.36L293.29,264.25L293.47,263.01L293.65,267.99L293.83,268.3L294.01,265.99L294.55,270.61L294.74,269.55L294.92,263.93L295.1,260.86L295.28,264.04L295.46,270.2L296,262.87L296.18,267.08L296.36,267.01L296.72,264.02L297.26,265.55L297.45,267.57L297.63,270.68L297.81,265.18L297.99,263.38L298.71,263.28L298.89,267.22L299.07,265.88L299.25,267.3L299.43,265.09L299.61,265.47L299.79,262.73L299.98,260.33L300.16,264.54L300.34,268.12L301.06,257.59L301.42,259.12L301.6,261.23L302.69,247.88L302.87,253.3L303.05,256.48L303.23,251.23L303.59,255.89L303.77,253.05L304.67,239.16L304.85,241.3L305.04,242.43L305.22,237.66L305.4,238.07L305.58,237.66L305.76,229.92L306.3,214.61L306.66,220.81L306.84,222.01L308.83,184.03L309.01,189.98L309.19,190.03L309.37,189.52L309.55,186.67L309.91,178.66L310.1,175.04L311.54,144.12L311.72,145.96L311.9,148.86L313.53,118.84L313.71,123L314.97,98.36L315.16,100.81L316.06,88.16L316.24,92.77L316.96,80.62L317.5,82.18L317.68,82.59L317.87,83.76L318.05,80.23L318.23,82.6L318.41,78.77L319.13,72.69L319.31,77.64L320.21,84.56L320.4,84.29L320.58,85.87L320.76,83.21L320.94,78.47L321.12,79.53L321.3,88.99L321.48,89.76L321.66,83.5L321.84,83.53L322.02,86.86L322.38,84.11L322.56,86.14L322.74,87.19L323.47,87.13L323.83,94.35L324.01,96.02L324.55,96.57L324.73,93.24L324.91,94.55L325.09,96.92L325.82,110.83L326,107.44L326.18,105.44L326.36,103.6L326.54,109.8L327.99,124.23L328.17,121.63L328.53,125.8L328.89,124.43L329.07,121.58L329.43,126.73L329.61,131.36L329.97,133.14L330.15,129.81L330.33,130.36L330.52,138.84L330.7,140.6L330.88,139.34L331.06,136.67L331.24,133.67L331.42,140.02L331.6,138.27L331.78,138.5L332.14,149.09L332.5,142.09L332.68,144.36L333.41,159.44L333.77,155.34L333.95,153.12L335.03,162.56L335.21,161.53L335.39,159.4L335.76,158.26L335.94,162.01L336.12,163.69L336.48,164.54L336.84,159.67L337.02,165.56L337.38,173.96L337.74,164.52L337.92,171.98L338.11,170.97L338.47,178.4L338.65,170.18L338.83,171.79L339.01,176.17L339.37,171.7L339.55,175.62L339.73,174.34L339.91,171.94L340.09,180.16L340.63,185.87L340.82,182.68L341,179.37L341.72,192.3L341.9,187.24L342.08,184.78L342.26,181.44L342.62,187.31L342.8,185.9L343.16,192.33L343.53,188.43L343.71,189.55L343.89,186.52L344.25,192.13L344.43,194.41L344.61,193.09L344.79,196.6L344.97,197.72L345.51,184.97L345.69,186.55L345.88,194.22L346.06,189.15L346.42,197.24L346.6,194.94L346.78,195.64L347.32,194.13L347.68,201.05L347.86,203.89L348.04,204.83L348.22,197.79L348.59,203.47L348.77,198.28L348.95,195.76L349.85,206.27L350.03,198.31L350.39,198.7L350.57,196.85L350.75,199.22L351.48,211.11L351.66,206.3L351.84,209.23L352.02,214.74L352.38,205.11L352.56,205.42L352.92,214.07L353.1,211.92L353.28,206.74L353.47,206.41L353.65,213.53L353.83,216.03L354.01,212.89L354.19,208.04L354.37,208.18L354.55,211.62L354.91,212.95L355.09,210.62L355.27,218.19L355.81,214.2L356,216.17L356.36,213.01L356.54,216.39L356.72,216.07L356.9,217.12L357.08,218.96L357.8,209.97L357.98,211.59L358.16,215.87L358.53,221.43L358.89,218.59L359.07,211.94L359.97,224.15L360.15,218.29L360.33,218.2L360.51,224.52L361.05,219.28L361.24,218.73L361.42,216.54L361.6,219.32L361.96,217.15L362.14,221.57L362.68,222.28L362.86,216.86L363.04,223.49L363.22,223.19L363.4,220.09L363.58,221.11L363.77,217.01L363.95,216.39L364.13,225.49L365.21,215.19L365.39,218.74L365.93,213.67L366.11,216.61L366.3,219.15L366.66,214.59L366.84,217.14L367.02,218.38L367.56,210.74L367.74,215.5L367.92,217.62L368.28,211.05L368.46,206.69L369.19,218.33L369.37,214.22L369.55,211.92L369.73,203.3L370.27,207.38L370.45,206.15L371.36,199.48L371.54,201.37L371.72,205.9L372.08,197.25L372.26,198.52L372.62,199.26L373.7,187.68L373.89,190.1L374.07,185.35L374.43,186.11L374.61,191.74L375.87,171.42L376.05,178.38L376.23,179.58L376.42,176.03L376.6,171.27L377.32,160.28L377.5,162.29L377.68,166.28L378.04,169.09L378.22,163.69L378.4,155.84L378.95,157.06L379.13,158.74L380.03,141.75L380.21,143.5L380.39,148.48L380.75,133.98L381.11,149.33L381.29,141.05L381.47,137.2L381.66,138.46L381.84,130.77L382.2,137.37L382.38,132.99L382.56,134.6L382.74,127.96L382.92,128.63L383.1,128.43L383.28,126.95L383.46,126.37L383.64,122.37L383.82,120.43L384.19,121.8L384.37,122.77L384.55,125.21L384.73,117.39L384.91,118.85L385.27,117.3L385.45,117.55L385.63,117.9L385.99,109.89L386.17,111.63L386.35,114.56L386.53,114.63L386.72,114.13L386.9,115.1L387.62,108.53L387.8,111.15L387.98,110.25L388.34,111.75L388.52,106.66L388.88,108.49L389.06,104.99L389.43,107.37L389.61,103.59L389.97,113.86L390.33,109.79L390.51,110.03L390.87,102.03L391.23,110.6L391.41,112.02L391.59,115.16L391.78,111.83L391.96,114.34L392.14,109.71L392.32,104.27L392.68,112.91L392.86,112.13L393.04,109.13L393.4,111.73L393.58,117.79L393.76,118.39L393.94,117.81L394.12,110.66L395.03,120.33L395.21,118.05L395.39,114.32L395.57,121.01L395.93,112.12L396.11,116.34L396.29,114.78L397.02,123.78L397.2,121.11L397.38,118.38L397.56,120.14L397.74,119.39L397.92,115.08L398.64,128.18L398.82,125.75L399,122.05L399.37,130.64L399.73,127.65L399.91,116.94L400.99,130.35L401.17,128.73L401.35,125.72L401.53,134.92L402.26,134.23L402.44,133.87L403.16,133.4L403.34,140.87L403.52,136.49L403.7,128.71L404.06,139.13L404.24,139.33L404.61,139.03L405.15,140.16L405.33,139.08L405.51,138.92L405.69,135.28L406.05,143.38L406.23,140.17L406.41,138.91L406.59,137.58L406.77,138.6L406.95,143.67L407.32,137.73L407.5,145.48L407.86,143.38L408.04,140.63L408.22,141.25L408.4,137.27L408.76,148.43L409.3,145.29L409.48,146.34L410.03,148.98L410.21,143.3L410.57,148.08L411.11,147.64L411.29,148.99L411.47,152.38L412.01,150.77L412.2,149.33L412.38,148.67L412.56,150.09L412.74,150.05L412.92,153.73L413.1,159.98L413.46,152.08L413.64,153.83L413.82,148.68L414,147.78L414.18,152.31L414.73,149.79L415.09,160L415.27,153.58L415.45,152.88L415.63,157.7L416.17,154.16L416.35,152.96L416.53,153.25L416.71,158.62L416.89,152.82L417.44,155.91L417.62,159.16L417.8,161.31L417.98,158.65L418.16,159.39L418.34,155.2L418.52,150.97L418.7,156.98L419.06,151.14L419.24,157.87L419.6,154.78L419.79,159.41L420.33,162.17L420.51,156.67L420.69,153.21L420.87,160.17L421.05,159.79L421.23,159.52L421.41,157.17L421.59,159.71L421.77,162.34L421.95,161.52L422.13,156.37L422.32,154.72L422.5,163.88L422.68,166.52L423.22,164.29L423.4,159.41L423.76,157.25L423.94,159.93L424.12,163.03L424.66,159.05L424.84,163.38L425.21,159.73L425.39,164.69L425.57,166.59L425.75,161.91L426.29,162.47L426.47,165.97L426.65,169.39L427.01,164.68L427.19,162.69L427.56,154.85L427.74,162.97L427.92,163.38L428.82,167.91L429,167.03L429.18,161.1L429.72,164.46L429.9,166.84L430.09,165.64L430.27,170.7L431.17,163.31L431.35,166.39L431.53,166.05L431.71,169.25L432.07,165.21L432.25,168.09L432.43,171.1L432.62,173.94L432.8,167.11L432.98,168.08L433.7,175.47L433.88,169.42L434.06,165.61L434.24,173.25L434.6,170L434.78,172.62L435.15,166.27L435.51,168.27L435.69,170L435.87,173.51L436.05,168.5L436.23,159.93L437.13,177.03L437.31,172.95L437.49,177.46L438.04,176.66L438.22,175.14L438.76,178.48L438.94,176.17L439.12,172.56L439.48,182.88L439.84,172.05L440.02,174.21L440.57,173.59L440.75,181.45L440.93,180.3L441.11,175.9L441.29,176.66L441.47,174.45L441.65,181.68L442.01,170.51L442.19,178.15L442.37,181.62L442.55,174.56L443.1,177.91L443.28,182.42L443.46,183.86L443.82,182.77L444,178.08L444.9,184.47L445.08,181.91L445.26,176.67L445.45,187.72L445.81,176.01L446.17,186.3L446.35,185.48L446.53,186.54L446.71,182.08L446.89,178.24L447.25,184.39L447.43,178.35L447.61,181.49L447.79,190.44L448.34,184.24L448.52,183.77L448.7,184.87L448.88,181.62L449.06,184.75L449.24,190.28L449.6,184.14L450.14,185.81L450.32,187.01L450.69,191.74L451.23,190.89L451.41,191.15L451.95,194.3L452.13,189.3L452.49,194.42L452.67,192.85L452.85,187.67L453.58,195.8L453.76,190.72L454.84,196.27L455.02,196.64L455.2,194.96L455.75,195.2L455.93,199.4L456.29,193.85L456.47,194.73L456.65,197.59L457.37,192.03L457.73,193.87L457.91,194.17L458.28,202.92L458.64,198.08L458.82,197.09L459,197.44L459.18,195.49L459.72,204.32L459.9,198.88L460.26,195.7L460.44,204.87L460.81,196.89L460.99,205.63L461.17,206.38L461.71,199.58L461.89,206.8L462.07,204.93L462.25,205.49L462.43,214.23L462.61,215.52L462.79,212.06L462.97,206.51L463.34,197.26L463.7,201.27L463.88,204.84L464.42,203.36L464.96,218L465.14,215.2L465.32,209.05L465.68,219.51L465.87,211.65L466.05,207.32L466.23,204.18L466.59,209.62L466.77,208.23L467.13,212.41L467.31,205.32L467.49,205.35L468.03,210.92L468.21,206.5L469.12,215.87L469.3,213.59L469.48,213.67L469.66,213.86L469.84,208.38L470.74,219.29L470.93,213.75L471.11,207.29L471.65,210.19L471.83,217.54L472.01,217.67L472.19,215.88L472.91,208.84L473.09,217.34L473.46,209.07L474,212.3L474.18,217.86L474.36,215.05L474.9,215.66L475.08,219.06L476.53,206.36L476.71,212.7L476.89,213.69L477.07,211.53L477.25,207.89L477.43,208.51L477.61,212.23L477.79,214.02L477.97,208.94L478.15,206.35L478.33,204.74L478.52,207.94L478.7,207.96L478.88,213.75L479.06,218.95L479.24,210.86L479.42,206.46L479.78,205.97L479.96,208.1L480.32,205.4L480.5,198.54L480.68,196.94L480.86,200.42L481.05,204L482.31,195.55L482.49,199.18L483.58,186.34L483.76,194.27L484.12,193.42L484.3,195.12L484.84,183.01L485.02,179.14L485.38,182.03L485.56,178.96L485.74,181.26L485.92,176.35L486.11,169.85L486.47,179.4L486.65,182.12L488.27,162.28L488.45,159.48L488.82,166.37L489,156.29L489.18,157.83L489.36,163.95L489.9,159.09L490.08,155.89L490.62,143.7L490.8,151.22L490.98,154.44L491.89,144.6L492.07,139.2L492.79,142.35L492.97,142.05L493.15,141.25L493.33,133.75L493.88,134.58L494.06,136.64L494.6,124.7L494.96,128.47L495.14,129.59L495.68,117.07L495.86,120.68L496.04,125.38L496.41,117.94L496.59,119.4L496.77,126.76L497.67,117.55L497.85,110.78L498.03,110.75L498.21,116.64L498.39,119.18L498.75,113.68L498.94,116.48L499.12,113.36L499.48,110.14L499.66,113.25L499.84,120.4L500.38,107.07L500.74,114.33L500.92,113.67L501.28,114.48L501.47,116.8L501.65,118.09L501.83,113.59L502.37,109.68L502.73,110.67L502.91,110.81L503.27,118.31L503.45,113.83L503.63,106.79L504.54,115.87L504.72,111.97L504.9,110.27L505.08,114.37L505.26,117.9L505.44,112.67L505.8,118.58L505.98,121.83L506.53,111.29L506.71,116.1L506.89,117.81L507.07,116.49L507.25,119.35L507.43,118.3L507.61,118.37L507.79,125.47L508.33,119.47L508.51,124.22L508.69,125.76L508.87,120.83L509.05,124.53L509.6,122.48L509.78,123.76L509.96,125.85L510.14,122.99L510.5,125.67L510.68,120.23L510.86,121.5L511.04,131.31L511.58,122.4L511.77,127.24L512.49,134L512.67,131.12L512.85,127.82L513.75,133.28L513.93,132.16L514.48,134.76L514.66,126.45L514.84,125.69L515.02,131.54L515.2,129.76L515.38,132.18L515.56,140.61L515.92,130.3L516.46,134.74L516.64,137.74L516.83,136.25L517.01,138.26L517.19,142.55L517.55,134.94L517.73,136.53L517.91,141.22L518.09,142.76L518.27,138.71L518.45,133.7L518.81,145.59L519.36,142.99L519.54,142.72L519.9,140.43L520.08,142.53L520.26,140.62L520.62,143.9L520.8,145.67L521.52,139.29L521.7,146.23L521.89,147.51L522.07,141.5L522.43,157.4L522.97,148.87L523.15,147.69L524.05,143.57L524.23,144.36L524.78,149.15L524.96,147.72L525.14,145.54L525.5,157.64L525.68,155.5L525.86,145.7L526.04,149.86L526.58,149.63L526.76,144.56L527.13,155.46L527.49,153.75L527.67,147.99L527.85,143.25L528.21,146.72L528.39,149.98L528.57,151.11L528.75,145.13L529.66,155.06L529.84,154.11L530.02,152.14L530.2,155.06L530.56,152.01L530.74,152.15L530.92,149.47L531.28,145.44L531.64,154.07L531.82,150.15L532.37,157.36L532.55,156.58L532.73,153.23L532.91,152.63L533.09,153.62L533.27,154.59L533.45,158.52L533.99,157.65L534.17,157.55L534.53,152.85L534.72,153.85L534.9,161.27L535.08,162.68L535.26,158.46L535.44,157L536.16,151.56L536.34,151.68L536.52,156.54L536.7,149.28L537.06,157.02L537.25,156.91L537.43,158.27L537.61,159.34L537.79,155.29L538.15,160.51L538.33,155.53L538.51,149.14L539.23,158.32L539.41,153.19L539.59,155.54L539.78,155.91L539.96,153.97L540.14,153L540.32,155.57L540.5,155.18L540.68,155.4L540.86,157.93L541.22,162.35L541.4,154.76L541.58,152.72L541.94,155.14L542.12,162.52L542.31,162.37L542.49,156.65L542.67,153.47L543.03,158.94L543.21,158.51L543.39,157.03L543.57,161.77L543.75,162.15L543.93,161.89L544.11,160.7L544.65,153.83L545.02,157.57L545.2,159.51L545.74,162.8L545.92,161.38L546.1,157.3L547.18,167.32L547.37,161.93L547.73,154.82L547.91,155.29L548.09,159.68L548.45,157.92L548.81,170.26L548.99,165.6L549.17,157.19L549.71,166.79L549.89,162.26L550.08,156.84L550.44,168.44L550.8,163.14L550.98,161.51L551.16,161.36L551.34,163.25L551.52,166.71L551.88,162.9L552.06,163.68L552.24,162.03L552.61,163.51L552.97,158.14L553.15,162.11L553.33,167.06L553.69,163.81L553.87,160.32L554.05,160.4L554.23,167.89L554.59,161.99L554.95,166.29L555.14,169.38L555.32,170.08L555.5,165.67L555.68,162.54L556.04,168.64L556.22,166.12L556.4,169.65L556.76,167.89L556.94,170.12L557.48,162.47L557.67,166.42L557.85,170.07L558.03,168.9L558.21,172.79L558.39,172.39L558.57,168.88L558.93,163.48L559.11,168.34L559.29,173.11L559.83,167.16L560.2,170.6L560.38,170.53L560.56,175.1L560.92,168.11L561.1,172.69L561.28,170.72L561.46,168.39L561.82,172.1L562,171.95L562.36,172.65L562.91,167.74L563.09,177.14L563.27,176.41L563.45,168.7L563.63,173.05L563.99,168.1L564.17,169.6L564.35,167.92L565.26,177.53L565.44,174.05L565.62,166.67L565.98,166.27L566.16,168.16L567.06,182.46L567.24,179.35L567.97,174.01L568.15,174.46L568.33,176.01L568.51,175.81L568.69,180.36L569.05,176.58L569.23,175.11L569.59,182.46L569.95,176.2L570.13,174.47L570.32,174.5L570.5,175.81L570.68,181.32L571.22,178.8L571.4,179.87L571.58,178.72L571.94,179.94L572.12,182.36L572.48,174.98L572.84,176.91L573.03,179.76L573.39,178.21L573.75,184.16L573.93,188.74L574.29,180.21L574.83,181.07L575.01,179.04L575.19,181.94L575.37,178.55L575.74,180.92L575.92,181.24L576.28,187.23L576.46,194.35L576.82,181.31L577,186.57L577.18,191.15L577.36,184.23L577.72,191.37L577.9,192.66L578.45,190.44L578.63,185.72L578.81,185.84L578.99,185L579.17,184.19L579.35,191.17L579.53,191.83L579.71,188.74L580.8,195.95L580.98,195.83L581.16,190.4L581.52,195.93L581.88,190.55L582.06,197.19L582.6,192.04L582.78,195.64L582.96,199.79L583.15,199.58L583.33,201.15L583.69,192.51L583.87,195.43L584.05,203.23L584.23,206.02L584.41,202.99L584.59,198.84L584.77,198.4L584.95,200.38L585.13,197.17L585.49,202.11L585.68,202.06L585.86,205.15L586.04,200.49L586.22,198.03L586.58,204.73L587.12,201.52L587.3,200.68L588.39,211.8L588.57,207.55L588.75,209.97L589.11,205.93L589.29,206.75L589.47,203.76L589.65,208.22L589.83,212.04L590.01,214.46L590.19,209.64L590.37,206.14L591.28,215.74L591.46,209.43L591.64,209.34L591.82,210.83L592.18,217.44L592.36,211.72L592.54,210.94L593.26,219.71L593.63,219.58L593.81,215.73L593.99,212.52L594.17,219.12L594.35,223.56L594.71,223.68L595.25,215.85L595.43,217.6L595.61,226.39L595.79,227.55L595.98,221.53L596.34,221.76L596.52,219.19L597.24,223.79L597.42,222.08L597.6,221.99L597.96,232.45L598.32,225.19L598.51,222.22L598.87,220.06L599.05,223.71L599.23,227.76L599.41,236.4L599.95,232.17L600.13,229.31L600.31,231.32L600.49,228.59L600.85,229.76L601.04,226.78L601.58,224.87L601.94,234.15L602.12,235.12L602.48,226.92L602.66,235.37L602.84,233.69L603.02,230.07L603.2,230.89L603.38,226.73L603.57,225.63L603.75,227.87L603.93,229.59L604.65,235.22L604.83,231.93L605.55,227.05L605.73,228.21L605.91,233.63L606.28,230.66L606.46,231.11L606.64,233.34L607.36,226.09L607.54,232.04L607.9,220.39L608.08,222.95L608.26,228.43L609.35,220.89L609.53,221.14L609.71,224.14L610.43,223.94L610.61,225.41L611.52,219.48L611.7,217.47L611.88,217.54L612.06,220.82L612.24,223.78L612.42,217.67L612.6,212L612.78,214.46L612.96,212.61L613.14,206.91L613.87,212.26L614.05,209.22L614.23,209.94L614.41,198.91L614.59,199.2L614.77,205.83L615.49,191.98L615.67,197.6L615.85,200.35L616.76,177.64L616.94,179.92L617.12,182.04L618.38,167.42L618.56,168.24L618.74,168.5L620.37,144.97L620.55,146.04L620.73,149.68L620.91,147.62L621.09,140.65L621.46,144.69L621.82,141.96L622,140.15L622.18,141.44L622.36,137.18L622.9,123.12L623.08,130.74L623.26,133.04L624.53,113.18L624.71,112.3L624.89,111.02L625.07,116.58L626.15,97.6L626.33,106.7L626.52,107.98L626.7,103.5L626.88,100.94L627.24,101.5L627.42,104.57L627.6,107.8L627.96,102.81L628.14,103.28L628.32,105.66L628.5,104.91L628.68,100.08L628.86,102.7L629.05,99.36L629.23,94.99L629.59,94.47L629.77,95.11L629.95,94.05L630.49,105.07L630.67,104.3L630.85,93.54L631.03,93.69L631.21,100.4L631.76,95.68L631.94,96.27L632.12,101.14L632.3,105.3L632.66,97.07L632.84,98.01L633.92,108.75L634.11,106.04L634.29,101.18L634.65,109.73L635.19,108.26L635.37,107.08L635.91,105.69L636.27,114.98L636.45,115.95L636.63,114.07L637,115.33L637.18,118.44L637.36,118.52L637.54,121.68L637.72,123.1L637.9,117.33L638.44,127.06L638.8,124.26L638.98,119.42L639.16,119.18L639.35,124.4L639.71,123.08L639.89,120.15L640.97,133.73L641.15,131.45L641.33,129.39L641.69,132.61L641.88,135.32L642.06,133.16L642.24,135.67L642.42,142.84L642.78,140.2L642.96,132.68L643.14,126.61L643.32,136L643.5,141.74L643.68,140.19L644.04,140.82L644.22,144.01L644.59,142.56L645.13,149.77L645.31,145.88L645.49,145.26L645.67,154.13L645.85,155L646.03,149.13L646.21,144.95L646.39,151.34L646.75,149.68L646.94,148.67L647.48,148.37L647.84,152.87L648.02,149.9L648.38,151.34L648.56,146.99L649.47,160.15L649.65,156.26L649.83,151.75L650.19,155.72L650.55,155.42L650.73,153.53L651.45,162.8L651.63,154.44L651.81,154.95L652,158.52L652.36,158.44L652.72,163.12L652.9,161.49L653.08,160.15L653.8,170.74L653.98,161.24L654.53,156.62L654.71,165.46L655.07,162.35L655.43,171.32L655.61,168.88L655.79,162.38L656.51,163.2L656.69,162.02L657.42,172.42L657.6,164.53L657.78,166.5L657.96,162.45L658.14,160.84L659.04,173.94L659.22,172.76L659.4,176.66L659.58,174.47L659.77,162.86L660.13,162.98L660.31,168.43L661.03,168.09L661.39,178.48L661.57,170.97L661.93,178.63L662.11,172.05L662.3,164.03L662.66,176.01L662.84,178.04L663.02,171.96L663.56,174.43L663.74,176.72L663.92,175.68L664.28,177.07L664.46,171.53L665.55,180.58L665.73,174.29L666.45,184.81L666.63,178.08L666.81,177.26L667.17,180.45L667.54,177.07L667.72,174.62L668.62,184.16L668.8,181.01L668.98,182.23L669.16,190.24L669.52,174.96L669.89,184.36L670.07,181.86L670.25,182.37L670.43,179.54L671.33,185.65L671.51,184.83L671.69,182.32L672.23,186.54L672.42,183.47L672.6,184.56L672.78,190.76L673.14,185.79L673.32,180.33L674.04,188.76L674.22,184.46L674.4,182.3L674.58,189.28L674.95,189.87L675.13,191.11L675.31,190.87L675.49,192.68L675.85,186.57L676.03,190.36L676.21,192.56L676.39,191.39L676.57,198.68L676.93,188.01L677.29,192.08L677.47,193.41L678.38,198.93L678.56,197L678.74,195.59L678.92,196.34L679.1,193.68L679.82,190.51L680,193.06L680.19,194.53L680.37,194.5L680.55,203.12L681.09,195.99L681.27,202.56L681.45,202.42L681.63,196.46L682.17,197.76L682.35,201.96L682.53,201L682.72,194.93L682.9,193.71L683.08,200.1L683.44,203.69L683.8,200.09L683.98,202.18L684.52,197.25L684.7,199.85L684.88,205.38L685.25,200.99L685.43,208.42L685.61,208.84L685.79,205.68L686.15,211.08L686.33,205.82L686.51,203.04L686.87,208L687.05,202.48L687.23,200.29L687.78,212.11L687.96,206.78L688.14,199.16L688.5,209.13L688.86,204.27L689.04,201.9L689.76,211.06L689.94,208.8L690.12,204.53L691.03,211.37L691.21,208.22L691.57,210.93L691.93,203.52L692.11,208.49L692.29,209.01L692.47,207.74L692.65,207.75L692.84,207.79L693.02,211.37L693.2,211.47L693.38,208.11L693.56,214.89L694.28,214.38L694.46,208.57L694.64,207.56L694.82,215.47L695.37,205.23L695.55,209.28L695.73,211.84L696.09,204.24L696.27,212.46L696.45,214.38L696.99,203.03L697.35,207.4L697.53,208.4L697.71,209.58L697.89,206.07L698.08,214.07L698.26,213.44L698.44,206.98L698.98,210.01L699.16,204.15L699.34,203.65L699.52,206.69L699.7,207.76L700.06,205.48L700.24,206.63L700.42,205.58L700.97,200.84L701.15,199.12L701.33,198.01L701.51,200.49L701.69,201.86L701.87,206.73L702.23,198.97L702.41,199.87L702.59,204.5L702.77,199.47L702.95,193.63L703.14,191.73L703.32,195.25L703.5,199.4L703.68,199.46L703.86,191.35L704.04,184.37L704.4,195.64L704.58,186.02L704.76,189.13L705.12,193.3L705.3,197.68L706.57,181.92L706.75,183.99L707.29,186.38L707.83,173.76L708.01,176.55L708.2,176.48L708.38,175.29L708.56,176.13L708.74,172.72L710,160.31L710.18,167.89L710.36,168.03L710.54,166.5L710.73,170.07L710.91,163.18L711.09,157.35L711.27,156.53L711.45,157.6L711.63,161.31L712.89,150.38L713.07,153.56L713.26,154.18L713.44,139.87L713.62,133.76L713.8,141.29L713.98,149L715.06,138.24L715.24,141.53L715.42,141.07L715.6,137.63L716.51,133.54L716.69,133.64L716.87,136.19L717.05,133.01L717.23,135.71L717.41,130.46L717.59,125.51L717.77,131.69L717.95,136.67L719.04,119.41L719.22,119.75L719.4,121.72L720.12,112.7L720.3,121.05L720.66,118.36L720.84,121.24L721.03,123.3L721.57,124.8L722.11,112.36L722.29,113.9L722.47,114.92L722.65,114.21L722.83,110.7L723.19,120.09L723.56,115.58L723.74,114.04L724.1,116.79L724.28,115.41L724.46,111.38L724.64,111.5L724.82,113.04L725,117.8L725.36,111.83L725.54,112.7L725.72,116.21L725.9,121.25L726.45,117.15L726.63,114.73L726.81,114.5L726.99,111.72L727.71,119.39L727.89,115.41L728.07,115.84L728.25,118.22L728.62,124.46L729.16,123.66L729.34,115.69L729.52,113.63L729.7,115.43L729.88,121.66L730.06,129.41L730.42,121.5L730.6,117.46L730.96,129.64L731.51,124.25L731.69,118.82L732.05,129.94L732.59,127.81L732.77,128.6L732.95,128.02L733.13,122.62L733.68,128.7L734.04,126.86L734.22,125.43L734.58,135.76L734.94,127.5L735.12,122.91L736.57,136.7L736.75,132.66L737.11,129.26L737.47,131.35L737.65,135.59L737.83,138.67L738.19,132.65L738.37,134.69L738.74,138.84L738.92,135.59L739.1,134.83L739.64,129.08L739.82,136.8L740,138.83" style="vector-effect: non-scaling-stroke; fill: none; stroke: rgb(228, 87, 86); stroke-opacity: 1; stroke-width: 1px; opacity: 1;"/></g><g class="points"/><g class="text"/></g></g></g><g class="overplot"/><path class="xlines-above crisp" d="M79,420.5H821M79,99.5H821" style="fill: none; stroke-width: 1px; stroke: rgb(0, 0, 0); stroke-opacity: 1;"/><path class="ylines-above crisp" d="M79.5,100V420M820.5,100V420" style="fill: none; stroke-width: 1px; stroke: rgb(0, 0, 0); stroke-opacity: 1;"/><g class="overlines-above"/><g class="xaxislayer-above"><path class="xtick ticks crisp" d="M0,421v5M0,99v-5" transform="translate(80,0)" style="stroke: rgb(68, 68, 68); stroke-opacity: 1; stroke-width: 1px;"/><path class="xtick ticks crisp" d="M0,421v5M0,99v-5" transform="translate(170.35,0)" style="stroke: rgb(68, 68, 68); stroke-opacity: 1; stroke-width: 1px;"/><path class="xtick ticks crisp" d="M0,421v5M0,99v-5" transform="translate(260.71000000000004,0)" style="stroke: rgb(68, 68, 68); stroke-opacity: 1; stroke-width: 1px;"/><path class="xtick ticks crisp" d="M0,421v5M0,99v-5" transform="translate(351.06,0)" style="stroke: rgb(68, 68, 68); stroke-opacity: 1; stroke-width: 1px;"/><path class="xtick ticks crisp" d="M0,421v5M0,99v-5" transform="translate(441.42,0)" style="stroke: rgb(68, 68, 68); stroke-opacity: 1; stroke-width: 1px;"/><path class="xtick ticks crisp" d="M0,421v5M0,99v-5" transform="translate(531.77,0)" style="stroke: rgb(68, 68, 68); stroke-opacity: 1; stroke-width: 1px;"/><path class="xtick ticks crisp" d="M0,421v5M0,99v-5" transform="translate(622.12,0)" style="stroke: rgb(68, 68, 68); stroke-opacity: 1; stroke-width: 1px;"/><path class="xtick ticks crisp" d="M0,421v5M0,99v-5" transform="translate(712.48,0)" style="stroke: rgb(68, 68, 68); stroke-opacity: 1; stroke-width: 1px;"/><path class="xtick ticks crisp" d="M0,421v5M0,99v-5" transform="translate(802.83,0)" style="stroke: rgb(68, 68, 68); stroke-opacity: 1; stroke-width: 1px;"/><g class="xtick"><text text-anchor="middle" x="0" y="440.4" transform="translate(80,0)" style="font-family: 'Open Sans', verdana, arial, sans-serif; font-size: 12px; fill: rgb(42, 63, 95); fill-opacity: 1; white-space: pre; opacity: 1;">0</text></g><g class="xtick"><text text-anchor="middle" x="0" y="440.4" style="font-family: 'Open Sans', verdana, arial, sans-serif; font-size: 12px; fill: rgb(42, 63, 95); fill-opacity: 1; white-space: pre; opacity: 1;" transform="translate(170.35,0)">500</text></g><g class="xtick"><text text-anchor="middle" x="0" y="440.4" style="font-family: 'Open Sans', verdana, arial, sans-serif; font-size: 12px; fill: rgb(42, 63, 95); fill-opacity: 1; white-space: pre; opacity: 1;" transform="translate(260.71000000000004,0)">1000</text></g><g class="xtick"><text text-anchor="middle" x="0" y="440.4" style="font-family: 'Open Sans', verdana, arial, sans-serif; font-size: 12px; fill: rgb(42, 63, 95); fill-opacity: 1; white-space: pre; opacity: 1;" transform="translate(351.06,0)">1500</text></g><g class="xtick"><text text-anchor="middle" x="0" y="440.4" style="font-family: 'Open Sans', verdana, arial, sans-serif; font-size: 12px; fill: rgb(42, 63, 95); fill-opacity: 1; white-space: pre; opacity: 1;" transform="translate(441.42,0)">2000</text></g><g class="xtick"><text text-anchor="middle" x="0" y="440.4" style="font-family: 'Open Sans', verdana, arial, sans-serif; font-size: 12px; fill: rgb(42, 63, 95); fill-opacity: 1; white-space: pre; opacity: 1;" transform="translate(531.77,0)">2500</text></g><g class="xtick"><text text-anchor="middle" x="0" y="440.4" style="font-family: 'Open Sans', verdana, arial, sans-serif; font-size: 12px; fill: rgb(42, 63, 95); fill-opacity: 1; white-space: pre; opacity: 1;" transform="translate(622.12,0)">3000</text></g><g class="xtick"><text text-anchor="middle" x="0" y="440.4" style="font-family: 'Open Sans', verdana, arial, sans-serif; font-size: 12px; fill: rgb(42, 63, 95); fill-opacity: 1; white-space: pre; opacity: 1;" transform="translate(712.48,0)">3500</text></g><g class="xtick"><text text-anchor="middle" x="0" y="440.4" style="font-family: 'Open Sans', verdana, arial, sans-serif; font-size: 12px; fill: rgb(42, 63, 95); fill-opacity: 1; white-space: pre; opacity: 1;" transform="translate(802.83,0)">4000</text></g></g><g class="yaxislayer-above"><path class="ytick ticks crisp" d="M79,0h-5M821,0h5" transform="translate(0,393.15)" style="stroke: rgb(68, 68, 68); stroke-opacity: 1; stroke-width: 1px;"/><path class="ytick ticks crisp" d="M79,0h-5M821,0h5" transform="translate(0,345.84000000000003)" style="stroke: rgb(68, 68, 68); stroke-opacity: 1; stroke-width: 1px;"/><path class="ytick ticks crisp" d="M79,0h-5M821,0h5" transform="translate(0,298.53)" style="stroke: rgb(68, 68, 68); stroke-opacity: 1; stroke-width: 1px;"/><path class="ytick ticks crisp" d="M79,0h-5M821,0h5" transform="translate(0,251.22)" style="stroke: rgb(68, 68, 68); stroke-opacity: 1; stroke-width: 1px;"/><path class="ytick ticks crisp" d="M79,0h-5M821,0h5" transform="translate(0,203.91)" style="stroke: rgb(68, 68, 68); stroke-opacity: 1; stroke-width: 1px;"/><path class="ytick ticks crisp" d="M79,0h-5M821,0h5" transform="translate(0,156.6)" style="stroke: rgb(68, 68, 68); stroke-opacity: 1; stroke-width: 1px;"/><path class="ytick ticks crisp" d="M79,0h-5M821,0h5" transform="translate(0,109.28999999999999)" style="stroke: rgb(68, 68, 68); stroke-opacity: 1; stroke-width: 1px;"/><g class="ytick"><text text-anchor="end" x="71.6" y="4.199999999999999" transform="translate(0,393.15)" style="font-family: 'Open Sans', verdana, arial, sans-serif; font-size: 12px; fill: rgb(42, 63, 95); fill-opacity: 1; white-space: pre; opacity: 1;">15</text></g><g class="ytick"><text text-anchor="end" x="71.6" y="4.199999999999999" style="font-family: 'Open Sans', verdana, arial, sans-serif; font-size: 12px; fill: rgb(42, 63, 95); fill-opacity: 1; white-space: pre; opacity: 1;" transform="translate(0,345.84000000000003)">10</text></g><g class="ytick"><text text-anchor="end" x="71.6" y="4.199999999999999" style="font-family: 'Open Sans', verdana, arial, sans-serif; font-size: 12px; fill: rgb(42, 63, 95); fill-opacity: 1; white-space: pre; opacity: 1;" transform="translate(0,298.53)">5</text></g><g class="ytick"><text text-anchor="end" x="71.6" y="4.199999999999999" style="font-family: 'Open Sans', verdana, arial, sans-serif; font-size: 12px; fill: rgb(42, 63, 95); fill-opacity: 1; white-space: pre; opacity: 1;" transform="translate(0,251.22)">0</text></g><g class="ytick"><text text-anchor="end" x="71.6" y="4.199999999999999" style="font-family: 'Open Sans', verdana, arial, sans-serif; font-size: 12px; fill: rgb(42, 63, 95); fill-opacity: 1; white-space: pre; opacity: 1;" transform="translate(0,203.91)">5</text></g><g class="ytick"><text text-anchor="end" x="71.6" y="4.199999999999999" style="font-family: 'Open Sans', verdana, arial, sans-serif; font-size: 12px; fill: rgb(42, 63, 95); fill-opacity: 1; white-space: pre; opacity: 1;" transform="translate(0,156.6)">10</text></g><g class="ytick"><text text-anchor="end" x="71.6" y="4.199999999999999" style="font-family: 'Open Sans', verdana, arial, sans-serif; font-size: 12px; fill: rgb(42, 63, 95); fill-opacity: 1; white-space: pre; opacity: 1;" transform="translate(0,109.28999999999999)">15</text></g></g><g class="overaxes-above"/></g></g><g class="polarlayer"/><g class="smithlayer"/><g class="ternarylayer"/><g class="geolayer"/><g class="funnelarealayer"/><g class="pielayer"/><g class="iciclelayer"/><g class="treemaplayer"/><g class="sunburstlayer"/><g class="glimages"/><defs id="topdefs-762118"><g class="clips"/><clipPath id="legend762118"><rect width="52" height="87" x="0" y="0"/></clipPath></defs><g class="layer-above"><g class="imagelayer"/><g class="shapelayer"/></g><g class="infolayer"><g class="legend" pointer-events="all" transform="translate(834.8000000000001,100)"><rect class="bg" shape-rendering="crispEdges" style="stroke: rgb(68, 68, 68); stroke-opacity: 1; fill: rgb(255, 255, 255); fill-opacity: 1; stroke-width: 0px;" width="52" height="87" x="0" y="0"/><g class="scrollbox" transform="" clip-path="url(#legend762118)"><g class="groups" transform=""><g class="traces" transform="translate(0,14.5)" style="opacity: 1;"><text class="legendtext" text-anchor="start" x="40" y="4.680000000000001" style="font-family: 'Open Sans', verdana, arial, sans-serif; font-size: 12px; fill: rgb(42, 63, 95); fill-opacity: 1; white-space: pre;">x</text><g class="layers" style="opacity: 1;"><g class="legendfill"/><g class="legendlines"><path class="js-line" d="M5,0h30" style="fill: none; stroke: rgb(76, 120, 168); stroke-opacity: 1; stroke-width: 1px;"/></g><g class="legendsymbols"><g class="legendpoints"/></g></g><rect class="legendtoggle" x="0" y="-9.5" width="47" height="19" style="fill: rgb(0, 0, 0); fill-opacity: 0;"/></g></g><g class="groups" transform="translate(0,10)"><g class="traces" transform="translate(0,33.5)" style="opacity: 1;"><text class="legendtext" text-anchor="start" x="40" y="4.680000000000001" style="font-family: 'Open Sans', verdana, arial, sans-serif; font-size: 12px; fill: rgb(42, 63, 95); fill-opacity: 1; white-space: pre;">y</text><g class="layers" style="opacity: 1;"><g class="legendfill"/><g class="legendlines"><path class="js-line" d="M5,0h30" style="fill: none; stroke: rgb(245, 133, 24); stroke-opacity: 1; stroke-width: 1px;"/></g><g class="legendsymbols"><g class="legendpoints"/></g></g><rect class="legendtoggle" x="0" y="-9.5" width="47" height="19" style="fill: rgb(0, 0, 0); fill-opacity: 0;"/></g></g><g class="groups" transform="translate(0,20)"><g class="traces" transform="translate(0,52.5)" style="opacity: 1;"><text class="legendtext" text-anchor="start" x="40" y="4.680000000000001" style="font-family: 'Open Sans', verdana, arial, sans-serif; font-size: 12px; fill: rgb(42, 63, 95); fill-opacity: 1; white-space: pre;">z</text><g class="layers" style="opacity: 1;"><g class="legendfill"/><g class="legendlines"><path class="js-line" d="M5,0h30" style="fill: none; stroke: rgb(228, 87, 86); stroke-opacity: 1; stroke-width: 1px;"/></g><g class="legendsymbols"><g class="legendpoints"/></g></g><rect class="legendtoggle" x="0" y="-9.5" width="47" height="19" style="fill: rgb(0, 0, 0); fill-opacity: 0;"/></g></g></g><rect class="scrollbar" rx="20" ry="3" width="0" height="0" style="fill: rgb(128, 139, 164); fill-opacity: 1;" x="0" y="0"/></g><g class="g-gtitle"/><g class="g-xtitle"/><g class="g-ytitle"/></g></svg>