<svg class="main-svg" xmlns="http://www.w3.org/2000/svg" xmlns:xlink="http://www.w3.org/1999/xlink" width="800" height="600" style="" viewBox="0 0 800 600"><rect x="0" y="0" width="800" height="600" style="fill: rgb(255, 255, 255); fill-opacity: 1;"/><defs id="defs-e95050"><g class="clips"><clipPath id="clipe95050xyplot" class="plotclip"><rect width="612" height="420"/></clipPath><clipPath class="axesclip" id="clipe95050x"><rect x="80" y="0" width="612" height="600"/></clipPath><clipPath class="axesclip" id="clipe95050y"><rect x="0" y="100" width="800" height="420"/></clipPath><clipPath class="axesclip" id="clipe95050xy"><rect x="80" y="100" width="612" height="420"/></clipPath></g><g class="gradients"/><g class="patterns"/></defs><g class="bglayer"/><g class="layer-below"><g class="imagelayer"/><g class="shapelayer"/></g><g class="cartesianlayer"><g class="subplot xy"><g class="layer-subplot"><g class="shapelayer"/><g class="imagelayer"/></g><g class="gridlayer"><g class="x"><path class="xgrid crisp" transform="translate(141.2,0)" d="M0,100v420" style="stroke: rgb(235, 240, 248); stroke-opacity: 1; stroke-width: 1px;"/><path class="xgrid crisp" transform="translate(263.6,0)" d="M0,100v420" style="stroke: rgb(235, 240, 248); stroke-opacity: 1; stroke-width: 1px;"/><path class="xgrid crisp" transform="translate(508.4,0)" d="M0,100v420" style="stroke: rgb(235, 240, 248); stroke-opacity: 1; stroke-width: 1px;"/><path class="xgrid crisp" transform="translate(630.8,0)" d="M0,100v420" style="stroke: rgb(235, 240, 248); stroke-opacity: 1; stroke-width: 1px;"/></g><g class="y"><path class="ygrid crisp" transform="translate(0,436)" d="M80,0h612" style="stroke: rgb(235, 240, 248); stroke-opacity: 1; stroke-width: 1px;"/><path class="ygrid crisp" transform="translate(0,352)" d="M80,0h612" style="stroke: rgb(235, 240, 248); stroke-opacity: 1; stroke-width: 1px;"/><path class="ygrid crisp" transform="translate(0,184)" d="M80,0h612" style="stroke: rgb(235, 240, 248); stroke-opacity: 1; stroke-width: 1px;"/></g></g><g class="zerolinelayer"><path class="xzl zl crisp" transform="translate(386,0)" d="M0,100v420" style="stroke: rgb(235, 240, 248); stroke-opacity: 1; stroke-width: 2px;"/><path class="yzl zl crisp" transform="translate(0,268)" d="M80,0h612" style="stroke: rgb(235, 240, 248); stroke-opacity: 1; stroke-width: 2px;"/></g><path class="xlines-below"/><path class="ylines-below"/><g class="overlines-below"/><g class="xaxislayer-below"/><g class="yaxislayer-below"/><g class="overaxes-below"/><g class="plot" transform="translate(80,100)" clip-path="url(#clipe95050xyplot)"><g class="scatterlayer mlayer"><g class="trace scatter trace8785a6" style="stroke-miterlimit: 2; opacity: 1;"><g class="fills"/><g class="errorbars"/><g class="lines"><path class="js-line" d="M208.08,168L234.09,187.68L234.54,188.08L241.97,195.67L242.27,196.04L246.79,203L246.98,203.37L249.55,210.59L249.64,210.99L250.61,218.38L250.63,218.81L250.16,228.88L250.1,229.36L247.54,242.45L247.39,243.02L242.62,257.97L242.38,258.61L236.71,271.76L236.38,272.43L229.98,284.07L229.56,284.76L222.44,294.9L221.91,295.56L214.4,303.69L213.77,304.27L206.27,310.14L205.54,310.61L197.68,314.61L196.84,314.92L189.76,316.79L188.83,316.93L180.99,317.19L179.96,317.11L172.46,315.68L171.34,315.35L163.21,312.03L162.01,311.41L153.29,305.86L152,304.89L142.74,296.81L141.38,295.46L131.67,284.58L130.26,282.82L120.25,269L118.81,266.81L108.7,250.07L107.26,247.48L95.94,225.13L94.56,222.16L83.96,197.23L82.7,194L73.38,167.83L72.32,164.55L64.88,138.9L64.09,135.81L59.07,112.65L58.61,109.99L56.56,93.27L56.43,91.17L56.57,80.31L56.74,78.8L58.25,72.54L58.67,71.55L61.41,67.92L62.07,67.45L65.11,66.41L65.96,66.35L70.7,67.17L71.74,67.55L78.58,71.14L79.81,71.94L90.38,79.99L91.78,81.18L109.4,97.23L110.92,98.67L166.33,150.91L167.55,152L215.64,195.27L216.12,195.78L223.71,205.44L223.99,205.9L227.58,213.01L227.74,213.44L229.48,220.37L229.54,220.8L229.67,228.16L229.63,228.6L228.19,236.04L228.06,236.49L224.95,244.41L224.73,244.85L220.02,252.6L219.71,253.01L214.13,259.38L213.74,259.76L207.23,264.83L206.75,265.12L200.04,268.34L199.49,268.53L192.99,270L192.36,270.07L185.78,270.06L185.09,269.98L177.86,268.36L177.11,268.1L169.28,264.54L168.47,264.07L160.12,258.24L159.26,257.54L150.51,249.2L149.62,248.24L140.68,237.29L139.78,236.07L130.05,221.13L129.18,219.65L120.01,202.19L119.22,200.52L111.17,181.52L110.51,179.76L104.17,160.6L103.69,158.9L99.62,141.19L99.37,139.7L98.03,127.4L97.99,126.18L98.45,117.54L98.6,116.61L100.3,111.07L100.62,110.42L103.48,106.86L103.96,106.48L107.88,104.8L108.51,104.68L113.36,104.69L114.11,104.8L120.57,106.51L121.43,106.82L131.45,111.31L132.4,111.8L150.14,121.87L151.14,122.47L187.61,143.73L188.44,144.18L211.76,155.72L212.39,156L231.03,163.6L231.45,163.76L258.59,174.14L258.71,174.22L262.7,177.38L262.78,177.47L265.31,181.41L265.36,181.53L266.83,186.71L266.85,186.87L267.41,193.78L267.41,194L266.7,206.88L266.66,207.21L263.45,227.85L263.36,228.34L258.03,251.41L257.85,252.07L251.19,274.14L250.92,274.95L243.07,295.5L242.68,296.4L234.68,313L234.17,313.93L226.26,326.94L225.64,327.85L217.37,338.41L216.61,339.24L209.32,346.29L208.45,347.01L201.04,352.19L200.05,352.75L192.77,356.06L191.67,356.43L183.55,358.16L182.33,358.28L174.66,358.14L173.33,357.97L164.97,355.95L163.52,355.44L154.45,351.14L152.88,350.22L143.12,343.25L141.44,341.84L131.03,331.8L129.24,329.86L118.27,316.41L116.4,313.87L105,296.8L103.07,293.65L91.46,272.91L89.52,269.16L77.98,245.01L76.08,240.73L64.96,213.78L63.17,209.1L52.9,180.34L51.28,175.48L40.97,141.52L39.66,136.75L31.82,104.85L30.9,100.57L26.14,73.42L25.7,69.99L24.42,52.3L24.44,49.85L25.49,39.9L25.89,38.37L28.15,33.83L28.86,33.08L31.37,31.74L32.33,31.58L35.52,31.96L36.68,32.36L41.85,35.21L43.26,36.22L50.91,42.82L52.55,44.42L64.86,57.68L66.72,59.81L90.08,87.96L92.07,90.4L134.12,141.26L135.87,143.31L171.95,184.28L173.18,185.67L193.48,209.35L194.28,210.36L203.64,223.36L204.18,224.21L209.76,234.66L210.09,235.42L212.95,244.15L213.1,244.85L214.02,252.96L214.03,253.62L213.22,261.2L213.09,261.81L210.45,269.37L210.18,269.92L206.21,276.1L205.82,276.58L200.92,281.31L200.42,281.68L194.93,284.89L194.33,285.15L187.86,286.96L187.16,287.06L180.49,287.15L179.7,287.06L173.11,285.61L172.25,285.33L165.06,282.14L164.12,281.63L155.39,275.68L154.39,274.86L146.15,267.21L145.09,266.11L135.45,254.67L134.37,253.22L125.67,240.51L124.59,238.77L114.96,221.83L113.92,219.81L103.9,198.42L102.96,196.19L94.28,173.41L93.5,171.12L86.83,148.71L86.28,146.56L82.5,128.37L82.21,126.51L80.91,113.09L80.88,111.61L81.46,102.62L81.66,101.54L83.46,96.14L83.86,95.42L86.25,92.61L86.81,92.2L89.97,90.89L90.68,90.77L95.36,90.98L96.21,91.16L102.69,93.44L103.68,93.9L113.18,99.24L114.29,99.94L131.7,112.17L132.89,113.05L183.4,150.02L184.33,150.65L211.22,168.16L211.84,168.55L231.5,181.88L231.83,182.14L238.9,189L239.09,189.24L242.39,194.54L242.5,194.79L244.29,200.66L244.34,200.93L244.68,208.32L244.66,208.63L243.36,217.43L243.28,217.78L240.15,228.3L240,228.7L235.07,240.13L234.85,240.57L227.63,252.81L227.31,253.26L220.53,261.78L220.13,262.21L213.09,268.72L212.61,269.1L204.72,274.01L204.15,274.28L197.47,276.69L196.83,276.84L190.05,277.75L189.34,277.77L181.86,277.09L181.07,276.93L173.75,274.62L172.9,274.26L165.04,270.04L164.14,269.45L155.82,263.03L154.87,262.19L146.2,253.38L145.23,252.26L136.39,240.96L135.41,239.57L126.64,225.89L125.68,224.24L116.4,206.66L115.51,204.8L107.18,185.55L106.41,183.59L99.56,163.9L98.97,161.96L94.12,143.32L93.75,141.56L91.46,126.93L91.32,125.46L91.12,114.99L91.21,113.85L92.51,107.03L92.79,106.22L94.99,102.25L95.44,101.74L98.58,99.49L99.18,99.25L103.18,98.6L103.91,98.62L109.5,99.61L110.35,99.87L118.65,103.31L119.62,103.79L132.98,111.48L134.04,112.14L196.8,151.86L197.59,152.3L221.49,164.79L222,165.05L244.46,176.67L244.68,176.82L249.92,180.85L250.07,181L253.36,185.08L253.46,185.24L255.64,190.63L255.69,190.82L256.49,196.71L256.5,196.95L256.14,205.91L256.1,206.21L254.27,217.33L254.19,217.7L250.59,231.72L250.45,232.19L244.92,248.26L244.7,248.82L237.18,265.57L236.86,266.19L229.06,279.56L228.64,280.2L221.05,290.19L220.53,290.79L213.07,298.19L212.44,298.72L205.06,303.95L204.34,304.36L197.46,307.52L196.65,307.79L188.95,309.51L188.05,309.6L180.46,309.52L179.47,309.4L171.17,307.41L170.08,307.02L162.23,303.37L161.07,302.7L152.68,296.96L151.45,295.97L142.6,287.87L141.31,286.53L132.09,275.87L130.75,274.16L119.95,258.75L118.59,256.62L107.8,237.92L106.46,235.39L96.06,213.87L94.8,211.04L84.14,184.58L83.04,181.57L75.05,157.52L74.17,154.55L68.13,131.67L67.51,128.96L63.86,108.96L63.57,106.7L62.6,92.75L62.62,91.04L63.54,82.33L63.83,81.15L65.84,76.41L66.36,75.7L68.78,73.59L69.47,73.25L73.42,72.62L74.3,72.7L79.15,74.03L80.2,74.47L88.19,79L89.41,79.83L101.14,88.84L102.51,89.98L123.74,108.78L125.18,110.09L169,148.99L170.16,149.97L220.69,192.71L221.11,193.15L227.52,201.03L227.78,201.42L231.28,208.04L231.43,208.43L233.23,215.37L233.28,215.75L233.46,222.45L233.43,222.85L231.85,231.43L231.73,231.85L228.71,239.89L228.51,240.32L223.97,248.43L223.69,248.85L217.16,257L216.78,257.39L210.14,263.1L209.68,263.42L202.72,267.28L202.18,267.5L195.3,269.5L194.69,269.6L188.27,269.99L187.59,269.96L180.54,268.83L179.8,268.63L172.14,265.68L171.35,265.28L163.15,260.17L162.3,259.54L153.67,252L152.79,251.12L143.89,241L143,239.86L133.22,225.79L132.34,224.38L122.99,207.62L122.17,206L113.08,185.66L112.39,183.92L105.69,164.75L105.17,163.04L100.63,144.99L100.33,143.45L98.45,129.35L98.38,128.09L98.72,118.14L98.86,117.2L100.49,111.58L100.8,110.92L103.59,107.25L104.07,106.86L107.31,105.23L107.92,105.07L112.59,104.77L113.32,104.84L119.62,106.26L120.46,106.54L129.38,110.28L130.31,110.73L145.88,119.27L146.87,119.85L191.43,145.56" style="vector-effect: non-scaling-stroke; fill: none; stroke: rgb(99, 110, 250); stroke-opacity: 1; stroke-width: 2px; opacity: 1;"/></g><g class="points"/><g class="text"/></g><g class="trace scatter tracee8d5bf" style="stroke-miterlimit: 2; opacity: 1;"><g class="fills"/><g class="errorbars"/><g class="lines"><path class="js-line" d="M403.92,168L403.33,129.37L399.63,122.31L398.34,122.85L405.14,139.34L403.24,132.84L400.79,131.98L406.66,146.67L402.58,135.64L401.36,138.02L398.22,130.88L397.87,133.52L395.41,128.54L399.22,140.92L401.26,144.4L400.04,143.53L398.59,142.5L400.31,148.62L396.67,140.49L399.03,150.62L396.94,144.14L391.83,135.77L397.08,155L395.09,149.11L390.05,140.18L392.44,150.54L397.46,162.85L392.19,149.02L393.46,158.3L388.94,144.26L385.77,141.47L387.57,148.54L393.17,164.77L390.54,156.07L388.03,153.97L388.69,157.24L383.62,143.33L385.76,155.76L391.14,170.03L385.28,151.66L384.5,156.63L387.36,166.07L385.06,161.3L386.31,168.81L385.47,165.76L380.99,153.18L377.87,147.24L383.76,171.04L384.48,169.98L380.83,160.64L379.65,161.55L381.06,169.34L380.05,165.98L380.38,171.22L381.81,177.86L378.7,166.35L380.07,178.45L382.84,189.97L380.47,180.23L377.72,172.76L376.88,172.44L377.55,178.47L377.32,179.14L377.51,183.39L375.32,173.26L375.04,177.42L375.55,184.6L373.22,172.5L372.58,179.02L372.05,177.81L371.65,178.64L371.77,183.04L372.73,195.51L369.94,174.54L369.54,179.1L370.24,188.04L371.03,199.74L370.22,193.55L368.68,181.1L367.87,177.99L369.8,209.99L367.98,192.4L367.15,182.23L366.32,193.76L365.85,187.56L365.88,204.83L365.14,201.24L364.82,201.53L364.5,200.71L364.33,191.05L362.96,213.42L362.76,208.79L362.55,203.64L361.87,212.42L361.79,207.96L360.35,226.05L362.05,195.81L362.25,200.95L360.29,218.55L359.17,224.04L360.01,212.87L361.22,203.39L358.04,224.96L355.34,238.26L357.8,221.72L358.46,217.24L355.01,235.93L355.57,228.61L356.88,224.83L355.29,232.95L353.99,236.46L355.89,227.02L358.8,216.88L357.16,226.52L353.17,240.68L353.11,238.09L356.26,228.3L353.7,239.16L354.05,235.41L352.26,243.78L352.64,240.29L352.6,241.58L357.7,224.49L355.21,237.55L353.31,239.74L354.2,238.21L351.54,247.38L350.5,248.16L354.96,236.19L350.99,251.34L348.65,253.99L359.61,225.91L355.33,243.52L355.83,237.63L349.7,257.46L349.23,254.17L347.75,260.62L349.82,253.85L353.04,248.59L355.12,245.27L352.65,253.07L346.15,267.23L346.1,264.97L352.8,252.1L352.81,255.98L349.59,262.17L351.47,257.85L355.09,252.85L351.01,263.53L348.79,266.12L353.43,257.51L359.03,249.98L349.49,271.44L348.57,268.58L354.61,260.57L349,273.63L353.92,261.56L358.91,257.57L353.3,269.05L354.13,265.47L361.18,255.81L357.25,266.03L354.89,268.67L350.24,278.47L346.03,283.68L364.62,253.19L353.2,281.21L351.24,277.43L345.13,291.82L349.29,282.22L354.39,278.88L349.88,287.37L351.33,284.04L359.73,273.93L359.03,278.66L356.09,282.75L358.7,279.94L356.79,284.82L363.88,274.95L354.76,292.39L354.01,289.78L363.29,280.25L357.94,291.3L353.37,295.3L368.29,276.74L356.31,298.69L362.88,285.18L357.39,298.74L360.85,291.63L354.97,303.47L357.63,298.25L357.02,302.27L367.13,289.75L363.49,299.22L359.94,302.01L362.46,300.96L355.98,311.12L348.24,319.52L353.42,313.71L358.82,311.09L351.57,321.77L346.7,328.7L357.91,316.39L362.57,315.96L373.21,306L353.19,332.11L355.65,324.79L359.11,326.52L363.72,321.81L380.1,308.2L367.6,325.75L366.86,323.34L371.86,322.4L360.63,335.3L362.77,331.8L371.19,327L371.87,328.98L365.35,336.13L370.66,331.22L376.9,328.57L378.27,329.37L369.82,338.51L370.88,337.16L374.98,336.31L366.38,345.38L377.72,334.96L375.88,341.49L366.47,348.93L372.54,344.37L373.29,347.71L346.63,370.42L369.9,347.91L377.59,350.07L372.24,354.33L361.77,364.28L365.73,361.19L369.17,361.43L384.91,351.24L359.42,375.28L374.1,359.81L384.14,359.69L371.39,369.55L395.88,350.99L398.2,356.47L376.83,371.63L375.37,371.45L401.88,355.82L375,380.77L356.51,389.35L372.67,380.35L370.75,385.83L405.84,363.92L417.88,362.94L387.9,383.72L381.01,385.83L394.27,380.48L379.85,392.84L389.39,385.6L393.58,387.2L404.62,381.6L380.86,400.04L376.22,400.56L389.91,395.2L405.44,388.6L407.3,390.82L383.17,406.03L402.76,393.22L413.61,393.52L358.76,425.72L398.71,397.99L410.25,401.22L421.89,393.46L413.51,402.41L391.53,413.79L407.59,405.19L407.26,410.09L387.07,420.93L405.74,411.34L390.78,423.72L410.23,411.88L418.21,413.15L398.48,424.44L410.39,419.65L431.3,412.42L398.13,431.4L422.91,416.41L426.17,420.65L437.63,414.56L415.62,428.34L408.68,429.72L425.18,424.22L421.11,428.38L434.82,421.88L439.19,422.35L453.64,415.99L446.75,421.63L411.77,436.57L420.65,431.6L401.61,443L434.7,426.91L428.5,434.39L451.9,422.54L427.68,436.78L426.93,434.23L430.29,434.85L469.94,419.02L405.61,449.5L421.89,436.36L448.12,431.3L445.9,432.85L413.45,446L438.24,434.22L453.22,431.96L450.43,433.1L426.57,442.86L424.43,442.53L441.46,437.83L400.09,455.3L439.75,437.14L437.44,443.22L463.45,431.23L428.9,447.28L463.77,430.25L458.93,436.61L455.34,434.85L479.3,426.43L475.29,428.29L493.71,419.91L446.62,437.74L471.52,424.08L451.15,434.59L467.76,424.38L484.62,420.21L461.82,426.8L480.5,417.28L482.58,417.71L443.94,428.37L518.5,398.47L493.86,411.54L457.94,416.98L487.18,405L502.83,396.71L470.58,406.81L487.89,395.45L522.01,383.24L543.17,373.62L503.44,384.06L512.85,374.97L453.84,394.92L460.7,385.39L482.53,378.44L511.71,365.84L481.03,374.77L519.71,355.27L499.3,363.04L507.98,353.29L489.34,359.01L477.31,357.88L498.41,348.01L485.5,350.51L530.92,329.43L500.87,340.34L507.08,330.27L506.78,329.28L510.65,322.74L533.71,311.65L477.51,329.3L529.46,301.71L503.25,314.36L481.88,313.4L514.9,298.58L492.17,305.88L512.14,291.1L539.13,279.42L543.36,273.78L523.64,276.56L539.87,260.67L534.74,258.05L500.41,267.19L537.51,243.82L566.74,231.67L503.62,254.45L507.46,242.35L518.87,236.13L562.5,210.49L563.89,208.44L564.24,200.9L526.41,215.22L528.97,204.96L527.82,203.28L547.29,186.44L574.91,169.49L538.98,185.74L541.15,174.55L531.79,178.33L546.03,162.44L551.95,157.47L532.8,164.72L528.73,160.98L528.5,157.63L545.84,140.9L544.53,140.61L540.48,138.18L536.26,137.93L537.86,132.75L524,141.42L553.19,108.7L538.75,126.45L534.4,120.82L540.22,114.11L536.24,116.34L532.77,116.35L544.36,94L542.55,96.36L534.19,106.96L537.55,96.19L545.75,79.02L543.64,82.83L544.93,76.46L544.93,77.1L541.55,88.45L545.65,65.11L545.29,70.82L546.99,53.41L546.76,73.53L547.1,74.36L548.41,87.78L546.13,62.78L542.6,47.24L547.12,71.58L545.74,57.29L546.07,63.11L544.85,55.29L541.25,47.35L547.5,64.28L548.33,61.19L547.18,60.36L540.98,47.21L534.62,38.65L543.98,55.64L531.81,31.12L541.61,53.85L541.98,46.46L528.21,30.7L533.85,41.69L539.32,45.57L543.39,50.87L535.32,40.17L526.2,33.3L541.25,52.29L549.55,57.72L549.11,58.25L532.21,41.71L526.6,41.44L540.78,56.35L547.14,60.65L530.6,46.48L527.32,48.88L536.64,57.75L527.54,49.66L526.45,54.01L549.5,74.83L519.34,46.09L516.31,53.85L517.48,52.76L505.35,45.64L507.76,51.49L510.95,54.83L516.76,61.92L514.72,61.28L509.22,59.67L497.68,53.28L510.84,68L507.7,63.88L486.59,52.14L514.38,79.51L505,67.94L503.69,74.34L489.65,63.18L482.16,63.01L483.12,65.62L482.56,67.42L484.39,71.34L480.69,70.78L495.15,85.66L490.77,81.49L474.16,73.29L475.83,78.52L459.59,66.67L469.04,80.44L478.22,86.45L465.4,78.56L457.2,76.67L455.61,77.86L458.04,82.11L455.03,81.52L456.41,85.87L459.34,90.2L465.28,97.04L450.68,86.81L459.88,100.37L463.15,102.75L473.72,114.79L440.55,86.9L437.66,94.52L440.21,95.52L434.17,93.79L439.48,101.78L446.4,111.44L434.43,102.43L429.62,103.56L437.98,112.84L428.47,104.88L424.08,106.35L434.9,118.34L434.74,118.46L428.21,116.06L429.59,120.65L426.43,119.13L421.97,118.52L428.37,127.74L426.14,125.91L412.38,116.63L436.85,145.95L413.46,117.31L414.33,129.78L415.52,128.5L412.55,129.18L403.65,121.9L411.24,134.57L410.86,133.53L414.59,141.42L407.52,134.08L410.33,142.35L413.14,145.97L413.78,149.11L405.76,141.34L401.12,139.9L395.88,135.61L398.81,143.17L409.32,157.24L406.55,153.12L391.72,138.1L400.9,155.73L395.38,146.03L404.18,164.47L401.68,157.95L388.26,144.07L392.31,155.09L395.23,158.96L403.18,173.3L391.29,154.84L398.59,174.1L394.56,163.99L384.47,154.3L394.31,174.83L393.81,170.93L382.42,156.11L384.49,165.76L393.14,181.21L393.01,181.07L388,175.4L386.99,177.67L390.48,186.93L390.61,187.78L378.78,165.79L378.47,172.74L377.42,169.85L376.17,171.06L376.18,173.63L381.51,189.22L385.91,199.17L376.25,176.24L373.65,178.31L378.4,191.54L374.75,181.96L375.72,190.49L372.3,180.86L375.03,194.81L372.26,184.98L369.5,182.28L372.9,210.36L367.18,188.38L366.75,195.1L366.01,192.5L370.36,219.06L366.55,202.2L364.9,200.59L363.32,194.23L364.62,215.16L362.65,205.56L363.97,225.42L363.17,219.48L361.42,210.04L361.67,221.86L360,203.11L359.47,226.95L358.72,219.82L358.18,218.91L357.78,229.89L356.84,223.29L356.54,218.95L355.79,231.47L355.4,226.63L355.47,219.97L355.4,217.13L354.92,220.87L353.71,232.71L352.02,245.48L353.3,225.32L353.74,224.76L351.95,237.56L351.53,235.4L352.96,223.75L353.22,223.46L351.78,231.86L351.06,233.72L350.09,238.75L350.76,232.65L349.95,238.39L349.13,239.81L351.47,227.85L346.9,253.42L347.37,243.34L348.34,242.75L348.59,241.29L343.66,262.44L346.13,246.65L347.73,246.03L344.01,258.96L347.35,243.91L345.63,255.08L344.96,254.07L343.68,259.62L347.13,247.21L346.56,252.77L348.24,246.25L344.22,261.55L342.46,263.27L342.78,263.61L343.53,262.12L344.17,261.31L339.05,276.75L347.14,252.77L343.93,268.88L341.57,269.92L343.4,267.71L341.37,274.26L337.68,281.7L344.1,266.46L346.82,265.49L345.43,269.05L340.33,279.22L349.82,261.19L340.93,284.97L341,278.7L347.08,270.36L355.35,256.84L347.93,275.59L340.52,285.42L345.88,275.91L339.89,290.91L339.42,288.43L342.3,286.03L343.28,285.89L339.44,293.38L345.82,281.91L345.03,287.68L345.86,285.39L345.26,289.09L339.81,297.83L348.5,283.36L348.92,288.06L346.91,290.37L347.54,291L342.47,299.9L347.86,290.73L354.36,285.01L355.8,285.66L338.83,311.26L344.43,298.37L354.24,290.53L353.18,294.26L348.31,300.9L355.7,290.8L358.8,290.64L360.22,289.82L349.68,305.35L355.83,294.81L360.12,294.74L345.27,314.3L350.84,304.45L346.73,314.03L365.21,289.43L358.92,305.01L362.36,297.34L351.63,314.51L366.37,294.13L354.26,316.04L355.9,309.1L356.76,313.17L354.55,315.14L370.32,298.54L372.07,302.17L368.84,305.79L358.79,318.17L362.98,313L354.99,325.45L357,322.29L343.83,339.18L367.06,312.34L366.76,322.04L362.52,324.11L364.01,325.02L377.14,316.18L367.95,328.2L380.61,314.65L377,323.94L381.26,318.76L373.89,329.74L372.71,329.81L374.04,331.1L380.42,326.21L393.92,317.3L375.57,337.26L381.29,328.69L387.3,328.21L397.63,320.63L376.05,342.99L375.47,339.45L387.5,333.19L391.77,332.15L390.55,334.61L391.66,335.02L383.25,343.42L395.15,333.06L409.55,326.39L386.26,346.39L417.97,318.29L396.99,344.19L388.18,344L412.02,329.53L395.92,346.26L393.57,344.67L398.27,343.75L420.81,328.02L423.66,330.51L421.5,331.76L409.47,341.52L416.81,335.64L400.62,349.88L421.9,332.31L417.32,341.43L422.53,335.78L405.14,350.5L427.88,332.44L415.7,346.78L418.82,340.93L427.21,339.18L409.93,351.35L420.81,342.52L421.31,346.1L421.93,345.26L419.51,348.19L432.34,340.38L425.86,347.29L432.11,341.81L449.96,333.37L438.31,342.56L443.12,337.63L444.87,338.62L461.93,328.39L437.47,346.02L435.79,343.19L428.12,350.4L434.44,345.21L443.63,341.94L468.8,328.67L443.81,345.49L445.53,340.36L451.78,339.09L473.85,326.05L478.43,325.86L480.92,323.44L460.18,335.41L459.46,332.95L451.92,338.68L442.76,341.72L474.12,323.6L484.18,321.11L505.78,307.82L478.34,325.3L446.25,337.31L465.23,325.38L459.67,331.08L470.76,321.8L494.67,311.06L459.48,330.67L476.01,315.66L495.07,309.61L466.69,323.73L488.41,306.23L495.67,305.23L477.49,313.07L467.63,315.69L473.69,311.1L496.58,298.23L515.15,289.51L480,307.57L495.57,293.31L484.94,302.28L475.11,302.55L504.46,285.67L501.71,288.8L506.56,282.01L513.72,277.87L503.57,281.16L523.73,266.69L510.98,274.81L499.99,275.24L520.6,261.73L514.23,265.91L491.9,273.91L511.67,258.56L515.84,257.35L514.57,254.81L490.13,267.22L498.56,257.54L508.57,247.41L540.46,227.94L508.83,248.16L498.26,245.44L533.81,219.64L532.44,223.63L503.6,236.68L512.69,225.64L512,226.87L510.6,224.45L492.47,235.55L489.8,232.37L508.93,218.36L515.62,210.47L515.23,210.25L514.44,207.85L532.18,188.69L527.71,191.13L523.85,190.4L531.35,181.7L539.24,171.05L526.94,180.86L535.05,168.01L525.57,178.3L521.74,176L529.41,167.12L524.97,171.03L524.84,167.18L526.82,164.06L520.79,169.43L514.8,172.56L528.44,153.12L531.7,151.21L531.01,148.81L531.91,146.52L520.79,160.53L527.65,144.9L529.52,144.78L524.68,149.26L529.74,137.5L536.69,126.4L531.13,136.73L528.97,136.33L531.03,131.16L532.76,125.91L528.04,136.63L532.24,121.1L530.5,129.25L530.89,123.78L530.7,124.93L533.21,112.84L533.31,113.92L532.94,115.61L533.92,104.02L533.78,109.69L532.62,89.61L532.16,89.01L532.97,94.09L533.92,98.48L532.35,88.2L535.1,105.19L534.85,98.94L533.66,97.29L533.9,98.01L530.84,87.64L532.59,96.53L533.41,96.1L526.91,79.2L529.34,89.99L525.73,77.58L527.63,86.24L523.02,73.13L523.71,79.51L531.84,93.74L521.97,72.03L518.97,72.99L517.91,69.92L524.16,82.27L519.07,71.34L521.48,79.77L524.28,82.34L525.48,85.36L522.37,81.53L525.31,87.99L516.57,74.87L513.54,75.55L513.87,76.02L509.36,71.12L504.9,67.59L504.12,68.29L504.08,69.32L508.01,75.35L504.19,70.53L498.28,66.77L509.13,81.62L504.59,74.53L508.13,83.3L507.65,82.05L506.27,83.08L491.23,68.12L501.2,84.3L485.31,64.26L495.25,83.42L500.86,85.64L496.79,84.45L487.76,77.25L484.53,77.38L478.16,72.39L482.17,80.24L487.24,85.42L478.15,77.41L469.21,72.78L478.81,85.36L478.8,84.32L470.88,80.03L478.85,91.26L475.85,87.41L463.02,78.54L465.43,84.38L450.75,69.52L448.45,72.95L448.09,72.45L448.72,75.56L454.86,83.12L464.99,93.53L457.11,85.74L449.86,82.82L444.7,79.67L447.71,85.7L463.57,101.61L448.59,85.54L441.11,84.19L421.48,65.69L436.49,86.59L434.92,80.66L433.69,84.76L449.45,100.77L445.97,96.22L446.81,100.86L428.62,82.61L413.81,74.56L432.43,96.03L443.05,102.66L414.77,76.39L422.72,92.9L433.87,100.41L430.42,98.58L423.64,94.52L423.4,97.12L425.97,101.03L425.56,102.32L430.18,109.1L420.84,100.33L425.86,109.79L408.1,90.53L414.39,104.53L415.74,103.12L406.47,97.35L421.97,117.21L418.19,110.1L406.47,102.61L406.92,105.31L385.12,82.23L396.19,101.68L396.8,98.06L402.06,107.89L396.69,100.97L400.71,109.43L400.29,108L397.52,107.18L389.21,99.6L400.04,115.36L401.35,114.58L403.96,120.23L389.07,103L390.32,110.24L387.59,105.88L395.58,118.38L387.5,107.53L399.06,126.06L385.97,106.64L384.71,112.96L395.48,124.34L382.45,108.15L388.22,121.01L377.97,106.04L392.07,129.76L384.78,115.4L380.02,115.95L377.69,113.11L378.48,116.81L385.19,126.48L390.54,132.82L375.21,113.49L378,124.11L387.65,135.12L386.61,133.31L368.16,110.71L369.3,118.52L364.72,110.58L373.7,127.46L375.61,126.89L367.26,117.8L365.72,119.06L371.26,127.13L362.56,114.12L362.49,118.96L368.19,126.99L364.31,122.42L369.86,133.17L367.33,128.19L372.88,140.12L372.21,137.31L368.3,134.96L379.4,154.07L370.87,137.19L358.9,124.86L362.11,132.91L359.95,128.36L360.46,132.13L354.12,122.15L363.07,141.55L367.11,144.88L365.63,144.57L360.75,137.51L354.04,129.24L361.57,145.37L357.78,136.11L358.8,142.85L356.64,138.12L355.83,139.77L353.75,136.75L355.05,141.89L359.5,149.71L345.28,122.5L346.25,132.56L349.72,135.92L344.9,128.21L349.73,140.93L351.15,141.24L346.98,135.12L351.07,147.88L347.62,140.73L343.27,135.1L350.94,153.32L347.47,142.44L344.27,141.03L350.72,155.13L338.99,127.42L345.8,151.61L348.99,152.43L345.98,148.4L340.55,137.82L341.33,142.83L339.13,137.2L342.2,147.87L346.13,155.88L341.13,145.83L338.43,142.46L344.06,157.79L343.17,156.36L340.41,151.06L336.24,143L341.14,158.99L339.26,151.5L340.09,158.11L336.71,147.88L333.7,143.59L331.72,140.2L339.2,163.5L338.88,158.38L334.1,148.96L335.24,155.68L338.49,164.6L335.02,154.25L334.22,156.37L334.56,157.56L332.98,154.38L334.82,162.31L331.56,151.08L329.51,149.14L331.3,156.39L335.12,168.66L331.51,155.51L328.8,151.92L332.86,166.83L329.85,154.04L327.73,151.84L327.36,151.13L327.25,151.76L324.68,144.03L331.12,170.18L327.11,149.88L325.87,153.13L327.51,157.85L323.04,143.43L326.31,160.95L330.01,171.92L327.59,162.2L325.07,156.33L327.64,168.65L324.99,156L326.41,167.45L326.17,164.19L324.58,160.42L324.16,160.5L323.5,159.02L324.86,167.16L323.81,162.03L323.65,164.86L324.05,167.36L323.06,163.74L321.3,157.38L319.41,151.04L322.67,169.39L319.13,148.34L320.35,162.62L322.79,171.82L321.32,165.11L321.84,171.41L319.77,159.99L320.92,171.08L319.98,164.31L321.66,180.22L320.82,176.23L317.27,156.99L318.27,168.81L316.84,157.14L318.18,172.65L316.87,163.09L316.67,166.21L318.62,181.84L315.86,160.7L317.15,177.79L317.38,175.85L315.97,168.66L315.51,168.33L316.12,174.97L316.87,181.17L313.96,157.97L315.5,178.34L315.55,174.02L313.12,156.96L314.77,185.63L313.08,166.85L312.38,166.38L312.35,166.53L312.92,174.6L312.23,167.05L312.66,179.3L311.87,169.82L312.04,177.19L310.93,164.46L311.92,183.27L310.41,165.66L311.21,178.9L310.49,171.75L311.21,186.47L310.36,175.63L310.75,188.18L308.66,159.94L309.18,176.96L309.49,186.61L308.9,173.86L309,183.57L308.97,184.33L308.9,187.68L308.16,166.41L308.01,185.67L307.61,181.56L307.57,184.89L307.42,194.89L306.81,168.68L306.84,185.78L306.72,175.27L306.67,191.65L306.23,182.87L306.06,194L305.98,177.91L305.8,180.96L305.54,194.34L305.51,174.45L305.25,179.65L304.6,200.98L305.04,178.7L304.08,198.39L304.03,193.22L303.03,207.25L304.57,174.55L303.36,194.78L302.8,202.34L304.66,177.98L302.87,205.96L302.44,202.26L303.17,193.82L302.94,198.12L301.92,207.54L303.61,189.5L303,195.42L301.37,213.2L303.37,190.53L304.09,189.6L301.71,211.22L304.5,185.69L304.09,194.29L304.3,190.06L301.52,211.03L303.72,195L302.33,209.29L301.62,209.73L302.51,205.33L300.81,217.84L303.78,197.27L305.06,192.12L302.17,211.61L301.47,214.6L300.03,225.34L304.51,195.07L303.38,211.18L301.84,214.67L301.51,217.83L300.24,224.28L302.63,211.55L301.95,218.34L297.12,242.05L301.51,215.15L302.72,217.68L299.32,232.54L301.55,218.83L302.22,220.78L298.21,237.09L303.78,210.66L303.1,220.9L304.65,210.2L304.41,215.74L300.93,233.92L296.59,248.53L299.12,235.3L301.94,227.66L300.96,232.72L303.02,223.49L301.36,233.36L302.69,225.41L302.92,228.03L300.46,236.96L302.43,227.94L301.45,235.07L301.26,233.89L301.27,235.33L300.42,238.39L306.08,218.66L303.4,234.21L297.09,252.73L300.6,237.25L302.34,236.4L301.25,239.66L299.81,246.09L303.53,233.08L303.95,235.75L303.88,235.95L297.07,259.01L301.78,238.62L304.67,236.97L298.88,255.19L298.11,254.19L298.52,254.93L300.37,249.27L302.16,246.59L296.09,265.68L301.86,244.67L301.26,253.77L300.33,253.45L302.56,248.67L304.25,245.94L302.38,252.65L302.82,250.61L303.87,250.08L299.06,264.33L301.38,255.46L301.45,259.12L303.12,253.71L304.82,251.37L308.32,244L298.57,272.39L304.04,252.33L298.25,274.96L301.71,259.64L304.92,257.93L302.17,264.58L307.92,249.53L307.99,254.76L304.22,262.93L306.34,258.85L306.06,261.23L306.55,260.66L301.5,274.51L297.5,283.14L302.91,270.9L305.44,269.51L302.49,276.76L304.38,272.17L304.43,275.33L299.4,286.48L300.92,282.11L301.7,283.55L300.54,287.37L303.67,281.97L304.06,283.67L307.01,278.32L305.62,284.18L303.57,288.3L300,295.94L307.5,281.19L302.6,296.24L301.56,294.43L312.14,277.38L305.62,295.65L295.71,309.95L306.46,289.26L306.76,295.97L296.12,313.65L307.29,292.55L318.67,279.54L305.08,306.46L311.15,290.48L308.58,302.3L305.78,304.39L306.34,304.74L315.96,290.12L305.78,311.78L311.91,296.99L309.77,307.08L307.81,308.34L303.39,317.22L309.04,307.32L310.39,310.05L298.12,329.46L302.07,320.35L307.64,316.73L303.59,324.5L304.26,323.23L303.45,326.57L312.03,314.62L306.64,327.57L303.04,330.87L304.12,331L312.23,321.74L297.91,345.92L307.53,327.71L313.9,327.13L299.49,347.64L307.2,335.04L295.63,357.08L301.77,344.8L300.24,352.91L310.34,338.18L316.83,336.08L306.53,351.18L308.17,347.85L309.52,350.14L308.09,352.7L320.58,339.03L308.76,359.26L309.88,354.65L308.85,360.94L302.45,368.42L317.1,351.9L310.07,366.65L309.27,365.03L316.24,360.18L325.62,352.21L323.67,358.27L311.84,372.88L318.49,366.8L314.62,374.83L316.44,372.33L326.81,364.72L316.46,379.51L312.95,381.39L322.3,374.41L322.73,377.5L325.97,375.32L320.6,383.57L327.32,377.25L320.43,387.97L332.05,376.03L326.35,387.12L330.57,381.63L340.41,377.58L308.5,410.43L311.07,403.31L312.17,408.17L327.56,394.65L322.66,404.72L329.89,397.36L338.12,394.98L338.87,397L330.84,405.85L340.94,398.68L319.29,421.53L337.6,404.05L313.01,432.41L329.89,413.91L329.14,423.7L321.43,429.18L325.99,428.27L327.38,430.51L334.59,426.77L354.32,415.14L359.7,416.35L349.81,426.2L334.76,438.36L352.12,426.38L364.73,423.29L365.02,425.93L351.4,437.72L360.96,431.64L365.21,433.47L372.19,430.73L363.9,439.76L370.13,436.34L370.36,440.47L356.63,452.62L387.1,435.08L380.87,445.02L377.82,450.19L389.68,444.56L390.42,448.48L374.6,458.77L389.82,451.19L376.57,463.18L397.72,451.12L385.26,463.48L409.56,449.28L408.32,456.46L391.17,465.57L380.43,472.28L405.73,460.77L423.76,458.26L425.22,459.8L403.11,472.15L426.62,461.05L401.37,477.55L449.25,453.32L417.28,475.64L441.13,460.19L446.92,463.93L454.12,459.9L459.32,460.56L420.11,478.46L417.05,477.82L447.42,468.45L411.63,486.52L420.1,480.69L430.23,480.06L488.01,457.67L447.21,478.84L463.21,467.81L459.47,473.58L486.05,462.05L448.16,479.56L456.07,472.82L475.64,468.76L459.09,475.2L463.79,471.79L509.5,455.75L527.21,450.75L528.26,447.93L553.25,437.49L503.99,453.98L483.01,455.78L466.16,461.08L495.27,449.17L466.81,459.96L477.38,452.01L505.79,443L525.98,434.99L503.05,440.2L547.67,421.38L496.97,438.16L528.42,419.53L580.62,403.34L553.64,408.69L493.99,421.29L500.45,414.23L482.95,418.81L503.27,407.85L489.25,411.14L537.36,390.6L523.23,394.49L558.83,376.23L512.05,390.02L512.14,381.5L528.48,369.17L571.17,350.81L617.19,331.62L577.84,338.62L556.06,335.99L515.86,343.73L548.45,325.12L543.53,324.55L540,317.21L599.15,291.61L562.38,300.35L571.15,285.73L576.73,279.57L564.62,275.78L564.74,268.79L517.09,279.63L579.15,245.62L574.34,237.29L570.7,232.39L556.2,230.26L586.04,210.3L570.78,212.52L553.23,209.98L574.71,194.05L552.32,199.32L570.75,180.92L578.41,173.91L573.71,168.95L543.37,177.54L564.42,158.02L541.91,167.47L592.09,129.33L568.97,144.14L574.18,128.28L564.03,132.83L566.98,122.47L559.73,124.16L557.9,118.35L568.44,106.42L555.16,113.27L572.96,90.55L569.66,93.41L572.32,83.42L570.33,82.62L581.48,65.24L565.73,83.6L564.64,76.15L563.37,76.87L572.67,57.4L567.35,67.82L564.97,66.31L566.44,61.46L565.33,62.54L568.7,47.84L570.87,39.1L570.39,41.76L568.64,59.1L569.48,43.44L569.23,32.65L570.49,35.63L569.36,25.88L568.57,22.77L569.88,24.37L569.65,21.08L573.01,28.04L573.64,25.53L570.12,18.29L562.4,5.71L571.4,21.24L569.57,13.22L572.72,19.68L564.37,6.32L565.77,11.32L566.02,8.74L555.18,-1.99L559.82,4.96L559.66,3.3L585.34,28.57L561.91,2.34L571.09,19.53L576.09,18.54L560.19,8.33L554.32,6.75L544.21,0.17L564.91,19.14L559.46,12.04L555.4,13.9L546.71,8.83L560.85,22.3L551.32,14.55L546.05,16.38L553.57,23.23L560.93,29.38L539.65,17.8L554.04,33.15L541.83,23.84L526.39,20.49L532.95,27.23L509.95,14.09L517.78,25.5L522.84,28.44L534.91,39.5L526.08,35.28L525.26,39.64L501.48,27.2L508.07,38.21L532.27,53.21L522.36,48.71L513.9,49.22L495.88,41.15L483.58,39.46L508.22,57.49L481.57,40.99L490.12,55.3L513.35,68.89L505.55,66.31L470.24,54.57L480.59,66.04L490.99,73.74L493.82,78.81L481.76,75.49L510.83,99.1L479.37,78.25L480.77,89.64L459.35,75.9L472.35,92.85L473.54,92.69L451.42,83.68L460.96,96.96L468.04,106.76L453.59,98.54L446.96,100.42L445.8,102.13L433.89,97.48L447.98,112.55L441.73,107.93L435.46,109.29L440.98,116.04L428.3,108.34L418.91,107.1L438.36,125.67L447.84,132.81L447.03,135.29L423.95,119.78L417.98,122.35L439.09,141.46L423.28,128.09L437.06,148.09L438.89,147.12L411.81,128.59L424.35,147.41L426.24,146.97L419.57,145.56L410.42,140.56L422.12,155.98L409.74,143.13L407.49,148.71L425.66,168.34L420.38,162.5L417.91,166.46L427.31,178.47L412.81,163.41L409.37,167.32L413.35,173.36L410.03,172.5L420.8,190.3L422.42,191.8L409.54,179.7L407.19,182.48L398.35,172.41L401.66,183.49L406.76,191.1L400.49,184.81L405.2,197.77L407.38,201.42L401.69,195.93L398.91,196.29L399.41,200.01L392.8,190.98L395.38,201.99L398.35,208.57L398.79,212.64L395.16,208.67L399.33,222.94L396.71,217.08L389.48,205.5L386.07,202.3L383.72,199.73L384.98,207.88L390.12,224.11L382.21,201.54L387.13,227.38L387.07,224.05L384.86,223.35L384.33,229.18L382.08,223.82L381.44,227.3L382.73,238.48L382.21,239.86L382.52,249.05L381.44,246.2L378.61,231.23L379.46,250.98L378.51,245.11L377.07,237.38L376.31,237.3L376.27,257.53L375.3,242.11L374.72,248.81L373.03,260.26L373.62,237.23L372.68,251.23L372.23,245.53L370.77,254.09L367.9,272.16L368.99,257.47L366.39,277.19L365.8,272.05L367.36,265.34L364.62,279.38L362.16,285.15L367.41,261.8L365.74,274.17L366.55,266.67L363.63,280.77L359.88,289.47L362.62,279.34L365.53,273.58L364.69,277.86L358.21,295.83L358.36,291.89L360.85,287.73L365.22,278.03L363.16,286.29L360.54,290.93L359.76,294.05L363.05,288.15L351.73,314.33L357.37,297.2L358.05,302.7L360.22,297.12L356,307.92L360.15,298.47L361.11,301.29L356.41,309.23L359.04,304.6L356.07,312.55L355.15,312.75L361.72,304.02L361.68,307.1L366.08,300.17L367.76,300.95L364.91,306.09L352.36,324.54L359.94,314.96L356.23,322.96L372.8,300.14L359.82,324.31L363.93,313.16L364.07,319.18L356.89,327.57L348.35,337.59L365.73,316.45L358.07,332.94L349.71,338.89L356.83,332.23L359.33,332.65L363.44,329.06L363.81,331.09L370.48,325.12L361.29,338.16L369.24,328.07L369.03,333.67L360.1,342.35L371.54,331.41L358.22,349.6L366.87,337.54L377.02,334.12L356.97,355.09L368.46,341.08L371.47,344.86L370.78,345.02L383.72,335.35L381.01,342.63L357.39,363.19L380.06,340.8L381.99,347.27L385.85,342.54L384.74,346.91L393.13,340.23L391.15,345.76L382.65,352.72L390.77,346.73L390.22,350.34L403.29,340.54L387.48,357.33L388.51,353.72L392.96,353.8L403.11,347.46L390.05,360.47L393.69,355.66L412.57,345.17L411.36,349.29L414.66,347.17L394.89,363.86L397.42,359.77L399.96,361.18L421.8,346.31L428.75,346.54L412.6,358.15L398.17,366.97L407.57,361.48L390.61,375.64L417.65,355.77L413.6,364.43L455.47,335.48L426.87,362.04L429.11,353.84L428.05,359.5L436.68,352.85L446.08,350.04L435.58,357.09L450.97,346.82L448.48,351.59L454.04,347.18L440.05,357.73L425.87,363.77L448.24,350.62L458.39,348.5L448.58,353.69L461.86,345.65L438.76,360.72L467.84,340.89L452.61,354.89L459.43,346.45L466.35,345.31L484.52,334.68L472.85,343.02L465.03,343.92L487.35,332.08L472.3,342.01L475.46,337.32L440.25,356.99L480.99,330L493.46,330.09L481.3,332.75L513.64,315.11L460.95,344.93L495.67,317.73L507.43,319.1L467.8,335.74L474.11,328.15L483.76,324.66L502.71,313.34L511.17,309.77L495.48,315.71L516.31,301.42L525.53,298.22L489.28,311.18L480.79,313.3L476.97,313.37L503.17,297.72L527.14,286.85L500.8,299.31L513.31,287.38L502.01,294.85L497.27,292.06L531.93,273.13L497.44,292.73L506.18,279.75L529.01,269.03L547.5,257.47L525.31,268.45L507.43,271.49L550.13,244.83L553.26,246.2L503.39,268.89L494.21,266.28L529.82,245.2L528.68,247.04L522.2,245.14L554.01,224.02L529.31,239.99L516,239.49L533.66,227.23L516.22,236.8L550.05,209.37L526.21,227.84L538.5,210.32L531.63,216.86L537.19,206.56L545.38,200.2L547.6,195.67L540.92,197.49L539.29,194.65L533.53,196.61L525.89,197.94L553.4,173.25L534.01,190.66L546.11,171.8L538.41,180.66L542.12,170.85L536.41,175.61L545.24,162.08L555.79,152.4L546.66,159.4L542.54,158.48L542.56,156.33L543.37,153.03L540.36,153.95L549.5,139.94L546.22,144.16L553.02,130.72L549.54,136.31L547.13,134.94L549.12,130.37L547.54,131.45L547.15,128.83L554.77,113.53L549.99,123.6L552.3,113.14L555.08,107.83L554.1,108.66L553.23,108.45L557.09,95.03L553.62,108.97L550.96,114.74L553.47,98.18L554.75,84.9L555.01,82L554.62,97.3L554.73,89.28L555.19,96.18L553.88,85.42L555.06,95.95L551.65,72.15L550.12,71.77L553.24,82.78L553.48,80.59L549.13,68.45L550.26,73.46L550.51,72.64L556.47,87.39L552.97,76.54L552.97,80.12L541,55.37L547.16,74.09L549.92,73.27L548.1,72.52L543.15,65.57L551.21,80.48L540.79,61.42L537.64,63.87L547.54,76.13L526.17,45.17L531.86,62.01L532.88,57.74L528.63,56.16L536.6,66.91L533.14,61.42L533.18,65.05L536.63,68.8L525.93,57.51L521.22,56.64L523.44,59.62L517.48,53.64L506.23,44.95L513.89,55.89L518.99,59.69L525.46,67.9L524.18,66.61L514.77,59.98L504.57,53.86L519.41,70.96L518.1,67.6L513.83,67.78L504.08,59.62L473.27,35.6L493.31,60.16L477.65,40.92L493.08,63.05L494.45,59.43L488.76,59.39L497.1,68.06L484.24,57.02L477.7,57.42L503.95,80.98L486.39,63.2L478.37,64.78L483.91,70.08L482.26,70.31L477.88,69.85L485.48,78.97L478.61,73.6L465.13,66.9L465.58,71.52L484.21,87.97L457.54,64.63L441.97,60.78L456.99,75.21L464.97,81.22L459.29,78.99L459.4,82.48L451.9,77.92L453.67,83.37L448.61,80.2L448.52,83.78L440.61,78.53L440.26,81.81L424.63,69.82L435.32,84.64L444.66,90.52L428.83,79.09L428.7,83.85L420.17,76.7L425.28,85.67L434.67,93.31L424.87,85.55L412.33,79.45L437.85,104.66L422.02,86.83L423.58,95.94L409.13,81.52L416.48,93.69L397.27,75.14L431.44,113.31L418.13,93.03L411.08,96.49L422.45,106.15L407.55,92.84L415.59,106.15L411.94,100.77L411.33,104.74L412.97,106.52L394.53,91.11L410.38,112L402.91,100.68L396.08,100.4L404.27,109.42L399.02,104.4L403.72,113.16L407.73,116.85L403.29,114.36L402.94,116.78L397.75,112.63L391.78,111.32L394.73,116.64L391.32,114.05L400.67,127.68L409.36,135.52L388.46,113.93L392.74,126.11L391.06,121.45L379.28,112.06L380.05,116.74L388.19,126.58L392.54,131.46L380.77,118.84L378.52,121.27L384.9,129.73L395.97,142.88L375.74,117.67L382.55,134.75L386.3,135.48L381.74,134.42L376.06,128.99L374.25,131.07L384.07,145.29L366.76,120.59L374.28,139.04L369.52,128.28L376.45,143.86L377.19,142.46L380.82,150.82L372.41,138.52L376.69,149.62L364.85,130.06L362.32,133.74L371.55,146.91L364.12,134.39L359.55,133.19L371.14,152.14L364.05,138.23L362.96,143.02L368.91,152.2L366.6,148.89L370.29,158.3L367.08,151.9L359.19,142.01L355.79,140.09L366.52,160.51L360.09,146.34L362.41,156.83L355.78,143.15L362.15,161.02L361.09,155.85L360.29,158.36L351.83,142.48L352.64,150.41L362.94,170.18L361.34,165.33L360.01,167.26L360.43,169.17L351.07,154.05L350.87,156.69L348.39,152.15L351.95,163.71L352.78,164.62L350.92,162.62L347.52,156.75L347.75,160.66L351.31,169.79L345.84,156.22L347.02,165.11L350.33,173.51L344.86,161.09L347.49,173.13L346.54,168.75L344.72,167.86L348.65,181.26L347.02,178.5L343.29,169.61L342.3,169.81L337.3,154.68L336.92,159.33L342.65,178.1L340.03,167.71L342.36,181.64L342.03,178.4L339.63,173.74L341,182.64L339.47,178.22L335.46,165.52L336.76,175.64L337.79,178.96L336.45,175.86L337.84,184.95L335.78,176.31L339.18,196.77L334.89,173.98L337.72,196.96L335.08,179.1L333.5,179.18L332.69,176.07L334.09,187.17L332.65,179.36L334.35,194.36L331.96,178.69L331.75,184.97L332.97,198.41L329.83,178.66L331.02,195.5L330.35,194.12L329.3,188.5L331.19,210.44L328.05,178.65L328.13,192.19L329.2,202.27L327.56,193.67L327.82,201.12L326.06,179.76L326.42,194.58L326.53,196.44L325.71,189.16L325.89,199.54L325.81,201.48L324.84,186.44L323.93,173.76L324.55,195.4L324.9,207.96L324.15,206.12L323.94,210.31L323.45,197.32L323.36,218.76L322.97,194.79L322.73,219.33L322.46,201.9L322.18,211.64L321.93,206.53L321.52,216.15L321.28,201.25L320.31,222.52L319.82,220.81L320.04,213.48L320.84,198.21L319.92,214.56L319.9,205.3L317.83,231.38L319.04,209.03L316.76,230.77L318.63,205.53L319.6,204.07L317.06,225L316.84,220.1L318.81,205.93L316.76,224.76L317.33,213.96L316.95,220.6L315.48,228.2L315.24,227.42L315.34,225.68L317.12,214.34L315.52,227.02L315.07,226.71L313.83,232.84L315.52,221.52L317.2,216.55L311.07,249.77L314.5,222.88L317.85,215.1L314.22,233.8L313.05,234.95L313.6,233.61L312.82,237.13L315.82,222.17L316.72,222.66L313.88,234.79L317.66,218.05L314.38,235.86L310.36,247.85L313.46,233.69L313.23,238.68L314.91,230.03L314.33,235.36L314.19,234.17L316.47,227L313.4,241.24L311.03,246.33L314.68,233.08L314.81,236.84L311.67,246.51L315.18,232.86L312.59,246.33L310.93,250.04L314.53,238.62L312.32,249.47L312.37,246.7L311.91,250.5L311.77,250.41L312.67,249.01L309.84,258.22L315.98,238.68L311.2,259.23L311.73,252.21L312.45,253.8L317.87,238.72L310.44,264.21L316.92,240.24L312.84,260.37L311.87,256.9L316.79,247.28L312.61,261.1L315.83,249.6L315.73,254.77L313.96,258.23L314.29,258.16L312.52,263.8L313.35,261.13L314.98,259.1L313.77,263.24L314.85,260.45L315.33,261.62L310.92,272.39L315.11,260.83L317.94,258.71L314.27,267.99L317.1,261.57L317.06,264.41L318.41,260.98L322.14,255.13L317.88,266.41L321.55,256.6L319.41,265.72L312.01,279.51L316.7,269.54L318.32,269.72L319.99,266.59L319.2,269.94L322.96,262.72L319.19,273.8L313.69,282.78L314.63,280.37L322.31,267.56L323.08,269.85L325.19,266.57L311.43,294.39L324.05,265.26L323.94,276.14L313.74,291.38L316.95,284.17L321.53,279.73L325.72,276.07L314.3,297.78L323.45,278.45L318.09,295.87L308.94,307.56L324.45,286.8L328.09,283.97L337.91,269.8L333.73,281.67L331.66,283.32L326.6,293.8L325.4,294.71L328.81,291.18L333.48,286.57L326.44,300.01L323.13,303.89L312.23,321.6L323.58,302L329.81,300.7L316.26,321.08L317.25,316.24L331.87,299.26L335.69,298.54L342.32,290.23L336.08,302.9L334.28,303.53L338.04,301.21L331.26,312.47L333.94,307.16L347.65,292.62L343.19,302.86L344.9,299.19L337.95,311.47L339.59,307.36L348.41,299.79L339.41,314.01L339.21,312.01L340.71,313.45L335.82,320.45L335.11,321.23L341.35,315.69L339.7,320.46L341.83,317.67L354.34,306.62L330.41,337.77L349.29,310.22L344.31,326.48L339,328.5L336.2,333.92L353.29,315.2L362.71,311.53L352.91,322.75L360.68,317.64L339.92,342.26L351.21,326.5L350.14,334.61L358.28,325.02L355.52,332.26L367.63,319.48L369.41,323.76L348.19,344.08L369.5,320.86L372.18,326.85L367.34,330L370.7,328.68L368.35,333.62L354.97,346.33L370.5,331.65L360.73,346.43L368.53,336.88L366.27,344.4L360.27,348.89L373.68,338.64L374.87,342.07L376,341.44L378.93,341.2L385.59,337.47L384.3,340.9L396.05,331.77L400.31,332.84L379.55,350.37L386.78,342.52L390.46,343.92L404.22,333.77L396.23,344.24L389.24,348.36L385.91,352.06L407.01,336.89L407.45,341.39L415.9,334.73L381.6,365.99L377.95,363.58L408.54,345.53L413.97,346.68L414.89,345.92L415.76,347.36L408.02,353.58L416.58,347.82L419.35,348.33L447.46,330.05L440.46,339.86L431.51,343.42L418.48,352.7L436.51,340.42L419.41,355.39L434.07,342.62L436.62,345.5L451.96,334.98L440.52,345.11L449.59,337.46L426.7,353.82L467.02,325.36L463.78,335.34L436.95,346.52L450.75,338.24L476.73,325.68L427.63,356.31L451.7,335.36L436.9,351.25L439.94,344.62L442.14,345.99L475.82,325.9L473.73,331.03L494.01,316.89L470.38,333.15L476.87,324.27L482.44,324.05L468.51,329.92L495.56,312.57L510.3,307.66L493.04,316.13L459.13,331.91L457.2,329.42L473.11,321.69L472.38,322.5L485,313.94L489.48,312.43L490.69,310.44L482.84,313.93L485.98,309.99L515.4,292.84L486.94,306.61L485.48,302.03L529.61,278.54L498.59,298.34L482.19,299.46L500.11,289.15L492.34,291.68L508.22,279.82L530.39,267.94L529.72,267.11L538.68,259.4L493.43,284.12L496.38,273.6L532.92,254.7L511.06,267.64L517.36,257.43L506.67,264.41L516.63,253.28L530.82,245.51L509.47,256.22L519.63,244.84L505.78,254.11L510.14,246.09L504.48,249.74L509.48,242.19L534.97,225.54L521.32,234.65L517.8,231.03L519.81,228.95L509.12,233.37L523.78,219.53L530.97,214.86L544.58,202.71L523.23,217.14L530,205.54L518.46,214.53L537.62,193.97L546.05,189.44L552.09,181.13L534.65,193.68L525.96,194.08L538.31,181.4L543.13,176.98L535.98,180.81L515.94,194.87L527.74,178.39L527.2,180.77L531.48,172.11L529.25,173.65L539.21,159.23L550.7,147.6L546.17,151.58L534.3,161.01L532.83,158.18L542.27,145.22L540.14,148.13L536.04,149.34L543.11,137.07L541.86,139L546.81,128.01L539.14,141.44L532.16,147.21L542.57,125.5L546.76,120.14L548.05,115.66L538.09,136.6L543.51,117L541.31,126.68L543.19,116.15L541.57,122.97L541.08,121.14L540.39,123.03L543.74,106.39L543.51,109.69L544.72,95.46L544.69,98.26L544.71,104.72L544.85,106.07L544.04,89.97L542.86,79.49L544.73,97.35L544.6,89.39L540.92,71.35L544.33,91.61L544.77,86.08L540.98,75.97L544.11,85.39L545.15,85.39L538.75,69.48L541.81,81.15L544.21,83.18L546.52,88.98L540.67,75.66L532.94,64.32L532.38,65.69L537.82,75.01L536.47,71.19L533.62,68.98L537.35,75.72L531.71,66.27L532.82,72.19L542.35,84.68L530.46,67.12L535.2,79.54L521.65,58.96L536.11,85.26L527.95,68.38L520.77,67.25L527.15,75.42L521.42,68.07L514.25,63.56L518.1,72.48L506.51,60.16L513.11,72.27L508.04,64.31L494.87,54.79L500.05,64.04L519.2,82.7L504.08,65.26L492.77,60.64L488.99,58.44L500.7,72.2L496.84,66.96L494.21,68.59L495.13,70.87L503.41,80.26L487.89,65.43L482.86,67.02L491.55,75.76L486.45,71.32L481.43,70.27L474.64,66.2L485.07,78.72L472.99,66.8L477.88,77.19L474.19,72.79L475.38,77.21L445.8,50.94L454.35,67.21L461.8,70.03L452.42,64.55L460.46,75.69L478,90.17L453.53,67.84L445.45,69.21L464.65,86.01L442.72,65.32L453.44,83.03L451.56,77.77L447.15,78.88L450.71,83.86L458.83,92.37L447.6,82.71L431.41,73.31L439.08,84.08L445.79,89.56L445.2,90.74L430.08,78.96L419.04,74.26L439.74,95.87L442.41,95.37L430.1,88.24L431.61,93.33L429.63,92.16L427.36,93.04L417.24,88.14L423.13,96.24L412.03,86.06L421.24,99.81L416.54,93.76L422.6,103.98L412.07,93.02L410.78,96.81L401.73,88.08L401.24,92.3L417.51,108.56L411.96,101.36L397.28,92.15L420.71,119.47L430.09,123.9L408.09,104.83L404.42,107.68L407.77,110.99L401.78,106.46L400.11,107.64L391.15,99.46L393.75,105.97L392.79,104.44L388.21,102.13L390.34,106.53L393.8,110.86L395.07,114.68L389.82,110.06L385.52,108.37L395.79,122.2L408.46,135L396.85,121.12L378.03,105.49L393.16,126.91L380.92,108.4L383,118.52L385.04,118.27L372.73,106.59L390.57,132.53L390.72,127.74L388.21,129.5L386.01,127.04L373.34,113.13L367.38,110.25L375.15,121.17L370.9,114.93L379.33,129.51L375.91,122.19L365.18,112.37L371.14,123.41L375.9,127.88L370.65,122.5L379.07,136.92L377.69,132.92L376.26,134.41L371.27,128.59L378.05,141.01L368.54,125.96L371.46,136.11L367.91,128.9L364.34,127.91L367.44,133.12L354.44,114.71L372.52,147.92L364.61,128.48L362.47,134.12L368.62,142.2L364.75,136.95L370.7,149.74L364.98,138.83L361.51,138.34L360.04,136.93L361.37,141.34L361.13,141.98L366.56,152.92L358.19,138.28L365.3,156.47L359.22,142.53L361.73,153.36L356.49,141.93L353.3,141.48L354.4,145.11L363.79,163.89L360.53,155.53L355.63,151.14L351.06,148.04L350.76,148.72L344.66,137.7L346.78,146.46L350.78,152.88L339.47,129.83L346.01,151.04L349.18,152.72L348.17,153.47L349.3,157.22L349.37,157.69L343.94,147.14L347.9,160.26L348.87,159.87L342.61,147.1L337.34,138.67L341.69,151.59L343.97,155.12L343.73,156.2L344.71,159.44L338.21,143.81L343.16,161.45L340.16,149.77L339.71,153.83L337.76,148.22L340.99,159.76L338.35,150.97L339.64,158.93L340.52,160.45L340.94,163.82L343.09,170.3L334.51,145.4L336.02,157.42L335,151.44L336.66,161.12L341.46,174.89L338.78,165.63L334.64,156.9L332.79,153.96L335.06,163.43L335.69,165.07L334.65,163.65L333.24,161.43L336.85,176.31L334.76,167.59L335.14,173.97L333,165.72L331.08,162.71L328.65,157.98L330.29,165.95L329.7,163.87L330.87,171.54L330.2,169.03L331.56,177.87L330.32,172.38L329.55,172.61L326.66,161.65L330.19,182.11L329.1,173.85L327.94,174.33L329.86,185.04L329.12,181.69L329.29,186.15L325.67,168.13L325.99,175.87L322.27,154.57L324,171.62L324.55,171.37L325.23,178.46L322.58,163.47L324.75,182.91L327.28,195.03L323.97,174.77L321.51,166.41L323.14,179.76L324.05,187.9L321.66,171.6L320.41,169.44L324.45,201.35L322.32,180.09L320.4,174.26L321.46,184.77L320.11,173.24L320.4,181.8L321.05,191.85L319.85,180.52L319.45,182.64L317.78,172.34L318.98,189.74L317.22,174.05L317.96,185.62L318.34,191.73L316.5,175.87L316.55,181.32L317.42,197.86L316.32,179.07L315.9,181.19L316.29,195.47L316.13,194.5L315.95,197.71L315.25,183.07L315.01,185.22L315.19,196.24L314.6,189.49L314.61,201.37L313.63,183.42L313.52,199.58L313.37,175.1L313.24,204.24L312.84,200.04L312.53,205.4L312.31,186.35L311.8,203.25L311.43,204.8L311.46,199.25L311.45,193.78L310.94,203.84L310.91,198.73L310.67,203.32L309.96,212.27L310.53,196.99L309.76,209.05L310.27,196.68L309.42,207.32L309.55,202.37L309.43,204.51L309.08,206.43L309.64,198.24L309.51,201.02L309.84,196.24L307.27,225.76L308.53,202.89L309.55,199.49L309.51,196.3L307.21,215.55L306.78,215.6L309.88,192L306.85,215.96L306.68,214.56L308.08,204.78L303.78,236.7L306.86,208.14L306.97,216.24L306.12,217.48L307.49,210.03L304.72,228L307.4,212.53L305.56,224.85L304.48,227.72L305.84,220.42L307.86,213.13L307.86,213.7L307.29,217.71L304.74,230.2L307.08,215.99L306.66,222.76L306.72,220.31L305.97,225.47L307.15,218.87L304.92,231.66L308.09,214.82L308.8,217.25L305.46,230.66L309.39,211.24L305.78,233.29L307.31,220.16L307.82,223.33L307.31,224.57L304.47,237.46L302.84,240.95L307.84,220.8L306.95,230.23L303.89,239.56L303.96,237.8L308.62,220.89L308.25,226.9L306.98,229.6L309.91,219.18L308.33,228.57L308.32,226.37L307.96,229.72L307.5,231.43L304.19,244.58L300.41,255.17L305.37,235.75L309.8,226.38L304.54,246.58L303.62,244.67L309.16,229.06L302.57,255.48L305.04,240.94L302.22,256.21L305.19,242.36L304.64,249.3L305.8,243.29L309.36,235.04L308.32,240.56L310.11,234.15L310.14,237.63L304.52,254.42L306.62,245.07L308.31,244.41L305.08,253.79L309.33,240.17L306.4,253.61L305.61,252.5L306.2,253.21L303.84,260.23L305.32,254.83L310.14,244.31L306.97,256.2L305.23,258L310.39,245.53L309.52,252.27L303.96,265.03L310.82,245.72L308.15,258.75L311.34,247.38L305.76,266.66L304.81,264.62L304.99,267.13L303.95,269.43L307.62,260.51L313.22,250.44L308.26,265.88L302.36,277.13L301.6,278.29L305.8,269.5L309.45,264.09L309.28,266.43L307.73,270.02L312.8,259.35L309.9,270.05L307.4,273.53L308.58,272.46L304.85,281.61L313.18,262.49L312.8,269.77L310.83,272.38L306.88,281.6L314.31,265.35L311.83,275.99L313.15,270.76L313.57,273.55L308.54,282.91L311.78,278.21L312.87,278.82L304.04,296.75L306.29,289.31L311.21,284.34L306.93,293.87L312.42,282.35L313.51,285.07L313.43,284.76L318.43,277.87L310.36,295.65L309.37,294.51L305.96,303.01L316.34,283.74L317.48,288.74L308.46,302.9L316.87,287.45L313.1,300.06L310.35,302.16L309.75,304.62L321.65,286.03L317.35,299.01L318.93,293.97L314.48,305.26L310.54,309.47L322.55,291.96L319.53,302.51L318.86,301.65L315.48,309.79L312.89,313.39L312.51,315.23L315.21,312.62L313.97,316.36L323.19,303.22L325.9,304.81L314.29,322.25L312.01,323.37L317.9,317.99L312,328.77L321.55,314.2L325.49,314.49L329.07,310.4L324.79,319.86L310.52,338.37L315.48,329.74L326.18,320.66L323.77,326.81L326.33,323.24L331.52,320L326.97,327.89L331.85,321.8L328.57,329.8L326.93,331.17L332.22,326.91L331.53,330.96L322.37,342.94L314.89,351.04L326.29,338.31L332.43,336.06L339.54,329.17L341.97,329.79L343.87,329.3L335.31,341.25L311.92,368.2L329.06,347.18L324.09,360.48L332,349.36L335.84,351.21L332.26,355.49L342.57,346.42L339.08,354.47L340.98,352.02L349.07,347.93L329.99,369.08L352.59,344.05L354.15,352.13L343.63,360.9L336.93,368.44L338.96,367.04L359.74,350.61L356.33,360.01L336.07,377.15L351.25,362.66L356.05,364.89L355.44,365.49L369.9,355.19L368.52,360.88L364.81,364.25L361.6,369.11L353.13,377.3L360.15,372.09L363.74,373.32L350.52,385.03L369.58,369.64L365.81,378.74L375.39,370.35L368.51,380.02L386.66,365.72L374,381.55L364.05,386.54L378.57,381L375.05,386.4L370.52,390.22L384.25,382.15L390.46,381.72L397.01,378.74L395.07,383.29L374.05,397.97L398.73,380.21L420.98,372.49L403.67,386.11L389.83,393.35L408.12,383.22L399.77,392.87L401.44,390.6L413,386.48L414.29,387.84L422.01,384.29L416.99,389.98L406.51,396.22L414.84,392.15L413.87,395.67L410.62,398.12L410.62,399.74L404.21,404.49L429.36,391.28L423.36,399.28L421.33,399.27L420.98,401.62L429.7,397.78L435.19,397.27L432.32,400.22L415.9,409.81L408.06,413.23L443.33,396.35L456.22,394.85L438.35,403.6L454.68,394.37L474.58,388.15L449.26,401.51L448.79,399.24L451.83,400.21L436.47,407.41L458.45,396.56L440.52,407.19L512.45,371.32L468.13,399.72L452.68,397.58L489.5,383.51L491.22,384.41L494.51,380.74L494.86,381.02L453.81,397.97L451.04,394.75L499.76,374.49L507.03,373.46L516.01,366.51L507.86,369.1L529.01,357.1L492.66,372.83L489.59,367.79L500.16,363.58L500.88,361.53L488.99,364.68L475.79,367.21L501.77,354.08L498.34,355.76L520.51,342.87L493.59,354.24L498.58,346.16L513.13,340.03L513.46,337.17L534.57,325.47L516.27,331.67L529.92,320.62L504.15,330.77L512.63,320.88L519.44,317.07L551.86,299.75L518.85,313.27L504.92,311.49L512.07,306.12L544.61,289.6L503.56,306.59L510,295.49L517.3,292.75L504.36,294.55L513.81,286.78L494.98,293.49L524.52,274.57L532.3,271.59L543.17,261.2L563,250.28L504.38,275.06L513.51,260.73L531.07,253.53L523.56,253.12L543.32,238.31L570.48,223.76L522.67,244.76L557.52,216.56L551.2,222.52L558.31,210.1L552.39,212.1L525.82,220.26L560.7,194.43L535.93,210.18L540.68,197.43L535.39,199.73L566.9,173.32L576.07,168.9L535.06,189.86L544.67,173.92L551.93,169.14L558.35,159.68L547.02,165.26L554.52,153.56L538.06,165.75L535.03,160.77L537.57,156.69L547.33,144.8L540.9,149.57L537.48,147.51L539.85,142.36L551.17,128.44L540,139.58L553.72,117.03L556.29,116.34L557.51,109.89L557.49,105.22L559.97,99.21L554.5,107.5L548.71,113.96L550.64,105.14L562.62,73.96L557.98,90.88L555.88,90.36L558.38,81.08L558.23,81.77L560.04,69.68L559.37,83.42L559.32,67.01L558.82,60.91L559.49,61.08L560.88,66.58L559.51,57.89L562.05,68.6L561.45,62.53L562.19,66.11L557.45,51.74L553.1,45.29L558.74,57.72L559.68,55.61L551.89,42.48L550.67,43.44L555.92,50.62L549.59,40L560.8,59.47L548.82,37.43L542.57,36.38L547.13,41.58L555.92,51.98L551.17,45.08L546.3,42.85L547.3,44.86L543.11,41.15L549.31,49.93L542.3,42.15L550.67,54.63L545.16,46.98L528.66,35.75L536.24,46.89L543.61,52.47L542.95,53.47L532.43,46.24L529.42,46.88L510.14,31.36L513.8,40.34L521.97,45.94L513.49,40.31L509.56,40.29L496.23,31.15L513,48.74L506.29,40.45L493.68,35.89L503.59,46.09L507.53,49.03L515.31,57.25L498.25,44.81L493.45,47.72L497.03,53.31L499.58,56.28L486,48.74L496.2,61.36L510.9,71.7L498.05,63.97L490.74,63.33L459.57,42.07L447.28,40.83L479.87,66.46L481.62,64.84L472.94,63.66L474.01,67.13L466.96,64.27L477.1,75.9L479.91,77.87L456.17,64.38L479.72,87.98L463.52,73.2L474.8,89.68L447.57,67.54L455.51,83.58L474.9,96.33L445.05,79.93L434.52,77.43L455.69,96.54L439.12,82.37L441.12,91.32L430.18,82.39L436.31,92.67L425.35,83.54L426.56,90.22L433.87,96.51L430.13,95.01L419.04,89.24L424.41,97.14L418.99,92.44L405.66,85.37L417.33,98.56L416.23,96.28L412.66,97.29L425.38,110.24L431,114.38L414.8,102.31L405.68,99.54L414.39,109.17L411.85,106.67L404.35,103.5L411.14,112.01L400.16,102.3L415.28,121.22L406.1,110.09L414.33,124.35L416.04,123.5L391.24,103.31L401.05,119.57L402.54,118.5L411.15,130.68L394.72,113.76L404.39,130.8L404.85,128.45L400.08,127.77L395.79,125.88L406.75,140.41L399.47,132.25L412.05,151.72L407.2,143.36L385.94,125.26L387.14,132.43L387.64,132.17L376.33,122.77L399.45,154.81L396.34,145.23L381.48,134.53L394.23,154.43L395.94,153.87L389.53,149.38L376.39,135.48L380.4,146.17L386.24,152.71L378.8,144.2L376.36,145.11L373.01,141.74L376.82,150.14L376.7,150.31L384.68,164.77L383.56,161.41L369.34,144.13L377.31,161.33L364.52,138.28L367.74,152.58L380.27,169.31L372.13,155.77L374.69,166.34L375.32,166.3L378.58,174.99L373.8,167.34L380.88,184.54L372.44,166.17L359.05,148.75L362.69,160.12L359.63,153.16L368.18,174.81L365.98,167.14L364.32,169.45L365.02,171.71L360.92,165.55L368.64,186.63L369.44,185.33L359.85,168.08L364.04,184.5L367.49,190.1L358.23,169.48L352.57,162.97L359.1,182.65L361.77,188.02L362.07,191.49L354.81,173.55L357.73,189.07L357.9,187.58L355.83,186.03L357.41,193.88L354.74,186.55L355.62,194.72L354.44,190.86L350.02,179.83L352.71,194.49L350.21,184.16L351.26,194.68L350.56,192.11L352.79,206.07L351.22,198.81L347.59,188.51L350.5,207.13L348.73,197.56L350.54,214.34L349.82,209.45L346.43,196.02L346.88,206.81L346.16,206.12L345.34,204.58L343.13,197.32L344.64,214.96L342.97,200.58L342.64,207.34L343.5,220.09L342.55,213.21L341.68,210.81L341.53,216.81L342.07,234.32L339.98,195.77L339.75,209.36L339.37,220.59L338.8,212.7L338.45,219.78L338.04,207.51L337.64,222.28L337.17,221.13L336.88,218.52L335.88,226.54L335.68,221.93L335.59,219.28L334.74,229.13L334.45,226.27L333.98,229.8L334.46,219.42L333.52,230.92L332.04,240.1L332.99,226.82L334.22,216.2L331.39,240.69L331.91,228.65L331.2,237.49L332.38,225.45L332.54,226.34L329.3,245L330.43,233.41L329.12,244.5L328.74,243.97L327.9,246.32L330.66,234.44L327.86,248.12L327.71,245.24L328.03,246.26L323.23,265.52L327.74,242.26L329.97,240.73L323.34,263.68L325.58,256.3L325.81,258.24L325.45,258.75L328.04,251.6L328.96,251.42L327.82,254.97L330.34,249.64L327.55,258.45L327.54,257.01L327.36,259.95L318.88,281.81L325.73,259.62L325.29,267.91L328.07,258.62L319.21,284.25L324.14,265.92L327.81,264.17L326.09,267.88L328.1,263.46L326.2,270.47L322.59,277.49L331.86,259.23L331.26,264.15L324.23,278.68L324.08,277.24L322.75,282.03L327.54,271.75L326.82,277.15L325.38,278.96L328.66,273.73L326.64,279.72L333.83,265.48L327.06,283.86L323.58,286.18L327.77,280.26L329.87,279.57L318.81,300.77L323.8,287.99L325.9,290.32L320.46,299.72L321.23,297.46L329.6,285.43L331.4,286.61L327.17,294.33L326.65,294.68L336.59,280.12L336.79,284.89L332.23,291.83L331.07,294.68L321.85,309.97L336.33,284.88L343.23,282.82L334.92,296.04L329.3,303.06L334.33,296.04L339.47,291.57L342.99,288.67L334.81,302.18L343.77,287.62L338.76,301.05L330.1,310.27L338.19,299.08L343.55,296.52L335.08,309.43L335.23,307.27L346.7,294.99L340.09,308.17L335.15,312.11L343.89,302.39L344.16,306.31L337.15,314.73L352.81,294.92L350.54,304.81L343.55,311.42L345.57,309.92L348.54,308.64L348.66,310.26L349.76,310.52L342.16,321.24L346.82,314.86L352.98,312.28L336.34,333.11L345.88,318.87L356.1,314.19L347,326.21L346.29,325.55L361.58,311.74L359.04,319.98L342.98,335.79L364.26,312.03L366.22,318.07L371.28,311.81L358.46,329.1L359.99,324.7L369.9,318.42L377.34,314.38L353.18,340.66L360.72,328.76L367.12,328.6L375.6,320.66L385.86,314.98L366.37,335.53L381.37,318.47L370.7,335.35L375.89,326.81L382.78,326.19L358.37,349.07L372.79,332.46L385.05,328.78L378.01,335.97L382.63,332.14L376.7,339.78L400.15,319.45L391.19,333.84L389.1,332.57L385.44,338.53L395.33,330.45L392.5,336.58L392.24,336.26L396.06,335.28L398.72,334.81L398.61,336.04L413.33,325.61L413.31,329.16L419.14,324.62L407.23,336.23L408.99,333.71L389.59,350.59L408.94,333.29L418.59,332.58L414.15,336.13L398.75,347.31L425.43,326.91L434.76,326.39L440.93,321.79L423.33,336.34L415.95,338.91L417.52,338.67L449.75,317.11L462.33,314.56L424.7,339.32L429.68,330.54L462.76,313.24L436.36,333.79L444.94,323.36L423.9,341.88L417.8,341.28L435.32,332.06L445.9,327.47L455.13,322.59L443.96,330.75L453.44,322.94L459.55,321.62L464.96,318.26L452.19,326.49L478.69,308.59L451.05,330.23L446.08,327.16L454.95,323.59L493.71,300.44L476.6,315.19L473.12,312.02L469.72,315.57L476.09,310.33L466.73,316.55L485.57,303L482.68,307.03L503.83,291.94L481.22,307.68L496.62,292.82L496.13,296.23L504.12,288.02L505.57,288.49L468.5,308.17L481.5,295.27L476.94,301.52L463.71,305.37L497.28,283.92L505.58,282.5L505.78,279.63L496.59,284.56L481.72,290.45L500.37,277.23L486.52,287.38L489.94,280.36L507.89,270.55L500.92,274.74L495.99,274.23L512.21,263.6L488.4,278.65L495.99,267.17L549.55,235.47L550.14,238.78L517.29,254.1L494.21,263.28L516.47,246.2L501.46,258.23L494.68,256.54L502.09,250.7L525.22,234.39L518.02,240.23L507.39,242.63L510.15,238.41L520.1,230.21L524.44,226.48L512.12,232.61L528,217.5L516.78,226.75L523.66,216.13L516.15,222.58L510.17,222.17L520.87,212.72L505.34,223.87L529.75,199.02L531.92,201.67L511.87,213.24L501.98,216.68L519.64,199.34L533.22,189.09L540.48,181.53L524.24,194.07L536.01,177.4L537.85,177.67L536.96,174.54L530.45,178.6L546.52,159.07L526.8,180.73L549.25,147.6L543.35,160.88L529.06,168.88L535.52,158.13L535.06,159.28L529.62,162.87L527.14,162.82L538.56,145.56L527.63,162.92L525.8,158.32L530.25,151.63L535.97,141.06L542.08,130.88L537.6,138.29L538.6,132.28L543.79,119.74L533.37,144.06L535.98,129.87L536.79,130.97L539.56,121.05L538.56,122.45L538.48,121.22L541.77,105.32L541.18,107.57L539.83,118.79L541.31,97.29L541.15,105.84L541.42,115.31L539.85,94.89L539.36,94.91L538.93,90.5L537.51,83.93L540.61,100L539.29,91.44L535.51,80.84L537.15,86.82L541.75,99.85L539.19,90.8L533.89,82.49L536.43,90.31L536.65,88.54L525.08,66.57L525.83,73.71L525.51,70.87L534.13,89.1L540.05,95.67L533.64,85.53L524.44,74L519.26,69.25L531.69,90.36L532.39,87.25L522.37,76.15L521.06,77.76L520.51,76.63L508.33,61.99L521.49,84.77L524.18,83.13L514.34,74.29L519.21,83.69L513.71,75.69L516.07,82.78L509.97,74.24L498.77,65.01L507.21,79.53L494.01,64.18L501.53,78.05L490.43,63.48L507.93,89.16L506.86,82.38L491.49,71.14L488.59,71.13L474.68,57.31L482.44,70.19L477.68,62.89L481.52,71.31L484.24,73.45L491.37,82.76L489.04,80.52L490.78,85.55L486.73,81.99L474.71,73.13L467.24,69.4L466.62,71.13L471.09,76.8L464.41,71.56L476.42,87.11L475.37,84.17L457.67,74.33L462.93,82.06L460.8,80.56L466.99,89.43L451.17,74.36L453.67,82.73L440.76,69.2L438.84,72.92L431.97,66.95L454.86,92.54L446.42,80.13" style="vector-effect: non-scaling-stroke; fill: none; stroke: rgb(239, 85, 59); stroke-opacity: 1; stroke-width: 2px; opacity: 1;"/></g><g class="points"/><g class="text"/></g></g></g><g class="overplot"/><path class="xlines-above crisp" d="M79,520.5H693M79,99.5H693" style="fill: none; stroke-width: 1px; stroke: rgb(0, 0, 0); stroke-opacity: 1;"/><path class="ylines-above crisp" d="M79.5,100V520M692.5,100V520" style="fill: none; stroke-width: 1px; stroke: rgb(0, 0, 0); stroke-opacity: 1;"/><g class="overlines-above"/><g class="xaxislayer-above"><g class="xtick"><text text-anchor="middle" x="0" y="535.4" transform="translate(141.2,0)" style="font-family: 'Open Sans', verdana, arial, sans-serif; font-size: 12px; fill: rgb(42, 63, 95); fill-opacity: 1; white-space: pre; opacity: 1;">2</text></g><g class="xtick"><text text-anchor="middle" x="0" y="535.4" style="font-family: 'Open Sans', verdana, arial, sans-serif; font-size: 12px; fill: rgb(42, 63, 95); fill-opacity: 1; white-space: pre; opacity: 1;" transform="translate(263.6,0)">1</text></g><g class="xtick"><text text-anchor="middle" x="0" y="535.4" style="font-family: 'Open Sans', verdana, arial, sans-serif; font-size: 12px; fill: rgb(42, 63, 95); fill-opacity: 1; white-space: pre; opacity: 1;" transform="translate(386,0)">0</text></g><g class="xtick"><text text-anchor="middle" x="0" y="535.4" style="font-family: 'Open Sans', verdana, arial, sans-serif; font-size: 12px; fill: rgb(42, 63, 95); fill-opacity: 1; white-space: pre; opacity: 1;" transform="translate(508.4,0)">1</text></g><g class="xtick"><text text-anchor="middle" x="0" y="535.4" style="font-family: 'Open Sans', verdana, arial, sans-serif; font-size: 12px; fill: rgb(42, 63, 95); fill-opacity: 1; white-space: pre; opacity: 1;" transform="translate(630.8,0)">2</text></g></g><g class="yaxislayer-above"><g class="ytick"><text text-anchor="end" x="76.6" y="4.199999999999999" transform="translate(0,520)" style="font-family: 'Open Sans', verdana, arial, sans-serif; font-size: 12px; fill: rgb(42, 63, 95); fill-opacity: 1; white-space: pre; opacity: 1;">15</text></g><g class="ytick"><text text-anchor="end" x="76.6" y="4.199999999999999" style="font-family: 'Open Sans', verdana, arial, sans-serif; font-size: 12px; fill: rgb(42, 63, 95); fill-opacity: 1; white-space: pre; opacity: 1;" transform="translate(0,436)">10</text></g><g class="ytick"><text text-anchor="end" x="76.6" y="4.199999999999999" style="font-family: 'Open Sans', verdana, arial, sans-serif; font-size: 12px; fill: rgb(42, 63, 95); fill-opacity: 1; white-space: pre; opacity: 1;" transform="translate(0,352)">5</text></g><g class="ytick"><text text-anchor="end" x="76.6" y="4.199999999999999" style="font-family: 'Open Sans', verdana, arial, sans-serif; font-size: 12px; fill: rgb(42, 63, 95); fill-opacity: 1; white-space: pre; opacity: 1;" transform="translate(0,268)">0</text></g><g class="ytick"><text text-anchor="end" x="76.6" y="4.199999999999999" style="font-family: 'Open Sans', verdana, arial, sans-serif; font-size: 12px; fill: rgb(42, 63, 95); fill-opacity: 1; white-space: pre; opacity: 1;" transform="translate(0,184)">5</text></g><g class="ytick"><text text-anchor="end" x="76.6" y="4.199999999999999" style="font-family: 'Open Sans', verdana, arial, sans-serif; font-size: 12px; fill: rgb(42, 63, 95); fill-opacity: 1; white-space: pre; opacity: 1;" transform="translate(0,100)">10</text></g></g><g class="overaxes-above"/></g></g><g class="polarlayer"/><g class="smithlayer"/><g class="ternarylayer"/><g class="geolayer"/><g class="funnelarealayer"/><g class="pielayer"/><g class="iciclelayer"/><g class="treemaplayer"/><g class="sunburstlayer"/><g class="glimages"/><defs id="topdefs-e95050"><g class="clips"/><clipPath id="legende95050"><rect width="84" height="48" x="0" y="0"/></clipPath></defs><g class="layer-above"><g class="imagelayer"/><g class="shapelayer"/></g><g class="infolayer"><g class="legend" pointer-events="all" transform="translate(704.24,100)"><rect class="bg" shape-rendering="crispEdges" style="stroke: rgb(68, 68, 68); stroke-opacity: 1; fill: rgb(255, 255, 255); fill-opacity: 1; stroke-width: 0px;" width="84" height="48" x="0" y="0"/><g class="scrollbox" transform="" clip-path="url(#legende95050)"><g class="groups"><g class="traces" transform="translate(0,14.5)" style="opacity: 1;"><text class="legendtext" text-anchor="start" x="40" y="4.680000000000001" style="font-family: 'Open Sans', verdana, arial, sans-serif; font-size: 12px; fill: rgb(42, 63, 95); fill-opacity: 1; white-space: pre;">trace 0</text><g class="layers" style="opacity: 1;"><g class="legendfill"/><g class="legendlines"><path class="js-line" d="M5,0h30" style="fill: none; stroke: rgb(99, 110, 250); stroke-opacity: 1; stroke-width: 2px;"/></g><g class="legendsymbols"><g class="legendpoints"/></g></g><rect class="legendtoggle" x="0" y="-9.5" width="78.375" height="19" style="fill: rgb(0, 0, 0); fill-opacity: 0;"/></g><g class="traces" transform="translate(0,33.5)" style="opacity: 1;"><text class="legendtext" text-anchor="start" x="40" y="4.680000000000001" style="font-family: 'Open Sans', verdana, arial, sans-serif; font-size: 12px; fill: rgb(42, 63, 95); fill-opacity: 1; white-space: pre;">trace 1</text><g class="layers" style="opacity: 1;"><g class="legendfill"/><g class="legendlines"><path class="js-line" d="M5,0h30" style="fill: none; stroke: rgb(239, 85, 59); stroke-opacity: 1; stroke-width: 2px;"/></g><g class="legendsymbols"><g class="legendpoints"/></g></g><rect class="legendtoggle" x="0" y="-9.5" width="78.375" height="19" style="fill: rgb(0, 0, 0); fill-opacity: 0;"/></g></g></g><rect class="scrollbar" rx="20" ry="3" width="0" height="0" style="fill: rgb(128, 139, 164); fill-opacity: 1;" x="0" y="0"/></g><g class="g-gtitle"/><g class="g-xtitle"/><g class="g-ytitle"/></g></svg>