<svg class="main-svg" xmlns="http://www.w3.org/2000/svg" xmlns:xlink="http://www.w3.org/1999/xlink" width="700" height="500" style="" viewBox="0 0 700 500"><rect x="0" y="0" width="700" height="500" style="fill: rgb(255, 255, 255); fill-opacity: 1;"/><defs id="defs-c58599"><g class="clips"><clipPath id="clipc58599xyplot" class="plotclip"><rect width="504" height="320"/></clipPath><clipPath class="axesclip" id="clipc58599x"><rect x="80" y="0" width="504" height="500"/></clipPath><clipPath class="axesclip" id="clipc58599y"><rect x="0" y="100" width="700" height="320"/></clipPath><clipPath class="axesclip" id="clipc58599xy"><rect x="80" y="100" width="504" height="320"/></clipPath></g><g class="gradients"/><g class="patterns"/></defs><g class="bglayer"/><g class="layer-below"><g class="imagelayer"/><g class="shapelayer"/></g><g class="cartesianlayer"><g class="subplot xy"><g class="layer-subplot"><g class="shapelayer"/><g class="imagelayer"/></g><g class="gridlayer"><g class="x"><path class="xgrid crisp" transform="translate(203.07999999999998,0)" d="M0,100v320" style="stroke: rgb(235, 240, 248); stroke-opacity: 1; stroke-width: 1px;"/><path class="xgrid crisp" transform="translate(326.15,0)" d="M0,100v320" style="stroke: rgb(235, 240, 248); stroke-opacity: 1; stroke-width: 1px;"/><path class="xgrid crisp" transform="translate(449.23,0)" d="M0,100v320" style="stroke: rgb(235, 240, 248); stroke-opacity: 1; stroke-width: 1px;"/><path class="xgrid crisp" transform="translate(572.31,0)" d="M0,100v320" style="stroke: rgb(235, 240, 248); stroke-opacity: 1; stroke-width: 1px;"/></g><g class="y"><path class="ygrid crisp" transform="translate(0,395.88)" d="M80,0h504" style="stroke: rgb(235, 240, 248); stroke-opacity: 1; stroke-width: 1px;"/><path class="ygrid crisp" transform="translate(0,341.28)" d="M80,0h504" style="stroke: rgb(235, 240, 248); stroke-opacity: 1; stroke-width: 1px;"/><path class="ygrid crisp" transform="translate(0,286.69)" d="M80,0h504" style="stroke: rgb(235, 240, 248); stroke-opacity: 1; stroke-width: 1px;"/><path class="ygrid crisp" transform="translate(0,177.49)" d="M80,0h504" style="stroke: rgb(235, 240, 248); stroke-opacity: 1; stroke-width: 1px;"/><path class="ygrid crisp" transform="translate(0,122.89)" d="M80,0h504" style="stroke: rgb(235, 240, 248); stroke-opacity: 1; stroke-width: 1px;"/></g></g><g class="zerolinelayer"><path class="xzl zl crisp" transform="translate(80,0)" d="M0,100v320" style="stroke: rgb(235, 240, 248); stroke-opacity: 1; stroke-width: 2px;"/><path class="yzl zl crisp" transform="translate(0,232.09)" d="M80,0h504" style="stroke: rgb(235, 240, 248); stroke-opacity: 1; stroke-width: 2px;"/></g><path class="xlines-below"/><path class="ylines-below"/><g class="overlines-below"/><g class="xaxislayer-below"/><g class="yaxislayer-below"/><g class="overaxes-below"/><g class="plot" transform="translate(80,100)" clip-path="url(#clipc58599xyplot)"><g class="scatterlayer mlayer"><g class="trace scatter trace67e42d" style="stroke-miterlimit: 2; opacity: 1;"><g class="fills"/><g class="errorbars"/><g class="lines"><path class="js-line" d="M0,117.61L0.12,117.16L0.25,111.2L0.37,111.55L0.49,125.62L0.86,131.45L1.23,117.79L1.35,120.13L1.48,115.71L2.34,133.37L2.46,127.78L2.58,120.48L2.95,136.35L3.2,123.42L3.32,132.04L3.45,142.37L3.94,123.69L4.06,129.44L4.68,124.12L4.92,146.52L5.05,130.46L5.66,143.97L5.78,141.29L5.91,130.58L6.03,125.31L6.15,145.42L6.52,136.69L6.65,136.48L7.51,158.6L7.63,149.95L7.75,143.48L7.88,143.07L8,147.98L8.12,148.16L8.25,151.62L8.74,151.76L8.86,141.22L8.98,144.73L9.11,144.63L9.85,158.98L9.97,140.93L10.34,161.56L10.58,145.44L10.71,142.39L10.83,169.46L11.45,153.99L11.57,152.44L11.69,154.19L11.82,148.5L11.94,162.96L12.55,149.86L12.68,164.83L12.8,164.3L12.92,167.82L13.29,158.78L13.54,161.69L13.66,177.12L13.78,151.1L14.4,156.26L14.52,165.09L14.77,167.18L14.89,161.04L15.14,183.98L15.63,170.77L15.75,168.3L15.88,180.41L16.49,171.51L16.62,162.74L17.6,183.08L17.72,179.76L17.85,180.84L17.97,166.04L18.95,188.61L19.08,185.05L19.2,164.51L19.57,190.49L19.69,187.13L19.82,192.32L20.18,178.77L20.43,196.55L20.55,194.31L21.17,182.77L21.29,191.58L21.42,193.49L21.66,179.24L21.78,197.26L22.03,187.16L22.15,198.23L22.77,181.85L22.89,190.37L23.02,192.1L23.38,177.88L23.75,209.63L23.88,201.15L24,197.98L24.12,204.99L24.37,193.07L24.62,200.08L24.74,197.26L24.98,192.38L25.6,208.21L25.72,191.85L26.34,212.88L26.58,211.25L26.71,200.24L27.32,223.32L27.69,221.31L27.82,223.43L27.94,228.99L28.18,217.76L28.31,208.69L28.43,230.55L28.92,208.62L29.05,223.28L29.17,220.69L29.29,219.25L29.42,229.81L30.15,221.55L30.28,221.74L30.4,229.03L30.77,233.44L30.89,224.02L31.02,229.07L31.14,234.94L31.26,230.47L31.38,232.53L31.51,251.53L32.37,231.59L32.49,251.72L32.98,229.14L33.23,245.48L33.35,244.8L33.48,230.69L33.72,257.86L33.97,253.57L34.09,253.48L34.34,233.04L34.71,245.66L34.83,255.7L35.2,244.17L35.32,259.17L35.69,247.7L35.82,248.82L36.18,248.79L36.31,275.83L36.55,253.88L36.68,246.64L37.54,267.17L37.66,256.43L37.78,256.78L37.91,262.37L38.03,264.88L38.15,260.22L38.28,253.17L38.4,268.83L38.77,252.2L39.02,263.52L39.14,258.04L39.26,261.02L39.51,254.58L39.63,248.39L40.12,268.16L40.37,259.73L40.49,248.8L40.98,242.91L41.11,268.43L41.23,256.52L41.35,251.64L41.48,252.25L41.6,262.9L41.85,249.8L42.34,251.98L42.46,266.56L43.08,242.63L43.32,245.65L43.45,237.9L43.57,239.15L43.69,231.21L43.82,246.11L44.31,229.33L44.43,234.77L44.55,226.24L44.68,226.14L44.8,235.37L45.54,207.26L45.66,215.99L46.77,182.68L46.89,191.03L47.88,156.41L48,166.73L48.74,138.66L49.11,138.84L49.23,146.4L50.09,114.88L50.22,124.41L51.2,81.51L51.32,95.89L51.82,64.35L52.43,64.66L52.55,73.11L52.8,70.94L52.92,58.58L53.54,69.71L53.66,43.27L53.78,60.95L54.4,54.2L54.52,52.87L54.89,61.95L55.26,43.79L55.38,49.2L55.51,45.61L55.63,47.91L55.75,59.81L56.12,35.39L56.49,58.15L56.62,71.44L56.86,39.64L57.48,47.59L57.6,63.72L57.97,53.11L58.09,47.04L58.34,43.28L58.46,64.32L58.95,62.04L59.08,67.68L59.32,54.61L59.57,77.23L59.69,78.51L59.82,65.13L60.18,83.63L60.43,74.69L60.55,83.08L60.92,99.21L61.05,74.6L61.42,75.93L61.54,81.45L62.28,97.13L62.4,93.83L62.52,83.57L62.65,107.41L63.26,95.84L63.38,97.35L63.75,112.63L64.12,106.4L64.25,96.04L64.49,112.71L65.11,107.7L65.23,111.16L65.6,110.87L65.97,133.73L66.09,109.37L66.83,128.5L66.95,120.39L67.08,120.98L67.94,132.61L68.06,130.88L68.18,129.82L68.31,137.26L68.55,126.55L68.68,151.51L68.8,126.23L69.42,139.05L69.54,137.51L69.78,136.93L70.15,148.15L70.28,141.05L70.4,139.56L70.52,135.49L70.65,141.33L70.77,152.76L71.02,135.35L71.26,141.15L71.38,156.39L71.63,138.05L71.88,149.69L72,161.48L72.49,143.04L72.86,143.24L72.98,151.02L73.72,166.41L73.85,147.2L74.58,173.04L74.71,152.95L74.83,154.4L75.45,166.4L75.57,157.61L75.69,154.96L76.43,176.04L76.55,156.85L77.05,181.11L77.29,164.82L77.42,159.07L78.03,183.07L78.4,178.99L78.52,162.49L79.26,182.65L79.38,179.74L79.51,176.27L79.75,182.51L80.12,169.49L80.25,172.25L80.37,181.66L80.49,192.17L80.74,173.86L80.98,182.29L81.11,172.14L81.23,171.68L81.35,178.51L81.6,183.52L81.72,177.93L82.09,172.72L82.71,200.29L82.83,186.37L82.95,185.44L83.08,196.32L83.2,182.97L83.94,183.06L84.06,195.66L84.43,194.83L84.55,198.75L84.68,193.31L84.92,185.48L85.54,208.29L85.66,195.03L85.78,194.05L85.91,196.71L86.03,203.76L86.15,204.7L86.28,188.83L86.4,208.89L86.77,184.28L87.02,207.78L87.14,199.02L87.75,212.23L87.88,202.07L88,206.79L88.12,204.48L88.25,207.14L88.37,214.35L88.98,214.39L89.23,201.3L89.35,201.3L89.48,222.72L90.09,203.81L90.22,203.51L90.34,202.35L90.46,215.28L90.83,221.67L91.2,199.46L91.32,212.66L91.69,202L91.82,220.43L91.94,214L92.06,217.02L92.18,218.59L92.31,204.18L93.17,235.67L93.29,212.39L94.03,223.89L94.15,211.81L94.77,223.55L94.89,219.15L95.02,210.99L95.63,230.62L95.75,227.02L95.88,221.26L96,220.04L96.12,221.71L96.25,221.44L96.37,228.22L96.74,229.77L96.86,204.99L97.23,213.06L97.35,226.98L97.6,223.96L97.72,210.24L98.34,226.59L98.46,211.02L98.83,225.35L98.95,209.29L99.2,215.79L99.32,213.67L99.45,223.73L99.94,219.25L100.06,212.08L100.18,217.67L100.43,205.02L100.68,207.94L100.8,208.56L100.92,199.27L101.29,216.66L101.54,208.79L101.66,206.19L101.91,211.01L102.52,190.96L102.65,200.94L103.02,205.41L103.26,187.88L103.38,176.3L103.63,201.11L104.25,195.06L104.37,182.1L104.62,189.1L105.11,173.26L105.23,180.04L105.35,182.23L105.48,178.45L105.6,167.76L105.85,176.35L106.34,158.18L106.46,161.41L107.32,141.52L107.45,145.66L107.57,153.21L108.55,118.77L108.68,137.18L108.8,135.72L108.92,136.26L109.05,114.94L109.78,133.46L109.91,131.44L110.03,120.96L110.15,121.18L110.28,115.33L110.4,116.1L110.52,115.05L110.65,110.93L111.51,92.79L111.63,102.68L111.75,92.6L112.37,97.63L112.49,95.94L112.74,105.44L112.98,89.46L113.11,88.75L113.23,87.75L113.35,101.1L113.97,77.46L114.22,88.51L114.34,85.15L114.58,82.92L114.71,93.43L115.57,77.89L115.69,84.29L115.82,83.92L115.94,76.46L116.43,87.02L116.55,86.72L116.68,70.52L116.92,76.83L117.05,81.7L117.17,73.58L117.29,89.27L117.78,77.57L117.91,86.15L118.03,86.8L118.15,72.94L118.65,71.65L118.89,91.15L119.02,73.1L120.12,93.15L120.25,82.41L120.49,84.81L120.62,81.23L120.74,78.88L121.11,87.28L121.23,83.66L121.35,80.77L122.22,98.48L122.34,81.32L122.58,100.13L123.08,89.78L123.2,96.67L123.57,90.76L124.06,106.94L124.18,103.72L124.55,88.98L124.92,94.62L125.05,100.96L125.54,98.08L125.78,116.68L125.91,102.72L126.03,101.97L126.15,86.14L126.65,115.78L126.89,115.53L127.02,100.05L127.14,93.1L127.38,117.01L127.51,94.17L127.63,108.34L128.49,120.72L128.62,112.84L128.86,104.26L129.35,126.25L129.48,119.87L129.85,95.95L130.09,109.18L130.22,117.37L130.46,118.21L130.83,109.21L130.95,122.48L131.08,121.34L131.2,126.06L131.32,111.12L131.94,129.86L132.31,127.76L132.43,113.46L132.68,111.25L132.8,131.41L133.17,116.63L133.29,119.45L133.66,115.65L133.91,133.51L134.03,131.81L134.15,112.36L134.4,112.13L134.52,126.25L135.02,125.34L135.14,114L136.37,145.17L136.49,130.55L137.11,117.01L137.23,133.25L137.35,135.61L137.6,129L137.72,121.69L137.85,135.37L138.46,126.87L138.58,130.91L138.71,137.64L138.83,114.25L139.08,125.7L139.2,118.76L140.06,134.01L140.18,127.85L140.31,122.76L140.43,138.21L140.68,127.14L140.8,139.34L140.92,115.29L141.54,127.87L141.66,122.82L142.52,138.71L142.65,137.26L143.02,139.22L143.63,122.52L143.75,142.11L144,129.24L144.25,142.23L144.49,134.89L144.62,135.81L144.86,139.56L145.11,128.18L145.23,134.06L145.35,144.32L146.34,122.51L146.46,144.79L147.2,121.38L147.32,136.01L147.45,145.05L147.94,130.9L148.06,140.57L148.18,137.66L148.55,132.95L148.68,139.77L148.92,137.45L149.05,139.48L149.54,141.25L149.66,123.04L149.78,135.04L149.91,142.69L150.28,132.12L150.65,142.48L150.77,145.93L150.89,148.31L151.02,145.04L151.14,128.65L151.75,141.78L151.88,133.48L152,136.1L152.12,137.01L152.25,149.11L152.37,130.79L152.98,142.43L153.11,147.77L153.6,126.89L153.85,130.7L153.97,143.24L154.46,150.49L154.71,134.23L154.83,134.29L154.95,141.08L155.08,134.5L155.45,144.65L155.57,136.39L155.69,142.55L155.82,145.15L155.94,131.52L156.06,147.65L156.8,147.46L156.92,149.52L157.17,150.81L157.54,127.4L157.66,147.44L157.78,143.26L157.91,126.67L158.28,148.95L158.4,137.94L158.52,146.16L158.77,149.56L158.89,131.41L159.63,147.5L159.75,137.17L160,143.82L160.12,146.54L160.37,154.8L160.86,132.38L160.98,147.05L161.11,137.78L161.23,151.56L161.72,143.73L161.85,153.07L162.09,139.35L162.34,141.81L162.46,153.25L163.2,136L163.32,150.1L163.57,139.98L163.69,158.29L163.82,139.21L164.43,149.49L164.55,144.14L164.68,155.38L164.92,143.14L165.17,147.46L165.29,141.58L165.66,162.47L165.78,134.61L166.03,147.99L166.15,151.34L166.28,150.71L166.4,151.11L166.52,139.72L166.89,157.57L167.14,139.59L167.26,137.42L167.38,138.49L167.51,151.5L167.75,137.34L167.88,160.35L168.25,155.47L168.37,154.86L168.74,160.96L168.98,145.62L169.11,154.1L169.23,150.35L169.35,165.52L169.85,146.11L169.97,145.2L170.09,163.52L170.71,153.52L170.83,158.33L171.2,141.52L171.45,160L171.57,154.55L171.69,153.44L171.82,144.85L172.06,162.42L172.31,159.64L172.43,158.35L172.55,161.65L172.68,158.08L172.8,161.25L172.92,148.17L173.42,167.1L173.66,149.87L173.78,145.68L174.89,172.92L175.02,146.98L175.51,171.24L175.88,160.25L176,165.89L176.25,185.51L176.37,162.53L176.62,177.33L176.74,165.45L176.98,175.31L177.11,180.64L177.48,157.98L177.85,165.99L177.97,162.13L178.22,189.21L178.71,175.73L178.83,167.7L179.32,178.81L179.69,175.73L179.82,176.77L179.94,179.31L180.06,174.32L180.18,176.49L180.31,162.49L180.55,190.9L181.17,179.79L181.29,180.48L181.54,173.36L181.91,194.93L182.03,177.43L182.15,175.88L182.28,191.2L182.77,183.06L182.89,199.32L183.02,181.18L183.63,187.64L183.75,185.74L183.88,184.97L184,196.95L184.62,179.04L184.74,203.14L184.98,204.7L185.48,182.86L185.6,187.2L186.71,209.14L186.83,198.74L186.95,197.48L187.08,203.55L187.2,199.41L187.32,201.77L187.45,211.01L188.06,206.17L188.18,207.59L188.31,202.86L188.55,210.73L188.68,217.09L189.17,200.51L189.29,215.71L189.42,227.62L189.91,229.71L190.15,200.69L190.28,223.61L190.89,208.19L191.02,226.59L191.14,213.59L191.51,229.89L191.75,223.12L191.88,239.31L192.62,225.18L192.74,235.91L192.86,238.31L193.11,229.86L193.23,250.3L193.48,233.64L193.85,257.94L193.97,247.06L194.09,253.9L194.34,239.22L194.95,239.99L195.08,256.89L195.45,263.41L195.57,248.92L195.69,261.2L195.82,259.47L196.06,248.13L196.31,259.19L196.43,264.19L196.92,255.61L197.05,267.73L197.17,268.87L197.54,262.5L197.66,269.11L197.78,263.14L197.91,271.96L198.4,260.92L198.52,288.25L199.26,272.56L199.38,273.69L199.51,280.7L199.63,273.69L199.75,292.7L199.88,276.86L200,300.58L200.86,282.27L200.98,282.65L201.23,299.65L201.72,296.22L201.85,290.18L201.97,291.04L202.09,287.82L202.22,294.67L202.71,302.04L202.83,286.23L202.95,293.81L203.08,292.88L203.32,290.6L203.82,302.48L203.94,291.12L204.18,287.77L204.55,304L204.68,293.31L204.8,290.02L205.05,289.24L205.17,298.72L205.42,301.2L205.54,279.22L206.03,280.59L206.15,279.66L206.65,297.17L206.89,289.93L207.02,269.67L207.14,286.86L207.51,268.95L207.75,276.04L207.88,271.45L208,276.01L208.25,257.79L208.37,252.7L208.62,239.35L208.74,252.53L208.86,252.95L208.98,256.76L209.11,245.75L209.35,247.17L209.48,239.08L210.22,203.28L210.58,211.99L210.71,216.01L212.06,146.68L212.18,154.01L212.31,152.57L212.43,160.33L212.8,141.37L212.92,120.63L213.05,130.15L213.42,114.3L213.54,109.86L213.66,121.35L214.03,91.31L214.15,89.28L214.28,89.94L214.4,74.96L214.65,79.86L214.77,68.34L214.89,75.67L215.02,62.33L215.38,67.65L215.51,53.02L215.63,64.29L215.75,33.86L215.88,49.98L216.49,41.72L216.62,33.99L216.74,43L217.11,25.89L217.23,28.31L217.35,16L217.48,34.9L218.09,33.07L218.22,31.19L218.58,19.73L218.83,41.9L218.95,30.59L219.08,23.64L219.94,35.77L220.06,35.67L220.18,31.6L220.31,22.69L220.68,40.66L220.8,30.92L220.92,37.14L221.05,36.86L221.17,29.27L221.54,60.43L222.03,47.98L222.15,48.14L222.28,43.52L222.4,61.1L222.52,55.86L222.65,58.51L222.77,54.98L222.89,67.57L223.14,63.88L223.26,70.43L223.51,66.74L223.63,80.67L224,77.21L224.12,66.2L225.11,101L225.23,96.86L225.35,97.35L225.6,88.9L225.72,104.53L225.97,101.95L226.09,113.31L226.46,100.13L226.58,109.66L226.71,115.71L227.08,135.79L227.32,126.54L227.45,114.11L228.18,136.92L228.31,129.19L228.43,130.24L228.55,131.25L228.68,126.48L228.8,138.84L229.17,139.85L229.42,130.84L229.54,145.96L229.91,138.48L230.15,155.76L230.28,143.13L230.4,159.47L230.65,141.14L231.02,153.54L231.14,148.45L232,175.03L232.12,161.2L232.74,180.97L232.86,169.68L233.11,162.22L233.72,182.7L234.09,179.28L234.22,170.73L234.83,193.68L234.95,187.92L235.08,177.45L235.32,171.58L235.45,177.69L235.57,191.03L235.69,170.68L235.82,192.18L236.31,190.7L236.43,185.42L236.92,203.55L237.05,200.52L237.17,186.9L237.78,206.22L237.91,192.19L238.03,197.24L238.28,205.78L238.4,185.46L238.65,191.67L238.77,192.15L239.75,219.11L239.88,198.5L240.86,222.68L240.98,218.58L241.23,205.91L241.6,215.75L241.72,217.25L241.85,211.34L241.97,233.18L242.34,216.74L242.46,225.49L242.58,216.86L243.08,226.5L243.2,226.2L243.32,218.27L243.57,214.28L244.18,231.94L244.43,229.93L244.55,209.82L245.17,239.03L245.42,233.94L245.54,238.44L246.15,224.33L246.4,225.86L246.52,230.03L246.77,226.88L247.26,245.12L247.38,232.49L247.51,235.27L247.75,226.29L247.88,231.73L248,248.82L248.62,226.72L248.74,230.82L248.86,236.2L249.23,224.08L249.35,237.86L249.72,227.63L249.85,238.21L250.09,224.15L250.46,238.28L250.58,234.05L250.71,234.89L250.95,221.47L251.2,237.47L251.32,231.91L251.45,243.66L251.82,208.04L252.31,220.8L252.43,217.82L252.92,213.38L253.17,226.44L253.29,214.72L253.54,216.66L253.66,209.07L253.78,221.77L254.4,197.62L254.65,205L254.77,194.4L255.14,214.91L255.26,191.53L255.51,194.04L255.63,178.32L255.75,204.19L256.37,186.24L256.49,176.71L256.74,179.14L256.98,164.47L257.23,175.74L257.35,177.5L257.48,177.82L257.6,164.79L257.85,167.06L258.34,145.75L258.46,163.33L259.2,126.25L259.32,128.19L259.45,148.53L259.57,146.84L259.69,129.32L259.82,131.92L259.94,131.47L260.06,113.99L260.31,129.4L260.68,106.23L260.8,123.57L260.92,109.41L261.05,116.24L261.42,101.82L261.54,104.71L261.66,103.41L261.91,108.82L262.03,88.55L262.15,105.29L262.77,87.45L262.89,80.55L263.51,89.1L263.63,78.36L263.75,83.73L263.88,73.58L264.37,80.14L264.49,79.5L265.35,61.26L265.48,74.79L265.6,81.19L265.97,71.18L266.09,61.27L266.22,60.23L266.34,75.01L266.95,80.07L267.08,60.81L267.2,61.84L267.32,72.76L267.57,70.55L267.69,63.99L268.06,83.64L268.31,79.5L268.43,59.07L269.05,85.67L269.17,70.02L269.29,72.94L269.42,84.85L269.54,58.76L270.03,81.11L270.15,76.97L270.4,84.73L270.52,75.66L270.77,79.05L270.89,74.68L271.02,67.85L271.26,81.59L271.38,89L271.51,88.33L271.63,83.17L271.88,93.43L272.37,64.67L272.49,86.69L272.62,70.22L273.11,94.59L273.23,85.3L273.35,85.62L273.48,106.18L274.22,104.65L274.34,100.07L274.71,112.48L274.95,89.17L275.08,101.56L275.94,107.92L276.06,103.28L276.31,95.72L276.55,113.13L276.8,107.2L276.92,100.91L277.54,123.79L277.78,115.83L277.91,103.24L278.15,97.27L278.28,129.83L278.65,122.76L278.77,110.86L279.38,107.95L279.51,125.73L279.63,115.7L279.75,115.1L279.88,122.64L280,117.86L280.25,127.72L280.49,126.95L280.62,123.12L280.86,121.43L280.98,125.7L281.11,122.95L281.23,134.04L281.35,140.45L281.85,119.27L282.09,130.93L282.22,134.75L282.71,143.12L282.83,121.01L282.95,135.41L283.08,135.6L283.32,134.01L283.45,129.12L283.69,130.16L283.82,142.2L283.94,120.57L284.55,144.54L284.68,133.55L284.8,143L284.92,126.05L285.29,128.94L285.42,127.52L286.15,146.72L286.28,141.03L286.52,130.47L286.65,147.69L287.02,131.75L287.14,146.73L287.51,130.14L287.63,136.49L287.75,152.91L288.62,135.54L288.74,145.06L288.86,145.47L288.98,143.54L289.11,138.34L289.48,137.01L289.85,150.82L289.97,139.88L290.58,155.44L290.71,152.86L290.83,145.14L290.95,145.45L291.08,132.49L291.57,154.08L292.06,153.84L292.18,149.99L292.31,139.01L292.8,154.59L292.92,146.68L293.05,164.07L293.17,144.08L293.78,154.65L293.91,147.52L294.15,146.59L294.65,162.36L294.77,145.23L295.38,171.31L295.51,143.88L295.75,163.65L296.25,143.75L296.37,156.3L296.49,157.7L296.86,161.34L297.11,137.78L297.23,155.93L297.35,166.13L297.72,167.33L297.85,155.82L297.97,174.17L298.09,153.22L298.71,170.41L298.83,166.21L299.08,157.17L299.2,174.99L299.45,166.97L299.57,153.87L300.18,181.15L300.31,162.72L300.43,166.3L300.68,161.33L300.8,179.85L301.05,156.83L301.54,173.85L301.66,164.32L301.91,175.89L302.28,173.29L302.4,163.45L303.02,178.29L303.14,168.61L303.26,163.95L303.38,192.2L303.63,162.4L304,177.33L304.12,180.38L304.74,163.53L304.86,178.39L304.98,188.3L305.72,169.77L305.85,181.63L305.97,185.77L306.09,174.31L306.34,185.55L306.46,173.64L306.95,187.53L307.32,184.07L307.45,187.08L307.69,185.34L307.82,193.23L308.06,193.68L308.43,175.65L308.55,197.45L308.68,176.59L309.29,183.78L309.42,188L309.78,194.96L310.28,191.42L310.4,192.09L310.52,201.13L310.77,189.26L311.02,196.77L311.14,191.08L311.51,185.28L311.63,194.85L311.75,186.19L312.12,204.71L312.62,196.19L312.74,189.78L313.6,215.3L313.72,190.15L314.58,216.3L314.71,199.33L314.95,223.23L315.45,203.14L315.57,190.95L316.68,231.82L316.8,214.92L316.92,213.48L317.05,230.52L317.54,203.85L317.91,212.06L318.03,221.37L318.28,204.11L318.52,209.13L318.65,219.22L318.89,208.61L319.02,220.46L319.26,219.07L319.38,224.65L319.51,224.98L319.63,219.91L320,211.17L320.12,237.65L320.25,213.57L320.62,232.72L320.86,213.34L320.98,221.92L321.11,222.17L321.23,217.1L321.35,237.79L321.72,221.92L321.85,227.91L322.22,236.84L322.34,216.53L322.58,223.72L322.71,222.04L322.95,236.09L323.57,235.93L323.69,226.73L323.82,229.32L324.18,224.13L324.31,226.76L324.43,218.57L324.55,218.86L324.68,233.35L325.05,217.75L325.54,218.41L325.66,222.02L325.78,215.7L325.91,228.17L326.03,220.01L326.15,240.38L326.65,221.77L326.77,222.37L326.89,227.21L327.26,205.96L327.51,216.34L327.63,223.78L327.88,225.08L328.25,206.39L328.49,207.5L328.62,221.4L329.35,194.76L329.48,220.93L330.34,185.16L330.46,199.01L331.08,176.55L331.2,183.61L331.32,196.84L332.68,163.76L332.8,175.76L333.05,152L333.17,169.46L333.29,170.56L334.15,139.1L334.28,160.97L335.14,131.87L335.26,142.01L336,119.67L336.12,128.57L336.25,126.25L336.37,125.12L336.49,129.9L336.62,118.85L336.86,106.54L336.98,120.23L337.11,110.99L337.23,119.95L337.6,95L338.09,96.25L338.22,100.63L338.34,113.92L338.71,97.52L338.83,100.2L338.95,89.2L339.08,80.62L339.32,94.91L339.69,87.64L339.82,90.12L340.43,94.93L340.8,71.83L340.92,91.43L341.78,73.65L341.91,77.89L342.03,77.18L342.15,69.25L342.77,83.59L342.89,70.99L343.02,63.16L343.14,80.01L343.38,59.83L343.75,69.06L343.88,68.67L344.25,66.2L344.62,85.87L344.74,75.42L344.86,66.76L345.11,78.05L345.35,74.45L345.48,81.25L345.85,91.21L346.22,70.83L346.34,94.37L346.95,78.66L347.08,83.44L347.2,82.98L347.45,77.86L347.57,88.94L347.69,82.71L347.82,74.98L348.06,99.8L348.55,92.42L348.68,88.11L349.05,100.32L349.17,87.74L349.42,97.18L349.66,92.84L349.78,89.44L349.91,100.51L350.4,99.85L350.52,77.4L351.14,111.42L351.51,108.07L351.63,89.98L352.25,112.79L352.37,104.47L352.49,96.36L353.23,114.97L353.35,114.22L353.48,107.81L354.09,106.98L354.22,113.89L354.34,104.81L354.71,119.52L355.08,105.53L355.2,108.8L355.57,107.65L355.82,134.01L355.94,117.25L356.06,119.61L356.18,122.29L356.31,118.09L356.43,119.02L356.55,111.8L357.42,123.01L357.54,118.86L357.66,117.06L357.78,128.35L357.91,138.86L358.15,113.08L358.28,131.5L358.4,115.23L358.77,112.85L358.89,134.74L359.26,129.07L359.38,117.13L359.51,114.55L359.63,123.77L359.75,117.93L359.88,130.14L360.12,115.09L360.49,122.72L360.62,134.77L361.11,137.1L361.23,123.83L361.6,124.91L361.72,129.42L361.85,113.13L361.97,141.42L362.46,130.48L362.58,141.19L362.95,129.58L363.2,133.15L363.32,142.29L363.45,129.25L363.57,144.67L364.06,130.9L364.18,133.54L364.31,149.15L364.92,134.52L365.05,135.06L365.42,138.19L365.54,118.15L365.66,136.12L365.78,137.16L365.91,137.37L366.03,140.31L366.15,140.57L366.28,131.26L366.4,142.24L366.77,123.59L367.02,137.07L367.14,137.62L367.38,126.71L367.51,141.76L367.63,131.52L367.88,129.88L368.62,147.36L368.74,125.94L369.23,150.16L369.48,134.63L369.6,132.05L370.22,149.87L370.46,147.38L370.58,140.26L370.95,133.52L371.2,138.03L371.32,144.36L371.57,149.2L371.94,134.88L372.06,152.19L372.68,154.39L372.8,138.91L372.92,145.81L373.05,127.52L373.42,147.39L373.54,134.3L373.66,150.51L373.78,160.61L374.03,136.14L374.4,153.82L374.52,139.94L374.65,137.75L374.77,164.82L375.26,140.37L375.51,146.62L375.63,155.64L376.25,138.55L376.49,141.02L376.62,139.73L377.48,159.01L377.6,142.75L378.22,157.81L378.34,145.34L378.46,147.06L378.95,160.12L379.32,157.13L379.45,144.27L379.69,137.08L380.18,162.05L380.31,158.17L380.43,152.66L380.68,145.71L380.8,159.85L380.92,160.88L381.29,151.29L381.66,158.79L381.78,166.37L382.28,152.72L382.52,155.69L382.65,161.44L383.38,151.23L383.51,176.27L384.37,150.8L384.49,158.6L384.74,158.35L384.86,166.37L384.98,166.31L385.11,158.23L385.23,146.54L385.72,166.29L385.85,164.93L385.97,156.59L386.22,183.31L386.46,165.61L386.58,166.65L386.83,160.16L387.2,163.65L387.32,174.8L387.69,161.39L388.18,162.17L388.31,161.57L388.43,161.96L388.55,165.04L388.68,175.57L388.8,163.26L389.29,165.32L389.42,171.22L389.66,175.93L389.78,161.57L389.91,163.53L390.03,175.03L390.15,158.11L390.28,176.94L390.65,169L390.77,179.6L390.89,182.51L391.02,165.27L391.26,180.91L391.51,164.99L391.75,172.48L391.88,163.43L392.62,192.7L392.74,176.22L392.86,168.2L393.6,192.46L393.72,180.49L393.85,186.38L394.09,174.25L394.22,179.02L394.34,173.46L394.58,190.19L394.95,189.25L395.08,177.37L395.57,193.64L395.94,189.95L396.06,191.37L396.43,196.95L396.55,180.21L396.8,181.39L396.92,197.54L397.29,199.18L397.54,182.98L397.66,195.82L397.91,205.58L398.15,193.51L398.4,198.38L398.52,189.06L399.02,207.17L399.51,206.52L399.63,192.44L400.62,217.29L400.74,210.67L400.98,214.32L401.48,199.98L401.6,214.84L401.72,213.34L401.85,220.48L401.97,203.98L402.71,220.31L402.83,204.3L403.32,223.26L403.69,215.85L403.82,222.34L404.31,226.89L404.43,215.57L404.55,216.58L404.68,230.99L404.8,231.49L404.92,226.48L405.42,219.42L405.66,242.13L405.78,234.46L405.91,226.54L406.28,225.25L406.77,233.4L406.89,229.4L407.26,248.43L407.38,237.33L407.51,235.39L407.88,228.73L408.12,241.77L408.25,259.97L408.98,239.34L409.11,245.86L409.35,239.24L409.48,257.06L409.6,235.25L410.22,238.48L410.34,245.89L410.46,260L410.95,239.55L411.08,243.92L411.82,260.83L411.94,247.07L412.43,241.61L412.68,257.95L412.8,255.52L412.92,252L413.17,258.65L413.42,250.36L413.54,247.19L413.78,262.13L413.91,246.46L414.03,239.25L414.28,255.58L414.52,253.68L414.65,251.08L415.02,243.68L415.26,252.29L415.38,248L415.51,250.28L415.88,255.68L416,243.66L416.98,256.56L417.11,241.59L417.35,246.61L417.6,231.93L417.72,242.7L418.09,245.52L418.22,235.42L418.34,244.42L418.46,212.9L418.58,236.81L419.2,217.99L419.32,231.94L419.82,204L419.94,206.1L420.06,195.35L420.18,208.69L420.8,203.1L420.92,191.76L421.05,193.48L421.17,182.37L421.29,192.34L421.66,178.47L421.78,168.65L421.91,174.53L422.4,163.78L422.52,149.38L422.65,161.74L423.02,143.14L423.26,149.74L423.38,148.02L423.63,144.34L423.75,151.1L423.88,135.66L424.12,126.63L424.25,118.08L424.37,140.76L424.86,113.81L424.98,102.46L425.11,122.48L425.48,97.12L425.72,109.14L425.85,88.08L425.97,103.54L426.46,74.9L426.58,95.15L426.71,82.88L427.2,72.66L427.32,84.97L428.18,64.55L428.31,76.31L429.05,53.43L429.17,62.39L429.29,69.65L429.54,65.66L429.66,40.5L429.91,58.8L430.52,58.55L430.65,63.64L430.89,47.82L431.38,51.9L431.51,62.78L431.75,63.57L432,48.68L432.49,52.97L432.62,60.71L432.74,52.51L432.86,70.84L433.23,59.1L433.35,69.16L433.6,63.29L433.97,72.4L434.09,66.35L434.22,78L434.46,63.32L434.83,80.58L434.95,74.94L435.08,76.44L435.2,63.73L435.45,77.62L435.82,66.53L435.94,82.29L436.18,72.04L436.43,83.94L436.55,91.35L436.68,80.87L437.17,91.74L437.29,85.23L437.42,96.06L437.54,104.93L437.91,80.02L438.03,79.01L438.89,109.83L439.02,97.74L439.75,123.49L439.88,118.96L440,108.84L440.12,106.39L440.25,122.65L440.62,109.47L440.98,115.3L441.11,120.34L441.72,109.3L441.85,120.36L441.97,117.99L442.09,118.31L442.22,128.88L442.34,131.99L442.46,121.29L442.58,118.61L443.32,134.87L443.45,124.65L443.82,117.58L444.18,139.76L444.31,124.63L445.17,153.31L445.29,145.76L445.78,126.54L445.91,153.48L446.03,144.7L446.15,134.87L446.28,151.49L446.65,133.96L446.89,147.88L447.02,140.11L447.14,140.66L447.26,137.38L447.63,155.39L447.88,136.87L448,151.63L448.12,131.47L449.11,166.75L449.23,150.84L449.35,135.76L449.72,156.98L449.97,151.4L450.09,153.08L450.22,147.16L450.34,164.64L450.58,147.82L450.71,161.46L450.83,165.93L450.95,148.06L451.08,142.27L451.45,165.12L451.94,158.76L452.06,165.17L452.55,151.69L452.8,154.74L452.92,163.4L453.17,172.1L453.42,156.35L453.54,172.05L453.78,177.05L454.03,160.78L454.28,169.36L454.4,168.37L454.77,160.02L454.89,174.85L455.02,162.1L455.26,177.94L455.63,173.79L455.75,188.66L455.88,155.43L456.49,174.56L456.62,163.69L457.23,178.26L457.35,174.06L457.48,171.47L457.97,170.37L458.22,187.2L458.34,180.36L458.46,175.6L458.58,166.2L458.71,186.89L459.2,172.79L459.32,173.18L459.45,188.83L460.06,188.24L460.18,181.69L460.31,177.67L460.43,189.07L460.68,186.49L460.8,202.75L461.05,181.28L461.54,189.46L461.66,197.05L462.03,198.25L462.65,186.86L462.77,189.71L463.02,184.69L463.38,192.27L463.51,210.69L463.88,190.03L464,211.65L464.25,194.1L464.37,197.19L464.74,204.37L464.98,188.62L465.11,192.52L465.23,204.5L465.48,206.64L465.6,197.64L465.97,198.59L466.09,203.68L466.22,191.17L466.46,208.12L466.71,201.76L466.83,219.54L467.45,205.06L467.57,205.88L467.69,212.13L467.82,212.26L467.94,199.68L468.43,223.77L468.55,202.26L468.68,200.38L468.8,211.3L468.92,216.82L469.29,203.88L469.42,215.25L469.54,202.37L469.78,220.93L470.28,217.21L470.4,206.38L471.02,221.79L471.14,204.56L472,224.49L472.12,218.7L472.25,215.93L472.37,233.41L472.98,213.53L473.11,220.09L473.23,233.35L473.6,211.91L474.09,212.38L474.22,234.41L474.71,211.02L474.95,213.05L475.08,227.14L475.32,218.17L475.45,237.37L475.82,225.08L475.94,221.2L476.06,227.55L476.18,209.7L476.55,224.65L476.68,217.25L476.8,222.07L477.29,219.99L477.42,210.68L477.66,209.03L478.03,229.59L478.15,214.37L478.28,213.43L478.4,215.94L478.52,225.19L479.38,196.93L479.51,194.31L479.63,215.21L479.88,191.99L480.37,214.29L480.49,206.08L481.48,183.96L481.6,202.33L481.97,176.28L482.22,186.01L482.34,188.87L482.58,189.52L483.45,165.51L483.57,165.77L483.69,182.83L484.43,159.18L484.55,163.49L484.68,168.82L485.54,147.65L485.66,161.11L485.91,125.37L486.4,136.74L486.52,147.69L486.77,142.32L486.89,128.93L487.14,137.43L487.51,125.65L487.63,131.89L487.75,119.48L488.37,119.19L488.49,129.93L488.62,109.33L488.98,127.04L489.11,113L489.23,105.41L489.48,112.14L490.09,87.63L490.22,108.04L490.34,80.5L490.95,99.47L491.08,100.62L491.32,102.78L491.82,79.82L491.94,87.64L492.06,83.64L492.18,84.35L492.31,75.19L492.43,97.54L493.05,84.6L493.17,84.7L493.42,73.52L493.66,77.84L493.78,88.7L494.03,72.44L494.4,91.19L494.52,81.11L494.65,86.74L495.14,70.57L495.38,75.94L495.51,82.6L495.75,72.95L495.88,79.19L496,79.9L496.12,91.96L496.37,78.52L496.62,85.72L496.74,67.59L497.23,95.67L497.85,91.77L497.97,82.7L498.09,84.88L498.22,84.79L498.34,72.57L499.08,93.44L499.2,86.7L499.32,79.21L499.69,93.21L499.82,80.26L499.94,92.89L500.18,102.84L500.68,77.09L500.8,88.74L500.92,82.69L501.29,100.23L501.42,98.29L501.54,102.73L501.91,89.7L502.03,91.4L502.4,105.28L502.89,101.3L503.02,99.86L503.14,107.63L503.51,90.62L503.63,94.08L503.75,88.78L503.88,110.76L504,99.92" style="vector-effect: non-scaling-stroke; fill: none; stroke: rgb(99, 110, 250); stroke-opacity: 1; stroke-width: 2px; opacity: 1;"/></g><g class="points"/><g class="text"/></g><g class="trace scatter traced97128" style="stroke-miterlimit: 2; opacity: 1;"><g class="fills"/><g class="errorbars"/><g class="lines"><path class="js-line" d="M0,148.47L0.74,122.93L1.11,123.98L1.23,123.2L1.6,120.72L1.85,124.38L1.97,125.15L3.08,130.03L3.2,129.15L3.32,128.57L3.45,131.13L3.57,132.73L3.82,132.91L3.94,130.5L4.06,129.36L4.31,133.76L4.43,133.71L4.55,134.04L4.68,133.01L4.8,131.66L5.78,139.97L5.91,138.87L6.15,135.46L6.65,137.57L6.77,138.13L7.63,148.68L8.25,147.77L8.37,147.69L8.74,148.11L9.23,145.84L9.35,145.86L9.48,145.68L9.6,146.07L9.72,148.24L10.46,153.38L10.58,152.64L10.71,150.07L10.95,155.42L11.45,152.1L11.57,152.53L11.94,153.26L12.06,156.04L13.78,165.25L13.91,161.4L14.28,166.49L14.4,164.72L14.52,163.58L15.26,172.28L15.63,170.25L15.75,170.32L16.49,175.58L16.62,173.32L16.74,171.52L17.85,179.75L17.97,178.3L18.09,176.46L18.46,178.65L18.58,180.73L18.83,180.62L18.95,183.18L19.08,184.6L19.32,179.29L19.45,179.17L20.68,189.58L20.92,188.88L21.05,189.48L21.54,190.4L21.66,188.41L21.78,188.62L21.91,191.51L22.28,193.05L22.4,191.25L22.52,190.93L22.89,189.64L24.25,202.71L24.49,200.07L24.62,200.22L24.86,200.46L25.11,200.15L25.23,202.45L25.48,202L25.6,204.04L25.85,203.02L26.09,204.41L26.22,205.74L28.8,224.42L28.92,222.24L29.05,220.88L29.42,223.23L29.54,225.45L29.91,226.11L30.03,226.92L30.28,225.58L30.52,227.43L30.65,227.72L32.62,243.33L32.74,242.08L32.86,242.63L33.11,239.22L33.23,239.96L33.35,242.21L33.48,241.51L33.6,241.63L33.72,246.19L34.09,251.96L34.34,246.02L34.46,245.38L35.57,255.28L35.69,254.51L35.82,253.16L36.43,259.62L36.68,256.3L36.8,254.92L38.15,262.47L38.28,261.01L38.52,261.99L38.65,260.44L39.14,260.62L39.75,254.54L39.88,255.57L40,257.24L40.25,259.43L40.62,255.93L40.74,256.62L40.86,256.5L40.98,254.31L41.11,254L41.23,256.46L42.09,251.34L42.34,251.96L42.46,253.05L42.58,254.03L42.83,250.86L42.95,249.69L43.32,245.47L43.45,243.01L46.4,188.76L46.52,189.83L46.65,188.16L50.58,97.34L50.71,98.13L51.2,81.3L51.32,79.3L51.69,75.84L51.82,70.6L53.05,56.62L53.17,55.28L53.78,50.87L54.28,52.31L54.4,52.57L54.77,49.29L54.89,50.86L55.02,52.9L55.63,48.55L55.75,50.61L55.88,51.37L56.25,47.51L56.37,50.13L56.49,53.25L57.35,60.88L57.48,59.75L57.97,65.85L58.34,63.63L58.46,63.01L59.82,79.33L59.94,78.06L61.05,93.09L61.54,90.15L61.66,90.96L63.02,105.53L63.14,104.33L63.26,103.94L63.63,105.76L63.75,107.95L64.62,113.05L64.74,112.44L64.86,111.98L65.23,113.43L65.35,114.88L66.09,125.59L66.46,121.78L66.58,121.8L68.43,135.23L68.55,134.58L68.8,138.22L69.29,136.22L69.42,135.92L70.89,145.96L71.02,145.02L71.14,144.46L71.38,146.31L71.51,148.85L71.75,146.29L72,149.82L72.12,151.09L72.37,153.2L72.49,151.57L72.62,151.56L72.98,150.96L73.72,161.04L73.85,159.95L74.34,153.53L74.58,158.95L74.71,160.25L74.83,158.01L75.45,159.67L75.57,160.6L75.82,158.53L76.18,160.64L76.31,163.08L77.17,170.24L77.29,168.76L77.42,166.93L77.54,165.82L77.78,169.89L77.91,170.11L78.15,174.22L78.52,173.29L78.65,171.59L79.88,178.33L80,177.47L80.25,174.4L80.49,178.7L80.62,180.23L80.98,180.44L81.35,177.01L81.48,177.85L81.6,179.08L83.69,191.29L83.82,190.14L83.94,189.41L84.18,191.89L84.31,193.45L85.66,201.83L85.78,199.96L85.91,199.13L86.52,202.78L86.65,202.27L86.77,199.26L86.89,197.49L87.26,202.68L87.38,205.55L88.49,209.49L88.62,208.13L88.86,208.46L88.98,209.68L89.35,207.39L89.6,212.23L89.72,211.35L89.85,210.34L90.09,210.94L90.22,209.38L90.34,208.18L91.08,215.03L91.32,212.45L91.45,212.41L92.18,217.1L92.31,216.26L92.43,213.81L92.55,213.01L92.8,215.86L92.92,217.49L93.29,224.18L93.78,223.53L93.91,222.39L94.4,220.54L94.52,220.71L94.65,222.35L94.89,223.63L95.14,221.82L95.38,222.92L95.51,221.65L96.49,225.9L96.62,223.67L96.74,223.81L96.86,223.15L96.98,221.53L97.6,225.75L97.72,224.22L97.85,221.13L98.09,219.49L98.46,221.26L98.58,219.96L98.71,219.74L99.32,219.43L99.57,220.88L99.69,220.42L99.94,220.66L100.06,220.11L100.18,219.33L100.31,219.15L100.43,217L101.05,210.93L101.29,213.4L101.42,214.48L101.78,210.44L101.91,209.14L102.03,209.97L102.28,207.33L102.4,204.04L103.51,192.19L103.63,194.18L103.75,195.34L104.12,191.82L104.25,190.83L104.37,191.18L104.49,188.16L106.34,171.08L106.46,168.09L109.29,127.83L109.42,127.83L109.91,128.14L111.38,104.34L111.51,101.65L112.62,97.58L112.74,99.17L112.98,95.54L113.11,93.71L114.09,86.23L114.22,86.7L114.34,86.49L114.58,84.49L115.08,85.6L115.2,85.6L116.06,80.44L116.31,80.62L116.43,81.37L116.55,82.92L116.8,78.01L116.92,76.73L118.03,83.14L118.15,82.15L118.28,80.77L118.77,77.3L118.89,79.41L119.02,80.32L119.26,76.99L119.75,80.41L119.88,82.49L120.25,86.34L120.62,84.48L120.74,83.16L120.98,81.73L121.23,83.39L121.35,82.91L121.48,84.06L122.83,95.13L122.95,94.63L123.2,93.56L123.45,95.99L123.57,94.88L123.69,95.17L124.18,100.71L124.55,98.69L124.68,96.14L124.92,94.43L125.17,98.02L125.29,100.34L125.42,100.57L125.66,100.07L125.78,102.82L125.91,104.87L126.28,99.06L126.4,100.05L126.52,99.86L126.65,102.29L127.02,107.68L127.51,106.22L127.63,104.25L128.74,114.47L128.86,113.99L128.98,112.46L129.48,116.7L129.72,115.71L129.85,112.85L129.97,109.9L130.46,112.15L130.58,113.59L130.83,113.44L131.32,118L131.45,116.48L131.57,116.07L132.43,119.28L132.55,118.73L132.68,118.44L132.92,120.69L133.05,119.72L133.17,119.03L133.29,118.43L133.42,119.53L133.54,122.4L133.66,122.65L133.78,121.33L133.91,123.34L134.03,125.91L134.4,119.92L134.52,119.27L134.65,121.2L135.14,119.9L135.26,118.34L135.75,120.99L135.88,122.43L136.49,132.11L136.74,127.58L136.86,126.73L137.23,124.05L137.35,126.85L137.48,128.91L137.6,129.55L137.85,127.8L138.22,129.02L138.34,128.69L138.58,128.16L138.71,129.79L138.83,128.63L138.95,125.27L139.32,123.56L139.45,125.17L139.69,125.34L139.82,126.6L140.8,129.82L140.92,129.08L141.29,131L141.78,126.97L141.91,129.04L142.77,133.46L142.89,131.97L143.02,131.77L143.14,132.96L143.26,133.25L143.63,129.13L143.88,132.66L144,132.5L144.12,131.99L144.25,133.74L144.37,134.75L145.23,131.98L145.35,133.92L145.48,135.24L145.97,133.29L146.09,132.01L146.34,129.45L146.58,132.16L146.83,130.9L146.95,131.1L147.2,129.66L147.32,128.96L148.18,136.23L148.31,135.96L148.43,135.35L148.55,134.75L148.8,135.73L148.92,135.65L149.05,136.35L149.17,136.72L149.29,135.76L149.42,133.45L149.66,133.12L149.78,131.47L151.02,142.72L151.14,140.97L151.63,134.65L152.12,135.65L152.25,137.66L153.11,140.88L153.23,140.03L153.35,138.56L153.48,140.22L153.85,136.01L153.97,136.02L154.58,141.42L154.83,137.78L154.95,137.71L155.2,137.2L155.45,138.23L155.57,138.98L155.69,138.85L155.82,140.37L156.18,140.45L156.43,138.3L156.68,139.16L156.8,139.92L157.29,144.41L157.54,140.66L157.66,139.54L158.03,137.7L158.4,141.8L158.52,141.62L158.65,143.06L158.77,144.48L159.14,140.76L159.26,139.35L160.49,145.17L160.62,143.28L160.74,143.39L160.86,142.52L160.98,141.47L161.97,147.6L162.22,145.52L162.34,145.27L162.58,146.1L162.71,144.68L163.08,145.66L163.2,144.21L163.32,143.78L163.45,145.52L163.57,144.91L163.69,146.03L164.18,144.12L164.43,147.71L164.55,147.41L164.68,148.03L164.8,149.82L165.29,146.62L165.42,147.23L165.66,150.59L165.91,147.09L166.28,149.07L166.4,149.69L166.65,147.48L166.89,150.36L167.02,151.13L167.38,143.9L167.88,147.31L168,151.05L168.86,155.4L168.98,153.74L169.11,152.62L169.23,152.74L169.35,154.26L169.48,155.19L169.6,153.51L169.85,154.87L169.97,152.11L170.95,155.26L171.08,154.64L171.32,150.72L171.94,151.97L172.06,154.3L173.54,161.21L173.66,159.69L174.03,154.06L174.4,159.34L174.52,159.87L174.77,159.24L174.89,161.07L175.02,161.24L175.14,158.9L176.37,170.88L176.74,170.6L176.86,169.36L177.11,172.81L177.23,172.22L177.35,169.44L177.97,165.74L178.09,166.87L178.22,171.95L178.46,175.72L178.95,173.96L179.08,174.08L179.2,173.13L179.45,174.65L179.57,174.55L179.69,175.49L180.06,177.21L180.18,177.01L180.31,175.27L180.43,173.45L180.68,179.4L180.8,178.79L180.92,178.99L181.42,180.98L181.54,180.86L181.66,179.23L181.78,178.55L181.91,180.69L182.03,182.89L182.15,181.08L182.52,186.8L182.65,187.54L182.77,186.9L182.89,188.49L183.02,189.65L183.63,187.2L183.88,187.27L184,188.65L184.62,188.35L185.11,195.04L185.23,193.94L185.35,194.16L185.48,193.41L185.6,191.26L186.34,194.38L186.46,198.09L186.83,204.33L187.32,202.69L187.45,204.29L188.06,209.74L188.43,208.3L188.55,209.13L190.03,221.38L190.15,217.5L190.28,216.47L190.65,218.58L190.77,219.84L191.02,218.91L191.14,220.2L191.26,219.85L191.38,221.3L193.35,240.53L193.48,239.04L194.83,251.07L194.95,250.43L195.94,259.35L196.18,256.6L196.31,257.28L197.54,266.39L197.66,266.99L198.52,270.55L198.65,275.69L199.14,280.23L199.51,278.74L199.63,279.13L200.74,295.1L200.98,291.01L201.11,290.38L201.35,293.68L201.97,292.83L202.09,292.47L202.46,293.34L202.58,294.29L202.71,296.3L203.32,295.17L203.45,294.4L203.94,297.19L204.18,296.6L204.31,294.71L204.68,297.8L204.8,295.94L204.92,294.19L206.15,284.11L206.28,284.27L206.4,286.38L206.52,285.97L206.65,286.27L206.77,288.12L208.49,258.78L208.62,253.2L210.83,206.61L210.95,204.38L213.05,129.7L213.17,125.64L215.38,58.45L215.51,57.08L217.48,24.64L217.97,26.07L218.09,27.63L218.46,29.69L218.58,27.39L218.71,25.85L218.95,30.93L219.45,29.36L219.57,28.43L219.94,30.18L220.06,32.57L220.31,32.43L221.78,46.46L221.91,50.33L225.23,93.81L225.35,95.81L225.6,95.49L225.97,98.33L226.09,102.32L227.45,123.32L227.57,123.36L228.8,133.29L228.92,135.22L229.54,137.77L229.66,141.53L230.52,153.05L230.65,152.71L230.77,152.06L232.12,166.8L232.25,165.96L232.37,166.74L232.86,174.79L233.11,172.88L233.23,171.55L234.95,187.58L235.08,186.76L235.2,184.25L235.45,180.17L235.82,182.24L235.94,185.36L237.42,198.71L237.54,197.8L237.66,196.02L238.28,201.06L238.52,197.88L238.65,197.73L238.89,196.46L239.02,199.4L239.14,201.59L240.49,213.19L240.62,212L240.74,210.89L240.98,215.64L241.11,216.38L241.35,213.82L241.85,216.07L241.97,218.15L242.58,222L242.83,221.79L242.95,222.56L243.2,224.64L243.45,223.32L243.57,222.22L243.82,219.58L244.06,223.14L244.18,225.73L244.43,226.95L244.68,223.92L244.8,225.08L244.92,224.39L245.78,232.9L246.15,231L246.28,230.87L246.52,230.39L247.38,235.84L247.63,235.55L247.75,234.39L248.12,236.72L248.62,232.82L248.74,231.63L249.35,231.08L249.6,232.91L249.72,232.22L249.97,233.43L250.09,231.98L250.22,229.94L250.71,231.96L251.08,227.06L251.2,228.88L251.57,232.78L251.82,228.29L251.94,225.03L252.06,225.55L252.31,224.14L252.43,222.23L254.77,201.54L254.89,199.57L255.26,200.32L255.38,196.51L255.51,194.69L257.11,169.04L257.23,168.97L257.48,170.79L257.6,169.73L257.72,165.62L260.8,116.83L260.92,115.85L263.14,86.5L263.26,86.18L263.88,80.83L264,78.79L264.37,77.64L264.49,77.78L264.62,76.02L265.48,67.91L265.6,70.61L265.72,71.92L266.09,69.98L266.22,66.94L266.95,72.65L267.08,72.27L267.2,68.66L267.32,68.32L267.45,69.65L267.57,70.13L267.82,68.62L268.06,71.28L268.18,73.98L268.55,71.85L269.17,77.08L269.29,75.47L269.42,76.91L269.66,73.15L269.78,73.79L269.91,73.26L270.52,79.77L270.89,78.73L271.02,76.89L271.14,75.93L271.38,80.05L271.51,82.99L272.25,89.01L272.37,85.43L272.49,82.83L272.74,81.71L272.86,84.16L274.83,102.1L274.95,98.94L275.08,98.28L276.06,106.57L276.18,106.39L276.31,105.31L276.43,104.5L276.68,107.62L276.8,107.1L276.92,106.7L277.05,106.25L277.17,108.17L277.29,109.47L277.42,108.32L277.66,112.28L277.78,112.19L278.15,110.02L278.28,110.96L278.4,114.64L278.52,114.06L278.77,116.47L278.89,116.52L279.63,119.43L279.75,118.34L279.88,118.78L281.48,130.22L281.72,129.82L281.85,128.21L281.97,126.3L282.34,129.21L282.58,128.39L282.71,131.35L282.95,130.59L283.32,134.03L283.57,132.59L283.69,132.05L284.06,131.83L284.8,137.76L284.92,137.32L285.05,134.42L285.29,135.1L285.42,133.14L286.28,140.77L286.77,139.41L286.89,139.34L287.14,139.16L287.26,141.05L287.38,141.66L287.51,140.63L287.63,138.36L288.25,147.18L288.49,143.78L288.62,142.29L288.74,141.79L288.98,143.67L289.23,142.17L289.35,143.26L289.6,142.59L289.72,144.19L289.85,146.26L290.09,145.78L290.22,146.76L290.34,146.4L290.46,147.3L290.58,149.55L290.71,151.08L291.08,146.72L291.2,143.28L291.94,148.73L292.06,150.05L292.18,150.84L292.31,149.2L292.43,147.49L293.42,154.17L293.54,152.36L293.66,151L293.78,150.86L293.91,151.24L294.03,152.01L294.28,151.72L295.51,158.42L295.63,155.61L296.12,158.47L296.25,157.27L296.37,155.04L296.86,157.42L296.98,157.04L297.11,153.12L297.23,151.33L297.48,157.41L297.6,158.88L298.71,165.31L298.83,166.46L299.08,164.83L299.2,165.24L299.32,168.2L299.45,168.93L299.57,166.68L299.69,165.2L300.06,164.7L300.31,168.49L300.55,167.15L300.68,166.05L300.92,168.6L301.05,165.39L301.42,166.99L301.54,166.67L302.28,173.29L302.77,172.21L302.89,172.5L303.26,171.87L303.51,176.54L303.63,173.27L303.75,172.68L304.12,177.08L304.62,175.26L304.74,173.62L304.86,172.94L304.98,176.44L305.11,178.38L305.6,177.73L305.72,176.62L305.85,176.49L305.97,179.05L306.22,178.68L308.31,188.48L308.43,187.08L308.8,186.85L309.78,190.89L309.91,192.14L310.4,192.94L310.52,194.36L310.65,195.41L310.89,193.53L311.14,194.6L311.26,194.21L311.51,192.6L311.63,192.19L311.88,191.71L312,193.52L312.25,197.96L312.74,196.24L312.86,195.91L313.72,201.26L313.85,199.14L315.2,215.22L315.32,214.08L315.45,211.69L315.82,204.59L316.31,207.74L316.43,208.31L317.17,221.93L317.42,218.92L317.54,216.24L318.15,217.19L318.4,213.66L318.52,213.4L319.26,217.38L319.38,218.96L320.25,223.81L320.37,222.56L320.62,226.48L320.98,221.97L321.11,222.44L321.23,221.8L321.72,226.66L321.97,225.58L322.09,223.46L323.08,227.21L323.2,227.62L323.69,231.07L324.06,229.54L324.18,228.62L325.17,224.1L325.29,225.2L325.42,226.64L325.78,222.78L325.91,222.27L326.15,224.47L326.28,228.96L328.98,207.23L329.11,208.36L329.23,208.26L330.46,195.59L330.58,194.99L332.18,179.49L332.31,178.62L335.51,134.75L335.63,134.73L336,130.4L336.12,127.27L336.74,120.77L336.86,117.05L338.22,98.39L338.34,100.06L338.46,101.31L339.08,92.61L339.2,89.07L339.45,89.73L339.82,87.02L339.94,86.01L340.8,78.51L341.05,80.06L341.17,79.35L341.66,81.6L341.78,81.01L341.91,79.13L342.52,73.78L342.65,74.8L342.77,76.92L342.89,77.01L343.02,73.82L343.26,74.5L343.51,71.14L344,72.02L344.12,74.1L344.37,73.01L344.49,74.84L344.62,77.29L344.74,78.62L344.98,74.01L345.11,74.08L346.83,84.18L346.95,83.26L347.08,82.87L347.32,84.21L347.45,84.22L347.57,84.07L347.69,85.15L347.94,82.4L348.18,88.09L348.31,86.78L348.43,85.42L348.92,89.2L349.05,91.53L350.15,94.95L350.28,96.07L350.4,96.83L350.52,94.96L350.65,91.98L352.98,107.05L353.11,104.8L353.35,108.52L353.48,109.39L354.71,113.06L354.83,113.94L355.2,111.07L355.32,112.59L355.45,114.94L355.57,114.05L355.69,115.45L355.82,120.95L355.94,122.46L356.43,120.82L356.55,119.59L357.05,116.9L357.29,118.81L357.42,120L357.66,119.87L357.78,120.72L357.91,124.63L358.03,127.36L358.52,123.12L358.65,123.66L358.77,122.19L359.02,125.7L359.14,127.03L359.26,128.16L359.51,123.98L359.63,122.82L359.75,122.56L359.88,122.97L360,124.51L360.25,122.1L360.62,125.4L360.74,127.9L361.23,130.47L361.48,129.94L361.6,128.68L361.72,128.48L361.85,126.61L363.32,134.17L363.45,134.9L363.94,137L364.06,135.28L364.18,134.52L364.55,139.48L364.92,137.35L365.05,136.82L365.66,130.96L365.91,134.28L366.03,135.6L366.52,138.56L366.65,138.09L366.77,134.97L366.89,133.33L367.26,136.41L367.38,135.74L367.51,135.14L367.88,134.53L368.62,139.58L368.74,138.97L368.86,136.55L369.11,135.64L369.23,138.31L369.35,140.78L369.72,137.63L369.97,139.25L370.09,139.05L370.58,143.35L370.83,140.56L370.95,138.75L371.08,138.31L371.32,139.41L371.45,140.6L372.68,149.4L372.8,148.87L372.92,147.04L373.17,141.6L373.66,142.19L373.78,146.3L373.91,148.13L374.15,144.6L374.52,147.68L374.65,144.95L374.89,149.82L375.38,146.26L375.51,146.74L375.75,149.09L376.12,147.74L376.25,145.96L376.49,146.77L376.62,144.83L376.74,144.83L377.6,149.13L377.72,147.84L377.85,147.55L377.97,148.34L378.09,150.73L378.46,150.58L379.08,154.19L379.2,153.95L379.32,154.92L379.69,152.06L379.82,151.02L380.31,157.07L380.68,153.28L380.8,153.19L381.78,158.51L381.91,159.16L382.52,156.95L382.65,157.57L382.77,158.37L383.02,158.93L383.14,158.58L383.26,157.55L383.38,156.57L383.51,158.65L383.63,161.5L384.49,156.1L384.62,157.39L384.74,158.09L385.11,162.06L385.23,159.49L385.35,156.92L385.6,154.8L385.72,157.04L385.85,159.67L386.09,159.31L386.22,162.75L386.34,165.71L386.95,163.98L387.2,164.41L387.32,165.94L388.06,169.44L388.18,168.31L388.31,166.67L388.55,165.15L388.8,168.04L388.92,167.52L389.05,168.02L389.78,170.36L389.91,168.09L391.38,176.45L391.51,175.53L391.63,173.28L392,170.94L392.37,171.91L392.49,173.92L393.48,182.49L393.6,183.49L393.97,184.92L394.09,183.18L394.22,181.6L394.46,179.19L394.71,182.69L394.83,182.49L395.69,189.47L396.18,188.59L396.31,187.34L397.42,195.72L397.54,193.63L397.66,192.69L397.78,195.39L397.91,198.58L398.03,199.96L398.52,197.53L398.65,196.64L399.63,200.84L399.75,199.88L400.25,203.28L400.37,203.97L400.49,203.8L400.62,205.92L401.11,210.32L401.35,209.04L401.48,207.84L401.6,208.04L401.72,210.42L402.71,216.85L402.83,216.13L402.95,214.65L403.32,217.76L403.45,217.73L403.57,216.49L405.05,228.88L405.17,229.73L405.54,226.19L405.66,229.07L405.78,232.47L406.65,230.83L406.77,232.07L407.14,234.13L407.26,237.81L407.38,239.79L407.75,235.97L407.88,234.58L408,234.71L408.12,236.68L408.62,246.92L409.11,245.68L409.23,246.06L409.6,247.13L409.72,244.77L409.85,245.46L409.97,247.66L410.34,247.28L410.58,251.19L410.83,250.44L410.95,249.09L411.2,247.05L411.57,250.85L411.69,251.06L411.94,253.58L412.43,251.51L412.55,250.46L413.29,255.4L413.42,254.14L413.54,252.84L413.91,253.82L414.15,248.88L414.52,250.03L414.65,250.81L415.14,247.21L415.51,248.32L415.63,248.85L415.88,250.46L416.12,248.65L416.25,248.67L416.37,248.57L416.74,246.31L416.86,246.99L416.98,248.94L417.11,248.54L417.23,245.53L419.08,223.67L419.2,221.06L419.45,222.76L419.57,220.78L419.69,216.48L421.91,173.72L422.03,170.96L427.32,75.38L427.57,76.8L427.69,75.51L429.17,56.58L429.42,60.93L429.54,62.04L430.4,52.17L430.52,53.07L430.65,55.3L430.77,55.9L430.89,53.84L431.02,52.58L431.14,52.23L431.38,53.66L431.51,54.66L431.88,58.44L432.37,57.6L432.49,56.12L433.85,64.98L433.97,66.33L435.08,77.11L435.2,75.85L435.32,74.01L437.54,93.42L437.66,96.48L437.78,97.52L437.91,95.91L438.03,91.5L438.15,91.69L438.28,94.97L440.37,115.98L440.49,115.64L440.62,115.74L440.98,115.25L441.11,116.59L441.6,118.63L441.97,118.28L442.09,118.57L442.46,125.12L443.08,124.97L443.2,125.06L445.17,140.48L445.29,143.82L445.78,137.23L446.03,142.01L446.15,141.47L446.52,146.46L446.65,144.99L446.77,143.27L447.38,142.48L447.75,148.15L447.88,147.36L448,146.62L448.25,143.36L448.37,145.81L448.49,147.66L448.74,149.91L448.86,151.84L449.23,157.04L449.35,153.3L449.48,149.87L449.6,148.17L450.09,151.35L450.22,151.25L450.83,158.75L451.08,154.88L451.2,153.93L452.31,161.57L452.43,162.52L452.92,160.27L453.05,161.17L453.17,162.78L453.91,169.78L454.15,167.79L454.28,168.34L454.4,168.84L454.65,167.91L454.77,166.19L455.63,171.39L455.75,174.6L455.88,174.52L456,170.53L457.85,177.29L457.97,177.01L458.09,176.51L458.34,180.77L458.95,179.5L459.08,180.7L459.32,178.03L459.57,181.01L459.69,181.62L460.92,190.62L461.05,188.18L461.17,187.57L461.54,189.29L461.66,190.7L462.15,194.96L462.52,193.79L462.65,192.17L463.14,189.7L463.38,190.96L463.51,194.22L464.12,200.17L464.37,198.26L464.49,197.8L464.62,197.51L464.74,199.06L464.86,200.19L465.11,196.52L465.48,201.44L465.6,202.05L465.85,202.4L466.34,200.75L466.46,203.29L467.32,212.73L467.82,211.61L467.94,210.41L468.18,208.06L468.55,212.67L468.68,209.35L468.8,208.68L469.05,211.94L469.54,210.19L469.66,209.51L470.65,215.8L470.77,216.18L471.02,216.65L471.26,213.99L471.51,215.79L471.63,215.94L471.88,216.2L472,217.47L472.86,223.51L472.98,222.59L473.11,220.9L473.35,223.38L473.72,219.47L473.85,221.26L473.97,220.76L474.09,218.95L474.34,223.12L474.71,219.95L474.83,219.93L475.57,225.04L475.94,223.28L476.06,223.56L476.31,220.12L476.92,220.75L477.05,220.61L477.54,216.51L477.66,214.87L477.78,214.28L478.03,216.77L478.15,218.24L479.63,204.67L479.75,206.52L480,202.35L480.37,206.35L480.49,206.85L483.57,168.69L483.94,170.47L484.06,171.96L485.66,152.54L485.78,153.02L485.91,147.97L486.15,138.5L486.77,140.71L486.89,138.19L488.12,122.38L488.25,122.71L488.37,121.77L488.62,120.32L488.74,116.33L488.86,115.92L488.98,117.78L489.11,117.57L489.23,114.24L490.46,92.05L490.58,93.11L490.71,93.65L490.83,92.91L491.08,94.77L491.32,93.17L491.45,95.25L492.18,85.56L492.31,83.44L492.43,83.6L492.55,85.85L493.29,82.92L493.42,80.93L494.15,77.91L494.28,78.48L494.4,80.64L494.65,82.41L495.02,79.53L495.14,77.53L496.62,83.84L496.74,82L496.86,78.77L496.98,77.71L497.11,78.67L497.23,82.93L497.6,82.7L497.97,86.87L498.09,86.05L498.22,86.05L498.46,83.69L498.83,87.74L498.95,88.78L499.2,89.91L499.32,88.08L499.45,87.06L500.18,88.89L500.31,92.67L501.05,87.39L501.17,88.72L501.29,90.99L501.66,97.75L502.15,94.78L502.28,94.9L503.26,101.38L503.38,100.6L503.51,99.89L503.75,96.28L504,100.25" style="vector-effect: non-scaling-stroke; fill: none; stroke: rgb(239, 85, 59); stroke-opacity: 1; stroke-width: 2px; opacity: 1;"/></g><g class="points"/><g class="text"/></g></g></g><g class="overplot"/><path class="xlines-above crisp" d="M0,0" style="fill: none;"/><path class="ylines-above crisp" d="M0,0" style="fill: none;"/><g class="overlines-above"/><g class="xaxislayer-above"><g class="xtick"><text text-anchor="middle" x="0" y="433" transform="translate(80,0)" style="font-family: 'Open Sans', verdana, arial, sans-serif; font-size: 12px; fill: rgb(42, 63, 95); fill-opacity: 1; white-space: pre; opacity: 1;">0</text></g><g class="xtick"><text text-anchor="middle" x="0" y="433" style="font-family: 'Open Sans', verdana, arial, sans-serif; font-size: 12px; fill: rgb(42, 63, 95); fill-opacity: 1; white-space: pre; opacity: 1;" transform="translate(203.07999999999998,0)">1000</text></g><g class="xtick"><text text-anchor="middle" x="0" y="433" style="font-family: 'Open Sans', verdana, arial, sans-serif; font-size: 12px; fill: rgb(42, 63, 95); fill-opacity: 1; white-space: pre; opacity: 1;" transform="translate(326.15,0)">2000</text></g><g class="xtick"><text text-anchor="middle" x="0" y="433" style="font-family: 'Open Sans', verdana, arial, sans-serif; font-size: 12px; fill: rgb(42, 63, 95); fill-opacity: 1; white-space: pre; opacity: 1;" transform="translate(449.23,0)">3000</text></g><g class="xtick"><text text-anchor="middle" x="0" y="433" style="font-family: 'Open Sans', verdana, arial, sans-serif; font-size: 12px; fill: rgb(42, 63, 95); fill-opacity: 1; white-space: pre; opacity: 1;" transform="translate(572.31,0)">4000</text></g></g><g class="yaxislayer-above"><g class="ytick"><text text-anchor="end" x="79" y="4.199999999999999" transform="translate(0,395.88)" style="font-family: 'Open Sans', verdana, arial, sans-serif; font-size: 12px; fill: rgb(42, 63, 95); fill-opacity: 1; white-space: pre; opacity: 1;">15</text></g><g class="ytick"><text text-anchor="end" x="79" y="4.199999999999999" style="font-family: 'Open Sans', verdana, arial, sans-serif; font-size: 12px; fill: rgb(42, 63, 95); fill-opacity: 1; white-space: pre; opacity: 1;" transform="translate(0,341.28)">10</text></g><g class="ytick"><text text-anchor="end" x="79" y="4.199999999999999" style="font-family: 'Open Sans', verdana, arial, sans-serif; font-size: 12px; fill: rgb(42, 63, 95); fill-opacity: 1; white-space: pre; opacity: 1;" transform="translate(0,286.69)">5</text></g><g class="ytick"><text text-anchor="end" x="79" y="4.199999999999999" style="font-family: 'Open Sans', verdana, arial, sans-serif; font-size: 12px; fill: rgb(42, 63, 95); fill-opacity: 1; white-space: pre; opacity: 1;" transform="translate(0,232.09)">0</text></g><g class="ytick"><text text-anchor="end" x="79" y="4.199999999999999" style="font-family: 'Open Sans', verdana, arial, sans-serif; font-size: 12px; fill: rgb(42, 63, 95); fill-opacity: 1; white-space: pre; opacity: 1;" transform="translate(0,177.49)">5</text></g><g class="ytick"><text text-anchor="end" x="79" y="4.199999999999999" style="font-family: 'Open Sans', verdana, arial, sans-serif; font-size: 12px; fill: rgb(42, 63, 95); fill-opacity: 1; white-space: pre; opacity: 1;" transform="translate(0,122.89)">10</text></g></g><g class="overaxes-above"/></g></g><g class="polarlayer"/><g class="smithlayer"/><g class="ternarylayer"/><g class="geolayer"/><g class="funnelarealayer"/><g class="pielayer"/><g class="iciclelayer"/><g class="treemaplayer"/><g class="sunburstlayer"/><g class="glimages"/><defs id="topdefs-c58599"><g class="clips"/><clipPath id="legendc58599"><rect width="94" height="48" x="0" y="0"/></clipPath></defs><g class="layer-above"><g class="imagelayer"/><g class="shapelayer"/></g><g class="infolayer"><g class="legend" pointer-events="all" transform="translate(594.08,100)"><rect class="bg" shape-rendering="crispEdges" style="stroke: rgb(68, 68, 68); stroke-opacity: 1; fill: rgb(255, 255, 255); fill-opacity: 1; stroke-width: 0px;" width="94" height="48" x="0" y="0"/><g class="scrollbox" transform="" clip-path="url(#legendc58599)"><g class="groups"><g class="traces" transform="translate(0,14.5)" style="opacity: 1;"><text class="legendtext" text-anchor="start" x="40" y="4.680000000000001" style="font-family: 'Open Sans', verdana, arial, sans-serif; font-size: 12px; fill: rgb(42, 63, 95); fill-opacity: 1; white-space: pre;">Stimulus</text><g class="layers" style="opacity: 1;"><g class="legendfill"/><g class="legendlines"><path class="js-line" d="M5,0h30" style="fill: none; stroke: rgb(99, 110, 250); stroke-opacity: 1; stroke-width: 2px;"/></g><g class="legendsymbols"><g class="legendpoints"/></g></g><rect class="legendtoggle" x="0" y="-9.5" width="88.796875" height="19" style="fill: rgb(0, 0, 0); fill-opacity: 0;"/></g><g class="traces" transform="translate(0,33.5)" style="opacity: 1;"><text class="legendtext" text-anchor="start" x="40" y="4.680000000000001" style="font-family: 'Open Sans', verdana, arial, sans-serif; font-size: 12px; fill: rgb(42, 63, 95); fill-opacity: 1; white-space: pre;">Percept</text><g class="layers" style="opacity: 1;"><g class="legendfill"/><g class="legendlines"><path class="js-line" d="M5,0h30" style="fill: none; stroke: rgb(239, 85, 59); stroke-opacity: 1; stroke-width: 2px;"/></g><g class="legendsymbols"><g class="legendpoints"/></g></g><rect class="legendtoggle" x="0" y="-9.5" width="88.796875" height="19" style="fill: rgb(0, 0, 0); fill-opacity: 0;"/></g></g></g><rect class="scrollbar" rx="20" ry="3" width="0" height="0" style="fill: rgb(128, 139, 164); fill-opacity: 1;" x="0" y="0"/></g><g class="g-gtitle"/><g class="g-xtitle"/><g class="g-ytitle"/></g></svg>