<svg class="main-svg" xmlns="http://www.w3.org/2000/svg" xmlns:xlink="http://www.w3.org/1999/xlink" width="800" height="600" style="" viewBox="0 0 800 600"><rect x="0" y="0" width="800" height="600" style="fill: rgb(255, 255, 255); fill-opacity: 1;"/><defs id="defs-e2fcf7"><g class="clips"><clipPath id="clipe2fcf7xyplot" class="plotclip"><rect width="612" height="420"/></clipPath><clipPath class="axesclip" id="clipe2fcf7x"><rect x="80" y="0" width="612" height="600"/></clipPath><clipPath class="axesclip" id="clipe2fcf7y"><rect x="0" y="100" width="800" height="420"/></clipPath><clipPath class="axesclip" id="clipe2fcf7xy"><rect x="80" y="100" width="612" height="420"/></clipPath></g><g class="gradients"/><g class="patterns"/></defs><g class="bglayer"/><g class="layer-below"><g class="imagelayer"/><g class="shapelayer"/></g><g class="cartesianlayer"><g class="subplot xy"><g class="layer-subplot"><g class="shapelayer"/><g class="imagelayer"/></g><g class="gridlayer"><g class="x"><path class="xgrid crisp" transform="translate(141.2,0)" d="M0,100v420" style="stroke: rgb(235, 240, 248); stroke-opacity: 1; stroke-width: 1px;"/><path class="xgrid crisp" transform="translate(263.6,0)" d="M0,100v420" style="stroke: rgb(235, 240, 248); stroke-opacity: 1; stroke-width: 1px;"/><path class="xgrid crisp" transform="translate(508.4,0)" d="M0,100v420" style="stroke: rgb(235, 240, 248); stroke-opacity: 1; stroke-width: 1px;"/><path class="xgrid crisp" transform="translate(630.8,0)" d="M0,100v420" style="stroke: rgb(235, 240, 248); stroke-opacity: 1; stroke-width: 1px;"/></g><g class="y"><path class="ygrid crisp" transform="translate(0,436)" d="M80,0h612" style="stroke: rgb(235, 240, 248); stroke-opacity: 1; stroke-width: 1px;"/><path class="ygrid crisp" transform="translate(0,352)" d="M80,0h612" style="stroke: rgb(235, 240, 248); stroke-opacity: 1; stroke-width: 1px;"/><path class="ygrid crisp" transform="translate(0,184)" d="M80,0h612" style="stroke: rgb(235, 240, 248); stroke-opacity: 1; stroke-width: 1px;"/></g></g><g class="zerolinelayer"><path class="xzl zl crisp" transform="translate(386,0)" d="M0,100v420" style="stroke: rgb(235, 240, 248); stroke-opacity: 1; stroke-width: 2px;"/><path class="yzl zl crisp" transform="translate(0,268)" d="M80,0h612" style="stroke: rgb(235, 240, 248); stroke-opacity: 1; stroke-width: 2px;"/></g><path class="xlines-below"/><path class="ylines-below"/><g class="overlines-below"/><g class="xaxislayer-below"/><g class="yaxislayer-below"/><g class="overaxes-below"/><g class="plot" transform="translate(80,100)" clip-path="url(#clipe2fcf7xyplot)"><g class="scatterlayer mlayer"><g class="trace scatter trace3456e1" style="stroke-miterlimit: 2; opacity: 1;"><g class="fills"/><g class="errorbars"/><g class="lines"><path class="js-line" d="M208.08,168L234.09,187.68L234.54,188.08L241.97,195.67L242.27,196.04L246.79,203L246.98,203.37L249.55,210.59L249.64,210.99L250.61,218.38L250.63,218.81L250.16,228.88L250.1,229.36L247.54,242.45L247.39,243.02L242.62,257.97L242.38,258.61L236.71,271.76L236.38,272.43L229.98,284.07L229.56,284.76L222.44,294.9L221.91,295.56L214.4,303.69L213.77,304.27L206.27,310.14L205.54,310.61L197.68,314.61L196.84,314.92L189.76,316.79L188.83,316.93L180.99,317.19L179.96,317.11L172.46,315.68L171.34,315.35L163.21,312.03L162.01,311.41L153.29,305.86L152,304.89L142.74,296.81L141.38,295.46L131.67,284.58L130.26,282.82L120.25,269L118.81,266.81L108.7,250.07L107.26,247.48L95.94,225.13L94.56,222.16L83.96,197.23L82.7,194L73.38,167.83L72.32,164.55L64.88,138.9L64.09,135.81L59.07,112.65L58.61,109.99L56.56,93.27L56.43,91.17L56.57,80.31L56.74,78.8L58.25,72.54L58.67,71.55L61.41,67.92L62.07,67.45L65.11,66.41L65.96,66.35L70.7,67.17L71.74,67.55L78.58,71.14L79.81,71.94L90.38,79.99L91.78,81.18L109.4,97.23L110.92,98.67L166.33,150.91L167.55,152L215.64,195.27L216.12,195.78L223.71,205.44L223.99,205.9L227.58,213.01L227.74,213.44L229.48,220.37L229.54,220.8L229.67,228.16L229.63,228.6L228.19,236.04L228.06,236.49L224.95,244.41L224.73,244.85L220.02,252.6L219.71,253.01L214.13,259.38L213.74,259.76L207.23,264.83L206.75,265.12L200.04,268.34L199.49,268.53L192.99,270L192.36,270.07L185.78,270.06L185.09,269.98L177.86,268.36L177.11,268.1L169.28,264.54L168.47,264.07L160.12,258.24L159.26,257.54L150.51,249.2L149.62,248.24L140.68,237.29L139.78,236.07L130.05,221.13L129.18,219.65L120.01,202.19L119.22,200.52L111.17,181.52L110.51,179.76L104.17,160.6L103.69,158.9L99.62,141.19L99.37,139.7L98.03,127.4L97.99,126.18L98.45,117.54L98.6,116.61L100.3,111.07L100.62,110.42L103.48,106.86L103.96,106.48L107.88,104.8L108.51,104.68L113.36,104.69L114.11,104.8L120.57,106.51L121.43,106.82L131.45,111.31L132.4,111.8L150.14,121.87L151.14,122.47L187.61,143.73L188.44,144.18L211.76,155.72L212.39,156L231.03,163.6L231.45,163.76L258.59,174.14L258.71,174.22L262.7,177.38L262.78,177.47L265.31,181.41L265.36,181.53L266.83,186.71L266.85,186.87L267.41,193.78L267.41,194L266.7,206.88L266.66,207.21L263.45,227.85L263.36,228.34L258.03,251.41L257.85,252.07L251.19,274.14L250.92,274.95L243.07,295.5L242.68,296.4L234.68,313L234.17,313.93L226.26,326.94L225.64,327.85L217.37,338.41L216.61,339.24L209.32,346.29L208.45,347.01L201.04,352.19L200.05,352.75L192.77,356.06L191.67,356.43L183.55,358.16L182.33,358.28L174.66,358.14L173.33,357.97L164.97,355.95L163.52,355.44L154.45,351.14L152.88,350.22L143.12,343.25L141.44,341.84L131.03,331.8L129.24,329.86L118.27,316.41L116.4,313.87L105,296.8L103.07,293.65L91.46,272.91L89.52,269.16L77.98,245.01L76.08,240.73L64.96,213.78L63.17,209.1L52.9,180.34L51.28,175.48L40.97,141.52L39.66,136.75L31.82,104.85L30.9,100.57L26.14,73.42L25.7,69.99L24.42,52.3L24.44,49.85L25.49,39.9L25.89,38.37L28.15,33.83L28.86,33.08L31.37,31.74L32.33,31.58L35.52,31.96L36.68,32.36L41.85,35.21L43.26,36.22L50.91,42.82L52.55,44.42L64.86,57.68L66.72,59.81L90.08,87.96L92.07,90.4L134.12,141.26L135.87,143.31L171.95,184.28L173.18,185.67L193.48,209.35L194.28,210.36L203.64,223.36L204.18,224.21L209.76,234.66L210.09,235.42L212.95,244.15L213.1,244.85L214.02,252.96L214.03,253.62L213.22,261.2L213.09,261.81L210.45,269.37L210.18,269.92L206.21,276.1L205.82,276.58L200.92,281.31L200.42,281.68L194.93,284.89L194.33,285.15L187.86,286.96L187.16,287.06L180.49,287.15L179.7,287.06L173.11,285.61L172.25,285.33L165.06,282.14L164.12,281.63L155.39,275.68L154.39,274.86L146.15,267.21L145.09,266.11L135.45,254.67L134.37,253.22L125.67,240.51L124.59,238.77L114.96,221.83L113.92,219.81L103.9,198.42L102.96,196.19L94.28,173.41L93.5,171.12L86.83,148.71L86.28,146.56L82.5,128.37L82.21,126.51L80.91,113.09L80.88,111.61L81.46,102.62L81.66,101.54L83.46,96.14L83.86,95.42L86.25,92.61L86.81,92.2L89.97,90.89L90.68,90.77L95.36,90.98L96.21,91.16L102.69,93.44L103.68,93.9L113.18,99.24L114.29,99.94L131.7,112.17L132.89,113.05L183.4,150.02L184.33,150.65L211.22,168.16L211.84,168.55L231.5,181.88L231.83,182.14L238.9,189L239.09,189.24L242.39,194.54L242.5,194.79L244.29,200.66L244.34,200.93L244.68,208.32L244.66,208.63L243.36,217.43L243.28,217.78L240.15,228.3L240,228.7L235.07,240.13L234.85,240.57L227.63,252.81L227.31,253.26L220.53,261.78L220.13,262.21L213.09,268.72L212.61,269.1L204.72,274.01L204.15,274.28L197.47,276.69L196.83,276.84L190.05,277.75L189.34,277.77L181.86,277.09L181.07,276.93L173.75,274.62L172.9,274.26L165.04,270.04L164.14,269.45L155.82,263.03L154.87,262.19L146.2,253.38L145.23,252.26L136.39,240.96L135.41,239.57L126.64,225.89L125.68,224.24L116.4,206.66L115.51,204.8L107.18,185.55L106.41,183.59L99.56,163.9L98.97,161.96L94.12,143.32L93.75,141.56L91.46,126.93L91.32,125.46L91.12,114.99L91.21,113.85L92.51,107.03L92.79,106.22L94.99,102.25L95.44,101.74L98.58,99.49L99.18,99.25L103.18,98.6L103.91,98.62L109.5,99.61L110.35,99.87L118.65,103.31L119.62,103.79L132.98,111.48L134.04,112.14L196.8,151.86L197.59,152.3L221.49,164.79L222,165.05L244.46,176.67L244.68,176.82L249.92,180.85L250.07,181L253.36,185.08L253.46,185.24L255.64,190.63L255.69,190.82L256.49,196.71L256.5,196.95L256.14,205.91L256.1,206.21L254.27,217.33L254.19,217.7L250.59,231.72L250.45,232.19L244.92,248.26L244.7,248.82L237.18,265.57L236.86,266.19L229.06,279.56L228.64,280.2L221.05,290.19L220.53,290.79L213.07,298.19L212.44,298.72L205.06,303.95L204.34,304.36L197.46,307.52L196.65,307.79L188.95,309.51L188.05,309.6L180.46,309.52L179.47,309.4L171.17,307.41L170.08,307.02L162.23,303.37L161.07,302.7L152.68,296.96L151.45,295.97L142.6,287.87L141.31,286.53L132.09,275.87L130.75,274.16L119.95,258.75L118.59,256.62L107.8,237.92L106.46,235.39L96.06,213.87L94.8,211.04L84.14,184.58L83.04,181.57L75.05,157.52L74.17,154.55L68.13,131.67L67.51,128.96L63.86,108.96L63.57,106.7L62.6,92.75L62.62,91.04L63.54,82.33L63.83,81.15L65.84,76.41L66.36,75.7L68.78,73.59L69.47,73.25L73.42,72.62L74.3,72.7L79.15,74.03L80.2,74.47L88.19,79L89.41,79.83L101.14,88.84L102.51,89.98L123.74,108.78L125.18,110.09L169,148.99L170.16,149.97L220.69,192.71L221.11,193.15L227.52,201.03L227.78,201.42L231.28,208.04L231.43,208.43L233.23,215.37L233.28,215.75L233.46,222.45L233.43,222.85L231.85,231.43L231.73,231.85L228.71,239.89L228.51,240.32L223.97,248.43L223.69,248.85L217.16,257L216.78,257.39L210.14,263.1L209.68,263.42L202.72,267.28L202.18,267.5L195.3,269.5L194.69,269.6L188.27,269.99L187.59,269.96L180.54,268.83L179.8,268.63L172.14,265.68L171.35,265.28L163.15,260.17L162.3,259.54L153.67,252L152.79,251.12L143.89,241L143,239.86L133.22,225.79L132.34,224.38L122.99,207.62L122.17,206L113.08,185.66L112.39,183.92L105.69,164.75L105.17,163.04L100.63,144.99L100.33,143.45L98.45,129.35L98.38,128.09L98.72,118.14L98.86,117.2L100.49,111.58L100.8,110.92L103.59,107.25L104.07,106.86L107.31,105.23L107.92,105.07L112.59,104.77L113.32,104.84L119.62,106.26L120.46,106.54L129.38,110.28L130.31,110.73L145.88,119.27L146.87,119.85L191.43,145.56" style="vector-effect: non-scaling-stroke; fill: none; stroke: rgb(99, 110, 250); stroke-opacity: 1; stroke-width: 2px; opacity: 1;"/></g><g class="points"/><g class="text"/></g><g class="trace scatter trace0f7d51" style="stroke-miterlimit: 2; opacity: 1;"><g class="fills"/><g class="errorbars"/><g class="lines"><path class="js-line" d="M403.92,168L400.98,139.95L400.33,139.71L399.72,137.78L399.16,138.65L398.5,140.1L397.91,139.35L395.5,135.59L394.92,138.21L393.12,142.86L392.43,143.79L391.25,145.93L390.6,144.48L390.08,143.61L389.49,144.56L388.28,148.44L387.59,147.52L387.03,146.94L386.49,150.24L385.25,152.76L384.62,152.95L383.5,148.94L382.99,151.52L381.78,154.8L381.24,155.38L380.13,152.78L379.63,156.21L379.01,158.03L378.44,156.72L375.76,164.58L375.18,163.44L374.21,159.65L373.68,163.34L373.14,163.99L372.66,163.22L372.16,162.97L371.67,163.85L369.23,170.58L368.76,174.91L368.18,178.45L367.64,177.91L367.13,176.48L366.64,176.39L366.13,177.34L365.13,178.84L364.68,177.78L363.32,179.89L362.91,178.36L361.27,178.5L360.88,179.19L360.08,186.33L359.65,186.15L359.26,183.17L358.9,183.48L358.53,186.79L358.13,189.91L357.72,189.26L357.38,186.35L356.26,193.55L355.89,191.93L355.57,190L355.25,190.39L354.93,191.16L354,192.75L353.69,196.44L352.72,199.84L352.42,198.76L352.13,198.94L351.82,202.29L350.84,207.33L350.55,206.96L350.27,207.31L349.39,211.59L349.14,207.08L348.63,212.09L348.36,214.14L347.88,211.01L347.65,212.36L347.41,213.64L347.2,213.65L346.97,214.5L346.44,223.29L345.98,222.16L345.76,221.69L345.32,223.87L345.1,226.58L344.9,226.42L344.69,227.03L344.48,229.47L344.28,230.31L344.14,227.86L343.97,225.9L342.56,238.69L342.49,237.2L342.36,235.25L341,257.08L341.02,257.54L340.99,256.31L341.85,271.35L342.12,270.61L342.08,269.16L342.57,282.34L342.98,280.3L343.14,280.72L344.1,284.7L344.23,287.53L344.6,286.93L344.9,288.73L346.9,300.23L347.03,304.49L348.26,318.3L348.5,317.54L348.87,315.65L349.76,322.53L350.21,320.32L350.39,319.1L350.74,321.02L351.11,321.29L352.43,327.11L352.71,328.6L353.12,330.04L353.55,329.76L353.94,329.29L357.61,341.62L357.76,346.31L358.42,350.13L358.89,349L359.31,349.67L360.64,356.53L361.28,356.12L362.18,360.74L362.75,359.79L363.15,361.06L363.97,360.84L364.56,358L364.95,359.45L365.53,362.76L366.37,362.45L366.69,363.16L367.86,373.52L368.4,375.51L368.98,378.43L369.96,377.23L371.19,372.28L371.85,375.64L373.14,379.21L373.95,381.68L375.53,382.28L376.02,383.87L377.59,390.3L378.58,390.05L379.41,389.1L380.03,391.1L381.05,393.08L381.98,391.83L382.27,396.08L383.53,400.58L386.37,396.93L387.12,399.33L389.13,401.79L389.89,404.79L393.01,410.7L394.11,409.9L395.09,410.81L396.1,413.27L397.27,414.82L398.57,413.85L400.87,416.71L402,415.62L404.44,415.22L405.71,418.02L408.38,419.55L409.89,419.73L412.87,417.24L414.2,415.63L418,423.28L419.84,424.93L424.24,423.12L425.9,424.77L427.46,425.44L429.47,423.62L430.46,424.07L432.3,427.95L435.87,426.08L437.21,427.67L439.08,429.29L440.95,427.82L442.74,426.77L444.22,427.52L446.03,429.56L447.98,429.97L451.58,434.35L453.32,433.35L457.12,431.67L459.38,431.71L461.29,429.43L463.32,428.96L467.76,424.15L470.26,421.35L471.87,420.44L474.47,420.79L476.35,419.86L478.87,419.8L483.35,415.64L485.93,414.36L488.1,411.56L490.12,411.55L493.25,408.85L495.48,403.32L497.7,403.06L500.31,401.83L507.8,392.96L510.76,391.45L513.63,386.36L516.4,379.69L518.55,374.8L521.39,371.64L523.43,370.34L526.33,371.6L529.03,369.49L532.04,365.24L537.66,357.48L540.02,352.21L545.35,345.14L548.1,343.56L553.59,337.03L556.83,332.02L559.07,326.62L562.08,323.29L572.53,305.49L575.82,301.97L577.9,296.12L580.49,294.7L588.81,283.29L591.6,276.26L596.6,262.77L599.36,257.58L604.45,245.3L606.69,242.23L609.82,238.25L612.5,229.33L614.31,224.51L616.97,223.37L619.42,219.27L621.89,211.83L626.19,193.62L628.09,188.64L630.42,186.04L632.49,181.76L634.68,176.62L636.71,167.48L638.3,160.9L640.39,157.41L644.07,148.65L645.75,142.19L649.09,135.32L650.69,132.38L659.33,102.48L659.96,96.06L661.57,90.8L662.18,87.57L663.63,79.65L663.87,75.14L663.82,56.4L663.51,53.54L660.78,40.4L660.01,36.18L658.64,38.42L657.97,41.88L656.75,43.23L655.33,37.46L654.27,34.85L652.99,35.53L647.48,29.25L646,31.3L644.41,31.99L642.61,30.8L639.1,24.92L636.97,23.21L635.43,20.87L633.5,22.81L629.49,17.62L627.54,18.4L625.59,20.2L623.35,20.99L621.09,18.63L619.17,18.86L614.97,26.86L612.37,27.58L610.07,25.2L608.01,26.06L605.77,29.92L603.13,31.18L600.7,30.01L598.52,31.4L596.03,32.69L593.67,32.54L591.63,36.7L588.7,39.02L586.34,36.54L583.84,36.79L578.79,34.27L576.36,35.02L568.97,41.06L566.39,40.93L564.18,41.98L561.72,44.89L558.88,44.11L556.9,45.79L554.13,50.19L551.67,51.79L548.86,52.87L546.27,51.59L543.74,51.29L541.21,51.75L536.14,54.09L533.84,57.04L531.26,61.07L528.49,61.87L526.23,62.12L523.46,61.59L521.26,61.04L518.78,64.07L516.19,65.77L513.65,65.41L511.23,65.22L508.98,65.93L504.43,68.21L502.11,70.42L499.91,73.61L497.11,75.5L495,76.94L492.67,80.69L490.52,85.37L487.62,86.85L485.52,84.07L483.26,84.23L480.98,83.93L478.94,84.53L472.26,91.64L470.16,91.45L465.81,94.73L463.75,94.45L461.87,96.44L459.82,99.84L449.9,108.03L447.89,110.68L445.83,110.59L444.34,113.47L442.01,116.53L440.14,114.97L436.34,117.28L434.37,116.85L432.78,117.14L430.97,119.43L427.36,123.81L425.64,124.99L420.4,132.54L418.67,132.17L415.54,130.78L414.07,133.8L412.38,137.78L410.64,137.32L409.19,137.28L407.45,139.08L406.15,140.91L404.61,144.74L401.6,142.92L400.15,144.65L398.78,148.63L397.14,150.89L395.9,151.97L394.34,154.78L392.78,153.41L391.62,154.05L390.21,157.49L388.76,156.79L387.52,155.28L386.33,158.27L383.66,164.75L382.38,165.67L379.84,171.54L378.46,170.9L377.4,167.95L376.28,167.07L374.04,165.47L373.01,167.77L371.98,173.28L370.7,175.49L369.58,173.34L368.57,174.71L366.44,176.87L365.37,177.46L363.36,179.88L362.37,178.73L361.45,178.42L360.53,178.96L359.63,179.98L358.73,182.53L355.85,191.13L354.98,189.05L354.11,188.65L353.36,190.31L351.59,198.54L350.76,197.24L349.22,194.65L348.48,197.31L346.87,201.42L346.19,203.34L345.37,207.5L344.57,207.56L343.14,207.89L342.5,206.22L340.43,213.14L339.78,212.94L337.84,217.56L337.22,216.75L336.63,217.35L335.98,219.23L335.37,218.63L334.81,216.84L334.28,215.67L333.77,217.06L332.64,224.03L332.11,222.13L331.08,225.54L330.58,225.02L330.13,222.72L329.69,222.49L329.23,223.9L327.49,229.46L327.08,228.97L326.67,230.33L326.24,234.54L325.44,235.28L325.02,238.22L323.77,242.65L323.4,243.87L323.02,243.5L322.63,245.29L321.91,247.3L321.56,246.22L321.25,245.66L320.91,246.14L320.58,249.4L318.71,258.63L318.39,257.07L316.97,265.96L316.74,264L316.51,263.31L315.35,269.44L315.18,269.14L315.08,265.78L314.9,263.93L314.7,267.34L314.57,269.22L312.86,282.83L312.74,281.49L312.64,281.94L312.35,285.76L312.1,284.91L312.07,288.83L311.98,285.52L312.67,309.65L312.88,311.43L313.13,311.8L313.62,309.39L313.8,309.49L314.85,314.78L315.05,314.49L315.32,313.16L315.35,314.05L315.54,318.06L315.79,318.75L316.21,318.09L316.43,318.31L316.89,320.47L317.21,317.99L317.29,318.39L317.78,317.82L317.86,316.09L318.97,321.52L319.26,322.56L320.03,317.3L320.39,315.5L321.06,316.35L321.28,317.68L321.79,318.53L322.09,317.18L322.51,317.14L322.75,318.05L323.32,318.48L323.6,317.57L325.24,320.09L325.62,319.75L326.97,320.06L327.35,319.33L327.85,319.33L328.43,316.9L329.94,313.59L330.6,311.37L330.97,310.39L331.56,312.35L332.58,315.28L333.17,314.88L333.76,313.79L334.45,310.86L334.87,309.43L335.51,310.6L336.11,310.08L336.87,307.67L338.77,299.43L339.47,300.25L340.08,300.87L340.71,302.84L341.58,302.05L342.31,298.11L343.78,289.92L344.37,292.41L345.91,293.65L346.76,293.43L348.2,288.64L349.11,289.12L350.6,284.28L351.51,283.99L353.14,281.71L354,278.15L354.75,276.85L355.55,277.52L356.43,277.67L357.41,275.23L359.06,267.84L360.11,267.32L360.89,265.42L361.76,266.07L362.85,263.96L363.71,260.12L367.69,247.53L368.57,243.92L369.55,243.07L370.6,240.38L371.53,236.89L372.44,236.67L373.57,235.54L374.56,231.89L376.42,228.54L377.45,228.91L379.46,225.35L380.61,219.31L381.35,215.1L382.33,215.55L383.31,215.16L384.54,211.24L386.35,203.63L387.41,203.16L389.37,199.5L390.24,199.74L391.19,201.57L392.22,200.35L398.71,177.47L399.53,173.6L401.41,168.82L402.31,165.3L404.08,158.84L405.04,157.11L405.82,155.25L406.76,155.73L410.71,149.41L411.45,150.61L412.24,149.19L412.88,144.66L414.84,138.35L415.54,138.44L416.74,134.92L417.39,133.61L419.06,125.83L419.64,124.74L420.58,120.63L421.02,120.76L421.51,120.5L425.37,104.4L425.58,104.53L425.77,105.65L425.95,92.68L425.78,91.4L424.41,82.67L424.22,82.57L423.91,83.02L423.66,82.54L423.39,84.37L421.89,89.65L421.46,87.77L420.55,85.95L420.06,83.84L419.11,81.11L418.68,81.5L418.15,82.13L417.62,81.08L417.21,82.06L414.9,89.83L414.17,89.04L412.25,86.91L411.6,89.98L410.18,92.26L409.47,91.43L408.01,89.68L407.38,91.45L406.61,92.29L405.81,90.74L405.15,90.9L404.41,93.24L403.6,93.6L402.92,94.83L402.12,97.24L401.27,96.74L399.62,94.45L398.81,91.18L397.27,88.76L396.58,89.67L395.02,95.69L394.19,95.91L392.59,95.17L391.91,98.53L390.97,101.05L390.14,99.84L388.54,93.79L387.71,94.94L386.88,94.66L386.2,97.62L384.61,104.1L383.57,104.32L382.04,99.06L381.31,102.99L380.27,102.6L379.56,100.26L377.98,105.52L377.13,106.22L376.34,106.45L375.55,107.64L372.12,113.73L371.1,113.28L370.38,111.55L369.57,112.94L368.7,112.26L368.02,113.74L367.12,117.32L366.21,117.04L365.39,116.41L364.35,113.01L363.7,109.49L362.93,110.12L360.71,112.67L359.95,114.58L359.18,115.39L358.35,114.67L357.69,115.17L356.88,118.01L356.15,120.64L355.23,120.9L353.69,118.88L353.03,119.51L350.72,123.17L350.01,121.44L348.5,124.04L347.85,123.55L346.46,123.87L345.65,126.49L343.5,124.21L342.88,125.73L342.21,129.47L341.33,129.96L340.7,128.54L340.09,131.18L339.31,134.54L338.46,133.14L337.14,127.76L336.59,127.13L335.31,129.62L334.66,128.24L333.4,128.73L332.85,126.94L331.73,128.91L331.11,129.59L329.4,134.77L328.76,138.08L328.08,139.08L327.55,142.33L326.8,145.72L326.08,142.96L324.3,138.74L323.66,137.18L323.19,136.98L322.63,140.56L321.46,144.28L320.82,142.58L320.36,142.53L319.77,143.81L317.13,144.07L316.65,146.28L316.01,145.03L315.58,141.1L315.15,140.92L314.67,139.82L314.29,139.42L313.85,141.54L312.97,142.04L312.55,143.74L311.12,147.33L310.65,145.67L309.79,148.49L309.35,147.45L308.96,148.96L308.44,148.21L308.13,146.35L307.27,151.02L306.83,149.84L305.72,146.63L305.38,149.3L304.54,152.44L304.14,150.9L303.8,150.77L303.44,153.11L302.62,155.77L302.22,154.07L301.91,153.96L301.53,155.56L300.79,156.29L300.41,154.08L300.08,151.41L299.83,152.26L299.47,155.97L298.78,155.41L298.47,157.7L297.41,158.92L297.09,158.8L296.44,159.56L296.12,157.31L295.85,156.61L295.58,159.11L295.24,160.84L294.91,159.04L294.66,159.77L294.33,160.9L294.04,158.91L293.26,154.51L293.08,155.68L292.79,158.03L292.56,156.2L292.09,157.03L291.86,156.89L291.43,154.7L291.24,158.86L290.22,162.86L290.01,162.72L289.76,164.42L289.28,163.56L289.05,162.92L287.95,165.87L287.72,164.77L287.52,162.02L287.15,161.79L287.01,159.87L285.92,167.08L285.74,167.54L285.11,174.61L284.86,172.57L284.68,169.92L284.18,165.22L283.75,166.39L283.61,166.74L282.83,172.42L282.67,171.37L282.53,171.57L282.38,173.85L282.07,171.18L281.91,173.28L281.75,171.1L281.52,168.32L281.19,171.05L281.06,172.52L280.78,175.43L280.44,171.06L280.32,171.21L280.23,170.55L279.92,172.95L279.82,172.86L279.71,174.79L279.39,175.08L279.22,172.56L279.02,173.73L278.93,174.73L278.46,180.54L278.18,174.75L278.09,177.24L277.94,172.62L277.54,179.52L277.44,181.33L277.13,175.26L276.74,177.31L276.68,179.01L276.45,182.93L276.24,179.82L276.19,178.61L275.66,186.66L275.22,184.1L275.16,184.54L275.02,182.52L274.88,185.41L274.82,187.03L274.7,183.25L274.43,190.48L274.17,187.55L274.12,189.64L273.54,192.97L273.48,186.85L273.48,184.26L273.06,197.53L272.99,198.98L272.52,195.34L272.44,199.13L272.25,198.85L272.2,199.42L272.16,199.6L272.1,197.06L272.08,194.11L271.33,207.83L271.25,202.19L271.23,199.46L271.22,199.23L270.9,208.38L270.85,205.55L270.8,207.32L270.09,220.86L269.78,220.71L269.67,219.27L269.43,223.67L269.23,219.64L269.16,217.97L268.92,215.3L268.74,223.17L268.63,227.52L268.51,227.86L268.27,227.16L268.17,226.56L267.85,225.09L267.65,227.06L267.54,227L267.44,228.22L267.11,230.54L266.92,228.26L266.82,226.1L265.88,235.91L265.78,235.83L265.57,233.11L265.33,238.5L265.21,236.29L265.06,237.62L264.13,247.29L263.95,245.83L263.78,246.75L263.49,245.04L263.33,244.64L262.88,246.59L262.74,249L262.42,249.83L262.27,248.83L262.14,246.56L261.48,255.03L261.12,254.06L260.98,253.19L260.82,250.59L260.22,252.69L260.07,252.9L259.05,267.19L258.81,265.46L258.59,265.37L258.38,265.73L258.17,265.42L257.91,267.45L256.69,274.47L256.44,274.15L255.94,272.9L255.69,273.96L255.42,276.41L254.62,279.75L254.4,278.42L254.1,277.33L252.94,284.65L252.61,288.36L252.33,289.55L252.05,284.81L251.7,283.54L251.13,284.15L250.84,286.25L250.53,287.82L250.27,286.75L249.91,286.72L246.88,301.16L246.47,302.18L245.66,305.36L245.31,305.1L244.9,304.67L242.75,313.66L242.3,311.82L240.76,319.12L240.31,322.87L239.28,324.92L238.78,322.12L238.22,322.34L237.69,324.24L236.61,326.34L236.11,325.51L235.54,325.42L235,328.12L233.22,333.73L232.56,333.43L231.35,336.01L230.77,334.21L230.14,332.45L229.56,333.2L227.68,338.29L227.03,340.11L225.72,339.68L225.04,342.47L223.6,343.11L222.88,343.09L219.92,345.34L219.16,344.86L218.43,345.67L217.7,343.98L216.92,346.74L216.17,352.84L214.5,357.15L213.64,356.94L212.74,357.52L211.84,355.88L210.99,354.53L210.12,354.91L209.24,355.11L208.31,356.96L205.5,365.34L204.44,365.28L201.35,371.09L200.25,371.74L196.9,364.71L195.83,366.79L194.72,367.94L193.63,365.84L192.54,364.06L191.42,364.53L190.26,365.42L189.13,364.69L186.78,363.41L185.61,363.73L184.34,363.33L183.12,364L181.86,365.98L180.52,365.36L179.22,362.92L177.94,362.61L175.3,361.74L173.88,360.2L171.19,361.22L169.76,361.25L168.31,361.1L166.88,360.06L165.4,359.02L163.92,356.01L162.45,356.02L160.98,357.71L159.4,357.68L157.77,354.64L154.64,349.2L153.22,348.78L150.19,347.42L148.48,345.64L146.97,342.53L145.32,341.79L140.21,331.41L138.73,330.85L137.12,332.63L135.25,331.32L133.78,330.89L132.07,332.25L130.35,331.26L128.47,326.55L126.9,322.07L125.02,320.39L119.77,310.72L117.97,310.22L114.31,304.53L112.53,302.81L110.56,297.89L108.66,290.63L103.26,271.08L101.58,269.79L99.88,269.01L98.11,267L96.49,264.61L94.73,263.38L90.98,253.13L89.29,248.3L83.98,234.2L82.15,225.35L80.58,217.6L79.19,214.66L74.29,208.79L72.76,205.72L70.94,201.14L69.43,195.06L66.48,183.66L65.02,181.3L62.14,173.4L60.62,166.63L56.87,142.45L55.91,140.08L54.61,137.34L53.6,132.47L52.59,128.91L51.4,121.92L48.97,104.56L48.28,99.76L45.84,84.41L45.4,79.69L44.22,56.52L44.18,54.66L45.02,46.65L45.46,45.93L46.88,37.12L47.55,35.58L48.93,35.36L49.67,36.42L50.43,35.7L51.38,35.93L52.24,35.6L53.33,33.38L55.49,32.04L56.66,30.39L57.95,30.57L59.11,34.62L60.3,37.31L61.57,37.94L62.96,38.03L64.28,41.23L68.41,47.6L69.96,46.04L71.55,45.37L72.97,49.31L74.59,54L76.36,53.78L77.99,53.53L79.6,55.25L81.27,56.42L82.99,56.3L86.65,58.86L88.35,61.46L90.06,65.33L91.84,67.4L93.73,66.8L95.64,67.7L99.27,73.18L101.16,75.07L103.19,75.68L105.1,77.88L108.92,78.16L110.88,80.02L114.66,90.16L116.34,91.75L118.08,96.92L120.18,98.98L124.02,99.01L125.65,100.96L127.56,105L129.38,106.98L131.18,108.56L132.88,111.18L134.78,114.55L136.64,115.93L145.19,130.56L146.9,130.64L148.45,131.66L150.24,131.76L151.83,131.2L153.41,133.5L158.28,143.24L159.84,144.04L161.31,143.92L162.64,148.12L165.6,155.15L167.13,155.8L168.64,154.44L169.91,156.05L171.45,157.59L172.75,157.41L175.48,166.69L176.83,168.33L179.37,167.63L180.63,170.42L185.34,184.62L186.36,184.87L188.53,184.98L189.59,187.65L191.58,187.61L192.61,189.84L194.56,194.17L195.46,193.93L196.37,194.3L197.32,193.73L198.13,194.43L199.08,196.5L199.86,196.76L200.69,198.1L201.57,198.74L202.41,197.09L203.15,198.32L203.89,202.6L205.36,207.65L205.99,205.54L208.5,214.88L209.19,214.21L209.66,213.17L210.23,215.54L210.78,216.17L211.35,215.36L212.43,216.89L212.94,215.44L215.1,228.72L215.47,227.46L216.19,228.95L216.46,231.4L217.1,237.23L217.37,236.25L217.68,234.46L217.92,232.63L218.17,234.16L218.46,234.9L219.42,240.51L219.62,239.71L219.75,238.77L220.31,249.62L220.48,245.18L220.57,241.8L220.64,239.81L220.81,256.19L220.73,259.27L220.43,260.15L220.21,256.53L220.05,257.71L219.96,259.29L219.81,258.14L219.67,259.56L219.51,262.04L218.77,255.69L218.58,259.18L218.43,261.71L217.18,272.92L216.91,272.64L216.59,270.12L216,269.22L215.69,272.66L215.37,274.39L215.06,272.78L214.72,271.27L213.64,277.59L213.27,275.94L212.9,274.15L212.54,274.87L212.17,275.75L210.96,278.67L210.57,281.99L209.67,281.69L209.21,282L208.75,282.52L208.27,281.18L206.34,284.87L205.81,284.4L205.3,282.87L203.79,277.69L203.28,278.9L201.63,285.59L201.07,285.72L199.92,281.57L199.33,282.78L198.74,281.73L198.17,283.11L196.96,287.28L196.33,286.09L195.05,290.69L194.38,290.49L191.61,287.01L190.9,287.21L190.19,285.88L189.49,287.14L188.04,288L187.3,289.76L186.51,287.69L185.79,288.82L185.03,290.67L184.2,289.62L183.45,289.71L182.62,287.98L181.85,285.77L181.09,288.36L180.17,289.96L179.33,287.69L176.84,283.88L176.03,282.11L174.42,282.8L173.59,282.07L171.93,279.82L171.09,281.46L170.25,281.4L169.35,280.2L168.49,279.85L167.59,280.97L164.84,274.16L163.99,274.47L162.14,277.02L161.14,275.27L159.33,269.88L158.36,271.74L155.43,275.34L154.44,273.26L152.38,264.65L151.35,264.92L146.27,256.56L145.3,253.77L143.36,250.88L142.38,252.63L141.31,252.47L140.29,249.45L137.3,245.07L136.19,243.98L134.27,240.74L133.3,238.31L130.3,230.69L129.22,227.98L127.29,224.29L126.48,225.36L125.37,225.46L124.36,220.5L121.73,211.88L120.67,211.84L119.09,205.99L118.19,207.05L117.3,205.66L116.32,202.73L112.34,184.55L111.65,184.45L110.22,186.6L109.33,185.26L107.16,175.13L106.57,172.83L105.91,172.58L105.12,168.92L102.7,157.25L102.29,153.42L101.85,153.48L101.21,150.09L100.56,143.56L100.18,147.1L99.65,145.87L99.32,142.29L98.54,136.44L98.41,132.61L98.18,133.44L97.9,132L97.76,130.94L97.05,120.7L97,117.59L97.71,107.02L97.98,105.06L98.7,103.27L99.01,99.7L99.43,97.46L99.82,97.76L100.2,97.96L101.05,98.34L101.46,97.44L103.07,92.48L103.63,92.92L104.79,92.91L105.4,93.68L106.76,90.79L107.49,91.08L109,87.99L109.78,88.23L111.4,86.49L112.2,90.39L113.81,92.75L114.64,93.42L115.54,91.84L116.43,88.62L117.31,89.19L118.23,91.5L119.13,93.2L120.09,96.63L121.94,98.74L122.97,98.7L124,94.74L125.05,94.81L127.11,97.93L128.13,97.42L129.21,96.94L130.28,97.87L133.32,106.25L134.42,104.98L135.48,103.13L136.55,105.8L140.87,111.03L141.95,109.32L142.97,111.36L144.17,110.49L145.24,107.22L146.33,108.24L147.48,107.85L148.57,109.4L151.88,115.86L153.04,116.88L154.19,115.84L155.36,116L156.54,116.07L157.7,113.94L158.84,112.89L159.97,114.91L163.26,123.5L164.35,122.73L165.39,123.99L166.47,127.52L168.49,129.81L169.59,125.45L170.62,122.32L171.83,121.88L172.85,121.09L173.92,124.14L175.02,125.32L176.01,127.74L177.07,129.48L178.12,128.6L180.14,135.7L181.15,135.09L184.03,138.91L184.89,140.89L185.81,143.13L186.78,142.61L187.67,141.86L188.55,144.66L189.51,145.91L190.44,141.97L191.29,141.09L192.17,143.78L194.78,148.42L195.63,149.06L198.05,150.66L198.85,150.36L200.41,147.87L201.21,150.67L202,151.46L202.76,150.72L204.26,149.47L205.02,151.76L205.78,153.25L206.55,151.73L208.6,156.19L209.3,155.79L210.68,153.21L211.25,154.27L211.96,158.69L212.61,157.86L213.92,160.6L214.53,160.56L216.36,163.82L216.98,162.47L217.51,161.91L218.12,163.53L218.73,162.07L219.3,162.51L219.89,163.39L220.43,164.05L220.94,166.51L222.54,169.59L223.05,169.01L224.05,168.31L224.55,168.59L225.02,169.95L225.49,174.36L225.97,175.2L226.38,173.67L226.83,174.47L227.29,172.4L227.74,169.91L228.17,170.39L228.59,172.82L229.02,173.2L229.43,171.57L229.85,172.02L230.21,175.57L230.62,176.21L230.97,174.44L232.04,178.37L232.41,177.72L233.08,175.71L233.41,177.33L233.78,177.07L234.09,175.24L234.79,175.74L235.12,178.21L235.96,182.03L236.27,181.42L237.43,176.03L237.7,177.02L239.27,184.96L239.51,183.71L239.76,180.74L240.24,183.03L240.7,182.7L240.91,182.56L241.34,185.49L241.57,184.17L241.77,181.33L242.64,191.96L242.79,189.97L242.95,187.7L243.32,185.18L243.81,186.61L243.97,185.48L245.6,196.05L245.69,195.52L245.78,193.87L246.03,186.37L246.53,192.37L246.63,192.67L246.89,195.45L246.98,193.43L247.06,191.29L247.57,197.46L247.63,199.32L247.8,195.19L248.24,204.41L248.31,201.04L248.32,203.1L248.4,195.73L247.65,217.41L247.58,214.67L247.51,212.89L247.35,212.3L246.85,217.16L246.6,215.2L246.52,214.78L245.97,223.02L245.44,222.1L245.32,223.59L245.22,224L245.12,221.36L244.99,223.78L244.89,227.15L244.66,222.46L244.28,227.92L244.16,227.36L244.04,224.42L243.59,222.87L243.46,227.18L243.33,229.59L243.04,229.47L242.89,228.57L242.77,228.81L242.64,227.45L242.5,227.28L241.78,231.9L241.62,231.13L241.47,231.82L238.98,242.14L238.79,240.42L238.57,240.43L238.37,241.25L238.15,240.09L237.94,242.84L237.74,242.11L237.3,242.88L237.09,241.85L234.67,250.44L234.41,248.83L234.16,248.12L233.89,248.96L233.62,249.39L232.1,245.71L231.84,247.9L231.3,253.36L231,252.98L230.72,252.45L229.85,250.69L229.54,253.6L229.24,256.51L228.93,256.11L228.6,254.13L228.29,252.64L227.96,254.99L227.31,254.31L226.66,260.35L226.3,260.37L225.62,258.37L225.25,260.29L224.12,267.46L223.7,271.89L223.24,273.54L222.79,272.07L221.17,260.21L220.79,261.04L220,264.41L219.6,263.77L219.18,264.41L217.85,275.89L217.36,274.51L216.88,276.64L216.35,280.54L215.82,279.79L215.28,276.62L214.28,270.96L213.8,271.55L213.3,271.19L212.79,272.08L212.3,273.84L211.79,271.7L210.81,268.85L210.3,269.27L209.79,271.02L209.28,269.99L208.79,270.07L208.26,272.07L207.2,274.75L206.62,277.17L204.82,278.66L204.19,276.51L202.99,279.68L202.38,278L201.15,282.45L200.49,282.2L199.21,276.35L198.56,276.76L197.91,275.77L197.3,277.7L195.93,280.71L195.21,280.95L193.87,279.22L193.17,276.41L191.8,279.29L191.1,276.37L189.04,275.62L188.39,278.02L186.17,280.92L185.43,280.76L183.8,282.8L182.97,281.45L181.36,280.13L180.53,278.72L178.9,275.6L178.07,272.52L177.33,272.93L176.5,274.69L175.68,274.26L174.82,272.67L174,271L173.21,272.05L172.42,273.54L171.55,272.71L169.06,266.97L168.18,267.35L167.41,269.08L166.57,274.32L165.62,274.08L164.72,271.08L162.04,266.9L161.11,266.48L160.21,265L159.2,261.38L157.47,255.67L156.63,256.27L153.9,255.95L153,253.87L150.24,247.67L149.41,247.56L148.35,246L147.46,241.15L146.65,240.87L145.81,242L144.88,241.59L143.88,237.77L143.18,237.44L142.2,239.01L141.39,238.12L140.53,239.44L139.66,239.05L138.64,236.16L135.95,223.28L135.08,222.32L132.53,216.14L131.72,210.33L130.98,207.03L130.31,208.24L129.53,211.07L128.71,211.06L127.05,208.28L126.23,205.29L122.49,193.47L121.78,188.76L121.19,187.45L120.53,188.26L119.25,180.42L118.6,181.94L117.96,181.7L117.33,179.93L116.12,177.01L115.44,172.04L114.1,161.34L113.57,163.88L110.08,147.54L109.72,147.74L109.15,146.89L108.81,143.11L107.73,115.18L107.93,113.12L108.06,114.66L108.34,111.59L108.56,110.36L108.96,114.9L109.42,113.93L109.7,112.97L110.7,102.77L111.12,102.86L111.5,104.62L115.01,98.22L115.58,101.78L116.13,102.51L116.77,99.23L117.43,96.37L118.11,97.37L118.74,99.31L119.42,99L120.11,99.87L120.81,100.08L121.5,101.93L122.22,103.69L122.97,103.42L125.21,99.7L126.06,98.24L127.73,97.34L128.57,99.04L130.25,102.59L131.17,99.09L132.05,98.56L132.96,100.75L134.9,97.4L135.82,100.14L136.75,100.05L137.72,99L138.72,99.95L139.64,102.88L141.61,102.18L142.56,104.73L144.5,110.01L145.55,107.58L146.56,104.87L147.58,105.23L149.58,107.13L150.55,108.47L152.49,109.75L153.47,113.32L155.48,116.05L156.52,116.11L157.44,116.56L158.47,119.65L159.42,118.38L160.37,119.24L161.41,120.38L162.38,119.37L163.42,119.02L164.41,119.66L166.43,121.02L167.38,120.95L168.42,122.39L169.46,120.42L170.43,119.18L171.38,123.05L172.39,126.39L173.38,124.82L174.42,123.2L175.38,123.9L177.38,126.76L178.31,128.04L180.14,132.38L181.06,130.95L183.78,133.72L184.77,133.15L189.16,137.37L190.09,135.03L190.94,131.36L191.85,132.45L193.6,132.9L194.45,137.48L195.33,139.78L196.17,137.45L197.9,139.96L198.7,139.21L200.33,141.82L201.11,143.01L202.6,147.92L203.36,146.06L204.06,144.9L204.81,146.78L206.32,148.85L207.05,146.02L207.74,146.51L208.44,150.5L211.11,153.14L211.78,153.35L213.06,152.71L213.74,152.54L214.36,152.48L215.03,153.96L216.26,156.07L216.87,155.24L218.13,152.26L218.72,154.05L219.35,156.83L219.93,155.65L220.44,157.28L220.96,164.03L221.53,165.77L222.03,164.18L223.03,164.2L223.53,163.37L225.61,158.7L226.12,158.11L228.1,162.17L228.57,161.31L229.04,162.26L229.47,166.91L229.92,170.19L230.36,167.46L232.49,163.37L232.85,163.76L234.03,170.35L234.43,168.8L235.63,163.2L236.03,163.64L236.44,165.42L236.82,163.61L237.19,162.29L237.59,164.01L238.31,166.15L238.66,169.15L239.96,172.06L240.26,171.07L240.59,171.28L240.89,169.65L241.2,169.34L241.53,166.97L241.82,166.89L242.14,169.78L242.44,168.58L242.73,170.23L243.01,171.62L243.54,175.27L243.8,174.35L244.06,173.57L244.32,173.26L244.57,173.71L244.81,175.61L245.88,178.86L246.09,176.72L246.31,175.75L246.52,178.23L246.71,181.77L247.25,180.05L247.43,179.02L247.84,176.25L248.04,174.07L248.25,175.15L248.49,173.23L248.7,170.9L250.03,180L250.2,179.38L250.57,173.42L250.96,175.62L251.13,177.08L251.99,174.58L252.17,174.64L252.35,175.26L252.51,175.07L252.67,176.52L252.95,180.57L253.24,176.82L253.4,176.21L253.54,175.66L253.68,178.91L253.82,181.96L254.18,178.01L254.45,179.97L254.58,179.71L254.98,184.95L255.18,181.54L255.3,179.3L255.41,178.73L255.65,180.05L255.76,181.48L256.46,192.24L256.61,186.3L256.69,182.68L256.87,184.1L257.04,183.39L257.1,188.48L257.27,186.43L257.57,192.81L257.9,191.02L257.94,191.02L258.27,186.74L258.57,192.04L258.65,190.1L258.69,191.08L258.15,208.1L258.11,205.68L258.07,205.83L257.84,200.21L256.72,218.78L256.64,217.41L256.45,213.58L255.96,218.27L255.89,219.02L255.65,217.56L254.59,228.1L254.5,226.99L254.39,224.23L254.13,221.44L253.89,222.68L253.79,225.2L253.53,233.5L253,232.42L252.83,233.07L252.02,239.17L251.86,237.06L251.45,232.22L251.16,236.55L251.01,236.34L249.84,245.11L249.66,243.74L249.47,242.89L248.93,242.65L248.57,245.33L248.37,244.16L247.97,244.65L247.78,248L247.1,253.12L246.89,250.55L246.65,249.4L245.89,258.38L245.64,257.38L245.39,256.25L245.13,256.45L244.92,255.47L244.67,254.41L244.43,256.06L244.19,257.28L243.65,259.51L243.38,257.13L242.63,259.7L242.38,258.51L241.6,260.13L241.32,262.73L240.41,265.97L240.09,269.58L239.4,270.76L239.1,271.4L238.12,268.31L237.78,268.55L237.45,271.48L236.75,274.96L236.39,272.63L234.56,279.27L234.18,278.35L233.8,276.49L233.41,276.77L233.03,277.24L232.64,280.21L232.26,280.13L231.85,278.54L231.04,280.45L230.61,283.09L229.33,288.21L228.88,287.78L228.44,285.28L227.96,286.37L227.49,289.93L226.05,294.03L225.54,292.05L224.53,289.42L224.04,292.85L223.56,296.94L223.01,296.59L222.47,296L221.94,296.1L221.41,294.78L219.78,294.22L219.24,295.63L218.13,295.72L217.56,297.77L216.35,304.44L215.69,303.55L213.27,297.5L212.68,299.72L211.37,309.28L210.66,310.09L210,311.73L209.27,310.72L208.54,311.11L207.8,310.47L207.06,309.44L206.32,309.7L205.57,308.27L204.83,309.64L204.05,310.34L203.29,307.22L202.53,307.83L201.79,310.28L200.99,312.79L200.21,311.58L199.4,309.07L198.6,311.48L197.79,313.32L196.94,312.08L196.06,311.86L195.18,309.91L193.44,306.82L192.64,307.19L190.96,310.62L190.08,310.57L188.22,313.01L187.31,311.83L185.46,310.39L184.52,309.12L183.62,307.48L182.67,309.71L181.69,311.07L180.69,310.8L179.67,310.55L178.66,311.61L177.63,311.37L176.6,309.42L174.58,305.6L173.6,306.94L172.51,307.38L171.38,302.98L170.4,300.5L169.39,301.75L168.27,301.58L167.25,300.65L166.15,301.18L164.99,299.96L161.66,294.99L160.54,295.4L155.99,295.44L154.86,296.22L153.63,295.18L152.48,293.03L148.79,290.93L147.53,289.08L146.35,287.65L145.16,287.99L143.98,289.89L142.71,288.84L140.13,282.54L138.72,280.84L136.1,274.12L134.81,273.89L133.53,272.67L132.27,272.74L129.68,270.75L128.09,266.2L126.89,260.86L125.61,261.6L124.23,258.62L122.98,253.9L120.43,246.69L119.3,246.2L118.06,247.93L116.58,245.06L111.61,224.76L110.58,221.41L109.36,220.86L108.18,218.45L105.9,213.82L104.81,213.23L103.59,211.09L102.46,207.43L95.9,186.73L94.99,182.34L90.37,166.4L89.69,162.15L88.85,161.69L88.02,160.22L86.56,153.06L85.77,153L83.66,147.54L83.1,146.58L82.33,144.74L81.73,140.05L80.33,127.88L79.78,129.43L78.52,121.74L78.14,115.48L77.35,85.52L77.68,84.72L77.8,86.32L78.04,84.36L78.32,82.08L79.46,80.04L79.81,82.52L80.21,83.44L80.64,82.67L81.15,81.83L82.17,83.18L82.73,81.34L83.96,79.62L84.69,75.75L87.12,70.37L88.01,69.24L88.95,69.54L89.81,72.96L91.53,78.71L92.48,75.91L93.55,72.45L94.6,74.12L96.77,74.01L97.9,73.24L99,72.23L100.14,74.14L102.48,79.07L103.73,77.26L104.94,76.4L106.16,76.68L109.83,81.63L111.06,84.75L113.52,88.01L114.81,85.9L116.13,86.2L117.41,89.06L118.74,89.13L120.06,87.83L123.99,92.4L125.41,94.91L126.75,92.99L128.06,93.22L130.75,99.4L132.13,100.52L137.49,107.16L138.78,109.39L140.06,112.57L141.47,111.96L142.76,111.8L144.08,114.74L146.74,119.7L148.02,120.17L150.68,116.61L152.02,118.06L153.37,119.18L154.71,119.22L156.13,118.16L157.35,118.68L158.75,121.33L160.12,120.74L161.35,121.44L162.7,124.25L165.26,130.05L166.49,129.94L169.01,132.1L170.24,134.57L172.54,136.72L173.6,141.38L174.79,145.14L175.96,146.33L177.16,144.27L178.34,138.67L179.34,138.85L180.45,142.85L184.77,149.57L185.81,153.32L186.93,153.8L187.86,155.33L189.77,159.97L190.79,160.78L191.65,159.23L192.51,163.15L193.42,166.95L194.31,166.8L195.22,164.3L196.01,165.06L196.9,166.53L197.74,165.95L200.4,165.7L201.25,164.83L202.83,167.92L203.67,167.64L205.23,168.22L206.02,166.39L206.75,165.88L207.52,167.37L208.27,167.57L208.97,169.66L210.39,175.16L211.09,173.53L211.73,173.44L212.45,174.49L213.75,174.18L214.42,174.16L215.66,176.95L216.22,177.96L216.81,181.1L217.47,179.77L217.97,177.72L218.55,178.95L219.67,181.55L220.14,181.32L221.19,184.66L221.69,184.6L223.01,190.78L223.43,194.72L225.12,186.13L225.48,187.12L225.92,191.75L226.34,190.95L226.69,191.6L227.04,195.45L227.39,196.73L227.76,194.81L228.08,192.58L228.4,193.85L228.79,194.1L229.79,191.04L230.12,191.87L230.4,194.13L230.69,197.65L231.26,195.58L231.59,194.55L231.86,191.36L232.14,194.23L232.45,196.4L232.68,196.8L232.93,198.95L233.71,207.39L233.93,202.72L234.11,198.37L234.54,196.2L234.77,198.61L234.97,198.76L235.53,201.19L235.69,205.8L235.97,205.04L236.1,208.55L236.25,208.42L236.4,203.67L236.52,202.47L236.66,205.25L236.77,208.15L237.01,206.98L237.12,208.91L237.46,211.34L237.53,212.42L237.83,209.47L238,215.33L238.07,214.21L238.11,215.94L237.89,226.19L237.39,224.53L237.32,224.79L236.4,233.25L236.27,232.58L236.17,229.55L236.04,229.28L235.94,231.37L235.81,231.52L235.68,232.99L235.44,229.62L235.18,233.27L235.03,234L234.36,238.83L234.18,236.98L233.99,237.02L233.24,244.84L233.03,241.78L232.82,241.02L232.22,243.08L231.99,244.77L231.01,249.93L230.75,249.31L230.51,249.42L229.1,243.21L228.88,244.24L228.63,244.67L228.1,251.77L227.54,250.89L227.23,252.69L226.93,255.78L226.62,253.93L226.31,253.33L225.69,252.31L225.37,254.15L225.06,255.5L224.76,253.43L224.46,250.9L224.15,252.04L223.83,254.79L223.18,257.46L222.83,256.89L222.5,257.78L221.79,257.6L221.44,256.4L221.09,255.5L220.77,258.55L219.64,261.71L219.25,264.97L218.83,265.04L218.38,267.07L217.96,269.55L217.51,269.04L217.06,266.89L216.6,266.74L216.15,267.83L214.84,263.2L214.41,264.16L213.52,268.49L213.06,264.29L212.61,263.35L212.13,265.71L211.67,267.13L211.2,266.16L210.73,264.29L209.79,264.51L209.33,263.55L208.35,268.47L207.86,267.18L207.37,267.8L206.88,270.01L205.88,268.03L205.35,270.3L204.82,270.62L204.27,269.57L203.74,270.9L203.17,270.08L202.64,267.35L202.12,268.22L201.56,269.24L199.86,269.27L199.29,270.66L198.7,272.36L198.1,271.67L196.86,276.72L196.19,274.95L195.51,274.92L194.87,276.79L193.55,273.2L192.94,275.52L192.23,275.86L191.54,272.69L190.24,270.45L189.56,272.48L188.88,271.66L188.16,269.21L187.53,270.58L186.86,273.91L186.17,273.66L185.43,272.55L184.04,269.08L183.32,269.59L182.61,268.95L181.89,270.24L181.16,268.79L180.49,271.09L179.73,273.92L178.98,271.89L177.41,270.97L176.65,271.06L175.07,266.31L174.31,266.54L172.78,266.51L172.01,265.52L170.43,265.29L169.64,264.51L168.87,263.92L168.02,261.92L165.69,255.88L164.87,256.46L163.23,259.95L162.38,257.41L161.53,256.21L160.76,257.41L159.85,256.84L158.99,252.57L157.31,247.32L156.49,248.78L155.65,249.74L154.73,247.12L153.14,239.95L152.31,241.92L150.71,236.29L149.87,236.58L149.16,236.98L148.39,240.49L147.48,240.83L146.63,238.8L144.94,234.08L144.07,232.9L140.14,221.7L139.35,223.78L138.56,223.67L137.66,219.64L136.18,214.06L135.44,212.8L133.2,209.22L132.49,206.43L128.36,189.56L127.86,190.31L127.22,192.06L126.63,191.57L126.04,193.35L125.28,192.02L124.62,187.41L123.38,181.75L122.87,181.9L122.21,180.91L119.59,173.13L119.05,170.68L118.67,169.59L118.16,170.24L117.56,164.08L116.94,152.74L116.66,154.83L116.21,155.1L115.96,154.3L115.63,156.14L115.28,156.35L114.9,153.39L113.53,142.64L113.29,140.85L112.71,124.44L112.89,122.32L114.16,111.76L114.36,110.75L114.75,106.11L115.13,107.9L115.45,109.02L115.81,108.56L116.2,109.72L116.58,111.75L116.94,110.98L117.4,110.68L118.21,114.07L118.63,112.4L120.22,105.58L120.81,104.39L121.4,102.26L122.02,102.96L123.21,106.27L123.8,106.04L125.09,104.68L125.71,105.26L126.4,105.16L127.09,103.15L128.65,101.05L129.39,102.75L130.17,104.76L130.97,103.04L131.8,101.86L132.61,102.96L134.15,108.33L134.94,108.9L135.75,109.09L136.65,107.41L138.34,104.28L139.18,104.69L141.8,108.25L142.72,107.62L143.68,106.81L144.59,107.74L146.3,113.86L147.18,113.53L148.07,113.68L148.98,115.57L151.83,108.74L152.8,110.17L154.61,119.06L155.52,118.41L156.42,115.86L157.3,116.77L158.23,121L159.16,121.51L161,120.82L162.03,118.57L162.96,118.21L163.88,121.92L168.51,126.45L169.47,124.26L170.38,123.13L171.31,123.87L173.2,124.85L174.09,124.37L175.02,124.57L175.83,125.81L176.74,130.53L177.64,130.66L179.5,126.77L180.4,124.68L182.26,124.29L183.15,125.95L186.65,137.11L187.48,136.89L189.12,133.29L189.95,133.41L190.8,133.55L191.61,134.94L193.26,138.86L194.08,137.91L194.85,137.89L195.65,138.96L197.14,141.28L197.86,140.29L198.68,139.36L199.47,136.73L200.28,134.83L201.06,136.1L201.89,139.64" style="vector-effect: non-scaling-stroke; fill: none; stroke: rgb(239, 85, 59); stroke-opacity: 1; stroke-width: 2px; opacity: 1;"/></g><g class="points"/><g class="text"/></g></g></g><g class="overplot"/><path class="xlines-above crisp" d="M79,520.5H693M79,99.5H693" style="fill: none; stroke-width: 1px; stroke: rgb(0, 0, 0); stroke-opacity: 1;"/><path class="ylines-above crisp" d="M79.5,100V520M692.5,100V520" style="fill: none; stroke-width: 1px; stroke: rgb(0, 0, 0); stroke-opacity: 1;"/><g class="overlines-above"/><g class="xaxislayer-above"><g class="xtick"><text text-anchor="middle" x="0" y="535.4" transform="translate(141.2,0)" style="font-family: 'Open Sans', verdana, arial, sans-serif; font-size: 12px; fill: rgb(42, 63, 95); fill-opacity: 1; white-space: pre; opacity: 1;">−2</text></g><g class="xtick"><text text-anchor="middle" x="0" y="535.4" style="font-family: 'Open Sans', verdana, arial, sans-serif; font-size: 12px; fill: rgb(42, 63, 95); fill-opacity: 1; white-space: pre; opacity: 1;" transform="translate(263.6,0)">−1</text></g><g class="xtick"><text text-anchor="middle" x="0" y="535.4" style="font-family: 'Open Sans', verdana, arial, sans-serif; font-size: 12px; fill: rgb(42, 63, 95); fill-opacity: 1; white-space: pre; opacity: 1;" transform="translate(386,0)">0</text></g><g class="xtick"><text text-anchor="middle" x="0" y="535.4" style="font-family: 'Open Sans', verdana, arial, sans-serif; font-size: 12px; fill: rgb(42, 63, 95); fill-opacity: 1; white-space: pre; opacity: 1;" transform="translate(508.4,0)">1</text></g><g class="xtick"><text text-anchor="middle" x="0" y="535.4" style="font-family: 'Open Sans', verdana, arial, sans-serif; font-size: 12px; fill: rgb(42, 63, 95); fill-opacity: 1; white-space: pre; opacity: 1;" transform="translate(630.8,0)">2</text></g></g><g class="yaxislayer-above"><g class="ytick"><text text-anchor="end" x="76.6" y="4.199999999999999" transform="translate(0,520)" style="font-family: 'Open Sans', verdana, arial, sans-serif; font-size: 12px; fill: rgb(42, 63, 95); fill-opacity: 1; white-space: pre; opacity: 1;">−15</text></g><g class="ytick"><text text-anchor="end" x="76.6" y="4.199999999999999" style="font-family: 'Open Sans', verdana, arial, sans-serif; font-size: 12px; fill: rgb(42, 63, 95); fill-opacity: 1; white-space: pre; opacity: 1;" transform="translate(0,436)">−10</text></g><g class="ytick"><text text-anchor="end" x="76.6" y="4.199999999999999" style="font-family: 'Open Sans', verdana, arial, sans-serif; font-size: 12px; fill: rgb(42, 63, 95); fill-opacity: 1; white-space: pre; opacity: 1;" transform="translate(0,352)">−5</text></g><g class="ytick"><text text-anchor="end" x="76.6" y="4.199999999999999" style="font-family: 'Open Sans', verdana, arial, sans-serif; font-size: 12px; fill: rgb(42, 63, 95); fill-opacity: 1; white-space: pre; opacity: 1;" transform="translate(0,268)">0</text></g><g class="ytick"><text text-anchor="end" x="76.6" y="4.199999999999999" style="font-family: 'Open Sans', verdana, arial, sans-serif; font-size: 12px; fill: rgb(42, 63, 95); fill-opacity: 1; white-space: pre; opacity: 1;" transform="translate(0,184)">5</text></g><g class="ytick"><text text-anchor="end" x="76.6" y="4.199999999999999" style="font-family: 'Open Sans', verdana, arial, sans-serif; font-size: 12px; fill: rgb(42, 63, 95); fill-opacity: 1; white-space: pre; opacity: 1;" transform="translate(0,100)">10</text></g></g><g class="overaxes-above"/></g></g><g class="polarlayer"/><g class="smithlayer"/><g class="ternarylayer"/><g class="geolayer"/><g class="funnelarealayer"/><g class="pielayer"/><g class="iciclelayer"/><g class="treemaplayer"/><g class="sunburstlayer"/><g class="glimages"/><defs id="topdefs-e2fcf7"><g class="clips"/><clipPath id="legende2fcf7"><rect width="84" height="48" x="0" y="0"/></clipPath></defs><g class="layer-above"><g class="imagelayer"/><g class="shapelayer"/></g><g class="infolayer"><g class="legend" pointer-events="all" transform="translate(704.24,100)"><rect class="bg" shape-rendering="crispEdges" width="84" height="48" x="0" y="0" style="stroke: rgb(68, 68, 68); stroke-opacity: 1; fill: rgb(255, 255, 255); fill-opacity: 1; stroke-width: 0px;"/><g class="scrollbox" transform="" clip-path="url(#legende2fcf7)"><g class="groups"><g class="traces" transform="translate(0,14.5)" style="opacity: 1;"><text class="legendtext" text-anchor="start" x="40" y="4.680000000000001" style="font-family: 'Open Sans', verdana, arial, sans-serif; font-size: 12px; fill: rgb(42, 63, 95); fill-opacity: 1; white-space: pre;">trace 0</text><g class="layers" style="opacity: 1;"><g class="legendfill"/><g class="legendlines"><path class="js-line" d="M5,0h30" style="fill: none; stroke: rgb(99, 110, 250); stroke-opacity: 1; stroke-width: 2px;"/></g><g class="legendsymbols"><g class="legendpoints"/></g></g><rect class="legendtoggle" x="0" y="-9.5" width="78.375" height="19" style="fill: rgb(0, 0, 0); fill-opacity: 0;"/></g><g class="traces" transform="translate(0,33.5)" style="opacity: 1;"><text class="legendtext" text-anchor="start" x="40" y="4.680000000000001" style="font-family: 'Open Sans', verdana, arial, sans-serif; font-size: 12px; fill: rgb(42, 63, 95); fill-opacity: 1; white-space: pre;">trace 1</text><g class="layers" style="opacity: 1;"><g class="legendfill"/><g class="legendlines"><path class="js-line" d="M5,0h30" style="fill: none; stroke: rgb(239, 85, 59); stroke-opacity: 1; stroke-width: 2px;"/></g><g class="legendsymbols"><g class="legendpoints"/></g></g><rect class="legendtoggle" x="0" y="-9.5" width="78.375" height="19" style="fill: rgb(0, 0, 0); fill-opacity: 0;"/></g></g></g><rect class="scrollbar" rx="20" ry="3" width="0" height="0" x="0" y="0" style="fill: rgb(128, 139, 164); fill-opacity: 1;"/></g><g class="g-gtitle"/><g class="g-xtitle"/><g class="g-ytitle"/></g></svg>