<svg class="main-svg" xmlns="http://www.w3.org/2000/svg" xmlns:xlink="http://www.w3.org/1999/xlink" width="800" height="600" style="" viewBox="0 0 800 600"><rect x="0" y="0" width="800" height="600" style="fill: rgb(255, 255, 255); fill-opacity: 1;"/><defs id="defs-ef2f86"><g class="clips"><clipPath id="clipef2f86xyplot" class="plotclip"><rect width="612" height="420"/></clipPath><clipPath class="axesclip" id="clipef2f86x"><rect x="80" y="0" width="612" height="600"/></clipPath><clipPath class="axesclip" id="clipef2f86y"><rect x="0" y="100" width="800" height="420"/></clipPath><clipPath class="axesclip" id="clipef2f86xy"><rect x="80" y="100" width="612" height="420"/></clipPath></g><g class="gradients"/><g class="patterns"/></defs><g class="bglayer"/><g class="layer-below"><g class="imagelayer"/><g class="shapelayer"/></g><g class="cartesianlayer"><g class="subplot xy"><g class="layer-subplot"><g class="shapelayer"/><g class="imagelayer"/></g><g class="gridlayer"><g class="x"><path class="xgrid crisp" transform="translate(167.43,0)" d="M0,100v420" style="stroke: rgb(235, 240, 248); stroke-opacity: 1; stroke-width: 1px;"/><path class="xgrid crisp" transform="translate(276.71000000000004,0)" d="M0,100v420" style="stroke: rgb(235, 240, 248); stroke-opacity: 1; stroke-width: 1px;"/><path class="xgrid crisp" transform="translate(495.29,0)" d="M0,100v420" style="stroke: rgb(235, 240, 248); stroke-opacity: 1; stroke-width: 1px;"/><path class="xgrid crisp" transform="translate(604.57,0)" d="M0,100v420" style="stroke: rgb(235, 240, 248); stroke-opacity: 1; stroke-width: 1px;"/></g><g class="y"><path class="ygrid crisp" transform="translate(0,436)" d="M80,0h612" style="stroke: rgb(235, 240, 248); stroke-opacity: 1; stroke-width: 1px;"/><path class="ygrid crisp" transform="translate(0,352)" d="M80,0h612" style="stroke: rgb(235, 240, 248); stroke-opacity: 1; stroke-width: 1px;"/><path class="ygrid crisp" transform="translate(0,184)" d="M80,0h612" style="stroke: rgb(235, 240, 248); stroke-opacity: 1; stroke-width: 1px;"/></g></g><g class="zerolinelayer"><path class="xzl zl crisp" transform="translate(386,0)" d="M0,100v420" style="stroke: rgb(235, 240, 248); stroke-opacity: 1; stroke-width: 2px;"/><path class="yzl zl crisp" transform="translate(0,268)" d="M80,0h612" style="stroke: rgb(235, 240, 248); stroke-opacity: 1; stroke-width: 2px;"/></g><path class="xlines-below"/><path class="ylines-below"/><g class="overlines-below"/><g class="xaxislayer-below"/><g class="yaxislayer-below"/><g class="overaxes-below"/><g class="plot" transform="translate(80,100)" clip-path="url(#clipef2f86xyplot)"><g class="scatterlayer mlayer"><g class="trace scatter traceaf8d80" style="stroke-miterlimit: 2; opacity: 1;"><g class="fills"/><g class="errorbars"/><g class="lines"><path class="js-line" d="M371.57,168L352.47,178.97L351.6,179.45L322.68,196.04L322.13,196.41L312.21,203.74L311.76,204.11L302.57,212.98L302.21,213.38L293.71,224.15L293.39,224.61L282.92,240.79L282.58,241.34L267.71,264.42L267.25,265.08L255.81,279.95L255.23,280.64L244.16,292.24L243.44,292.91L233.3,301.28L232.46,301.89L222.58,308.14L221.62,308.65L211.53,313.18L210.47,313.56L200.5,316.23L199.35,316.44L189.88,317.28L188.67,317.28L180.05,316.48L178.8,316.25L170.07,313.68L168.82,313.17L161.46,309.28L160.26,308.49L153.29,302.82L152.17,301.71L145.92,294.06L144.96,292.61L140.59,284.58L139.82,282.82L136.55,273.21L136.02,271.13L134.15,259.94L133.94,257.55L133.81,244.84L133.98,242.15L135.91,228.07L136.52,225.13L140.82,209.92L141.94,206.78L147.28,194L148.84,190.76L156,177.68L158.02,174.4L167.03,161.28L169.51,158.02L180.3,145.17L183.22,142.02L195.68,129.74L198.98,126.77L212.9,115.36L216.54,112.65L231.64,102.41L235.53,100.01L251.44,91.17L255.49,89.16L271.83,81.91L275.94,80.31L292.29,74.78L296.34,73.61L316.18,69.11L320.03,68.47L338.56,66.55L342.09,66.41L358.73,66.87L361.84,67.17L376.16,69.71L378.77,70.4L388.35,73.69L390.52,74.64L400.04,79.99L401.68,81.18L408.57,87.51L409.69,88.85L414.1,95.8L414.75,97.23L416.91,104.49L417.14,105.95L417.35,113.25L417.22,114.7L415.36,123.25L414.89,124.65L411.25,132.77L410.53,134.08L404.66,142.86L403.73,144.05L395.67,153.07L394.61,154.13L383.55,163.94L382.42,164.85L367.82,175.51L366.71,176.25L344.05,190.39L343.11,190.95L310.38,211.26L309.74,211.7L296.47,221.66L295.94,222.1L281.55,234.72L281.07,235.16L260.07,253.84L259.55,254.26L248.54,261.91L247.95,262.26L238.87,266.76L238.24,267.01L229.82,269.49L229.16,269.61L221.75,270.22L221.07,270.2L214.3,269.2L213.63,269.02L207.73,266.56L207.1,266.19L202.24,262.55L201.67,262L197.45,256.81L196.98,256.06L193.71,249.2L193.38,248.24L191.6,240.82L191.43,239.67L190.98,229.6L191.05,228.24L192.35,218.14L192.66,216.62L195.81,205.5L196.4,203.86L201.58,191.99L202.47,190.26L209.78,178.01L210.97,176.25L220.38,164.03L221.87,162.31L233.21,150.6L234.95,148.98L247.89,138.23L249.83,136.78L263.9,127.4L265.97,126.18L280.62,118.5L282.72,117.54L297.33,111.76L299.38,111.07L313.35,107.26L315.27,106.86L328.07,104.94L329.79,104.8L341,104.6L342.47,104.69L353.01,106.22L354.17,106.51L362.15,109.48L362.99,109.92L367.89,113.34L368.46,113.86L371.86,118.34L372.15,118.92L373.52,123.66L373.58,124.26L373.27,129L373.14,129.58L371.26,134.68L370.97,135.23L367.14,140.9L366.74,141.39L360.01,147.98L359.54,148.37L350.78,154.56L350.29,154.86L338.52,161.14L338.11,161.34L321,168.46L320.76,168.55L309.46,174L309.36,174.07L305.68,177.74L305.61,177.83L302.76,183.39L302.71,183.52L298.5,197L298.43,197.25L286.25,236.77L286.05,237.33L277.81,258.26L277.5,258.97L269.52,275.76L269.1,276.57L259.8,292.81L259.23,293.7L249.73,307.4L249.02,308.33L238.79,320.47L237.92,321.4L226.44,332.35L225.4,333.24L212.87,342.49L211.64,343.27L199.78,349.74L198.38,350.38L186.55,354.79L184.99,355.24L173.65,357.61L171.97,357.83L161.57,358.39L159.79,358.35L148.89,357.18L147.05,356.82L137.74,354.24L135.87,353.55L126.55,349.22L124.7,348.17L115.63,341.84L113.86,340.36L105.38,331.8L103.77,329.86L97.71,321.23L96.31,318.86L91.21,308.53L90.09,305.73L86.28,293.65L85.52,290.4L83.35,276.58L83.04,272.91L82.88,257.43L83.13,253.36L85.34,236.39L86.23,231.98L89.71,218.4L91.16,213.78L96.41,199.63L98.47,194.85L105.59,180.34L108.28,175.48L117.32,160.85L120.66,155.99L131.62,141.52L135.59,136.75L148.4,122.72L152.96,118.15L167.49,104.85L172.59,100.57L188.61,88.3L194.17,84.41L211.41,73.42L217.32,69.99L235.45,60.52L241.59,57.63L260.22,49.85L266.46,47.55L285.19,41.58L291.4,39.9L309.81,35.79L315.85,34.74L333.57,32.48L339.32,32.04L355.98,31.57L361.32,31.7L376.62,32.89L381.47,33.54L395.18,36.22L399.47,37.34L411.42,41.31L415.09,42.82L425.18,47.86L428.23,49.7L436.43,55.59L438.85,57.68L445.19,64.22L447,66.48L451.55,73.46L452.78,75.83L456.36,85.51L456.93,87.96L458.04,97.75L458.04,100.19L457.01,109.86L456.52,112.24L453.72,121.58L452.83,123.87L447.39,134.93L446.12,137.07L439.1,147.33L437.58,149.3L427.78,160.52L426.06,162.29L413.58,173.91L411.75,175.47L395.2,188.38L393.36,189.7L373.66,202.96L371.92,204.06L342.82,221.62L341.33,222.5L290.34,252.96L289.29,253.62L255.17,274.14L254.23,274.64L239.16,281.68L238.21,282.05L226.71,285.62L225.74,285.84L216.02,287.2L215.05,287.25L206.3,286.83L205.33,286.68L197.72,284.68L196.79,284.33L189.59,280.51L188.72,279.91L183.01,274.86L182.25,274.02L177.4,267.21L176.79,266.11L173.6,258.78L173.16,257.45L171.15,248.7L170.93,247.13L170.39,237.01L170.44,235.21L171.64,223.82L172,221.83L175.22,209.36L175.93,207.21L181.35,193.94L182.45,191.69L190.21,177.99L191.69,175.7L201.78,162.01L203.65,159.76L215.92,146.56L218.13,144.43L232.3,132.2L234.79,130.27L250.4,119.46L253.09,117.8L269.58,108.79L272.36,107.46L289.1,100.51L291.87,99.53L308.19,94.76L310.85,94.14L326.15,91.53L328.59,91.27L342.37,90.68L344.51,90.74L356.38,91.92L358.19,92.25L367.92,94.9L369.36,95.45L376.87,99.24L377.94,99.94L383.28,104.53L384,105.34L387.32,110.42L387.72,111.29L389.24,116.61L389.36,117.51L389.22,123.74L389.07,124.62L386.93,131.49L386.55,132.33L382.87,138.74L382.33,139.51L376.33,146.73L375.67,147.4L366.72,155.42L366.01,155.98L354.69,163.98L354,164.42L336.83,174.49L336.26,174.81L314.79,187.33L314.44,187.57L306,194.05L305.73,194.3L298.76,201.47L298.53,201.74L291.76,210.8L291.54,211.11L268.6,245.05L268.24,245.5L259.47,255.54L259.03,255.99L250.32,263.91L249.79,264.33L241.33,270.19L240.73,270.54L231.81,274.8L231.14,275.05L222.8,277.25L222.08,277.36L214.77,277.73L214.03,277.69L207.35,276.55L206.61,276.33L200.79,273.88L200.09,273.48L194.64,269.45L193.99,268.84L189.22,263.03L188.68,262.19L185.37,255.53L184.97,254.47L182.78,246.26L182.57,244.98L181.85,235.24L181.86,233.74L182.94,222.58L183.24,220.89L186.43,208.5L187.05,206.66L191.68,195.31L192.6,193.37L199.1,181.61L200.33,179.64L208.71,167.81L210.26,165.85L220.42,154.31L222.25,152.43L233.99,141.56L236.06,139.82L249.08,129.98L251.33,128.44L265.21,119.93L267.57,118.64L281.84,111.7L284.22,110.68L300.71,104.73L303.02,104.05L318.63,100.43L320.77,100.08L334.88,98.67L336.76,98.62L348.89,99.18L350.46,99.38L360.32,101.55L361.56,101.96L369.05,105.36L369.95,105.92L375.13,110.17L375.71,110.82L378.77,115.57L379.06,116.27L380.26,121.24L380.31,121.95L379.81,127.6L379.64,128.29L377.26,134.34L376.91,134.99L372.23,141.7L371.74,142.27L365.39,148.61L364.83,149.09L355.67,155.98L355.1,156.36L343.58,163.19L343.06,163.47L310.44,180.85L310.25,181L305.5,185.4L305.36,185.56L300.88,191.79L300.76,191.99L296.13,201.16L296.01,201.42L283.64,229.86L283.42,230.32L275.46,246.03L275.16,246.59L265.42,262.46L265,263.08L255.36,275.72L254.82,276.36L245.16,286.51L244.5,287.13L234.34,295.46L233.55,296.02L223.42,302.18L222.52,302.64L212.04,306.91L211.03,307.22L201.66,309.26L200.58,309.39L191.75,309.68L190.63,309.62L181.53,308.08L180.39,307.76L172.44,304.59L171.32,304L164.76,299.66L163.7,298.8L157.63,292.76L156.68,291.61L151.43,283.72L150.64,282.24L147.18,274.16L146.59,272.4L144.24,262.89L143.9,260.84L142.95,249.93L142.92,247.62L143.66,235.39L143.99,232.83L146.69,219.45L147.44,216.68L152.34,202.39L153.56,199.46L160.83,184.58L162.52,181.57L172.24,166.5L174.43,163.49L186.55,148.67L189.2,145.76L203.53,131.67L206.6,128.96L222.82,116.07L226.23,113.64L243.87,102.38L247.5,100.32L266,91.04L269.73,89.4L288.44,82.33L292.16,81.15L310.43,76.41L313.99,75.7L331.22,73.25L334.52,72.99L350.17,72.7L353.12,72.84L366.8,74.47L369.32,74.97L380.78,78.22L382.84,79L391.95,83.52L393.53,84.53L400.3,89.98L401.42,91.14L405.96,97.22L406.66,98.47L409.17,104.88L409.48,106.18L410.19,112.69L410.17,113.99L409.06,121.69L408.72,122.96L405.91,130.34L405.32,131.53L400.47,139.57L399.68,140.67L391.82,149.97L390.88,150.94L380.06,160.75L379.05,161.57L365.93,171.22L364.94,171.89L347.05,183.14L346.17,183.66L310.51,205.72L309.96,206.11L295.96,217.31L295.52,217.7L279.57,233.53L279.17,233.95L259.7,253.01L259.22,253.42L248.35,261.42L247.8,261.77L237.86,266.81L237.24,267.05L229,269.39L228.35,269.5L220.4,269.96L219.74,269.91L213.09,268.63L212.43,268.42L206.68,265.68L206.06,265.28L200.82,260.78L200.28,260.17L196.37,254.51L195.94,253.7L193.07,246.36L192.79,245.33L191.35,236.29L191.27,235.06L191.49,225.79L191.64,224.38L193.54,213.96L193.94,212.4L197.74,201.05L198.43,199.38L204.29,187.4L205.28,185.66L213.26,173.43L214.55,171.68L224.57,159.63L226.14,157.95L237.99,146.55L239.8,144.99L253.1,134.69L255.08,133.31L269.34,124.49L271.42,123.35L286.05,116.29L288.14,115.42L302.53,110.29L304.54,109.69L319.98,106.19L321.81,105.9L333.89,104.77L335.5,104.73L345.86,105.2L347.21,105.36L356.71,107.48L357.74,107.84L363.95,110.73L364.7,111.2L369,114.77L369.49,115.31L372.29,119.85L372.52,120.44L373.39,125.16L373.4,125.76L372.54,130.99L372.35,131.56L369.72,137.02L369.39,137.54L364.28,143.82L363.84,144.26L362.49,145.56" style="vector-effect: non-scaling-stroke; fill: none; stroke: rgb(99, 110, 250); stroke-opacity: 1; stroke-width: 2px; opacity: 1;"/></g><g class="points"/><g class="text"/></g><g class="trace scatter trace2cb303" style="stroke-miterlimit: 2; opacity: 1;"><g class="fills"/><g class="errorbars"/><g class="lines"><path class="js-line" d="M240.43,168L270.84,122.01L258.71,141.21L259.47,140.67L267.09,130.5L263.69,135.85L258.86,143.68L259.01,144.17L260.33,142.9L258.42,146.59L260.71,143.92L259.4,147.58L265.66,138.77L258.74,152.24L265.13,143.39L263.9,145.93L256,158.87L263.65,150.48L269.7,141.97L259.28,160.21L263.82,154.38L263.18,156.35L268.72,148.77L268.38,149.94L258.85,165.37L267.9,153.71L263.02,162.09L261.09,166.19L263.98,163.01L262.56,167.63L269.47,158.24L276.31,148.56L268.31,161.4L262.37,171.51L267.98,164.16L270.84,160.82L271.05,161.41L268.46,166.3L268.27,168.77L264.54,175.7L268.6,170.83L268.1,172.83L260.38,186.07L262.47,184.61L272.55,172.1L270.81,175.96L268.73,181.78L272.65,177.17L274.82,175.07L272.43,179.91L270.82,183.67L276,177.07L278.51,174.32L277.65,176.66L278.08,178.07L278.89,177.87L277.7,180.72L272.42,189.99L269.52,195.91L279.28,182.45L284.21,175.98L279.52,184.1L273.09,195.14L273.3,196.31L287.14,177.59L275.06,197.08L272.42,202.64L279.63,193.14L286.74,184.52L283.4,190.62L283.7,192.42L286.58,189.11L278.55,203.85L281.25,201.18L283.39,200.7L288.74,193.77L280.18,210.9L281.77,210.08L287.5,204.26L285.87,208.09L286.35,208.75L280.93,218.53L297.21,196.39L288.49,210.79L282.23,221.79L286.61,216.71L294.83,205.53L293.69,208.42L290.55,215.76L294.1,211.63L291.11,217.45L282.11,232.75L285.13,229.94L291.61,221.69L295.15,217.71L294.56,219.91L294.71,220.99L290.41,228.97L290.15,230.94L295.32,224.56L290.87,234.33L294.83,229.85L302.79,219.04L302.45,220.66L294.47,234.11L292.74,238.29L296.68,233.83L301.11,228.5L298.81,233.34L297.08,240.45L298.5,239.83L306.16,229.52L306.54,230.11L302.28,237.87L303.73,236.97L301.37,241.96L299.17,246.84L305.34,238.9L303.5,243.09L298.74,251.91L300.82,250.38L313.05,233.11L313.12,234.08L310.98,238.43L302.45,254.17L302.23,256.12L304.01,255.06L309.21,248.65L312.89,244.37L311.62,247.56L302.47,264.65L309.88,255L312.9,251.83L309.8,257.98L310.86,257.85L315.41,252.29L309.87,263.56L313.83,259.02L320.64,249.93L314.54,260.49L310.29,268.48L316.23,260.94L313.77,266.16L315.72,264.71L322.27,256.05L319.13,262.1L318,265.19L324.34,256.79L323.6,259.09L320.37,265.27L312.63,280.15L325.38,262.23L323.48,266.43L317.46,277.09L314.45,283.36L315.24,283.99L321.01,276.92L319.23,281.3L319.09,283.24L325.58,274.94L327.44,273.53L325.09,278.56L326.34,278.14L326.07,280.05L329.91,275.64L326.64,282.06L323.39,288.65L329.8,280.47L328.95,283.27L324.68,291.43L332.93,280.42L330.05,286.3L329.96,291.26L328.58,295.06L328.39,297.15L329.55,297.2L334.68,291.1L335.61,291.25L332.52,297.61L333.79,297.39L326.18,312.81L327.81,312.49L332.22,307.84L331.13,311.57L326.93,322.4L331.56,317.65L342.23,305.41L335.58,317.48L332.38,324.56L335.89,321.44L338.26,320.04L346.88,308.87L341.63,320.67L344.82,317.82L341.03,325.69L340.18,329.24L345.01,324.1L346.99,323.2L344.75,328.77L346.26,328.7L350.39,324.54L352.23,323.79L349.07,332.89L351.71,331.09L349.52,336.71L352.85,333.94L355.03,332.83L351.29,340.84L352.91,340.77L355.03,339.92L345.94,356.38L350.65,352.02L358.54,342.58L357.33,346.89L353.86,354.77L354.23,356.95L356.89,355.67L363.06,348.9L357.62,359.83L358.7,361L365.82,352.86L362.79,360.15L374.78,346.92L368.19,359.44L365.74,365.93L374.88,354.74L370.99,363.32L361.8,380.38L366,377.3L368.63,376.56L368.53,380.01L379.69,366.13L388.56,355.27L381.6,368.46L376.79,378.75L381.26,375.05L379.68,380.62L381.16,381.63L389.03,375.98L385.28,384.86L381.85,393.53L386.62,389.83L393.09,383.36L396.37,381.57L391.36,392.49L394.68,390.91L401.43,383.92L389.58,405.48L394.35,402.09L404.03,390.96L407.9,388.43L409.09,389.86L403.86,401.25L406.93,400.22L410.27,398.76L406.47,408.29L410.24,406.43L410.52,409.9L414.16,408.31L420.05,403.13L417.79,414.26L421.39,412.82L428.74,405.51L425.19,414.76L428.51,413.74L434.1,409.13L437.76,407.33L436.62,412.85L434.54,420.04L439.61,416.48L442.06,416.83L446.11,414.72L455.45,408.17L457.78,408.24L452.37,420.3L453.26,423.13L452.89,428.05L459.02,423.17L463.39,420.73L468.63,416.85L469.02,420.2L468.4,425.28L471.76,424.4L481.2,414.08L475.57,426.56L474.52,432.54L484.02,422.43L487.28,421.54L483.81,430.95L487.7,429.41L495.07,422.41L497.68,422.42L495.95,429.08L495.99,433.34L501.34,429.59L497.9,439.26L508.96,431.61L514.63,427.25L514.03,432.28L518.92,429.08L524.21,425.03L525.01,427.73L531.76,421.32L535.56,419.1L540.84,414.42L537.9,422.16L545.75,420.9L552.96,413.26L552.94,416.35L556.86,413.47L561.64,409.04L558.06,417.28L574.29,397.52L568.54,408.27L578,398.23L582.75,392.67L581.62,395.77L583.85,393.86L600.49,369.9L597.12,374.96L603.96,364.43L602.81,365.43L607.47,357.46L609.17,351.77L608.59,350.82L605.7,353.47L609.12,346.59L609.07,344.63L615.37,332.69L614.74,330.49L612.98,329.93L614.25,324.59L614.28,320.87L618.35,310.56L610.55,317.89L613.98,308.47L613.99,303.62L606.43,310.27L610.32,299.74L607.86,298.35L607.78,293.22L613.22,279.13L614.08,270.93L609.2,270.87L607.55,265.89L607.75,257.71L604.86,253.72L595.76,259.11L597.27,248.77L603.87,229.69L590.45,240.01L582.51,242.94L583.09,233.24L588.89,214.82L589.62,202.5L585,197.32L572.99,203.19L565.35,203.23L561.8,197.3L561.16,186.67L565.19,167.88L553.68,171.49L544.6,171.93L538.08,168.8L534.79,160.85L533,150.02L521.89,152.91L512.55,153.69L506.61,149.72L506.01,137.53L501.91,129.81L485.09,126.98L478.53,123.08L467.09,126.81L469.86,109.33L462.86,105.5L449.88,110.99L446.18,102.95L438.18,101.3L428.53,102.43L423.92,96.31L419.53,89.64L415.59,81.93L408.4,78.76L394.05,86.78L387.2,84.47L387.06,72L383.9,63.3L374.72,63.29L367.39,60.75L360.61,57.49L346.63,65.55L345.29,55.3L341.45,48.29L338.12,40.14L329.28,39.9L313.73,50.52L304.51,52.89L291.53,62L291.56,52.42L299.38,30.1L285.26,39.79L276.98,41.63L272.67,37.9L267.11,36.26L266.63,26.83L254.93,34.22L245.06,39.89L241.03,37.5L240.99,29.15L242.81,17.31L231.27,25.25L231,16.73L223.1,19.52L213.11,26.27L217.52,11.6L211.74,11.69L201.25,19.32L193.31,24.06L191.84,19.68L193.8,9.84L183.06,19.01L171.23,31.01L166.56,33.44L170.5,23.17L172.38,15.3L162.47,25.11L153.38,34.76L156.23,27.1L157.1,22.06L149.66,29.59L147.61,26.47L135.12,42.79L144.38,25L139.9,29.27L141.95,23.74L139.86,24.28L127.45,37.68L127.67,36.44L130.29,31.48L121.76,42.81L128.4,32.33L116.36,50.27L117.94,48.5L120.61,45.05L124.24,39.79L119.56,47.42L119.29,48.47L112.02,62.09L118.16,54.52L118.81,54.93L122.97,49.86L121.56,53L115.44,63.69L123.46,56.58L122.21,59.96L121.99,63.77L120.25,68.43L117.54,74.92L121.74,71.15L120.83,75.05L117.59,82.8L113.87,91.77L124.31,79.44L131.25,71.64L129.32,77.01L131.71,75.84L130.53,80.13L126.8,91.61L130.98,88.51L135.27,84.98L132.52,92.08L135.14,91.19L139.12,88.1L135.33,96.8L133.91,102.28L137.42,100.39L138.27,102.5L139.63,103.85L142.72,102.51L141.11,108.33L141.25,111.66L148.56,104.01L140.69,119.4L152.52,108.65L150.69,114.75L153.18,114.33L158.17,109.96L155.17,124.3L158.22,123.17L159.35,124.89L157.55,131.17L157.68,134.69L162.39,131.24L171.52,124.04L171.81,126.66L165.73,139.17L165.64,142.94L175.89,130.83L174.61,135.96L175.55,137.79L173.27,144.59L172.38,149.52L182.85,136.99L184.07,138.2L181.18,145.7L176.35,156.44L182.51,150.58L182.38,157.66L192.31,145.82L185.58,162.48L195.62,150.41L197.85,149.93L190.27,164.51L188.29,170.89L193.3,166.68L196.19,165.55L193.71,172.61L192.64,177.67L203.93,163.74L209.12,158.66L209.45,160.82L211.74,159.9L212.12,161.84L199.96,186.07L208.99,175.41L216.9,166.08L211.75,176.59L213.96,175.94L215.12,176.86L218.27,174.69L217.04,179.14L218.46,179.6L224.46,172.93L224.2,180.39L221.48,187.02L217.33,198.76L226.47,187.52L231.66,182L232,183.75L219.72,207.49L226.76,199.47L238.11,186.88L237.14,190.5L231.48,201.41L230.22,205.78L236.15,199.14L232.18,207.58L230.21,213.14L238.16,203.41L236.99,207.54L242.78,200.92L244.31,200.64L239.1,210.74L237.45,215.53L240.67,212.91L244.79,208.78L241.71,215.63L241.18,218.66L245.18,214.7L249.47,210.18L246.71,216.37L246.28,219.08L251.98,212.32L256.11,207.79L256.53,208.82L244.43,231.02L250.69,223.49L258.37,213.56L253.83,222.24L252.17,226.63L259.07,217.83L263.59,212.49L260.98,218.02L257.68,226.33L259.97,224.48L260.6,225.15L259.1,229.09L265.28,221.23L259.13,232.21L256.82,237.47L261.76,231.6L263.64,230.34L256.29,243.27L257.92,242.57L264.59,234.02L259.85,242.93L263.69,238.71L264.82,238.55L262.81,243.23L262.08,245.97L266.7,240.48L270.95,236.83L267.74,243.14L263.56,251.05L264.41,251.31L266.06,250.32L265.43,252.82L267.65,250.92L263.74,258.42L271.91,248.75L267.17,257.41L269.39,255.42L268.44,258.28L264.24,266.19L269.54,259.54L275.41,251.85L274.83,253.97L268.85,265.72L277.36,253.95L269.63,268.28L276.17,259.52L284.89,247.21L281.74,253L272.73,267.92L275.49,264.87L270.43,275.11L273.46,271.74L275.1,270.45L272.71,275.32L278.15,269.3L278,270.64L278.31,271.25L274.21,278.65L281.88,269.05L279.97,272.99L280.16,273.7L277.05,279.51L278.98,277.62L284.9,269.52L287.11,266.99L276.88,283.61L275.61,286.64L283.97,274.82L285.05,274.05L281.67,280.15L289.48,270.63L283.88,280.01L284.45,279.99L288.88,273.99L280.52,288.6L280.25,289.95L289.6,277.21L288.58,279.52L284.55,286.46L288.79,280.74L283.4,290.56L285.09,288.79L283.29,292.37L294.27,276.94L292.11,280.86L286.73,289.79L286.31,291.19L283.63,296.08L282.23,299.07L276.89,308.18L288.66,291.78L285.01,298.14L285.07,298.8L286.4,297.53L290.6,291.77L287.89,296.6L290.67,292.99L291.6,292.18L291.5,292.94L289.43,296.75L286.82,301.43L287.19,301.57L289.31,299L295.35,290.33L290.08,299L288.36,302.28L296.03,291.7L289.63,302.1L285.13,309.68L289.99,302.9L292.72,299.33L292.45,300.9L289.47,306.07L291.87,303L298.73,292.97L289.8,308.67L297.46,297.43L291.37,307.83L293.09,305.75L300.34,295.11L304.32,289.35L299.6,297.28L300.09,296.94L296.46,302.95L300.14,297.75L302.25,294.9L302.27,295.25L298.4,301.59L304.25,294.18L299.97,301.14L302.64,297.87L302.29,298.8L301.87,299.84L315.6,281.04L311.65,287.26L308.08,293.01L306.83,295.26L307.2,295.05L310.63,290.1L324.69,269.78L325.81,268.03L315.66,284.01L340.5,244.86L337.03,249.91L333.54,255.1L340.97,243.38L348.16,231.98L339.53,243.73L346.44,232.8L356.75,213.92L356.9,212.87L352.98,218.09L358.02,209.59L359.46,206.5L353.46,214.84L361.24,200.23L355.73,207.72L355.39,207.4L357.46,203.37L359.99,198.58L370.25,181.72L359.32,195.97L359.27,194.99L368.86,179.13L373.43,170.66L364.52,182.82L364.23,181.95L365.9,178.05L365.06,177.97L359.91,184.57L356.62,188.48L362.12,178.93L367.52,166.43L366.78,166.01L373.34,150.81L372.62,149.96L369.99,152.02L371.99,147.01L375.47,137.44L371.26,141.65L371.67,138.85L369.3,140.29L364.78,145.14L367.6,138.79L366.42,138.48L364.65,139.12L365.35,135.95L362.05,138.92L356.99,144.74L362.52,134.39L366.99,125.39L365.84,124.84L365.58,122.86L358.02,132.15L358.47,129.38L361.53,122.51L357.02,127.2L358.47,122.81L364.67,110.97L360.97,114.09L355.61,119.89L356.04,116.92L356.97,113.15L356.54,111.39L350,119.04L351.48,114.57L350.76,113.4L348.24,115.02L347.44,114.05L349.98,107.92L350.87,104.16L350,103.03L343.21,108.64L346.03,102.01L344.06,102.63L341.39,104.38L341.08,102.56L336.89,106.72L333.74,109.46L340.84,96.47L344.77,87.98L340.11,92.5L334.55,98.57L335.97,94.08L325.45,105.87L326.77,101.93L324.87,102.92L327.39,97.12L324.98,98.78L320.35,103.96L326.33,92.94L324.71,93.34L324.65,91.36L322.96,91.83L323.67,86.49L313.44,100.12L321.55,83.98L320.33,83.72L314.24,90.95L313.68,89.93L312.16,90.4L306.91,96.7L303.81,99.94L303.5,99.02L300.63,102.08L303.01,97.16L305.53,91.89L303.44,93.59L305.7,87.08L304.97,86.57L303.04,87.9L298.95,92.64L298.03,92.69L300.25,87.9L291.59,98.68L289.56,100.77L285.88,104.77L291.34,95.6L287.87,99.97L290.7,94.73L288.29,97.41L280.62,108.38L280.47,108.06L283.37,103.1L286.12,97.5L283.84,100.21L278.68,107.48L280.25,104.6L284.35,97.74L272.48,113.86L277.52,105.94L277.01,106.38L280.99,99.88L283.58,95.29L281.95,97.1L280.61,98.5L265.22,120.49L272.88,108.98L280.61,96.9L265.52,118.97L263.21,122.74L262.99,123.42L269.1,114.37L278.17,100.45L261.83,125.36L266.73,119.08L264.57,122.69L260.65,129.57L261.84,128.81L267.44,120.71L267.75,120.56L263.99,126.67L267.89,121.09L261.54,131.22L259,135.73L275.1,112.48L267.22,124.98L267.55,124.84L264.9,129.69L266.14,128.26L270.03,122.7L260.75,138.45L266.78,129.87L269.18,126.65L268.99,127.34L265.55,133.05L267.06,131.26L263.02,138L270.09,128.33L263.21,139.41L270.22,130.36L265.34,138.34L264.58,140.18L269.56,133.15L270.59,132.08L270.49,132.7L265.97,140.16L260.96,148.56L268.1,138.38L270.06,135.97L262.5,148.22L260.73,151.78L271.51,136.03L275.97,130.08L271.94,136.63L267.43,144.09L276.93,131.9L273.43,137.65L267.18,150.01L265.32,153.63L268.35,149.76L261.46,161.16L263.41,159.15L274.53,142.88L274.69,144.29L278.27,139.28L267.32,157.98L270.77,153.48L276.91,144.72L272.77,151.62L272.41,152.83L275.9,149.98L275.3,151.47L270.59,159.33L280.29,145.09L284.46,139.07L279.64,146.82L282.73,142.46L280.09,146.87L276.39,153.02L278.95,150.06L276.37,154.53L276.48,154.93L275.31,157.31L282.65,147.15L276.8,156.59L276.37,157.83L281.21,150.94L275.44,160.33L283.58,148.39L282.31,150.75L274.68,162.98L277.12,159.85L283.04,151.32L285.2,148.81L283.07,152.46L275.97,164.46L280.45,158.19L284.69,152.17L281.97,156.78L277.25,164.55L276.87,165.77L279.87,161.78L285.27,154.01L281.12,160.82L279.99,163.1L280.12,163.44L282.51,160.33L290.57,148.7L282.14,161.96L277.81,169.14L284.46,159.93L278.89,168.99L284.44,162.51L282.31,166.25L289.5,156.1L287.26,159.88L280.31,170.98L288.82,158.91L283.46,167.55L284.73,166.08L289.95,158.45L290.73,157.58L290.74,157.85L294.36,152.54L285.78,165.98L288.97,162.13L289.88,161.06L290.24,160.83L294.99,153.79L282.23,173.97L283.87,171.96L289.79,163.31L285.78,171.12L288.91,166.74L290.98,164.28L288.29,168.77L288.38,169.01L289.24,168.08L287.5,171.15L288.56,169.93L292.39,164.41L297.17,157.31L291.16,166.77L295.82,160.09L287.52,173.12L291.24,168.56L290.28,170.36L290,171.15L285.15,179.38L283.21,182.86L284.12,182L293.67,167.79L295.38,165.7L297.54,162.57L287.28,179.89L292.48,172.3L292.07,173.24L287.57,180.51L294.26,170.94L291.8,175.02L287.31,182.29L298.85,165.79L297.95,167.5L294.67,172.74L288.65,183.21L292.9,177.07L298.93,168.07L298.74,168.53L295.49,173.71L297.15,171.59L296.5,172.81L293.38,177.83L291.51,181.54L297.81,172.14L294.61,177.29L294.35,177.95L300.81,168.24L293.47,180.41L288.98,187.64L303.07,167.52L297.87,175.63L292.66,183.88L303.04,168.14L292.31,185.13L295.86,180.22L292.73,185.32L291.33,187.8L299.45,175.6L300.95,173.62L300.91,173.8L295.64,182.07L295.18,183.22L301.21,174.37L297.94,179.56L294.8,184.6L292.22,189.08L301.45,175.82L299.46,179.01L298.84,180.15L292.26,192.06L298.87,182.19L298.6,183L294.68,189.24L302.84,177.94L298.96,184.03L295.25,189.94L293.85,192.51L302.48,179.69L299.23,184.93L294.01,193.17L294.42,192.83L298.59,186.67L293.16,195.56L301.04,183.9L298.95,187.27L301.07,184.18L291.13,200.2L304.09,180.74L296.93,192.07L296.2,193.43L296.28,193.57L301.92,185.11L293.47,198.68L296.42,194.44L303.9,183.12L307.59,177.51L291.06,203.78L294.18,199.31L294.51,199.13L294.57,199.34L297.6,194.96L297.91,194.71L292.77,202.88L293.76,201.69L300.62,191.4L292.19,205L296.43,198.81L300.03,193.5L304.55,187.22L293.63,204.43L297.05,199.46L299.55,195.84L296.17,201.69L299.02,197.76L304.16,190.01L305.39,188.18L296.2,202.65L301.26,195.37L294.01,206.71L297.9,200.99L294.43,207.1L295.16,206.27L294.91,206.95L300.41,198.76L293.36,210.56L292.73,211.86L306.36,191.32L294.15,210.95L296.2,208.09L299.1,204.1L291.5,216.04L301.69,200.86L293.67,213.68L290.27,219.24L295.75,211.84L295.61,212.31L292.37,217.6L283.31,231.94L289.19,223.4L296.74,212.14L284.84,232.25L294.55,217.74L299.32,211.09L298.17,213.48L292.46,222.5L281.37,239.96L289.45,228.56L291.98,225.06L290.93,227.03L293.61,223.24L292.45,225.34L292.92,224.94L294.76,222.4L290.23,229.67L291.85,227.53L291.95,227.7L289.18,233.03L291,230.6L291.72,229.84L298,220.47L284.51,241.72L286.35,239.33L291.83,231.3L290.71,234.04L289.65,236.02L287.59,239.55L291.87,233.33L294.79,229.13L294.21,230.28L284.82,245.04L294.45,230.99L287.13,242.57L282.76,249.7L285.76,246L289.08,241.28L281.9,252.74L288.52,243.39L285.67,248.15L291.04,240.58L289.77,243.47L284.18,252.41L284.13,252.89L285.73,250.82L289.57,245.61L293.79,239.4L281.64,259.56L287.71,250.59L285.04,255.04L289.63,248.32L292.29,244.46L276.27,271.31L275.35,273.19L275.08,274.11L279.72,267.45L284.22,260.9L282.47,264.64L277.16,273.18L277.57,273.37L275.46,277.44L277.68,274.43L280.71,270.47L280.26,271.46L277.24,276.44L277.73,276.42L272.36,285.39L280.85,272.67L267.27,294.2L272.65,286.33L276.52,280.72L265.14,298.97L271.52,289.55L283.66,271.14L271.01,291.89L277.53,282.13L266.99,299.59L268.86,296.99L271.38,293.34L261.23,309.55L262.01,309.38L266.36,302.9L249.29,331.06L253.58,324.71L259.31,315.93L240.41,343.85L241.55,341.88L243.22,338.48L234.35,351.51L237.22,346.72L237.98,345.15L238.03,344.64L235.39,348.26L235.84,347.1L233.36,350.42L235.22,347.01L234.34,347.8L233.07,349.19L237.19,342.21L224.77,360.74L218.4,369.92L219.01,368.29L222.88,361.57L222.22,360.99L225.53,355.02L225.26,354.56L220.88,360.41L221.69,358.23L214.27,368.69L215.06,366.47L208.63,375.33L207.56,375.88L209.46,371.78L202.59,379.93L201.71,379.97L202.05,378.09L207.6,368.12L210.22,362.67L205.63,368.32L197.59,379.25L198.92,375.65L203.56,366.89L202.96,366.23L197.06,373.71L196.04,373.59L197.2,368.28L194.04,371.38L192.56,371.8L191.85,371L183.4,380.11L188.37,370.34L189.09,367.14L185.52,370.55L183.22,371.94L183.65,369.04L183.53,366.96L177.52,373.96L177.51,371.58L174.3,374.1L175.23,370.17L173.14,370.85L175.7,361.72L169.17,369.19L163.28,375.55L165.5,369.28L169.34,360.47L169.11,358L168.02,356.85L161.81,363.58L162.46,359.57L158.07,363.33L162.55,353.3L159.82,354.45L158.46,353.44L161.2,346.07L160.66,343.79L161.36,339.61L147.33,354.89L151.15,345.56L145.35,351.15L141.34,353.83L142.26,348.79L150.69,332.2L144.54,334.87L144.85,330.9L146.97,324.14L142.3,327.93L138.72,329.93L141.87,321.48L139.12,322.19L137.29,321.47L149.43,295.76L150.69,290.7L155.31,280.55L150.87,284.6L144.47,291.56L141.1,293.68L143.55,286.7L141.47,286.84L140.07,285.89L145.09,275.04L149.8,264.89L148.53,264.22L154,253.2L151.53,254.68L152.69,250.53L164.4,230.22L165.87,226.25L158.01,236.82L156.78,236.9L156.15,236L158.87,228.19L165.24,216.71L173.95,200.86L172.94,201.64L171.32,203.35L177.99,191.56L187.25,176.83L201.67,155.4L200.16,158.65L197.38,163.81L202.36,156.82L222.33,129.44L225.56,126.42L228.27,124.42L235.27,115.94L238.14,114.14L242.28,110.51L239.37,117.9L248.91,105.86L259.41,92.78L263.04,90.8L267.76,87.3L269.87,87.98L279.02,77.83L284.21,74.14L284.28,78.5L292.28,70.54L294.86,71.19L300.92,66.46L309.78,57.6L314.11,56.03L312.16,64.22L318.42,59.45L320.38,61.43L333.7,45.79L339.27,42.65L341.26,45.15L348.16,45.42L351.17,46.15L353.25,48.23L360.68,41.95L361.39,46.16L369.13,39.37L375.15,35.4L378.41,35.78L382.01,35.58L390,28.57L385.66,45.84L388.15,46.77L396.31,38.83L398.03,40.96L395.44,49.64L398.56,49.17L399.49,51.97L405.2,47.25L413.35,38.83L414.92,40.72L406.76,57.51L408.24,58.88L417.73,47.76L420.1,47.81L418.62,53.73L422.07,51.85L426.2,48.85L426.06,52.45L426.93,54.32L424.9,60.52L423.55,65.45L427.01,62.75L434.23,54.21L430.9,62.05L428.84,69.99L431.98,67.28L433.56,66.94L432.26,70.97L437.32,65.05L437.04,67.39L435.49,71.58L424.89,89.57L428.83,85.94L422.84,96.29L432.93,83.46L426.39,94.45L416.8,112.06L411.63,120.08L414.57,115.46L409.59,122.87L412.82,116.9L407.69,124.52L399.37,135.9L402.83,129.98L401.83,130.96L391.7,146.02L389.23,149.13L390.19,146.91L392.78,142.16L395.76,136.84L388,148.12L389.52,145.01L388.76,145.41L378.26,160.85L375.52,164.21L378.46,158.78L382.42,151.79L379.26,155.83L368.36,170.91L368.7,169.45L359.58,182.6L361.43,178.78L363.04,175.32L364.98,171.36L362.22,174.69L356.82,182.09L361.2,174.37L350.47,188.14L351.04,186.3L352.88,182.52L351.28,184.07L353,180.49L345.59,190.13L346.89,187.22L343.45,191.64L344.72,188.81L347.92,183L329.84,208.37L335.79,198.34L339.61,191.62L330.51,204.86L331.16,203.07L327.44,208.01L321.59,216.26L330.55,201.66L322.67,212.31L324.05,209.44L326.87,204.36L321.88,211.33L325.21,204.78L315.3,219.38L307.45,229.52L310.7,223.86L314.09,217.98L310.32,223.17L309.69,223.51L297.62,240.94L303.06,231.95L305.51,227.58L308.97,221.65L307.81,222.84L301.45,232.08L302.7,229.58L299.73,233.61L294.6,240.99L296.54,237.47L298.41,234.06L296.78,236.05L299.93,230.67L298.49,232.37L292.8,240.64L285.14,250.56L292.23,239.15L298.89,227.92L296.76,230.73L287.64,244.35L293.18,235.35L289.65,240.35L283.31,249.71L285.69,245.63L284.91,245.59L285.54,244.19L272.2,263.18L280.03,250.68L272.96,260.77L278.66,251.56L281.28,247.08L271.47,260.53L267.83,265.74L277.54,249.02L274.54,253.22L259.76,274.34L265.01,265.8L254.73,280.77L263.46,266.84L265.2,263.68L264.54,264.23L261.69,268.16L253.98,279.59L256.14,275.77L261.78,266.57L261.83,265.99L253.31,278.63L250.1,283.08L253.37,277.5L258.6,268.89L258.09,269.14L253.79,275.23L251.54,277.6L253.85,273.46L244.4,286.88L247.71,281.13L248.16,279.81L245.48,283.33L248.27,277.7L243.95,283.72L243.89,283.13L242.24,285L239.65,288.28L243.44,281.7L248.11,272.32L245.79,275.19L232.99,292.66L236.11,287.01L235.18,287.61L242.29,275.8L236.06,283.79L237.55,280.63L225.5,297.49L231.62,287.08L231.1,286.93L223.22,298.14L229.04,283.98L225.17,288.92L226.26,285.07L220.48,292.91L222.76,288.24L218.26,294.03L217.4,294.16L222.83,284.55L214.45,296.31L213.97,295.78L216.69,290.28L214.68,292.1L218.55,284.81L218.45,283.71L207.15,299.87L214.25,286.09L213.47,285.95L212.88,285.5L214.04,282.34L213.66,281.58L208.7,287.88L208.98,284.56L211.74,278.88L203.58,288.6L204.57,285.54L206.84,280.51L202.93,285.05L200.5,287.24L206.18,276.88L206.33,273.68L199.9,282.12L196.42,285.9L196.75,283.7L205.78,266.49L200.43,273.27L193.15,282.94L193,281.44L188.15,287.15L191.67,279.86L193.15,275.77L201.93,260.47L199.1,263.31L193.87,269.82L194.48,265.52L197.38,259.4L194.54,262.19L196.35,257.78L197.01,253.68L193.85,257.04L187.62,265.08L191.01,258.1L195.36,249.73L192.93,251.98L194.58,247.89L190.12,253.29L193.26,245.37L191.72,246.28L198.56,232.86L197.84,232.73L194.27,237.03L198.9,228.6L197.77,229.19L196.54,229.94L189.29,239.93L194.08,231.16L206.1,209.44L198.26,220.8L200.04,217.09L208.03,203.86L197.69,218.35L201.16,212.06L217.64,184.09L210.64,194.73L207.99,198.53L206.93,199.73L212.83,190.14L227.63,167.63L223.48,174.77L231.83,162.18L239.36,151.18L237.96,154.3L232.82,163.14L250.68,137.39L240.26,154.88L234.58,164.64L244.54,149.95L249.64,143.11L249.01,145.34L258.68,131.68L258.24,134.02L253.2,143.4L259.12,135.64L258.27,138.48L266.87,126.71L267.29,127.9L268.71,127.53L273.51,123.89L279.39,116.78L283.03,113.33L283.61,114.74L284.42,115.76L284.75,117.48L283.34,121.82L293.66,107.93L293.53,110.53L296.02,109.05L298.42,107.77L299.7,108.22L300.86,108.84L304.85,105.07L313.24,94.62L313.04,97.71L311.42,102.91L313,103.04L315.2,102.15L315.71,103.87L321.44,97.47L323.79,96.46L328.08,92.48L330.03,92.21L328.79,96.85L331.5,95.26L333.1,97.93L340.57,88.89L340.79,91.24L341.91,92.14L347.63,85.91L348.7,86.97L348.37,90.15L354.4,83.43L352.79,88.62L345.98,101.67L353.51,94.45L354.7,94.86L366.92,80.66L361.08,92.19L359.87,98.4L357.53,103.98L362.54,98.07L360.88,102.51L374.85,84.64L369.75,94.6L367.48,99.98L369.49,98.59L374.04,93.27L374.42,94.44L373.3,97.89L367.37,108.64L367.55,109.72L369.04,108.68L378.08,95.99L377.5,98.34L371.7,108.71L372.57,108.56L375.71,104.85L371.07,113.16L374.35,109.11L379.31,102.48L372.32,114.36L383.84,98.58L379.71,106.06L382.13,103.29L377.74,111.03L373.86,119.28L377.32,114.53L380.86,109.69L379.27,112.81L380.53,111.48L385.87,103.84L383.56,108.09L378.59,116.36L379.56,116.2L370.03,131.45L371.07,129.96L373.59,126.15L386,107.13L362.65,142.95L361.96,143.74L357.6,149.63L371.14,128.03L365.59,136.35L357.44,147.89L358.19,146.35L357.18,147.52L356.12,148.35L357.09,146.45L357.01,146.17L360.95,139.69L351.12,154.08L354.54,148.37L355.71,146.14L356.96,143.78L355.52,145.6L349.42,154.6L350.47,152.53L355.68,144.04L346.48,157.81L348.3,154.09L351.18,149.2L350.17,150.29L354.45,143.24L341.04,163.05L340.72,162.61L343.75,157.47L338.29,164.02L344.53,153.94L338.43,162.42L338.4,161.54L338.03,161.64L332,170.06L332.04,169.11L332.98,167.21L334.84,163.46L332.91,166L332.68,165.93L320.72,183.55L327.99,171.94L329.29,169.52L327.02,172.63L332.68,163.49L333.45,161.89L327.97,169.94L323.18,176.94L330.14,165.45L325.91,171.6L317.9,183.59L325.65,170.94L319.87,179.51L320.29,178.54L323.31,173.23L324.47,171.09L323.92,171.6L317.53,181.13L324,170.84L319.8,176.33L315.87,182.1L313.22,185.92L316.12,181.19L315.09,182.51L319.74,175.07L324.41,167.56L317.3,178.22L323.65,167.85L315.7,179.81L318.93,174.31L313.43,182.54L309.84,187.43L316.03,177.67L319.85,171.54L311.67,183.88L314.72,178.57L311.65,183.08L316.9,174.21L302.97,195.12L305.43,191.21L310.97,182.53L313.21,178.71L310,183.46L306.33,188.97L310.62,181.9L305.54,189.59L309.57,183.1L303.76,191.91L297.94,200.25L311.6,178.93L314.39,174.44L287.09,216.4L289.81,212.31L282.22,224.21L296.99,202.26L288.66,215.39L283.52,223.39L290.72,213.18L278.02,232.81L279.54,230.58L291.63,212.01L274.03,240.51L275.04,238.99L279.2,232.71L265.4,253.55L270.34,245.18L271.22,243.72L270.79,244.26L265.04,253.02L268.73,246.6L258.28,262.28L264.44,252.62L266.98,248.51L267.87,246.96L257.18,263.26L266.12,249.09L254.95,265.94L262.33,253.87L253.86,266.68L255.86,263.36L255.05,264.35L244.83,279.87L243.16,282.16L246.95,276.02L253.12,266.17L263.34,249.74L258.29,256.86L253.96,263.21L254.97,260.58L237.39,286.57L240.33,281.59L247.11,270.67L234.48,289.25L243.2,275.29L247.84,267.61L251.14,262.03L248.36,265.83L244.24,271.69L245.5,269.23L241.41,275.01L240,276.64L247.78,264.06L247.4,264.11L245.78,266.06L239.9,274L244.6,266.14L231.76,282.78L233.91,278.73L232.65,279.21L238.47,269.48L228.26,284.52L230.48,280.3L232.37,276.57L223.32,288.86L229.11,279.01L235.98,267.54L232.12,272.67L228.58,277.3L230.98,272.71L221.95,285.75L221.18,285.98L222.59,282.8L225.86,274.72L228.09,270.29L217.68,285.4L221.36,278.63L225.8,270.71L221.9,275.72L221.63,275.09L220.06,276.44L212.95,286.32L215.41,281.33L212.51,283.42L212.36,282.4L207.63,288.45L210.46,282.76L211.72,279.53L210.4,280.28L210.42,278.94L211.73,275.62L210.91,275.59L213.26,270.66L215.53,265.9L207.44,277.16L205.44,278.91L207.01,275.08L210.3,268.62L208.73,269.72L200.61,279.5L205.48,270.47L208.51,263.03L203.97,268.71L203.04,268.73L195.44,279.03L188.41,288.26L196.58,273.89L200.6,266.08L199.74,265.88L199.21,265.2L195.78,268.99L196.84,264.19L203.73,252.01L204.68,249.18L199.82,255.36L194.79,261.72L197.08,256.65L194.05,259.82L194.27,257.92L199.43,246.96L197.9,247.94L197.81,246.71L192.74,253.15L203.47,233.8L195.85,244.38L192.26,248.58L194.6,243.51L202.23,230.36L192.36,244.44L191.52,242.92L188.63,245.95L189.6,242.95L196.82,230.34L203.63,217.57L200.79,221.05L199.1,222.7L201.98,217.26L198.76,221.33L203.77,212.62L210.74,201.07L208.27,204.37L199.06,218.02L195.36,222.85L199.22,215.85L203.16,208.02L205.94,203.01L206.77,201.15L205.78,201.61L209.43,195.44L221.13,176.29L229.33,163.83L236.11,154.66L228.03,168L224.66,173.72L236.21,156.26L236.16,158.73L238.28,156.25L245.06,146.66L242.45,151.83L244.08,150.34L243.77,151.88L244.19,152.26L245.18,151.72L246.75,150.3L256.07,136.98L256.96,137.06L255.51,140.77L257.92,138.46L256.48,142.11L273.18,120.92L270.68,126.8L271.36,127.6L271.27,129.59L289.6,107.36L287.07,113.77L283.16,122.13L288.76,115.55L294.51,108.91L294.4,111.5L287.46,124.56L290.6,121.68L297.48,115.15L299.47,114.25L304.8,108.23L314.14,96.2L315.95,96.14L310.96,106.61L309.63,111.12L316.32,103.08L319.05,101.34L317.45,106.32L322.58,100.79L325.43,98.9L329.58,95.06L327.71,100.59L321.09,113.28L328.86,103.39L337.57,92.27L340.99,89.61L333.53,103.82L335.88,102.5L338.12,101.32L339.42,101.6L340.12,102.76L338.86,106.89L338.71,109.18L345.16,101.18L348.76,97.74L348.38,100.53L353.85,94.24L354.51,95.48L356.86,96.25L353.36,103.79L350.86,109.56L357.14,101.62L366.48,89.11L361.68,98.67L359.36,104.21L369.98,89.63L362.43,105.23L368.01,98.31L371.12,95.29L367.57,102.58L364.58,108.85L371.56,99.55L371.32,101.52L366.8,110.05L363.93,115.81L367.51,111.46L378.53,97.1L373.94,105.65L372.8,108.68L375.09,106.34L372.56,111.41L374.46,109.54L375.04,109.68L367.53,122.28L375.94,111.62L371.01,120.06L369.68,122.79L375.75,114.03L371.93,120.62L372.39,120.5L376.51,114.71L372.28,122.95L375.85,117.88L373.36,122.63L379.88,112.97L378.72,115.24L367.72,132.66L378.44,116.83L373.09,125.42L371.14,128.66L372.84,126.46L364.57,138.78L374.02,124.02L374.85,122.67L367.17,134.19L357.36,149.16L368.85,130.85L363.23,138.75L359.59,144.07L361.1,141.41L358.58,144.99L353.42,152.6L361.66,139.09L359.6,141.92L353.98,150.25L351.96,152.97L356.34,145.78L361.85,136.89L353.91,148.78L347.67,158.01L351.32,151.93L349.81,153.39L349.83,152.92L350.03,152.17L351.9,148.85L344.46,158.14L345.83,155.58L350.65,146.81L342.37,159.15L340.62,161.42L347.24,150.74L328.39,178.97L335.77,167.11L340.11,159.95L337.31,163.83L339.1,160.17L342.03,155.21L341.65,155.35L340.11,157.29L341.69,154.41L340.49,155.82L337.4,160.16L334.15,164.32L335.51,161.79L337.75,157.92L323.3,179.39L325.51,175.59L336.52,158.21L331.47,165.58L330.95,165.18L336.52,156.18L323.48,175.52L324.97,172.49L331.36,162.27L336.57,153.84L332.07,160L328.06,165.8L326.53,167.8L333.18,157.19L320.03,174.81L322.74,170.34L325.68,164.89L323.31,168.22L329.9,157.74L319.56,173.06L323.89,166.09L318.32,174.39L318.67,173.59L315.06,178.91L320.03,170.51L317.43,173.98L312.76,180.96L318.47,170.9L317.17,172.66L308.48,185.85L306.77,188.34L314.11,176.51L314.73,175.35L314.36,175.73L318.84,168.6L318.55,168.81L312.8,177.44L321.03,164.55L308.83,182.42L313.42,175.22L311.14,178.56L307.22,184.49L320.11,164.31L314.92,171.49L312.09,175.67L314.73,171.16L308.67,179.92L307.34,181.87L314.44,170.66L302.87,188.07L304.51,184.84L308.29,178.96L312.25,172.64L292.97,201.8L298.99,193.65L302.63,188.1L303.27,187.97L291.57,206.3L292.14,205.58L296.28,199.35L302.58,189.77L289.75,210.41L297.99,197.98L292.77,206.12L299.12,197.33L288.34,214.02L289.31,212.72L298.29,199.03L288.67,214.71L301.82,194.72L289.63,213.68L294.43,206.43L296.74,202.97L283.52,223.47L293.36,209.27L291.64,212.02L291.96,211.65L286.81,219.73L293.17,210.42L289.55,216.1L284.88,223.47L294.38,209.27L290.09,216.83L289.32,218.13L286.16,223.29L290.48,216.79L294.82,210.18L279.59,234.62L282.81,230.14L281.14,232.91L292.08,216.52L274.3,244.57L279.59,236.66L289.59,221.42L277.12,241.57L278.29,239.97L279.91,237.65L287.45,226.53L278.42,240.92L280.47,237.99L276.92,243.58L274.63,247.41L281.2,237.57L279.35,240.51L274.98,247.37L281.29,237.83L269.62,256.65L276.36,246.5L267.42,260.35L274.73,249.58L257.31,275.99L254.47,280.28L263.9,265.52L252.39,282.55L259.51,271.19L257.67,273.83L246.2,289.61L246.91,288.23L245.97,289.38L250.2,282.53L253.67,276.83L245.85,288.56L240.51,296.44L239.88,296.66L248.07,282.74L245.75,285.87L233.71,303.52L240.3,292.83L239.94,292.86L239.34,293.25L241.94,288.68L235.14,296.84L236.7,293.82L236.38,293.66L230.33,302.35L223.48,312.22L226.48,306.85L230.86,299.33L235.28,290.23L230.58,296.71L214.91,319.24L217.36,314.53L217.91,311.73L220.55,306.65L217.59,310.21L220.05,305.37L219.18,305.66L217.34,307.44L220.05,302.15L211.87,313.68L220.01,298.77L213.33,307.93L205.86,316.97L212.85,304.83L213.59,302.4L203.03,317.42L204.05,314.43L207.28,308.01L205.43,309.46L209.28,302.06L209.63,300.12L206.15,304.08L198.14,313.48L197.64,312.64L198.58,309.57L192.61,317.15L195.61,309.07L195.73,307.18L193.76,308.48L196.41,302.64L193.95,304.7L186.56,314.32L185.87,313.47L187.47,309.05L185.69,309.85L181.85,313.8L186.17,301.02L184.93,300.93L176.78,311.49L179.2,305.56L187.36,290.81L183.12,295.36L175.49,305.08L177.51,299.74L175.95,299.95L173.15,302.03L175.14,296.66L174.99,294.64L175.44,291.7L173.72,292.13L168.8,297.47L168.24,295.96L167.45,294.77L164.66,296.67L162.77,297.11L159.43,299.72L162.83,291.87L162.69,289.56L159.38,292.16L157.86,291.94L158.56,285.63L156.81,285.76L146.16,296.82L151.3,285.98L156.03,275.91L151.53,280.29L151.93,277.01L156.8,266.87L148.37,274.88L148.32,272.32L143.97,276.37L145.66,270.98L143.08,272.25L153.99,252.68L152.17,253.19L143.05,264.96L152.16,245.98L152.37,243.5L153.05,240.36L145.27,250.35L140.62,255.22L149.34,239.3L156.62,224.21L156.87,222.24L160.65,214.9L157.17,218.96L153.82,222.73L156.81,216.6L158.17,213.12L156.88,213.84L154.13,216.79L158.3,208.99L164.82,196.77L163.4,198.22L162.6,198.68L177.41,174.09L176.82,175.2L180.98,168.88L188.97,156.9L188.25,158.8L184.54,165.27L195.72,149.23L193.19,154.25L192.42,156.41L197.26,149.86L196.87,151.56L199.67,148.34L198.96,150.63L204.59,143.07L224.23,118.1L217.09,131.64L215.77,135.72L223.79,125.24L225.66,124.58L231.83,117.4L242.92,102.96L238.17,113.54L250.62,100.46L253.88,98.9L257.7,96.63L253.7,106.5L262.97,95.56L264.64,96.74L265.43,99.25L268.92,97.52L290.11,72.8L282.72,88.96L283.97,91.23L291.77,83.27L297.52,78.72L298.57,81.63L302.68,79.72L302.05,85.18L301.09,90.9L305.18,88.56L312,82.05L314.21,82.88L314.2,87.11L317.67,85.77L325.85,77.2L325.63,81.86L340.05,68.17L343.16,68.04L346.72,67.24L349.03,68.37L353.27,66.49L352.51,72.33L348.07,83.61L349.04,86.06L352.37,84.69L367.21,65.59L369.91,65.86L365.08,77.76L370.31,73.73L373.12,73.47L378.41,69.38L380.43,70.44L375.12,86.47L381.26,80.43L389.13,71.86L390.51,73.52L391.13,76.31L389.57,82.31L392.18,81.63L390.74,87.13L390.36,90.76L391.04,92.59L395.93,87.78L403.36,79.15L397.29,94.33L403.91,86.64L407.57,83.62L404.06,91.72L406.99,89.62L402.04,99.65L405.3,96.68L412.82,87.17L410.69,92.71L404.96,103.65L404.97,105.37L408.18,102.05L407.73,104.38L408.8,104.27L404.11,115.55L403.16,118.07L410.42,107.83L408.86,111.36L401.12,125.11L403.79,121.63L405.17,120.13L411.17,111.54L411.96,111.12L406.48,120.38L408.73,118.03L412.45,112.84L395.76,140.39L387.35,153.12L387.68,152.16L389.78,148.44L404.94,124.31L394.05,140.97L387.21,151.16L388.66,148.42L387.23,149.54L383.2,155.2L378.52,161.78L383.98,152.63L374.29,165.42L378.25,158.51L378.48,157.41L367.8,173.17L366.24,174.71L372.41,164.28L376.67,156.87L368.84,168.21L370.32,163.47L368.58,165.36L369.12,162.94L364.16,169.81L362.91,170.93L365.8,165.65L363.11,168.22L367.6,160.5L349.96,183.85L353.9,176.94L358.55,168.94L354.9,173.81L352.98,175.99L355.28,171.65L352.31,175.46L353.98,172.1L348.95,179.1L347.99,179.8L345.76,182.44L341.29,188.56L350.38,173.72L349.3,174.62L344.7,180.95L340.18,187.17L343.79,180.82L337.42,189.13L338.8,186.24L339.85,183.85L334.26,191.74L333.75,191.78L328.39,199.31L325.75,202.65L336.19,185.79L338.08,182.15L335.47,185.47L340.13,177.58L329.51,193.29L323.91,201.27L332.22,187.76L321.06,203.68L323.45,199.36L330.51,187.82L330.06,187.88L323.88,196.81L328.97,187.17L326.54,190.34L315.56,205.64L324.29,191.63L321.67,195.13L325.99,187.94L327.5,185.07L315.77,202.67L317.25,199.4L314.08,203.82L307.12,213.17L309.36,209.28L322.41,188.67L321.66,188.88L315.08,198.56L311.96,202.93L311.99,202.03L314.37,197.95L300.98,216.66L308.32,204.98L317.3,190.74L303.01,212.02L300.46,215.61L307.24,204.82L303.75,209.21L300.92,213.27L299.93,213.89L306.12,204.05L303.12,208.08L302.25,209.14L294.62,220.12L301.7,208.96L288.99,227.65L293.71,219.68L293.43,219.89L299.7,209.55L292.8,219.95L296.01,214.58L288.5,225.96L288.05,226.48L291.54,220.9L280.69,237.28L292,219.68L298.04,210.15L286.96,226.84L292.16,218.28L289.94,221.52L283.05,230.71L286.48,225.26L277.9,238.19L283.44,229.38L289.62,219.68L276.22,238.82L276.4,238.4L274.23,241.62L281.06,230.77L275.21,239.33L266.73,252.26L278.8,233.32L267.79,249.28L268.22,248.44L265.34,252.7L270.87,243.39L273.1,239.74L273.95,237.77L268.94,244.84L258.88,260.15L266.65,247.48L264.01,250.56L264.94,248.87L258.62,258.09L259.55,256.38L266.34,245.61L267.55,243.44L260.01,254.79L255.49,261.15L256.6,258.47L258.51,255.18L257.35,256.63L261.6,249.72L246.79,270.3L250.14,264.68L243.35,274.28L249.08,264.94L251.97,260L245.65,268.8L251.67,259L253.86,255.13L249.31,261.68L246.6,265.36L239.29,276.12L245.06,266.65L253.46,253.11L241.31,270.82L242.38,268.58L246.14,262.19L248.5,257.98L243.41,265.27L245.59,261.32L244.68,262.13L236.44,274.25L243.1,262.66L238.1,269.73L234.99,273.87L241.01,263.86L238.97,266.34L233.04,274.8L237.39,266.6L232.11,274.02L239.64,260.86L233.45,269.68L232.35,270.6L233.29,268.34L232.16,268.45L227.5,274.8L226.81,274.97L230.08,269.01L221.23,280.78L227.64,269.87L219.72,280.14L225.71,269.83L226.23,268.03L216.49,282.08L226.2,263.89L220.89,271.09L217.26,275.62L221.14,268.49L224.56,262.13L214.42,276.74L211.45,280.14L215.11,273.26L222.18,259.98L214.69,270.46L215.7,267.74L213.78,269.52L211.63,271.63L214.86,265.38L204.88,279.58L204.72,278.47L211.24,267L208.43,270.05L207.71,269.85L205.19,272.39L210.79,261.09L206.47,266.48L204.37,268.38L205.63,265.05L205.2,264.34L202.98,266.38L203.36,262.97L202.41,263.03L207.09,253.05L207.53,251.08L194.91,266.55L196.59,262.4L201.83,252.78L199.9,254.37L193.65,262.6L198.43,253.67L205.58,239.92L200.75,246.17L194.1,253.66L202.47,239.25L209.7,226.86L199.36,241.8L195.26,246.87L205.44,229.78L188.87,250.49L192.74,242.99L199.43,229.95L196.94,232.64L197.33,230.83L199.91,225.67L201.26,222.51L198.22,226.19L203.16,217.49L199.3,222.52L193.52,230.42L195.68,225.89L206.03,208.02L202.37,212.97L201.94,212.85L202.78,210.74L201.31,212.23L204.72,206.17L214.7,188.14L217.2,184.14L205.18,201.46L212.76,189.24L224.78,171.11L223.31,173.71L228.16,166.5L224.28,173.26L240.95,147.84L248.64,137L240.89,150.36L232.72,164.07L237.71,157.04L237.85,157.64L234.55,163.52L237.52,159.57L245.93,147.34L248.19,144.95L245.19,150.79L246.41,149.97L251.06,143.86L255.06,138.95L253.31,143.06L258,137.15L258.71,137.55L261.17,136.79L259.22,141.32L263.79,135.66L261.66,140.46L275.41,122.35L269.55,133.33L264.91,142.16L271.34,133.6L286.7,113.48L283.54,120.62L286.92,117.48L292.2,111.52L293.33,112.13L292.59,115.62L300.07,106.34L296.65,114.12L309.22,99.6L301.37,114.42L307.47,109.65L305.68,114.77L304.74,118.42L312.54,108.46L307.25,121.09L311.93,115.81L325.61,99L325.47,101.74L325.9,103.55L328.28,102.29L333.88,96.06L327.33,108.73L326.16,112.73L330.54,108.03L337.26,101.99L336.72,105.1L336.99,106.86L339.94,104.42L345.97,97.27L347.33,97.48L347.06,100.21L343.02,108.67L344.44,108.45L352.43,98.06L352.83,99.6L350.16,105.85L345.63,114.78L348.37,112.23L350.01,111.39L353.61,107.51L357.55,103.21L359.01,102.8L363.41,97.86L358.49,107.39L358.93,108.41L360.21,108.08L359.04,111.48L364.6,104.42L365.15,105.19L363.44,109.41L358.01,120.48L364.5,111.61L361.28,119.07L371.17,104.92L374.42,101.26L373.27,104.45L358.77,129.28L361.28,126.2L368.88,115.24L374.15,108.06L366.49,120.97L361.4,129.68L367.38,121.1L369.65,118.34L369.01,120.11L375.74,110.47L363.99,130.22L368.8,123.31L367.12,126.48L367.49,126.43L366.9,127.83L367.86,126.8L374.36,117.22L368.36,128.02L371,124.75L372.89,122.21L361.41,140.55L371.12,125.89L376.57,117.73L365.01,136.88L363.25,139.63L370.02,129L358.32,146.03L361.9,140.24L368.88,128.69L359.9,142.39L357.39,146.01" style="vector-effect: non-scaling-stroke; fill: none; stroke: rgb(239, 85, 59); stroke-opacity: 1; stroke-width: 2px; opacity: 1;"/></g><g class="points"/><g class="text"/></g></g></g><g class="overplot"/><path class="xlines-above crisp" d="M79,520.5H693M79,99.5H693" style="fill: none; stroke-width: 1px; stroke: rgb(0, 0, 0); stroke-opacity: 1;"/><path class="ylines-above crisp" d="M79.5,100V520M692.5,100V520" style="fill: none; stroke-width: 1px; stroke: rgb(0, 0, 0); stroke-opacity: 1;"/><g class="overlines-above"/><g class="xaxislayer-above"><g class="xtick"><text text-anchor="middle" x="0" y="535.4" transform="translate(167.43,0)" style="font-family: 'Open Sans', verdana, arial, sans-serif; font-size: 12px; fill: rgb(42, 63, 95); fill-opacity: 1; white-space: pre; opacity: 1;">10</text></g><g class="xtick"><text text-anchor="middle" x="0" y="535.4" style="font-family: 'Open Sans', verdana, arial, sans-serif; font-size: 12px; fill: rgb(42, 63, 95); fill-opacity: 1; white-space: pre; opacity: 1;" transform="translate(276.71000000000004,0)">5</text></g><g class="xtick"><text text-anchor="middle" x="0" y="535.4" style="font-family: 'Open Sans', verdana, arial, sans-serif; font-size: 12px; fill: rgb(42, 63, 95); fill-opacity: 1; white-space: pre; opacity: 1;" transform="translate(386,0)">0</text></g><g class="xtick"><text text-anchor="middle" x="0" y="535.4" style="font-family: 'Open Sans', verdana, arial, sans-serif; font-size: 12px; fill: rgb(42, 63, 95); fill-opacity: 1; white-space: pre; opacity: 1;" transform="translate(495.29,0)">5</text></g><g class="xtick"><text text-anchor="middle" x="0" y="535.4" style="font-family: 'Open Sans', verdana, arial, sans-serif; font-size: 12px; fill: rgb(42, 63, 95); fill-opacity: 1; white-space: pre; opacity: 1;" transform="translate(604.57,0)">10</text></g></g><g class="yaxislayer-above"><g class="ytick"><text text-anchor="end" x="76.6" y="4.199999999999999" transform="translate(0,520)" style="font-family: 'Open Sans', verdana, arial, sans-serif; font-size: 12px; fill: rgb(42, 63, 95); fill-opacity: 1; white-space: pre; opacity: 1;">15</text></g><g class="ytick"><text text-anchor="end" x="76.6" y="4.199999999999999" style="font-family: 'Open Sans', verdana, arial, sans-serif; font-size: 12px; fill: rgb(42, 63, 95); fill-opacity: 1; white-space: pre; opacity: 1;" transform="translate(0,436)">10</text></g><g class="ytick"><text text-anchor="end" x="76.6" y="4.199999999999999" style="font-family: 'Open Sans', verdana, arial, sans-serif; font-size: 12px; fill: rgb(42, 63, 95); fill-opacity: 1; white-space: pre; opacity: 1;" transform="translate(0,352)">5</text></g><g class="ytick"><text text-anchor="end" x="76.6" y="4.199999999999999" style="font-family: 'Open Sans', verdana, arial, sans-serif; font-size: 12px; fill: rgb(42, 63, 95); fill-opacity: 1; white-space: pre; opacity: 1;" transform="translate(0,268)">0</text></g><g class="ytick"><text text-anchor="end" x="76.6" y="4.199999999999999" style="font-family: 'Open Sans', verdana, arial, sans-serif; font-size: 12px; fill: rgb(42, 63, 95); fill-opacity: 1; white-space: pre; opacity: 1;" transform="translate(0,184)">5</text></g><g class="ytick"><text text-anchor="end" x="76.6" y="4.199999999999999" style="font-family: 'Open Sans', verdana, arial, sans-serif; font-size: 12px; fill: rgb(42, 63, 95); fill-opacity: 1; white-space: pre; opacity: 1;" transform="translate(0,100)">10</text></g></g><g class="overaxes-above"/></g></g><g class="polarlayer"/><g class="smithlayer"/><g class="ternarylayer"/><g class="geolayer"/><g class="funnelarealayer"/><g class="pielayer"/><g class="iciclelayer"/><g class="treemaplayer"/><g class="sunburstlayer"/><g class="glimages"/><defs id="topdefs-ef2f86"><g class="clips"/><clipPath id="legendef2f86"><rect width="84" height="48" x="0" y="0"/></clipPath></defs><g class="layer-above"><g class="imagelayer"/><g class="shapelayer"/></g><g class="infolayer"><g class="legend" pointer-events="all" transform="translate(704.24,100)"><rect class="bg" shape-rendering="crispEdges" width="84" height="48" x="0" y="0" style="stroke: rgb(68, 68, 68); stroke-opacity: 1; fill: rgb(255, 255, 255); fill-opacity: 1; stroke-width: 0px;"/><g class="scrollbox" transform="" clip-path="url(#legendef2f86)"><g class="groups"><g class="traces" transform="translate(0,14.5)" style="opacity: 1;"><text class="legendtext" text-anchor="start" x="40" y="4.680000000000001" style="font-family: 'Open Sans', verdana, arial, sans-serif; font-size: 12px; fill: rgb(42, 63, 95); fill-opacity: 1; white-space: pre;">trace 0</text><g class="layers" style="opacity: 1;"><g class="legendfill"/><g class="legendlines"><path class="js-line" d="M5,0h30" style="fill: none; stroke: rgb(99, 110, 250); stroke-opacity: 1; stroke-width: 2px;"/></g><g class="legendsymbols"><g class="legendpoints"/></g></g><rect class="legendtoggle" x="0" y="-9.5" width="78.375" height="19" style="fill: rgb(0, 0, 0); fill-opacity: 0;"/></g><g class="traces" transform="translate(0,33.5)" style="opacity: 1;"><text class="legendtext" text-anchor="start" x="40" y="4.680000000000001" style="font-family: 'Open Sans', verdana, arial, sans-serif; font-size: 12px; fill: rgb(42, 63, 95); fill-opacity: 1; white-space: pre;">trace 1</text><g class="layers" style="opacity: 1;"><g class="legendfill"/><g class="legendlines"><path class="js-line" d="M5,0h30" style="fill: none; stroke: rgb(239, 85, 59); stroke-opacity: 1; stroke-width: 2px;"/></g><g class="legendsymbols"><g class="legendpoints"/></g></g><rect class="legendtoggle" x="0" y="-9.5" width="78.375" height="19" style="fill: rgb(0, 0, 0); fill-opacity: 0;"/></g></g></g><rect class="scrollbar" rx="20" ry="3" width="0" height="0" x="0" y="0" style="fill: rgb(128, 139, 164); fill-opacity: 1;"/></g><g class="g-gtitle"/><g class="g-xtitle"/><g class="g-ytitle"/></g></svg>