<svg class="main-svg" xmlns="http://www.w3.org/2000/svg" xmlns:xlink="http://www.w3.org/1999/xlink" width="800" height="600" style="" viewBox="0 0 800 600"><rect x="0" y="0" width="800" height="600" style="fill: rgb(255, 255, 255); fill-opacity: 1;"/><defs id="defs-2fbba7"><g class="clips"><clipPath id="clip2fbba7xyplot" class="plotclip"><rect width="612" height="420"/></clipPath><clipPath class="axesclip" id="clip2fbba7x"><rect x="80" y="0" width="612" height="600"/></clipPath><clipPath class="axesclip" id="clip2fbba7y"><rect x="0" y="100" width="800" height="420"/></clipPath><clipPath class="axesclip" id="clip2fbba7xy"><rect x="80" y="100" width="612" height="420"/></clipPath></g><g class="gradients"/><g class="patterns"/></defs><g class="bglayer"/><g class="layer-below"><g class="imagelayer"/><g class="shapelayer"/></g><g class="cartesianlayer"><g class="subplot xy"><g class="layer-subplot"><g class="shapelayer"/><g class="imagelayer"/></g><g class="gridlayer"><g class="x"><path class="xgrid crisp" transform="translate(141.2,0)" d="M0,100v420" style="stroke: rgb(235, 240, 248); stroke-opacity: 1; stroke-width: 1px;"/><path class="xgrid crisp" transform="translate(263.6,0)" d="M0,100v420" style="stroke: rgb(235, 240, 248); stroke-opacity: 1; stroke-width: 1px;"/><path class="xgrid crisp" transform="translate(508.4,0)" d="M0,100v420" style="stroke: rgb(235, 240, 248); stroke-opacity: 1; stroke-width: 1px;"/><path class="xgrid crisp" transform="translate(630.8,0)" d="M0,100v420" style="stroke: rgb(235, 240, 248); stroke-opacity: 1; stroke-width: 1px;"/></g><g class="y"><path class="ygrid crisp" transform="translate(0,436)" d="M80,0h612" style="stroke: rgb(235, 240, 248); stroke-opacity: 1; stroke-width: 1px;"/><path class="ygrid crisp" transform="translate(0,352)" d="M80,0h612" style="stroke: rgb(235, 240, 248); stroke-opacity: 1; stroke-width: 1px;"/><path class="ygrid crisp" transform="translate(0,184)" d="M80,0h612" style="stroke: rgb(235, 240, 248); stroke-opacity: 1; stroke-width: 1px;"/></g></g><g class="zerolinelayer"><path class="xzl zl crisp" transform="translate(386,0)" d="M0,100v420" style="stroke: rgb(235, 240, 248); stroke-opacity: 1; stroke-width: 2px;"/><path class="yzl zl crisp" transform="translate(0,268)" d="M80,0h612" style="stroke: rgb(235, 240, 248); stroke-opacity: 1; stroke-width: 2px;"/></g><path class="xlines-below"/><path class="ylines-below"/><g class="overlines-below"/><g class="xaxislayer-below"/><g class="yaxislayer-below"/><g class="overaxes-below"/><g class="plot" transform="translate(80,100)" clip-path="url(#clip2fbba7xyplot)"><g class="scatterlayer mlayer"><g class="trace scatter trace730557" style="stroke-miterlimit: 2; opacity: 1;"><g class="fills"/><g class="errorbars"/><g class="lines"><path class="js-line" d="M208.08,168L234.09,187.68L234.54,188.08L241.97,195.67L242.27,196.04L246.79,203L246.98,203.37L249.55,210.59L249.64,210.99L250.61,218.38L250.63,218.81L250.16,228.88L250.1,229.36L247.54,242.45L247.39,243.02L242.62,257.97L242.38,258.61L236.71,271.76L236.38,272.43L229.98,284.07L229.56,284.76L222.44,294.9L221.91,295.56L214.4,303.69L213.77,304.27L206.27,310.14L205.54,310.61L197.68,314.61L196.84,314.92L189.76,316.79L188.83,316.93L180.99,317.19L179.96,317.11L172.46,315.68L171.34,315.35L163.21,312.03L162.01,311.41L153.29,305.86L152,304.89L142.74,296.81L141.38,295.46L131.67,284.58L130.26,282.82L120.25,269L118.81,266.81L108.7,250.07L107.26,247.48L95.94,225.13L94.56,222.16L83.96,197.23L82.7,194L73.38,167.83L72.32,164.55L64.88,138.9L64.09,135.81L59.07,112.65L58.61,109.99L56.56,93.27L56.43,91.17L56.57,80.31L56.74,78.8L58.25,72.54L58.67,71.55L61.41,67.92L62.07,67.45L65.11,66.41L65.96,66.35L70.7,67.17L71.74,67.55L78.58,71.14L79.81,71.94L90.38,79.99L91.78,81.18L109.4,97.23L110.92,98.67L166.33,150.91L167.55,152L215.64,195.27L216.12,195.78L223.71,205.44L223.99,205.9L227.58,213.01L227.74,213.44L229.48,220.37L229.54,220.8L229.67,228.16L229.63,228.6L228.19,236.04L228.06,236.49L224.95,244.41L224.73,244.85L220.02,252.6L219.71,253.01L214.13,259.38L213.74,259.76L207.23,264.83L206.75,265.12L200.04,268.34L199.49,268.53L192.99,270L192.36,270.07L185.78,270.06L185.09,269.98L177.86,268.36L177.11,268.1L169.28,264.54L168.47,264.07L160.12,258.24L159.26,257.54L150.51,249.2L149.62,248.24L140.68,237.29L139.78,236.07L130.05,221.13L129.18,219.65L120.01,202.19L119.22,200.52L111.17,181.52L110.51,179.76L104.17,160.6L103.69,158.9L99.62,141.19L99.37,139.7L98.03,127.4L97.99,126.18L98.45,117.54L98.6,116.61L100.3,111.07L100.62,110.42L103.48,106.86L103.96,106.48L107.88,104.8L108.51,104.68L113.36,104.69L114.11,104.8L120.57,106.51L121.43,106.82L131.45,111.31L132.4,111.8L150.14,121.87L151.14,122.47L187.61,143.73L188.44,144.18L211.76,155.72L212.39,156L231.03,163.6L231.45,163.76L258.59,174.14L258.71,174.22L262.7,177.38L262.78,177.47L265.31,181.41L265.36,181.53L266.83,186.71L266.85,186.87L267.41,193.78L267.41,194L266.7,206.88L266.66,207.21L263.45,227.85L263.36,228.34L258.03,251.41L257.85,252.07L251.19,274.14L250.92,274.95L243.07,295.5L242.68,296.4L234.68,313L234.17,313.93L226.26,326.94L225.64,327.85L217.37,338.41L216.61,339.24L209.32,346.29L208.45,347.01L201.04,352.19L200.05,352.75L192.77,356.06L191.67,356.43L183.55,358.16L182.33,358.28L174.66,358.14L173.33,357.97L164.97,355.95L163.52,355.44L154.45,351.14L152.88,350.22L143.12,343.25L141.44,341.84L131.03,331.8L129.24,329.86L118.27,316.41L116.4,313.87L105,296.8L103.07,293.65L91.46,272.91L89.52,269.16L77.98,245.01L76.08,240.73L64.96,213.78L63.17,209.1L52.9,180.34L51.28,175.48L40.97,141.52L39.66,136.75L31.82,104.85L30.9,100.57L26.14,73.42L25.7,69.99L24.42,52.3L24.44,49.85L25.49,39.9L25.89,38.37L28.15,33.83L28.86,33.08L31.37,31.74L32.33,31.58L35.52,31.96L36.68,32.36L41.85,35.21L43.26,36.22L50.91,42.82L52.55,44.42L64.86,57.68L66.72,59.81L90.08,87.96L92.07,90.4L134.12,141.26L135.87,143.31L171.95,184.28L173.18,185.67L193.48,209.35L194.28,210.36L203.64,223.36L204.18,224.21L209.76,234.66L210.09,235.42L212.95,244.15L213.1,244.85L214.02,252.96L214.03,253.62L213.22,261.2L213.09,261.81L210.45,269.37L210.18,269.92L206.21,276.1L205.82,276.58L200.92,281.31L200.42,281.68L194.93,284.89L194.33,285.15L187.86,286.96L187.16,287.06L180.49,287.15L179.7,287.06L173.11,285.61L172.25,285.33L165.06,282.14L164.12,281.63L155.39,275.68L154.39,274.86L146.15,267.21L145.09,266.11L135.45,254.67L134.37,253.22L125.67,240.51L124.59,238.77L114.96,221.83L113.92,219.81L103.9,198.42L102.96,196.19L94.28,173.41L93.5,171.12L86.83,148.71L86.28,146.56L82.5,128.37L82.21,126.51L80.91,113.09L80.88,111.61L81.46,102.62L81.66,101.54L83.46,96.14L83.86,95.42L86.25,92.61L86.81,92.2L89.97,90.89L90.68,90.77L95.36,90.98L96.21,91.16L102.69,93.44L103.68,93.9L113.18,99.24L114.29,99.94L131.7,112.17L132.89,113.05L183.4,150.02L184.33,150.65L211.22,168.16L211.84,168.55L231.5,181.88L231.83,182.14L238.9,189L239.09,189.24L242.39,194.54L242.5,194.79L244.29,200.66L244.34,200.93L244.68,208.32L244.66,208.63L243.36,217.43L243.28,217.78L240.15,228.3L240,228.7L235.07,240.13L234.85,240.57L227.63,252.81L227.31,253.26L220.53,261.78L220.13,262.21L213.09,268.72L212.61,269.1L204.72,274.01L204.15,274.28L197.47,276.69L196.83,276.84L190.05,277.75L189.34,277.77L181.86,277.09L181.07,276.93L173.75,274.62L172.9,274.26L165.04,270.04L164.14,269.45L155.82,263.03L154.87,262.19L146.2,253.38L145.23,252.26L136.39,240.96L135.41,239.57L126.64,225.89L125.68,224.24L116.4,206.66L115.51,204.8L107.18,185.55L106.41,183.59L99.56,163.9L98.97,161.96L94.12,143.32L93.75,141.56L91.46,126.93L91.32,125.46L91.12,114.99L91.21,113.85L92.51,107.03L92.79,106.22L94.99,102.25L95.44,101.74L98.58,99.49L99.18,99.25L103.18,98.6L103.91,98.62L109.5,99.61L110.35,99.87L118.65,103.31L119.62,103.79L132.98,111.48L134.04,112.14L196.8,151.86L197.59,152.3L221.49,164.79L222,165.05L244.46,176.67L244.68,176.82L249.92,180.85L250.07,181L253.36,185.08L253.46,185.24L255.64,190.63L255.69,190.82L256.49,196.71L256.5,196.95L256.14,205.91L256.1,206.21L254.27,217.33L254.19,217.7L250.59,231.72L250.45,232.19L244.92,248.26L244.7,248.82L237.18,265.57L236.86,266.19L229.06,279.56L228.64,280.2L221.05,290.19L220.53,290.79L213.07,298.19L212.44,298.72L205.06,303.95L204.34,304.36L197.46,307.52L196.65,307.79L188.95,309.51L188.05,309.6L180.46,309.52L179.47,309.4L171.17,307.41L170.08,307.02L162.23,303.37L161.07,302.7L152.68,296.96L151.45,295.97L142.6,287.87L141.31,286.53L132.09,275.87L130.75,274.16L119.95,258.75L118.59,256.62L107.8,237.92L106.46,235.39L96.06,213.87L94.8,211.04L84.14,184.58L83.04,181.57L75.05,157.52L74.17,154.55L68.13,131.67L67.51,128.96L63.86,108.96L63.57,106.7L62.6,92.75L62.62,91.04L63.54,82.33L63.83,81.15L65.84,76.41L66.36,75.7L68.78,73.59L69.47,73.25L73.42,72.62L74.3,72.7L79.15,74.03L80.2,74.47L88.19,79L89.41,79.83L101.14,88.84L102.51,89.98L123.74,108.78L125.18,110.09L169,148.99L170.16,149.97L220.69,192.71L221.11,193.15L227.52,201.03L227.78,201.42L231.28,208.04L231.43,208.43L233.23,215.37L233.28,215.75L233.46,222.45L233.43,222.85L231.85,231.43L231.73,231.85L228.71,239.89L228.51,240.32L223.97,248.43L223.69,248.85L217.16,257L216.78,257.39L210.14,263.1L209.68,263.42L202.72,267.28L202.18,267.5L195.3,269.5L194.69,269.6L188.27,269.99L187.59,269.96L180.54,268.83L179.8,268.63L172.14,265.68L171.35,265.28L163.15,260.17L162.3,259.54L153.67,252L152.79,251.12L143.89,241L143,239.86L133.22,225.79L132.34,224.38L122.99,207.62L122.17,206L113.08,185.66L112.39,183.92L105.69,164.75L105.17,163.04L100.63,144.99L100.33,143.45L98.45,129.35L98.38,128.09L98.72,118.14L98.86,117.2L100.49,111.58L100.8,110.92L103.59,107.25L104.07,106.86L107.31,105.23L107.92,105.07L112.59,104.77L113.32,104.84L119.62,106.26L120.46,106.54L129.38,110.28L130.31,110.73L145.88,119.27L146.87,119.85L191.43,145.56" style="vector-effect: non-scaling-stroke; fill: none; stroke: rgb(99, 110, 250); stroke-opacity: 1; stroke-width: 2px; opacity: 1;"/></g><g class="points"/><g class="text"/></g><g class="trace scatter trace8c3602" style="stroke-miterlimit: 2; opacity: 1;"><g class="fills"/><g class="errorbars"/><g class="lines"><path class="js-line" d="M403.92,168L402.2,129.37L389.26,122.35L389.62,122.84L418.44,139.32L402.99,132.07L428.09,146.68L397.52,131.11L401.4,133.66L392.15,128.73L412.38,141.02L417.27,144.58L414.33,143.71L411.29,142.66L420.44,148.71L405.58,140.72L421.01,150.68L394.83,135.98L410.15,145.91L407.54,145.07L422.18,155.08L396.86,140.42L411.6,150.65L429.25,162.97L406.81,149.44L419.28,158.49L398.22,144.74L393.28,141.8L402.51,148.84L424.32,165.03L410.86,156.6L406.69,154.4L410.45,157.66L391.04,143.9L406.21,156.15L423.99,170.46L399.17,152.45L413.97,165.83L413.76,166.74L406.86,162.02L414.5,169.42L410.17,166.51L395.39,154.01L388.17,147.98L413.17,171.67L411.13,170.87L400.31,161.57L400.5,162.36L399.79,162.42L406.56,170.16L402.42,166.91L406.29,172.07L411.55,178.73L400.23,167.39L418.28,190.88L409.28,181.38L401.72,173.52L405.27,179.53L404.87,180.26L406.9,184.49L399.71,174.51L401.51,178.55L404.28,185.81L397.16,173.84L398.26,178.09L398.72,180.3L397.62,179.13L397.42,179.96L398.61,184.36L402.12,196.96L394.78,176.16L400.1,201.22L398.14,195.21L395.32,182.81L394.41,179.63L398.74,211.46L395.75,194.18L394.88,184.1L394.46,194.83L394.14,193.46L393.75,195.64L393.82,189.52L392.16,206.66L391.56,202.8L393.56,193.2L387.26,215.59L390.49,205.94L386.63,214.68L388.68,210.35L379.73,228.33L395.42,198.36L379.67,226.48L386.71,215.38L393.06,205.89L383.91,219.65L389.3,212.96L367.45,240.96L378.84,228.17L386.71,220L369.45,238.73L377.36,231.55L382.08,227.73L373.61,235.85L370.07,239.46L381.47,230.07L394.03,219.94L382.86,229.5L365.85,243.75L376.76,236.55L384.21,231.48L370.06,242.31L376.08,238.67L365.2,247L371.05,243.6L369.86,244.87L396.4,227.86L374.28,243.11L378.01,241.6L363.81,251.64L385.26,239.66L357.16,257.48L365.61,253.26L409.36,229.39L378.11,246.7L389.72,241.06L354.7,260.74L362.35,257.58L351.98,263.97L366.29,257.22L385.62,248.67L371.43,256.47L344.21,270.69L350.78,268.44L379.71,255.48L372.95,259.33L360.9,265.6L384.87,256.35L362.45,267.02L358.24,269.7L379.82,261.09L399.17,253.62L349.94,274.92L358.72,272.17L380.75,264.1L350.51,277.12L381.93,265.1L394,261.11L366.33,272.58L377.09,269.13L403.98,259.54L378.68,269.71L373.84,272.48L338.89,287.5L424.67,256.83L350.05,284.28L362.99,280.68L327.35,294.96L356.98,285.24L369.66,281.82L348.14,290.32L360.4,286.98L392.23,276.88L370.52,285.82L381.8,283.08L369.35,287.98L402.2,278.24L351,295.52L362.04,292.97L395.51,283.44L363.06,294.43L352.94,298.49L416.63,279.93L347.1,301.55L394.66,288.12L353.55,301.51L380.63,294.47L344.9,306.21L366.56,300.98L356.62,304.95L402.97,292.48L372.99,301.88L366.46,304.77L374.78,303.73L343.06,313.84L318.38,322.17L345.57,316.09L360.42,313.34L337.82,320.77L332.19,323.87L312.73,330.62L364.77,317.97L370.42,317.51L412.28,307.71L315.63,333.47L350.73,325.93L350.33,327.51L372.69,322.78L430.29,309.35L362.5,326.69L376.97,324.37L386.41,323.47L338.25,336.29L384.91,327.83L381.04,329.87L355.63,337.01L382.5,332.09L398.52,329.53L398.94,330.47L363.04,339.6L375.37,338.24L385.36,337.41L349.28,346.41L403.82,335.97L378.65,342.48L349.77,349.9L379.2,345.24L370.78,348.57L270.1,370.97L389.46,347.49L385.29,349.65L370.28,353.98L330.38,363.79L355.41,360.47L361.96,360.61L419.7,350.54L304.58,374.17L392.85,358.25L400.23,358.22L354.47,368.05L456.5,349.63L429.95,355.27L354.34,370.32L365,369.99L456.13,354.53L325.34,378.91L293.31,387.1L357.24,377.43L338.64,382.57L347.83,382.46L474.35,360.64L479.01,360.17L362.43,380.59L362.18,382.54L403.34,377.13L339.95,389.28L393.45,381.83L391.67,383.43L431.66,378.05L328.9,396.14L341.26,396.23L432.21,384.2L422.91,386.65L336.12,401.58L428.43,388.54L432.58,389.09L237.32,420.39L433.3,391L417.4,394.37L469.16,387.11L413.84,396.1L349.12,407.25L418.81,398.47L394.09,403.37L333.54,413.91L413.23,404.01L339.5,416.1L432.27,404.07L428.41,405.55L383.76,412.97L370.16,416.61L414.94,411.75L470.61,404.94L338.3,423.41L459.97,408.2L430.19,412.59L477.04,406.94L377.42,420.42L381.84,421.52L433.8,416.02L406.91,420.17L502.69,408.8L452.09,414.55L340.91,428.98L401.54,423.51L324.57,434.4L505.76,413.9L384.43,427.74L418.24,425.02L418.77,425.59L548.23,410.42L284.28,439.37L422.81,425.18L466.27,420.38L448.54,422.15L343.69,434.84L472.27,420.85L456.14,422.21L374.88,431.67L393.51,431.02L442.68,426.35L298.3,443.16L478.51,424.34L417.56,430.43L520.74,418.93L367.18,434.41L525.68,417.46L450.14,423.81L461.44,422.21L525.86,414.29L485.52,416.32L544.69,408.51L361.24,425.47L498.88,411.6L389.18,421.67L487.43,411.44L506.76,407.59L426.95,414L510.24,404.68L482.55,405.22L371.79,415.45L647.35,385.85L465.48,397.88L406.66,403.15L503.39,392.68L489.77,391.35L541.62,383.5L415,393.14L515.21,381.93L591.38,370.32L622.47,361.29L464.9,370.98L531.34,362.19L316.1,381.19L426.15,371.16L478.01,364.24L564.75,352.11L436.53,360.56L597.62,341.56L469.87,348.68L534.61,339.33L444.46,344.75L439.52,343.71L511.44,334.02L453.68,336.41L617.5,315.88L457.64,325.79L524.6,316.13L494.69,315.08L518.92,308.8L576.39,298.01L373.32,314.74L605.04,287.29L440.83,298.72L431.15,298.11L538.27,283.49L437,290.39L538.6,276.02L590.98,264.5L582.28,258.84L510.1,261.37L556.69,251.49L556.14,245.89L533.36,243.28L426.53,252.27L583.29,229.35L626.41,217.07L406.66,238.39L480.1,226.94L498.37,220.8L644.31,195.73L604.86,192.84L610.07,185.43L475.71,198.82L517.49,189.29L500.95,187.64L575.35,171.35L641.44,154.56L508.02,169.29L545.65,158.93L501.06,162.47L560.97,147.25L561.52,142.12L502.91,149.14L502.91,145.91L501.37,142.83L556.92,126.62L539.33,126.05L531.98,123.84L518.3,123.71L524.17,118.84L481.82,127.42L576.48,95.64L509.63,111.95L514.73,107.12L524.74,100.62L511.38,102.87L504.46,103.18L517.43,94.57L519.43,90.72L530.45,81.84L522.35,84.13L503.95,94.69L513.64,84.59L522.87,73.7L525.94,67.98L521.51,71.8L523.66,65.9L523,66.61L521.2,77.85L519.99,55.6L521.55,61.01L516.51,44.54L524.16,57.31L530.86,64.45L532.88,65.47L548.83,78.53L500.91,39.68L537.66,63.52L516.7,50.27L528.46,55.85L503.02,41.05L540.95,57.65L534.77,54.25L503.88,41.76L484.07,33.58L533.14,50.39L464.9,27.2L512.5,42.91L464.28,27.74L534.6,48.15L496.77,38.04L472.7,31.48L560.63,55.72L558.13,56.25L487.29,40.29L546.26,54.99L559.31,59.31L493.32,45.84L501.04,48.15L536.56,56.92L495.67,49.31L509.95,53.54L597.81,73.79L456.47,46.94L488.77,54.42L482.25,53.63L446.61,46.79L483.87,56.16L511.3,63.16L501.52,62.66L487.93,61.14L452.6,54.98L517.86,69.5L491.07,65.73L428.21,54.29L554.17,81.37L487.87,70.7L509.96,76.75L450.26,66.09L445.26,65.86L454.24,68.54L457.82,70.39L470.94,74.29L461.33,73.8L524.53,88.37L494.22,84.54L446.7,76.48L466.97,81.58L405.75,70.08L466.31,83.72L487.83,89.76L429.17,80.16L430.91,81.36L445.94,85.58L437.59,85.03L488.34,100.28L432.92,90.37L487.31,103.61L488.35,106.09L532.06,117.78L397.78,91.12L427.21,98.42L428.23,99.53L415.52,97.77L444.77,105.64L454.86,109.55L471.86,115.17L427.21,106.39L426.55,107.36L459.79,116.53L421.13,108.8L421.83,110.11L464.63,121.97L457.93,122.21L441.41,119.79L453.44,124.26L441.54,122.8L433.2,122.14L462.29,131.2L449.29,129.51L408.44,120.31L510.3,149.32L400.02,122.1L438.25,134.11L430.24,133.03L427.72,133.61L399.42,126.4L437.52,138.89L429.46,137.99L449.86,145.71L421.62,138.58L442.73,146.65L449.01,150.3L453.27,153.41L425.42,145.83L417.63,144.3L402.21,140.02L455.51,161.43L439.73,157.57L395.05,142.7L438.77,160.09L409.96,150.76L452.61,168.88L433.04,162.77L395.7,148.95L419.33,159.77L425.13,163.71L454.35,177.9L409.15,160L447.31,178.88L423.42,169.26L400.26,159.5L438.7,179.82L428.59,176.26L397.82,161.54L438.33,186.4L435.04,186.45L422.67,180.88L423.82,183.09L435.78,192.29L434.8,193.28L400.89,171.66L408.86,178.34L403.76,175.58L403.68,176.71L405.29,179.27L422.43,194.75L432.43,204.79L404.76,182.33L405.33,184.15L417.6,197.36L406.73,188.03L413.14,196.38L403.47,186.98L413.68,200.72L401.74,188.39L404.08,193.03L403.07,193.11L405.46,198.68L409.51,209.97L411.67,216.53L401.29,194.87L403.01,201.34L401.43,198.88L406.19,217.69L407.31,225.44L403.19,208.82L402.39,207.09L401.28,200.83L401.07,221.09L400.54,221.79L400.85,212.28L398.01,231.95L398.56,226.3L400.45,216.87L396.92,228.59L402.59,210.13L397.58,223.57L393.14,233.89L397.14,225.97L390.75,236.93L398.58,226.26L389.19,238.71L393.19,234.06L399.12,227.45L401.82,224.66L398.66,228.42L387.79,240.25L375.39,253.09L396.92,233.09L398.24,232.43L384.13,245.22L387.07,243.23L401.64,231.67L402.49,231.37L392.17,239.79L390.45,241.76L384.42,246.81L393.63,240.85L386.31,246.56L384.73,248.09L403.9,236.24L365.44,261.52L382.09,251.65L387.98,249.62L353.7,270.66L381.98,254.94L384.87,254.23L362.61,267.17L391.44,252.22L372.36,263.24L375.5,262.38L366.41,267.92L392.1,255.6L382.23,261.11L396.74,254.77L366.81,269.94L364.94,271.79L366.42,272.13L371.61,270.67L362.55,275.6L377.71,269.93L344.15,285.29L401.85,261.3L365.38,278.37L373.48,276.18L343.71,290.23L384.44,274.93L388.9,273.98L381.37,277.65L360.68,286.54L359.38,287.93L410.69,269.97L347.85,293.43L392.86,278.97L432.2,265.73L354.02,294.19L385.54,284.7L344.5,299.59L355.13,297.15L369.52,294.62L349.46,302.12L388.4,290.67L373.03,296.45L382.9,294.31L374.46,298.05L348.96,306.83L400.02,292.39L381.61,299.58L383.07,300.31L355.69,309.22L390.91,300.13L413.47,294.57L413.45,295.43L323.97,320.75L375.67,307.72L407.92,299.95L396.11,303.81L374.06,310.53L415.22,300.63L422.6,300.09L364.27,315.51L409.52,305.12L413.31,305.17L337.61,324.56L383.57,314.65L348.99,324.11L452.88,299.62L389.9,314.88L424.52,307.57L355.6,324.49L445.67,304.29L355.33,325.72L389.72,318.88L372.7,324.95L448.36,308.57L366.23,328.45L395.74,323.34L344.48,335.63L366.83,332.38L296.33,349L427.91,321.55L386.64,331.1L381,333.3L382.63,334.21L398.12,331.95L432.8,325.69L376.76,337.6L447.04,324.29L402.93,333.49L431.86,328.59L380.47,339.43L386.05,339.53L385.46,340.77L463.28,327.39L359.78,346.88L460.48,330.61L342.33,352.41L371.18,348.64L412,342.29L420.56,341.35L410.12,343.85L412.46,344.32L370.41,352.57L473.45,335.84L357.51,355.31L524.17,327.33L371.47,352.08L379.77,351.81L469.64,337.41L372.43,353.67L389.74,351.98L401.26,350.92L495.29,335.5L464.35,339.57L405.2,349.13L445.88,343.34L360.72,357.17L475.37,339.53L363.94,357.15L483.66,339.05L391.27,352.87L446.3,345.29L370.03,357.12L434.5,348.14L413.52,351.56L422.24,350.69L406.37,353.47L460.42,345.72L413.58,352.42L504.31,338.83L434.68,347.74L467.46,342.94L456.46,343.88L521.08,334.01L391.65,350.86L418.05,347.88L373.95,354.7L441,345.85L458.11,342.94L524.01,332.9L395.99,348.95L444.37,342.31L529.24,329.56L513.84,329.37L516.91,327.11L399.23,341.41L381.87,344.15L512.44,325.89L513.31,323.39L589.91,310.68L440.61,327L355.24,338.73L449.39,326.38L404.84,331.72L469.39,322.39L535.67,311.83L379.58,330.49L488.23,315.4L518.97,309.35L403.67,322.88L491.49,310.43L415.86,319.16L511.2,305.06L502.5,303.92L413.31,313.98L443.49,309.27L523.66,296.52L564.13,287.99L414.99,305.08L509.9,290.99L426.31,299.72L534.91,282.94L492.5,285.71L522.15,279.16L530.9,275.04L487.64,278.15L568.46,264.06L489.16,271.52L471.02,272.06L546.65,258.78L497.16,262.55L429.94,270.43L520.54,255.28L509.22,253.84L507.69,251.39L414.57,263.42L471.35,253.59L457.95,253.75L506.84,243.83L607.35,224.71L457.42,243.38L460.66,241.46L453.05,241.01L589.28,215.59L542.07,218.77L449.62,231.47L501.41,220.78L481.43,221.81L482.68,219.54L413.89,230.45L425.34,227.5L486.52,214.53L479.52,213.44L507.53,205.77L495.71,205.44L494.99,203.16L511.71,197.32L522.96,192.13L545.64,184.35L519.41,186.53L509.4,185.9L535.34,177.43L533.63,174.56L553.21,166.92L500.03,176.21L540.05,163.89L490.41,173.6L489.82,171.68L514.24,163.02L491.93,166.77L500.77,160.17L477.11,165.47L461.48,168.8L514.31,149.78L512.67,145.42L513.25,143.2L471.48,156.89L505.11,141.86L501.3,141.54L486.24,146.07L526.27,123.79L501.58,133.69L498.65,133.59L504.61,128.61L507.91,124.84L507.41,123.55L490.03,134.09L507.55,119.17L496.17,126.93L500.15,121.87L497.68,122.99L506.8,111.35L504.78,112.31L506.73,108.15L502.49,114.14L502.61,112.63L505.65,103.14L504.02,105.91L504.07,105.04L504.46,110.65L504.35,109.17L499.63,89.7L499.99,88.99L502.73,94.12L505.72,98.57L499.62,88.72L512.37,105.24L506.48,97.85L508.01,98.63L497.33,88.65L508.14,97.28L508.56,97.08L486.52,80.71L502.3,91.18L485.09,79.39L499.19,87.79L479.04,75.29L490.34,81.5L516.88,95.58L476.1,74.78L478.88,75.58L474.33,72.8L508.58,88.46L498.48,84.81L513.85,91.06L479.94,78.47L483.07,79.61L460.84,71.51L466.4,73.43L483.5,79.43L456.93,71.18L501.13,85.83L477.28,79.12L502.13,87.6L495.86,86.5L496.67,87.44L446.26,72.92L497.48,88.78L430.2,69.53L490.47,88.33L495.64,90.74L487.8,89.52L441.88,77.69L466.65,85.41L482.1,90.57L451.62,82.78L433.65,78.14L475.59,90.57L469.03,89.67L450.32,85.41L486.91,96.39L469.75,92.73L434.99,83.95L454.41,89.66L400.53,75.15L420.71,81.26L445.61,88.79L479.65,99.05L447.49,91.51L421.29,85.37L440.3,91.3L494.26,106.99L431.37,91.5L424.76,89.95L358.41,71.69L432.66,92.68L410.34,87.03L421.81,90.97L475.77,106.81L454.52,102.46L466.84,106.86L399.89,89.02L370.66,80.82L444.55,102.34L464.89,109.01L369.63,83.26L448.62,107.17L438.18,105.32L421.3,101.21L427.53,103.67L437.82,107.48L438.41,108.7L457.58,115.29L423.97,106.68L452.66,115.86L385.72,97L429.6,110.75L423.11,109.46L400.77,103.62L462.54,123.25L435.86,116.44L408.36,108.87L416.1,111.44L341.95,88.57L402.83,108.05L390.61,104.62L418.82,114.26L395.48,107.46L419.29,115.72L408.22,113.41L383.3,105.82L429.06,121.42L423.82,120.74L437.69,126.2L384.05,109.23L403.93,116.24L389.73,111.94L424.19,124.27L390.19,113.6L441.3,131.87L383.67,112.92L399.14,118.95L429.86,130.28L382.01,114.33L415.95,126.94L373.24,112.2L435.6,135.71L395.13,121.78L394.46,122.05L386.09,119.19L417.22,132.34L431.46,138.62L379.2,119.55L404.25,129.9L430.13,140.88L423.17,139.12L364.24,116.41L403.49,133.18L400.91,132.71L377.67,123.57L379.64,124.69L397.86,132.71L366.41,119.77L376.66,124.44L387.81,129.61L392.97,132.41L381.02,127.8L403.98,138.42L391.05,133.52L415.53,145.25L407.53,142.55L399.8,140.09L439.13,159L373.83,130.1L389.93,138.03L365.14,127.19L402.68,146.47L407.75,149.9L405.11,149.53L373.19,134.13L402.85,150.14L384.22,141.07L395.2,147.6L380.94,141.43L388.8,146.46L401.88,154.25L353.43,127.27L375.91,140.55L361.8,132.78L382.53,145.41L382.38,145.79L371.12,139.61L384.15,148.5L383.01,148.49L388.02,152.16L375.93,145.03L366.1,139.29L393.78,157.44L372.81,145.16L393.66,159.23L351.73,131.76L386.14,155.77L386.77,156.81L379.9,152.71L362.8,141.34L376.49,151.9L386.46,159.94L383.36,158.4L371.46,149.89L366.41,146.4L378.05,155.91L384.47,161.69L381.68,160.27L363.88,146.8L382.65,162.72L372.97,155.37L379.85,161.84L357.87,143.79L383.67,167.09L366.2,152.65L372.8,159.28L381.66,168.23L370.11,157.95L372.3,161.14L368.42,157.94L375.68,165.81L364.38,154.66L361.97,152.58L379.23,172.1L366.62,159.06L362.71,155.32L375.68,170.22L354.11,147.27L375.81,173.41L358.98,153.37L364.57,161.14L360.64,156.71L362.34,159.2L352.34,146.61L373.21,175.15L365.48,165.49L360.7,159.49L369.15,171.78L359.92,159.22L367.22,170.54L360.06,162.05L364.79,170.17L361.21,165.08L362.44,167.83L363.54,170.36L357.15,160.31L353.25,153.88L363.53,172.22L351.75,151.29L359.22,165.38L363.91,174.74L359.9,168.05L362.73,174.28L356.75,162.91L358.28,167.21L361.72,175.57L364.05,183.15L362.05,179.2L354.17,159.91L355.58,165.15L359.14,175.44L355.45,165.94L356.47,170.41L360.95,184.65L354.03,163.59L355.93,171.51L355.59,171.12L358.38,184.03L352.47,159.75L353.3,164.31L356.18,179.09L354.59,172.07L355.97,180.87L354.88,176.05L356.63,188.43L353.56,169.08L353.24,169.8L353.64,174.32L353.29,172.97L354.08,182L353.52,182.92L352.3,167.17L353.55,185.91L352.33,168.28L352.32,174.41L352.49,186.56L352.28,189.25L352.19,178.38L351.9,190.9L352.89,162.59L351.85,182.13L351.21,189.32L352.16,176.6L350.47,190.47L353.05,169.16L350.28,188.38L350.7,184.26L350.01,187.66L347.99,197.66L351.66,179.6L349.69,188.43L353.45,171.45L348.47,194.37L350.48,185.71L347.41,196.84L352.11,180.77L346.95,197.23L352.69,179.96L353.83,177.37L348,193.95L352.35,182.6L344.25,203.95L353.22,181.75L347.67,196.41L352.03,187.14L352.96,185.58L341.07,210.49L358.44,177.79L348.62,197.66L348.81,197.46L356.26,184.13L344.63,205.69L351.93,193.32L357.37,184.06L358.96,181.24L346.33,203.48L359.63,182.25L343.72,209.19L347.87,203.51L352.14,197.33L343.14,211.16L349.18,202.77L356.21,193.11L339.65,216.93L356.53,194.76L344.18,211.73L357.81,194.34L358.91,193.3L342.39,214.99L355.84,199.02L352.37,204.01L347.91,209.67L365.36,189.81L346.94,211.88L352.65,205.83L363.33,194.29L352.24,207.11L345.03,215.37L357.82,202.02L346.68,215.22L350.92,211.22L347.66,214.8L363.05,199.59L349.12,214.4L354.23,210.01L341.82,222.56L349.69,215.26L363.79,202.05L369.31,196.87L358.07,208.2L349.82,216.5L347.05,219.6L349.86,217.5L353.58,214.52L357.51,211.93L336.56,230.56L372.27,200.28L354.64,216.13L350.75,219.84L347.93,223.05L340.74,229.6L357.73,217.01L350.04,223.8L345.66,228.08L321.4,247.78L357.23,220.75L355.01,223.15L335.87,238.17L354.76,224.52L353.09,226.44L340.19,236.65L332.18,243.03L369.72,216.51L356.07,226.63L371.07,216.13L360.75,223.99L361.52,223.85L359.08,226.05L365.9,221.95L319.93,254.98L341.11,241.7L354.2,234.11L347.05,239.25L362.26,230.12L347.55,240L360.8,232.2L357.7,234.85L343.82,243.91L359.68,234.98L348.9,242.13L351.66,241.1L350.39,242.62L346.02,245.79L356.98,240.14L353.53,242.54L383.19,226.33L324.56,260.48L354.28,244.99L357.15,244.13L351.83,247.53L357.7,245.11L352.9,248.39L352.12,249.58L344.16,254.39L370.49,241.47L366.29,244.17L367.15,244.53L322.47,267.62L364.97,247.22L370.16,245.55L334.15,263.84L338.11,262.99L338.51,263.77L359.23,255.6L319.79,274.77L366.99,253.71L349.28,262.77L350.91,262.67L363.05,257.99L370.44,255.41L356.6,262.24L365.81,259.98L334.33,274.31L357.17,265.55L350.46,269.27L391.24,254.69L322.77,282.89L374.96,262.89L321.64,285.36L361.41,270.12L368.18,268.46L352.31,275.28L392.27,260.44L360.46,274.08L363.61,273.86L375.27,270.37L370.44,272.91L374.1,272.54L338.87,286.46L321.51,294.08L328.18,293.07L325.2,295.26L362.37,283.02L368.71,281.77L349.84,289.17L365.78,284.77L359.51,288.06L329.36,299.34L345.98,295.05L345.12,296.57L341.03,299.08L339.93,300.63L359.77,295.35L357.08,297.2L376.48,292.08L329.42,310.16L381.51,295.48L335.25,310.53L344.25,308.87L404.89,291.99L346.16,310.18L301.55,324.62L377.35,303.69L305.69,328.41L383.25,307.14L431.4,294.56L336.24,321.18L397.3,305.43L358.69,317.29L354.53,319.64L357.22,320.15L414.75,305.87L336.02,327.38L395.76,312.81L361.45,322.99L360.71,324.52L331.55,333.49L374.98,323.7L369.09,326.65L297.36,346.07L340.87,336.77L361.25,333.24L334.72,341.17L346.03,340.01L337.96,343.46L392.29,331.72L343,344.77L335.41,348.23L341.52,348.43L387.04,339.4L288.58,363.45L374.48,344.94L382.94,344.67L298.52,365.18L363.08,352.41L274.59,374.34L338.16,361.63L310.58,369.75L381.58,355.04L395.84,353.39L332.39,368.64L355.57,365.44L352.36,367.95L346.71,370.7L416.82,357.43L325.92,377.62L356.8,373.09L335.75,379.52L308.39,387.01L397.58,370.46L331.75,385.32L348.39,383.8L379.92,379.22L424.24,371.88L396.6,378.44L360.9,386.9L336.74,393.46L378.57,387.54L343.85,395.75L366.19,393.42L414.78,386.31L339.79,401.22L340.79,403.13L389.74,396.36L378.77,399.84L398.46,398.13L358.3,406.62L404.44,400.67L348.6,411.56L428.58,400.01L367.19,411.35L439.87,402.96L244.46,435.07L313.93,426.84L301.76,431.39L398.4,417.74L344.7,428L401.54,420.9L422.66,419.19L414.39,421.86L364.74,430.95L423.53,424.21L282.47,446.68L418.56,428.72L243.34,456.47L389.45,436.82L337.86,446.75L319.05,452.04L344.6,450.92L345.55,453.16L384.27,449.57L469.47,438.84L459.63,441.1L394.42,451.34L323.43,463.3L426.89,451.25L452.81,449.01L435.62,452.33L357.21,464.09L419.7,458.08L413.6,460.28L442.31,458.07L379.59,467.17L421.39,463.88L337.64,479.79L495.37,462.38L411.25,472.46L422.08,472.72L390.66,477.86L450.61,472.43L348.58,486.47L436.65,478.65L343.91,490.25L469.92,478.04L364.73,490.14L505.11,476.1L433.45,483.52L365.48,492.21L334.67,498.08L462.35,486.19L483.1,483.98L350.59,498.13L479.67,486.66L325.97,502.3L577.81,477.82L340.78,498.94L462.67,486.81L497.51,482.98L479.65,483.74L309.44,500.44L363.66,498.25L475.73,488.54L300.67,505.51L404.14,498.31L422.12,497.34L635.37,476L373.31,495.73L432.65,489.66L547.74,478.35L346.41,494.67L455.2,484.79L603.35,469.35L589.87,464.89L562.48,462.2L620.09,452.28L384.7,467.21L392.16,467.86L355.98,472.01L501.52,459.41L364.29,469.31L469.23,460.65L539.53,451.78L572.53,444.15L461.27,448.8L636.17,430.38L377.38,445.54L584.38,426.52L675.58,410.99L512.09,415.4L348.07,427.11L446.84,419.24L383.01,423.21L501.46,411.91L427.61,414.77L622.99,394.46L492.23,397.66L639.59,379.86L402.94,392.23L488.19,383.53L478.51,380.42L537.34,371.03L659.97,353.09L740.72,334.3L529.51,339.62L500.83,337.05L378.67,344.47L558.37,325.73L492.44,324.72L517.91,317.53L708.5,292.34L499.08,299.28L590.08,285.15L567.65,278.7L530.38,274.88L536.42,268.01L376.44,278.64L646.68,247.59L577.93,243.55L579.32,235.41L552.43,230.39L508.49,228.34L627.77,208.76L529.71,210.1L497.2,207.99L581.8,192.4L477.52,197.17L580.45,179.41L574.75,172.05L555.67,167.08L444.96,175.61L553.88,156.74L443.33,165.73L667.87,128.15L514.02,140.51L574.08,125.66L509.35,129.68L537.08,120.01L497.75,121.69L501.87,116.51L537.83,104.99L478.34,111.76L561.14,89.89L524.26,92.24L543.41,82.89L526.42,82.12L571.22,65.38L492.67,82.83L502.18,76.43L489.41,77.45L529.84,58.8L495.45,68.93L490.51,68.22L493.84,63.91L486.22,65.43L503.36,51.54L510.78,43.19L504.46,46.1L486.87,63.59L494.97,48.98L499.25,38.6L498.57,39.87L498.66,42.38L498.63,30.61L501.37,32.6L501.29,29.84L510.07,36.97L510.2,34.98L504.05,28.22L489.35,16.27L517.84,31.72L507.04,24.45L523.14,30.86L498.18,18.29L513.34,23.3L511.47,21.13L487.14,10.94L588.39,41.18L501.55,16.61L559.26,33.07L557.01,32.35L518.95,22.51L514.78,20.97L490.76,14.72L565.54,33.19L533.92,26.56L539.14,28.19L515.11,23.33L571.17,36.23L530.77,28.92L534.19,30.49L560.77,37.02L582.09,42.8L515.64,31.75L583.98,46.34L527.56,37.59L503.17,34.16L532.43,40.62L458.02,28.01L512.68,39.09L520.11,41.98L567.22,52.51L530.98,48.49L543.05,52.49L465.51,40.53L516.83,51.13L585.41,65.61L542.14,61.4L530.67,61.69L475.48,53.86L458.14,52.07L547.92,69.65L443.8,53.99L512.12,67.81L571.76,81L538.08,78.62L493.86,73.25L449.71,66.97L502.02,78.1L529.16,85.59L539.41,90.45L503.99,87.23L612.32,109.96L480.04,90.78L525.55,101.47L442.6,88.34L517.11,104.74L503.04,104.75L445.21,95.86L497.92,108.14L488.04,108.8L522.01,118.22L469.3,110.38L467.63,111.99L466.46,113.61L435.25,108.95L495.18,123.66L463.28,119.32L459.15,120.46L480.05,127.03L437.23,119.53L424.14,118.09L494.71,136.36L512.6,143.52L510.33,146.03L437.13,131.06L439.63,133.32L506.57,152.15L444.42,139.46L509.74,158.89L496.94,158.34L420.95,140.28L479.83,158.64L470.85,158.49L458.23,157.05L435.26,152.09L478.44,167.18L431.68,154.86L442.08,160.1L494.62,179.5L469.8,174.15L473.39,177.93L499.95,189.79L453.25,175.47L457.36,179.09L467.34,185.11L459.41,184.35L494.39,201.81L492.06,203.68L460.97,192.05L462.43,194.69L439.68,184.94L455.85,195.71L465.7,203.36L451.21,197.35L467.9,210.03L470.03,213.89L458.86,208.67L456.38,209.04L458.42,212.8L445.69,204.09L454.72,214.85L458.86,221.52L460.17,225.68L454.77,221.96L462.82,236.01L457.43,230.63L450,219.36L445.77,213.76L446.87,221.79L449.22,237.89L445.07,216.05L445.08,241.21L444.36,238.38L443.89,237.72L441.77,243.72L441.78,242.06L436.08,253.18L435.43,254.74L429.67,263.88L444.84,246.63L426.93,265.96L442,252.94L442.82,252.94L418.42,272.9L439.02,257.96L416.19,276.09L453.73,253.53L431.16,267.14L441.51,261.85L440.54,263.23L428.4,270.49L395.14,288.39L426.32,273.99L388.25,293.31L400.7,288.38L417.97,281.72L388.83,295.59L377.73,301.4L435.21,278.18L407.01,290.28L427.23,283.12L374.36,305.75L404.26,295.65L422.27,289.99L412.71,294.34L364.66,312.15L379.93,308.21L395.5,304.01L426.96,294.5L392.35,307.44L393.54,308.29L389.3,310.63L412.79,304.87L328.76,330.63L391.81,313.24L377.65,318.59L400.42,313.12L366.43,323.8L404.12,314.42L397.96,317.24L372.34,325.19L394.55,320.6L369.26,328.46L373.14,328.64L411.44,319.99L402.15,323.12L432.32,316.49L431.31,317.47L412.67,322.74L375.19,332.75L360.53,337.7L352.81,340.94L400.2,331.29L369.18,339.2L473.41,316.66L367.06,340.17L421.65,329.21L366.34,343.59L327.78,353.41L433.08,332.03L360.72,348.22L340.18,354.08L380.36,347.22L384.06,347.64L406.23,344.18L400.46,346.32L434.08,340.64L372.37,353.55L428.91,343.62L364.99,357.91L429.26,347.05L339.04,364.89L410.48,352.69L433.87,349.48L325.8,370.05L411.3,355.76L396.46,359.54L400.11,359.8L457.49,350.46L309.85,377.95L447.25,355.06L412.84,361.52L442.64,357.11L419.73,361.56L461.33,355.24L391.97,367.76L434.58,361.87L415.11,365.49L478.1,356.07L374.46,372.39L406.18,368.68L411.68,368.71L455.44,362.58L374.88,375.27L414.2,370.34L484.25,360.14L358.33,378.65L398.12,374.25L395.87,375.44L498.18,360.79L489.46,361.24L407.06,372.57L356.21,381.01L407.65,375.16L318.91,388.75L469.5,368.33L406.72,376.68L606.08,348.45L399.58,373.26L423.09,370.56L470.94,364.01L486.27,361.35L429.76,368.18L503.64,358.1L459.61,362.69L487.9,358.43L406.11,368.53L369.47,374.15L474.58,360.71L482.84,358.6L436.73,363.58L495.82,355.63L375.44,369.99L529.8,350.05L410.68,363.26L475.77,354.8L476.16,353.55L545.05,343.27L462.24,351.12L449.46,351.9L533.64,340.22L439.06,349.55L473.01,344.83L318.02,363.62L536.27,335.87L514.09,335.7L474.89,338.26L597.18,321.08L339.71,348.87L553.62,321.21L519.74,322.16L377.93,338.14L441.58,330.27L461.67,326.58L533.6,315.43L537.05,311.85L469.57,317.45L562.27,303.46L556.91,300.15L479.35,306.56L404.39,314.21L514.54,298.48L571.53,287.74L450.41,299.39L526.51,287.7L451.81,294.63L460.46,291.9L582.51,273.2L412.07,291.46L497.2,278.68L552.89,267.98L603.69,256.65L454.56,269.81L620.54,243.51L574.41,244.05L396.1,265.79L539.75,242.26L504.13,243.67L495.88,241.92L609.85,221.23L479.74,235.79L467.22,235.66L528.52,223.57L451.1,232.69L597.9,205.77L465.04,222.68L548.42,205.84L493.01,211.78L532,201.93L547.45,195.56L550.78,191.07L522.07,192.73L520.18,190.06L495.86,191.97L475.72,193.46L579.96,169.26L480.95,185.39L551.57,167.33L499.12,175.48L527.69,166.2L496.22,170.7L537.83,157.7L562.85,148.07L523.19,154.62L515.82,153.95L514.08,151.93L516.18,148.79L504.44,149.77L539.33,136.22L518.09,140.11L547.62,127.23L525.11,132.39L521.44,131.3L526.61,126.91L518.62,127.98L518.73,125.59L544.42,110.76L520.7,120.29L533.85,110.44L538.72,105.16L531.22,105.89L543.8,92.97L521.85,112.2L528.94,99.95L527.5,100.87L528.67,96.35L532.44,80.62L531.97,95.49L530.86,88.07L533.25,95.16L533.64,94.87L528.3,84.52L535.76,94.64L518.1,71.95L518.87,71.36L530.87,82.21L526.86,77.35L516.16,68.7L550.24,87.26L530.75,77.1L538.26,80.42L489.89,56.76L528.44,74.9L526.27,73.76L510.27,67.12L546.66,81.58L498.33,63.55L538.32,77.89L452.82,48.34L517.05,70.26L499.45,65.15L520.71,72.43L482.48,61.61L489.61,63.83L439.48,49.75L478.42,60.71L490.85,64.66L517.68,72.71L509.52,71.55L456.93,59.17L519.66,76L498.65,73.04L465,65.15L370.52,41.64L468.72,66.5L393.17,48.06L478.67,70.15L462.68,66.91L458.79,66.79L491.06,75.32L441.71,64.96L534.16,88.19L454.58,71.32L456.96,72.62L475.79,77.86L471.94,78.08L465.03,77.56L497.73,86.42L437.56,74.55L453.1,79.04L516.83,95.18L413.47,72.77L395.94,68.72L453.96,83.15L473.86,89.12L458.5,86.88L467.94,90.2L444.2,85.7L462.05,90.94L444.31,87.82L454.57,91.23L428.94,86.05L439.3,89.18L387.66,77.36L445.13,92.04L464.95,97.9L413.38,86.67L430.03,91.23L398.89,84.19L431.64,92.98L458.3,100.54L422.72,92.92L394.89,86.73L491.2,111.73L415.02,94.64L446.35,103.37L387.85,89.25L432.46,101.2L358.75,82.97L499.89,121.12L418.69,101.89L426.22,104.92L458.65,114.44L405.36,101.4L449.57,114.36L426.4,109.15L439.05,114.58L381.07,99.32L451.22,119.97L408.8,109.02L404.22,108.48L432.57,117.37L411.78,112.4L437.34,120.91L445.63,124.54L432.68,122.02L436.73,124.28L419.67,120.14L409.45,118.61L423.52,123.79L411.77,121.19L450.37,134.56L470.6,142.35L398.97,121.31L432.78,133.13L416.58,128.64L385.99,119.19L397.82,123.7L434.78,138.3L395.61,125.84L400.12,128.06L421.12,136.43L454.52,149.43L381.69,124.84L424.73,141.57L424.36,142.45L420.85,142.37L415.58,141.25L399.46,135.81L400.08,136.71L400.39,137.7L433.55,151.77L370.68,127.54L412.99,145.71L385.98,135.21L419.59,150.52L413.98,149.26L430.11,157.44L400.06,145.38L422.34,156.22L378.56,136.99L384.49,140.39L411.12,153.53L379.12,139.77L416.28,158.64L386.72,145.02L394.01,149.57L410.32,158.71L401.72,155.45L417.23,164.69L403.79,158.45L379.6,146.45L414.23,166.78L387.99,152.92L404.02,163.15L380.03,149.67L407.46,167.3L397.78,162.34L400.15,164.72L374.71,148.95L385.23,156.66L413.39,176.41L404.4,171.77L406.45,175.52L395.63,168.52L379.83,158.42L393.03,169.85L393.07,170.84L389.53,168.82L381.76,162.93L385.19,166.74L394.56,175.84L378.69,162.41L393.94,178.63L393.78,179.6L380.5,167.23L391.1,179.1L384.31,173.89L392.81,184.61L393.98,187.32L390.72,184.58L382.57,175.85L371.05,160.76L373.76,165.22L386.52,184L378.62,173.79L386.89,187.53L380.6,179.75L383.16,185.3L384.28,188.63L381.36,184.25L374.51,171.54L378.87,181.52L379.89,184.92L377.89,181.82L381.12,190.85L377.14,182.32L384.08,202.63L375.9,180.14L382.42,202.84L375.51,182.13L377.49,193.15L375.56,185.46L377.71,200.35L375.08,184.87L375.49,190.97L375.47,194.42L375.37,204.56L374.67,184.89L374.46,201.52L373.95,194.71L371.62,216.58L375.46,185.05L373.46,198.25L371.55,208.51L372.87,199.94L370.88,207.41L376.31,186.16L373.72,195.51L370.25,205.83L369.37,207.89L374.87,192.9L379.79,180.13L364.93,216.8L371.69,203.86L360.39,225.19L373.86,201.4L360.12,225.68L365.19,218.14L367.21,215.51L373.05,207.96L357.32,229.15L358.79,227.63L377.89,205.04L367.42,218.3L373.39,212.24L349.59,238.24L370.13,217.15L366.66,221.21L368.83,219.1L372.53,216.07L350.5,237.79L377.24,212.68L379.54,211.06L357.31,231.97L379.45,213.09L358.55,231.8L371.25,221.2L364.39,227.76L355.8,235.49L358.14,234.84L360.73,233.16L375.91,221.88L360,234.51L364.07,231.95L364.57,232.23L362.32,234.46L354.4,240.66L370.97,229.42L379.25,224.46L331.56,257.56L384.54,222.79L357.13,241.44L356.27,242.78L359.55,241.48L354.69,245.07L378.88,230.2L378.99,230.68L359.99,242.85L389.25,226.35L360.52,244.02L341.12,256.22L366.9,242.07L359.27,247.03L375.08,238.54L366.68,243.88L369.4,242.84L383.6,235.78L350.02,255.25L376.38,242.05L370.47,245.81L352.57,255.59L380.55,242.06L363.26,251.42L371.31,248.07L357.69,255.69L351.28,259.53L376.45,248.19L355.25,259.02L362.39,256.42L356.12,260.26L357.73,260.3L362.65,258.97L343.62,268.25L388.97,248.79L344.6,269.14L361.86,262.32L360,263.92L396.26,249.03L338.08,274.27L395.79,250.43L350.82,270.29L385.22,257.52L353.11,271.33L382.57,260.03L371.82,265.22L364.61,268.85L366.94,268.91L354.66,274.64L363.45,272.11L370.8,270.19L361.74,274.43L371.05,271.79L370.24,273.08L343.1,283.93L376.84,272.47L384.62,270.45L375.85,274.3L362.1,280.02L382.51,273.77L376.15,276.72L387.41,273.51L406.25,267.9L373.86,279.18L404.94,269.68L379.54,278.79L343.05,292.8L376.85,282.9L378.45,283.18L390.06,280.27L381.16,283.75L406.31,276.81L346.25,296.99L357.72,294.63L402.76,281.97L396.3,284.39L409.62,281.42L316.57,308.92L419.8,279.65L335.48,305.7L364.94,298.51L390.18,293L401.1,290.96L325.95,312.52L399.96,293.18L341.61,310.4L304.38,322.17L321.73,319.03L352.31,311.79L459.49,285.02L414.14,296.82L409.46,298.81L372.12,309.32L372.25,310.4L410.65,302.68L359.73,316.09L350.06,320.06L285.1,337.64L371.65,317.5L382.09,316.27L303.37,336.56L330.54,331.47L409.33,313.95L445.14,306.16L392.54,318.8L392.94,319.7L406.88,317.63L361.06,328.9L388.5,323.73L455.39,309.61L409.01,319.85L427.81,316.6L374.55,328.81L397.45,324.9L435.9,317.65L370.96,331.76L385.69,329.9L384.35,331.41L356.18,338.43L359.25,339.18L392.2,333.7L373.36,338.52L391.51,335.86L450.55,325.19L296.49,355.59L442.61,327.57L365.55,343.52L361.72,345.63L342.37,350.94L441.69,332.27L460.37,329.04L406,339.52L405.72,340.52L436.92,335.73L310.51,359.85L404.1,343.75L366.67,351.76L422.79,342.35L387.01,349.58L459.14,337.18L436.43,341.64L327.26,361.61L463.68,338.22L430.24,344.25L413.78,347.6L425.24,346.47L401.07,351.46L334.93,363.95L429.22,349.09L348.29,363.55L412.21,353.92L356.35,365.68L424.8,355.39L407.42,358.86L415.14,358.37L420.25,358.25L445.23,354.76L424.43,358.29L481.34,349.58L471.34,350.9L360.79,367.99L420.46,359.99L414.86,361.35L481.06,351.53L411.27,361.76L390.65,365.78L374.82,369.22L479.44,354.11L445.09,358.58L487.85,352.28L384.08,366.87L449.04,358.4L289.4,382.15L326.82,378.83L458.94,360.3L441.87,362.34L401.06,368.37L445.81,362.58L440.75,363.05L563.07,345.39L447.31,358.32L383.56,367.2L477.56,354.83L367.72,369.14L442.09,358.84L513.91,348.6L429.83,358.25L485.65,350.7L361.22,366.31L573.08,337.73L478.94,346.99L407.07,355.81L398.39,357.54L461.84,349.07L546.32,336.81L305.89,365.79L476.65,343.99L408.67,353.09L551.92,333.19L492.86,337.95L581.77,324.41L438.2,339.59L499.38,330.85L488.84,330.48L434.23,336.06L555.29,318.92L566.04,314.04L478.97,321.99L356.93,337.22L386.51,334.28L446.7,326.2L434.52,326.77L491.41,318.2L488.4,316.57L489.38,314.54L451.3,317.8L472.22,313.81L509.97,306.91L547.3,299.16L539.58,296.73L418.48,309.81L448,305.19L606.05,281.93L417.95,301.3L463.15,294.34L476.53,290.72L445.56,293.06L517.91,281.31L578.38,269.59L552.3,268.49L579.56,260.96L382.88,284.29L452.77,273.83L568.15,254.97L454.3,266.98L509.92,257.08L447.38,263.64L507.74,252.73L539.73,244.93L449.15,255.12L510.46,244.01L436.24,252.8L476.9,244.99L442.41,248.44L477.53,241.04L563.44,224.57L485.5,232.95L492.03,229.58L490.7,227.45L451.02,231.79L518.28,218.2L526.56,213.41L574.74,201.52L474.19,215L523.14,203.89L460.76,212.41L553.41,192.35L557.34,187.51L578.67,179.36L499.22,191.09L484.36,191.8L531.21,179.42L536.74,174.91L506.39,178.58L435.91,192.48L497.36,176.44L478.48,178.57L503.33,170.26L487.66,171.71L531.82,157.71L563.42,146.16L537.05,149.7L495.15,158.93L496.67,156.42L530.21,143.77L502.05,147.76L529.78,135.86L517.47,137.57L538.96,126.99L482.66,145.81L524.84,124.68L535.06,114.82L493.42,135.06L521.41,116.34L504.08,125.45L515.6,115.51L504.95,122.03L505.04,120.5L501.49,122.4L515.2,106.32L511.1,109.36L511.5,107.14L516.93,96.91L513.32,102.4L515.17,95.94L514.29,98.64L513.53,105.08L513.62,106.57L511.56,91.04L509.91,80.74L515.73,98.13L512.67,90.78L503.23,73.21L516.77,92.87L513.42,87.93L506.79,79.85L506.21,78.14L517.61,87.41L518.75,87.62L498.44,72.28L519.69,85.81L529.5,91.46L488.48,67.64L492.54,69.03L511.78,78.28L500.48,72.63L516.15,79.25L494.74,70.25L539.31,88.21L493.05,71.46L524.67,83.38L469.61,63.75L538.76,89.35L491.45,73.51L486.91,72.18L510.21,80.24L474.07,68.8L484.29,72.61L499.53,77.7L459.27,65.83L497.08,77.67L470.76,70.13L438.84,60.78L469.07,69.98L530.26,88.4L442.58,65.02L489.32,78.66L468.5,73.71L471.76,75.24L477.49,77.51L508.42,86.67L450.52,72.38L454.15,73.81L484.5,82.46L440.61,73.11L485.42,85.42L436.84,73.93L473.27,84.03L453.52,79.83L467.9,84.08L365.91,58.43L428.03,74.75L438.45,77.77L414.83,72.33L454.84,83.33L506.81,97.6L415.4,76.05L418.41,77.17L481.19,93.86L397.7,73.79L462.4,91.21L439.64,86.21L439.84,87.13L483.02,100.28L441.51,90.87L402.92,81.42L441.63,92.04L458.56,97.46L458.38,98.54L391.06,82.11L469.53,103.59L462.74,103.23L430.87,96.1L446.45,100.98L438.37,99.79L437.75,100.54L428.74,98.91L413.46,95.54L440.57,103.46L400.06,93.44L447.11,106.94L421.47,101.06L454.46,111L411.47,100.28L422.38,103.84L389.58,95.2L402.2,99.27L456.78,115.39L391.31,99.12L482.3,126.19L491.91,130.77L420.35,112.21L435.1,118.01L416.54,113.47L417.91,114.5L389.06,106.34L408.38,112.69L401.66,111.17L392.09,108.77L415.62,117.31L419.14,119.29L421.78,120.96L404.75,116.33L396.94,114.52L436.55,128.18L471.78,140.84L425.12,127.4L375.35,111.73L437.48,132.99L380.9,114.95L407.65,124.77L405.8,124.58L369.91,112.88L441.09,138.69L424.62,134.21L425.72,135.77L416.92,133.31L368.91,116.39L397.25,127.27L378.95,121.08L415.25,135.49L367.66,118.41L394.8,129.33L404.66,133.82L388.6,128.41L422.53,142.65L410.24,138.8L411.37,140.14L395.1,134.33L422.95,146.56L385.18,131.78L406.99,141.67L389.06,134.6L384.98,133.44L396.07,138.59L352.92,120.26L425.87,153.43L381.86,134.57L391.57,139.88L407.69,147.95L394.37,142.74L419.01,155.34L394.91,144.66L388.18,142.53L395.41,146.85L394.91,147.46L414.44,158.28L384.54,143.86L416.93,161.79L389.64,148.19L407.44,158.76L383.78,146.9L388.76,150.48L419.33,169.15L403.44,161.07L387.68,153.59L386.27,153.33L386.5,153.97L368.71,142.95L390.29,158.03L355.09,135.08L387.13,158L386.68,158.66L390.49,162.84L375.1,152.31L391.55,165.28L390.24,165.01L372.99,152.25L361.71,143.67L377.46,156.52L381.05,160.11L381.26,161.14L384.44,164.35L365.08,148.76L385.05,166.24L368,153.04L380.03,164.47L369.81,155.77L377.46,163.59L380.76,168.46L386.66,174.93L361.36,150.17L366.42,156.09L374.61,165.63L386.68,179.45L377.49,170.31L366.16,158.46L373.7,167.88L374.42,169.56L372.56,168.11L370.06,165.85L381.12,180.68L373.72,172.11L377.68,178.36L364.55,162.27L369.47,170.22L367.55,168.17L371.89,175.79L369.73,173.34L374.45,182.12L370.3,176.89L363.82,165.94L374.3,186.31L369.6,178.26L369.16,178.62L373.68,189.34L371.57,186.09L372.9,190.53L365.38,172.6L368.02,180.19L360.01,158.98L365.96,175.83L365.56,175.74L367.53,182.78L362.42,167.84L368.07,187.15L371.13,199.46L365.55,179.31L363.22,170.77L366.36,187.06L367.01,192.34L363.22,173.78L368.06,205.71L363.87,177.77L364.24,186.21L363.93,185.58L364.08,196.33L363.11,176.81L362.27,194.17L362.89,178.47L361.92,190.05L361.16,196.26L362.61,180.38L361.76,185.77L359.08,202.38L362.28,183.68L358.76,199.96L358.82,199.12L357.9,202.33L361.64,187.72L359.83,194.13L355.83,206.03L359.18,196.4L356.61,203.01L362.57,188.18L366.37,179.89L353.72,210.2L355.9,205.83L359.21,199.27L363.45,191.19L353.73,209.78L358.51,201.76L360.39,198.78L349.09,217.46L359.67,202.22L358.89,203.66L351.49,214.28L360.58,201.97L357.18,207.78L355.77,209.91L354.3,211.91L361.2,203.75L359.06,206.5L363.45,201.78L338.78,231.27L358.99,208.51L362.57,204.92L351.43,217.57L366.61,201.93L358.26,211.23L356.33,213.59L358.73,211.64L349.73,221.33L349.93,221.49L360,211.8L374.42,197.89L362.21,210.53L350.77,221.92L352.7,220.61L363.73,210.84L361.83,213.22L329.6,242.79L362.68,214.2L354.5,222.1L353.13,223.51L362.76,216.13L358.69,219.99L357.13,221.74L358.75,221.07L343.07,234.34L364.12,219.02L349.02,231.34L345.81,234.37L356.19,227.1L366.79,219.87L366.47,220.52L361.71,224.59L344.82,237.16L365.74,223.03L354.09,232.64L364.52,226.14L354.83,233.16L360.71,229.88L347.39,239.1L373.94,222.35L371.13,224.73L350.34,238.22L382.09,218.9L348.02,240.73L369.42,227.81L365.45,230.93L364.13,232.3L339.24,248.86L374.3,228.69L344.38,247.52L348.43,245.85L378.84,228.97L364.6,237.8L384.15,227.5L367.98,236.85L372.62,234.83L367.55,238.24L365.53,240.06L342.61,253.26L323.93,264L362.49,244.48L381.81,235.11L343.68,255.24L348.4,253.53L381.05,237.93L329.94,264.18L360.49,249.76L331.94,264.96L361.15,251.2L348.71,258.13L361.81,252.28L380.18,244.13L369.31,249.71L383.65,243.52L377.71,247.06L342.64,263.9L367.89,254.07L348.03,263.56L380.2,250.08L351.58,263.45L355.5,262.54L356.1,263.33L341.51,270.45L355.78,265.15L382.45,254.73L355.47,266.63L352.51,268.61L384.72,256.26L369.87,263.04L339.47,275.92L389.95,256.69L358.68,269.63L388.94,258.53L341.96,277.68L349.44,275.82L345.9,278.38L341.95,280.79L367.36,271.95L395.96,262.06L356.25,277.45L328.54,288.87L328.81,290.07L372.71,275.98L367.97,278.47L359.6,282.22L392.29,271.76L355.5,286.16L361.89,285.22L337.05,294.46L396.74,275.43L345.1,294.91L398.13,278.82L366.87,289.45L385.2,284.51L379.1,287.44L351.32,297.02L354.95,297.07L373.44,292.5L374.58,293.27L318.23,311.22L368.48,298.84L338.9,308.46L381.7,297.06L375.18,299.91L378.22,299.86L405.43,293.27L344.8,310.99L353.54,310L327.4,318.52L400.87,299.28L385.6,304.4L335.9,318.65L397.86,303.31L354.32,315.91L345.74,320.72L420.24,302.33L372.05,315.29L394.82,310.59L354.77,321.93L342.34,326.27L416.51,308.91L376.32,319.51L383.3,318.95L354.91,327.18L345.6,330.89L344.06,332.77L360.73,330.23L349.66,334.06L409.42,321.15L405.61,323.03L333.89,340.45L336.54,341.57L367.31,336.21L325.17,347L395.51,332.44L397.43,333L418.28,329.36L378.99,338.98L300.48,357.42L349.67,348.49L397.68,339.55L372.29,345.89L413.05,339.74L377.91,347.81L412.39,342.08L377.06,350.22L375.63,351.79L402.57,347.78L386.73,352.06L332.94,364.03L302.43,371.95L378.07,358.89L394.51,356.87L432.96,350.48L430.78,351.54L435.13,351.55L373.95,363.54L355.93,368.68L248.76,390.17L379.39,368.05L315.89,381.21L386.09,369.93L382.87,371.97L365.39,376.38L422.95,367.61L381.55,375.81L430.5,369.99L312.39,390.8L467.74,365.62L420.94,373.9L373.87,382.81L340.47,390.25L360.36,388.68L465.4,372.6L408.87,382.16L312.02,399.04L415.09,384.23L406.12,386.69L406.61,387.54L474.82,377.83L436.5,383.82L417.79,387.46L349.47,400.42L396.64,395.07L396.78,396.38L328.36,407.82L444.92,392.24L386.18,401.32L450.23,393.22L386.16,402.83L490.99,388.96L379.08,404.46L357.44,409.21L419.76,403.5L387.83,408.86L371.72,412.49L440.13,404.45L444.01,404.3L465.75,401.73L330.19,420.59L477.99,402.49L528.16,395.53L413.4,408.82L368.64,415.7L459.31,405.44L385.4,414.79L414.56,412.29L469.1,406.22L421.94,411.76L380.08,417.61L426.07,413.23L403.14,416.49L393.61,418.58L392.88,419.83L366.76,424.06L486.78,410.7L413.97,418.44L421.75,418.21L408.82,420.27L450.61,415.74L425.97,418.5L353.83,427.49L347.49,430.09L504.84,412.88L500.89,411.63L414.64,420.01L498.36,410.75L535.84,404.9L399.97,417.53L426.11,415.43L368.52,422L478.08,410.75L375.69,420.69L694.04,385.17L381.38,410.77L416.42,408.08L540.34,393.99L502.94,394.79L516.17,391.19L492.75,391.32L331.53,407.32L386.14,403.16L568.23,382.78L536.28,381.7L566.46,375.04L505,377.32L587.61,365.68L403.58,380.21L453.32,374.83L479.88,370.37L479.29,368.15L406.9,373.1L521.74,359.83L474.93,361.18L568.77,348.55L425.12,359.05L490.74,350.91L519.91,344.72L511.35,341.79L582.54,330.33L478.01,335.88L552.4,325.02L422.77,334.42L500.03,324.52L502.91,320.55L619.78,303.58L443.62,315.81L445.22,314.08L474.89,308.59L588.99,292.24L395.23,308.01L483.46,296.97L481.27,294.02L441.33,295.71L489.66,287.97L409,294.36L551.07,275.51L533.38,272.18L577.16,262L617.46,251.08L371.68,274.21L478.88,260.06L510.01,252.71L481.69,252.23L565.48,237.7L631.83,223.19L427.14,242.56L610.51,214.87L524.09,219.65L576.52,207.75L526.91,209.26L443.44,217.42L593.4,192.01L457.16,206.43L516.67,194.36L478.46,196.46L612.58,170.63L603.5,165.49L452.59,185.39L522.91,170.21L527.37,165.3L553.64,156.14L503.15,161.4L541.95,150.22L466.75,161.92L475.87,157.56L481.42,153.7L518.83,142.17L485.02,146.76L481.08,145.11L489.69,140.25L530.12,126.67L477.62,137.4L542.83,115.63L533.55,114.53L541.37,108.4L536.85,106.43L534.57,103.86L541.42,98.06L496,112.71L500.49,108.46L503.1,104.58L549.93,74.24L519.57,90.08L516.35,90.14L524.17,81.23L521.2,81.94L528.62,70.41L524.03,75.73L521.52,80.23L520.36,84.22L521.38,62.54L522.37,63.81L523,63.06L527.27,68.54L522.26,60.35L532.9,70.75L528.14,65.17L533.89,68.63L509.72,48.68L531.18,60.87L529.73,59.11L507.2,46.49L511.44,47.46L529.01,54.62L506.62,44.56L553.71,63.43L498.78,41.5L514.94,46.76L544.85,56.96L524.86,50.27L512.64,46.77L541.35,55.27L513.13,47.93L555.03,59.91L525.42,52.74L482.31,41.83L523.12,52.72L541.74,58.24L541.23,59.2L508.57,52.24L509.3,52.82L444.96,37.89L503.72,52.45L476.85,47.06L475.57,47.06L435.17,38.27L510.41,55.69L470.75,47.89L447.9,43.39L491.8,53.5L500.11,56.46L531.32,64.4L467.16,52.48L476.41,55.12L473.08,55.28L493.81,60.72L501.64,63.62L459.07,56.29L512.63,68.56L552.57,78.62L492.76,70.47L387.13,49.8L381.8,48.57L501.64,74.32L471.36,71.64L481.52,74.95L460.37,72.13L507.85,83.4L507.72,85.35L433.45,72.2L538.14,95.28L456.91,81.36L525.25,97.2L413.04,76.06L480.22,91.67L529.79,104.2L495.67,99.66L434.94,88.22L418.92,85.58L498.98,104.42L427.46,90.83L461.04,99.41L416.6,90.72L456.3,100.72L411.65,91.81L435.52,98.26L457.11,104.47L444.24,102.96L414.45,97.19L443.39,104.89L419.31,100.29L386.08,93.16L437.49,106.23L423.41,104.05L422.06,104.91L468.7,117.65L478.02,121.78L422.92,109.99L407.71,107.04L441.49,116.53L409.74,110.83L438.42,119.17L396.79,109.62L463.12,128.27L416.04,117.55L462.22,131.43L454.09,130.75L376.53,110.82L430.82,126.85L422.84,125.92L459.62,137.83L396.76,121.34L449.38,138.03L437.06,135.89L429.64,135.08L419.11,133.14L460.87,147.43L429.35,139.57L483.7,158.62L453.06,150.79L394.65,132.86L413.01,139.77L410.01,139.55L379.73,130.12L466.03,161.98L435.63,153.03L402.29,142.27L451.26,161.91L445.82,161.6L430.51,157.14L393.42,143.36L416.66,153.81L429.72,160.38L406.66,152L406.4,152.77L396.69,149.4L413.02,157.65L410.63,157.87L438.65,172.14L428.89,169.03L390.43,151.9L423.25,168.84L376.27,146.27L401.14,160.24L431,177L403.18,163.79L419.53,174.09L417.23,174.16L429.39,182.72L414.12,175.29L439.15,192.22L408.96,174.41L381.53,156.89L397.03,168.07L385.86,161.22L414.05,182.65L402.2,175.27L403.33,177.41L404.92,179.67L395.64,173.54L418.98,194.4L416,193.37L395.34,176.26L410.94,192.39L415.4,198.15L394.38,177.8L387.42,171.1L403.7,190.63L408.42,199.61L393.73,181.88L403.65,197.13L401.72,195.85L399.57,194.27L403.27,202.06L398.27,194.88L401.47,202.93L398.91,199.22L393.43,188.24L398.46,202.72L394.1,192.63L396.71,202.96L395.31,200.54L398.01,214.38L395.89,207.35L393.69,197.06L395.42,215.5L394.04,206.21L394.21,222.79L393.68,218.15L393.97,204.78L392.16,215.54L391.97,214.9L391.99,213.4L393.43,206.19L387.78,223.73L392.5,209.62L389.97,216.21L384.55,229L388.8,219.86L385.72,225.86L375.66,243.38L399.26,205.09L383.45,229.7L389.43,221.92L394.1,216.86L382.14,231.44L383.24,230.49L386.05,227.91L379.06,236.01L384.06,231.5L387.34,228.88L377.16,238.72L380.84,236L377.33,239.53L390.07,229.29L376.96,240.68L366.1,249.97L399.53,226.3L366.4,250.54L383.95,238.75L372.5,247.48L377.89,244.21L391.55,235.67L391.09,236.58L362.76,255.18L382.26,243.76L365.69,254.75L373.78,250.51L368.72,254.37L365.64,256.81L379.77,249.39L388.74,245.07L365.02,258.71L371.56,255.98L371.64,257.02L336.2,276.28L382.65,252.97L387.26,251.37L372.53,259.23L375.92,258.44L366.35,263.94L370.41,262.92L352.67,272.2L365.83,267L359.95,270.69L352.55,274.87L371.03,267.54L368.62,270.14L386.88,263.11L388.69,263.03L381.29,266.7L397.2,261.69L376.43,270.54L381.85,269.27L376.96,272.28L322.13,294.1L383.35,271.76L363.86,279.94L390.6,270.87L324.08,296.27L376.31,277.89L383.79,276.14L374.73,279.99L389.25,275.75L371.83,282.81L354.11,289.94L376.85,282.99L411.41,271.97L398.35,276.97L356.9,291.52L364.73,290.2L353.23,295.02L387.61,284.84L369.92,292.25L389.46,287.18L372.11,293.23L420.75,279.28L362.6,297.43L357.96,299.92L381.42,294.07L386.99,293.52L318.08,314.62L366.66,301.7L363.18,304.03L334.27,313.48L346.69,311.19L392.66,299.2L390.96,300.54L366.03,308.37L368.11,308.85L424.16,294.54L383.94,306.55L377.56,309.55L323.17,324.79L423.43,299.58L433.18,297.74L382.53,310.98L359.11,318.1L391.24,311.2L425.06,304.39L371.26,317.85L434.88,303.6L381.56,316.89L346.85,326.19L399.39,315.02L413.43,312.68L360.67,325.56L374.84,323.48L432.45,311.44L376.47,324.52L363.46,328.57L411.93,318.97L397.28,323.01L362.09,331.47L456.74,311.92L383.52,328.5L395.57,327.13L405.28,326.02L400.63,327.79L403.37,328.23L355.8,338.89L410.97,330.11L312.26,350.63L419.85,331.54L362.48,343.49L372.3,342.83L447.18,329.23L329.14,353.13L459.52,329.23L461,329.54L370.55,346.49L400.25,342.16L460.23,332.43L318.11,358.03L394.28,345.78L400.49,345.59L477.57,332.69L360.45,352.71L463.66,335.76L369.09,352.17L423.62,343.69L431.33,343.17L303.73,365.52L436.63,344.75L395.88,351.91L423.8,348.18L381.88,355.67L505.73,335.66L426.14,348.5L394.06,354.33L447.65,346.37L411.07,352.4L416.83,352.11L431.35,350.74L424.81,351.98L490.91,341.87L461.99,345.44L488,341.23L409.06,352.48L430.82,349.95L325.61,366.26L453.56,347.74L428.99,351.24L358.84,362.05L500.48,341.51L494.42,341.06L515.99,336.83L410.02,350.8L398.44,353.17L405.5,352.65L550.36,331.36L550.28,328.97L366.18,352.51L435.4,343.45L551.11,326.42L393.68,345.84L470.65,335.38L343.12,353.09L360.62,351.99L461.82,337.69L489.57,332.91L425.54,340.72L478.93,332.94L480.14,331.56L494.87,328.28L427.58,336.13L550.31,318.47L382.48,338.84L436.92,331.69L591.17,308.91L462.28,322.52L477.83,319.46L445.81,322.73L477.72,317.47L425.78,323.32L516.78,309.85L472.57,313.5L566.41,298.78L433.72,313.46L531.29,298.82L489.31,301.81L531.67,293.8L510.48,294.03L361.05,312.96L456.1,299.76L408.2,305.56L381.16,309.2L526.92,287.53L517.08,285.83L518.15,283.01L469.35,287.63L420.67,293.33L504.97,280.12L423.43,289.7L518.92,272.91L473.88,276.76L465.59,276.24L524.54,265.71L410.2,280.02L478.04,268.64L664.08,237.42L604.1,239.51L480.41,253.96L413.86,263.1L513.26,246.08L426.52,257.46L430.61,255.93L458.92,250.04L543.54,233.89L490.75,239.2L463.91,241.66L478.3,237.51L512.42,229.4L518.12,225.62L468.41,231.51L539.94,216.74L473.27,225.36L518.04,215.11L471.03,221.16L462.59,220.93L502.48,211.61L433.75,222.37L548.42,197.9L520.73,199.92L429.19,214.91L502.86,197.75L537.55,187.49L557.12,179.98L487.1,191.86L547.31,175.78L533.52,175.65L533.62,172.64L505.81,176.52L571.01,157.56L476.83,177.89L585.13,145.79L491.99,165.77L519.67,155.42L509.34,156.4L492.16,160.04L486.54,160.18L529.07,143.34L476.94,159.93L483.67,155.84L534.3,128.96L512.93,136L520.61,130.35L518.09,129.53L535.74,118.15L491.01,141.5L509.35,128.13L505.78,129L516.17,119.6L514.31,119.4L510.78,120.87L510.4,119.78L520.88,104.39L517.15,107.9L517.13,106.66L511.56,117.6L516.59,96.87L515.61,102.49L515.63,105.33L516.82,114.61L513.91,102.58L515.7,107.46L509.73,90.86L506.07,84.52L519.03,100.17L508.69,88.68L515.58,94.94L513.47,92.3L501.88,82.05L510.99,88.04L530.07,100.72L503.29,84.05L516.93,91.66L514.73,90.12L475.2,68.86L489.73,75.78L485.52,73.29L522.24,91.13L536.11,97.75L512.53,88.03L476.45,72.13L525.87,92.86L517.58,90.15L488.6,79.33L451.57,65.68L511.89,88.11L506.79,86.85L479.98,78.21L505.87,87.37L481.53,79.76L500.78,86.62L446.59,69.4L478.14,79.72L466.73,76.54L489.13,83.95L439.54,69.14L482.97,82.78L435.04,68.8L515.55,94.08L490.99,87.85L451.16,76.77L451.38,76.74L405.81,63.26L452.03,77.54L457.93,79.8L487.18,88.94L475.77,86.82L489.61,91.65L473.85,88.21L426.01,75.75L431.41,77.5L450.32,83.16L429.11,78.06L482.22,93.36L468,90.62L442.36,84.52L427.01,80.79L453.15,88.41L444.56,86.98L473.8,95.63L415.34,80.96L444.22,89.1L384.82,73.68L476.35,99.22L427.6,87.33" style="vector-effect: non-scaling-stroke; fill: none; stroke: rgb(239, 85, 59); stroke-opacity: 1; stroke-width: 2px; opacity: 1;"/></g><g class="points"/><g class="text"/></g></g></g><g class="overplot"/><path class="xlines-above crisp" d="M79,520.5H693M79,99.5H693" style="fill: none; stroke-width: 1px; stroke: rgb(0, 0, 0); stroke-opacity: 1;"/><path class="ylines-above crisp" d="M79.5,100V520M692.5,100V520" style="fill: none; stroke-width: 1px; stroke: rgb(0, 0, 0); stroke-opacity: 1;"/><g class="overlines-above"/><g class="xaxislayer-above"><g class="xtick"><text text-anchor="middle" x="0" y="535.4" transform="translate(141.2,0)" style="font-family: 'Open Sans', verdana, arial, sans-serif; font-size: 12px; fill: rgb(42, 63, 95); fill-opacity: 1; white-space: pre; opacity: 1;">2</text></g><g class="xtick"><text text-anchor="middle" x="0" y="535.4" style="font-family: 'Open Sans', verdana, arial, sans-serif; font-size: 12px; fill: rgb(42, 63, 95); fill-opacity: 1; white-space: pre; opacity: 1;" transform="translate(263.6,0)">1</text></g><g class="xtick"><text text-anchor="middle" x="0" y="535.4" style="font-family: 'Open Sans', verdana, arial, sans-serif; font-size: 12px; fill: rgb(42, 63, 95); fill-opacity: 1; white-space: pre; opacity: 1;" transform="translate(386,0)">0</text></g><g class="xtick"><text text-anchor="middle" x="0" y="535.4" style="font-family: 'Open Sans', verdana, arial, sans-serif; font-size: 12px; fill: rgb(42, 63, 95); fill-opacity: 1; white-space: pre; opacity: 1;" transform="translate(508.4,0)">1</text></g><g class="xtick"><text text-anchor="middle" x="0" y="535.4" style="font-family: 'Open Sans', verdana, arial, sans-serif; font-size: 12px; fill: rgb(42, 63, 95); fill-opacity: 1; white-space: pre; opacity: 1;" transform="translate(630.8,0)">2</text></g></g><g class="yaxislayer-above"><g class="ytick"><text text-anchor="end" x="76.6" y="4.199999999999999" transform="translate(0,520)" style="font-family: 'Open Sans', verdana, arial, sans-serif; font-size: 12px; fill: rgb(42, 63, 95); fill-opacity: 1; white-space: pre; opacity: 1;">15</text></g><g class="ytick"><text text-anchor="end" x="76.6" y="4.199999999999999" style="font-family: 'Open Sans', verdana, arial, sans-serif; font-size: 12px; fill: rgb(42, 63, 95); fill-opacity: 1; white-space: pre; opacity: 1;" transform="translate(0,436)">10</text></g><g class="ytick"><text text-anchor="end" x="76.6" y="4.199999999999999" style="font-family: 'Open Sans', verdana, arial, sans-serif; font-size: 12px; fill: rgb(42, 63, 95); fill-opacity: 1; white-space: pre; opacity: 1;" transform="translate(0,352)">5</text></g><g class="ytick"><text text-anchor="end" x="76.6" y="4.199999999999999" style="font-family: 'Open Sans', verdana, arial, sans-serif; font-size: 12px; fill: rgb(42, 63, 95); fill-opacity: 1; white-space: pre; opacity: 1;" transform="translate(0,268)">0</text></g><g class="ytick"><text text-anchor="end" x="76.6" y="4.199999999999999" style="font-family: 'Open Sans', verdana, arial, sans-serif; font-size: 12px; fill: rgb(42, 63, 95); fill-opacity: 1; white-space: pre; opacity: 1;" transform="translate(0,184)">5</text></g><g class="ytick"><text text-anchor="end" x="76.6" y="4.199999999999999" style="font-family: 'Open Sans', verdana, arial, sans-serif; font-size: 12px; fill: rgb(42, 63, 95); fill-opacity: 1; white-space: pre; opacity: 1;" transform="translate(0,100)">10</text></g></g><g class="overaxes-above"/></g></g><g class="polarlayer"/><g class="smithlayer"/><g class="ternarylayer"/><g class="geolayer"/><g class="funnelarealayer"/><g class="pielayer"/><g class="iciclelayer"/><g class="treemaplayer"/><g class="sunburstlayer"/><g class="glimages"/><defs id="topdefs-2fbba7"><g class="clips"/><clipPath id="legend2fbba7"><rect width="84" height="48" x="0" y="0"/></clipPath></defs><g class="layer-above"><g class="imagelayer"/><g class="shapelayer"/></g><g class="infolayer"><g class="legend" pointer-events="all" transform="translate(704.24,100)"><rect class="bg" shape-rendering="crispEdges" width="84" height="48" x="0" y="0" style="stroke: rgb(68, 68, 68); stroke-opacity: 1; fill: rgb(255, 255, 255); fill-opacity: 1; stroke-width: 0px;"/><g class="scrollbox" transform="" clip-path="url(#legend2fbba7)"><g class="groups"><g class="traces" transform="translate(0,14.5)" style="opacity: 1;"><text class="legendtext" text-anchor="start" x="40" y="4.680000000000001" style="font-family: 'Open Sans', verdana, arial, sans-serif; font-size: 12px; fill: rgb(42, 63, 95); fill-opacity: 1; white-space: pre;">trace 0</text><g class="layers" style="opacity: 1;"><g class="legendfill"/><g class="legendlines"><path class="js-line" d="M5,0h30" style="fill: none; stroke: rgb(99, 110, 250); stroke-opacity: 1; stroke-width: 2px;"/></g><g class="legendsymbols"><g class="legendpoints"/></g></g><rect class="legendtoggle" x="0" y="-9.5" width="78.375" height="19" style="fill: rgb(0, 0, 0); fill-opacity: 0;"/></g><g class="traces" transform="translate(0,33.5)" style="opacity: 1;"><text class="legendtext" text-anchor="start" x="40" y="4.680000000000001" style="font-family: 'Open Sans', verdana, arial, sans-serif; font-size: 12px; fill: rgb(42, 63, 95); fill-opacity: 1; white-space: pre;">trace 1</text><g class="layers" style="opacity: 1;"><g class="legendfill"/><g class="legendlines"><path class="js-line" d="M5,0h30" style="fill: none; stroke: rgb(239, 85, 59); stroke-opacity: 1; stroke-width: 2px;"/></g><g class="legendsymbols"><g class="legendpoints"/></g></g><rect class="legendtoggle" x="0" y="-9.5" width="78.375" height="19" style="fill: rgb(0, 0, 0); fill-opacity: 0;"/></g></g></g><rect class="scrollbar" rx="20" ry="3" width="0" height="0" x="0" y="0" style="fill: rgb(128, 139, 164); fill-opacity: 1;"/></g><g class="g-gtitle"/><g class="g-xtitle"/><g class="g-ytitle"/></g></svg>