<svg class="main-svg" xmlns="http://www.w3.org/2000/svg" xmlns:xlink="http://www.w3.org/1999/xlink" width="800" height="600" style="" viewBox="0 0 800 600"><rect x="0" y="0" width="800" height="600" style="fill: rgb(255, 255, 255); fill-opacity: 1;"/><defs id="defs-acbd71"><g class="clips"><clipPath id="clipacbd71xyplot" class="plotclip"><rect width="612" height="420"/></clipPath><clipPath class="axesclip" id="clipacbd71x"><rect x="80" y="0" width="612" height="600"/></clipPath><clipPath class="axesclip" id="clipacbd71y"><rect x="0" y="100" width="800" height="420"/></clipPath><clipPath class="axesclip" id="clipacbd71xy"><rect x="80" y="100" width="612" height="420"/></clipPath></g><g class="gradients"/><g class="patterns"/></defs><g class="bglayer"/><g class="layer-below"><g class="imagelayer"/><g class="shapelayer"/></g><g class="cartesianlayer"><g class="subplot xy"><g class="layer-subplot"><g class="shapelayer"/><g class="imagelayer"/></g><g class="gridlayer"><g class="x"><path class="xgrid crisp" transform="translate(167.43,0)" d="M0,100v420" style="stroke: rgb(235, 240, 248); stroke-opacity: 1; stroke-width: 1px;"/><path class="xgrid crisp" transform="translate(276.71000000000004,0)" d="M0,100v420" style="stroke: rgb(235, 240, 248); stroke-opacity: 1; stroke-width: 1px;"/><path class="xgrid crisp" transform="translate(495.29,0)" d="M0,100v420" style="stroke: rgb(235, 240, 248); stroke-opacity: 1; stroke-width: 1px;"/><path class="xgrid crisp" transform="translate(604.57,0)" d="M0,100v420" style="stroke: rgb(235, 240, 248); stroke-opacity: 1; stroke-width: 1px;"/></g><g class="y"><path class="ygrid crisp" transform="translate(0,436)" d="M80,0h612" style="stroke: rgb(235, 240, 248); stroke-opacity: 1; stroke-width: 1px;"/><path class="ygrid crisp" transform="translate(0,352)" d="M80,0h612" style="stroke: rgb(235, 240, 248); stroke-opacity: 1; stroke-width: 1px;"/><path class="ygrid crisp" transform="translate(0,184)" d="M80,0h612" style="stroke: rgb(235, 240, 248); stroke-opacity: 1; stroke-width: 1px;"/></g></g><g class="zerolinelayer"><path class="xzl zl crisp" transform="translate(386,0)" d="M0,100v420" style="stroke: rgb(235, 240, 248); stroke-opacity: 1; stroke-width: 2px;"/><path class="yzl zl crisp" transform="translate(0,268)" d="M80,0h612" style="stroke: rgb(235, 240, 248); stroke-opacity: 1; stroke-width: 2px;"/></g><path class="xlines-below"/><path class="ylines-below"/><g class="overlines-below"/><g class="xaxislayer-below"/><g class="yaxislayer-below"/><g class="overaxes-below"/><g class="plot" transform="translate(80,100)" clip-path="url(#clipacbd71xyplot)"><g class="scatterlayer mlayer"><g class="trace scatter trace8fc74f" style="stroke-miterlimit: 2; opacity: 1;"><g class="fills"/><g class="errorbars"/><g class="lines"><path class="js-line" d="M371.57,168L352.47,178.97L351.6,179.45L322.68,196.04L322.13,196.41L312.21,203.74L311.76,204.11L302.57,212.98L302.21,213.38L293.71,224.15L293.39,224.61L282.92,240.79L282.58,241.34L267.71,264.42L267.25,265.08L255.81,279.95L255.23,280.64L244.16,292.24L243.44,292.91L233.3,301.28L232.46,301.89L222.58,308.14L221.62,308.65L211.53,313.18L210.47,313.56L200.5,316.23L199.35,316.44L189.88,317.28L188.67,317.28L180.05,316.48L178.8,316.25L170.07,313.68L168.82,313.17L161.46,309.28L160.26,308.49L153.29,302.82L152.17,301.71L145.92,294.06L144.96,292.61L140.59,284.58L139.82,282.82L136.55,273.21L136.02,271.13L134.15,259.94L133.94,257.55L133.81,244.84L133.98,242.15L135.91,228.07L136.52,225.13L140.82,209.92L141.94,206.78L147.28,194L148.84,190.76L156,177.68L158.02,174.4L167.03,161.28L169.51,158.02L180.3,145.17L183.22,142.02L195.68,129.74L198.98,126.77L212.9,115.36L216.54,112.65L231.64,102.41L235.53,100.01L251.44,91.17L255.49,89.16L271.83,81.91L275.94,80.31L292.29,74.78L296.34,73.61L316.18,69.11L320.03,68.47L338.56,66.55L342.09,66.41L358.73,66.87L361.84,67.17L376.16,69.71L378.77,70.4L388.35,73.69L390.52,74.64L400.04,79.99L401.68,81.18L408.57,87.51L409.69,88.85L414.1,95.8L414.75,97.23L416.91,104.49L417.14,105.95L417.35,113.25L417.22,114.7L415.36,123.25L414.89,124.65L411.25,132.77L410.53,134.08L404.66,142.86L403.73,144.05L395.67,153.07L394.61,154.13L383.55,163.94L382.42,164.85L367.82,175.51L366.71,176.25L344.05,190.39L343.11,190.95L310.38,211.26L309.74,211.7L296.47,221.66L295.94,222.1L281.55,234.72L281.07,235.16L260.07,253.84L259.55,254.26L248.54,261.91L247.95,262.26L238.87,266.76L238.24,267.01L229.82,269.49L229.16,269.61L221.75,270.22L221.07,270.2L214.3,269.2L213.63,269.02L207.73,266.56L207.1,266.19L202.24,262.55L201.67,262L197.45,256.81L196.98,256.06L193.71,249.2L193.38,248.24L191.6,240.82L191.43,239.67L190.98,229.6L191.05,228.24L192.35,218.14L192.66,216.62L195.81,205.5L196.4,203.86L201.58,191.99L202.47,190.26L209.78,178.01L210.97,176.25L220.38,164.03L221.87,162.31L233.21,150.6L234.95,148.98L247.89,138.23L249.83,136.78L263.9,127.4L265.97,126.18L280.62,118.5L282.72,117.54L297.33,111.76L299.38,111.07L313.35,107.26L315.27,106.86L328.07,104.94L329.79,104.8L341,104.6L342.47,104.69L353.01,106.22L354.17,106.51L362.15,109.48L362.99,109.92L367.89,113.34L368.46,113.86L371.86,118.34L372.15,118.92L373.52,123.66L373.58,124.26L373.27,129L373.14,129.58L371.26,134.68L370.97,135.23L367.14,140.9L366.74,141.39L360.01,147.98L359.54,148.37L350.78,154.56L350.29,154.86L338.52,161.14L338.11,161.34L321,168.46L320.76,168.55L309.46,174L309.36,174.07L305.68,177.74L305.61,177.83L302.76,183.39L302.71,183.52L298.5,197L298.43,197.25L286.25,236.77L286.05,237.33L277.81,258.26L277.5,258.97L269.52,275.76L269.1,276.57L259.8,292.81L259.23,293.7L249.73,307.4L249.02,308.33L238.79,320.47L237.92,321.4L226.44,332.35L225.4,333.24L212.87,342.49L211.64,343.27L199.78,349.74L198.38,350.38L186.55,354.79L184.99,355.24L173.65,357.61L171.97,357.83L161.57,358.39L159.79,358.35L148.89,357.18L147.05,356.82L137.74,354.24L135.87,353.55L126.55,349.22L124.7,348.17L115.63,341.84L113.86,340.36L105.38,331.8L103.77,329.86L97.71,321.23L96.31,318.86L91.21,308.53L90.09,305.73L86.28,293.65L85.52,290.4L83.35,276.58L83.04,272.91L82.88,257.43L83.13,253.36L85.34,236.39L86.23,231.98L89.71,218.4L91.16,213.78L96.41,199.63L98.47,194.85L105.59,180.34L108.28,175.48L117.32,160.85L120.66,155.99L131.62,141.52L135.59,136.75L148.4,122.72L152.96,118.15L167.49,104.85L172.59,100.57L188.61,88.3L194.17,84.41L211.41,73.42L217.32,69.99L235.45,60.52L241.59,57.63L260.22,49.85L266.46,47.55L285.19,41.58L291.4,39.9L309.81,35.79L315.85,34.74L333.57,32.48L339.32,32.04L355.98,31.57L361.32,31.7L376.62,32.89L381.47,33.54L395.18,36.22L399.47,37.34L411.42,41.31L415.09,42.82L425.18,47.86L428.23,49.7L436.43,55.59L438.85,57.68L445.19,64.22L447,66.48L451.55,73.46L452.78,75.83L456.36,85.51L456.93,87.96L458.04,97.75L458.04,100.19L457.01,109.86L456.52,112.24L453.72,121.58L452.83,123.87L447.39,134.93L446.12,137.07L439.1,147.33L437.58,149.3L427.78,160.52L426.06,162.29L413.58,173.91L411.75,175.47L395.2,188.38L393.36,189.7L373.66,202.96L371.92,204.06L342.82,221.62L341.33,222.5L290.34,252.96L289.29,253.62L255.17,274.14L254.23,274.64L239.16,281.68L238.21,282.05L226.71,285.62L225.74,285.84L216.02,287.2L215.05,287.25L206.3,286.83L205.33,286.68L197.72,284.68L196.79,284.33L189.59,280.51L188.72,279.91L183.01,274.86L182.25,274.02L177.4,267.21L176.79,266.11L173.6,258.78L173.16,257.45L171.15,248.7L170.93,247.13L170.39,237.01L170.44,235.21L171.64,223.82L172,221.83L175.22,209.36L175.93,207.21L181.35,193.94L182.45,191.69L190.21,177.99L191.69,175.7L201.78,162.01L203.65,159.76L215.92,146.56L218.13,144.43L232.3,132.2L234.79,130.27L250.4,119.46L253.09,117.8L269.58,108.79L272.36,107.46L289.1,100.51L291.87,99.53L308.19,94.76L310.85,94.14L326.15,91.53L328.59,91.27L342.37,90.68L344.51,90.74L356.38,91.92L358.19,92.25L367.92,94.9L369.36,95.45L376.87,99.24L377.94,99.94L383.28,104.53L384,105.34L387.32,110.42L387.72,111.29L389.24,116.61L389.36,117.51L389.22,123.74L389.07,124.62L386.93,131.49L386.55,132.33L382.87,138.74L382.33,139.51L376.33,146.73L375.67,147.4L366.72,155.42L366.01,155.98L354.69,163.98L354,164.42L336.83,174.49L336.26,174.81L314.79,187.33L314.44,187.57L306,194.05L305.73,194.3L298.76,201.47L298.53,201.74L291.76,210.8L291.54,211.11L268.6,245.05L268.24,245.5L259.47,255.54L259.03,255.99L250.32,263.91L249.79,264.33L241.33,270.19L240.73,270.54L231.81,274.8L231.14,275.05L222.8,277.25L222.08,277.36L214.77,277.73L214.03,277.69L207.35,276.55L206.61,276.33L200.79,273.88L200.09,273.48L194.64,269.45L193.99,268.84L189.22,263.03L188.68,262.19L185.37,255.53L184.97,254.47L182.78,246.26L182.57,244.98L181.85,235.24L181.86,233.74L182.94,222.58L183.24,220.89L186.43,208.5L187.05,206.66L191.68,195.31L192.6,193.37L199.1,181.61L200.33,179.64L208.71,167.81L210.26,165.85L220.42,154.31L222.25,152.43L233.99,141.56L236.06,139.82L249.08,129.98L251.33,128.44L265.21,119.93L267.57,118.64L281.84,111.7L284.22,110.68L300.71,104.73L303.02,104.05L318.63,100.43L320.77,100.08L334.88,98.67L336.76,98.62L348.89,99.18L350.46,99.38L360.32,101.55L361.56,101.96L369.05,105.36L369.95,105.92L375.13,110.17L375.71,110.82L378.77,115.57L379.06,116.27L380.26,121.24L380.31,121.95L379.81,127.6L379.64,128.29L377.26,134.34L376.91,134.99L372.23,141.7L371.74,142.27L365.39,148.61L364.83,149.09L355.67,155.98L355.1,156.36L343.58,163.19L343.06,163.47L310.44,180.85L310.25,181L305.5,185.4L305.36,185.56L300.88,191.79L300.76,191.99L296.13,201.16L296.01,201.42L283.64,229.86L283.42,230.32L275.46,246.03L275.16,246.59L265.42,262.46L265,263.08L255.36,275.72L254.82,276.36L245.16,286.51L244.5,287.13L234.34,295.46L233.55,296.02L223.42,302.18L222.52,302.64L212.04,306.91L211.03,307.22L201.66,309.26L200.58,309.39L191.75,309.68L190.63,309.62L181.53,308.08L180.39,307.76L172.44,304.59L171.32,304L164.76,299.66L163.7,298.8L157.63,292.76L156.68,291.61L151.43,283.72L150.64,282.24L147.18,274.16L146.59,272.4L144.24,262.89L143.9,260.84L142.95,249.93L142.92,247.62L143.66,235.39L143.99,232.83L146.69,219.45L147.44,216.68L152.34,202.39L153.56,199.46L160.83,184.58L162.52,181.57L172.24,166.5L174.43,163.49L186.55,148.67L189.2,145.76L203.53,131.67L206.6,128.96L222.82,116.07L226.23,113.64L243.87,102.38L247.5,100.32L266,91.04L269.73,89.4L288.44,82.33L292.16,81.15L310.43,76.41L313.99,75.7L331.22,73.25L334.52,72.99L350.17,72.7L353.12,72.84L366.8,74.47L369.32,74.97L380.78,78.22L382.84,79L391.95,83.52L393.53,84.53L400.3,89.98L401.42,91.14L405.96,97.22L406.66,98.47L409.17,104.88L409.48,106.18L410.19,112.69L410.17,113.99L409.06,121.69L408.72,122.96L405.91,130.34L405.32,131.53L400.47,139.57L399.68,140.67L391.82,149.97L390.88,150.94L380.06,160.75L379.05,161.57L365.93,171.22L364.94,171.89L347.05,183.14L346.17,183.66L310.51,205.72L309.96,206.11L295.96,217.31L295.52,217.7L279.57,233.53L279.17,233.95L259.7,253.01L259.22,253.42L248.35,261.42L247.8,261.77L237.86,266.81L237.24,267.05L229,269.39L228.35,269.5L220.4,269.96L219.74,269.91L213.09,268.63L212.43,268.42L206.68,265.68L206.06,265.28L200.82,260.78L200.28,260.17L196.37,254.51L195.94,253.7L193.07,246.36L192.79,245.33L191.35,236.29L191.27,235.06L191.49,225.79L191.64,224.38L193.54,213.96L193.94,212.4L197.74,201.05L198.43,199.38L204.29,187.4L205.28,185.66L213.26,173.43L214.55,171.68L224.57,159.63L226.14,157.95L237.99,146.55L239.8,144.99L253.1,134.69L255.08,133.31L269.34,124.49L271.42,123.35L286.05,116.29L288.14,115.42L302.53,110.29L304.54,109.69L319.98,106.19L321.81,105.9L333.89,104.77L335.5,104.73L345.86,105.2L347.21,105.36L356.71,107.48L357.74,107.84L363.95,110.73L364.7,111.2L369,114.77L369.49,115.31L372.29,119.85L372.52,120.44L373.39,125.16L373.4,125.76L372.54,130.99L372.35,131.56L369.72,137.02L369.39,137.54L364.28,143.82L363.84,144.26L362.49,145.56" style="vector-effect: non-scaling-stroke; fill: none; stroke: rgb(99, 110, 250); stroke-opacity: 1; stroke-width: 2px; opacity: 1;"/></g><g class="points"/><g class="text"/></g><g class="trace scatter trace7ddabf" style="stroke-miterlimit: 2; opacity: 1;"><g class="fills"/><g class="errorbars"/><g class="lines"><path class="js-line" d="M240.43,168L270.2,122.31L254.64,146.67L262.36,135.64L261.15,138.02L266.1,130.88L267.88,128.54L257.98,144.4L259.07,143.53L260.24,142.5L256.74,148.62L262.64,140.49L256.5,150.62L261.35,144.14L267.29,135.77L261.02,145.81L262.07,144.87L255.99,155L260.55,149.11L266.96,140.18L260.57,150.54L253.17,162.85L263.08,149.02L257.69,158.3L267.54,144.26L269.76,141.47L265.43,148.54L255.38,164.77L261.91,156.07L263.99,153.97L262.49,157.24L272.13,143.33L264.39,155.76L255.75,170.03L268.62,151.66L265.95,156.63L260.97,165.24L261.27,166.07L265.22,161.3L261.12,168.81L264,165.76L277.23,147.24L262.14,171.04L263.67,169.98L270.6,160.64L271.23,161.55L266.8,169.34L269.75,165.98L267.09,171.22L263.65,177.86L272.08,166.35L258.58,189.97L266.21,180.23L273.15,172.44L270.03,178.47L270.5,179.14L268.7,183.39L276.23,173.26L274.3,177.42L271.38,184.6L280.13,172.5L278.08,176.68L278.69,176.8L277.95,179.02L279.45,177.81L279.6,178.64L277.45,183.04L270.63,194.9L271.35,195.51L285.96,174.54L283.59,179.1L278.45,188.04L271.78,199.74L276.92,193.55L288.54,177.99L268.54,209.99L289.58,182.23L286.7,187.64L283.94,193L285.66,191.57L285.04,193.76L289.81,187.56L279.39,204.83L281.6,203.02L284.56,201.53L286.05,200.71L293.13,191.05L282.35,208.9L283.41,208.88L281.58,213.42L291.05,203.64L286.29,212.42L290.18,207.96L279.56,226.05L300.23,195.81L297.56,200.95L286.96,218.55L284.52,224.04L292.89,212.87L299.89,203.39L293.84,213.92L293.65,217.07L298.91,210.31L282.91,238.26L292.51,225.4L299.82,217.24L296.56,223.68L298.99,221.37L290.59,235.93L299.95,224.83L295.7,232.95L294.56,236.46L301.75,227.02L309.16,216.88L303.68,226.52L295.5,240.68L298.32,238.09L306.68,228.3L300.61,239.16L304.07,235.41L299.71,243.78L303.08,240.29L303.33,241.58L315.29,224.49L307.63,237.55L307.17,239.74L309.1,238.21L304.18,247.38L304.78,248.16L313.51,236.19L304.68,251.34L304.12,253.99L307.97,249.8L324.27,225.91L313.59,243.52L318.24,237.63L306.33,257.46L309.58,254.17L306.55,260.62L319.5,245.27L315.36,253.07L307.3,267.23L309.98,264.97L319.34,252.1L317.79,255.98L314.83,262.17L318.67,257.85L322.85,252.85L316.91,263.53L316.34,266.12L322.94,257.51L328.67,249.98L315.74,271.44L318.73,268.58L324.92,260.57L317.54,273.63L326.41,261.56L329.9,257.57L323.43,269.05L326.78,265.47L333.93,255.81L327.49,268.67L322.23,278.47L320.09,283.68L340.73,253.19L323.51,281.21L327.13,277.43L319.04,291.82L326.48,282.22L329.76,278.88L325.46,287.37L328.83,284.04L336.45,273.93L332.92,282.75L335.86,279.94L333.84,284.82L341.31,274.95L331.14,292.39L334.08,289.78L341.37,280.25L335.36,291.3L334.04,295.3L347.17,276.74L334.08,298.69L344.06,285.18L336.48,298.74L342.34,291.63L335.95,303.47L340.64,298.25L339.33,302.27L348.67,289.75L343.76,299.22L343.26,302.01L345.24,300.96L340.01,311.12L336.03,319.52L341.19,313.71L344.26,311.09L340.86,318.57L340.27,321.77L337.31,328.7L346.68,316.39L348.39,315.96L356.25,306L340.81,332.11L347.14,324.79L347.53,326.52L352.12,321.81L362.4,308.2L352.52,325.75L355.69,323.34L357.86,322.4L351.14,335.3L359.77,327L360.12,328.98L357.17,336.13L362.02,331.22L365.39,328.57L366.54,329.37L362.32,338.51L364.92,337.16L367.18,336.31L363.05,345.38L371.52,334.96L369.01,341.49L365.97,348.93L370.69,344.37L370.28,347.71L357.41,370.42L373.58,347.91L373.91,350.07L373.01,354.33L368.44,364.28L372.27,361.19L373.93,361.43L382.39,351.24L368.74,375.28L380.64,359.81L382.62,359.69L378.25,369.55L392.27,350.99L390.78,356.47L383.03,371.63L385.25,371.45L397.43,355.82L383.32,380.77L379.91,389.35L387.63,380.35L386.22,385.69L388.23,385.83L404.51,363.92L407.52,362.94L396.29,383.72L397.28,385.83L403.02,380.48L397.31,392.84L404.31,385.6L405.61,387.2L411.67,381.6L402.09,400.04L404.11,400.56L416.53,388.6L417.65,390.82L410.27,406.03L421.04,393.22L423.42,393.52L404.91,425.72L425.01,397.99L425.42,401.22L433.22,393.46L430.16,402.41L425.43,413.79L433.61,405.19L433.08,410.09L428.65,420.93L437.39,411.34L431.92,423.72L442.18,411.88L444.11,413.15L442.04,420.6L442.25,424.44L455.56,412.42L445.98,431.4L458.49,416.41L458.62,420.65L465.62,414.56L459.55,428.34L461.47,429.72L467.81,424.22L467.94,428.38L475.08,421.88L477.76,422.35L485.01,415.99L484.38,421.63L477.42,436.57L483.3,431.6L478.38,443L491.32,426.91L489.12,434.39L499.66,422.54L493.09,436.78L497.41,434.23L499.57,434.85L512.69,419.02L495.18,449.5L506.07,436.36L511.8,431.3L513.41,432.85L507.23,446L517.21,434.22L521.18,431.96L523,433.1L519.01,442.86L521.43,442.53L526.7,437.83L517.34,455.3L531.06,437.14L529.28,443.22L539.49,431.23L531.21,447.28L544.61,430.25L542.8,436.61L546.26,434.85L554.14,426.43L555.24,428.29L563.13,419.91L553.3,437.74L564.23,424.08L559.11,434.59L567.57,424.38L572.12,420.21L569.36,426.8L577.22,417.28L578.46,417.71L572.59,428.37L593.6,398.47L586.04,411.54L583.3,416.98L591.15,406.45L592.9,405L599.1,396.71L592.77,406.81L600.68,395.45L609.14,383.24L615.65,373.62L608.09,384.06L613.78,374.97L599.66,394.92L605.35,385.39L616.89,365.84L609.74,374.77L621.67,355.27L614.98,363.04L619.98,353.29L614.42,359.01L613.43,357.88L618.3,348.01L614.65,350.51L626.75,329.43L616.8,340.34L621.05,330.27L619.11,329.28L620.72,322.74L625.23,311.65L609.82,329.3L625.36,301.71L613.28,314.36L610.47,313.4L617.23,298.58L608.64,305.88L615,291.1L618.98,279.42L618.13,273.78L611.22,276.56L613.4,266.27L612.12,260.67L608.46,258.05L596.84,267.19L607.74,243.82L610.31,231.67L587.93,254.45L590.79,242.35L589.79,236.13L601.36,210.49L595.56,208.44L592.94,200.9L575.33,215.22L575.62,204.96L570.18,203.28L578.83,169.49L558.83,185.74L558.73,174.55L548.65,178.33L552.09,162.44L547.61,157.47L534.38,164.72L529.44,160.98L524.56,157.63L528.69,140.9L520.87,140.61L514.37,138.18L506.65,137.93L502.53,132.75L489.05,141.42L504.21,108.7L483.73,126.45L479.66,120.82L476.89,114.11L467.72,116.34L460.35,116.35L459.46,107.3L454.9,103.28L453.7,94L444.24,96.36L429.37,106.96L430.74,84.97L427.27,79.02L416.83,82.83L413.66,76.46L405.72,77.1L390.6,88.45L399.92,65.11L388.79,70.82L393.3,53.41L376.59,66.59L364.54,73.53L357.59,74.36L342.41,87.78L354.24,62.78L358.99,47.24L335.44,71.58L339.23,57.29L329.46,63.11L328.7,47.35L311.1,64.28L307.88,61.19L303.55,60.36L307.62,47.21L308.21,38.65L290.98,55.64L302.71,31.12L281.88,53.85L281.97,46.46L288.2,30.7L275.6,41.69L268.1,45.57L260.15,50.87L263.47,40.17L264.05,33.3L246.77,52.29L239.34,57.72L235.98,58.25L244.46,41.71L241.37,41.44L227.8,56.35L222.06,60.65L229.49,46.48L225.26,48.88L216.55,57.75L219.86,49.66L214.7,54.01L198.42,74.83L216.83,46.09L209.77,53.85L208.5,52.76L211.57,45.64L205.69,51.49L201.65,54.83L195.37,61.92L194.63,61.28L194.71,59.67L197.99,53.28L186.9,68L188.91,63.88L196.22,52.14L176.87,79.51L179.97,74.34L187.32,63.18L187.08,63.01L184.84,65.62L180.42,71.34L180.73,70.78L170.8,85.66L180.19,73.29L176.95,78.52L185.16,66.67L172.42,86.45L178.42,78.56L180.19,76.67L179.78,77.86L177.38,82.11L178.33,81.52L176.04,85.87L170.27,97.04L178.23,86.81L170.17,100.37L169.79,102.75L163.28,114.79L183.69,86.9L179.94,95.52L182.11,93.79L176.43,105.7L174.03,111.44L181.53,102.43L182.08,103.56L177.2,112.84L183.92,104.88L184.24,106.35L177.63,118.34L179.15,118.46L182.42,116.06L180.98,120.65L183.63,119.13L185.64,118.52L181.15,127.74L184.14,125.91L191.98,116.63L174.31,145.95L195.33,117.31L188.74,129.78L191.18,128.5L192.41,129.18L198.75,121.9L191.89,134.57L194.21,133.53L190.78,141.42L197.45,134.08L193.74,142.35L193.23,145.97L193.17,149.11L200.3,141.34L203.02,139.9L207.43,135.61L203.98,143.17L196.48,157.24L201.24,153.12L212.99,138.1L203.04,155.73L211.15,146.03L200.86,164.47L207.18,157.95L218.15,144.07L212.47,155.09L211.62,158.96L204.15,173.3L218.34,154.84L207.6,174.1L224.43,154.3L212.67,174.83L217.2,170.93L228.75,156.11L215.59,181.21L217.77,181.07L223.57,175.4L224,177.67L219.92,186.93L221.52,187.78L237.88,165.79L234.85,172.74L238.2,169.85L238.82,171.06L238.54,173.63L229.94,189.22L225.39,199.17L242.37,176.24L242.53,178.31L235.47,191.54L243.4,181.96L239.44,190.49L247.29,180.86L239.74,194.81L247.78,184.98L250.97,182.28L249.29,186.96L250.67,186.98L242.04,210.36L258.11,188.38L255.15,195.1L258.21,192.5L247.37,211.49L244.32,219.06L257.17,202.2L259.78,200.59L265.27,194.23L259.66,204.9L254.91,214.57L256.23,215.16L264.07,205.56L252.79,225.42L258.47,219.48L266.24,210.04L260.13,221.86L273.79,203.11L266.2,216.83L264.14,222.33L262.78,226.95L269.02,219.82L271.07,218.91L265.47,229.89L272.87,223.29L277.06,218.95L270.35,231.47L274.98,226.63L283.66,217.13L282.37,220.87L269.23,245.48L283.78,225.32L285.35,224.76L278.36,237.56L281.16,235.4L289.94,223.75L291.2,223.46L286.87,231.86L286.87,233.72L284.88,238.75L290.08,232.65L287.57,238.39L287.94,239.81L296.82,227.85L281.51,253.42L289.45,243.34L293.28,241.29L281.01,262.44L292.66,246.65L294.31,246.03L287.32,258.96L298.36,243.91L292.38,255.08L294.38,254.07L292.14,259.62L301.42,247.21L299,252.77L304.36,246.25L295.67,261.55L295.91,263.27L297.02,263.61L299.28,262.12L297.44,267.03L302.41,261.31L293.81,276.75L310.51,252.77L301.26,268.88L301.92,269.92L304.59,267.71L301.64,274.26L298.25,281.7L309.34,266.46L311.11,265.49L309.98,269.05L305.52,277.89L305.98,279.22L318.73,261.19L304.57,284.97L316.5,270.36L326.23,256.84L310.05,285.42L317.39,275.91L308.98,290.91L311.94,288.43L314.75,286.03L316.1,285.89L312.59,293.38L321.23,281.91L318.72,287.68L321.44,285.39L320.29,289.09L315.98,297.83L326.54,283.36L324.69,288.06L324.45,290.37L325.28,291L320.84,299.9L328.03,290.73L332.89,285.01L333.6,285.66L318.39,311.26L328.05,298.37L334.28,290.53L333.09,294.26L330.09,300.9L337.84,290.8L340.82,289.82L332.02,305.35L340.11,294.81L341.33,294.74L330.01,314.3L337.7,304.45L332.85,314.03L349.95,289.43L341.07,305.01L347.32,297.34L337.52,314.51L351.96,294.13L339.05,316.04L344.94,309.1L343.76,315.14L355.78,298.54L353.64,305.79L347.01,318.17L351.76,313L345.15,325.45L348.66,322.29L339.28,339.18L357.98,312.34L353.13,322.04L353.33,324.11L354.26,325.02L357.32,322.67L363.04,316.18L356.79,328.2L367.13,314.65L362.64,323.94L367.6,318.76L362.07,329.74L363.68,329.81L364.51,331.1L369.34,326.21L376.76,317.3L365.4,337.26L372.7,328.69L374.69,328.21L381.31,320.63L368.42,342.99L372.52,339.45L378.31,333.19L380.74,332.15L380.9,334.61L382.41,335.02L378.74,343.42L393.4,326.39L382.07,346.39L402.17,318.29L386.92,344.19L388.89,344L400.11,329.53L390.95,346.26L393.84,344.67L396.27,343.75L408.36,328.02L408.49,330.51L409.4,331.76L404.75,341.52L410.41,335.64L402.84,349.88L416.13,332.31L411.9,341.43L417.37,335.78L409.45,350.5L423.05,332.44L415.35,346.78L420.94,340.93L423.83,339.18L417.54,351.35L425.08,342.52L424.47,346.1L426.75,345.26L426.55,348.19L433.41,340.38L430.56,347.29L443.12,333.37L438.61,342.56L443.48,337.63L444.42,338.62L452.74,328.39L442.45,346.02L445.86,343.19L442.66,350.4L451.33,341.94L454.74,339.02L463.04,328.67L453.11,345.49L457.89,340.36L460.13,339.09L470.09,326.05L471.34,325.86L473.95,323.44L466.85,335.41L469.54,332.95L466.8,338.68L465.85,341.72L478.94,323.6L481.47,321.11L491,307.82L472.01,337.31L480.75,325.38L477.65,331.08L484.48,321.8L492.19,311.06L479.22,330.67L497.47,305.23L493.16,311.1L501.66,298.23L507.06,289.51L493.95,307.57L503.03,293.31L496.39,302.28L495.6,302.55L506.41,285.67L503.35,288.8L506.81,282.01L508.35,277.87L504.62,281.16L512.94,266.69L505.57,274.81L503.49,275.24L511,261.73L506.11,265.91L498.62,273.91L507.27,258.56L506.04,257.35L505.4,254.81L494.66,267.22L499.51,257.23L497.34,257.54L502.03,247.41L512.7,227.94L495.51,248.16L494.3,245.86L492.24,245.44L507.14,219.64L500.95,223.63L488.35,236.68L492.95,225.64L489.12,226.87L487.66,224.45L477.17,235.55L476.82,232.37L483.21,219.34L480.96,218.36L483.16,210.47L479.95,210.25L478.12,207.85L479.97,188.69L473.97,191.13L470.21,190.4L472.03,181.7L469.51,178.89L470.2,171.05L458.6,180.86L462.89,168.01L451.24,178.3L448.5,176L450.52,167.12L443.5,171.03L439.87,164.06L432,169.43L426.02,172.56L435.67,153.12L426.61,146.52L412.49,160.53L419.24,144.9L415.2,144.78L407.78,149.26L411.75,137.5L414.93,126.4L402.88,136.73L398.56,136.33L397.88,131.16L396.17,127.27L392.57,125.91L380.8,136.63L387.44,121.1L377.69,129.25L377.29,123.78L372.53,124.93L376.74,112.84L371.63,113.92L370.16,109.49L361.52,115.61L358.54,113.84L361.22,104.02L352.64,110.22L350.89,106.67L347.49,105.74L339.61,111.39L337.09,109.69L347.2,89.61L343.25,89.01L327.86,98.48L330.99,88.2L315.36,105.19L316.14,98.94L314.05,97.29L310.19,98.01L314,87.64L304.42,96.53L301.43,96.1L309.93,79.2L299,89.99L304,77.58L294.61,86.24L300.12,73.13L292.23,79.51L279.1,93.74L291.17,72.03L287.35,72.99L285.95,69.92L274.19,82.27L278.69,71.34L270.01,79.77L261,85.36L261.4,81.53L254.84,87.99L261.77,74.87L256.36,76.02L257.41,71.12L257.44,67.59L254.49,68.29L251.38,69.32L245.04,75.35L246.83,66.77L234.72,81.62L237.9,74.53L230.47,83.3L230.01,82.05L228.19,83.08L237.18,68.12L224.81,84.3L237.11,64.26L222.8,83.42L220.17,85.64L220.3,84.45L224.44,77.25L223.44,77.38L225.81,72.39L219.5,80.24L215.2,85.42L220.03,77.41L222.43,72.78L213.15,85.36L213.31,84.32L215.81,80.03L207.84,91.26L216.05,78.54L211.73,84.38L221.25,69.52L218.3,72.95L217.91,72.45L215.21,75.56L209.67,83.12L196.99,101.61L221.36,65.69L197.74,100.77L201.28,96.22L198.79,100.86L211.46,82.61L216.88,74.56L198.66,102.66L216.67,76.39L201.24,100.41L203.07,98.58L206.34,94.52L199.17,109.1L205.83,100.33L200.35,109.79L213.84,90.53L205.14,104.53L206.7,103.12L211.17,97.35L198.78,117.21L204.46,110.1L210.32,102.61L209.23,105.31L224.92,82.23L212.47,101.68L215.27,98.06L209.38,107.89L214.55,100.97L209.64,109.43L211.3,108L212.58,107.18L218.18,99.6L208.48,115.36L209.84,114.58L207.1,120.23L219.33,103L215.26,110.24L218.76,105.88L211.31,118.38L219.23,107.53L207.94,126.06L221.62,106.64L218.19,112.96L211.58,124.34L223.1,108.15L215.47,121.01L226.03,106.04L211.32,129.76L221.7,115.4L222.16,115.95L224.74,113.11L223.03,116.81L217.54,126.48L214.45,132.82L228.12,113.49L215.76,135.12L218.13,133.31L233.88,110.71L229.42,118.52L235.17,110.58L224.83,127.46L226.04,126.89L232.76,117.8L232.57,119.06L228.04,127.13L237.2,114.12L234.6,118.96L231.87,124.14L230.74,126.99L234.44,122.42L228.21,133.17L232.3,128.19L225.45,140.12L228.32,137.31L230.84,134.96L219.54,154.07L240.74,124.86L236.24,132.91L239.93,128.36L238.19,132.13L245.31,122.15L233.42,141.55L232.22,144.88L233.47,144.57L245.16,129.24L235.47,145.37L242.35,136.11L238.8,142.85L242.72,138.12L242.43,139.77L245.14,136.75L242.55,141.89L238.38,149.71L256.75,122.5L249.09,135.92L254.59,128.21L247.41,141.24L252,135.12L247.53,144.1L248.24,144.15L246.6,147.88L251.97,140.73L256.18,135.1L245.1,153.32L254.45,141.03L246.11,155.13L264.65,127.42L249.56,151.61L249.84,152.43L253.22,148.4L260.68,137.82L257.96,142.83L262.09,137.2L251.3,155.88L253.11,154.32L262.02,142.46L256.44,152.03L253.47,157.79L255.19,156.36L265.09,143L255.4,158.99L260.94,151.5L257.35,158.11L270.37,140.2L255.93,163.5L266.65,148.96L262.87,155.68L257.84,164.6L265.19,154.25L264.25,157.56L266.87,154.38L262.38,162.31L270.19,151.08L271.84,149.14L267.64,156.39L260.41,168.66L269.53,155.51L272.27,151.92L263.28,166.83L274.75,151.13L274.72,151.76L279.95,144.03L263.65,170.18L277.24,149.88L275.46,153.13L272.88,157.85L283.22,143.43L272.29,160.95L265.89,171.92L272.75,162.2L276.96,156.33L269.58,168.65L278.21,156L271.32,167.45L278.61,159.02L273.85,167.16L277.63,162.03L276.26,164.86L275.16,167.36L282.42,157.38L286.7,151.04L275.33,169.39L289.14,148.34L280.19,162.62L274.8,171.82L283.73,159.99L277.02,171.08L281.81,164.31L276.83,172.74L273.23,180.22L276.41,176.23L289.6,157.14L287.12,161.31L286.71,162.35L280.49,172.65L285.24,166.21L284.66,167.64L276.07,181.84L289.99,160.7L279.38,177.79L281.17,175.85L286.14,168.66L286.66,168.33L282.8,174.97L279.35,181.17L294.48,157.97L281.74,178.34L285.01,174.02L296.08,156.96L284.39,176.37L289.3,169.26L280.03,185.63L292.43,166.85L292.89,166.38L293.02,166.53L288.14,174.6L293.23,167.05L291.66,170.27L286.23,179.3L292.6,169.82L288.16,177.19L286.68,180.17L296.93,164.46L285.21,183.27L296.91,165.66L288.74,178.9L293.85,171.75L286.43,183.9L285.26,186.47L292.52,175.63L284.88,188.18L292.71,176.55L293.28,176.02L288.34,184.23L304.31,159.94L293.55,176.96L292.31,179.42L288.07,186.61L296.49,173.86L288.68,187.68L302.44,166.41L292.79,182.69L296.37,177.45L291.41,185.67L299.38,173.55L292.8,184.89L297.13,178.46L287.02,194.89L298.92,176.9L293.63,185.66L304.59,168.68L290.58,191.65L293.11,188.33L299.74,178.23L297.3,182.87L290.52,194L301.35,177.91L299.83,180.96L291.59,194.34L302.87,177.02L297.41,186.59L298.88,184.65L305.46,174.45L295.05,191.07L302.78,179.65L289.52,200.98L304,178.7L297.43,189.57L294.08,195.38L301.09,185.13L292.94,198.39L304.14,182.43L293.23,199.98L299.7,190.31L289.29,207.25L310.31,174.55L298.77,193.88L298.83,194.2L307.43,180.89L299.02,194.78L294.52,202.34L310.35,177.98L299.58,195.11L296.77,200.06L310.33,178.89L293.29,205.96L296.11,202.26L297.98,199.73L297.65,200.74L298.43,200L302.59,193.82L294.44,207.54L300.16,199.09L306.38,189.5L292.09,213.2L306.51,190.98L308.1,189.6L294.66,211.22L301.28,201.37L301.43,201.45L305.65,195.13L299.68,205.65L305.31,197.17L312.89,185.69L299.14,207.76L303.33,201.61L304.46,200.11L310.95,190.06L298.1,211.03L306.82,197.66L300.42,208.04L301.57,206.74L299.32,210.75L302.2,206.69L300.24,210.25L310.11,195L296.68,217.84L301.77,210.43L313.58,192.12L301.67,211.61L300.11,214.6L306.11,206.77L294.7,225.34L314.16,195.07L302.14,214.67L300.43,217.83L296.74,224.28L303.75,213.79L305.77,211.55L287.59,242.05L305.1,215.15L294.7,232.54L303.81,218.83L296.83,230.86L293.43,237.09L311.24,210.2L306.39,218.1L306.87,217.81L305.77,219.94L308.68,215.74L297.46,233.92L288.83,248.53L297.74,235.3L306.72,223.49L300.8,233.36L306.23,225.41L304.85,228.03L299.61,236.96L305.72,227.94L301.54,235.07L302.73,233.89L300.69,238.39L304.73,232.66L303.62,234.99L314.25,218.66L293.44,252.73L303.74,237.25L304.59,236.4L302.96,239.66L304.97,237.13L303.33,240.32L303.09,241.39L300.57,246.09L309.21,233.08L308.03,235.95L293.91,259.01L308.63,236.97L297.57,255.19L298.8,254.19L298.82,254.93L302.9,249.27L305,246.59L293.46,265.68L307.29,244.67L301.88,253.77L302.64,253.45L308.22,245.94L304.4,252.65L306.92,250.08L298.42,264.33L306.66,253.71L308.57,251.37L313.6,244L296.11,272.39L309.4,252.33L295.53,274.96L307.37,257.93L303.71,264.58L313.71,249.53L310.76,254.76L306.11,262.93L306.92,262.51L309.73,258.85L308.7,261.23L309.57,260.66L301.35,274.51L297.33,281.99L298.62,280.98L297.9,283.14L307.62,269.51L303.64,276.76L307.16,272.17L305.71,275.33L299.33,286.48L302.78,282.11L301.42,287.37L305.48,281.97L305.03,283.67L309.06,278.32L299.97,295.94L309.97,281.19L301.08,296.24L303.06,294.43L314.43,277.38L303.48,295.65L295.36,309.95L309.13,289.26L296.01,313.65L310.07,292.55L318.87,279.54L302.54,306.46L313.54,290.48L306.73,302.3L306.89,304.74L316.89,290.12L303.93,311.78L314.21,296.99L308.66,308.34L303.9,317.22L311.03,307.32L310.07,310.05L298.74,329.46L305.41,320.35L308.46,316.73L304.44,324.5L306.16,323.23L304.92,326.57L313.35,314.62L306.03,327.57L304.96,330.87L305.79,331L312.53,321.74L298.2,345.92L311.89,327.13L299.99,347.64L308.96,335.04L295.98,357.08L304.76,344.8L300.54,352.91L313.16,336.08L304.77,351.18L308.05,347.85L307.68,350.14L307.24,352.7L317.01,339.03L305.39,359.26L309.62,354.65L303.32,368.42L314.89,351.9L306.78,366.65L309.17,365.03L319.85,352.21L317.43,358.27L311.13,372.88L316.35,366.8L312.68,374.83L315.72,372.33L321.96,364.72L314.11,379.51L314.47,381.39L320.31,374.41L319.88,377.5L322.87,375.32L319.27,383.57L324.91,377.25L319.74,387.97L328.99,376.03L323.64,387.12L328.92,381.63L333.26,377.58L314.17,410.43L320.31,403.31L318.6,408.17L328.69,394.65L323.99,404.72L330.48,397.36L333.84,394.98L334.59,397L331.03,405.85L337.63,398.68L325.12,421.53L338.14,404.05L322.03,432.41L335.59,413.91L331.24,423.7L329.81,429.18L332.28,428.27L332.82,430.51L337.27,426.77L346.95,415.14L348.83,416.35L340.24,438.36L350.36,426.38L355.08,423.29L356.42,425.93L351.9,437.72L358.73,431.64L360.59,433.47L365.55,430.73L363.01,439.76L368.45,436.34L369.11,445.6L367.79,452.62L382.23,435.08L379.48,444.91L383.06,445.02L383.32,450.19L390.57,444.56L391.8,448.48L388.88,458.77L397.35,451.19L393.27,463.18L404.71,451.12L400.53,463.48L413.57,449.28L410.71,472.28L421.83,460.77L427.8,457.94L432.01,458.26L435.52,459.8L431.83,472.15L443.25,461.05L436.75,477.55L456.76,453.32L446.71,475.64L461.25,460.19L463.47,463.93L470.9,459.9L475.35,460.56L468.17,478.46L472.71,477.82L482.92,468.45L475.28,486.52L482.92,480.69L487.21,480.06L506.23,457.67L496.94,478.84L508.68,467.81L509.37,473.58L521.53,462.05L514.39,479.56L529.78,468.76L529.69,475.2L535.91,471.79L550.67,455.75L564.79,447.93L576.15,437.49L568.8,453.98L571,455.78L570.49,461.08L581.2,449.17L576.73,459.96L584.46,452.01L600.88,434.99L599.68,440.2L614.53,421.38L605,438.16L631.69,403.34L628.98,408.69L620.94,421.29L623.43,418.81L630.89,407.85L628.64,411.14L642.26,390.6L639.18,394.49L650.87,376.23L640.3,390.02L644.85,381.5L645.51,378.63L650.35,369.17L671.53,331.62L662.76,338.62L660.74,335.99L651.8,343.73L661.03,325.12L657.54,324.55L658.31,317.21L671.3,291.61L659.41,300.35L663.7,285.73L661.91,279.57L657.96,275.78L656.18,268.79L642.06,279.63L657.13,248.57L651.91,245.62L649.54,237.29L644.74,232.39L637.9,230.26L643.42,210.3L632.71,212.52L625.37,209.98L627.66,194.05L614.69,199.32L618.31,180.92L613.52,173.91L606.66,168.95L590.63,177.54L594.87,158.02L578.75,167.47L595.49,129.33L574.08,144.14L574.12,128.28L560.24,132.83L556.85,122.47L545.24,124.16L539.06,118.35L537.22,106.42L521.98,113.27L527.53,90.55L514.72,93.41L510.62,83.42L500.19,82.62L501.17,65.24L476.93,83.6L471.59,76.15L461.25,76.87L464.85,57.4L447.23,67.82L438.24,66.31L432.21,61.46L422.09,62.54L423.04,47.84L419.47,39.1L407.53,41.76L385.8,59.1L388.03,43.44L386.89,32.65L376.97,33.58L366.41,35.63L364.4,25.88L357.69,22.77L347.63,24.37L341.25,21.08L327.99,28.04L321.7,25.53L319,18.29L319.86,5.71L301.01,21.24L298.92,13.22L287.19,19.68L289.34,6.32L278.8,11.32L273.56,8.74L274.23,-1.99L262.57,4.96L257.08,3.3L233.39,28.57L246.18,2.34L228.92,19.53L224.27,18.54L226.64,8.33L222.82,6.75L222.44,0.17L204.58,19.14L205.17,12.04L199.96,13.9L199.55,8.83L186.54,22.3L188.53,14.55L184.16,16.38L176.38,23.23L169.48,29.38L175.23,17.8L162.41,33.15L166.81,23.84L167.29,20.49L160.71,27.23L167.94,14.09L158.38,25.5L154.74,28.44L145.97,39.5L148.01,35.28L144.34,39.64L152.19,27.2L143.98,38.21L130.95,57.49L142.51,40.99L133.17,55.3L124.52,68.89L127.42,66.31L137.55,54.57L130.65,66.04L124.62,78.81L128.57,75.49L114.47,99.1L130.97,78.25L125.36,89.64L136.51,75.9L126.94,92.85L129.07,92.69L137.29,83.68L130.72,96.37L132.43,96.96L128.2,106.76L136.2,98.54L137.26,100.42L138.32,102.13L143.61,97.48L135.73,112.55L141.2,107.93L142.69,109.29L140.55,116.04L148.1,108.34L151.12,107.1L141.03,125.67L138.95,132.81L140.37,135.29L153.69,119.78L154.44,122.35L144.3,141.46L156.03,128.09L145.56,148.09L149.31,147.12L164.7,128.59L154.84,147.41L157.94,146.97L161.79,145.56L167.81,140.56L160.28,155.98L171.57,143.13L170.46,148.71L160.22,168.34L167.26,162.5L167.79,166.46L163.07,178.47L176.42,163.41L176.82,167.32L175.75,173.36L179.32,172.5L170.71,190.3L173.27,191.8L184.84,179.7L186.13,182.48L195.64,172.41L191.01,183.49L188.85,191.1L195.98,184.81L190.38,197.77L191.12,201.42L197.96,195.93L200.72,196.29L201.19,200.01L209.95,190.98L205.37,201.99L203.88,208.57L204.25,212.64L209.92,208.67L203.6,222.94L210.69,217.08L221.28,205.5L229.89,199.73L226.78,207.88L218.65,224.11L236.02,201.54L221.52,227.38L226.41,224.05L229.6,223.35L229.9,226.94L231.12,229.18L237.25,223.82L237.46,227.3L232.74,238.48L234.61,239.86L231.48,249.05L236.33,246.2L248.86,231.23L238.54,250.98L245.13,245.11L252.76,237.38L255.16,237.3L244.42,257.53L257.08,242.11L252.86,256.06L252.73,260.26L270.15,237.23L263.16,251.23L269.04,245.53L270.24,246.85L267.61,254.09L258.18,272.16L270.14,257.47L259.71,277.19L272.33,265.34L265.57,279.38L264.37,285.15L281.9,261.8L276.02,274.17L283.05,266.67L276.04,280.77L272.74,289.47L287.55,273.58L286.83,277.86L277.38,295.83L282.28,291.89L287.22,287.73L295.6,278.03L292.26,286.29L291.35,290.93L292.95,291.73L293.57,294.05L299.44,288.15L284.65,314.33L297.96,297.2L296.5,302.7L302.21,297.12L297.31,307.92L305.52,298.47L305.69,301.29L302.61,309.23L307.66,304.6L304.57,312.55L306.54,312.75L314.17,304.02L314.14,307.1L320.54,300.17L321.88,300.95L320.42,306.09L315.85,316.13L314.44,324.54L322.56,314.96L319.33,322.96L335.93,300.14L322.09,324.31L331.23,313.16L325.68,327.57L321.19,337.59L336.67,316.45L327.88,332.94L326.03,338.89L332.22,332.23L333.85,332.65L338.08,329.06L338.67,331.09L344.43,325.12L337.9,338.16L346.36,328.07L344.63,333.67L340.99,342.35L349.99,331.41L340.17,349.6L349.95,337.54L354.08,334.12L342.5,355.09L353.55,341.08L353.07,344.86L355.01,345.02L363.28,335.35L360.59,342.63L349.36,363.19L365.84,340.8L363.69,347.27L368.88,342.54L368.15,346.91L374.62,340.23L370.77,352.72L376.81,346.73L376.61,350.34L385.15,340.54L376.35,357.33L380.91,353.72L383.02,353.8L389.33,347.46L383.03,360.47L388.37,355.66L397.39,345.17L396.89,349.29L400.49,347.17L391.76,363.86L396.65,359.77L397.92,361.18L409.84,346.31L411.89,346.54L402.88,366.97L408.66,361.48L401.59,375.64L416.7,355.77L413.25,364.43L434.48,335.48L419.03,362.04L426.64,353.84L425.13,359.5L431.71,352.85L435.74,350.04L433.2,357.09L442.12,346.82L441.04,351.59L446.01,347.18L441.01,357.73L439.02,363.77L449.7,350.62L453.08,348.5L451.49,353.69L458.71,345.65L450.49,360.72L465.44,340.89L457.85,354.89L465.15,346.45L467.58,345.31L476.23,334.68L472.04,343.02L472.8,343.92L482.1,332.08L476.63,342.01L480.96,337.32L468.97,356.99L488.1,330L489.15,330.09L488.12,332.75L500.77,315.11L481.06,344.93L499.98,317.73L499.64,319.1L488.59,335.74L507.48,309.77L503.23,315.71L512.71,301.42L514.41,298.22L508.95,305.05L502.07,313.37L512.24,297.72L518.86,286.85L509.13,299.31L516.16,287.38L509.96,294.85L510.7,292.06L522.34,273.13L507.27,292.73L514.64,279.75L526.16,257.47L515.94,268.45L511.5,271.49L527.48,244.83L523.49,246.2L504.49,268.89L504.06,266.28L516.31,245.2L512.28,247.04L510.52,245.14L521.84,224.02L507,239.99L503.86,239.49L509.16,227.23L499.17,236.8L514.48,209.37L497.7,227.84L505.78,210.32L497.33,216.86L500.28,206.56L500.4,200.2L498.8,195.67L492.68,197.49L489.93,194.65L478.74,197.94L491.34,173.25L474.24,190.66L482.31,171.8L471.25,180.66L472.99,170.85L464.79,175.61L469.16,162.08L470.52,152.4L459.77,159.4L454.86,158.48L451.15,156.33L448.26,153.03L442.46,153.95L446.96,139.94L438.53,144.16L442.17,130.72L432.46,136.31L427.64,134.94L425.33,130.37L419.07,131.45L415.46,128.83L420.58,113.53L407.69,123.6L409.17,113.14L407.09,107.83L400.4,108.66L394.59,108.45L398.01,95.03L382.23,108.97L372.63,114.74L376.59,101.95L370.72,103.01L368.76,98.18L372.57,84.9L368.69,82L352.11,97.3L352.36,89.28L342.25,96.7L337.83,96.18L340.78,85.42L328.77,95.95L340.62,72.15L335.81,71.77L322.78,82.78L319.48,80.59L317.11,77.48L318.72,68.45L310.43,73.46L306.31,72.64L291.8,87.39L295.53,76.54L289.39,80.12L302.61,55.37L285.38,74.09L281.81,73.27L278.79,72.52L280,65.57L266.14,80.48L276.03,61.42L270.94,63.87L258.92,76.13L277.09,45.17L261.87,62.01L261.08,57.74L258.85,56.16L248.16,66.91L248.99,61.42L238.5,68.8L243.81,57.51L241.78,56.64L237,59.62L238.5,53.64L241.77,44.95L231.51,55.89L226.37,59.69L218.67,67.9L217.8,66.61L223.09,53.86L209.59,70.96L210.44,67.6L209.16,67.78L213.46,59.62L228.24,35.6L209.7,60.16L220.91,40.92L204.34,63.05L205.35,59.43L204.28,59.39L197.33,68.06L203.93,57.02L202.69,57.42L185.91,80.98L197.59,63.2L191.34,70.31L191.36,69.85L185.01,78.97L178.74,87.97L197.24,60.78L183.18,82.48L186.62,77.92L183.97,83.78L187.94,78.53L186.17,81.81L194.49,69.82L181.52,90.52L189.82,79.09L187.16,83.85L192.35,76.7L182.41,93.31L188.34,85.55L193,79.45L177.02,104.66L189.82,86.83L184.66,95.94L194.96,81.52L187.6,93.69L200.47,75.14L176.09,113.31L190.62,93.03L189.35,96.49L183.95,106.15L193.83,92.84L186.04,106.15L190.66,100.77L189.1,106.52L200.3,91.11L187.52,112L196.08,100.68L197.27,100.4L192.33,109.42L196.72,104.4L192.07,113.16L190.9,116.85L193.88,114.36L193.6,116.78L197.61,112.63L200.77,111.32L198.41,116.64L201.27,114.05L193.59,127.68L189.98,135.52L205.79,113.93L199.06,126.11L203.41,121.45L210.72,112.06L208.65,116.74L201.42,131.46L211,118.84L210.49,121.27L206.1,129.73L198.9,142.88L216.87,117.67L206.87,134.75L207.71,135.48L209.1,135.49L211.16,134.42L215.96,128.99L216.43,130.02L216.86,131.07L208.85,145.29L226.25,120.59L215.28,139.04L223.41,128.28L214.4,143.86L216.64,142.46L212.61,150.82L222.07,138.52L216.16,149.62L230.18,130.06L228.74,133.74L221.27,146.91L230.57,134.39L232.28,133.19L221.05,152.14L231.31,138.23L229.23,143.02L224.44,152.2L227.86,148.89L223.05,158.3L228.6,151.9L238.4,140.09L226.24,160.51L236.67,146.34L230.99,156.83L240.97,143.15L230.45,161.02L235.05,155.85L234.62,158.36L245.98,142.48L241.69,150.41L230.02,170.18L234.54,165.33L234.76,169.17L240.65,162.1L246.95,154.05L246.19,156.69L250.02,152.15L243.47,163.71L243.95,164.62L246.32,162.62L251.07,156.75L249.43,160.66L244.55,169.79L254.32,156.22L245.65,172.59L246.21,173.51L255.27,161.09L248.46,173.13L253.87,167.86L247.95,178.64L247.46,181.26L250.46,178.5L257.26,169.61L258.06,169.81L268.56,154.68L266.1,159.33L254.8,178.1L262.39,167.71L254.31,181.64L261.39,173.74L258.68,179.35L257.57,182.64L261.41,178.22L270.38,165.52L264.56,175.64L263.27,178.96L266.09,175.86L261.11,184.95L267.55,176.31L255.36,196.77L271.02,173.98L257.13,196.96L269.65,179.1L270.34,179.18L273.06,176.07L266.69,187.17L272.5,179.36L263.69,194.36L274.63,178.69L266.14,195.61L265.36,198.41L278.86,178.66L268.78,195.5L271.74,192.3L271.39,194.12L275.79,188.5L262.65,210.44L283.94,178.65L275.81,192.19L270.22,202.27L275.56,195.3L277.34,193.67L273.38,201.12L287.75,179.76L278.77,194.58L278.33,196.44L283.63,189.16L277.18,201.48L287.47,186.44L295.93,173.76L282.46,195.4L275.18,207.96L279.12,203.08L276.13,210.31L285.19,197.32L272.26,218.76L288.42,194.79L273.43,219.33L285.47,201.9L279.92,211.64L283.99,206.53L278.61,216.15L282.45,211.47L284.86,208.84L290.34,201.25L277.46,222.52L279.5,220.81L284.99,213.48L295.33,198.21L285.45,214.56L289.04,210.05L288.77,211.43L293.26,205.3L277.33,231.38L291.73,210.12L289.59,214.33L291.68,212.09L294.16,209.03L280.99,230.77L299.08,204.07L286.31,225L290.19,220.1L299.73,205.93L288.25,224.76L295.81,213.96L287.96,228.2L288.94,227.83L289.91,227.42L291.72,225.68L299.52,214.34L291.98,227.02L294.82,224.56L294.07,226.71L290.85,232.84L298.71,221.52L302.31,216.55L281.84,249.77L305.09,215.1L293.72,233.8L293.71,234.95L295.21,233.61L293.65,237.13L303.77,222.17L303.87,222.66L296.71,234.79L300.16,230.35L308.42,218.05L290.65,247.85L300.34,233.69L297.73,238.68L303.84,230.03L300.95,235.36L302.29,234.17L307.33,227L296.23,246.33L305.25,233.08L297.82,246.51L307.09,232.86L301.59,242.27L304.45,238.73L300.18,246.33L298.51,250.04L306.36,238.62L300.02,249.47L302.45,246.7L300.65,250.5L301.37,250.41L302.89,249.01L297.72,258.22L310.74,238.68L298.22,259.23L303.44,252.21L303.04,253.8L313.18,238.72L297.53,264.21L313.45,240.24L301.13,260.37L304.12,256.9L310.78,247.28L302.6,261.1L310.58,249.6L306.29,258.23L306.98,258.16L304.06,263.8L306.46,261.13L308.38,259.1L306.42,263.24L308.86,260.45L308.74,261.62L302.62,272.39L312.61,258.71L310.89,262.4L308.02,267.99L312.77,261.57L311.58,264.41L314.42,260.98L318.7,255.13L312.11,266.41L318.99,256.6L313.74,265.72L306.46,279.51L313.52,269.54L314.06,269.72L316.72,266.59L315.25,269.94L320.48,262.72L309.13,282.78L311.46,280.37L320.27,267.56L319.44,269.85L322.18,266.57L305.21,294.39L324.53,265.26L309.3,291.38L314.73,284.17L322.07,276.07L309.06,297.78L322.21,278.45L311.84,295.87L305.43,307.56L308.21,304.65L333.62,269.8L326.71,281.67L326.5,283.32L320.67,293.8L321.03,294.71L324.18,291.18L327.98,286.57L320.3,300.01L318.84,303.89L308.62,321.6L323.79,300.7L311.87,321.08L316.08,316.24L327.8,299.26L329.23,298.54L335.52,290.23L328.38,302.9L329.08,303.53L331.59,301.21L325.48,312.47L330.02,307.16L340.32,292.62L334.77,302.86L338.22,299.19L331.45,311.47L335.26,307.36L341.17,299.79L333.16,314.01L335.65,312.01L335.88,313.45L332.6,320.45L333.33,321.23L338.05,315.69L336.19,320.46L339.22,317.67L347.47,306.62L328.7,337.77L347.61,310.22L338.34,326.48L338.42,328.5L336.26,333.92L349.51,315.2L353.11,311.53L347.7,321.97L348.58,322.75L353.21,317.64L338.75,342.26L350.31,326.5L346.46,334.61L354.08,325.02L350.85,332.26L360.55,319.48L359.21,323.76L347.63,344.08L364.08,320.86L361.67,326.85L361.21,330L363.62,328.68L362,333.62L355.43,346.33L366.48,331.65L358.54,346.43L366.37,336.88L363.15,344.4L361.97,348.89L370.25,338.64L369.74,342.07L371.9,341.44L373.82,341.2L378.02,337.47L377.58,340.9L385.33,331.77L386.42,332.84L376.81,350.37L383.79,342.52L384.72,343.92L393.2,333.77L388.21,344.24L386.93,352.06L398.69,336.89L397.64,341.39L403.91,334.73L395.89,349.83L403.36,341.37L389.17,365.99L392.69,363.58L406.25,345.53L407.46,346.68L409.91,345.92L410.94,347.36L408.84,353.58L414.6,347.82L416.24,348.33L430.21,330.05L425.58,339.86L425.07,343.42L420.86,352.7L430.85,340.42L422.85,355.39L433.14,342.62L433.11,345.5L441.88,334.98L436.9,345.11L443.72,337.46L434.58,353.82L455.09,325.36L445.44,344.43L445.68,346.52L462.64,325.68L443.47,356.31L458.84,335.36L449.78,351.25L455.62,344.62L456.19,345.99L470.91,325.9L468.69,331.03L479.22,316.89L469.17,333.15L477.19,324.05L474.05,329.92L490.36,307.66L484.83,316.13L474.57,331.91L476.93,329.42L482.8,321.69L482.81,322.5L489,313.94L492.24,309.99L496.9,303.07L503,292.84L492.95,306.61L495.65,302.03L511.05,278.54L494.9,299.46L498.97,292.67L500.63,289.15L498.02,291.68L511.92,267.94L510.63,267.11L513.81,259.4L494.69,284.12L500.35,273.6L511.68,254.7L500.62,267.64L505.49,257.43L498.69,264.41L504.2,253.28L507.21,245.51L497.2,256.22L502.56,244.84L493.8,254.11L496.92,246.09L492.12,249.74L494.91,242.19L503.66,225.54L494.16,234.65L493.51,231.03L491.98,228.95L485.96,233.37L492.5,219.53L492.43,214.86L496.97,202.71L482.9,217.14L487.1,205.54L477.29,214.53L487.71,193.97L486.63,189.44L487.47,181.13L473.78,193.68L469.07,194.08L473.71,181.4L472.22,176.98L464.74,180.81L450.69,194.87L458.28,178.39L452.76,180.77L454.55,172.11L449.25,173.65L454.77,159.23L457.85,147.6L449.48,151.58L437.58,161.01L434.86,158.18L439.25,145.22L432.25,148.13L426.43,149.34L430.11,137.07L423.68,139L426,128.01L411.4,141.44L402.64,147.21L413.34,125.5L412.09,120.14L409.57,115.66L389.64,136.6L398.45,117L387.05,126.68L389.49,116.15L380.09,122.97L376.78,121.14L371.2,123.03L378.38,106.39L371.38,109.69L368.23,107.2L370.74,96.62L361.71,102.33L361.45,95.46L354.6,98.26L345.35,104.72L340.13,106.07L347.13,89.97L349.7,79.49L332.27,97.35L333.19,89.39L341.2,71.35L322.22,91.61L321.47,86.08L323.02,77.78L319.72,75.97L308.69,85.39L304.6,85.39L311.7,69.48L299.44,81.15L294.03,83.18L286.58,88.98L296.77,64.32L291.76,65.69L281.33,75.01L280.38,71.19L278.49,68.98L270.44,75.72L273.74,66.27L266.5,72.19L254.91,84.68L264.53,67.12L253.37,79.54L264.84,58.96L244.13,85.26L253.34,68.38L251.88,67.25L243.76,75.42L246.57,68.07L247.41,63.56L241.75,68.32L240.21,67.28L234.58,72.48L241.02,60.16L230.71,72.27L234.19,64.31L238.75,54.79L230.3,64.04L215.76,82.7L226.41,65.26L228.11,60.64L227.79,58.44L216.75,72.2L218.91,66.96L213.78,70.87L206.4,80.26L215.69,65.43L213.63,67.02L206.67,75.76L208.89,71.32L208.88,70.27L210.8,66.2L201.59,78.72L209.05,66.8L200.57,77.21L217.74,50.94L203.35,70.03L206.53,64.55L188.67,90.17L191.28,86.01L205.16,65.32L187.59,92.37L194.58,82.71L201.16,73.31L194.11,84.08L190.76,89.56L190.53,90.74L198.89,78.96L202.25,74.26L188.2,95.87L189.15,95.37L194.66,88.24L191.89,93.33L193.32,92.16L193.42,93.04L197.93,88.14L193.17,96.24L200.54,86.06L192.08,99.81L196.81,93.76L190.86,103.98L198.97,93.02L197.21,96.81L203.61,88.08L201.38,92.3L191.39,108.56L204.02,92.15L186.91,119.47L185.31,123.9L199.46,104.83L197.48,110.99L201.52,106.46L201.71,107.64L207.96,99.46L204.46,105.97L206.29,104.44L208.6,102.13L206.49,106.53L204.12,112.92L204,114.68L210.04,108.37L201.95,122.2L194.85,135L205.49,121.12L216.87,105.49L203.82,126.91L216.99,108.4L211.26,118.52L212.39,118.27L220.89,106.59L204.9,132.53L209.25,127.74L209.37,129.5L212.21,127.04L224.97,110.25L218.61,121.17L223.49,114.93L214.87,129.51L227.89,112.37L221.46,123.41L219.45,127.88L223.9,122.5L215.5,136.92L219.27,132.92L219.44,134.41L224.32,128.59L217.32,141.01L228.25,125.96L222.63,136.11L228.33,128.9L229.87,127.91L227.38,133.12L240.11,114.71L219.42,147.92L233.14,128.48L230.35,134.12L226.1,142.2L230.57,136.95L223.36,149.74L231.64,138.83L234.82,136.93L232.89,141.34L233.45,141.98L227.45,152.92L238.07,138.28L227.34,156.47L237.54,142.53L231.58,153.36L241.24,141.48L239.75,145.11L228.67,163.89L235.38,155.53L241.21,149.85L243.19,148.24L244.21,148.04L244.65,148.72L252.52,137.7L247.53,146.46L244.22,152.88L259.79,129.83L246.43,152.72L246.81,153.47L245.29,157.22L245.95,157.69L253.6,147.14L245.95,160.26L247.18,159.87L256.27,147.1L262.27,138.67L254.51,151.59L251.81,159.44L262.6,143.81L251.91,161.45L260.21,149.77L258.24,153.83L262.48,148.22L255.71,159.76L262.08,150.97L257.4,160.45L256.03,163.82L252.78,170.3L269.58,145.4L262.36,157.42L266.82,151.44L261.17,161.12L253.15,174.89L260.05,165.63L268.82,153.96L263.33,163.43L262.98,165.07L264.59,163.65L266.66,161.43L257.85,176.31L264.3,167.59L260.98,173.97L273.63,157.98L269.04,165.95L270.95,163.87L266.63,171.54L268.91,169.03L263.94,177.87L268.77,172.61L276.37,161.65L263.87,182.11L269.96,173.85L270.29,174.33L264.19,185.04L267.19,181.69L265.16,186.15L287.12,154.57L276.53,171.62L277.23,171.37L273.24,178.46L283.34,163.47L271.37,182.91L264.47,195.03L278.22,174.77L283.99,166.41L275.94,179.76L272.06,187.9L283.11,171.6L284.83,169.44L265.1,201.35L283.7,174.26L277.52,184.77L285.42,173.24L280.38,181.8L281.38,181.09L275.1,191.85L282.98,180.52L282.1,182.64L282.65,182.61L285.97,178.14L290.02,172.34L279.36,189.74L290.17,174.05L283.19,185.62L279.86,191.73L283.33,187.2L291.4,175.87L288.24,181.32L278.24,197.86L290.78,179.07L290.18,181.19L281.53,195.47L282.76,194.5L281.31,197.71L291.17,183.07L290.14,185.22L283.62,196.24L288.93,189.49L281.89,201.37L288.67,191.64L286.22,196.22L285.51,198.24L285.47,199.58L301.45,175.1L283.18,204.24L290.86,193.14L286.87,200.04L284.06,205.4L297.89,186.35L287.51,203.25L287.1,204.8L291.12,199.25L295.39,193.78L289.4,203.84L293.13,198.73L290.61,203.32L285.49,212.27L295.72,196.99L295.06,198.53L288.85,209.05L297.18,196.68L295.53,200.38L291.53,207.32L295.14,202.37L294.17,204.51L293.4,206.43L300.88,196.24L282.59,225.76L300.15,199.49L292.58,212.07L303.86,196.3L298.19,205.63L297.18,207.87L298.79,205.9L293.07,215.55L293.57,215.6L300.15,205.9L309.18,192L301.66,204.69L294.9,215.96L296.27,214.56L302.83,204.78L301.55,207.2L283.38,236.7L302.1,208.14L297.22,216.24L296.94,217.48L302.42,210.03L300.33,213.85L299.67,215.51L300.5,214.78L292.57,228L303.59,212.53L296.16,224.85L294.88,227.72L299.97,220.42L305.22,213.13L305.15,213.7L302.91,217.71L295.43,230.2L304.88,215.99L299.96,225.47L304.55,218.87L297.62,231.66L308.71,214.82L299.27,230.66L311.94,211.24L298.21,233.29L305.29,223.33L304.87,224.57L295.53,240.95L308.71,220.8L297.64,239.56L299.3,237.8L310.39,220.89L305.56,229.6L312.48,219.18L306.77,229.72L306.07,231.43L292.15,255.17L305,235.75L311.23,226.38L298.83,246.58L300.67,244.67L310.92,229.06L294.61,255.48L304.46,240.94L295.26,256.21L304.65,242.36L300.69,249.3L305.06,243.29L312.02,234.15L310.13,237.63L299.98,254.42L306.47,245.07L307.29,244.41L301.87,253.79L310.99,240.17L302.89,253.61L304.19,252.5L304.23,253.21L300.36,260.23L304.39,254.83L311.49,244.31L304.4,256.2L303.89,258L312.26,245.53L300.92,265.03L313.68,245.72L305.84,258.75L313.6,247.38L301.84,266.66L303.84,264.62L302.82,267.13L302.01,269.43L308.26,260.51L315.1,250.44L305.8,265.88L299.37,278.29L305.56,269.5L309.55,264.09L308.63,266.43L306.99,270.02L314.32,259.35L308.06,270.05L306.54,273.53L307.84,272.46L302.73,281.61L315.48,262.49L305.2,281.6L316.15,265.35L309.94,275.99L313.96,270.76L312.77,273.55L307.47,283L308.26,282.91L311.91,278.21L312.17,278.82L301.56,296.75L310.89,284.34L305.6,293.87L313.66,282.35L312.58,285.07L313.53,284.76L318.58,277.87L308,295.65L309.58,294.51L304.99,303.01L317.97,283.74L315.45,288.74L307.32,302.9L317.92,287.45L310.65,300.06L309.52,304.62L322.08,286.03L314.58,299.01L318.68,293.97L310.62,309.47L322.55,291.96L316.64,302.51L318.13,301.65L312.54,313.39L312.32,315.23L314.91,312.62L313.48,316.36L322.76,303.22L322.62,304.81L312.55,322.25L312.92,323.37L317.28,317.99L311.46,328.77L321.74,314.2L322.51,314.49L326.17,310.4L321.19,319.86L310.59,338.37L317.18,329.74L323.94,320.66L321.14,326.81L327.77,320L323.92,327.89L329.01,321.8L325.09,329.8L325.48,331.17L329.41,326.91L328.06,330.96L321.73,342.94L317.89,351.04L327.17,338.31L329.82,336.06L335.52,329.17L336.46,329.79L338.16,329.3L331.92,341.25L330.12,346.33L317.62,368.2L332.24,347.18L325.05,360.48L333.57,349.36L333.77,351.21L332.55,355.49L339.83,346.42L336.23,354.47L343.59,347.93L331.71,369.08L349.31,344.05L345.75,352.13L338.85,368.44L341.44,367.04L353.62,350.61L349.4,360.01L340.3,377.15L351.35,362.66L351.73,364.89L353.3,365.49L361.87,355.19L360.23,360.88L360.14,364.25L359.08,369.11L355.87,377.3L361.24,372.09L362.49,373.32L357.05,385.03L368.97,369.64L365.23,378.74L372.86,370.35L368.84,380.02L380.34,365.72L372.4,381.55L371.51,386.54L375.1,384.44L379.59,381L378.46,386.4L378.36,390.22L385.93,382.15L388.66,381.72L393.15,378.74L392.79,383.29L385.82,397.97L399.8,380.21L407.49,372.49L401.31,386.11L399.3,393.35L408.53,383.22L404.94,392.87L409.12,390.6L414.53,386.48L416.42,387.84L421.56,384.29L419.36,396.22L424.77,392.15L425.23,395.67L426.38,398.12L428.05,399.74L427.65,404.49L438.99,391.28L436.57,399.28L439.4,399.27L440.66,401.62L445.98,397.78L449.17,397.27L450.09,400.22L446.59,409.81L447.02,413.23L460.72,396.35L464.62,394.85L461.71,403.6L477.74,388.15L471.69,401.51L475.97,399.24L478.08,400.21L475.97,407.41L485.74,396.56L481.3,407.19L507.66,371.32L491.15,399.72L495,397.58L506.81,383.51L508.61,384.41L513.35,380.74L515.35,381.02L505.95,397.97L509.99,394.75L525.34,374.49L527.86,373.46L534.15,366.51L533.82,369.1L543.21,357.1L533.52,372.83L543.8,361.53L542.28,364.68L541.1,367.21L550.38,354.08L549.53,355.76L558.33,342.87L550.47,354.24L559.65,340.03L561.05,337.17L568.26,325.47L562.95,331.67L569.31,320.62L561.07,330.77L566.48,320.88L567.67,317.07L577.69,299.75L566.12,313.27L565.23,311.49L566.97,306.12L576.02,289.6L561.67,306.59L566.82,295.49L566.29,292.75L562.42,294.55L565.12,286.78L557.87,293.49L568.01,274.57L566.93,271.59L570.4,261.2L573.84,250.28L552.24,275.06L558.48,260.73L559.88,253.53L556.12,253.12L562.09,238.31L567.29,223.76L547.17,244.76L561.64,216.56L552.13,222.52L554.88,210.1L547.57,212.1L536.08,220.26L548.46,194.43L531.53,210.18L534.5,197.43L527.27,199.73L539.45,173.32L535.45,168.9L513.26,189.86L517.99,173.92L515.03,169.14L514.7,159.68L503.77,165.26L505.01,153.56L489.75,165.75L483.79,156.69L485.79,144.8L475.97,149.57L471.04,147.51L468.5,142.36L471.77,128.44L457.31,139.58L466.29,117.03L459.69,116.34L456.54,109.89L450.29,107.94L444.52,105.22L441.09,99.21L427.74,107.5L416.26,113.96L413.23,109.28L409.93,105.14L424.93,73.96L405.52,90.88L398.39,90.36L398.02,81.08L390.49,81.77L391.73,69.68L380.58,75.2L361.27,83.42L366.46,67.01L364.09,60.91L356.26,62.07L350.08,61.08L339.67,66.58L339.42,57.89L325.83,68.6L324.2,62.53L316.18,66.11L320.62,51.74L319.3,45.29L304.66,57.72L300.56,55.61L304.4,42.48L298.16,43.44L287.61,50.62L289.78,40L271.26,59.47L281.82,37.43L277.79,36.38L269.11,41.58L257.27,51.98L257.89,45.08L255.42,42.85L249.94,44.86L248.58,41.15L238.75,49.93L240.6,42.15L228.67,54.63L230.86,46.98L235.63,35.75L224.71,46.89L217.89,52.47L214.72,53.47L217.38,46.24L214.52,46.88L222.64,31.36L207.39,45.94L209.01,40.31L206.81,40.29L210.77,31.15L196.58,48.74L200.26,40.45L201.56,35.89L192.72,46.09L189.08,49.03L182.2,57.25L189.62,44.81L186.54,47.62L185.26,47.72L180.43,53.31L177.57,56.28L182.01,48.74L165.43,71.7L171.29,63.33L185.46,42.07L185.66,40.83L167.93,66.46L169.89,63.66L161.63,77.87L171.44,64.38L156.2,87.98L167.02,73.2L156.91,89.68L172.76,67.54L155.23,96.33L159.91,91.54L171.65,77.43L159.86,96.54L170.53,82.37L165.69,91.32L172.7,82.39L166.92,92.67L174.07,83.54L170.65,90.22L167.59,96.51L169.87,95.01L174.91,89.24L170.82,97.14L180.86,85.37L173.17,98.56L175.84,96.28L176.37,97.29L169.13,110.24L167.98,114.38L177.67,102.31L180.87,99.54L175.82,109.17L178.89,106.67L182.36,103.5L178.12,112.01L185.91,102.3L174.87,121.22L183.8,110.09L176.01,124.35L178.36,123.5L193.36,103.31L184.03,119.57L186.21,118.5L179.87,130.68L192.74,113.76L183.12,130.8L186.41,128.45L188.64,127.77L191.55,125.88L183.74,140.41L191.02,132.25L180.21,151.72L187.96,143.36L201.86,125.26L198.67,132.43L200.36,132.17L207.91,122.77L188.51,154.81L196.74,145.23L205.57,134.53L194.22,154.43L196.55,153.87L201.5,149.38L212.29,135.48L206.76,146.17L204.11,152.71L211.34,144.2L212.25,145.11L215.86,141.74L211.78,150.14L213.17,150.31L205.39,164.77L209.47,161.41L222.44,144.13L212.71,161.33L229.17,138.28L221.06,152.58L211.69,169.31L222.22,155.77L216.92,166.34L218.64,166.3L214.78,174.99L221.61,167.34L212.29,184.54L226.27,166.17L239.07,148.75L232.86,160.12L238.56,153.16L225.79,174.81L232.31,167.14L232.26,169.45L232.27,171.71L237.68,165.55L225.49,186.63L228.15,185.33L241.01,168.08L231.81,184.5L229.89,190.1L244.93,169.48L250.31,162.97L238.74,182.65L236.13,191.49L249.28,173.55L240.55,189.07L243.01,187.58L245.45,186.03L241.83,193.88L248.07,186.55L244.2,194.72L248.18,190.86L256.6,179.83L248.34,194.49L256.31,184.16L250.73,194.68L253.71,192.11L246.08,206.07L252.31,198.81L260.26,188.51L249.52,207.13L257.12,197.56L247.71,214.34L252.5,209.45L262.58,196.02L258.17,206.81L259.96,206.12L262.26,204.58L266.9,199.24L269.2,197.32L259.01,214.96L269.55,200.58L266.29,207.34L259.38,220.09L265.2,213.21L267.99,210.81L265.36,216.81L255.57,234.32L281.73,195.77L269.83,217.4L269,220.59L275.25,212.7L271.81,219.78L280.78,207.51L272.3,222.28L274.23,221.13L277.01,218.52L274.11,226.54L278.22,221.93L280.96,219.28L275.71,229.13L278.7,226.27L277.56,229.8L285.28,219.42L278.88,230.92L274.21,240.1L280.34,232.44L285.01,226.82L292.7,216.2L277.94,240.69L286.78,228.65L282.11,237.49L285.41,234.06L291.87,225.45L292.14,226.34L281.16,245L289.67,233.41L283.56,244.5L287.48,240.11L285.65,246.32L291.5,238.82L295.19,234.44L287.39,248.12L290.31,245.24L290.63,246.26L279.48,265.52L295.5,242.26L297.33,240.73L293.3,248.51L294.86,247.58L292.34,253.05L294.08,251.92L289.21,261.17L293.67,255.89L292.34,259.57L290.82,263.68L296.58,256.3L296.31,258.24L297,258.75L303.47,251.42L302.08,254.97L307.15,249.64L302.36,258.45L304.19,257.01L303.17,259.95L290.27,281.81L305.49,259.62L301.06,267.91L307.95,258.62L292.55,284.25L305.35,265.92L307.3,264.17L305.86,267.88L309.59,263.46L306,270.47L302.52,277.49L308,270.45L316,259.23L313.63,264.15L305.27,278.68L307.19,277.24L305.12,282.03L312.65,271.75L309.92,278.96L314.18,273.73L311.29,279.72L321.27,265.48L310.36,283.86L309.94,286.18L316.01,279.57L303.52,300.77L312.76,287.99L312.21,290.32L307.3,299.72L309.84,297.46L318.49,285.43L318.67,286.61L314.76,294.33L315.61,294.68L325.86,280.12L323.71,284.89L319.49,294.68L310.84,309.97L330.09,282.82L322.62,296.04L319.26,303.06L324.83,296.04L331.57,288.67L323.96,302.18L334.36,287.62L326.75,301.05L322.04,310.27L330.32,299.08L332.99,296.52L325.84,309.43L328.42,307.27L337.36,294.99L330,308.17L328.7,312.11L336.07,302.39L334.68,306.31L330.51,314.73L344.35,294.92L336.06,311.42L338.25,309.92L340.27,308.64L340.45,310.26L341.52,310.52L335.9,321.24L344.19,312.28L332.13,333.11L346.86,314.19L340.48,326.21L342.32,325.55L352.5,311.74L348.53,319.98L339.81,335.79L356.46,312.03L353.92,318.07L359.39,311.81L349.63,329.1L363.55,314.38L348.04,340.66L357.3,328.76L358.9,328.6L370.77,314.98L358.96,335.53L371.6,318.47L362.21,335.35L369.38,326.81L371.36,326.19L358.16,349.07L370.56,332.46L374.54,328.78L371.54,335.97L375.71,332.14L372.45,339.78L387.32,319.45L379.57,333.84L382.13,332.57L379.97,338.53L386.96,330.45L384.69,336.58L391.09,334.81L392.05,336.04L400.6,325.61L399.97,329.16L404.65,324.62L398.7,336.23L402.1,333.71L392.8,350.59L405.85,333.29L408.05,332.58L407.43,336.13L401.84,347.31L416.93,326.91L418.96,326.39L423.6,321.79L415.54,336.34L415.52,338.91L417.39,338.67L433.21,317.11L436.38,314.56L421.2,339.32L428.57,330.54L441.53,313.24L429.15,333.79L437.5,323.36L426.68,341.88L428.59,341.28L436.19,332.06L445.28,322.59L441.14,330.75L447.64,322.94L449.77,321.62L453.16,318.26L448.75,326.49L461.78,308.59L448.22,330.23L454.87,323.59L471.28,300.44L461.98,315.19L464.73,312.02L463.08,315.57L467.28,310.33L463.74,316.55L484.08,288.02L483.41,288.49L469.68,308.17L485.92,283.92L486.47,282.5L487.61,279.63L483.46,284.56L478.78,290.45L487.16,277.23L479.55,287.38L483.59,280.36L489.45,270.55L485.47,274.74L484.69,274.23L490.78,263.6L479.22,278.65L485.88,267.17L505.97,235.47L501.03,238.78L479.06,263.28L489.04,246.2L478.97,258.23L478.36,256.54L480.75,250.7L489.94,234.39L483.49,240.23L479.38,242.63L480.08,238.41L483.35,230.21L483.25,226.48L476.23,232.61L483.85,217.5L474.55,226.75L478.86,216.13L471.49,222.58L468.91,222.17L472.65,212.72L462.14,223.87L476.27,199.02L471.07,201.67L459.48,213.24L454.26,216.68L463.46,199.34L467.25,189.09L468.44,181.53L455.54,194.07L463.06,177.4L458.71,177.67L456.37,174.54L449.21,178.6L458.3,159.07L438.66,180.73L456.98,147.6L442.85,160.88L432.28,168.88L435.51,158.13L430.41,159.28L423.6,162.87L419.68,162.82L427.62,145.56L411.35,162.92L410.63,158.32L411.67,151.63L417.48,130.88L407.44,138.29L406.83,132.28L402.72,131.5L406.01,119.74L384.34,144.06L389.95,129.87L385.24,130.97L387.7,121.16L383.32,121.05L377.8,122.45L374.32,121.22L374.22,115.15L376.48,105.32L369.08,109L365.28,107.57L353.06,118.79L356.86,107.38L359.62,97.29L350.91,103.11L344.54,105.84L334.01,115.31L339.12,102.7L331.89,107.84L337.01,94.89L333,94.91L331.81,90.5L332.07,83.93L316.67,100L321.2,87.81L312.93,94.38L311.21,91.44L314.88,80.84L306.85,86.83L303.06,86.82L290.69,99.85L296.77,82.49L288.12,90.31L286.26,88.54L298.36,66.57L289.82,73.71L288.02,70.87L272.16,89.1L264.91,95.67L275.33,74L275.69,69.25L258.28,90.36L258.09,87.25L263.73,76.15L260.24,77.76L258.56,76.63L266.13,61.99L247.96,84.77L246.89,83.13L251.19,74.29L242.79,83.69L246.42,75.69L239.82,82.78L248.38,65.01L239.21,75.42L239.65,71.97L232.82,79.53L241.65,64.18L230.5,78.05L238.73,63.48L219.79,89.16L223.27,82.38L230.04,71.14L228.72,71.13L236.56,57.31L226.2,70.19L229.57,62.89L212.51,82.76L213.34,80.52L209.42,85.55L211.39,81.99L216.91,73.13L218.66,69.4L216.6,71.13L211.98,76.8L214.85,71.56L203.87,87.11L209.59,78.05L211.74,74.33L200.85,89.43L205.18,82.73L213.96,69.2L211.1,72.92L214.6,66.95L197.29,92.54L205.64,80.13" style="vector-effect: non-scaling-stroke; fill: none; stroke: rgb(239, 85, 59); stroke-opacity: 1; stroke-width: 2px; opacity: 1;"/></g><g class="points"/><g class="text"/></g></g></g><g class="overplot"/><path class="xlines-above crisp" d="M79,520.5H693M79,99.5H693" style="fill: none; stroke-width: 1px; stroke: rgb(0, 0, 0); stroke-opacity: 1;"/><path class="ylines-above crisp" d="M79.5,100V520M692.5,100V520" style="fill: none; stroke-width: 1px; stroke: rgb(0, 0, 0); stroke-opacity: 1;"/><g class="overlines-above"/><g class="xaxislayer-above"><g class="xtick"><text text-anchor="middle" x="0" y="535.4" transform="translate(167.43,0)" style="font-family: 'Open Sans', verdana, arial, sans-serif; font-size: 12px; fill: rgb(42, 63, 95); fill-opacity: 1; white-space: pre; opacity: 1;">10</text></g><g class="xtick"><text text-anchor="middle" x="0" y="535.4" style="font-family: 'Open Sans', verdana, arial, sans-serif; font-size: 12px; fill: rgb(42, 63, 95); fill-opacity: 1; white-space: pre; opacity: 1;" transform="translate(276.71000000000004,0)">5</text></g><g class="xtick"><text text-anchor="middle" x="0" y="535.4" style="font-family: 'Open Sans', verdana, arial, sans-serif; font-size: 12px; fill: rgb(42, 63, 95); fill-opacity: 1; white-space: pre; opacity: 1;" transform="translate(386,0)">0</text></g><g class="xtick"><text text-anchor="middle" x="0" y="535.4" style="font-family: 'Open Sans', verdana, arial, sans-serif; font-size: 12px; fill: rgb(42, 63, 95); fill-opacity: 1; white-space: pre; opacity: 1;" transform="translate(495.29,0)">5</text></g><g class="xtick"><text text-anchor="middle" x="0" y="535.4" style="font-family: 'Open Sans', verdana, arial, sans-serif; font-size: 12px; fill: rgb(42, 63, 95); fill-opacity: 1; white-space: pre; opacity: 1;" transform="translate(604.57,0)">10</text></g></g><g class="yaxislayer-above"><g class="ytick"><text text-anchor="end" x="76.6" y="4.199999999999999" transform="translate(0,520)" style="font-family: 'Open Sans', verdana, arial, sans-serif; font-size: 12px; fill: rgb(42, 63, 95); fill-opacity: 1; white-space: pre; opacity: 1;">15</text></g><g class="ytick"><text text-anchor="end" x="76.6" y="4.199999999999999" style="font-family: 'Open Sans', verdana, arial, sans-serif; font-size: 12px; fill: rgb(42, 63, 95); fill-opacity: 1; white-space: pre; opacity: 1;" transform="translate(0,436)">10</text></g><g class="ytick"><text text-anchor="end" x="76.6" y="4.199999999999999" style="font-family: 'Open Sans', verdana, arial, sans-serif; font-size: 12px; fill: rgb(42, 63, 95); fill-opacity: 1; white-space: pre; opacity: 1;" transform="translate(0,352)">5</text></g><g class="ytick"><text text-anchor="end" x="76.6" y="4.199999999999999" style="font-family: 'Open Sans', verdana, arial, sans-serif; font-size: 12px; fill: rgb(42, 63, 95); fill-opacity: 1; white-space: pre; opacity: 1;" transform="translate(0,268)">0</text></g><g class="ytick"><text text-anchor="end" x="76.6" y="4.199999999999999" style="font-family: 'Open Sans', verdana, arial, sans-serif; font-size: 12px; fill: rgb(42, 63, 95); fill-opacity: 1; white-space: pre; opacity: 1;" transform="translate(0,184)">5</text></g><g class="ytick"><text text-anchor="end" x="76.6" y="4.199999999999999" style="font-family: 'Open Sans', verdana, arial, sans-serif; font-size: 12px; fill: rgb(42, 63, 95); fill-opacity: 1; white-space: pre; opacity: 1;" transform="translate(0,100)">10</text></g></g><g class="overaxes-above"/></g></g><g class="polarlayer"/><g class="smithlayer"/><g class="ternarylayer"/><g class="geolayer"/><g class="funnelarealayer"/><g class="pielayer"/><g class="iciclelayer"/><g class="treemaplayer"/><g class="sunburstlayer"/><g class="glimages"/><defs id="topdefs-acbd71"><g class="clips"/><clipPath id="legendacbd71"><rect width="84" height="48" x="0" y="0"/></clipPath></defs><g class="layer-above"><g class="imagelayer"/><g class="shapelayer"/></g><g class="infolayer"><g class="legend" pointer-events="all" transform="translate(704.24,100)"><rect class="bg" shape-rendering="crispEdges" width="84" height="48" x="0" y="0" style="stroke: rgb(68, 68, 68); stroke-opacity: 1; fill: rgb(255, 255, 255); fill-opacity: 1; stroke-width: 0px;"/><g class="scrollbox" transform="" clip-path="url(#legendacbd71)"><g class="groups"><g class="traces" transform="translate(0,14.5)" style="opacity: 1;"><text class="legendtext" text-anchor="start" x="40" y="4.680000000000001" style="font-family: 'Open Sans', verdana, arial, sans-serif; font-size: 12px; fill: rgb(42, 63, 95); fill-opacity: 1; white-space: pre;">trace 0</text><g class="layers" style="opacity: 1;"><g class="legendfill"/><g class="legendlines"><path class="js-line" d="M5,0h30" style="fill: none; stroke: rgb(99, 110, 250); stroke-opacity: 1; stroke-width: 2px;"/></g><g class="legendsymbols"><g class="legendpoints"/></g></g><rect class="legendtoggle" x="0" y="-9.5" width="78.375" height="19" style="fill: rgb(0, 0, 0); fill-opacity: 0;"/></g><g class="traces" transform="translate(0,33.5)" style="opacity: 1;"><text class="legendtext" text-anchor="start" x="40" y="4.680000000000001" style="font-family: 'Open Sans', verdana, arial, sans-serif; font-size: 12px; fill: rgb(42, 63, 95); fill-opacity: 1; white-space: pre;">trace 1</text><g class="layers" style="opacity: 1;"><g class="legendfill"/><g class="legendlines"><path class="js-line" d="M5,0h30" style="fill: none; stroke: rgb(239, 85, 59); stroke-opacity: 1; stroke-width: 2px;"/></g><g class="legendsymbols"><g class="legendpoints"/></g></g><rect class="legendtoggle" x="0" y="-9.5" width="78.375" height="19" style="fill: rgb(0, 0, 0); fill-opacity: 0;"/></g></g></g><rect class="scrollbar" rx="20" ry="3" width="0" height="0" x="0" y="0" style="fill: rgb(128, 139, 164); fill-opacity: 1;"/></g><g class="g-gtitle"/><g class="g-xtitle"/><g class="g-ytitle"/></g></svg>