<svg class="main-svg" xmlns="http://www.w3.org/2000/svg" xmlns:xlink="http://www.w3.org/1999/xlink" width="800" height="600" style="" viewBox="0 0 800 600"><rect x="0" y="0" width="800" height="600" style="fill: rgb(255, 255, 255); fill-opacity: 1;"/><defs id="defs-8adc11"><g class="clips"><clipPath id="clip8adc11xyplot" class="plotclip"><rect width="612" height="420"/></clipPath><clipPath class="axesclip" id="clip8adc11x"><rect x="80" y="0" width="612" height="600"/></clipPath><clipPath class="axesclip" id="clip8adc11y"><rect x="0" y="100" width="800" height="420"/></clipPath><clipPath class="axesclip" id="clip8adc11xy"><rect x="80" y="100" width="612" height="420"/></clipPath></g><g class="gradients"/><g class="patterns"/></defs><g class="bglayer"/><g class="layer-below"><g class="imagelayer"/><g class="shapelayer"/></g><g class="cartesianlayer"><g class="subplot xy"><g class="layer-subplot"><g class="shapelayer"/><g class="imagelayer"/></g><g class="gridlayer"><g class="x"><path class="xgrid crisp" transform="translate(141.2,0)" d="M0,100v420" style="stroke: rgb(235, 240, 248); stroke-opacity: 1; stroke-width: 1px;"/><path class="xgrid crisp" transform="translate(263.6,0)" d="M0,100v420" style="stroke: rgb(235, 240, 248); stroke-opacity: 1; stroke-width: 1px;"/><path class="xgrid crisp" transform="translate(508.4,0)" d="M0,100v420" style="stroke: rgb(235, 240, 248); stroke-opacity: 1; stroke-width: 1px;"/><path class="xgrid crisp" transform="translate(630.8,0)" d="M0,100v420" style="stroke: rgb(235, 240, 248); stroke-opacity: 1; stroke-width: 1px;"/></g><g class="y"><path class="ygrid crisp" transform="translate(0,436)" d="M80,0h612" style="stroke: rgb(235, 240, 248); stroke-opacity: 1; stroke-width: 1px;"/><path class="ygrid crisp" transform="translate(0,352)" d="M80,0h612" style="stroke: rgb(235, 240, 248); stroke-opacity: 1; stroke-width: 1px;"/><path class="ygrid crisp" transform="translate(0,184)" d="M80,0h612" style="stroke: rgb(235, 240, 248); stroke-opacity: 1; stroke-width: 1px;"/></g></g><g class="zerolinelayer"><path class="xzl zl crisp" transform="translate(386,0)" d="M0,100v420" style="stroke: rgb(235, 240, 248); stroke-opacity: 1; stroke-width: 2px;"/><path class="yzl zl crisp" transform="translate(0,268)" d="M80,0h612" style="stroke: rgb(235, 240, 248); stroke-opacity: 1; stroke-width: 2px;"/></g><path class="xlines-below"/><path class="ylines-below"/><g class="overlines-below"/><g class="xaxislayer-below"/><g class="yaxislayer-below"/><g class="overaxes-below"/><g class="plot" transform="translate(80,100)" clip-path="url(#clip8adc11xyplot)"><g class="scatterlayer mlayer"><g class="trace scatter trace87a224" style="stroke-miterlimit: 2; opacity: 1;"><g class="fills"/><g class="errorbars"/><g class="lines"><path class="js-line" d="M208.08,168L234.09,187.68L234.54,188.08L241.97,195.67L242.27,196.04L246.79,203L246.98,203.37L249.55,210.59L249.64,210.99L250.61,218.38L250.63,218.81L250.16,228.88L250.1,229.36L247.54,242.45L247.39,243.02L242.62,257.97L242.38,258.61L236.71,271.76L236.38,272.43L229.98,284.07L229.56,284.76L222.44,294.9L221.91,295.56L214.4,303.69L213.77,304.27L206.27,310.14L205.54,310.61L197.68,314.61L196.84,314.92L189.76,316.79L188.83,316.93L180.99,317.19L179.96,317.11L172.46,315.68L171.34,315.35L163.21,312.03L162.01,311.41L153.29,305.86L152,304.89L142.74,296.81L141.38,295.46L131.67,284.58L130.26,282.82L120.25,269L118.81,266.81L108.7,250.07L107.26,247.48L95.94,225.13L94.56,222.16L83.96,197.23L82.7,194L73.38,167.83L72.32,164.55L64.88,138.9L64.09,135.81L59.07,112.65L58.61,109.99L56.56,93.27L56.43,91.17L56.57,80.31L56.74,78.8L58.25,72.54L58.67,71.55L61.41,67.92L62.07,67.45L65.11,66.41L65.96,66.35L70.7,67.17L71.74,67.55L78.58,71.14L79.81,71.94L90.38,79.99L91.78,81.18L109.4,97.23L110.92,98.67L166.33,150.91L167.55,152L215.64,195.27L216.12,195.78L223.71,205.44L223.99,205.9L227.58,213.01L227.74,213.44L229.48,220.37L229.54,220.8L229.67,228.16L229.63,228.6L228.19,236.04L228.06,236.49L224.95,244.41L224.73,244.85L220.02,252.6L219.71,253.01L214.13,259.38L213.74,259.76L207.23,264.83L206.75,265.12L200.04,268.34L199.49,268.53L192.99,270L192.36,270.07L185.78,270.06L185.09,269.98L177.86,268.36L177.11,268.1L169.28,264.54L168.47,264.07L160.12,258.24L159.26,257.54L150.51,249.2L149.62,248.24L140.68,237.29L139.78,236.07L130.05,221.13L129.18,219.65L120.01,202.19L119.22,200.52L111.17,181.52L110.51,179.76L104.17,160.6L103.69,158.9L99.62,141.19L99.37,139.7L98.03,127.4L97.99,126.18L98.45,117.54L98.6,116.61L100.3,111.07L100.62,110.42L103.48,106.86L103.96,106.48L107.88,104.8L108.51,104.68L113.36,104.69L114.11,104.8L120.57,106.51L121.43,106.82L131.45,111.31L132.4,111.8L150.14,121.87L151.14,122.47L187.61,143.73L188.44,144.18L211.76,155.72L212.39,156L231.03,163.6L231.45,163.76L258.59,174.14L258.71,174.22L262.7,177.38L262.78,177.47L265.31,181.41L265.36,181.53L266.83,186.71L266.85,186.87L267.41,193.78L267.41,194L266.7,206.88L266.66,207.21L263.45,227.85L263.36,228.34L258.03,251.41L257.85,252.07L251.19,274.14L250.92,274.95L243.07,295.5L242.68,296.4L234.68,313L234.17,313.93L226.26,326.94L225.64,327.85L217.37,338.41L216.61,339.24L209.32,346.29L208.45,347.01L201.04,352.19L200.05,352.75L192.77,356.06L191.67,356.43L183.55,358.16L182.33,358.28L174.66,358.14L173.33,357.97L164.97,355.95L163.52,355.44L154.45,351.14L152.88,350.22L143.12,343.25L141.44,341.84L131.03,331.8L129.24,329.86L118.27,316.41L116.4,313.87L105,296.8L103.07,293.65L91.46,272.91L89.52,269.16L77.98,245.01L76.08,240.73L64.96,213.78L63.17,209.1L52.9,180.34L51.28,175.48L40.97,141.52L39.66,136.75L31.82,104.85L30.9,100.57L26.14,73.42L25.7,69.99L24.42,52.3L24.44,49.85L25.49,39.9L25.89,38.37L28.15,33.83L28.86,33.08L31.37,31.74L32.33,31.58L35.52,31.96L36.68,32.36L41.85,35.21L43.26,36.22L50.91,42.82L52.55,44.42L64.86,57.68L66.72,59.81L90.08,87.96L92.07,90.4L134.12,141.26L135.87,143.31L171.95,184.28L173.18,185.67L193.48,209.35L194.28,210.36L203.64,223.36L204.18,224.21L209.76,234.66L210.09,235.42L212.95,244.15L213.1,244.85L214.02,252.96L214.03,253.62L213.22,261.2L213.09,261.81L210.45,269.37L210.18,269.92L206.21,276.1L205.82,276.58L200.92,281.31L200.42,281.68L194.93,284.89L194.33,285.15L187.86,286.96L187.16,287.06L180.49,287.15L179.7,287.06L173.11,285.61L172.25,285.33L165.06,282.14L164.12,281.63L155.39,275.68L154.39,274.86L146.15,267.21L145.09,266.11L135.45,254.67L134.37,253.22L125.67,240.51L124.59,238.77L114.96,221.83L113.92,219.81L103.9,198.42L102.96,196.19L94.28,173.41L93.5,171.12L86.83,148.71L86.28,146.56L82.5,128.37L82.21,126.51L80.91,113.09L80.88,111.61L81.46,102.62L81.66,101.54L83.46,96.14L83.86,95.42L86.25,92.61L86.81,92.2L89.97,90.89L90.68,90.77L95.36,90.98L96.21,91.16L102.69,93.44L103.68,93.9L113.18,99.24L114.29,99.94L131.7,112.17L132.89,113.05L183.4,150.02L184.33,150.65L211.22,168.16L211.84,168.55L231.5,181.88L231.83,182.14L238.9,189L239.09,189.24L242.39,194.54L242.5,194.79L244.29,200.66L244.34,200.93L244.68,208.32L244.66,208.63L243.36,217.43L243.28,217.78L240.15,228.3L240,228.7L235.07,240.13L234.85,240.57L227.63,252.81L227.31,253.26L220.53,261.78L220.13,262.21L213.09,268.72L212.61,269.1L204.72,274.01L204.15,274.28L197.47,276.69L196.83,276.84L190.05,277.75L189.34,277.77L181.86,277.09L181.07,276.93L173.75,274.62L172.9,274.26L165.04,270.04L164.14,269.45L155.82,263.03L154.87,262.19L146.2,253.38L145.23,252.26L136.39,240.96L135.41,239.57L126.64,225.89L125.68,224.24L116.4,206.66L115.51,204.8L107.18,185.55L106.41,183.59L99.56,163.9L98.97,161.96L94.12,143.32L93.75,141.56L91.46,126.93L91.32,125.46L91.12,114.99L91.21,113.85L92.51,107.03L92.79,106.22L94.99,102.25L95.44,101.74L98.58,99.49L99.18,99.25L103.18,98.6L103.91,98.62L109.5,99.61L110.35,99.87L118.65,103.31L119.62,103.79L132.98,111.48L134.04,112.14L196.8,151.86L197.59,152.3L221.49,164.79L222,165.05L244.46,176.67L244.68,176.82L249.92,180.85L250.07,181L253.36,185.08L253.46,185.24L255.64,190.63L255.69,190.82L256.49,196.71L256.5,196.95L256.14,205.91L256.1,206.21L254.27,217.33L254.19,217.7L250.59,231.72L250.45,232.19L244.92,248.26L244.7,248.82L237.18,265.57L236.86,266.19L229.06,279.56L228.64,280.2L221.05,290.19L220.53,290.79L213.07,298.19L212.44,298.72L205.06,303.95L204.34,304.36L197.46,307.52L196.65,307.79L188.95,309.51L188.05,309.6L180.46,309.52L179.47,309.4L171.17,307.41L170.08,307.02L162.23,303.37L161.07,302.7L152.68,296.96L151.45,295.97L142.6,287.87L141.31,286.53L132.09,275.87L130.75,274.16L119.95,258.75L118.59,256.62L107.8,237.92L106.46,235.39L96.06,213.87L94.8,211.04L84.14,184.58L83.04,181.57L75.05,157.52L74.17,154.55L68.13,131.67L67.51,128.96L63.86,108.96L63.57,106.7L62.6,92.75L62.62,91.04L63.54,82.33L63.83,81.15L65.84,76.41L66.36,75.7L68.78,73.59L69.47,73.25L73.42,72.62L74.3,72.7L79.15,74.03L80.2,74.47L88.19,79L89.41,79.83L101.14,88.84L102.51,89.98L123.74,108.78L125.18,110.09L169,148.99L170.16,149.97L220.69,192.71L221.11,193.15L227.52,201.03L227.78,201.42L231.28,208.04L231.43,208.43L233.23,215.37L233.28,215.75L233.46,222.45L233.43,222.85L231.85,231.43L231.73,231.85L228.71,239.89L228.51,240.32L223.97,248.43L223.69,248.85L217.16,257L216.78,257.39L210.14,263.1L209.68,263.42L202.72,267.28L202.18,267.5L195.3,269.5L194.69,269.6L188.27,269.99L187.59,269.96L180.54,268.83L179.8,268.63L172.14,265.68L171.35,265.28L163.15,260.17L162.3,259.54L153.67,252L152.79,251.12L143.89,241L143,239.86L133.22,225.79L132.34,224.38L122.99,207.62L122.17,206L113.08,185.66L112.39,183.92L105.69,164.75L105.17,163.04L100.63,144.99L100.33,143.45L98.45,129.35L98.38,128.09L98.72,118.14L98.86,117.2L100.49,111.58L100.8,110.92L103.59,107.25L104.07,106.86L107.31,105.23L107.92,105.07L112.59,104.77L113.32,104.84L119.62,106.26L120.46,106.54L129.38,110.28L130.31,110.73L145.88,119.27L146.87,119.85L191.43,145.56" style="vector-effect: non-scaling-stroke; fill: none; stroke: rgb(99, 110, 250); stroke-opacity: 1; stroke-width: 2px; opacity: 1;"/></g><g class="points"/><g class="text"/></g><g class="trace scatter tracedfff6e" style="stroke-miterlimit: 2; opacity: 1;"><g class="fills"/><g class="errorbars"/><g class="lines"><path class="js-line" d="M403.92,168L403.38,133.53L402.42,125.5L401.45,122.01L400.96,133.02L400.32,136.12L399.4,131.69L398.93,141.21L398.23,140.67L397.39,136.94L395.21,130.5L394.73,135.85L393.85,144.17L393.25,142.9L392.79,146.59L392.19,143.92L391.19,147.58L390.41,138.77L389.49,145.56L389.09,151.19L388.58,152.24L387.79,143.39L387.26,145.93L387.02,158.87L384.19,141.97L383.65,145.33L382.79,160.21L382.01,154.38L381.41,156.35L380.62,148.77L379.99,149.94L379.72,165.37L378.2,153.71L377.76,162.09L377.22,166.19L376.54,163.01L375.39,167.63L374.62,158.24L373.85,148.56L373.53,161.4L373.18,171.51L372.49,164.16L371.88,160.82L371.37,161.41L370.94,166.3L369.98,168.77L369.59,175.7L369.02,170.83L368.55,172.83L368.25,186.07L367.71,184.61L367.09,175.26L366.57,172.1L366.16,175.96L365.29,181.78L364.77,177.17L364.3,175.07L363.91,179.91L363.49,183.67L362.98,177.07L362.53,174.32L362.14,176.66L361.34,178.07L360.94,177.87L360.57,180.72L360.24,189.99L359.83,195.91L359.3,182.45L358.89,175.98L358.59,184.1L357.82,196.31L357.36,185.5L356.98,177.59L356.74,197.08L356.31,202.64L355.88,193.14L355.18,184.52L354.89,190.62L354.23,192.42L353.91,189.11L353.26,203.85L352.9,201.18L352.56,200.76L352.23,200.7L351.93,193.77L350.96,210.9L350.61,210.08L350.3,207.34L350.02,204.26L349.74,208.09L349.44,208.75L349.11,218.53L348.81,207.56L348.7,196.39L348.08,221.79L347.78,216.71L347.63,205.53L346.08,232.75L345.72,229.94L345.55,221.69L345.4,217.71L345,220.99L344.71,228.97L344.4,230.94L344.27,224.56L343.73,234.33L343.55,229.85L343.59,219.04L342.88,238.29L342.74,233.83L342.69,228.5L341.87,240.45L341.73,239.83L341.81,229.52L341.6,237.87L341.51,236.97L341.33,241.96L341.09,238.9L340.61,251.91L340.46,250.38L340.8,233.11L340.84,238.43L340.65,247.47L340.25,244.37L339.77,268.48L340.03,260.94L339.96,266.16L340.43,256.05L340.8,256.79L340.98,259.09L340.3,283.99L340.98,274.94L341.34,273.53L341.73,280.05L342.14,275.64L342,288.65L342.55,280.47L342.77,283.27L342.55,291.43L343.22,280.42L343.39,286.3L343.44,287.76L343.83,295.06L343.83,297.15L344.04,297.2L344.55,291.1L344.96,291.25L344.9,297.61L345.15,297.39L345.14,302.94L344.92,322.4L345.28,317.65L346.86,305.41L346.78,317.48L346.5,324.56L347.03,321.44L347.49,320.04L348.71,308.87L349.18,314.08L349.93,329.24L350.66,324.1L351.25,323.2L351.35,328.77L351.7,328.7L352.47,324.54L353.09,323.79L353.2,329.87L353.89,336.71L354.37,333.94L354.99,332.83L354.81,340.84L355.58,339.92L354.68,356.38L354.91,352.02L356.21,342.58L356.4,356.95L356.96,355.67L358.09,348.9L358.21,361L359.69,352.86L359.9,360.15L361.19,352.54L362.87,346.92L362.81,359.44L362.85,365.93L364.58,354.74L364.99,363.32L363.92,380.38L365.3,376.56L365.57,380.01L367.58,366.13L370.02,355.27L369.82,378.75L370.92,375.05L371.81,381.63L372.96,379.04L374.18,375.98L374.33,384.86L373.95,393.53L374.94,389.83L376.5,383.36L377.83,381.57L377.68,392.49L378.46,390.91L380.38,383.92L379.08,405.48L379.57,402.09L382.04,390.96L383.48,388.43L384.73,389.86L384.51,401.25L385.43,400.22L386.79,398.76L386.7,408.29L387.69,406.43L388.45,409.9L389.49,408.31L391.49,403.13L392.57,414.26L393.83,412.82L396.16,405.51L396.6,414.76L397.73,413.74L399.98,409.13L401.77,407.33L402.78,412.85L403.05,420.04L404.82,416.48L406.32,416.83L408.04,414.72L412.37,408.17L414.31,408.24L414.91,423.13L415.51,428.05L417.21,423.17L419.24,420.73L421.24,416.85L422.62,420.2L423.14,425.28L424.71,424.4L427.85,414.08L428.03,426.56L427.94,432.54L431.07,422.43L433.03,421.54L433.22,430.95L434.67,429.41L437.62,422.41L439.55,422.42L440.31,429.08L441.05,433.34L443.27,429.59L443.43,439.26L445.13,435.87L450.48,427.25L451.92,432.28L457.3,425.03L458.95,427.73L462.29,421.32L465.23,419.1L468.48,414.42L469.71,422.16L471.58,421.54L473.84,421.79L475.76,420.9L479.35,413.26L481.01,416.35L483.38,413.47L486.39,409.04L486.81,417.28L490.96,402.95L494.67,397.52L494.52,408.27L496.9,403.56L502.66,392.67L504.06,395.77L505.82,393.86L510.04,381.12L514.38,369.9L516.18,372.92L518.17,371.59L518.42,380.04L518.52,383.7L521.3,374.96L524.67,364.43L526.23,365.43L529.02,357.46L531.66,353.72L535.45,350.82L536.31,353.47L538.88,346.59L540.8,344.63L544.43,332.69L546.92,330.49L548.6,329.93L551.36,324.59L553.71,320.87L557.38,310.56L558.11,317.89L561.05,308.47L563.95,303.62L564.31,310.27L567.48,299.74L569.42,298.35L571.64,293.22L575.68,279.13L578.98,270.93L581,270.87L583.52,265.89L586.58,257.71L588.99,253.72L589.83,259.11L596.86,229.69L597.21,240.01L597.9,242.94L600.23,233.24L606.78,202.5L609.02,197.32L609.92,203.19L611.05,203.23L612.69,197.3L614.73,186.67L617.74,167.88L618.66,171.49L619.79,171.93L621.03,168.8L624.32,150.02L625.04,152.91L625.85,153.69L626.83,149.72L629.48,129.81L630.4,128.48L631.31,126.98L632.28,123.08L632.8,126.81L634.23,109.33L634.82,105.5L635.51,110.99L637.01,101.3L637.59,102.43L639.55,78.76L640.03,86.78L640.52,84.47L640.6,72L639.9,40.14L639.41,39.9L640.16,62L639.5,52.42L637.33,30.1L636.73,41.63L635.62,37.9L634.8,36.26L633.13,26.83L632.3,39.89L631.14,37.5L626.84,17.31L625.94,25.25L624.12,16.73L622.47,19.52L622.03,26.27L619.11,11.6L617.1,11.69L616.38,19.32L615.38,24.06L613.45,19.68L610.48,9.84L609.4,19.01L609.26,31.01L607.97,33.44L605.1,23.17L601.87,15.3L599.97,34.76L597.13,27.1L594.01,22.06L592.46,29.59L587.18,26.47L586.6,42.79L583.4,33.53L579.29,25L576.99,29.27L573.45,23.74L570.4,24.28L568.07,29.13L565.92,34.9L563.54,37.68L560.58,36.44L557.06,31.48L552.72,42.81L548.57,32.33L546.96,45.07L545.15,50.27L542.09,48.5L538.96,45.05L535.29,39.79L532.54,41.88L529.9,44.12L527.42,47.42L524.75,48.47L523.03,57.72L521.06,62.09L517.49,54.52L514.65,54.93L511.28,49.86L508.59,53L507.14,63.69L504.22,60.96L500.85,56.26L498.02,56.58L495.58,59.96L493.02,61.42L490.53,63.77L488.38,68.43L486.52,74.92L483.6,71.15L481.28,75.05L478.1,91.77L474.46,79.44L470.7,71.64L468.5,77.01L465.63,75.84L463.29,80.13L459.27,91.61L456.48,88.51L453.47,84.98L451.55,92.08L449,91.19L446.09,88.1L442.55,102.28L440.02,100.39L435.63,103.85L433.16,102.51L431.34,108.33L429.45,111.66L426.54,104.01L425.53,119.4L420.34,108.65L418.71,114.75L416.53,114.33L414.05,109.96L409.03,124.3L407.06,123.17L405.22,124.89L403.85,131.17L402.3,134.69L400.28,131.24L396.05,124.04L394.35,126.66L393.45,139.17L392.08,142.94L389.6,130.83L388.14,135.96L386.64,137.79L385.38,144.59L384.18,149.52L381.82,136.99L380.21,138.2L379.09,145.7L378.2,156.44L376.43,150.58L373.87,157.66L371.73,145.82L369.71,162.48L367.67,150.41L366.14,149.93L365.49,164.51L364.48,170.89L362.97,166.68L361.58,165.55L360.59,172.61L359.55,177.67L357.67,163.74L356.09,158.66L354.9,160.82L353.58,159.9L352.42,161.84L351.08,186.07L349.57,175.41L348.07,166.08L347.36,176.59L346.28,175.94L345.25,176.86L344.15,174.69L343.27,179.14L342.32,179.6L341.11,172.93L338.53,180.39L337.83,187.02L336.41,198.76L335.24,187.52L334.21,182L333.41,183.75L332.33,207.49L331.29,199.47L329.34,186.88L328.61,190.5L327.32,205.78L326.39,199.14L325.06,213.14L324.1,203.41L323.4,207.54L322.52,200.92L321.78,200.64L321.2,210.74L320.52,215.53L319.74,212.91L318.97,208.78L318.36,215.63L317.68,218.66L316.94,214.7L316.22,210.18L315.64,216.37L315.01,219.08L314.31,212.32L313.68,207.79L313.12,208.82L312.63,217.56L312.13,231.02L311.44,223.49L310.83,213.56L310.36,222.24L309.82,226.63L309.24,217.83L308.74,212.49L308.31,218.02L307.36,226.33L306.86,224.48L306.4,225.15L305.93,229.09L305.45,221.23L305.05,232.21L304.53,237.47L304.05,231.6L303.61,230.34L303.15,243.27L302.61,242.57L302.18,234.02L301.73,242.93L301.26,238.71L300.86,238.55L299.96,245.97L299.54,240.48L298.84,236.83L298.47,243.14L297.56,251.31L297.16,250.32L296.75,252.82L296.36,250.92L295.92,258.42L295.29,248.75L294.84,257.41L294.48,255.42L294.11,258.28L293.62,266.19L293.27,259.54L293.07,251.85L292.78,253.97L292.39,260.84L291.96,265.72L291.77,253.95L290.98,268.28L290.77,259.52L290.73,247.21L290.52,253L290.02,267.92L289.7,264.87L289.34,269.75L288.86,275.11L288.55,271.74L288.25,270.45L287.85,275.32L287.57,271.08L287.36,269.3L286.82,271.25L286.41,278.65L286.09,269.05L285.58,273.7L285.24,279.51L285,277.62L285,269.52L284.95,266.99L284.48,283.61L284.05,286.64L284.1,274.82L284,274.05L283.71,280.15L283.58,270.63L283.28,280.01L283.06,279.99L283.09,273.99L282.32,288.6L282.07,289.95L282.12,277.21L281.44,284.81L281.06,290.56L280.93,288.79L280.64,292.37L280.73,282.31L280.88,276.94L279.62,299.07L279.13,308.18L278.81,291.77L278.66,296.75L278.42,301.43L278.33,301.57L278.32,299L278.59,290.33L277.75,309.68L277.54,306.07L277.51,303L277.37,308.67L277.96,289.35L278.25,296.1L278.4,296.3L278.58,294.18L278.44,301.14L279.12,296.11L279.25,295.79L279.77,287.05L280.18,289.84L280.51,287.71L281.02,281.04L281.15,287.26L281.08,293.01L281.13,295.26L281.54,290.1L281.85,286.96L282.44,278.41L282.58,284.31L282.58,288.51L284.65,268.03L284.84,274.22L285.12,284.01L285.67,273.48L287.22,254.54L287.63,259.22L287.35,275.15L287.98,269.78L288.31,267.12L289.13,255.26L289.29,263.59L289.55,263.18L290.43,251.38L290.64,258.61L291.04,256.79L291.48,256.8L292,252.43L292.81,244.86L293.16,249.91L293.38,255.1L293.81,253.34L294.61,243.38L295.65,231.98L296.02,240.57L297.17,238.35L297.45,243.73L299.16,227.72L299.86,225.83L300.74,220.15L301.4,221.38L303.12,212.87L303.59,218.09L305.33,206.5L305.69,214.84L308.04,200.23L308.43,207.72L308.93,207.4L309.61,203.37L310.31,198.58L311.51,181.72L312.52,195.97L313.12,194.99L314.18,179.13L315.24,170.66L315.67,182.82L316.32,181.95L317.1,178.05L317.76,177.97L318.21,184.57L318.62,188.48L319.4,178.93L321.74,166.43L322.47,166.01L325.92,149.96L326.67,152.02L329.3,137.44L330.02,141.65L330.81,138.85L331.52,140.29L332.1,145.14L332.83,138.79L333.46,138.48L334.06,139.12L334.7,135.95L335.24,138.92L335.7,144.74L336.32,134.39L337.57,124.84L338.18,122.86L338.66,132.15L339.2,129.38L339.76,122.51L340.22,127.2L340.75,122.81L341.32,110.97L341.83,114.09L342.33,119.89L343.77,111.39L344.2,119.04L345.02,113.4L345.42,115.02L345.79,114.05L346.16,107.92L346.89,103.03L347.27,105.76L347.65,108.64L347.96,102.01L348.61,104.38L348.89,102.56L349.49,109.46L349.62,96.47L349.73,87.98L350.05,92.5L350.4,98.57L350.6,94.08L350.87,101.1L351.17,105.87L351.82,86.49L352.16,100.12L351.86,83.72L352.13,102.08L351.55,93.59L351.36,91.11L350.92,86.57L350.79,92.64L350.67,92.69L350.34,87.9L350.39,96.42L350.33,98.68L349.88,104.77L349.37,95.6L349.17,99.97L348.81,94.73L348.52,97.41L348.65,108.38L347.9,103.1L347.46,100.37L347.03,97.5L346.75,100.21L346.67,107.48L345.67,97.74L345.49,104.14L344.67,110.9L344.44,113.86L342.25,95.29L341.94,97.1L341.63,98.5L341.5,104.43L341.54,114.42L341.24,113.87L340.7,108.3L340.25,105.26L339.95,107.31L340.07,120.49L339.03,108.98L338.25,96.9L337.56,118.97L337.4,122.74L337.05,123.42L336.4,114.37L335.48,100.45L335.36,110.93L335.53,125.36L334.68,110.25L334.1,108.69L333.83,123.07L333.29,119.29L332.83,119.08L332.51,122.69L331.86,129.57L331.33,126.58L330.9,128.81L330.2,120.71L329.65,120.56L329.4,126.67L328.74,121.09L328.56,131.22L328.28,135.73L327.53,126.83L327.01,126.14L326.13,112.48L325.64,114.42L325.46,121.22L324.13,129.69L323.71,128.26L323.17,122.7L322.97,129.21L322.57,138.45L321.98,129.87L321.47,126.65L321.15,127.34L320.94,133.05L320.57,131.26L320.38,138L319.38,128.33L319.33,139.41L317.98,130.36L317.77,138.34L317.5,140.18L316.89,133.15L316.47,132.08L316.09,132.7L315.9,140.16L315.75,148.56L315.11,138.38L314.6,135.97L314.52,148.22L314.23,151.78L313.43,136.03L312.43,130.08L312.19,136.63L312.03,144.09L311.49,137.27L311.02,133.88L310.82,140.1L310.37,135.11L309.93,131.9L308.98,143.91L308.73,145.23L307.83,161.16L307.47,159.15L306.77,142.88L305.8,144.29L305.38,139.28L304.81,157.98L304.39,153.48L303.87,144.72L303.66,151.62L303.38,152.83L302.36,151.18L302.02,149.98L301.73,151.47L301.57,159.33L300.58,139.07L300.47,146.82L300.13,142.46L299.13,154.53L298.9,154.93L298.7,157.31L298.42,154.52L298.06,147.15L297.36,160.33L296.95,148.39L296.74,150.75L296.73,162.98L295.6,148.81L295.44,152.46L295.39,162.29L295.19,164.46L294.85,158.19L294.53,152.17L294.37,156.78L294.26,164.55L294.04,165.77L293.73,161.78L293.38,154.01L293.06,163.1L292.82,163.44L291.97,148.7L291.95,161.96L291.85,169.14L291.51,159.8L291.21,168.99L290.95,165.9L290.7,162.27L290.3,162.51L290.15,166.25L289.66,156.1L289.55,159.88L289.5,170.98L288.06,152.54L288.08,165.98L287.72,156.74L287.54,161.06L287.42,160.83L287.25,153.79L287.24,173.97L286.84,163.31L286.75,169.21L286.35,171.12L285.87,164.28L285.77,168.77L285.63,169.01L285.48,168.08L285.36,171.15L285.02,164.41L284.85,157.31L284.58,173.12L284.15,168.56L284.04,170.36L283.82,172.79L283.73,179.38L283.59,182.86L283.41,182L283.18,167.79L282.97,165.7L282.88,162.57L282.2,180.51L282.05,174.33L281.94,170.94L281.8,182.29L281.37,165.79L281.32,166.82L281.29,167.5L280.96,183.21L280.54,171.59L280.5,172.81L279.97,168.24L279.74,187.64L279.62,181.09L279.29,167.52L278.86,187.8L278.77,175.6L278.73,173.62L278.51,184.6L278.45,181.28L278.4,189.08L278.21,175.82L278.09,190.85L277.89,189.64L277.8,192.06L277.47,177.94L277.27,193.17L277.12,192.61L277.04,195.56L276.63,177.51L276.49,203.78L276.34,199.13L276.27,199.34L275.92,205L275.82,187.22L275.6,201.08L275.55,202.65L275.56,191.89L274.93,210.56L274.83,211.86L274.94,191.32L274.42,219.24L274.29,214.02L274.24,211.84L274.1,217.6L273.87,231.94L273.78,212.14L273.39,223.5L273.18,232.25L273.27,211.09L272.83,239.96L272.61,237.35L272.53,228.56L272.12,222.4L271.97,229.67L271.81,227.7L271.68,230.39L271.45,233.03L271.29,229.84L271.33,220.47L271.04,241.72L270.65,233.39L270.56,234.04L270.27,229.13L269.98,245.04L269.81,242.3L269.89,230.99L268.8,252.74L268.66,247.66L268.45,248.15L268.38,240.58L268.13,243.47L267.91,252.41L267.72,252.89L267.62,250.82L267.47,245.61L267.52,239.4L266.61,259.56L266.61,250.59L266.43,255.04L266.42,244.46L266.06,255.37L265.76,252.72L265.51,260.69L264.45,274.11L264.29,267.45L264.25,260.9L263.74,264.64L263.43,273.18L262.48,277.44L262.33,274.43L262.1,270.47L261.98,271.46L261.74,276.44L260.77,285.39L260.81,272.67L260.09,294.2L259.9,286.33L259.83,280.72L258.94,298.97L258.76,289.55L258.97,271.14L257.86,291.1L257.56,291.89L257.51,282.13L256.89,289.81L256.71,288.5L255.9,299.59L255.59,296.99L255.4,293.34L254.3,309.55L254.08,302.17L252.87,309.38L252.65,302.9L251.45,314.15L251.25,307.47L250.72,318.79L250.28,318.05L250.21,307.97L248.67,329.01L248.11,331.06L247.71,329.97L247.38,324.71L247.26,315.93L246.79,324.8L246.3,328.86L245.93,327.81L245.47,330.65L245.25,322.25L244.8,328.6L244.22,334.51L243.77,334.96L243.09,342.72L242.72,334.65L242.26,336.07L241.61,341.88L240.5,329.57L239.91,336.91L239.24,343.85L238.7,341.88L238.12,343.64L237.49,345.57L237.07,338.48L235.67,351.51L235.13,346.72L234,344.64L233.36,348.26L232.76,347.1L232.11,350.42L231.54,347.01L230.96,347.8L230.31,349.19L229.87,342.21L228.95,360.74L228.01,369.92L227.25,368.29L225.87,361.31L225.16,360.99L223.94,354.56L223.19,360.41L222.53,358.23L221.67,368.69L220.92,366.47L220.02,375.33L219.14,375.88L218.36,371.78L217.4,379.51L216.5,379.93L215.6,379.97L214.71,378.09L213.19,362.67L212.33,368.32L211.36,379.25L210.48,375.65L209.65,366.89L208.78,366.23L207.82,373.71L206.89,373.59L205.03,368.28L204.06,371.38L203.08,371.8L202.09,371L200,380.11L198.97,370.34L197.9,367.14L196.86,370.55L195.8,371.94L194.72,369.04L193.63,366.96L192.54,373.96L191.43,371.58L190.28,374.1L189.13,370.17L187.94,370.85L185.54,361.72L184.41,369.19L183.28,375.55L182.01,369.28L180.65,360.47L179.37,358L178.11,356.85L176.95,363.58L175.67,359.57L174.4,363.33L173.01,353.3L171.63,354.45L170.38,353.44L168.88,346.07L167.52,343.79L166.11,339.61L163.85,354.89L162.31,345.56L159.79,353.83L158.25,348.79L156.39,332.2L154.86,333.93L153.57,334.87L151.99,330.9L150.38,324.14L148.99,327.93L147.74,329.93L146.01,321.48L144.56,322.19L143.15,321.47L139.18,295.76L137.48,290.7L135.63,280.55L134.3,284.6L133.35,291.56L132.2,293.68L130.7,286.7L129.36,286.84L128.17,285.89L126.43,275.04L124.64,264.89L123.3,264.22L121.6,253.2L120.32,254.68L119.08,250.53L116.81,230.22L115.28,226.25L114.68,236.82L113.77,236.9L112.71,236L110.37,228.19L108.85,216.71L105.93,200.86L104.87,201.64L104.12,203.35L102.89,197.59L101.69,191.56L99.99,176.83L97.96,157.45L96.79,155.4L95.59,163.81L94.62,156.82L92.82,147.59L91.34,129.44L89.95,124.42L89.07,115.94L88.08,110.51L88.12,117.9L86.13,74.14L86.44,78.5L86.42,70.54L86.74,71.19L86.94,66.46L87.53,56.03L88.19,64.22L88.58,59.45L89.22,61.43L90.28,42.65L90.99,45.15L92.55,45.42L93.42,46.15L94.29,48.23L95.17,41.95L96.2,46.16L97.13,39.37L98.28,35.4L99.4,35.78L100.59,35.58L101.82,28.57L104.23,45.84L105.46,46.77L106.79,38.83L108.25,40.96L109.47,49.64L110.81,49.17L112.18,51.97L113.63,47.25L115.34,38.83L116.97,40.72L118.22,57.51L119.54,58.88L121.33,47.76L123.05,47.81L124.57,53.73L126.22,51.85L128.02,48.85L129.68,52.45L131.34,54.32L132.89,60.52L134.37,65.45L136.07,62.75L138.05,54.21L139.69,62.05L142.79,69.99L144.5,67.28L146.29,66.94L147.86,70.97L149.76,65.05L151.53,67.39L153.12,71.58L154.22,89.57L155.73,85.73L157.42,85.94L158.56,96.29L160.24,90.27L163.77,83.46L165.12,94.45L166.42,100.04L168.01,98.77L169.61,97.71L170.94,105.38L172.31,107.71L173.91,105.71L176.36,120.08L177.88,115.46L180.46,122.87L182.13,116.28L183.48,120.43L185.09,115.37L186.6,116.9L187.8,124.52L188.91,132.75L190.08,134.96L191.32,135.9L192.75,129.98L194.09,130.96L194.86,146.02L195.82,149.13L196.98,146.91L199.59,136.84L200.46,148.12L201.59,145.01L202.75,145.41L204.09,164.21L205.12,158.78L206.27,151.79L207.19,155.83L208.51,170.91L209.32,169.45L209.74,182.6L210.45,178.78L212.13,171.36L212.87,174.69L213.4,182.09L214.31,174.37L215.59,182.93L216.14,188.14L217.55,182.52L218.19,184.07L218.95,180.49L219.5,187.15L220.02,190.13L220.69,187.22L221.19,191.64L221.8,188.81L222.54,183L222.94,193.46L223.45,208.37L224.01,198.34L224.63,191.62L224.84,204.86L225.23,203.07L225.54,208.01L225.65,216.26L226.22,201.66L226.59,204.53L226.76,212.31L227.54,204.36L227.77,211.33L228.52,204.78L228.57,219.38L228.92,229.52L229.12,223.86L229.42,217.98L229.63,240.94L229.99,227.58L230.24,221.65L230.44,222.84L230.46,232.08L230.61,229.58L230.61,240.99L231.03,232.37L230.96,240.64L230.62,250.56L230.95,227.92L230.19,244.19L229.99,252.06L229.22,263.18L229.14,250.68L228.67,260.77L228.58,251.56L228.5,247.08L227.4,265.74L227.31,251.61L226.95,249.02L226.78,253.22L226.45,267.28L226.2,264.31L225.89,268.91L225.51,274.34L225.26,265.8L224.92,270.99L224.48,280.77L223.97,263.68L223.69,264.23L223.39,268.16L222.96,279.59L222.6,275.77L222.32,266.57L222.02,265.99L221.6,278.63L221.16,283.08L220.77,277.5L220.45,268.89L220.11,269.14L219.72,275.23L218.92,277.6L218.54,273.46L218.05,286.9L217.57,286.88L217.13,281.13L216.67,279.81L216.21,283.33L215.31,277.7L214.83,283.72L214.36,283.13L213.87,285L213.35,288.28L212.86,281.7L211.49,272.32L211.05,275.19L209.48,292.66L208.92,287.01L208.35,287.61L207.82,275.8L206.78,283.79L206.25,280.63L205.11,297.49L204.48,287.08L203.87,286.93L203.26,298.14L199.98,283.98L199.36,288.92L198.04,285.07L197.41,292.91L196.72,288.24L196.04,294.03L195.35,294.16L194.57,284.55L193.92,296.31L193.21,295.78L192.4,290.28L191.67,292.1L190.87,284.81L190.11,283.71L189.51,299.87L187.06,285.95L186.28,285.5L184.71,281.58L184.02,287.88L182.43,284.56L181.58,278.88L180.16,288.6L179.31,285.54L178.43,280.51L177.67,285.05L176.92,287.24L175.93,276.88L174.23,273.68L173.55,282.12L172.84,285.9L171.95,283.7L169.88,266.49L169.15,273.27L168.53,282.94L167.68,281.44L166.89,287.15L165.89,279.86L164.81,275.77L163.57,260.47L162.6,263.31L161.93,269.82L160.01,265.52L158.91,259.4L158.05,262.19L157.06,257.78L155.13,253.68L154.31,257.04L153.7,265.08L152.67,258.1L151.49,249.73L150.65,251.98L149.68,247.89L148.94,253.29L147.95,246.5L146.97,245.37L146.21,246.28L145.16,240.65L144.06,232.86L143.16,232.73L142.51,237.03L141.45,228.6L139.89,229.94L139.44,239.93L137.15,217.88L136.46,220.82L135.32,209.44L134.87,220.8L134.17,217.09L132.87,203.86L132.05,218.35L131.12,212.06L129.09,196.15L128.49,199.1L126.6,184.09L126.06,187.66L124.86,199.73L123.97,190.14L122.83,176.2L122.36,180.61L121.22,178.37L120.85,181.35L119.86,167.63L119.47,172.76L119.15,174.77L118.22,162.18L117.35,151.18L116.98,154.3L116.92,163.14L115.31,137.39L115.55,154.88L115.69,164.64L114.99,149.95L114.49,143.11L114.35,145.34L113.74,131.68L113.77,143.4L113.44,135.64L113.42,138.48L112.91,123.89L112.78,116.78L113.52,121.82L113.42,107.93L113.7,110.53L114.16,107.77L114.45,108.22L114.77,108.84L115.23,94.62L115.68,97.71L116.15,102.91L116.57,103.04L116.99,102.15L117.47,103.87L117.87,97.47L118.39,96.46L118.88,92.48L119.46,92.21L120.07,96.85L120.65,95.26L121.27,96.3L121.9,97.93L122.5,88.89L123.92,92.14L124.65,85.91L125.44,86.97L126.21,90.15L127,83.43L127.87,88.62L128.62,101.67L129.37,97.46L130.21,94.45L131.04,94.86L132.94,80.66L133.85,92.19L136.4,103.98L137.31,98.07L138.22,102.51L139.16,94.3L140.3,84.64L141.27,94.6L142.18,99.98L143.16,98.59L144.22,93.27L145.28,94.44L146.27,97.89L147.15,108.64L148.03,109.72L149.01,108.68L150.14,95.99L151.27,98.34L152.14,108.71L153.13,108.56L154.18,104.85L155.11,113.16L157.28,102.48L158.16,114.36L159.34,100.67L160.59,98.58L161.55,106.06L162.69,103.29L164.61,113.39L165.63,113.73L166.52,119.28L167.55,114.53L168.68,109.69L169.69,112.81L170.74,111.48L171.95,103.84L173.02,108.09L173.92,116.36L175.61,127.1L176.59,122.77L177.69,116.2L178.54,125.32L179.31,131.45L180.22,129.96L181.19,126.15L182.53,107.13L183.6,113.55L184.64,113.13L185.67,118.16L186.46,127.02L187.46,124.57L188.28,130.94L190.27,122.73L190.92,139.05L191.71,138.18L192.72,130.33L194.32,137.83L195.17,137.2L196.66,143.74L197.59,136.58L198.47,136.36L199.06,149.63L201.02,128.03L201.82,136.35L203.21,146.88L203.94,147.89L204.7,146.35L205.43,147.52L206.88,148.35L207.63,146.45L208.37,146.17L209.22,139.69L209.97,143.28L210.51,154.08L211.99,146.14L212.72,143.78L213.42,145.6L213.96,154.6L214.59,152.53L215.36,144.04L215.84,157.81L216.38,157.21L217.01,154.09L217.66,149.2L218.29,150.29L219.01,143.24L219.47,158.79L219.9,163.05L220.56,154.02L220.98,162.61L221.54,157.47L222.53,161.86L223.05,160.9L223.51,164.02L224.13,153.94L225.08,162.42L225.68,155.69L227.48,170.06L227.9,169.17L228.32,169.11L228.75,167.21L229.69,163.46L230.12,166L230.55,165.93L230.91,172.46L231.14,183.55L231.55,171.94L231.96,169.52L232.29,172.63L232.77,163.49L233.23,161.89L233.58,169.94L233.87,176.94L234.25,170.23L234.67,165.45L235.2,183.59L235.56,172.19L235.91,170.94L236.14,179.51L236.69,177.57L237.01,173.23L237.33,171.09L237.65,171.6L237.87,181.13L238.2,170.84L238.81,172.51L239.08,176.33L239.46,185.92L239.89,182.51L240.15,175.07L240.5,167.56L240.72,178.22L240.98,175.49L241.32,167.85L241.53,179.81L241.75,178.8L242.03,174.31L242.21,182.54L242.39,183.52L242.68,187.43L242.91,177.67L243.19,171.54L243.36,183.88L243.93,178.57L244.12,183.08L244.24,187.74L244.61,177.15L244.86,174.21L245.04,195.16L245.65,180.75L245.85,178.71L246.71,189.59L246.85,184.3L247.01,183.1L247.09,191.91L247.26,186.98L247.63,200.25L247.72,191.89L247.83,188.37L248.2,174.44L248.49,192.85L248.52,197.24L248.83,185.55L249.19,202.59L249.21,196.71L249.23,200.48L249.39,189.47L249.58,211.05L249.68,198.68L249.81,183.47L249.51,214.6L249.44,208.58L249.38,212.81L249.28,213.16L249.24,210.47L248.98,216.4L248.9,205.89L248.82,215.81L248.67,224.21L248.57,204.99L248.09,209.25L247.97,222.08L247.93,202.26L247.48,215.39L247.34,223.39L247.18,225.96L246.89,224.02L246.82,215.68L246.23,227.03L246.11,222.49L246.08,213.18L245.89,232.81L245.69,212.01L245.27,228.82L245.11,230.71L244.96,215.98L244.6,221.74L244.37,237.64L243.59,221.97L243.47,227.53L243.25,237.35L242.99,226.45L242.52,229.42L242.36,231.54L241.96,239.93L241.4,238.43L241.19,238.9L240.52,244.49L240.34,235.61L239.89,244.71L239.68,241.92L239.54,232.71L238.67,247.14L238.5,238.13L237.66,243.9L237.43,244.75L236.91,248.63L236.67,245.67L236.42,247.37L236.16,247.25L235.93,246.09L235.63,253.55L235.35,250.77L235.13,243.69L234.63,250.32L234.37,248.27L234.13,246.93L233.88,246.26L233.69,240.46L232.37,259.79L232.05,255.75L230.97,246.6L230.71,249.77L229.99,262.28L229.7,252.62L229.18,246.96L228.82,263.26L228.23,249.09L227.84,264.6L227.46,265.94L227.11,259.21L226.47,253.87L226.09,266.68L225.71,263.36L225.34,264.35L224.85,279.87L224.35,282.16L223.87,276.02L222.78,249.74L222.49,250.71L222.18,256.86L221.42,268.08L221.02,265.66L220.64,260.58L219.27,286.57L218.73,281.59L218.25,270.67L217.72,283.46L217.16,289.25L216.63,275.29L215.71,262.03L215.28,265.83L214.84,271.69L214.37,269.23L213.89,275.01L213.39,276.64L212.9,264.06L212.44,264.11L212,266.06L211.05,274L210.55,266.14L209.57,276.3L209.04,275.02L208.5,279.67L207.94,282.78L207.35,278.73L206.19,279.21L205.6,269.48L205.06,284.52L204.47,280.3L203.84,276.57L202.64,288.86L201.95,279.01L201.26,267.54L200.69,272.67L200.13,277.3L199.49,272.71L198.29,285.98L197.57,282.8L195.49,274.72L194.79,270.29L194.24,285.4L193.53,278.63L192.75,270.71L192.13,275.72L191.45,275.09L190.78,276.44L190.18,286.32L189.44,281.33L187.99,283.42L187.21,282.4L186.53,288.45L185.7,282.76L184.87,279.53L184.1,280.28L183.31,278.94L182.49,275.62L181.7,275.59L180.86,270.66L180.01,265.9L179.4,277.16L178.7,278.91L177.83,275.08L176.93,268.62L176.13,269.72L174.75,279.5L173.79,270.47L172,263.03L171.28,268.71L170.53,268.73L169.89,279.03L169.33,288.26L168.18,273.89L167.07,266.08L166.19,265.88L165.3,265.2L164.52,268.99L162.66,264.19L161.49,252.01L160.47,249.18L159.77,255.36L159.1,261.72L158.16,256.65L157.33,259.82L156.48,257.92L154.42,246.96L153.54,247.94L152.7,246.71L152.02,253.15L149.75,233.8L149.26,244.38L148.64,248.58L147.71,243.51L146.47,230.36L146.02,244.44L144.47,242.92L143.84,245.95L142.92,242.95L141.7,230.34L139.51,217.57L138.74,221.05L138.07,222.7L137.06,217.26L136.42,221.33L135.39,212.62L134.15,201.07L133.47,204.37L132.85,222.85L131.94,215.85L130.27,208.02L129.36,203.01L128.6,201.15L127.96,202.45L127.3,201.61L126.41,195.44L124.58,182.67L124.23,190.93L123.87,194.9L122.63,177L122.05,179.73L121.97,190.6L119.43,176.29L118.44,163.83L117.1,154.66L117.1,168L117.01,173.72L116.02,156.26L115.03,158.73L114.68,156.25L114.05,146.66L113.67,150.34L113.47,151.88L113.31,152.26L113.08,151.72L112.87,150.3L110.98,120.92L111.1,127.6L111.14,129.59L110.78,107.36L111.47,108.91L111.75,111.5L112.25,124.56L112.64,117.2L112.9,115.15L113.2,114.25L113.43,108.23L114.06,96.14L114.61,106.61L115.08,111.12L115.42,103.08L115.89,101.34L116.43,106.32L117.94,95.06L118.58,100.59L119.22,113.28L119.69,103.39L120.96,89.61L121.71,103.82L123,101.32L123.67,101.6L124.39,102.76L125.08,106.89L125.77,109.18L126.46,101.18L127.26,97.74L128.04,100.53L128.85,94.24L129.71,95.48L131.41,96.25L132.22,103.79L132.99,109.56L133.83,101.62L134.83,89.11L135.76,98.67L136.58,104.21L137.61,89.63L139.41,105.23L140.4,98.31L141.42,95.29L142.35,102.58L143.19,108.85L144.21,99.55L145.23,101.52L146.08,110.05L146.91,115.81L147.84,111.46L148.98,99.44L150.11,97.1L152,108.68L153.04,106.34L153.99,111.41L154.98,109.54L156.02,109.68L156.81,122.28L157.77,116.98L158.76,118.14L159.81,111.62L160.75,120.06L161.6,122.79L162.75,114.03L163.67,120.62L164.63,120.5L165.74,114.71L166.76,116.97L168.68,122.95L169.75,117.88L171.69,122.63L172.88,112.97L173.94,115.24L174.63,132.66L175.52,130.01L176.67,119.21L177.74,116.83L178.61,125.42L179.47,128.66L180.42,127.19L181.29,129.8L182.03,137.42L183.95,126.46L184.73,133.8L185.55,134.99L186.46,132.34L187.4,129.43L188.19,136.14L189.05,134.17L189.91,135.23L191.52,138.78L192.61,124.02L193.66,122.67L194.41,133.06L195.35,129.89L196.19,134.19L196.73,149.16L197.57,140.83L198.58,130.85L199.22,143.65L200.07,137.27L200.9,138.75L201.57,144.07L202.38,141.41L203.08,144.99L203.67,152.6L204.37,150.07L205.26,139.09L206.02,141.92L206.63,150.25L207.26,152.97L208.03,145.78L208.93,136.89L209.54,148.78L210.05,158.01L210.76,151.93L211.42,151.9L212.04,153.39L213.34,152.17L214.04,148.85L214.65,152.57L215.34,149.18L217.08,158.14L217.67,155.58L219.65,146.81L220.11,159.15L220.6,161.42L221.27,150.74L221.92,178.97L222.42,167.11L222.98,159.95L223.42,163.83L223.92,161.74L224.43,160.17L225,155.21L225.54,155.35L226.05,157.29L226.61,154.41L227.13,155.82L228.47,164.32L228.93,161.79L229.43,157.92L229.82,165.34L230.06,179.39L230.38,175.59L230.92,158.21L231.3,165.58L231.71,163.2L232.19,160.1L232.56,165.18L233.07,156.18L233.69,175.52L234.03,173.02L234.35,172.49L235.28,153.84L235.69,159.84L236.11,160L236.47,165.8L236.81,167.8L237.26,157.19L237.66,159.77L237.98,167.57L238.34,164.89L238.63,171.21L238.88,174.81L239.16,173.13L239.46,169.63L239.71,174.81L240,170.34L240.31,169.41L240.59,169.65L240.94,164.89L241.24,168.22L241.63,157.74L242.72,174.39L242.97,173.59L243.17,178.91L243.38,177.52L243.65,171.57L243.91,170.51L244.16,172.27L244.4,173.98L244.58,180.96L245.17,179.42L245.37,179.25L245.82,170.9L246.06,172.66L246.2,185.85L246.31,188.34L246.49,180.85L246.67,178.27L247.54,168.6L247.8,168.81L247.99,177.44L248.26,164.55L248.7,178.29L248.88,178.11L249.33,175.22L249.6,184.49L249.76,175.66L250.01,164.31L250.4,176.76L250.56,178.03L250.69,180.61L250.87,171.49L251.19,176.32L251.37,172.88L251.56,171.16L251.73,175.72L251.89,175.03L252.05,175.41L252.18,179.92L252.37,187.75L252.51,174.28L252.7,170.66L253.04,174.96L253.12,188.07L253.19,187.8L253.31,177.63L253.47,172L253.74,181.7L253.98,178.31L254.07,186.73L254.13,187.4L254.27,184.84L254.39,178.96L254.7,172.64L254.97,179.27L255.08,182.71L255.43,178.8L255.62,195.45L255.61,196.58L255.85,174.38L256.37,184.79L256.34,201.8L256.7,177.98L257.08,190.13L257.13,187.19L257.43,180.29L257.69,197.59L257.81,187.76L257.83,194.75L257.79,187.97L257.21,214.02L257.07,206.75L257.04,204.05L257,194.72L256.71,223.47L256.35,208.47L256.31,209.27L255.7,223.47L255.57,212.35L255.57,209.27L254.79,223.29L254.72,216.79L254.73,210.18L254.14,226.49L253.92,234.62L253.18,216.52L253.07,220.73L253.01,221.3L252.46,244.57L252.28,236.66L252.26,221.42L251.24,241.57L251.03,239.97L250.45,226.53L250.26,238.94L250.07,240.11L249.96,234.61L249.25,243.58L249.07,242.61L248.82,247.41L248.58,247.2L248.47,237.57L248.04,247.37L247.91,239.51L247.78,237.83L247.51,249.62L247.02,240.48L246.81,246.87L245.94,256.65L245.7,252.1L245.59,241.31L245.05,260.35L244.68,265.3L243.57,249.58L243.37,251.24L242.51,263.75L242.29,255.48L242.13,251.12L241.87,256.29L241.56,263.01L241.12,255.51L240.64,255.81L240.33,262.98L239.98,266.8L239.7,263.24L239.44,260.95L238.61,275.55L238.31,268.02L237.93,272.3L237.59,269.1L237.31,265.14L236.99,266.6L236.75,261.28L235.56,280.28L235.23,271.72L234.96,265.52L234.53,277.49L234.18,273.07L233.84,273.35L233.4,280.49L232.96,282.55L232.65,271.36L232.33,271.19L231.95,273.83L231.09,285.58L230.75,275.41L230.4,274.03L229.99,278.27L228.59,289.61L228.12,288.23L227.63,289.38L227.2,282.53L226.83,276.83L226.33,288.56L225.78,296.44L225.28,292.19L224.73,296.66L224.22,292.07L223.32,282.74L222.86,285.87L221.67,303.52L221.15,292.83L220.08,293.25L219.58,288.68L219.05,292.07L218.52,291.11L217.99,292.6L217.42,296.84L216.87,293.82L216.31,293.66L215.7,302.35L215.02,312.22L214.36,306.85L212.53,290.91L211.97,290.23L210.04,319.24L209.3,314.53L207.79,311.73L207.05,306.65L206.31,310.21L205.58,305.37L204.84,305.66L204.11,307.44L203.37,302.15L202.64,313.68L201.07,298.77L200.35,307.93L198.79,316.97L197.91,304.83L197.08,302.4L196.35,317.42L195.51,314.43L194.6,308.01L193.75,309.46L192.86,302.06L192,300.12L191.21,304.08L190.4,307.15L189.6,313.48L188.72,312.64L187.77,309.57L186.93,317.15L185.97,311.31L184.03,307.18L183.09,308.48L182.1,302.64L181.14,304.7L180.35,314.32L179.39,313.47L178.31,309.05L177.3,309.85L176.36,313.8L175.26,309.02L173,301.02L171.94,300.93L171.1,311.49L169.98,305.56L168.54,290.81L167.51,295.36L166.7,305.08L165.54,299.74L164.42,299.95L163.4,302.03L160.98,294.64L159.8,291.7L158.68,292.13L157.73,297.47L155.44,294.77L154.38,296.67L153.27,297.11L152.21,299.72L150.83,291.87L149.5,289.56L148.42,292.16L147.22,291.94L144.56,285.63L143.32,285.76L141.35,296.82L139.73,285.98L137.92,275.91L136.75,280.29L135.38,277.01L133.59,266.87L131.34,274.88L129.95,272.32L128.86,276.37L127.42,270.98L126.14,272.25L124.01,252.68L122.44,253.19L121.9,264.96L118.4,245.98L117.02,243.5L115.6,240.36L114.91,250.35L114.23,255.22L112.32,239.3L109.03,224.21L107.74,222.24L106.26,214.9L105.32,218.96L104.65,222.73L103.37,216.6L102.21,213.12L101.32,213.84L100.65,216.79L99.41,208.99L96.9,196.77L96.01,198.22L95.27,198.68L93.95,190.7L92.85,186.92L91.49,178.42L90.51,177.83L89.5,174.09L88.73,176L88,175.2L85.39,156.9L84.61,158.8L84.32,165.27L83.49,161.6L82.14,149.23L81.65,154.25L81.26,156.41L80.29,149.86L79.81,151.56L79.12,148.34L78.69,150.63L77.85,143.07L74.9,118.1L75,131.64L74.91,135.72L74.02,125.24L73.62,124.58L72.98,117.4L71.12,100.46L70.92,98.9L71.03,106.5L70.66,95.56L70.93,99.25L71,97.52L70.62,72.8L71.33,88.96L71.66,91.23L72.04,78.72L72.53,81.63L72.9,79.72L74.08,90.9L74.54,88.56L74.96,82.05L75.56,82.88L76.19,87.11L76.76,85.77L77.27,77.2L78.01,81.86L78.59,75.92L79.29,68.17L80.07,68.04L80.88,67.24L81.72,68.37L82.58,66.49L83.5,72.33L85.17,86.06L86.04,84.69L87.02,65.59L88.25,65.86L89.18,77.76L90.21,73.73L91.34,73.47L92.49,69.38L93.7,70.44L94.76,79.09L95.77,86.47L96.93,80.43L98.32,71.86L99.63,73.52L100.87,76.31L102.05,82.31L103.29,81.63L104.51,87.13L106.87,92.59L108.21,87.78L109.82,79.15L111.12,87.3L112.26,94.33L113.79,86.64L115.38,83.62L116.66,91.72L118.11,89.62L119.34,99.65L120.7,96.68L122.51,87.17L123.93,92.71L125.08,103.65L126.36,105.37L127.88,102.05L129.28,104.38L130.71,104.27L132.01,109.79L133.38,109.94L135.87,118.07L137.59,107.83L139.04,111.36L140.13,121.37L141.34,125.11L142.76,121.63L144.22,120.13L145.93,111.54L147.56,111.12L148.75,120.38L150.19,119.67L151.7,118.03L153.35,112.84L154.63,120.96L155.85,124.67L157.49,117.74L159.86,130.09L160.89,136.94L163.59,129.23L164.81,131.32L166.99,139.77L168.29,135.94L169.38,140.39L170.08,153.12L171.09,152.16L172.27,148.44L175.55,124.31L176.43,140.97L177.24,151.16L178.42,148.42L179.48,150.24L180.6,149.54L182.35,161.78L183.61,152.63L184.45,161.65L185.35,162.4L186.28,165.42L187.4,158.51L188.54,157.41L189.07,173.17L189.86,174.71L191.03,164.28L192.25,156.87L192.99,168.21L195.92,163.47L196.85,165.36L198.79,162.94L199.52,169.81L200.32,170.93L201.28,165.65L202.88,168.22L203.91,160.5L205.34,169.62L206.15,167.81L207.11,183.85L207.83,176.94L208.68,168.94L209.27,173.81L209.86,175.99L210.6,171.65L211.19,175.46L211.88,172.1L212.94,179.8L213.48,182.44L213.85,188.56L214.68,173.72L215.33,174.62L215.81,180.95L216.25,187.17L216.88,180.82L217.43,183.06L217.82,189.13L218.95,183.85L219.34,191.74L219.78,191.78L220.11,199.31L220.4,202.65L221.1,185.79L221.71,182.15L222.2,185.47L222.89,177.58L223.21,193.29L223.46,201.27L224.07,187.76L224.63,203.68L225.02,199.36L225.56,187.82L226.02,187.88L226.3,196.81L227.59,187.17L227.95,190.34L228.47,201.58L228.64,205.64L229.75,187.94L230.18,185.07L231.02,208.33L231.19,206.25L231.26,213.17L231.4,209.28L231.86,188.67L232.52,188.88L232.73,198.56L232.9,202.93L233.34,202.03L233.6,197.95L234.15,216.66L234.37,204.98L234.74,190.74L234.91,200.53L234.97,212.02L235.03,215.61L235.23,204.82L235.66,213.27L235.76,211.43L235.9,213.89L236.09,204.05L236.48,227.65L236.55,223.07L236.37,237.28L236.49,210.15L235.73,228.16L235.62,230.26L235.51,230.71L235.45,225.26L235.18,238.19L234.93,229.38L234.91,219.68L234.1,235.57L233.94,235.7L233.21,241.62L233.04,237.54L232.93,230.77L232.55,241.4L232.38,239.33L232.09,252.26L231.72,233.32L231.35,240.54L231.14,242.91L229.86,252.7L229.6,249.28L228.12,237.77L227.92,242.29L227.68,244.9L227.45,244.84L227.11,260.15L226.24,247.48L225.9,259.15L225.55,258.91L225.27,248.33L224.07,258.09L223.73,256.38L223.46,245.61L223.21,243.44L222.9,254.79L222.18,261.15L221.83,256.46L221.49,254.77L221.13,258.47L220.12,249.72L219.8,254.34L219.42,264.17L219.03,260.3L218.66,256.37L217.8,270.3L217.37,264.68L216.43,274.28L215.97,264.94L215.54,260L215.12,265.4L214.68,268.8L214.24,259L213.84,255.13L213.44,261.68L213.02,265.36L212.56,276.12L211.61,253.11L211.2,261L210.77,270.82L210.29,268.58L209.8,262.19L209.35,257.98L208.91,265.27L208.45,261.32L207.99,262.13L207.54,274.25L206.49,262.66L206.01,269.73L205.5,273.87L204.95,263.86L204.43,266.34L203.94,274.8L202.82,266.6L202.3,274.02L201.14,260.86L200.66,269.68L200.11,270.6L199.53,268.34L198.38,268.45L197.83,274.8L197.23,274.97L196.56,269.01L196.01,281.04L195.37,280.78L194.61,269.87L193.37,280.14L192.61,269.83L191.9,268.03L191.36,282.08L189.81,265.22L189.13,263.89L187.92,275.62L187.14,268.49L186.37,262.13L185.84,276.74L185.22,280.14L184.39,273.26L182.76,259.98L182.19,270.46L181.49,267.74L180.77,269.52L180.11,271.63L179.28,265.38L178.75,279.58L178.05,278.47L177.06,267L176.33,270.05L175.58,269.85L174.84,272.39L173.91,261.98L173.06,261.09L172.42,266.48L171.68,268.38L170.84,265.05L170.01,264.34L169.26,266.38L167.57,262.97L166.75,263.03L164.87,253.05L164.02,251.08L162.6,257.9L161.99,266.55L161.14,262.4L160.02,252.78L159.21,254.37L158.6,262.6L155.46,239.92L154.77,246.17L154.22,253.54L153.44,253.66L150.95,226.86L150.53,241.8L150,246.87L148.7,229.78L146.29,250.49L145.31,242.99L143.24,229.95L142.5,232.64L141.69,230.83L140.7,225.67L139.78,222.51L139.1,226.19L138.07,217.49L137.37,222.52L136.97,230.42L136.08,225.89L134.71,209.02L133.78,208.02L133.24,212.97L132.49,212.85L131.71,210.74L131.03,212.23L128.29,194.79L127.66,198.16L126.13,191.15L125.4,188.14L124.62,184.14L124.52,197.59L124.11,197.85L123.44,195.13L123.19,201.46L122.26,189.24L120.64,177.43L120.17,179.32L119.93,185.91L119.27,179.83L118.37,181.73L117.53,172.07L116.98,171.11L116.62,173.71L115.91,166.5L115.62,172.16L115.3,173.26L113.95,147.84L113.04,137L113.06,150.36L113.22,164.07L112.72,157.04L112.39,157.64L112.35,163.52L111.97,159.57L111.3,147.34L110.92,144.95L110.89,150.79L110.66,149.97L110.28,143.86L109.34,136.61L109.25,136.79L109.33,141.32L109.31,142.16L108.82,113.48L109.16,117.48L109.19,111.52L109.4,112.13L109.68,115.62L110.31,105.02L110.58,99.6L111.16,114.42L111.48,112.27L111.84,109.65L112.77,118.42L113.06,108.46L114.1,121.09L114.48,115.81L115.32,99L115.91,101.74L116.47,103.55L117.03,102.29L117.59,96.06L118.86,112.73L119.44,108.03L120.71,101.99L121.39,105.1L122.05,106.86L122.73,104.42L123.45,97.27L124.23,97.48L125,100.21L125.74,108.67L126.45,108.45L127.25,98.06L128.1,99.6L128.88,105.85L129.62,114.78L130.36,112.23L131.16,111.39L131.97,107.51L132.86,103.21L133.74,102.8L134.69,97.86L135.55,107.39L136.38,108.41L137.29,108.08L138.12,111.48L139.08,104.42L140.04,105.19L140.92,109.41L142.51,120.48L143.48,111.61L145.21,119.07L146.29,104.92L147.42,101.26L148.42,104.45L149.97,129.28L150.82,126.2L152.97,108.06L153.82,120.97L154.55,129.68L155.54,121.1L156.55,118.34L157.49,120.11L158.62,110.47L159.56,119.5L160.29,130.22L161.28,123.31L162.19,126.48L163.08,126.43L164,127.83L164.91,126.8L166.03,117.22L167,120.95L168.8,128.02L169.81,122.03L170.77,124.75L171.74,122.21L173.23,140.55L174.24,129.65L175.23,125.89L176.33,117.73L179.22,124.36L180.04,129.99L181.54,139.63L182.3,141.73L183.05,142.21L183.96,135.05L184.94,129.1L185.86,129L186.69,133.84L187.57,132.71L188.99,145.72L189.85,140.02L190.77,135.03L191.57,138.65L192.34,141.01L193.06,146.03L194.77,138.89L195.65,134.61L197.56,128.69L198.24,142.39L198.92,146.01" style="vector-effect: non-scaling-stroke; fill: none; stroke: rgb(239, 85, 59); stroke-opacity: 1; stroke-width: 2px; opacity: 1;"/></g><g class="points"/><g class="text"/></g></g></g><g class="overplot"/><path class="xlines-above crisp" d="M79,520.5H693M79,99.5H693" style="fill: none; stroke-width: 1px; stroke: rgb(0, 0, 0); stroke-opacity: 1;"/><path class="ylines-above crisp" d="M79.5,100V520M692.5,100V520" style="fill: none; stroke-width: 1px; stroke: rgb(0, 0, 0); stroke-opacity: 1;"/><g class="overlines-above"/><g class="xaxislayer-above"><g class="xtick"><text text-anchor="middle" x="0" y="535.4" transform="translate(141.2,0)" style="font-family: 'Open Sans', verdana, arial, sans-serif; font-size: 12px; fill: rgb(42, 63, 95); fill-opacity: 1; white-space: pre; opacity: 1;">−2</text></g><g class="xtick"><text text-anchor="middle" x="0" y="535.4" style="font-family: 'Open Sans', verdana, arial, sans-serif; font-size: 12px; fill: rgb(42, 63, 95); fill-opacity: 1; white-space: pre; opacity: 1;" transform="translate(263.6,0)">−1</text></g><g class="xtick"><text text-anchor="middle" x="0" y="535.4" style="font-family: 'Open Sans', verdana, arial, sans-serif; font-size: 12px; fill: rgb(42, 63, 95); fill-opacity: 1; white-space: pre; opacity: 1;" transform="translate(386,0)">0</text></g><g class="xtick"><text text-anchor="middle" x="0" y="535.4" style="font-family: 'Open Sans', verdana, arial, sans-serif; font-size: 12px; fill: rgb(42, 63, 95); fill-opacity: 1; white-space: pre; opacity: 1;" transform="translate(508.4,0)">1</text></g><g class="xtick"><text text-anchor="middle" x="0" y="535.4" style="font-family: 'Open Sans', verdana, arial, sans-serif; font-size: 12px; fill: rgb(42, 63, 95); fill-opacity: 1; white-space: pre; opacity: 1;" transform="translate(630.8,0)">2</text></g></g><g class="yaxislayer-above"><g class="ytick"><text text-anchor="end" x="76.6" y="4.199999999999999" transform="translate(0,520)" style="font-family: 'Open Sans', verdana, arial, sans-serif; font-size: 12px; fill: rgb(42, 63, 95); fill-opacity: 1; white-space: pre; opacity: 1;">−15</text></g><g class="ytick"><text text-anchor="end" x="76.6" y="4.199999999999999" style="font-family: 'Open Sans', verdana, arial, sans-serif; font-size: 12px; fill: rgb(42, 63, 95); fill-opacity: 1; white-space: pre; opacity: 1;" transform="translate(0,436)">−10</text></g><g class="ytick"><text text-anchor="end" x="76.6" y="4.199999999999999" style="font-family: 'Open Sans', verdana, arial, sans-serif; font-size: 12px; fill: rgb(42, 63, 95); fill-opacity: 1; white-space: pre; opacity: 1;" transform="translate(0,352)">−5</text></g><g class="ytick"><text text-anchor="end" x="76.6" y="4.199999999999999" style="font-family: 'Open Sans', verdana, arial, sans-serif; font-size: 12px; fill: rgb(42, 63, 95); fill-opacity: 1; white-space: pre; opacity: 1;" transform="translate(0,268)">0</text></g><g class="ytick"><text text-anchor="end" x="76.6" y="4.199999999999999" style="font-family: 'Open Sans', verdana, arial, sans-serif; font-size: 12px; fill: rgb(42, 63, 95); fill-opacity: 1; white-space: pre; opacity: 1;" transform="translate(0,184)">5</text></g><g class="ytick"><text text-anchor="end" x="76.6" y="4.199999999999999" style="font-family: 'Open Sans', verdana, arial, sans-serif; font-size: 12px; fill: rgb(42, 63, 95); fill-opacity: 1; white-space: pre; opacity: 1;" transform="translate(0,100)">10</text></g></g><g class="overaxes-above"/></g></g><g class="polarlayer"/><g class="smithlayer"/><g class="ternarylayer"/><g class="geolayer"/><g class="funnelarealayer"/><g class="pielayer"/><g class="iciclelayer"/><g class="treemaplayer"/><g class="sunburstlayer"/><g class="glimages"/><defs id="topdefs-8adc11"><g class="clips"/><clipPath id="legend8adc11"><rect width="84" height="48" x="0" y="0"/></clipPath></defs><g class="layer-above"><g class="imagelayer"/><g class="shapelayer"/></g><g class="infolayer"><g class="legend" pointer-events="all" transform="translate(704.24,100)"><rect class="bg" shape-rendering="crispEdges" style="stroke: rgb(68, 68, 68); stroke-opacity: 1; fill: rgb(255, 255, 255); fill-opacity: 1; stroke-width: 0px;" width="84" height="48" x="0" y="0"/><g class="scrollbox" transform="" clip-path="url(#legend8adc11)"><g class="groups"><g class="traces" transform="translate(0,14.5)" style="opacity: 1;"><text class="legendtext" text-anchor="start" x="40" y="4.680000000000001" style="font-family: 'Open Sans', verdana, arial, sans-serif; font-size: 12px; fill: rgb(42, 63, 95); fill-opacity: 1; white-space: pre;">trace 0</text><g class="layers" style="opacity: 1;"><g class="legendfill"/><g class="legendlines"><path class="js-line" d="M5,0h30" style="fill: none; stroke: rgb(99, 110, 250); stroke-opacity: 1; stroke-width: 2px;"/></g><g class="legendsymbols"><g class="legendpoints"/></g></g><rect class="legendtoggle" x="0" y="-9.5" width="78.375" height="19" style="fill: rgb(0, 0, 0); fill-opacity: 0;"/></g><g class="traces" transform="translate(0,33.5)" style="opacity: 1;"><text class="legendtext" text-anchor="start" x="40" y="4.680000000000001" style="font-family: 'Open Sans', verdana, arial, sans-serif; font-size: 12px; fill: rgb(42, 63, 95); fill-opacity: 1; white-space: pre;">trace 1</text><g class="layers" style="opacity: 1;"><g class="legendfill"/><g class="legendlines"><path class="js-line" d="M5,0h30" style="fill: none; stroke: rgb(239, 85, 59); stroke-opacity: 1; stroke-width: 2px;"/></g><g class="legendsymbols"><g class="legendpoints"/></g></g><rect class="legendtoggle" x="0" y="-9.5" width="78.375" height="19" style="fill: rgb(0, 0, 0); fill-opacity: 0;"/></g></g></g><rect class="scrollbar" rx="20" ry="3" width="0" height="0" style="fill: rgb(128, 139, 164); fill-opacity: 1;" x="0" y="0"/></g><g class="g-gtitle"/><g class="g-xtitle"/><g class="g-ytitle"/></g></svg>