<svg class="main-svg" xmlns="http://www.w3.org/2000/svg" xmlns:xlink="http://www.w3.org/1999/xlink" width="900" height="500" style="" viewBox="0 0 900 500"><rect x="0" y="0" width="900" height="500" style="fill: rgb(255, 255, 255); fill-opacity: 1;"/><defs id="defs-07e9b1"><g class="clips"><clipPath id="clip07e9b1xyplot" class="plotclip"><rect width="740" height="320"/></clipPath><clipPath class="axesclip" id="clip07e9b1x"><rect x="80" y="0" width="740" height="500"/></clipPath><clipPath class="axesclip" id="clip07e9b1y"><rect x="0" y="100" width="900" height="320"/></clipPath><clipPath class="axesclip" id="clip07e9b1xy"><rect x="80" y="100" width="740" height="320"/></clipPath></g><g class="gradients"/><g class="patterns"/></defs><g class="bglayer"/><g class="layer-below"><g class="imagelayer"/><g class="shapelayer"/></g><g class="cartesianlayer"><g class="subplot xy"><g class="layer-subplot"><g class="shapelayer"/><g class="imagelayer"/></g><g class="gridlayer"><g class="x"><path class="xgrid crisp" transform="translate(170.35,0)" d="M0,100v320" style="stroke: rgb(235, 240, 248); stroke-opacity: 1; stroke-width: 1px;"/><path class="xgrid crisp" transform="translate(260.71000000000004,0)" d="M0,100v320" style="stroke: rgb(235, 240, 248); stroke-opacity: 1; stroke-width: 1px;"/><path class="xgrid crisp" transform="translate(351.06,0)" d="M0,100v320" style="stroke: rgb(235, 240, 248); stroke-opacity: 1; stroke-width: 1px;"/><path class="xgrid crisp" transform="translate(441.42,0)" d="M0,100v320" style="stroke: rgb(235, 240, 248); stroke-opacity: 1; stroke-width: 1px;"/><path class="xgrid crisp" transform="translate(531.77,0)" d="M0,100v320" style="stroke: rgb(235, 240, 248); stroke-opacity: 1; stroke-width: 1px;"/><path class="xgrid crisp" transform="translate(622.12,0)" d="M0,100v320" style="stroke: rgb(235, 240, 248); stroke-opacity: 1; stroke-width: 1px;"/><path class="xgrid crisp" transform="translate(712.48,0)" d="M0,100v320" style="stroke: rgb(235, 240, 248); stroke-opacity: 1; stroke-width: 1px;"/><path class="xgrid crisp" transform="translate(802.83,0)" d="M0,100v320" style="stroke: rgb(235, 240, 248); stroke-opacity: 1; stroke-width: 1px;"/></g><g class="y"><path class="ygrid crisp" transform="translate(0,395.86)" d="M80,0h740" style="stroke: rgb(235, 240, 248); stroke-opacity: 1; stroke-width: 1px;"/><path class="ygrid crisp" transform="translate(0,348.23)" d="M80,0h740" style="stroke: rgb(235, 240, 248); stroke-opacity: 1; stroke-width: 1px;"/><path class="ygrid crisp" transform="translate(0,300.59000000000003)" d="M80,0h740" style="stroke: rgb(235, 240, 248); stroke-opacity: 1; stroke-width: 1px;"/><path class="ygrid crisp" transform="translate(0,205.32)" d="M80,0h740" style="stroke: rgb(235, 240, 248); stroke-opacity: 1; stroke-width: 1px;"/><path class="ygrid crisp" transform="translate(0,157.68)" d="M80,0h740" style="stroke: rgb(235, 240, 248); stroke-opacity: 1; stroke-width: 1px;"/><path class="ygrid crisp" transform="translate(0,110.05)" d="M80,0h740" style="stroke: rgb(235, 240, 248); stroke-opacity: 1; stroke-width: 1px;"/></g></g><g class="zerolinelayer"><path class="yzl zl crisp" transform="translate(0,252.96)" d="M80,0h740" style="stroke: rgb(235, 240, 248); stroke-opacity: 1; stroke-width: 2px;"/></g><path class="xlines-below"/><path class="ylines-below"/><g class="overlines-below"/><g class="xaxislayer-below"/><g class="yaxislayer-below"/><g class="overaxes-below"/><g class="plot" transform="translate(80,100)" clip-path="url(#clip07e9b1xyplot)"><g class="scatterlayer mlayer"><g class="trace scatter tracef7a64c" style="stroke-miterlimit: 2; opacity: 1;"><g class="fills"/><g class="errorbars"/><g class="lines"><path class="js-line" d="M0,160.58L7.23,158.55L7.41,158.52L15.36,157.51L15.54,157.5L24.4,157.27L24.58,157.28L36.5,158.03L36.68,158.05L47.16,159.94L47.35,159.99L56.38,163.26L56.56,163.35L67.04,169.41L67.22,169.52L72.64,172L72.83,172.05L76.44,172.34L76.62,172.32L80.42,171.19L80.6,171.11L88.19,166.49L88.37,166.38L95.59,162.44L95.78,162.36L102.46,160.19L102.64,160.15L111.14,159L111.32,158.99L121.8,159.14L121.98,159.16L131.56,160.43L131.74,160.46L144.39,163.98L144.57,164.05L160.83,169.09L161.01,169.1L166.61,168.68L166.79,168.64L173.48,166.39L173.66,166.32L187.76,160.86L187.94,160.8L200.04,158.2L200.22,158.17L223.72,156.35L223.9,156.34L271.42,156.7L271.6,156.72L282.45,158.04L282.63,158.07L293.47,161.2L293.65,161.28L300.52,165.12L300.7,165.25L307.75,170.85L307.93,171L313.53,174.5L313.71,174.55L316.78,174.79L316.96,174.76L320.4,173.29L320.58,173.18L326.9,168.07L327.08,167.92L333.77,163.29L333.95,163.2L340.09,160.92L340.27,160.88L347.14,160.12L347.32,160.11L355.27,160.85L355.45,160.88L365.57,163.85L365.75,163.93L382.92,170.43L383.1,170.44L387.98,169.97L388.16,169.92L394.31,167.44L394.49,167.35L408.58,161.07L408.76,161.01L419.97,158.63L420.15,158.61L434.6,157.73L434.78,157.73L452.85,158.46L453.04,158.48L462.43,159.73L462.61,159.77L472.37,162.15L472.55,162.21L480.68,165.24L480.86,165.32L493.88,169.61L494.06,169.63L499.48,169.23L499.66,169.19L505.44,167.15L505.62,167.07L522.25,160.4L522.43,160.35L532.55,158.3L532.73,158.28L543.39,157.26L543.57,157.25L564.53,156.83L564.71,156.83L591.28,158.78L591.46,158.82L601.04,161.16L601.22,161.22L609.35,164.7L609.53,164.79L623.08,171.61L623.26,171.65L627.78,171.69L627.96,171.65L632.48,169.91L632.66,169.81L642.06,164.28L642.24,164.18L650.91,160.64L651.09,160.59L659.58,159L659.77,158.99L669.89,158.62L670.07,158.62L685.79,160.18L685.97,160.21L695.55,162.55L695.73,162.61L705.12,165.99L705.3,166.06L714.52,168.86L714.7,168.89L719.76,169.02L719.94,169L727.17,167.06L727.35,166.99L740,161.87" style="vector-effect: non-scaling-stroke; fill: none; stroke: rgb(76, 120, 168); stroke-opacity: 1; stroke-width: 1px; opacity: 1; stroke-dasharray: 9px, 9px;"/></g><g class="points"/><g class="text"/></g><g class="trace scatter trace3e6111" style="stroke-miterlimit: 2; opacity: 1;"><g class="fills"/><g class="errorbars"/><g class="lines"><path class="js-line" d="M0,145.33L4.7,146.6L4.88,146.65L21.87,149.75L22.05,149.77L32.71,150.21L32.89,150.2L42.83,149.47L43.01,149.44L48.79,148.37L48.97,148.32L58.19,144.64L58.37,144.53L61.8,142.2L61.98,142.06L69.21,134.74L69.39,134.52L78.25,125.72L78.43,125.62L81.5,125.13L81.68,125.16L84.21,126.16L84.39,126.28L87.64,128.91L87.82,129.11L103.55,144.31L103.73,144.43L112.76,149.21L112.94,149.27L119.99,151.22L120.17,151.25L131.92,152.49L132.1,152.49L144.39,151.77L144.57,151.73L153.6,149.48L153.78,149.41L159.93,146.94L160.11,146.84L169.87,143.76L170.05,143.74L175.83,143.82L176.01,143.84L183.24,145.79L183.42,145.85L196.07,150.14L196.25,150.21L215.4,154L215.58,154.02L234.02,155.21L234.2,155.21L255.88,155.67L256.06,155.67L271.79,156.42L271.97,156.43L288.05,158.86L288.23,158.91L294.37,161.02L294.55,161.1L302.32,165.59L302.51,165.73L313.53,173.07L313.71,173.1L316.24,173.28L316.42,173.27L319.85,171.98L320.03,171.87L324.73,168.44L324.91,168.3L331.24,163.65L331.42,163.55L336.12,161.28L336.3,161.22L341.72,159.9L341.9,159.87L350.03,159.7L350.21,159.71L357.8,160.87L357.98,160.91L366.66,163.59L366.84,163.66L382.2,169.13L382.38,169.15L387.62,168.75L387.8,168.71L394.67,166.06L394.85,165.98L406.59,160.93L406.77,160.87L418.34,158.38L418.52,158.36L433.34,157.45L433.52,157.45L452.67,158.17L452.85,158.19L463.16,159.47L463.34,159.5L473.82,162L474,162.06L482.67,165.23L482.85,165.3L493.88,168.35L494.06,168.36L499.3,167.91L499.48,167.87L507.97,164.75L508.15,164.67L519.9,160.24L520.08,160.19L530.38,158.1L530.56,158.07L548.81,156.76L548.99,156.76L563.63,156.69L563.81,156.69L582.42,157.44L582.6,157.46L592.72,158.76L592.9,158.79L601.76,161.01L601.94,161.07L610.61,164.72L610.79,164.82L624.17,170.7L624.35,170.73L628.86,170.28L629.05,170.24L634.83,167.53L635.01,167.43L648.02,160.92L648.2,160.86L656.15,159L656.33,158.97L665.01,158.26L665.19,158.26L674.76,158.47L674.95,158.48L686.33,159.84L686.51,159.88L696.81,162.34L696.99,162.4L717.05,168L717.23,168L721.93,167.54L722.11,167.5L729.16,165.18L729.34,165.1L740,161.06" style="vector-effect: non-scaling-stroke; fill: none; stroke: rgb(76, 120, 168); stroke-opacity: 1; stroke-width: 1px; opacity: 1;"/></g><g class="points"/><g class="text"/></g><g class="trace scatter trace2ce8c0" style="stroke-miterlimit: 2; opacity: 1;"><g class="fills"/><g class="errorbars"/><g class="lines"><path class="js-line" d="M0,124.37L5.96,137.36L6.14,137.7L11.57,146.17L11.75,146.4L17.35,152.63L17.53,152.8L26.38,160.14L26.56,160.28L36.14,168.67L36.32,168.86L42.65,176.96L42.83,177.24L47.71,186.13L47.89,186.52L53.31,199.95L53.49,200.45L63.07,226.3L63.25,226.57L65.24,228.07L65.42,228.06L66.68,227.1L66.86,226.83L68.49,222.78L68.67,222.14L70.84,211.33L71.02,210.17L74.27,183.67L74.45,181.96L81.68,119.07L81.86,118.05L84.57,107.3L84.75,106.89L86.56,104.51L86.74,104.44L88.19,104.79L88.37,104.93L90.35,107.72L90.53,108.07L93.61,115.27L93.79,115.75L104.27,141.81L104.45,142.17L110.23,152.14L110.41,152.41L118.18,162.36L118.36,162.57L132.46,180.07L132.64,180.33L147.46,202.05L147.64,202.18L150.17,203.11L150.35,203.09L152.34,202.04L152.52,201.86L154.51,198.84L154.69,198.47L157.4,190.91L157.58,190.27L161.19,174.85L161.37,173.97L170.05,134.64L170.23,134.07L173.48,126.51L173.66,126.24L176.19,123.81L176.37,123.73L178.54,123.58L178.72,123.63L181.61,125.33L181.79,125.48L187.03,131.1L187.21,131.31L195.71,140.52L195.89,140.68L201.85,145.31L202.03,145.43L208.36,148.75L208.54,148.82L215.77,151.22L215.95,151.27L231.31,153.96L231.49,153.98L252.81,157.09L252.99,157.13L264.01,160.31L264.2,160.38L270.88,163.76L271.06,163.87L277.21,168.86L277.39,169.04L282.45,175.44L282.63,175.72L286.96,183.8L287.15,184.2L291.66,196.31L291.84,196.88L296.9,215.91L297.08,216.69L305.04,248.36L305.22,248.73L306.84,250.26L307.02,250.21L308.11,248.75L308.29,248.31L309.73,242.45L309.91,241.42L311.9,225.44L312.08,223.58L315.34,181.03L315.52,178.34L320.94,107.01L321.12,105.4L323.65,90.11L323.83,89.51L325.46,86.73L325.64,86.68L326.72,87.35L326.9,87.6L328.71,91.88L328.89,92.45L332.32,106.06L332.5,106.86L341,141.33L341.18,141.94L347.14,159.32L347.32,159.78L356.36,180.85L356.54,181.26L369.19,209.01L369.37,209.28L372.08,211.91L372.26,211.97L373.89,211.77L374.07,211.66L375.87,209.32L376.05,208.96L378.22,202.78L378.4,202.11L381.47,187.21L381.66,186.15L391.96,125.97L392.14,125.34L394.85,118.66L395.03,118.39L397.2,116.62L397.38,116.59L399.18,117.01L399.37,117.13L401.89,119.68L402.08,119.92L407.68,128.97L407.86,129.28L415.63,141.21L415.81,141.45L422.13,148.32L422.32,148.49L429.36,153.77L429.54,153.89L442.55,160.97L442.74,161.06L453.04,167.63L453.22,167.77L459.54,173.63L459.72,173.82L466.05,181.94L466.23,182.21L473.64,194.66L473.82,194.99L480.5,205.35L480.68,205.54L483.39,207.07L483.58,207.07L485.38,206.32L485.56,206.15L487.55,203.17L487.73,202.79L490.26,195.36L490.44,194.69L493.88,178.74L494.06,177.77L503.09,131.62L503.27,131.01L506.34,123.38L506.53,123.09L508.87,120.8L509.05,120.73L511.22,120.78L511.4,120.86L513.93,122.72L514.11,122.9L518.45,128.3L518.63,128.55L528.57,141.13L528.75,141.31L534.53,146.39L534.72,146.52L541.76,150.69L541.94,150.77L549.35,153.66L549.53,153.72L576.82,162.89L577,162.99L582.78,166.67L582.96,166.81L588.21,171.59L588.39,171.79L593.08,177.8L593.26,178.07L597.96,186.31L598.14,186.68L603.2,198.44L603.38,198.91L613.32,222.91L613.5,223.11L615.31,224.03L615.49,223.99L616.76,222.96L616.94,222.69L618.56,218.84L618.74,218.24L620.73,209.32L620.91,208.29L623.99,186.22L624.17,184.7L632.12,121.29L632.3,120.36L635.01,110.48L635.19,110.08L637.18,107.65L637.36,107.59L638.8,107.9L638.98,108.03L641.15,110.81L641.33,111.12L645.49,120.24L645.67,120.67L653.98,139.45L654.16,139.8L660.13,149.53L660.31,149.78L667.72,158.46L667.9,158.64L686.69,178.81L686.87,179.06L695.91,192.88L696.09,193.17L702.23,201.45L702.41,201.61L704.94,202.96L705.12,202.99L707.11,202.42L707.29,202.28L709.28,199.84L709.46,199.53L711.99,193.38L712.17,192.82L715.6,179.38L715.79,178.56L725.9,133.33L726.09,132.8L729.16,126.21L729.34,125.96L731.87,123.8L732.05,123.74L734.4,123.81L734.58,123.88L737.47,125.79L737.65,125.95L740,128.33" style="vector-effect: non-scaling-stroke; fill: none; stroke: rgb(245, 133, 24); stroke-opacity: 1; stroke-width: 1px; opacity: 1; stroke-dasharray: 9px, 9px;"/></g><g class="points"/><g class="text"/></g><g class="trace scatter trace79d5fb" style="stroke-miterlimit: 2; opacity: 1;"><g class="fills"/><g class="errorbars"/><g class="lines"><path class="js-line" d="M0,181.54L1.08,171.26L1.26,171.39L1.45,171.64L2.35,169.89L2.53,170.53L2.71,170.99L3.61,171.73L3.79,171.1L3.98,170.69L4.52,171.55L4.7,171.06L4.88,170.69L5.24,171.81L5.6,171.45L5.78,170.36L5.96,169.81L6.32,171L6.51,170.77L6.87,170.11L7.05,169.48L7.95,170.45L8.13,170.43L8.67,169.96L8.85,168.58L9.22,169.18L9.94,168.21L10.12,168.32L10.84,168.58L11.02,169.47L11.2,170.06L11.38,169.5L11.57,168.69L14.1,164.68L14.28,165.18L14.46,166.02L14.82,164.36L15,164.15L15.36,165.26L15.54,164.71L15.72,163.52L16.08,164.81L16.26,164.46L16.44,163.6L17.53,161.83L17.71,162.5L18.25,162.39L18.43,161.74L18.61,161.44L18.79,162L18.97,162.34L19.16,162.48L19.34,162.2L19.52,161.69L20.6,159.69L20.78,160.48L20.96,160.66L22.05,158.66L22.23,159.75L22.41,160.39L22.77,159.19L22.95,158.65L23.85,158.12L24.03,158.37L24.4,157.01L24.58,156.09L24.94,156.94L25.3,156.21L25.48,155.92L26.2,155.95L26.38,155.11L26.93,153.91L27.11,153.95L27.29,154.33L28.73,151.5L28.91,152.2L29.09,152.57L29.27,152.79L29.46,152.28L29.64,151.43L29.82,150.88L30.18,152.05L30.36,151.71L31.26,149.58L31.44,149.84L31.62,149.62L31.99,148.38L32.53,148.54L32.71,148.51L33.61,145.77L33.79,145.81L33.97,146.14L34.15,146.96L34.52,145.48L34.7,146.07L34.88,146.57L35.06,147.12L35.6,146.5L35.78,145.73L36.86,143.02L37.05,143.46L38.49,141.68L38.67,141.64L39.03,141.71L39.21,141.19L39.39,140.4L39.94,140.24L40.12,140.95L41.02,141.46L41.2,141.34L43.01,135.91L43.19,135.88L43.37,136.13L43.55,135.67L43.73,135.06L44.27,133.93L44.45,133.16L46.08,130.77L46.26,131.39L46.44,131.68L47.71,128.42L47.89,128.47L49.33,122.75L49.51,123.67L49.69,123.93L50.06,123.46L50.24,122.18L51.14,118.31L51.32,118.12L57.83,90.33L58.01,88.84L60.18,76.3L60.36,75.25L60.54,75.15L60.72,73.71L64.69,46.32L64.87,45.34L67.77,23.44L67.95,22.58L68.67,21.23L68.85,20.45L70.48,16.37L70.66,16.48L71.2,16L71.38,16.49L71.56,16.98L71.74,16.93L71.92,18.2L73.73,24.84L73.91,26.39L74.09,26.62L74.27,28.24L80.6,122.72L80.78,126.7L86.56,206.63L86.74,208.98L89.27,228.53L89.45,230.22L90.53,232.02L90.72,232.92L92.16,236.95L92.34,237.16L92.7,236.55L92.88,236.21L93.43,236.2L93.61,236.68L93.79,237.41L94.15,236.68L94.33,235.99L95.59,233.84L95.78,233.59L96.68,233.65L96.86,234.17L103.37,213.64L103.55,212.42L104.81,208.5L104.99,208.59L106.62,202.75L106.8,202.82L108.06,199.41L108.24,199.45L110.05,191.73L110.23,191.37L111.86,186.31L112.04,186.55L112.22,186.99L114.57,181.23L114.75,181.66L116.38,177.47L116.56,177.49L118.73,171.93L118.91,172.06L120.35,168.85L120.53,168.18L121.26,167.8L121.44,168.13L121.62,168.56L123.24,164.89L123.42,164.56L123.79,165.15L124.15,164.98L124.33,164.76L124.69,164.49L124.87,163.58L125.77,163.56L125.95,162.5L126.86,160.78L127.04,161.25L127.22,160.71L127.58,158.27L128.12,159.12L128.3,159.7L129.03,159.22L129.21,158.56L131.19,154.65L131.37,154.99L131.56,155.76L133.18,151.96L133.36,152.29L133.72,153.05L133.9,152.54L134.09,151.54L134.81,150.56L135.17,150.97L135.35,151.15L135.89,148.82L136.43,149.53L136.62,150.07L136.98,150.98L137.34,149.87L137.52,149.71L140.41,144.5L140.59,145.28L141.68,143.72L141.86,142.64L143.48,140.29L143.66,139L144.93,136.76L145.11,136.71L146.92,134.08L147.1,133.55L147.82,131.04L148,130.42L148.36,129.03L148.9,129.68L149.08,129.29L150.71,123.11L151.25,123.65L151.43,123.26L151.98,119.55L152.52,120.33L152.7,120.17L153.96,116.77L154.14,116.45L155.41,112.77L155.59,112.74L158.48,106.39L158.66,106.71L159.02,107.28L159.2,107.18L159.38,105.94L159.93,106.47L160.29,104.8L160.47,105.12L161.55,108.28L161.91,107.98L162.1,107.77L162.82,107.28L163,107.11L164.63,110.89L164.81,111.49L167.16,120.37L167.34,120.22L167.7,121.58L167.88,122.46L169.87,130.87L170.05,132.02L172.4,143.41L172.58,144.45L174.2,150.45L174.38,150.71L176.37,161.21L176.55,161.98L177.64,163.65L177.82,164.48L180.53,174.44L180.71,174.42L181.07,175.34L181.25,175.84L181.43,175.67L181.61,175.98L181.79,176.82L182.7,178.38L182.88,178.1L183.06,177.36L183.42,177.11L183.6,177.56L183.78,178.63L184.86,181.41L185.05,181.06L185.41,179.49L185.77,179.9L185.95,180.8L186.49,182.59L186.67,181.38L186.85,181.1L187.76,182.53L187.94,182.61L188.48,183.06L188.66,183.54L189.02,183.76L189.2,183.43L189.38,182.74L190.11,183.59L190.47,182.89L190.65,181.75L190.83,180.61L191.37,180.89L191.55,180.92L192.63,181.98L192.82,181.79L193,181.03L193.54,180.71L193.72,180.85L193.9,181L194.8,179.77L194.98,179.68L195.16,180.15L195.53,179.18L195.71,178.79L196.25,179.64L196.43,178.95L196.79,180.12L196.97,179.44L197.15,178.2L198.24,176.5L198.42,176.22L198.78,175.48L199.14,175.65L199.32,175.77L200.41,178.27L200.59,177.17L200.77,176.2L201.49,174.12L201.67,174.93L201.85,175.43L202.03,175.43L202.21,174.65L203.84,172.98L204.02,171.56L205.1,170.62L205.28,170.9L205.83,171.27L206.01,170.57L206.73,170.59L206.91,170.16L207.45,170.32L208,168.57L208.18,168.26L208.54,169.42L208.9,168.69L209.08,168.45L209.62,169.22L209.8,168.55L209.98,168.33L210.34,168.52L210.53,168.37L210.71,167.52L210.89,166.61L211.43,167.39L211.61,167.07L211.97,167.73L212.33,167.29L212.51,167.05L212.87,166.89L213.05,166.05L213.6,166.57L213.96,165.93L214.14,166.09L215.4,163.71L215.58,163.71L216.13,162.94L216.31,162.58L216.67,164.31L217.21,164.14L217.39,163.94L217.57,164.24L217.93,163.7L218.11,163.36L219.2,163.03L219.38,162.12L219.92,161.1L220.1,161.78L220.28,162.23L221.73,164.02L221.91,163.27L222.09,162.35L223.36,160.6L223.54,161.21L224.26,161.64L224.44,161.22L224.62,161.15L224.8,161.67L225.16,160.64L225.34,161.16L225.52,160.45L226.07,159.37L226.25,159.77L226.43,159.92L226.97,160.82L227.15,159.94L227.33,159.4L228.6,159.25L228.78,159.71L230.04,158.8L230.22,159L230.95,160.23L231.13,159.75L231.31,158.77L231.67,158.96L232.03,157.5L232.21,157.96L232.39,158.54L233.11,159.47L233.29,159.03L233.47,158.3L233.84,157.4L234.2,157.95L234.38,158.13L235.46,158.52L235.64,158.85L236.37,157.29L236.73,157.55L236.91,158.31L237.45,158.09L237.63,158.33L237.81,158.86L238.9,157.48L239.08,157.61L239.26,157.66L240.34,157.55L240.52,157.9L241.06,156.66L241.25,157.33L241.43,157.84L241.79,157.83L241.97,158.4L242.69,157.05L243.05,157.73L243.23,158.27L243.41,158.14L243.59,156.95L244.32,157.64L244.5,157.2L244.68,156.77L245.22,157.86L245.4,156.99L245.58,155.92L245.76,155.13L246.12,156.21L246.31,156.12L246.49,156.14L246.67,157.41L247.93,158.49L248.11,157.88L248.47,157.42L248.65,157.9L248.84,158.19L249.56,156.89L249.74,157.1L249.92,157.82L251.37,156.69L251.55,155.85L252.09,156.87L252.27,156.41L252.45,156.09L253.53,158.06L253.71,158.18L254.08,157.32L254.44,157.77L254.62,158.07L254.8,158.59L254.98,158L255.16,156.8L255.52,155.87L255.7,156.29L255.88,157.1L256.97,158.03L257.15,157.15L258.95,160.69L259.14,159.8L260.04,160.88L260.22,160.6L260.4,159.57L261.3,158.02L261.48,158.36L261.67,159.95L262.03,161.2L262.39,160.79L262.57,160.52L263.65,160.13L263.83,160.38L264.56,160.62L264.74,159.95L264.92,159.24L265.1,160.31L265.28,161.13L266,160.81L266.18,160.94L266.36,161.24L266.91,160.19L267.09,160.88L267.27,161.64L267.45,160.99L267.81,162.26L267.99,162.8L268.71,163.48L269.07,163.13L269.26,162.94L269.98,162.09L270.16,162.52L270.34,163.08L270.88,162.78L271.06,162.02L271.79,164.09L272.15,163.67L272.33,163.34L272.51,162.53L273.05,162.92L273.23,162.82L273.59,163.26L273.77,164.48L274.32,166.52L274.68,165.81L274.86,165.84L275.04,165.67L275.22,166.16L275.4,166.81L276.3,167.51L276.48,167.24L276.66,166.97L277.57,168.58L277.75,168.13L277.93,167.76L279.01,170.91L279.19,169.5L279.74,169.22L279.92,169.77L281.36,171.65L281.54,171.51L282.63,174.66L282.81,174.58L282.99,174.44L285.16,180.25L285.34,179.57L285.88,180.52L286.06,180.99L286.42,180.86L286.6,181.68L287.69,184.48L287.87,184.1L288.05,183.71L291.12,190.93L291.3,190.74L291.48,191.83L292.39,196.51L292.57,196.41L292.75,196.38L293.65,200.42L293.83,201.95L294.55,205.59L294.74,206.33L295.28,206.07L295.46,207.19L297.26,212.8L297.45,213.69L299.25,221.16L299.43,222.04L303.59,238.94L303.77,239.91L304.13,239.81L304.31,240.59L305.4,243.37L305.58,244.13L305.94,243.11L306.12,242.35L306.48,240.75L306.84,242.18L307.02,242.62L307.38,243.59L307.57,243.42L307.75,242.7L308.65,238.85L308.83,237.11L309.91,235.51L310.1,234.14L312.63,211.54L312.81,208.77L316.78,154.72L316.96,151.39L320.4,113.3L320.58,112.25L323.47,93.84L323.65,92.89L324.37,91.11L324.55,90.79L325.09,88.81L325.27,89.56L325.46,90.25L325.64,90.03L325.82,90.91L326,91.01L326.36,90.01L326.72,90.86L326.9,91.07L327.26,91.62L327.44,92.35L327.8,93.11L327.99,94.22L330.52,101.92L330.7,103.39L336.48,127.31L336.66,127.86L336.84,127.79L337.02,128.48L337.2,130.19L338.65,136.54L338.83,136.59L340.82,144.65L341,144.62L343.89,152.88L344.07,152.87L344.97,157.22L345.33,156.45L345.51,155.78L345.69,155.41L345.88,156.25L346.06,156.59L346.24,156.7L346.42,158L348.59,164.7L348.77,164.55L348.95,164.1L349.85,166.65L350.21,165.85L350.39,165.96L350.57,165.68L350.75,165.83L350.94,166.99L352.2,172.23L352.56,171.77L352.74,171.87L354.01,175.74L354.19,175.48L354.37,175.18L354.55,175.61L354.73,176.09L357.26,182.03L357.44,181.87L357.62,181.71L357.98,181.21L358.16,181.82L358.34,182.92L359.43,185.04L359.61,185.02L361.24,190.18L361.42,190.12L361.6,190.34L364.85,197.24L365.03,197.29L365.21,197.23L365.39,197.82L365.57,198.32L366.84,200.83L367.02,201.66L367.56,201.25L367.74,201.83L367.92,202.96L369.55,206.88L369.73,206.26L369.91,205.52L370.45,206.46L370.63,206.2L371.54,206.2L371.72,207.18L372.62,207.51L372.8,207.69L374.43,205.83L374.61,206.46L374.79,206.85L374.97,205.82L375.15,205.44L375.87,203.37L376.05,203.45L376.23,204L376.6,203.24L376.78,202.11L377.68,198.67L378.04,199.38L378.22,199.07L380.21,189.05L380.39,188.8L386.53,152.3L386.72,151.42L388.52,141.19L388.7,139.88L391.78,128.12L391.96,127.79L393.4,122.5L393.58,122.82L393.76,123.33L394.12,122.46L394.31,121.42L395.21,121.57L395.39,120.71L395.57,120.91L395.75,120.32L395.93,119.05L396.84,119.1L397.02,119.58L397.38,119.13L397.56,118.94L398.1,117.47L398.28,117.85L398.46,118.58L399.73,121.1L399.91,119.79L400.45,118.25L400.63,119.07L400.81,119.35L402.8,124.57L402.98,124.5L403.16,124.35L404.24,126.03L404.42,126.57L405.51,128.13L405.69,127.85L405.87,127.66L406.95,129.65L407.14,130.21L407.32,129.93L407.5,130.59L407.68,131.55L408.58,131.66L408.76,133.08L408.94,133L409.12,133.72L409.3,134.09L411.11,136.36L411.29,136.69L412.2,138.86L412.38,138.81L412.56,138.96L412.92,139.73L413.1,141.14L413.64,141.66L413.82,141.21L414,140.68L416.89,144.8L417.07,144.3L417.62,145.56L417.8,146.33L418.16,146.94L418.34,146.86L418.52,145.87L419.97,147.62L420.15,148.23L420.69,147.82L421.05,148.69L421.23,148.73L421.77,149.54L421.95,149.81L422.32,148.78L422.5,149.57L422.68,150.71L423.22,152.12L423.4,151.61L423.58,151.01L423.94,150.4L424.3,151.14L424.48,150.97L425.21,150.99L425.39,151.59L426.65,153.7L426.83,154.28L427.19,153.7L427.37,152.8L427.56,151.65L428.1,152.69L428.28,153.52L429,154.54L429.18,153.98L429.36,153.42L430.81,155.97L430.99,155.36L431.17,154.91L431.71,155.3L431.89,155.59L432.07,155.21L432.43,155.97L432.62,156.83L432.98,156.29L433.34,156.95L433.52,156.87L434.06,156.66L434.42,157.66L434.6,157.5L434.78,157.69L434.96,157.27L435.15,156.52L435.87,157.35L436.05,157.22L436.23,155.77L436.41,155.09L436.59,156.24L436.77,157.24L438.04,159.81L438.22,159.6L438.4,159.78L439.66,161.19L439.84,160.39L440.57,159.62L440.75,160.17L440.93,160.95L441.47,160.05L441.65,160.55L441.83,160.92L442.01,159.76L442.19,159.87L442.92,160.66L443.1,160.55L443.28,161.15L443.82,162.45L444.18,161.74L444.36,162.03L445.45,162.53L445.63,163.44L445.99,162.02L446.35,163.12L446.53,163.5L447.61,162L447.79,163.22L448.34,163.82L448.52,163.57L448.7,163.63L449.06,163.19L449.24,164.09L449.42,164.3L449.6,163.95L450.14,164.26L450.32,164.45L452.67,167.27L452.85,166.78L453.04,166.77L455.38,168.89L455.57,169.07L455.93,169.55L456.11,169.94L456.47,169.29L457.01,169.61L457.19,169.57L457.91,168.86L458.1,169.53L458.46,171.09L459,170.82L459.18,170.62L459.36,170.53L459.54,171.41L459.72,172.27L460.44,172.08L460.63,172.74L460.81,172.07L460.99,172.95L461.17,173.87L461.89,174.15L462.07,174.8L462.25,174.88L462.43,176.32L462.79,178.32L463.16,177.24L463.34,176.01L463.7,174.88L464.06,176L464.24,176.41L464.6,176.62L464.78,177.56L465.68,182.09L465.87,182.03L466.05,181.29L466.41,179.96L466.77,180.34L466.95,180.74L467.13,181.4L467.49,180.43L467.67,180.47L468.94,183.47L469.12,184.34L470.93,188.05L471.11,187.16L471.29,186.9L473.27,190.82L473.46,190.31L474.18,191.96L474.36,192.69L476.17,195.84L476.35,195.71L476.53,195.22L476.71,195.71L476.89,196.54L478.88,199.52L479.06,201.41L479.24,201.81L479.78,201.24L479.96,201.58L480.32,201.98L480.5,201.36L480.68,200.46L481.23,201.52L481.41,201.82L481.59,202.38L482.13,201.75L482.31,201.83L482.67,202.19L482.85,201.12L484.48,204.11L484.66,203.68L484.84,202.7L486.29,198.19L486.47,198.73L486.83,199.97L487.19,199.64L487.37,199.03L490.44,188.98L490.62,187.53L491.89,183.95L492.07,182.67L495.32,167.87L495.5,166L496.77,159.53L496.95,159.48L503.09,131.2L503.27,131.46L504.18,127.53L504.36,126.68L504.54,126.94L504.72,126.37L504.9,125.56L505.62,124.52L505.8,124.82L505.98,125.31L506.16,125.43L506.34,124.38L507.07,122.71L507.25,122.75L507.43,122.73L507.61,122.44L507.79,123.16L507.97,123.5L510.68,122.13L510.86,121.61L511.22,123.39L511.77,122.44L511.95,122.99L512.49,124.2L512.67,124.61L512.85,124.21L513.21,124.94L513.39,124.98L513.57,124.83L513.93,125.41L514.11,125.44L514.48,126.18L514.66,125.57L514.84,124.52L518.27,130.98L518.45,130.27L521.16,134.72L521.34,134.56L521.52,134.14L523.15,138.66L523.33,138.55L523.51,138.23L524.23,137.68L524.42,138.06L524.6,138.57L525.68,142.22L526.22,141.56L526.4,141.07L527.31,142.94L527.49,143.43L528.21,141.77L528.39,142L528.57,142.67L528.93,142L529.29,142.86L529.47,143.39L530.38,145.54L530.56,145.33L530.74,145.49L531.46,144.64L531.64,145.51L531.82,145.24L532,145.8L532.19,146.29L533.45,147.96L533.63,148.29L534.35,149.21L534.53,148.63L534.72,148.41L535.26,150.26L535.62,149.89L535.8,149.64L536.7,148.28L536.88,147.7L538.15,150.64L538.33,150.51L538.69,148.97L539.05,149.74L539.23,150.2L540.32,149.82L540.5,150.06L540.86,150.51L541.04,150.98L541.22,151.78L541.58,150.74L541.76,150.61L541.94,150.48L542.12,151.45L542.31,152.3L542.67,151.43L542.85,151.27L544.11,153.38L544.29,152.96L544.47,152.39L544.84,151.65L545.2,152.07L545.38,152.53L547.18,155.67L547.37,155.48L547.91,152.9L548.45,153.21L548.63,153.12L548.99,155.17L549.53,154.36L549.71,154.98L549.89,154.99L550.08,154.05L550.44,155.76L550.8,154.92L550.98,154.83L551.16,154.49L551.52,155.12L551.7,155.47L553.15,153.93L553.33,154.72L553.69,155.28L553.87,154.79L554.05,154.34L555.32,156.56L555.5,156.54L555.68,155.86L556.22,156.37L556.4,156.67L556.94,157.25L557.12,156.87L557.3,156.59L557.67,155.82L558.03,156.68L558.21,157.39L558.39,157.89L558.75,157.22L558.93,156.43L559.11,156.39L559.29,157.24L560.2,157.38L560.38,157.41L560.74,158.31L561.28,158.04L561.46,157.56L562.18,157.85L562.36,158.03L562.91,157.12L563.09,157.83L563.27,158.8L564.53,156.74L564.71,157.17L565.44,158.71L565.62,157.76L566.16,156.05L566.34,156.82L566.52,157.75L566.7,157.9L566.88,157.59L567.06,158.75L567.24,159.75L567.79,159.57L567.97,159.23L568.51,159.07L568.69,159.56L569.77,160.54L569.95,160.12L570.5,158.95L570.68,159.51L570.86,159.85L571.58,159.95L571.76,159.92L572.3,160.38L572.48,159.58L573.75,160.37L573.93,161.53L574.47,161.54L574.65,162.21L575.92,160.22L576.1,160.41L576.28,161.07L576.64,163.33L577.18,163.15L577.36,162.81L577.9,164.03L578.09,164.5L578.81,163.21L578.99,162.83L579.17,162.31L579.53,163.5L579.71,163.4L580.98,165.62L581.16,165.19L581.34,164.9L581.88,164.7L582.24,165.42L582.42,165.06L582.78,165.15L582.96,166.12L583.51,167.45L583.69,166.72L583.87,166.38L584.41,168.89L584.95,168.24L585.13,167.94L585.31,167.6L585.68,168.35L585.86,168.92L587.48,169.03L587.66,169.74L588.93,172.19L589.29,171.78L589.47,171.37L589.83,172.27L590.01,173.06L590.37,172.59L591.1,174.02L591.28,174.66L591.82,174.11L592,174.29L592.18,175.19L592.9,175.52L593.08,176.29L594.53,179.4L594.71,180L594.89,180.41L595.25,179.59L595.43,179.45L596.34,182.03L596.52,181.79L596.7,181.84L597.6,183.04L597.78,183.83L598.14,186.14L598.69,185.26L598.87,184.94L599.23,186.07L599.41,187.75L600.49,190.79L600.67,190.76L603.2,196.31L603.57,195.84L603.75,196.1L607.72,207.3L607.9,206.61L608.08,206.47L608.26,207.4L612.42,219.11L612.6,218.65L612.78,218.83L613.14,218.56L614.05,220.82L614.23,221.23L615.49,218.96L615.67,219.4L615.85,220.51L616.21,219.33L616.4,218.49L617.66,215.69L617.84,215.89L618.38,214.16L618.56,213.45L618.93,212.49L619.11,211.6L622,197.59L622.18,196.95L623.62,186.92L623.8,185.51L626.33,162.23L626.52,161.52L630.13,132.87L630.31,132.66L630.67,132L630.85,130.09L632.12,121.54L632.3,121.47L636.09,109.01L636.27,109.31L637.18,109.55L637.36,109.77L637.72,110.64L637.9,110.17L638.08,109.8L638.62,111.34L638.98,110.71L639.16,109.9L639.71,110.12L639.89,109.69L640.07,109.7L642.06,113.91L642.24,114.3L642.78,117.21L642.96,116.74L643.14,115.39L643.32,115.52L643.5,116.71L646.75,126.57L646.94,126.79L647.66,127.81L647.84,128.47L649.1,129.87L649.28,130.66L650.37,133.21L650.55,133.52L651.09,134.94L651.27,135.44L652.36,137.8L652.54,137.94L653.8,143.12L653.98,142.77L654.16,142L654.71,141.83L654.89,143.34L655.25,143.65L655.43,144.88L655.97,144.58L656.33,145.36L656.51,145.15L656.87,144.97L657.05,145.36L657.24,146.23L657.42,147.36L657.96,146.9L658.14,146.14L659.58,151.81L659.77,150.59L660.13,149.06L660.49,150.01L660.67,150.16L662.11,153.55L662.3,152.28L662.48,151.99L662.66,152.87L662.84,153.8L663.56,154.42L663.74,154.8L664.28,155.67L664.83,155.16L665.01,155.09L667.17,158.69L667.36,158.72L667.72,157.9L668.26,158.31L668.44,159.03L669.34,161.14L669.52,159.69L672.42,162.45L672.6,162.32L672.96,163.9L673.32,162.97L673.5,162.91L674.04,164.07L674.22,163.8L674.4,163.22L676.75,167.94L676.93,167.14L677.29,167.09L677.47,167.29L677.66,167.62L678.92,169.68L679.1,169.45L680,168.19L680.19,168.55L680.37,168.72L680.55,169.94L681.45,172.2L681.63,171.74L681.81,171.63L682.17,171.49L682.35,172.1L682.53,172.55L682.9,171.36L683.08,171.75L683.26,172.62L684.34,173.95L684.52,173.7L684.7,173.53L684.88,174.5L686.87,178.5L687.05,178.19L687.23,177.47L687.59,177.97L687.78,179.05L688.32,178.46L688.68,179.87L688.86,179.75L689.04,179.38L689.58,179.68L689.76,180.74L691.21,183.3L691.39,183.2L692.47,184.42L692.65,184.63L693.38,186.3L693.56,187.15L694.28,189.09L694.46,189.01L694.64,188.61L695,189.93L695.37,189.06L695.55,189.24L696.81,191.95L696.99,191.36L698.08,193.81L698.26,195.02L698.44,194.81L698.8,195.29L698.98,195.69L699.34,195.07L699.52,195.51L699.7,195.95L700.79,197.48L700.97,197.32L701.15,196.88L701.51,196.71L701.69,197.24L701.87,198.15L702.77,199.73L702.95,198.92L703.32,198.18L703.5,198.96L703.68,199.66L704.22,198.01L704.4,198.99L704.76,198.12L705.12,199.01L705.3,200.32L705.48,200.82L705.85,200.15L706.03,199.99L706.39,199.59L706.57,199.15L707.11,198.4L707.29,199.29L707.47,199.57L707.65,198.71L707.83,197.7L708.74,197.11L708.92,196.47L710,192.37L710.36,193.24L710.54,193.19L710.73,193.78L710.91,193.51L711.09,192.25L712.53,188.34L712.71,188.01L713.62,182.44L713.8,181.45L713.98,181.78L714.34,181.13L714.52,181.38L714.7,181.22L717.23,170.65L717.41,169.92L719.22,159.12L719.4,158.31L721.21,150.83L721.39,150.06L721.57,150.26L721.75,149.81L721.93,148.8L723.37,141.85L723.56,141.16L725.54,133.43L725.72,133.18L726.09,133.62L726.27,133.29L726.45,132.86L728.07,127.95L728.25,127.8L728.62,128.79L729.16,128.23L729.34,127.33L729.7,125.28L730.06,126.64L730.24,127.38L730.78,125.9L730.96,126.84L731.15,126.78L731.87,124.98L732.23,125.97L732.41,126.04L732.95,126.48L733.13,125.77L733.31,125.28L734.4,125.42L734.58,126.68L734.94,126.24L735.12,125.47L735.66,124.54L735.84,124.98L736.02,125.75L736.57,128.08L736.93,127.47L737.11,127.04L737.65,127.55L737.83,128.53L738.92,129.68L739.28,129.25L739.46,128.57L739.64,128.1L739.82,128.51L740,129.58" style="vector-effect: non-scaling-stroke; fill: none; stroke: rgb(245, 133, 24); stroke-opacity: 1; stroke-width: 1px; opacity: 1;"/></g><g class="points"/><g class="text"/></g><g class="trace scatter trace240ba7" style="stroke-miterlimit: 2; opacity: 1;"><g class="fills"/><g class="errorbars"/><g class="lines"><path class="js-line" d="M0,152.96L5.24,161.51L5.42,161.76L12.65,170.52L12.83,170.72L24.4,185.32L24.58,185.59L31.44,196.79L31.62,197.11L40.48,214.89L40.66,215.27L49.88,233.56L50.06,233.83L53.31,237.24L53.49,237.33L55.48,237.45L55.66,237.37L57.47,235.57L57.65,235.28L59.63,230.59L59.81,230.01L61.98,220.98L62.16,220.04L65.24,199.5L65.42,198.03L70.11,152.86L70.3,151L75.17,108.24L75.36,107.15L77.7,97.29L77.89,96.88L79.33,95.31L79.51,95.32L80.6,96.24L80.78,96.53L82.58,101.16L82.76,101.77L85.84,114.46L86.02,115.28L93.25,145.09L93.43,145.68L97.94,158.05L98.12,158.46L104.45,170.15L104.63,170.43L113.85,183.39L114.03,183.63L131.74,206.98L131.92,207.16L136.25,210.43L136.43,210.51L139.33,210.83L139.51,210.79L141.86,209.41L142.04,209.23L144.57,205.6L144.75,205.25L147.64,197.9L147.82,197.33L151.43,183.08L151.61,182.24L157.76,149.73L157.94,148.76L162.82,126.64L163,126.04L165.89,119.03L166.07,118.76L168.24,117L168.42,116.97L170.23,117.5L170.41,117.63L172.94,120.54L173.12,120.81L178.9,131.17L179.08,131.5L185.05,140.91L185.23,141.14L190.29,146.46L190.47,146.61L195.89,150.19L196.07,150.28L203.48,153.16L203.66,153.22L235.64,162.14L235.82,162.22L244.5,166.86L244.68,166.98L250.82,171.61L251,171.76L258.05,179.01L258.23,179.22L264.74,188.32L264.92,188.61L271.06,199.88L271.24,200.25L278.11,216.4L278.29,216.87L294.01,258.61L294.19,258.88L296.36,260.86L296.54,260.9L297.99,260.42L298.17,260.24L299.61,257.76L299.79,257.31L301.6,250.7L301.78,249.82L304.13,234.19L304.31,232.65L307.38,199.02L307.57,196.63L316.06,84.65L316.24,83.43L318.05,76.11L318.23,75.85L319.13,75.81L319.31,76.03L320.58,79.55L320.76,80.3L323.11,94.1L323.29,95.38L332.14,155.41L332.32,156.31L336.66,174.02L336.84,174.63L341.9,189L342.08,189.45L349.13,204.76L349.31,205.11L355.63,215.82L355.81,216.06L359.79,220.01L359.97,220.11L362.32,220.56L362.5,220.52L364.49,219.31L364.67,219.13L367.02,215.29L367.2,214.89L369.91,206.6L370.09,205.9L373.34,190.03L373.52,188.98L378.76,153.43L378.95,152.13L384,120.98L384.19,120.16L386.9,111.42L387.08,111.07L388.88,109.16L389.06,109.12L390.51,109.65L390.69,109.81L392.86,113.19L393.04,113.57L397.2,124.32L397.38,124.83L404.61,142.76L404.79,143.12L409.85,151.42L410.03,151.66L415.45,157.69L415.63,157.86L426.29,166.36L426.47,166.49L439.12,177.22L439.3,177.4L447.79,186.93L447.98,187.15L459.54,203.11L459.72,203.37L467.49,212.91L467.67,213.07L470.93,215.03L471.11,215.08L473.64,214.9L473.82,214.82L475.99,213L476.17,212.77L478.7,208.19L478.88,207.76L481.77,198.74L481.95,198.05L485.56,181L485.74,180L496.59,121.03L496.77,120.45L499.3,114.86L499.48,114.64L501.28,113.6L501.47,113.61L503.27,114.66L503.45,114.85L505.98,118.74L506.16,119.09L519.17,144.3L519.36,144.54L524.42,150.07L524.6,150.23L530.2,154.26L530.38,154.36L538.51,158.45L538.69,158.53L553.69,166L553.87,166.11L562.18,172.06L562.36,172.21L569.41,179.06L569.59,179.26L577.54,189.63L577.72,189.9L584.95,202.07L585.13,202.4L600.67,230.95L600.85,231.16L603.75,233.25L603.93,233.3L605.91,232.84L606.1,232.71L607.9,230.41L608.08,230.08L610.43,223.71L610.61,223.05L613.32,210.08L613.5,209L616.94,183.69L617.12,182.13L625.97,108.38L626.15,107.49L628.5,99.93L628.68,99.65L630.13,98.91L630.31,98.99L631.76,100.85L631.94,101.22L634.29,108.07L634.47,108.71L645.67,148.85L645.85,149.31L650.55,159.36L650.73,159.69L657.05,169.15L657.24,169.39L688.68,208.4L688.86,208.56L692.65,210.67L692.84,210.71L695.55,210.42L695.73,210.33L698.08,208.35L698.26,208.12L700.79,203.72L700.97,203.31L704.04,194.35L704.22,193.71L708.38,175.43L708.56,174.51L718.5,125.81L718.68,125.23L721.57,118.74L721.75,118.5L723.74,117.1L723.92,117.07L725.9,117.8L726.09,117.94L728.8,121.3L728.98,121.58L740,140.23" style="vector-effect: non-scaling-stroke; fill: none; stroke: rgb(228, 87, 86); stroke-opacity: 1; stroke-width: 1px; opacity: 1; stroke-dasharray: 9px, 9px;"/></g><g class="points"/><g class="text"/></g><g class="trace scatter trace7364db" style="stroke-miterlimit: 2; opacity: 1;"><g class="fills"/><g class="errorbars"/><g class="lines"><path class="js-line" d="M0,152.96L1.08,135.82L1.26,136.31L1.45,137.13L2.35,134.58L2.53,136.06L3.61,140.44L3.79,139.62L3.98,139.12L5.6,144.42L5.78,142.87L5.96,142.15L6.14,143.61L6.32,145.4L6.69,145.8L6.87,145.19L7.05,144.32L8.31,150.04L8.49,151.01L9.04,148.22L9.22,150.31L10.3,151.93L10.48,153.47L11.2,158.88L11.57,157.77L11.75,157.72L12.83,159.81L13.01,159.7L13.19,158.83L13.91,158.91L14.1,159.3L15.36,165.38L15.54,165.01L15.72,163.36L15.9,164.61L16.08,167.39L16.26,167.45L16.44,166.53L16.63,165.43L17.17,166.4L17.35,166.29L20.24,177.67L20.42,175.12L20.78,177.96L20.96,179.12L21.32,177.35L21.68,178.84L21.87,178.84L22.05,179.33L22.23,182.14L22.41,184.31L22.95,183.4L23.13,183.61L24.21,188.29L24.4,186.9L24.58,185.79L24.76,187.17L24.94,189.14L26.2,193.04L26.38,192.2L26.56,191.09L28.01,198.1L28.19,196.56L28.37,194.72L28.73,195.6L28.91,197.9L30.18,203.47L30.36,203.73L30.54,203.04L30.9,204.2L31.08,203.7L31.26,203.77L32.53,207.59L32.71,208.37L33.61,206.76L33.79,207.6L35.6,217.8L35.78,217.27L35.96,216.36L36.5,217.17L36.68,217.01L36.86,217.3L37.05,219.09L37.41,219.14L37.59,220.74L37.95,220.4L38.13,221.42L38.67,223.74L38.85,225.06L40.12,230.36L40.3,232.33L40.84,235.22L41.02,237.13L41.56,236.69L42.29,240.59L42.47,239.34L42.65,238.64L43.01,239.88L43.19,241.01L44.09,244.85L44.27,244.69L44.45,244.42L46.08,251.42L46.26,254.07L47.35,259.87L47.53,259.64L48.25,262.44L48.43,262.32L48.61,260.7L49.51,267.15L49.69,269.5L50.06,272.29L50.24,271.61L50.42,268.91L50.6,268.8L50.78,270.71L53.49,284.85L53.85,283.36L54.03,282.78L56.02,292.93L56.2,292.38L56.56,294L56.92,293.01L57.1,293.15L57.83,295.71L58.01,295.15L58.19,294.3L58.37,293.38L58.55,294.55L58.73,296.17L59.09,298.66L59.63,297.63L59.81,298.57L60,298.95L60.18,297.92L60.36,298.17L60.54,300.37L60.9,299.31L61.08,300.21L61.26,301.13L61.62,299.7L61.98,301.29L62.16,301.52L62.53,304L62.89,302.83L63.07,302.48L63.25,302.5L63.43,301.21L63.79,299.72L63.97,298.22L65.24,293.39L65.42,292.66L70.3,245.97L70.48,242.91L72.64,214.35L72.83,209.93L78.97,112.16L79.15,111.25L82.58,78.2L82.76,78.66L83.31,82.2L83.49,78.92L84.57,74.27L84.75,75.43L84.93,75.82L85.11,75.15L85.29,72.71L86.38,67.67L86.56,68.12L86.74,69.14L86.92,69.59L87.1,68.25L87.28,68.38L88.55,75.36L88.73,74.7L89.63,79.81L89.99,78.55L90.17,77.82L90.35,77.12L90.72,78.67L90.9,80.15L92.52,87.67L93.06,87.03L93.25,87.67L94.87,94.98L95.05,94.78L95.23,94.67L95.96,97.62L96.14,99.43L97.04,106.94L97.4,105.45L97.58,105.28L97.94,106.92L98.12,108.61L101.56,124.19L101.74,123.95L101.92,124.11L102.1,125.41L103.18,132.85L103.55,132.09L103.73,131.85L104.99,139.76L105.17,139.3L105.35,138.74L106.8,147L106.98,146.6L107.16,145.74L108.24,154.96L108.42,154.6L108.61,152.93L109.15,151.52L109.33,152.82L109.51,155.95L110.59,158.32L110.77,158.73L112.4,166.07L112.58,164.89L112.76,164.66L113.3,170.28L113.67,168.55L113.85,168.07L115.11,175.7L115.29,175.58L115.47,174.63L116.74,181.06L116.92,180.6L117.1,180.94L117.28,182.01L117.64,180.66L117.82,179.99L118.91,185.59L119.09,185.29L119.27,183.99L119.45,183.85L119.63,184.66L119.81,185.73L122.88,197.93L123.06,197.32L123.24,197L123.42,197.27L123.6,199.12L125.23,205.3L125.41,206L125.77,208.51L126.32,207.72L126.5,209.17L126.86,208.6L127.04,210.48L127.22,210.31L127.4,208.41L127.58,207.35L127.76,209.29L127.94,210.36L129.03,216.49L129.39,216.34L129.57,216.44L130.65,218.9L130.83,219.74L131.19,217.81L131.37,219.25L131.56,221.48L132.64,219.6L132.82,220.28L133.72,225.28L134.09,223.78L134.27,223.9L135.35,228.03L135.53,227.6L135.71,226.04L135.89,225.63L136.07,226.59L136.25,227.89L137.7,234.51L137.88,233.88L138.78,233.45L138.96,234.75L139.87,236.19L140.05,236.03L140.23,235.28L140.41,235.78L140.59,238.05L141.68,239.42L141.86,238.02L142.04,238.24L142.22,237.92L142.4,236.94L143.3,240.6L143.48,239.67L143.84,236.6L144.39,237.84L144.57,238.32L144.93,237.53L145.29,238.29L145.47,237.77L146.55,239.21L146.74,239.44L147.46,237.4L147.64,236.44L148,235.52L148.18,234.26L148.36,233.7L148.54,234.81L148.72,235.63L148.9,236.48L149.26,235.63L149.45,233.97L150.71,227.49L151.07,228.31L151.25,229.42L151.61,226.74L151.79,223.95L151.98,222.09L152.34,224.36L152.52,224.21L152.7,224.09L152.88,222.04L155.05,213.76L155.23,210.82L161.01,170.82L161.19,170.96L161.37,171.99L161.91,167.86L162.1,165.92L165.35,142.41L165.53,143.09L166.07,138.03L166.25,136.29L166.61,136.19L166.79,134.61L167.16,133.45L167.34,130.95L168.24,126.09L168.42,126.17L168.6,126.02L170.77,116.89L170.95,116.96L171.13,117.6L172.03,111.39L172.21,111.49L172.4,112.89L172.76,113.19L172.94,112.61L173.12,112.01L173.3,112.63L173.48,111.58L173.66,110.24L175.29,104.51L175.47,104.76L175.65,104.49L176.55,108.52L176.73,107.46L176.91,107.07L178.18,103.66L178.36,104.22L179.08,108.62L179.62,107.65L179.8,106.97L180.35,110L180.71,108.86L180.89,108.54L182.33,112.83L182.52,112.55L183.06,109.39L183.24,108.54L183.42,108.02L183.6,108.53L183.78,110.4L184.86,114.99L185.05,114.3L185.41,110.87L185.77,111.37L185.95,113.04L186.49,116.84L186.67,114.39L186.85,113.86L187.76,117.52L187.94,117.92L188.3,118.72L188.48,119.62L189.02,122.18L189.38,120.94L189.56,121.73L189.74,121.35L189.92,122.18L190.11,124.21L190.47,123.7L190.65,121.77L190.83,119.77L191.37,121.19L191.55,121.58L192.82,126.25L193,125.3L193.18,125.1L193.36,125.46L193.54,125.97L194.44,128.02L194.62,127.75L194.8,127.64L195.16,129.42L195.35,128.84L195.53,128.45L195.71,128.13L195.89,128.98L196.07,131.1L196.43,130.58L196.61,132.07L196.79,133.98L197.51,129.78L197.69,131.24L197.88,131.19L198.6,129.67L198.78,129.95L198.96,130.79L199.5,132.96L199.68,134.11L200.41,140.32L200.59,138.76L200.77,137.41L201.49,135.36L201.67,137.4L202.03,139.51L202.57,139.24L202.75,139.27L203.66,140.64L203.84,139.93L204.02,137.7L204.56,136.75L204.74,137.95L205.28,139.2L205.47,139.94L206.37,141.89L206.55,141.3L207.09,140.68L207.45,143.33L207.63,142.66L208.18,140.84L208.36,142.35L208.54,143.89L208.72,144.13L208.9,143.26L209.08,143.18L209.62,146.02L210.16,145.9L210.34,146.19L210.53,146.31L210.71,145.06L210.89,143.55L211.25,146.13L211.43,146.1L211.61,145.82L211.79,147.12L212.69,148.06L212.87,148.17L213.24,146.49L213.42,147.92L213.6,148.9L214.86,145.3L215.04,145.97L215.22,147.3L215.77,146.73L215.95,146.65L216.31,145.41L216.49,147.77L217.57,150.92L217.75,150.8L218.11,150.08L218.48,150.88L218.66,150.88L219.02,151.75L219.2,151.12L219.38,149.57L219.74,149.44L219.92,148.34L221.01,152.44L221.19,152.69L221.73,156.7L222.09,154.05L222.27,153.29L222.63,151.38L223.17,152.05L223.36,152.24L224.26,155.46L224.44,154.86L224.62,154.98L224.8,156.27L225.16,154.76L225.34,155.95L225.52,154.71L225.89,153.14L226.25,154.19L226.43,154.69L226.97,157.17L227.15,155.66L227.33,154.7L228.05,154.54L228.23,155.19L229.32,156.97L229.5,155.64L229.68,155.54L229.86,156.43L230.04,156.21L230.22,156.77L230.4,158.56L230.95,160.07L231.13,159.31L231.31,157.52L231.67,158.2L232.03,155.58L232.21,156.63L232.39,158L233.11,160.51L233.29,159.83L233.47,158.52L233.84,157.07L234.02,157.94L234.2,158.4L234.74,158.13L235.64,161.42L235.82,160.13L236,160.24L236.19,159.66L236.37,158.97L237.81,163.54L237.99,162.9L238.17,162.16L238.9,161.68L239.08,162.09L239.26,162.34L239.44,162.45L239.62,161.47L239.8,161.19L239.98,162.42L240.16,162.02L240.34,162.83L240.52,163.75L241.06,161.6L241.25,163.03L241.43,164.15L241.61,163.96L241.79,164.43L241.97,165.7L242.69,163.58L242.87,164.04L243.05,165.23L243.23,166.45L243.59,164.04L243.78,164.34L244.32,165.97L244.5,165.23L244.68,164.48L245.22,167.12L245.4,165.62L245.58,163.65L245.76,162.18L246.12,164.57L246.31,164.47L246.49,164.64L246.67,167.27L247.93,170.53L248.11,169.39L248.29,168.63L248.65,169.83L248.84,170.5L249.56,168.46L249.74,169.02L249.92,170.61L250.64,170.45L250.82,170.77L251,170.87L251.18,170.48L251.37,169.44L251.55,167.76L251.91,169.93L252.09,170.03L252.45,168.73L252.63,170.38L252.81,171.06L252.99,171.02L253.17,171.99L253.71,173.75L253.89,173.12L254.08,172.35L254.8,175.54L254.98,174.51L255.16,172.34L255.52,170.67L255.7,171.65L255.88,173.23L256.97,175.85L257.15,174.25L258.95,182.93L259.14,181.41L260.04,184.52L260.22,184.15L260.4,182.24L261.3,179.78L261.48,180.6L262.03,186.9L262.39,186.51L262.57,186.16L263.11,185.33L263.29,185.98L263.47,186.45L263.83,187.11L264.01,187.46L264.38,188.42L264.56,188.32L264.74,187.13L264.92,185.9L265.1,188.22L265.28,190.14L265.46,189.76L266,190.2L266.18,190.66L266.36,191.47L266.73,190.31L266.91,189.88L268.17,196.32L268.35,195.92L268.53,197.07L268.71,197.92L269.26,197.43L269.44,196.64L269.98,196.53L270.16,197.53L270.7,199.36L270.88,198.79L271.06,197.51L271.79,202.31L272.15,201.76L272.33,201.27L272.51,199.79L273.05,201.03L273.23,200.98L273.41,201.1L273.59,202.15L274.32,209.2L274.68,208.17L274.86,208.38L275.04,208.2L275.22,209.35L276.12,213.34L276.3,213.15L276.48,212.79L276.66,212.44L276.84,213.05L277.03,214.43L277.57,216.33L277.75,215.57L277.93,214.96L279.01,221.89L279.19,219.2L279.37,218.48L279.74,218.82L279.92,220.01L281.36,224.41L281.54,224.2L282.63,230.85L282.81,230.7L282.99,230.46L285.16,241.94L285.34,240.36L285.52,240.48L285.7,241.56L286.78,244.54L286.96,246.41L287.69,248.23L287.87,247.21L288.05,246.21L288.77,249.52L288.95,250.56L289.13,250.17L289.31,250.31L289.49,251.89L290.76,253.52L290.94,253.25L291.3,252.75L291.48,254.32L291.66,257.77L292.39,260.43L292.57,259.5L292.75,258.74L293.29,260.11L293.47,261.37L294.74,268.5L294.92,267.23L295.1,265.17L295.28,264.51L295.46,265.69L295.64,266.34L296.72,263.96L296.9,263.77L297.45,264.1L297.63,265.23L298.71,261.95L299.07,262.53L299.25,262.55L299.61,261.87L299.79,261.28L301.06,255.71L301.24,255.47L301.78,253.69L301.96,251.93L302.32,249.33L302.51,247.66L303.41,245.33L303.59,246.1L303.95,242.87L304.13,240.33L305.58,229.4L305.76,226.61L307.2,207.74L307.38,207.05L311.18,152.18L311.36,146.12L312.99,120.46L313.17,116.98L316.06,84.52L316.24,84.33L316.6,83.73L316.78,82.19L317.68,77.74L317.87,78.33L319.13,74.92L319.31,75.02L319.49,77.32L320.76,84.68L320.94,83.79L321.12,83.41L322.2,89.68L322.38,89.61L322.93,92.53L323.11,94.73L327.8,124.98L327.99,127.39L330.15,139.37L330.33,139.3L331.6,147.05L331.78,146.95L333.41,160.25L333.59,162.38L334.13,162.58L334.31,164.1L334.67,164.08L334.85,165.34L335.94,167.94L336.12,169.12L336.66,170.39L336.84,169.46L337.2,172.58L337.38,174.99L337.74,174.24L338.29,177.17L338.47,179.54L338.83,178.57L339.01,179.91L339.19,180.27L339.73,180.68L339.91,179.86L340.09,181.43L340.82,187.39L341.18,187.09L341.36,187.52L341.9,192.21L342.26,190.65L342.44,189.61L343.71,194.08L343.89,193.62L344.07,193.09L344.97,199.24L345.15,198.57L345.33,196.72L345.69,193.68L346.24,194.84L346.42,196.91L347.86,202.97L348.04,204.72L348.59,205.21L348.95,203.16L349.13,203.83L349.85,206.28L350.03,205.56L350.21,203.91L350.75,202.68L350.94,204.66L352.02,212.45L352.38,210.87L352.56,210.53L352.74,210.36L352.92,212.31L353.47,211.52L354.01,215.1L354.19,214.17L354.37,213.15L354.73,214.06L354.91,214.53L355.09,214.36L355.27,215.72L356.18,217.9L356.36,217.14L357.08,219.23L357.26,218.96L357.44,218.09L357.98,215.16L358.16,215.84L358.34,217.41L358.89,219.72L359.07,218.6L359.25,217.36L360.69,222.53L361.05,222.05L361.24,221.48L361.96,219.8L362.14,220.52L362.32,220.66L363.22,222.52L363.4,221.93L363.58,221.98L363.95,219.74L364.13,221.21L364.31,222.12L365.21,217.67L365.57,218.06L365.75,217.64L366.11,216.37L366.66,216.59L366.84,216.38L367.02,217.02L367.2,215.8L367.38,214.17L367.56,213.16L367.92,214.54L368.1,214.78L368.64,210.73L369.01,212.58L369.19,213.56L369.37,213.82L369.55,212.65L370.99,203.18L371.17,201.6L374.43,184.88L374.61,185.48L374.79,185.54L376.05,174.5L376.23,175.1L376.78,170.05L376.96,168.55L377.68,162.28L378.04,163.5L378.22,162.74L379.49,152.02L379.67,152.17L381.47,138.38L381.66,137.52L382.92,128.73L383.1,128.28L384.91,118.62L385.09,118.38L386.17,112.96L386.53,113.23L386.72,113.23L386.9,113.45L387.08,112.94L387.26,111.98L387.62,110.13L388.16,110.37L388.34,110.81L389.79,106.73L389.97,108.95L390.51,110.66L390.69,109.76L390.87,107.94L391.23,109.58L391.41,110.54L391.96,113.68L392.14,113.66L392.32,111.41L392.5,111.45L392.68,112.63L393.58,114.97L393.76,117.07L394.31,116.17L395.21,120.65L395.39,119.68L395.57,120.84L395.93,118.49L396.11,119.07L396.29,118.84L396.47,119.73L396.65,121.12L397.2,123.97L397.74,123.51L397.92,122.3L398.1,121.7L398.28,122.85L398.46,124.74L399.73,131.3L399.91,128.83L400.45,126.35L400.63,128.08L400.81,128.75L402.8,138.85L402.98,138.56L403.16,138.13L403.34,139.72L403.52,140.43L403.7,138.2L403.88,137.69L405.15,143.02L405.33,143.12L405.69,142.15L405.87,141.54L406.23,143.57L406.59,142.82L406.77,142.45L407.68,146.38L407.86,146.26L408.04,146.03L408.4,144.57L408.58,145.17L408.76,147.68L408.94,147.21L409.12,148.36L409.3,148.76L409.48,148.74L409.67,149.63L410.03,150.59L410.21,149.82L410.39,149.5L411.83,153.61L412.01,153.86L412.56,153.13L412.74,153.29L412.92,154.06L413.28,157.04L413.64,156.62L413.82,155.45L414,154.04L414.36,155.69L414.54,155.9L414.73,154.98L414.91,155.24L415.09,157.25L415.45,156.61L415.99,158.84L416.17,158.47L416.35,157.74L416.71,158.25L417.07,157.06L417.26,157.25L417.44,157.34L418.16,160.91L418.34,160.57L418.52,158.53L418.88,158.92L419.06,157.51L420.33,162.58L420.51,161.86L420.69,160.18L421.95,162.88L422.13,162.13L422.32,160.52L423.22,166.54L423.4,165.42L423.58,164.13L423.94,162.7L424.3,163.97L424.48,163.51L424.66,162.87L425.03,163.74L425.21,163.1L425.39,164.2L426.11,165.93L426.29,165.66L426.47,166.27L426.83,168.86L427.19,167.63L427.37,165.8L427.56,163.37L428.1,165.16L428.28,166.78L428.82,167.99L429,168.52L429.36,166.16L429.9,167.31L430.09,167.73L430.81,170.72L430.99,169.44L431.17,168.48L431.53,168.63L431.71,169.16L432.07,168.96L433.34,172.23L433.52,172.08L434.06,171.63L434.42,173.54L434.6,173.22L434.78,173.61L434.96,172.77L435.15,171.2L435.87,172.86L436.05,172.59L436.23,169.9L436.41,168.68L436.59,170.86L436.77,172.91L438.04,178.02L438.22,177.63L438.4,178.04L438.76,179.24L438.94,179.1L439.12,178.11L439.3,178.4L439.48,180.46L439.66,180.98L439.84,179.42L440.02,178.41L440.57,178.08L440.93,180.72L441.29,179.8L441.47,179.04L441.83,180.83L442.01,178.61L442.37,180.47L442.55,179.72L442.74,179.49L442.92,180.34L443.1,180.17L443.28,181.35L443.82,184.16L444.18,182.78L444.36,183.42L444.72,183.63L444.9,184.48L445.08,184.71L445.26,183.21L445.63,186.5L446.17,185.38L446.35,186.17L446.53,186.94L446.71,186.62L446.89,184.95L447.25,185.69L447.43,184.53L447.61,184.07L447.79,186.52L448.16,187.87L448.52,187.3L448.7,187.44L449.06,186.57L449.24,188.36L449.42,188.79L449.6,188.11L449.96,189.19L450.14,188.75L450.32,189.15L451.77,193.31L451.95,194.15L452.31,193.56L452.49,194.88L452.67,195L452.85,194.02L453.4,193.84L453.58,195.4L454.3,194.83L454.48,195.33L456.11,199.71L456.29,198.79L456.47,198.39L456.83,199.11L457.01,198.83L457.19,198.7L457.91,197.02L458.1,198.27L458.46,201.36L459,200.59L459.18,200.09L459.36,199.85L459.54,201.5L459.72,203.15L460.08,201.8L460.26,200.95L461.35,205.34L461.53,204.92L461.71,204.2L462.79,212.81L462.97,211.97L463.16,210.26L463.7,205.25L464.06,207.05L464.24,207.63L464.42,207.27L464.6,207.63L464.78,209.34L465.68,216.78L465.87,216.35L466.05,214.55L466.41,211.34L466.95,211.98L467.13,212.98L467.67,210.15L468.03,211.38L468.21,210.79L468.4,210.84L468.58,211.97L469.66,215.71L469.84,214.49L470.74,217.86L470.93,217.72L471.11,215.38L471.65,214.07L471.83,215.16L472.01,216.83L472.55,216.64L472.73,216.02L473.64,214.25L473.82,214.07L474,213.99L474.18,215.34L475.26,218.06L475.44,217.29L476.17,214.99L476.35,213.98L476.53,212.23L477.25,212.31L477.43,211.37L477.79,212.8L477.97,212.34L478.15,210.83L478.52,209.08L478.88,210.27L479.06,213.25L479.24,213.11L479.42,211.41L481.41,202.63L481.59,202.83L483.76,192.33L483.94,193.22L484.3,193.47L484.66,191.61L484.84,188.83L486.29,175.09L486.47,175.77L486.65,177.38L487.01,176.77L487.19,175.8L489.18,160L489.54,160.72L489.72,159.72L490.26,155.25L490.44,152.11L491.53,146.67L491.71,145.9L493.15,140.98L493.33,138.84L494.78,129.21L494.96,129.04L495.32,128.01L495.5,125.39L496.59,120.27L496.77,121.73L496.95,122.84L497.49,121.75L497.67,120.82L498.75,115.69L498.94,115.99L499.66,113.38L499.84,115.4L500.02,115.82L500.2,113.96L500.38,112.33L500.92,113.83L501.1,114.32L501.28,114.44L501.47,115.49L501.65,116.49L502.01,115.28L502.19,115.17L502.91,112.89L503.09,113.85L503.27,115.58L503.45,115.86L503.63,113.87L503.81,113.58L504,114.82L504.36,112.92L504.72,114.42L504.9,113.83L505.98,118.97L506.16,120.07L506.53,117.16L507.07,118.44L507.25,119.2L509.24,125.95L509.42,125.38L509.6,125.18L509.78,125.54L509.96,126.24L510.5,127.09L510.68,125.97L510.86,125.27L511.04,127.47L511.22,129.36L511.58,127.55L511.95,129.17L512.13,129.57L513.39,133.51L513.57,133.19L514.48,135.58L514.66,134.26L514.84,132.17L516.28,137.05L516.46,136.63L517.37,141.57L517.55,140.51L517.73,139.85L518.09,142.14L518.45,140.49L518.63,140.77L519.54,144.53L519.72,144.65L520.44,144.16L520.62,144.99L520.98,146.19L521.34,145.13L521.52,144.03L522.61,151.69L523.15,150.8L523.33,150.33L524.23,147.34L524.42,147.8L524.6,148.56L525.68,154.2L525.86,152.65L526.04,152.08L526.22,152.25L526.4,151.08L526.58,151.41L526.76,150.33L526.95,150.55L527.13,152.68L527.49,154.29L527.67,153.41L527.85,151.31L528.57,151.49L528.93,149.72L529.11,150.69L529.47,151.9L529.66,153.61L530.38,155.26L530.74,154.82L530.92,153.89L531.1,153.72L531.28,152.37L531.46,152.33L531.64,153.96L531.82,153.28L532,154.22L532.19,155.01L532.55,157.08L533.09,155.94L533.27,156.19L534.35,159.12L534.53,157.9L534.72,157.35L534.9,158.76L535.08,160.76L535.44,160.34L535.62,159.79L536.88,154.6L537.06,156.06L537.25,156.89L538.15,159.76L538.33,159.41L538.51,157.2L538.69,156.03L539.05,157.28L539.23,158.1L540.32,156.72L540.5,157.07L540.68,156.97L540.86,157.79L541.22,160.09L541.4,159.65L541.58,157.96L541.94,157.3L542.12,159.14L542.31,160.87L542.67,159.03L542.85,158.63L544.11,162.57L544.29,161.75L544.47,160.63L544.84,159.04L545.2,159.79L545.38,160.6L547.18,166.7L547.37,166.33L547.91,161.28L548.45,161.83L548.63,161.68L548.99,165.85L549.53,164.31L549.71,165.53L549.89,165.54L550.08,163.63L550.44,167.02L550.8,165.4L550.98,165.21L551.16,164.56L551.52,165.8L551.7,166.53L553.15,163.58L553.33,165.13L553.69,166.21L553.87,165.31L554.05,164.46L555.32,168.91L555.5,168.92L555.68,167.64L556.22,168.78L556.4,169.42L556.94,170.73L557.12,170.03L557.3,169.54L557.67,168.04L557.85,169.64L558.03,169.85L558.39,172.29L558.75,171.1L558.93,169.71L559.11,169.65L559.29,171.39L559.83,171.24L560.2,171.96L560.38,172.09L560.74,173.9L561.28,173.47L561.46,172.57L561.64,172.4L561.82,172.85L562,173.42L562.54,173.61L562.73,172.91L562.91,172.23L563.09,173.7L563.27,175.7L564.35,172.36L564.53,172.01L565.44,176.23L565.62,174.46L565.8,172.69L566.16,171.22L566.34,172.79L566.52,174.62L566.7,174.95L566.88,174.39L567.06,176.81L567.24,178.89L567.79,178.81L567.97,178.21L568.15,177.76L568.51,178.1L568.69,179.19L569.77,181.75L569.95,180.97L570.5,178.8L570.68,180.05L570.86,180.88L571.04,180.53L571.4,181.24L571.58,181.44L571.94,181.89L572.12,182.58L572.3,182.64L572.48,181.06L573.21,182.2L573.39,181.67L573.57,181.82L574.65,187.04L574.83,186.41L575.01,184.84L575.37,184.05L575.56,183.26L576.1,183.97L576.28,185.4L577.18,190.09L577.36,189.49L577.72,191.55L577.9,192.27L578.45,193.32L578.63,192.12L578.81,191.03L579.17,189.38L579.35,190.41L579.53,191.83L579.71,191.71L579.89,192.52L580.62,194.51L580.8,195.66L580.98,196.69L581.34,195.43L581.52,196.44L581.7,196.13L581.88,195.29L582.24,196.81L582.42,196.15L582.6,196.14L582.78,196.42L582.96,198.32L583.51,201.23L583.69,199.77L583.87,199.12L584.41,204.21L584.95,203.12L585.13,202.56L585.31,201.96L585.49,202.89L585.68,203.59L586.04,204.85L586.22,203.5L586.58,204.75L586.76,204.96L587.3,204.31L587.48,205.2L588.93,211.59L589.11,210.83L589.65,209.98L589.83,211.64L590.74,213.76L590.92,213.52L591.28,216.06L591.82,214.64L592,214.9L593.08,218.22L593.26,219.61L593.63,221.12L593.99,219.46L594.17,220.08L594.89,224.42L595.07,223.3L595.25,222.32L595.43,221.81L595.61,223.76L595.79,226.07L596.34,225.6L596.52,224.85L597.06,224.53L597.24,225.33L597.6,225.38L597.78,226.55L598.14,230.33L598.51,228.79L598.69,227.44L599.05,226.39L599.23,227.65L599.41,230.81L599.95,234.46L600.31,234.11L600.49,233.75L601.04,232.5L601.22,233.28L601.4,233.68L601.58,231.91L601.94,233.64L602.12,235.06L602.48,232.96L602.66,234.32L602.84,235.37L603.75,231.68L603.93,231.89L604.11,232.98L604.83,235.19L605.01,234.52L605.19,234.19L605.73,232.05L605.91,233.32L606.1,234.09L607,233.15L607.18,232.02L608.08,228.1L608.44,228.71L608.63,228.18L608.81,228.48L608.99,227.79L609.17,226.86L610.07,224.97L610.25,225.09L610.43,225.23L610.61,225.67L610.79,225.08L610.97,223.86L611.7,221.62L611.88,220.81L612.24,222.08L612.42,221.48L612.6,219.08L615.31,199.62L615.49,197.58L615.85,198.28L616.03,196.66L616.21,193.4L618.02,177.39L618.2,175.32L621.46,144.45L621.64,143.01L622.54,137.11L622.72,134.66L623.99,123.17L624.17,121.65L625.97,110.04L626.15,106.18L626.52,106.64L627.42,103.07L627.6,104.48L628.14,104.09L628.5,104.86L628.68,103.81L629.23,100.64L629.41,99.36L629.95,96.95L630.13,97.12L630.31,99.06L630.67,102.32L631.03,98.77L631.21,99.72L631.58,99.66L631.76,99.22L631.94,98.65L632.48,102.52L632.84,101.01L633.02,101.17L634.83,108.23L635.01,107.49L637.36,118.45L637.54,119.72L638.8,125.83L638.98,125.02L639.16,123.81L639.53,125.27L639.71,125.29L639.89,124.69L640.07,124.99L640.25,126.49L640.43,126.16L640.61,126.55L640.79,128.14L642.06,134.54L642.24,135.22L642.78,140.67L642.96,139.5L643.14,136.32L643.32,136.43L643.5,138.69L645.85,152.36L646.21,150.86L646.39,151.29L646.57,152.12L647.12,151.57L647.3,151.65L647.48,151.16L647.66,152.01L647.84,152.91L648.74,151.76L648.92,152.6L649.1,152.71L649.65,157.01L650.19,156.64L650.37,156.31L650.91,156.89L651.09,158.03L651.45,160.38L651.63,159.63L651.81,158.47L653.62,165.87L653.8,168.11L654.53,163.23L654.71,163.8L654.89,166.42L655.07,165.97L655.25,166.34L655.43,168.52L655.61,169.25L655.79,168.16L655.97,166.9L656.33,167.75L656.51,167.01L656.69,166.29L656.87,166.02L657.05,166.49L657.24,167.78L657.42,169.77L657.96,168.01L658.14,166.2L659.58,175.29L659.77,172.64L660.13,168.93L660.67,170.4L660.85,170.97L661.03,170.86L661.21,171.78L661.93,175.95L662.11,175.87L662.3,173.18L662.48,172.5L662.66,174.08L662.84,175.72L663.2,175.06L663.38,176.16L664.1,177.53L664.28,178.15L665.01,176.47L665.19,177.07L665.37,178.17L666.45,182.91L666.63,182.42L667.72,180.24L667.9,180.66L669.16,185.95L669.34,185.89L669.52,183.13L670.25,184.48L670.43,184.09L670.61,183.7L671.51,186.48L671.69,186.07L671.87,186.34L672.96,189.96L673.14,189.58L673.32,187.86L673.5,187.7L673.68,188.89L674.04,189.81L674.22,189.18L674.4,187.9L675.67,193.12L675.85,192.07L676.03,192.1L676.75,196.53L677.11,194.36L677.29,194.57L677.84,196.49L678.02,197.58L678.56,199.42L678.92,199.13L679.1,198.55L680,195.61L680.19,196.19L680.37,196.43L681.45,202.74L681.63,201.69L682.17,200.77L682.35,201.81L682.53,202.58L682.9,199.97L683.26,202.17L683.44,203.31L684.34,203.76L684.52,203.09L684.7,202.58L684.88,204.3L685.06,204.93L685.25,204.64L685.43,206.1L686.15,210.55L686.33,210.25L686.51,209.04L687.05,208.67L687.23,207.04L687.41,206.94L687.59,207.49L687.78,209.27L687.96,209.94L688.14,207.56L688.32,207.03L688.5,208.37L688.68,209.17L689.58,207.14L689.76,209L690.49,210.81L690.67,210.22L690.85,209.68L691.57,211.31L691.75,210.85L691.93,209.3L694.28,214.65L694.46,213.89L695,214.12L695.55,211.06L695.73,212.21L696.09,210.35L696.27,211.13L696.45,213.01L696.81,212.25L696.99,210.42L697.53,210.2L697.71,210.94L697.89,210.11L698.08,211.42L698.26,213.02L699.34,208.7L699.52,208.84L699.7,208.96L700.79,207.35L700.97,206.21L701.51,202.79L701.87,204.24L702.05,205.1L703.32,197.94L703.5,198.76L703.68,199.31L704.76,191.68L704.94,191.85L705.12,192.07L705.48,194.26L705.67,193.1L705.85,191.39L709.46,170.47L709.64,168.63L710,165.18L710.54,166.32L710.73,167.33L711.27,162.03L711.45,160.76L711.63,160.84L711.81,160.28L711.99,159.43L712.17,159.5L712.35,157.95L713.8,144.3L714.34,145.19L714.52,146.23L714.7,146.35L714.88,144.67L716.33,136.39L716.51,135.86L717.77,131.53L717.95,133.01L718.13,133.04L718.32,130.89L719.58,121.63L719.76,121.06L720.12,117.86L720.3,118.87L720.48,119.51L720.66,119.25L720.84,119.9L721.03,121.06L721.39,120.45L721.57,122.16L721.75,122.37L721.93,121.43L722.11,119.35L722.83,115.67L723.01,116.07L723.19,117.88L723.56,117.82L723.74,117.04L724.28,117.32L724.46,116.18L724.82,114.99L725,115.95L725.18,117.09L725.54,115.45L725.72,116.07L725.9,117.8L726.45,119.55L726.63,118.59L726.81,118.02L726.99,116.82L727.53,118.15L727.71,119.07L728.07,118.25L728.25,118.78L728.43,120.38L729.16,123.22L729.34,122.06L729.52,119.96L729.7,119.35L729.88,120.16L730.06,123.23L730.96,126.3L731.15,126.59L731.87,124.72L732.05,126.82L732.95,129.39L733.13,128.15L733.31,127.51L734.4,129.03L734.58,131.7L734.76,131.78L734.94,131.03L735.66,128.17L735.84,129.11L736.02,130.7L736.57,135.44L736.93,134.2L737.11,133.27L737.65,134.21L737.83,136L738.92,137.8L739.1,137.24L739.28,136.71L739.64,134.14L740,136.87" style="vector-effect: non-scaling-stroke; fill: none; stroke: rgb(228, 87, 86); stroke-opacity: 1; stroke-width: 1px; opacity: 1;"/></g><g class="points"/><g class="text"/></g></g></g><g class="overplot"/><path class="xlines-above crisp" d="M79,420.5H821M79,99.5H821" style="fill: none; stroke-width: 1px; stroke: rgb(0, 0, 0); stroke-opacity: 1;"/><path class="ylines-above crisp" d="M79.5,100V420M820.5,100V420" style="fill: none; stroke-width: 1px; stroke: rgb(0, 0, 0); stroke-opacity: 1;"/><g class="overlines-above"/><g class="xaxislayer-above"><path class="xtick ticks crisp" d="M0,421v5M0,99v-5" transform="translate(80,0)" style="stroke: rgb(68, 68, 68); stroke-opacity: 1; stroke-width: 1px;"/><path class="xtick ticks crisp" d="M0,421v5M0,99v-5" transform="translate(170.35,0)" style="stroke: rgb(68, 68, 68); stroke-opacity: 1; stroke-width: 1px;"/><path class="xtick ticks crisp" d="M0,421v5M0,99v-5" transform="translate(260.71000000000004,0)" style="stroke: rgb(68, 68, 68); stroke-opacity: 1; stroke-width: 1px;"/><path class="xtick ticks crisp" d="M0,421v5M0,99v-5" transform="translate(351.06,0)" style="stroke: rgb(68, 68, 68); stroke-opacity: 1; stroke-width: 1px;"/><path class="xtick ticks crisp" d="M0,421v5M0,99v-5" transform="translate(441.42,0)" style="stroke: rgb(68, 68, 68); stroke-opacity: 1; stroke-width: 1px;"/><path class="xtick ticks crisp" d="M0,421v5M0,99v-5" transform="translate(531.77,0)" style="stroke: rgb(68, 68, 68); stroke-opacity: 1; stroke-width: 1px;"/><path class="xtick ticks crisp" d="M0,421v5M0,99v-5" transform="translate(622.12,0)" style="stroke: rgb(68, 68, 68); stroke-opacity: 1; stroke-width: 1px;"/><path class="xtick ticks crisp" d="M0,421v5M0,99v-5" transform="translate(712.48,0)" style="stroke: rgb(68, 68, 68); stroke-opacity: 1; stroke-width: 1px;"/><path class="xtick ticks crisp" d="M0,421v5M0,99v-5" transform="translate(802.83,0)" style="stroke: rgb(68, 68, 68); stroke-opacity: 1; stroke-width: 1px;"/><g class="xtick"><text text-anchor="middle" x="0" y="440.4" transform="translate(80,0)" style="font-family: 'Open Sans', verdana, arial, sans-serif; font-size: 12px; fill: rgb(42, 63, 95); fill-opacity: 1; white-space: pre; opacity: 1;">0</text></g><g class="xtick"><text text-anchor="middle" x="0" y="440.4" style="font-family: 'Open Sans', verdana, arial, sans-serif; font-size: 12px; fill: rgb(42, 63, 95); fill-opacity: 1; white-space: pre; opacity: 1;" transform="translate(170.35,0)">500</text></g><g class="xtick"><text text-anchor="middle" x="0" y="440.4" style="font-family: 'Open Sans', verdana, arial, sans-serif; font-size: 12px; fill: rgb(42, 63, 95); fill-opacity: 1; white-space: pre; opacity: 1;" transform="translate(260.71000000000004,0)">1000</text></g><g class="xtick"><text text-anchor="middle" x="0" y="440.4" style="font-family: 'Open Sans', verdana, arial, sans-serif; font-size: 12px; fill: rgb(42, 63, 95); fill-opacity: 1; white-space: pre; opacity: 1;" transform="translate(351.06,0)">1500</text></g><g class="xtick"><text text-anchor="middle" x="0" y="440.4" style="font-family: 'Open Sans', verdana, arial, sans-serif; font-size: 12px; fill: rgb(42, 63, 95); fill-opacity: 1; white-space: pre; opacity: 1;" transform="translate(441.42,0)">2000</text></g><g class="xtick"><text text-anchor="middle" x="0" y="440.4" style="font-family: 'Open Sans', verdana, arial, sans-serif; font-size: 12px; fill: rgb(42, 63, 95); fill-opacity: 1; white-space: pre; opacity: 1;" transform="translate(531.77,0)">2500</text></g><g class="xtick"><text text-anchor="middle" x="0" y="440.4" style="font-family: 'Open Sans', verdana, arial, sans-serif; font-size: 12px; fill: rgb(42, 63, 95); fill-opacity: 1; white-space: pre; opacity: 1;" transform="translate(622.12,0)">3000</text></g><g class="xtick"><text text-anchor="middle" x="0" y="440.4" style="font-family: 'Open Sans', verdana, arial, sans-serif; font-size: 12px; fill: rgb(42, 63, 95); fill-opacity: 1; white-space: pre; opacity: 1;" transform="translate(712.48,0)">3500</text></g><g class="xtick"><text text-anchor="middle" x="0" y="440.4" style="font-family: 'Open Sans', verdana, arial, sans-serif; font-size: 12px; fill: rgb(42, 63, 95); fill-opacity: 1; white-space: pre; opacity: 1;" transform="translate(802.83,0)">4000</text></g></g><g class="yaxislayer-above"><path class="ytick ticks crisp" d="M79,0h-5M821,0h5" transform="translate(0,395.86)" style="stroke: rgb(68, 68, 68); stroke-opacity: 1; stroke-width: 1px;"/><path class="ytick ticks crisp" d="M79,0h-5M821,0h5" transform="translate(0,348.23)" style="stroke: rgb(68, 68, 68); stroke-opacity: 1; stroke-width: 1px;"/><path class="ytick ticks crisp" d="M79,0h-5M821,0h5" transform="translate(0,300.59000000000003)" style="stroke: rgb(68, 68, 68); stroke-opacity: 1; stroke-width: 1px;"/><path class="ytick ticks crisp" d="M79,0h-5M821,0h5" transform="translate(0,252.96)" style="stroke: rgb(68, 68, 68); stroke-opacity: 1; stroke-width: 1px;"/><path class="ytick ticks crisp" d="M79,0h-5M821,0h5" transform="translate(0,205.32)" style="stroke: rgb(68, 68, 68); stroke-opacity: 1; stroke-width: 1px;"/><path class="ytick ticks crisp" d="M79,0h-5M821,0h5" transform="translate(0,157.68)" style="stroke: rgb(68, 68, 68); stroke-opacity: 1; stroke-width: 1px;"/><path class="ytick ticks crisp" d="M79,0h-5M821,0h5" transform="translate(0,110.05)" style="stroke: rgb(68, 68, 68); stroke-opacity: 1; stroke-width: 1px;"/><g class="ytick"><text text-anchor="end" x="71.6" y="4.199999999999999" transform="translate(0,395.86)" style="font-family: 'Open Sans', verdana, arial, sans-serif; font-size: 12px; fill: rgb(42, 63, 95); fill-opacity: 1; white-space: pre; opacity: 1;">15</text></g><g class="ytick"><text text-anchor="end" x="71.6" y="4.199999999999999" style="font-family: 'Open Sans', verdana, arial, sans-serif; font-size: 12px; fill: rgb(42, 63, 95); fill-opacity: 1; white-space: pre; opacity: 1;" transform="translate(0,348.23)">10</text></g><g class="ytick"><text text-anchor="end" x="71.6" y="4.199999999999999" style="font-family: 'Open Sans', verdana, arial, sans-serif; font-size: 12px; fill: rgb(42, 63, 95); fill-opacity: 1; white-space: pre; opacity: 1;" transform="translate(0,300.59000000000003)">5</text></g><g class="ytick"><text text-anchor="end" x="71.6" y="4.199999999999999" style="font-family: 'Open Sans', verdana, arial, sans-serif; font-size: 12px; fill: rgb(42, 63, 95); fill-opacity: 1; white-space: pre; opacity: 1;" transform="translate(0,252.96)">0</text></g><g class="ytick"><text text-anchor="end" x="71.6" y="4.199999999999999" style="font-family: 'Open Sans', verdana, arial, sans-serif; font-size: 12px; fill: rgb(42, 63, 95); fill-opacity: 1; white-space: pre; opacity: 1;" transform="translate(0,205.32)">5</text></g><g class="ytick"><text text-anchor="end" x="71.6" y="4.199999999999999" style="font-family: 'Open Sans', verdana, arial, sans-serif; font-size: 12px; fill: rgb(42, 63, 95); fill-opacity: 1; white-space: pre; opacity: 1;" transform="translate(0,157.68)">10</text></g><g class="ytick"><text text-anchor="end" x="71.6" y="4.199999999999999" style="font-family: 'Open Sans', verdana, arial, sans-serif; font-size: 12px; fill: rgb(42, 63, 95); fill-opacity: 1; white-space: pre; opacity: 1;" transform="translate(0,110.05)">15</text></g></g><g class="overaxes-above"/></g></g><g class="polarlayer"/><g class="smithlayer"/><g class="ternarylayer"/><g class="geolayer"/><g class="funnelarealayer"/><g class="pielayer"/><g class="iciclelayer"/><g class="treemaplayer"/><g class="sunburstlayer"/><g class="glimages"/><defs id="topdefs-07e9b1"><g class="clips"/><clipPath id="legend07e9b1"><rect width="52" height="87" x="0" y="0"/></clipPath></defs><g class="layer-above"><g class="imagelayer"/><g class="shapelayer"/></g><g class="infolayer"><g class="legend" pointer-events="all" transform="translate(834.8000000000001,100)"><rect class="bg" shape-rendering="crispEdges" width="52" height="87" x="0" y="0" style="stroke: rgb(68, 68, 68); stroke-opacity: 1; fill: rgb(255, 255, 255); fill-opacity: 1; stroke-width: 0px;"/><g class="scrollbox" transform="" clip-path="url(#legend07e9b1)"><g class="groups" transform=""><g class="traces" transform="translate(0,14.5)" style="opacity: 1;"><text class="legendtext" text-anchor="start" x="40" y="4.680000000000001" style="font-family: 'Open Sans', verdana, arial, sans-serif; font-size: 12px; fill: rgb(42, 63, 95); fill-opacity: 1; white-space: pre;">x</text><g class="layers" style="opacity: 1;"><g class="legendfill"/><g class="legendlines"><path class="js-line" d="M5,0h30" style="fill: none; stroke: rgb(76, 120, 168); stroke-opacity: 1; stroke-width: 1px;"/></g><g class="legendsymbols"><g class="legendpoints"/></g></g><rect class="legendtoggle" x="0" y="-9.5" width="47" height="19" style="fill: rgb(0, 0, 0); fill-opacity: 0;"/></g></g><g class="groups" transform="translate(0,10)"><g class="traces" transform="translate(0,33.5)" style="opacity: 1;"><text class="legendtext" text-anchor="start" x="40" y="4.680000000000001" style="font-family: 'Open Sans', verdana, arial, sans-serif; font-size: 12px; fill: rgb(42, 63, 95); fill-opacity: 1; white-space: pre;">y</text><g class="layers" style="opacity: 1;"><g class="legendfill"/><g class="legendlines"><path class="js-line" d="M5,0h30" style="fill: none; stroke: rgb(245, 133, 24); stroke-opacity: 1; stroke-width: 1px;"/></g><g class="legendsymbols"><g class="legendpoints"/></g></g><rect class="legendtoggle" x="0" y="-9.5" width="47" height="19" style="fill: rgb(0, 0, 0); fill-opacity: 0;"/></g></g><g class="groups" transform="translate(0,20)"><g class="traces" transform="translate(0,52.5)" style="opacity: 1;"><text class="legendtext" text-anchor="start" x="40" y="4.680000000000001" style="font-family: 'Open Sans', verdana, arial, sans-serif; font-size: 12px; fill: rgb(42, 63, 95); fill-opacity: 1; white-space: pre;">z</text><g class="layers" style="opacity: 1;"><g class="legendfill"/><g class="legendlines"><path class="js-line" d="M5,0h30" style="fill: none; stroke: rgb(228, 87, 86); stroke-opacity: 1; stroke-width: 1px;"/></g><g class="legendsymbols"><g class="legendpoints"/></g></g><rect class="legendtoggle" x="0" y="-9.5" width="47" height="19" style="fill: rgb(0, 0, 0); fill-opacity: 0;"/></g></g></g><rect class="scrollbar" rx="20" ry="3" width="0" height="0" x="0" y="0" style="fill: rgb(128, 139, 164); fill-opacity: 1;"/></g><g class="g-gtitle"/><g class="g-xtitle"/><g class="g-ytitle"/></g></svg>