<svg class="main-svg" xmlns="http://www.w3.org/2000/svg" xmlns:xlink="http://www.w3.org/1999/xlink" width="800" height="600" style="" viewBox="0 0 800 600"><rect x="0" y="0" width="800" height="600" style="fill: rgb(255, 255, 255); fill-opacity: 1;"/><defs id="defs-b96bc4"><g class="clips"><clipPath id="clipb96bc4xyplot" class="plotclip"><rect width="612" height="420"/></clipPath><clipPath class="axesclip" id="clipb96bc4x"><rect x="80" y="0" width="612" height="600"/></clipPath><clipPath class="axesclip" id="clipb96bc4y"><rect x="0" y="100" width="800" height="420"/></clipPath><clipPath class="axesclip" id="clipb96bc4xy"><rect x="80" y="100" width="612" height="420"/></clipPath></g><g class="gradients"/><g class="patterns"/></defs><g class="bglayer"/><g class="layer-below"><g class="imagelayer"/><g class="shapelayer"/></g><g class="cartesianlayer"><g class="subplot xy"><g class="layer-subplot"><g class="shapelayer"/><g class="imagelayer"/></g><g class="gridlayer"><g class="x"><path class="xgrid crisp" transform="translate(167.43,0)" d="M0,100v420" style="stroke: rgb(235, 240, 248); stroke-opacity: 1; stroke-width: 1px;"/><path class="xgrid crisp" transform="translate(276.71000000000004,0)" d="M0,100v420" style="stroke: rgb(235, 240, 248); stroke-opacity: 1; stroke-width: 1px;"/><path class="xgrid crisp" transform="translate(495.29,0)" d="M0,100v420" style="stroke: rgb(235, 240, 248); stroke-opacity: 1; stroke-width: 1px;"/><path class="xgrid crisp" transform="translate(604.57,0)" d="M0,100v420" style="stroke: rgb(235, 240, 248); stroke-opacity: 1; stroke-width: 1px;"/></g><g class="y"><path class="ygrid crisp" transform="translate(0,436)" d="M80,0h612" style="stroke: rgb(235, 240, 248); stroke-opacity: 1; stroke-width: 1px;"/><path class="ygrid crisp" transform="translate(0,352)" d="M80,0h612" style="stroke: rgb(235, 240, 248); stroke-opacity: 1; stroke-width: 1px;"/><path class="ygrid crisp" transform="translate(0,184)" d="M80,0h612" style="stroke: rgb(235, 240, 248); stroke-opacity: 1; stroke-width: 1px;"/></g></g><g class="zerolinelayer"><path class="xzl zl crisp" transform="translate(386,0)" d="M0,100v420" style="stroke: rgb(235, 240, 248); stroke-opacity: 1; stroke-width: 2px;"/><path class="yzl zl crisp" transform="translate(0,268)" d="M80,0h612" style="stroke: rgb(235, 240, 248); stroke-opacity: 1; stroke-width: 2px;"/></g><path class="xlines-below"/><path class="ylines-below"/><g class="overlines-below"/><g class="xaxislayer-below"/><g class="yaxislayer-below"/><g class="overaxes-below"/><g class="plot" transform="translate(80,100)" clip-path="url(#clipb96bc4xyplot)"><g class="scatterlayer mlayer"><g class="trace scatter trace55d091" style="stroke-miterlimit: 2; opacity: 1;"><g class="fills"/><g class="errorbars"/><g class="lines"><path class="js-line" d="M371.57,168L352.47,178.97L351.6,179.45L322.68,196.04L322.13,196.41L312.21,203.74L311.76,204.11L302.57,212.98L302.21,213.38L293.71,224.15L293.39,224.61L282.92,240.79L282.58,241.34L267.71,264.42L267.25,265.08L255.82,279.95L255.23,280.64L244.16,292.24L243.44,292.91L233.3,301.28L232.46,301.89L222.58,308.14L221.62,308.65L211.53,313.18L210.47,313.56L200.5,316.24L199.35,316.44L189.88,317.29L188.67,317.28L180.05,316.48L178.8,316.25L170.07,313.68L168.82,313.17L161.46,309.29L160.26,308.5L153.28,302.82L152.17,301.72L145.92,294.06L144.96,292.61L140.59,284.58L139.82,282.82L136.54,273.21L136.02,271.13L134.15,259.94L133.94,257.55L133.8,244.84L133.97,242.15L135.91,228.07L136.52,225.13L140.82,209.92L141.94,206.78L147.28,194L148.84,190.76L156,177.68L158.02,174.4L167.03,161.28L169.5,158.03L180.3,145.17L183.21,142.02L195.68,129.74L198.98,126.77L212.9,115.36L216.54,112.65L231.63,102.4L235.52,100.01L251.44,91.17L255.49,89.16L271.83,81.91L275.94,80.31L292.29,74.77L296.34,73.61L312.28,69.83L316.18,69.11L331.31,67.07L334.97,66.77L352.29,66.46L355.55,66.62L370.68,68.5L373.46,69.08L386.09,72.79L388.35,73.69L398.32,78.85L400.04,79.99L406.07,84.9L407.36,86.19L412.57,92.98L413.37,94.38L416.25,101.57L416.62,103.03L417.44,110.34L417.43,111.8L416.51,119.01L416.17,120.44L413.24,128.76L412.61,130.11L407.33,139.18L406.46,140.42L398.8,149.8L397.77,150.91L388.04,160.19L386.92,161.15L373.39,171.64L372.27,172.44L352.9,185.06L351.89,185.68L308.49,212.57L307.87,213.01L292.31,225.12L291.8,225.56L276.32,239.57L275.85,240.02L257.96,255.48L257.43,255.89L246.78,262.93L246.19,263.26L237.61,267.26L236.97,267.49L228.49,269.73L227.82,269.83L220.39,270.17L219.71,270.12L212.96,268.82L212.29,268.6L206.46,265.81L205.84,265.4L201.1,261.43L200.55,260.83L196.51,255.28L196.07,254.48L193.38,248.24L193.06,247.25L191.28,238.49L191.16,237.28L191.14,226.85L191.26,225.45L193.01,215.08L193.39,213.52L197.03,202.18L197.69,200.51L203.4,188.51L204.37,186.77L212.21,174.48L213.48,172.73L223.4,160.59L224.95,158.89L236.73,147.38L238.53,145.8L251.8,135.35L253.78,133.96L268.05,124.98L270.14,123.82L284.84,116.6L286.94,115.7L301.44,110.42L303.47,109.8L319.06,106.14L320.92,105.84L334.79,104.54L336.39,104.52L348.03,105.27L349.33,105.48L357.44,107.5L358.45,107.86L365.3,111.32L366,111.81L369.97,115.5L370.41,116.06L372.66,120.1L372.87,120.69L373.63,125.46L373.62,126.05L372.66,131.32L372.46,131.89L369.72,137.37L369.38,137.89L364.17,144.18L363.73,144.62L356.63,150.62L356.14,150.98L346.02,157.34L345.56,157.59L332.67,163.76L332.3,163.92L309.36,174.07L309.26,174.15L306,177.3L305.94,177.39L303.33,182.01L303.28,182.13L300.31,190.74L300.25,190.93L294.2,212.09L294.09,212.46L285.42,239.07L285.21,239.65L277.17,259.73L276.85,260.45L268.64,277.44L268.2,278.26L259.19,293.76L258.62,294.65L248.97,308.39L248.25,309.32L237.85,321.45L236.97,322.38L226.37,332.4L225.32,333.28L214,341.73L212.78,342.52L202.44,348.43L201.07,349.11L189.5,353.83L187.98,354.32L176.86,357.07L175.2,357.35L164.97,358.33L163.22,358.36L152.44,357.71L150.61,357.44L141.35,355.36L139.49,354.79L130.15,351.04L128.29,350.11L119.1,344.45L117.3,343.11L108.59,335.3L106.92,333.51L100.58,325.52L99.09,323.32L93.59,313.65L92.34,311.02L88,299.61L87.09,296.54L84.25,283.39L83.76,279.88L82.78,265.02L82.8,261.11L84.06,244.69L84.69,240.4L87.37,227.17L88.54,222.64L92.92,208.75L94.68,204.03L100.89,189.68L103.27,184.84L111.38,170.25L114.41,165.37L124.45,150.8L128.11,145.97L140.04,131.7L144.33,127.02L158.04,113.34L162.89,108.91L178.22,96.11L183.57,92.02L200.26,80.38L206.01,76.72L223.75,66.49L229.79,63.34L248.22,54.73L254.43,52.14L273.16,45.29L279.4,43.31L298.01,38.3L304.15,36.94L322.24,33.8L328.14,33.06L345.35,31.75L350.9,31.6L366.89,32.01L371.98,32.42L386.48,34.4L391.04,35.3L403.86,38.67L407.83,40L418.82,44.55L422.18,46.24L431.29,51.75L434.01,53.72L441.24,59.97L443.34,62.16L448.74,68.95L450.24,71.27L453.91,78.41L454.86,80.82L457.38,90.58L457.71,93.03L457.89,102.79L457.67,105.21L455.87,114.76L455.2,117.11L451.77,126.28L450.74,128.52L444.7,139.31L443.33,141.39L434.3,153.27L432.67,155.15L420.65,167.53L418.87,169.19L404.27,181.52L402.43,182.95L384.16,196.06L382.37,197.27L356.74,213.37L355.13,214.33L249.51,277.04L248.57,277.51L235.33,283.09L234.38,283.42L222.82,286.4L221.85,286.56L212.11,287.27L211.13,287.24L202.44,286.08L201.49,285.85L194.03,283.07L193.12,282.61L187.03,278.58L186.2,277.89L180.78,272.2L180.06,271.26L175.63,263.76L175.09,262.56L172.38,254.62L172.03,253.18L170.62,243.84L170.51,242.17L170.69,231.48L170.86,229.6L172.91,217.72L173.42,215.65L177.56,202.8L178.44,200.6L184.85,187.1L186.12,184.82L194.88,171.08L196.54,168.79L207.59,155.26L209.61,153.05L222.74,140.21L225.09,138.16L237.37,128.35L239.93,126.49L255.85,116.17L258.58,114.6L275.2,106.17L277.99,104.93L294.67,98.6L297.42,97.73L313.5,93.59L316.1,93.08L331.01,91.07L333.37,90.91L346.63,90.85L348.68,90.99L359.95,92.63L361.65,93.03L370.74,96.04L372.07,96.64L378.95,100.68L379.92,101.43L384.66,106.18L385.28,107.01L388.06,112.19L388.37,113.07L389.42,118.41L389.47,119.31L388.87,125.51L388.67,126.38L386.14,133.16L385.72,133.98L381.2,141.02L380.63,141.77L373.66,149.38L372.98,150.02L363.15,158.15L362.43,158.67L349.91,166.95L349.24,167.36L328.3,179.2L327.8,179.47L310.75,190.18L310.44,190.42L302.85,197.01L302.6,197.26L295,206.21L294.78,206.5L281.25,227.07L280.99,227.46L271.39,241.41L271.06,241.86L261.25,253.68L260.82,254.13L251.93,262.6L251.42,263.03L242.59,269.44L242,269.8L233.21,274.27L232.55,274.54L224.3,277L223.59,277.13L216.32,277.8L215.58,277.79L208.16,276.79L207.42,276.6L200.86,273.96L200.15,273.56L194.69,269.55L194.05,268.94L189.82,263.97L189.26,263.16L185.81,256.71L185.39,255.68L183.03,247.68L182.78,246.43L181.83,236.9L181.82,235.43L182.62,224.45L182.88,222.79L185.22,212.36L185.76,210.55L189.83,199.37L190.66,197.46L197.73,183.82L198.92,181.84L207,170L208.5,168.03L218.39,156.41L220.18,154.52L231.7,143.51L233.73,141.75L246.58,131.71L248.81,130.14L262.58,121.39L264.93,120.06L279.18,112.86L281.56,111.8L295.78,106.29L298.12,105.52L314.04,101.29L316.23,100.85L330.8,98.88L332.75,98.75L345.45,98.82L347.11,98.97L357.59,100.75L358.91,101.11L367.03,104.23L368.02,104.75L373.8,108.82L374.46,109.45L378.06,114.1L378.42,114.79L380.08,119.73L380.19,120.44L380.21,125.42L380.11,126.12L378.54,131.63L378.26,132.3L374.59,138.68L374.15,139.29L368.2,146.04L367.66,146.56L359.19,153.55L358.62,153.96L346.8,161.43L346.27,161.73L328.3,170.86L327.92,171.04L313.74,178.57L313.52,178.71L306.54,184.32L306.39,184.47L301.58,190.66L301.46,190.85L296.94,199.41L296.82,199.66L289.5,216.64L289.34,217.01L279.85,237.65L279.6,238.16L270.05,255.27L269.69,255.87L258.9,271.33L258.4,271.97L248.88,282.81L248.26,283.44L238.01,292.63L237.26,293.21L227.64,299.77L226.78,300.27L217.71,304.76L216.76,305.15L206.77,308.25L205.72,308.48L196.03,309.63L194.93,309.65L185.92,308.93L184.79,308.72L176.81,306.41L175.67,305.95L167.86,301.75L166.77,301L160.48,295.67L159.48,294.64L153.87,287.51L153.01,286.16L148.44,277.12L147.78,275.45L144.66,264.41L144.28,262.41L143.13,251.69L143.06,249.41L143.56,237.37L143.84,234.84L146.26,221.62L146.96,218.87L151.55,204.7L152.7,201.8L159.64,186.99L161.27,183.99L170.65,168.94L172.77,165.93L184.56,151.06L187.15,148.14L201.18,133.94L204.2,131.2L220.17,118.13L223.53,115.67L237.42,106.35L240.99,104.18L259.27,94.28L262.98,92.51L281.67,84.76L285.4,83.44L303.85,78L307.47,77.14L325.05,74.01L328.43,73.61L344.59,72.69L347.65,72.71L361.95,73.79L364.6,74.18L376.74,76.96L378.94,77.67L388.76,81.83L390.49,82.77L397.95,87.97L399.21,89.09L404.41,94.99L405.24,96.22L408.34,102.54L408.76,103.83L409.99,110.33L410.07,111.63L409.48,119.37L409.22,120.64L406.82,128.11L406.29,129.33L401.78,137.5L401.03,138.62L394.36,147.12L393.46,148.13L383.86,157.46L382.87,158.32L369.75,168.5L368.74,169.21L349.58,181.55L348.69,182.09L311.02,205.29L310.47,205.68L298.62,214.92L298.17,215.3L286,226.82L285.6,227.22L259.31,253.33L258.82,253.74L249.01,261L248.46,261.35L239.81,265.99L239.2,266.25L231.08,268.96L230.43,269.1L223.21,270.01L222.54,270.02L215.21,269.22L214.55,269.06L208.69,266.84L208.06,266.5L203.19,263.11L202.62,262.59L198.33,257.68L197.84,256.97L194.44,250.43L194.09,249.5L191.92,241.26L191.75,240.12L191.19,231.51L191.21,230.19L192.46,218.87L192.75,217.37L195.77,206.37L196.34,204.73L201.35,192.96L202.22,191.24L209.35,179.06L210.52,177.31L219.74,165.13L221.2,163.41L232.35,151.7L234.07,150.08L246.84,139.28L248.76,137.83L262.7,128.37L264.75,127.13L279.31,119.33L281.4,118.35L295.97,112.43L298.02,111.73L311.99,107.76L313.92,107.33L328.5,105.1L330.21,104.96L341.3,104.82L342.75,104.9L353.16,106.47L354.31,106.76L362.17,109.74L363,110.18L367.82,113.59L368.37,114.11L371.71,118.56L371.99,119.14L373.31,123.85L373.36,124.44L372.9,129.72L372.75,130.29L370.42,135.85L370.11,136.38L365.66,142.35L365.24,142.81L362.6,145.47" style="vector-effect: non-scaling-stroke; fill: none; stroke: rgb(99, 110, 250); stroke-opacity: 1; stroke-width: 2px; opacity: 1;"/></g><g class="points"/><g class="text"/></g><g class="trace scatter trace4f2caa" style="stroke-miterlimit: 2; opacity: 1;"><g class="fills"/><g class="errorbars"/><g class="lines"><path class="js-line" d="M240.43,168L258.31,145.11L261.87,140.12L263.51,138.24L263.01,139.87L262.41,141.33L262.77,141.41L265.22,137.94L268.81,134.13L266.49,137.86L265.02,140.6L265.76,140.33L266.19,140.14L266.04,140.75L262.93,145.86L262.2,147.85L263.58,146.53L261.92,150.66L263.38,149.21L260.44,156.82L260.67,157.52L260.72,159.78L260.3,161.63L261.2,161.44L260.69,163.4L261.34,163.7L263.21,162.13L263.92,162.22L265.37,161.08L266.85,159.99L266.34,161.79L266.11,163.2L267.94,161.38L269.65,159.63L269.46,160.8L269.69,161.37L267.47,168.13L267.11,169.74L267.69,170.08L267.02,172.39L266.06,175.21L267.63,174.19L270.27,171.36L269.85,173.22L269.35,175.25L270.48,174.73L270.85,175.36L269.15,179.11L269.98,179.27L273.25,175.78L274.27,175.41L274.01,176.97L272.95,181.17L274.16,180.6L275.62,179.39L276.04,179.96L275,182.77L272.86,187.43L274.22,186.84L275.49,186.26L275.46,187.63L274.93,191.31L275.47,191.98L274.92,194.35L276.06,194.13L280.19,190.49L280.74,190.91L281.14,191.6L282.17,191.28L285.19,188.91L285.45,189.59L284.95,192.49L284.55,194.3L285.08,194.68L284.96,196.01L282.15,202.97L283.88,201.71L285.2,200.89L284.66,203.24L287.23,201.85L286.82,203.79L286.53,205.58L287.34,205.68L289.85,204.39L288.6,207.48L288.18,209.52L288.98,209.62L289.62,210.03L290.9,209.22L291.3,209.86L290.86,211.82L291.69,213.32L290.85,215.86L291.77,215.81L291.46,217.69L290.38,220.86L291.39,220.83L291.53,222.12L292.39,222.3L300.01,214.17L299.96,215.36L301.03,214.91L299.32,218.79L299.31,220.1L300.38,219.69L296.04,230.45L296.77,230.82L298.46,229.58L298.78,230.52L298.54,235.43L300.17,234.33L300.91,237.73L300.56,239.86L301.06,240.63L303.25,238.83L307.06,235.54L306.8,237.16L306.23,239.42L307,239.59L309.24,238.52L309.54,239.32L308.96,244.1L309.9,243.89L309.95,246.52L311.03,246.12L311.2,248.61L312.56,247.84L311.97,251.4L312.9,251.36L314.22,250.67L314.32,251.87L314.62,254.2L315.37,254.45L315.46,258.63L316.36,258.62L314.86,265.55L316.59,264.36L318.75,265.52L317.93,268.31L318.52,268.89L318.19,270.99L318.24,272.46L320.52,270.62L316.23,280.49L317.27,280.72L318.93,280.12L318.64,282.37L320.2,281.8L320.89,282.53L321.67,283.08L321.46,285.2L321,287.82L321.7,288.63L323.07,290.23L325.44,288.52L329.97,285.06L328.62,288.6L329.19,289.49L331.99,286.87L332.61,290.85L332.71,292.33L333.94,293.83L335.12,293.75L336.02,294.12L335.65,296.43L334.64,299.86L335.69,300.03L337.71,298.68L338.57,299.04L338.62,300.75L339.39,301.35L342.11,300.71L341.64,303.11L340.71,308.2L340.53,310.47L340.92,314L340.79,316.21L341.66,317L341.01,320.09L340.53,323.08L341.82,323.43L342.8,324.25L343.08,326.14L344.16,331.59L343.61,334.98L345.46,334.77L348.89,331.92L350.56,331.68L350.83,333.68L351.63,337.3L353.16,337.35L355.6,336.11L359.2,332.98L360.15,333.54L358.77,338L359.08,342.31L359.33,344.45L360.61,345.13L360.04,348.44L360.11,356.55L361.24,357.73L362.51,358.66L364.34,358.79L364.42,364.73L365.79,365.71L369.41,369.4L369.37,372.59L369.68,375.39L373.26,373.21L379.85,369.55L381.37,370.15L382.05,372.01L383.67,372.6L385.45,372.82L386.49,374.21L387.8,381.82L391.39,379.42L395.3,376.46L395.19,379.61L396.27,387.64L397.77,388.8L400.69,387.62L401.53,389.65L401.44,393.35L402.65,395.06L405.49,394.23L407.33,394.9L409.69,398.42L411.06,400.01L412.02,402.28L414.09,402.98L416.64,402.99L418.07,404.74L420.78,408.38L422.99,408.99L424,411.42L425.69,413.08L426.89,415.32L430.39,414.03L433.94,412.83L436.19,413.42L437.06,420.54L439.23,421.62L442.78,420.73L444.86,421.85L446.65,423.55L449.22,424.14L452.01,424.09L456.02,422.17L458.75,422.22L459.53,425.37L461.4,426.91L464.98,425.64L467.34,426.33L468.55,428.63L469.56,431.42L471.52,432.97L480.48,427.35L482.49,428.62L487.25,429.76L488.37,432.47L490.51,433.67L494.47,431.76L497.42,431.49L497.97,435.23L498.64,439.03L502.69,438.03L505.08,439.16L506.87,441.33L519.58,435.93L522.53,435.68L529.42,433.7L533.51,431.28L537.1,429.44L542.33,425.34L546.48,422.42L548.58,422.63L550.51,423.17L553.54,421.93L563.27,416.21L565.76,415.37L567.08,416.26L569.98,414.79L573.16,412.73L575.03,412.55L575.89,413.94L580.27,410.03L594.22,393.66L595.77,392.45L595.8,393.49L597.35,392.23L607.68,379.73L610.06,376.19L615.39,367.47L617.31,363.35L627.18,336.61L626.28,334.68L625.41,329.24L625.57,325.21L625.79,320.78L624.29,318.9L624.77,308.84L624.47,304.1L623.27,294.44L621.18,291.22L619.84,286.92L619.99,279.68L618.89,265.56L616.91,260.07L615.11,253.73L612.46,248.56L607.42,246.97L602.94,244.53L600.84,238L597.97,232.01L595.31,225.77L590.88,221.54L584.56,220.6L581.48,214.68L580.58,204.37L577.32,196.72L574.23,189.11L568.51,184.34L562.54,179.46L558.34,171.97L553.72,164.63L547.61,159.54L539.34,157.78L530.44,157.27L524.05,152.89L519.25,145.87L513.65,139.44L507,134.88L499.41,131.44L492.63,126.65L478.51,117.9L471.95,112.32L456.08,105.82L449.4,100.73L432.27,95.64L424.79,92.23L417.62,88.92L411.07,83.84L403.44,80.46L394.03,80.25L378.52,74.58L370.48,73.29L357.2,67.13L349.51,66.03L341.79,64.32L336.96,58.77L325.01,51.17L317.28,49.96L310.05,49.01L304.12,46.06L298.34,42.94L293.11,38.48L287.28,35.52L281.19,33.41L273.96,33.13L265.5,34.51L258.05,35.41L252.6,33.1L246.49,31.77L239.08,33.16L231.38,35.91L226.38,35.4L224.16,30.25L218.91,29.38L212.92,30.19L208.57,28.85L203.79,28.66L199.78,27.29L189.64,28.48L186.79,26.2L183.94,24.17L179.93,23.92L174,26.99L169.97,27.57L163.18,28.06L159.19,29.68L156.01,30.42L154.41,28.81L153.92,25.25L151.07,25.27L138.69,34.33L137.48,33.62L135.9,33.6L132.14,37.35L130.3,38.65L131.62,34.87L131.07,33.6L129.18,34.82L127.96,35.13L127.81,33.71L126.11,34.71L122.71,38.8L116.56,47.45L115.9,48.71L114.58,51.79L115.03,51.89L117.66,48.64L112.92,59.81L114.83,58.38L117.36,55.88L117.51,56.69L115.61,60.99L115.07,63.62L115.91,64.02L115.53,66.48L117.18,66.02L120.11,63.39L120.68,64.2L121.37,64.83L121.43,66.49L123.32,67.2L123.21,69.24L123.41,75.53L125.11,75.28L125.31,82.74L126.62,83.47L128.99,82.76L129.42,84.76L128.29,89.51L128.38,92.57L131.61,94.16L132.63,95.93L135.21,102.17L136.86,103.13L139.31,102.74L142.33,101.26L145.21,99.73L146.86,100.22L147.46,102.23L147.07,105.87L147.9,111.22L150.21,111.11L153.37,109.46L154.36,110.97L154.79,113.54L156.38,114.5L157.84,115.51L156.21,121.5L156.46,124.77L158.32,125.68L159.61,127.43L162.66,126.52L164.77,126.6L165.55,128.84L170.93,126.77L172.22,128.06L175.21,126.44L175.32,129.38L175.1,133.18L178.15,131.67L176.41,141.12L178.16,141.91L179.91,142.58L179.66,146.49L178.96,151.2L180.55,152.58L183.16,152.27L186.66,150.51L189.83,148.99L191.51,149.47L192.15,155.14L194.65,154.68L196.22,155.4L196.76,157.73L197.85,159.23L199.68,159.54L202.57,168.5L205.32,167.67L206.87,168.34L209.08,168.05L211.69,167.24L213.18,167.85L213.09,170.96L212.1,175.77L213.5,176.74L216.15,175.75L216.36,178.39L217.8,179.26L220.88,177.57L222.3,178.21L222,181.63L222.95,182.95L224.78,183.09L224.69,186.08L225.57,187.7L227.05,188.37L229.57,187.33L231,187.9L231.1,190.45L233.4,189.66L235.75,191.26L236.28,193.1L236.68,195.23L237.97,195.91L238.82,197.27L238.14,200.78L239.13,201.89L240.94,201.74L245.4,200L246.62,200.56L248.04,203.24L247.52,206.34L247.34,209.23L248.2,210.43L249.31,211.2L250.97,211.01L253.82,209.02L255.05,209.39L254.45,212.49L255.67,212.89L260.15,210.28L260.34,212.08L256.46,222.68L259.15,220.81L263.61,218.36L263.68,220.33L266.02,220.85L265.72,223.31L266.69,223.9L267.09,225.35L265.72,236.26L267.99,234.93L270.51,233L271.52,233.47L274.91,232.21L277.23,230.47L278.55,230.18L278.82,231.52L280.39,232.62L279.94,234.97L280.73,235.54L280.89,237.02L280.42,241.22L280.47,242.95L280.64,244.52L282.05,244.22L282.75,244.97L282.25,247.53L283.48,247.53L283.72,248.97L283.96,254.26L285.33,253.94L286.09,254.58L288.2,253.03L289.33,252.88L289.29,254.69L290.07,255.2L288.65,259.09L287.8,267.77L289.67,266.72L292.91,263.54L293.77,263.85L294.12,266.73L294.12,268.32L297.13,266.91L299.83,264.02L294.54,283.89L296,283.49L299.82,281.2L300.6,281.8L301.24,282.48L302.65,282.03L304.88,281.9L306.82,280.39L309.59,277.81L309.89,278.76L305.27,293.6L305.57,294.92L310.72,290.09L311.01,291.16L309.46,296.89L311.27,295.62L311.53,296.72L310.37,300.14L314.32,297.18L314.66,298.19L315.74,297.99L314.04,302.17L313.69,304.55L317.37,300.58L320.11,299.28L320.72,299.75L316.9,308.66L317.65,309.17L318.04,310.23L317.9,312.09L321.32,310.08L321.12,311.95L321.43,313.13L324.12,310.49L324.6,311.29L323.71,314.23L323.77,315.74L325.22,315.21L326.48,314.87L328.23,313.61L329.08,315.41L328.38,318.03L327.75,320.58L329.71,319.23L334.03,317.15L334.01,318.61L336.87,316.98L336.91,318.39L338.93,318.11L338.79,319.75L338.56,321.74L340.46,320.37L339.6,324.7L340.83,324.43L344.63,323.07L346.98,320.68L348.37,319.87L347.96,321.93L348.89,323.29L349.89,323.27L351.43,325.19L353.21,323.95L353.61,324.73L353.14,326.97L355.26,325.18L355.86,325.72L355.5,327.82L356.6,327.62L357.49,327.75L357.56,329.05L357.27,331.01L358.35,330.94L361.09,329.68L362.28,329.32L375.14,319.97L375.2,320.96L375.81,321.1L377.25,319.87L383.94,312.41L383.57,313.81L382.67,316.12L383.8,315.42L385.48,313.72L385.12,315.16L385.36,315.77L387.77,313.05L396.86,302.22L398.24,300.54L400.14,298.19L398.56,301.03L398.03,302.3L404.37,295.45L406.49,292.45L414.88,280.61L417.92,275.7L419.58,271.34L419.66,270.63L419.25,270.75L419.6,269.54L419.26,269.52L421.15,266.16L422.91,261.23L423.92,258.87L429.22,247.03L429.91,244.44L429.9,242.9L428.79,242.99L426.9,242.9L427.94,239.72L432.02,229.71L431.28,228.64L429.59,229.11L429.76,226.89L432.69,217.89L431.68,216.88L432.14,213.56L431.35,211.94L429.82,202.7L428.56,201.57L429.57,196.62L428.51,194.9L427.65,193.02L427.89,189.19L424.16,188.09L421.67,188.44L419.48,188.51L419.51,185.02L419.23,181.95L417.23,181.56L417.12,178.19L418.48,172.48L414.85,170.08L414.61,166.49L414.6,158.33L412.97,156.29L409.16,157.29L407.68,155.3L408.31,149.81L407.19,146.91L406.62,143.03L404.39,141.42L395.43,140.58L394.76,137.01L393.74,133.81L391.42,132.42L386.51,125.07L382.57,125.82L379.46,125.96L377.09,124.88L372.11,122.98L368.77,123.8L366.62,122.61L365.52,119.72L364.99,115.72L363.58,113.02L354.17,108.2L351.08,108.1L348.4,107.68L347.41,104.5L343.87,100.34L342.02,98.24L339.13,98.1L334.84,99.92L328.23,101.6L323.41,105.02L322.56,102.65L323.9,96.41L323.57,92.81L322.55,90.01L321.26,87.58L319.46,85.94L317.69,84.37L314.56,84.71L305.33,90.6L304.39,88.36L301.58,89.01L297.64,91.71L296.04,90.88L295.3,88.61L295.26,85.39L292.83,85.54L288.74,88.49L287.99,86.48L284.23,85.98L284.15,83.18L282.96,81.98L280.72,82.25L279.31,81.35L277.11,81.79L275.5,81.5L273.21,82.28L266.72,88.09L265.5,88L264.57,87.46L264.7,85.16L264.36,83.55L261.74,85.41L257.76,85.97L257.82,84.04L255.97,85.12L253.21,87.66L251.56,87.24L249.73,88.54L245.74,92.35L246.28,90.48L245.85,90.06L244.63,90.99L244.84,88.76L244.92,87.67L243.87,88.26L241.65,90.77L238.46,92.25L237.33,93.37L237.16,93.21L237.67,92.03L237.15,91.37L236.26,92.35L233.65,94.73L232.16,96.94L229.16,102.21L233.63,95.72L231.11,99.77L229.48,102.51L231.52,99.96L230.49,102.08L230.8,102.01L232.2,100.23L230.35,103.78L230.62,103.82L226.23,112.98L228.54,110.33L228.69,110.88L226.95,114.38L227.34,114.8L229.23,112.71L230.49,113.21L232.11,111.51L233.12,110.72L232.73,112.15L233.15,113L234.68,111.43L231.79,117.46L232.71,116.99L234.35,115.36L233.05,119.28L234.72,117.8L237.38,117.06L237.13,118.32L234.15,127.03L236.4,124.54L236.94,127.03L237.44,127.35L241.03,124.94L241.23,125.62L240.88,128.13L243.16,125.67L243.83,125.51L242.73,128.11L243.09,128.54L245.54,125.76L248.82,122.17L248.38,123.5L244.07,132.68L244.67,132.81L248.02,129.5L246.83,132.26L246.67,133.44L247.57,133.08L248.09,133.25L249.32,132.31L253.98,127.88L252.02,131.77L249.51,136.31L250.29,136.17L250.35,137.06L248.37,142.46L249.2,142.31L250.38,141.66L250.39,142.73L251.03,142.83L252.87,141.04L257.35,136.03L256.68,137.89L260.29,137.9L259.7,139.59L256.82,147.6L257.96,146.86L259.25,145.63L259.16,146.63L259.26,147.37L258.36,152.75L260.08,151.22L263.44,147.89L262.62,150.05L264.11,149.39L264.5,149.64L264.66,151.01L265.31,150.86L264.07,153.61L267.67,151.35L267.97,151.66L270.6,149.76L272.45,147.76L272.29,149.93L273.39,148.84L275.02,147.43L274.49,148.73L274.36,149.5L271.67,157.6L272.91,156.29L273.65,155.8L273.71,156.36L272.99,158.12L272.54,161L275.65,157.11L278.34,154.73L278.15,155.58L278.14,156.28L281.06,152.35L281.27,152.5L279.16,156.35L277.23,160.01L278.66,158.38L279.89,157.07L280,157.41L280.62,156.99L281.89,155.38L283.32,153.76L282.81,155.39L283,155.54L282.18,157.74L282.88,157.14L283.87,156.09L282.34,160.32L281.31,162.39L279.71,166.08L280.83,164.92L280.41,166.11L281.1,165.61L284.05,161.7L285.39,160.04L285.28,161.02L285.11,161.75L284.24,165.35L283.16,167.54L279.94,175.96L279.34,177.6L289.72,164.75L289.25,165.82L288.13,168.06L288.54,167.84L288.37,168.49L287.24,170.75L285.3,175.16L284.42,176.95L286.34,175.5L288.82,172.1L287.59,174.7L289.33,172.56L290.22,171.62L289.22,173.9L290.88,171.75L292.27,169.87L290.86,173.38L292.31,171.38L291.7,172.63L290.38,175.36L288.98,177.92L292.05,174.99L292.11,175.23L292.61,175.17L291.78,177.09L292.57,176.21L293.81,174.54L296.15,171.69L294.47,174.77L293.25,176.88L292.7,178.78L292.86,178.83L293.62,177.97L295.32,175.89L294.81,176.94L292.92,180.11L293.15,180.69L292.37,182.19L287.3,192.15L289.12,189.81L296.51,179.36L291.5,187.49L290.97,188.69L292.84,186.99L292.79,187.71L293.03,187.66L295.29,185.28L295.13,186.36L294.17,188.26L298.37,182.81L299.56,181.14L299.49,181.41L299.66,181.32L298.04,183.96L298.38,183.98L295.29,189.66L294.42,191.26L292.39,196.31L294.99,192.75L294.97,193.06L296.57,190.89L301.49,184.27L296.1,192.67L294.8,195.02L291.49,201.02L293.78,198.09L294.61,197.14L292.83,200.68L293.01,200.7L295.39,197.23L295.55,197.25L295.36,197.81L296.16,196.86L296.38,197.36L297.54,195.87L297.03,196.85L294.78,200.37L295.62,199.63L295.18,200.62L297.37,197.53L298.74,195.74L297.22,198.84L297.13,199.12L295.89,201.53L294.13,204.44L291.02,210.88L291.92,209.78L292.67,208.91L287.8,217.75L290.28,214.29L292.82,210.94L293.14,210.77L293.16,211.04L295.23,208.15L295.65,207.82L294.07,210.51L294.68,209.84L293.54,211.94L292.4,214.03L297.43,207.8L295.38,211.28L291.46,217.75L292.35,217.4L293.28,216.16L290.99,221.09L292.14,219.63L291.87,220.44L289.11,225.61L289.62,225.17L292.32,221.43L295.19,217.57L294.14,219.55L291.8,223.57L290.75,225.57L291.51,225.3L292.96,223.34L293.68,223.26L290.31,229.97L291.54,228.38L293.21,226.08L292.17,228.54L291.26,230.26L284.52,241.62L287.43,237.96L288.21,237.1L289.1,236.05L288.16,237.79L287.39,239.31L289.12,237.93L288.11,239.73L284.72,246.53L283.46,248.81L282.01,251.86L282.88,250.95L283.93,249.73L285.53,247.92L284.36,250.11L284.23,250.65L288.57,244.39L286.89,247.28L284.04,252.04L283.07,254.82L284.39,253L285.19,252.19L284.21,253.9L284.2,254.26L279.75,262.23L280.61,261.95L282.39,259.43L277.91,268.29L278.31,268L279.97,265.76L277.75,269.64L275.82,272.86L271.9,281.61L272.3,281.3L272.26,281.62L273.8,279.76L272.3,282.15L264.67,297.49L265.43,296.67L261.81,301.97L261.73,302.24L262.47,301.23L262.04,302.04L259.16,306.56L242.93,330.74L242.01,331.81L241.06,332.45L239.44,334.57L235.13,339.17L233.13,341.8L228.43,347.7L229.04,346.2L229.58,344.77L231.3,340.91L230.62,341.33L228.94,343.14L212.47,363.27L213.14,361.33L214.11,357.88L213.19,358.21L212.37,358.31L210.68,359.8L207.16,362.42L206.7,361.86L202.8,363.68L199.37,367.19L196.12,370.73L195.13,370.66L195.08,367.53L193.74,368.04L192.26,368.6L190,370.27L190.27,366.26L188.79,366.54L187.47,366.62L185.51,367.65L179.54,372.48L178.07,372.57L175.59,374.26L174.51,373.56L173.73,372.37L170.99,374.04L168.9,374.74L167.92,373.65L168.08,370.76L167.1,369.65L167.05,364.08L164.58,365.52L161.12,368.08L158.91,368.44L159.5,361.48L158.58,359.84L155.84,361.16L151.33,364.95L148.58,365.75L147.02,364.75L145.21,364.04L145.19,360.62L142.26,358.26L141.63,355.64L142.13,347.89L140.5,346.87L137.76,347.37L135.83,346.61L133.6,342.54L133.68,338.72L133.19,335.68L131.63,334.25L130.86,331.72L128.49,331.63L125.95,331.57L125.6,328.19L126.59,323.09L126.37,319.58L124.62,318.62L121.03,320.28L119.5,318.8L119.81,314.32L116.26,304.42L115.78,301.3L115.85,297.42L116.8,292.24L119.02,281.83L119.1,278.37L120.02,273.55L119.16,271.67L118.68,269.15L119.13,265.13L126.81,239.79L129.98,232.46L138.13,212.05L139.91,207.92L141.19,203.41L142.01,200.97L146.31,192.21L149.57,186.17L164.66,163.05L167.82,158.73L179.12,144.01L183.68,138.33L194.61,125.11L196.05,125.18L219.22,104.16L223.57,100.87L238.29,86.31L242.48,84.16L246.7,82.23L251.63,78.94L256.36,76.04L260.52,74.41L264.95,72.58L269.95,69.59L280.99,62.9L285.28,61.79L289.08,61.35L296.09,55.85L301.2,54.01L307.2,50.89L328.37,37.59L333.86,36.47L344.97,32.92L348.44,34.33L368.91,29.62L373.21,29.71L378.51,28.47L382.25,29.71L385.7,30.95L390.07,30.69L396.96,32.86L401.51,32.14L403.35,35.14L404.45,39.24L407.04,46.17L409.68,47.13L414.62,44.94L418.42,44.09L429.55,42.74L431.7,44.38L433.05,47.07L432.94,51.71L434.56,53.23L438.74,51.12L439.64,53.84L438.92,58.66L439.29,61.71L440.83,62.87L442.02,64.4L442.56,66.75L443.73,68.01L444.28,69.98L443.98,73.13L444.72,74.57L443.61,78.6L440.67,85.33L440.38,87.53L441.21,88.03L437.91,97.37L436.14,101.18L436.24,102.02L437.1,101.81L437.07,103.78L434.69,108.36L422.57,128.89L420.63,131.57L411.76,142.55L410.73,143.47L410.68,142.98L408.59,145.49L406.3,148.48L406.21,147.9L406.13,147.31L390.72,163.05L387.35,167.28L377.1,178.75L377.61,176.78L377.24,176.26L375.24,178.16L374.51,178.18L372.25,180.45L368.34,184.09L367.36,184.5L358.65,192.93L358.82,191.55L358.74,190.55L356.65,192.63L354.48,193.69L351.19,197.76L347.02,202.93L346.87,202.02L347.17,200.32L342.07,205.12L339.99,207.17L338.51,208.44L338.35,207.6L338.34,206.59L333.97,210.2L334.02,209.14L333.48,208.06L331.56,210.11L329.94,211.42L330.11,210.25L325.32,215.63L321.46,220.67L315.32,227.13L315.44,226.16L313.84,226.87L312.82,227.65L311.75,228.46L311.52,228.01L311.89,226.64L311.54,226.48L308.54,230.26L301.64,236.45L300.76,237.13L294.28,244.91L293,246.11L293.09,244.74L291.96,245.82L292.65,243.7L291.19,245.41L286.15,250.03L285.97,249.72L273.5,261.59L273.84,260.52L274.17,259.39L265.53,269.9L266.61,267.71L266.75,267.03L265.55,268.36L265.89,266.74L265.14,267.37L263.52,269.16L263,269.46L263.72,267.71L262.63,268.76L263.89,266.24L264.81,264.38L260.43,270.29L258.49,272.68L258.21,271.93L256.49,273.93L257.47,271.14L256.4,272.17L254.21,274.73L250.16,279.75L250.32,278.81L252.24,275.13L245.38,282.78L243.63,284.66L242.41,285.83L242.99,284.15L244.48,280.45L243.45,281.25L243.4,280.5L245.44,276.51L247.21,273.12L244.77,276.21L242.17,279.3L236.46,284.62L236.46,283.67L235.34,284.54L235.23,283.75L234.14,284.51L231.54,285.72L230.93,285.64L227.99,288.14L227.98,287.1L227.15,286.24L225.48,287.61L219.32,293.21L219.72,291.52L214.74,295.12L214.14,294.71L213.34,294.56L215.49,290.16L216.09,287.94L215.06,288.21L216.26,283.75L215.21,284.08L207.99,290.88L207.75,289.74L207.63,287.09L205.98,288.24L205.07,286.64L203.78,287.18L197.09,289.3L197.06,287.59L197.18,285.65L194.82,287.55L193.09,288.36L192.66,287.26L192.31,285.96L193.17,282.9L191.25,282.15L191.15,280.47L187.14,279.26L186.8,277.86L188.01,272.16L184.99,274.79L188.03,262.85L186.79,263.05L184.82,264.1L185.56,260.96L186.48,254.44L186.18,253.28L182.59,255.24L182.17,254.06L185.35,247.07L184.9,246.2L185.12,242.81L186.8,238.72L190.2,232.05L189.16,232.39L186.39,235.04L187.42,232.09L189.41,226.33L188.31,226.76L191.83,216.8L191.05,217.01L190.89,216.25L192.03,213.43L194.21,207.5L197.42,202.03L208.55,182.21L210.31,179.5L210.04,179.99L211.47,177.79L215.75,171.33L220.47,165.91L220.73,166.06L220.9,166.28L223.76,162.5L232.72,151.36L236.78,146.04L239.46,143.16L239.14,144.94L244.52,140.74L247.93,137.33L248.99,137.15L249.38,138.06L255.24,131.91L256.13,132.22L257.45,132.03L260.27,129.44L266.62,123.03L268.8,121.69L280.09,111.28L283.11,109.31L284.76,109.42L285.38,110.98L287.13,110.76L291,107.2L300.43,97.78L302.16,97.93L306.65,99.63L309.08,98.83L311.06,98.53L315.11,95.26L316.91,95.37L319.53,94.22L322.74,92.82L323.22,94.96L326.26,93.23L327.64,94.03L328.19,95.99L331.23,94.13L333.78,93.13L334.15,95.41L339.88,91.98L340.11,94.38L342.1,94.21L344.92,92.53L348.17,90.27L349.95,90.31L351.01,91.46L351.31,93.62L353.23,95.68L354.92,95.6L359.16,94.03L362.38,91.46L363.92,91.47L364.04,93.63L365.12,94.22L368.08,91.95L369.59,92.17L368.72,95.58L368.25,98.31L369.25,98.71L374.1,95.31L373.66,97.9L373.33,100.27L375.1,99.19L375.31,100.61L374.65,103.28L375.3,103.85L377.47,102.09L380.36,100.62L379.99,102.69L380.81,104.17L378.43,109.17L378.05,111.86L379.54,110.53L383.15,107.03L381.95,109.89L378.46,116.13L379.8,114.81L382.48,111.43L378.07,119.4L378.56,119.18L382.89,113.27L386.56,109.86L384.37,113.73L372.87,133.98L370.04,137.92L371.35,135.77L369.39,138.1L369.5,137.5L369.73,136.9L369.8,136.56L368.87,137.68L369.02,136.92L365.62,141.71L360.76,147.68L361.53,146.06L363.79,141.91L360.96,145.9L357.66,150.32L357.56,150.09L355.82,152.35L355.64,152.1L356.68,150.02L351.43,156.69L351.35,156.33L353.7,152.3L353.01,151.8L351.44,153.64L344.9,160.76L344.56,160.76L342.01,162.04L341.85,161.76L341.51,161.81L339.53,164.42L337.36,166.75L337.49,166.08L337.75,165.2L338.73,163.23L338.45,163.19L335.78,166.95L335.11,167.42L337.41,163.41L338.32,161.67L334.84,166.62L330.84,171.14L330.7,170.93L328.49,173.46L328.41,173.15L329.77,170.64L330.2,169.57L328.44,171.8L327.18,172.44L325.39,174.94L321.54,179.06L323.02,176.38L325.54,171.75L324.28,173.14L323.43,174.11L319.62,179.33L319.96,177.8L319.68,177.89L320.11,176.92L318.51,178.75L318.19,178.96L317.44,179.56L316.02,181.46L312.63,184.76L312.79,184.3L310.67,187.34L313.45,182.01L312.17,183.8L310.01,186.76L315.08,178.23L309.81,185.75L308.68,187.38L309.75,185.46L307.48,188.02L306.61,189.26L308.82,185.52L306.58,188.91L304.61,191.85L303.65,193.16L305.89,189.13L305.42,189.55L306.84,187.36L293.33,207.01L291.86,209.3L295.75,203.59L287.03,217.36L288.09,216L286.77,218.11L284.36,222.49L288.22,217L286.71,219.47L285.4,221.51L285.49,221.38L269.77,247.2L270.01,246.57L268.05,249.37L259.72,260.75L261.34,258.07L261.86,257.05L262.2,256.32L261.87,256.67L259.45,260.32L257.86,262.48L260.01,258.33L261.39,256.05L256.9,262.64L258.71,258.81L259.86,256.78L259.94,256.41L258.33,258.51L246.9,272.62L246.42,272.96L246.69,272.13L246.44,272.11L244.8,274.19L243.68,275.48L244.57,273.67L246.82,269.37L243.35,273.51L244.95,270.62L244.73,270.38L243.66,271.35L244.92,268.93L244.33,269.28L242.79,271.13L240.93,273.64L241.95,271.47L243.48,268.49L237.76,274.84L237.45,274.63L237.49,273.9L236.39,274.89L230.66,281.39L230.75,280.46L231.76,278.06L231.99,276.98L231.36,277.18L229.18,279.79L231.24,275.03L229.62,276.67L225.86,279.56L226.68,277.47L226.09,277.46L224.48,278.97L224.12,277.53L222.74,278.67L222.88,277.43L221.6,278.41L213.12,287.63L212.6,287.23L211.97,287.07L209.75,289.06L208.4,289.81L208.07,289.08L210.14,283.65L208.86,284.41L208.13,284.22L208.91,281.78L208.59,280.94L206.5,282.81L206.97,280.7L208.76,276.72L208.4,275.94L206.14,277.9L203.15,278.19L202.49,277.72L201.24,276.68L201.35,274.98L201.07,272.45L202.99,267.98L203.02,266.54L202.01,266.7L197.46,270.7L196.88,270.04L193.82,271.46L192.65,271.63L191.36,271.78L191.51,269.84L193.8,261.32L193.71,259.84L193.62,258.44L191.55,260.32L191.26,259.2L191.52,257.16L190.57,257.03L191.33,254.41L193.11,244.09L192.13,244.18L193.75,238.76L192.23,239.7L190.7,239.27L191.32,236.99L190.84,236.38L190.93,234.9L192.9,229.39L192.69,228.46L199.52,206.96L199.61,206.11L201.81,200.75L204.66,195.98L215.53,177.4L218.08,173.83L218.77,173.03L218.15,174.26L217.44,175.77L227.19,162.85L230.05,159.16L230.51,159.16L232.08,157.68L243.5,144.82L246.44,141.43L252.41,135.57L252.49,137.01L252.71,138.18L254.04,137.47L260.6,132L261.82,131.81L274.49,119.34L275.47,119.92L278.86,118.91L281.58,116.88L283.92,115.41L285.19,115.77L286.62,115.74L288.84,114.65L297.04,111.67L298.36,112.06L299.3,112.93L301.7,111.59L308.47,106.21L309.79,106.7L311.69,106.16L314.47,104.17L315.35,105.3L318.29,103.39L320.72,102.36L320.41,105.25L322.9,103.83L327.15,100.01L333.48,95.91L334.53,97.05L334.03,100.34L335.66,100.31L338.43,98.54L340.08,98.61L341.79,98.48L345.32,95.57L346.52,96.43L347.05,97.98L351.19,94.01L353.13,93.7L352.87,96.44L353.91,97.23L354.77,98.17L356.82,97.14L358.76,96.56L358.93,98.48L358.68,101L360.13,100.78L363.78,97.46L362.29,101.8L359.11,108.71L360.45,108.41L362.43,107.07L363.25,107.47L363.23,109.1L365.28,107.49L366.08,107.87L366.19,109.16L371.09,106.3L370.6,108.54L369.76,111.01L370.88,110.6L371.73,110.57L370.8,113.3L369.45,116.53L370.45,115.99L371.88,114.81L375.75,111L378.44,107.97L379.28,108.85L380.5,108.16L378.97,114.06L379.5,114.05L377.32,118.68L377.88,118.39L378.45,118.17L375.89,124.87L374.29,127.59L367.96,137.84L368.1,137.45L366.92,139.13L368.91,135.94L365.18,141.26L367.28,137.16L368.13,135.72L361.65,144.68L364.72,139.4L365.52,137.85L362.36,141.83L359.85,145.34L353.26,153.56L353.56,152.64L354.8,150.43L351.51,154.47L352.25,152.88L353.33,150.82L348.76,157.03L349.95,154.66L350.07,154.03L347.76,156.62L345.34,159.88L343.75,161.68L343.71,161.27L344.77,159.22L343.97,159.52L343.23,160.14L341.66,161.63L340.47,162.9L338.17,164.07L339.83,160.97L341.48,158.19L339.27,161.17L337.9,162.75L336.45,164.02L338.3,160.87L338.7,159.89L337.55,161.17L335.23,164.25L334.88,164.37L336.05,162.21L337.02,159.49L336.15,160.44L334,162.81L331.7,165.98L331.79,165.42L333.04,162.93L332.6,163.2L331.19,164.98L329.43,167.24L330.35,165.49L331.15,163.73L328.27,166.57L328.66,165.59L330.02,163.07L325.45,169.36L326.3,167.31L327.8,164.6L330.49,160.37L324.92,167.88L324.23,168.62L324.58,167.81L322.86,170.2L321.03,172.62L321.47,171.03L323.56,167.67L323.07,167.19L321.03,170.14L317.08,175.6L320.06,170.3L319.85,170.34L320.43,169.23L317.83,172.66L319.62,169.31L319.04,169.92L313.94,176.54L317.07,171.53L317.35,170.82L312.48,177.15L314.76,173.22L315.76,171.67L303.08,188.86L303.94,187.5L306.25,183.81L310.23,177.35L303.28,187.52L304.78,185.05L303.89,186.29L300.43,191.55L307.66,179.52L303.9,185.18L301.17,189.08L304.9,183.96L298.82,193.25L299.01,193.04L298.07,194.57L295.13,198.83L299.47,192.77L295.98,198.68L296.69,197.69L300.33,192.15L290.16,209.1L292.03,206.44L297.2,199.97L296.28,201.49L294.89,203.92L294.55,205.05L298.92,198.72L295.83,203.47L295.02,204.81L296.95,202.12L293.01,208.38L292.16,209.88L291.95,210.32L293.71,207.98L295.01,206.1L295.13,206.01L293.82,208.11L289.88,215.5L291.72,212.93L291.73,213.05L285.84,224.02L284.25,226.72L284.42,226.65L286.68,223.48L286.96,223.41L286.92,223.63L286.28,224.71L286.99,223.77L284.52,228.11L282.46,231.35L284.7,228.38L282.19,232.94L280.52,235.68L283.71,231.23L280.76,236.01L282.27,234.32L282.18,234.59L283.41,232.93L282.55,235.03L280.6,238.15L281.79,236.66L279.21,241.06L280.63,239.31L278.65,242.42L277.19,245.7L275.46,248.49L276.78,246.77L272.88,253.34L272.14,254.69L275.84,249.29L270.96,256.9L268.72,260.4L269.88,258.65L256.77,278.27L258.11,275.77L257.87,276L259.58,273.12L257.75,275.35L254.18,280.7L250.23,285.95L250.58,284.87L249.06,287.01L247.42,289.2L249.33,285.94L250.75,283.42L246.06,289.71L246.76,287.91L248.19,285.43L248.63,284.35L246.94,286.46L237.74,298.98L238.79,296.89L241.98,289.72L239.47,293.22L235.83,296.88L235.3,297.07L232.7,299.79L232.23,299.8L229.75,301.31L229.11,301.48L224.43,306.11L223.4,306.85L219.1,311.47L218.14,311.87L217.7,311.54L217.68,310.52L220.39,304.29L219.41,304.76L215.08,309.48L214.4,309.37L215.75,304.86L214.24,306.01L212.68,305.92L211.2,306.93L210.47,306.74L209.15,307.55L204.04,312.53L203.39,312.02L200.63,313.15L199.82,312.85L199.19,312.09L199.6,309.96L198.18,310.4L198.22,308.67L194.45,311.11L194.92,308.59L191.68,309.82L190.83,309.39L186.67,312.16L185.64,311.81L184.82,309L184.19,307.95L182.92,307.85L180.14,309.92L178.53,310.27L177.83,309.14L172.69,312.7L173.19,309.66L172.89,307.85L171.87,307.09L172.83,300.75L170.63,301.96L169.96,300.55L170.73,296.89L170.71,294.63L169.67,293.87L168.42,293.41L168.97,290.16L169.66,286.87L166.58,289.08L163.18,291.99L162.4,290.66L160.65,288.3L160.27,286.36L158.08,284.68L156.09,284.96L156.43,279.35L154.67,279.41L156.28,271.92L154.86,271.69L154.21,270.25L155.2,266.21L153.72,266.17L153.05,264.73L154.47,260.27L153.76,259.1L153.54,257.05L152.6,256.19L150.56,256.87L152,252.27L153.31,248.02L152.91,246.45L152.78,244.57L153.72,241.18L154.8,235.49L156,231.55L155.13,231.2L155.46,228.83L157.33,222.53L159.36,218.15L159.24,215.64L159.03,214.6L164.47,203.77L167.86,197.65L169.81,193.19L171.73,189.75L181.34,173.57L183.03,171.1L192.54,158.36L194.84,155.75L201.91,146.58L204.23,144.28L218.7,130.03L222.48,126.54L227.1,121.54L229.85,119.72L231.34,119.86L234.21,117.83L247.34,105.76L251.69,102.19L261.59,97.21L263.42,97.76L264.06,99.99L266.74,99.42L269.54,98.43L275.01,93.18L280.23,89.28L284.16,87.31L293.23,81.98L295.85,82.11L298.99,81.52L300.67,82.97L304.02,81.92L309.02,78.57L310.64,80.41L313.58,80.18L324.14,72.63L327.33,72.44L332.58,73.21L336.95,71.04L340.65,69.74L343.26,70.4L346.03,75.02L347,77.5L353.03,76.43L355.48,76.63L358.06,76.57L359.3,78.61L365.66,76.74L367.13,78.25L368.65,79.67L371.53,78.93L375.72,76.49L378.17,76.51L385.39,73.14L385.76,76.12L385.6,79.74L387.23,80.52L388.45,81.84L388.89,84.28L390.51,84.92L390.24,88.16L390.81,90.01L392.87,89.57L394.79,89.3L395.23,91.25L395.82,92.81L396.9,93.52L399.57,94.04L401.73,92.91L402.47,93.96L402.22,96.47L402.26,98.34L403.19,98.79L402.8,102.71L404.2,102.27L405.16,103.94L403.93,107.24L403.85,108.6L404.77,108.33L402.93,114.28L404.18,113.41L403.44,116.98L403.56,117.52L401.69,121.6L402.58,120.75L404.68,117.89L402.31,122.53L400.65,125.53L394.13,136.67L394.65,135.51L392.12,139.34L392.19,138.69L389.74,142.15L387.56,144.42L387.74,143.71L388.57,141.97L387.81,142.71L385.18,146.32L376.54,156.85L376.35,156.45L374.98,157.94L367.66,167.24L368.59,165.02L370.36,160.08L369.35,160.93L369.96,159.27L369.33,159.52L367.61,161.52L360.09,169L360.55,167.55L359.19,168.01L359.47,166.78L356.15,170.63L354.45,172.34L351.04,176.16L351.1,175.23L343.24,183.32L344.02,181.25L344.53,179.64L343.52,180.44L342.57,181.14L342.11,181.09L340.84,182.28L333.45,191.06L334.98,187.75L335.75,185.93L334.22,187.57L332.31,188.46L331.64,188.86L329.35,191.07L330.41,188.79L332.46,183.77L331.01,185.32L325.49,191.71L325.73,190.7L320.74,197.24L320.8,196.62L322.78,193.21L322.78,191.62L323.68,189.77L316.67,197.78L317.82,195.57L318.66,193.8L316.9,196.04L316.49,196.24L311.54,202.24L312.48,200.4L313.56,198.3L313.5,198.01L312.7,198.85L311.21,200.76L313,197.3L312.99,196.95L303.56,209.23L303.34,209L304.68,206.62L305.9,204.55L302.72,209.01L300.49,212.24L305.14,204.07L303.33,206.69L300.87,210.08L292.89,219.7L292.93,219.39L295.68,214.88L289.85,222.44L287.29,226.3L283.19,231.95L286.06,226.83L286.35,226.24L286.71,225.55L284.58,228.32L282.71,231.15L278.14,237.87L279.79,234.3L278.78,235.7L279.81,234.04L276.65,237.97L274.67,240.86L271.26,245.22L272.23,243.13L273.26,241.35L275.37,237.87L269.77,245.73L270.28,244.76L260.68,256.27L262.08,253.79L262.05,253.56L260.66,255.4L255.16,262.02L256.16,260.2L257.88,257.19L260.27,252.66L257.96,255.83L251.91,263.13L250.66,264.7L247.48,268.13L248.27,266.51L248.77,265.33L248.82,264.8L247.67,266.13L246.8,266.99L248.1,264.62L247.38,265.26L244.59,268.92L244.13,268.96L245.3,266.59L241.71,269.26L241.83,268.49L240.18,270.37L239.45,270.83L239.61,269.95L239.29,269.81L237.69,271.08L237.84,270.15L237.51,269.92L236.34,271.04L231.84,276.1L233.35,272.99L233.68,271.72L232.96,272.04L232.32,272.24L231.73,272.39L232.85,269.99L232.95,269.21L231.57,270.44L232.7,267.94L231.77,268.6L227.25,274.85L225.05,277.42L225.32,276.07L226.22,273.7L226.32,272.56L227.31,270.13L227.76,268.62L226.44,269.73L223.81,270.73L224.81,268.17L225.42,266.22L224.57,266.46L222.88,268.11L221.18,269.88L220.82,269.39L221.07,267.93L220.79,267.28L218.26,269.99L215.97,272.51L215.56,271.97L214.98,271.63L215.83,267.92L212.83,271.31L210.33,274.13L210.08,273.23L207.72,271.42L206.99,271.21L206.73,270.19L208.27,266.49L209.18,263.76L207.02,265.78L205.26,267.13L206.46,263.83L208.07,259.86L206.43,261.13L203.75,262.67L203.33,261.9L203.49,260.31L204.96,256.51L205.05,255.07L203.05,256.83L203.84,250.19L203.56,249.33L203.12,248.71L201.73,249.6L200.77,249.69L202.29,246.17L204.28,240.63L202.82,241.6L202,241.58L200.36,242.86L197.22,245.05L197.53,243.19L197.9,240.2L198.05,238.71L201.18,231.38L200.05,231.91L197.42,234.89L197.82,232.99L198.33,228.84L197.12,229.56L197.06,228.45L198.47,225.27L200.91,219.55L202.31,216.55L202.43,212.85L204.25,209.33L211.89,193.49L211.27,194.13L209.82,195.8L217.09,182.85L218.91,179.92L224.73,171.56L226.63,168.9L232.74,161.76L234.18,160.16L251.01,141.48L251.2,142.57L251.37,143.54L252.71,142.68L255.52,140.92L257.63,139.19L259.24,138.13L263.43,133.19L265.19,132.22L264.97,134.26L274.22,125.47L275.98,124.59L277.36,124.43L280.49,121.41L283.8,118.42L285.19,118.36L287.31,117.27L288.26,118.01L288.77,119.41L290.44,118.77L291.99,118.53L294.78,116.27L301.3,110.78L302.92,110.51L303.69,111.59L305.66,110.9L307.76,110.04L307.77,112.17L309.06,114.48L310.76,113.88L319.22,104.74L320.5,105.14L324.49,103.65L327.59,101.45L331.15,101.1L332.35,101.83L332.1,104.31L333.36,104.72L336.65,106.27L337.33,107.36L337.74,108.73L339.07,108.66L344.43,106.77L345.88,106.58L350.57,103.68L352.05,103.64L352.54,106.67L353.77,106.56L355.13,106.4L355.6,107.48L355.74,110.5L357.38,109.63L361.07,107.28L362.73,106.5L363.07,109.1L365.2,107.38L366.91,106.3L367.33,107.15L367.21,108.84L368.2,108.72L369.99,107.41L369.6,109.38L368.34,115.01L366.08,119.57L365.55,122.27L367.67,119.91L369.2,118.75L369.48,119.15L371.85,116.35L372.68,116.03L372.11,117.7L371.05,122.02L372.39,120.58L373.95,118.9L373.8,119.75L373.68,120.44L371.18,125.57L368.5,130.07L366.83,133.02L369.82,129.19L371.68,126.46L372.19,126.13L371.18,127.86L369.75,130.38L367.38,134.14L368.35,132.66L360.97,142.88L361.76,141.23L361.2,141.83L361.58,141.02L359.83,143.1" style="vector-effect: non-scaling-stroke; fill: none; stroke: rgb(239, 85, 59); stroke-opacity: 1; stroke-width: 2px; opacity: 1;"/></g><g class="points"/><g class="text"/></g></g></g><g class="overplot"/><path class="xlines-above crisp" d="M79,520.5H693M79,99.5H693" style="fill: none; stroke-width: 1px; stroke: rgb(0, 0, 0); stroke-opacity: 1;"/><path class="ylines-above crisp" d="M79.5,100V520M692.5,100V520" style="fill: none; stroke-width: 1px; stroke: rgb(0, 0, 0); stroke-opacity: 1;"/><g class="overlines-above"/><g class="xaxislayer-above"><g class="xtick"><text text-anchor="middle" x="0" y="535.4" transform="translate(167.43,0)" style="font-family: 'Open Sans', verdana, arial, sans-serif; font-size: 12px; fill: rgb(42, 63, 95); fill-opacity: 1; white-space: pre; opacity: 1;">−10</text></g><g class="xtick"><text text-anchor="middle" x="0" y="535.4" style="font-family: 'Open Sans', verdana, arial, sans-serif; font-size: 12px; fill: rgb(42, 63, 95); fill-opacity: 1; white-space: pre; opacity: 1;" transform="translate(276.71000000000004,0)">−5</text></g><g class="xtick"><text text-anchor="middle" x="0" y="535.4" style="font-family: 'Open Sans', verdana, arial, sans-serif; font-size: 12px; fill: rgb(42, 63, 95); fill-opacity: 1; white-space: pre; opacity: 1;" transform="translate(386,0)">0</text></g><g class="xtick"><text text-anchor="middle" x="0" y="535.4" style="font-family: 'Open Sans', verdana, arial, sans-serif; font-size: 12px; fill: rgb(42, 63, 95); fill-opacity: 1; white-space: pre; opacity: 1;" transform="translate(495.29,0)">5</text></g><g class="xtick"><text text-anchor="middle" x="0" y="535.4" style="font-family: 'Open Sans', verdana, arial, sans-serif; font-size: 12px; fill: rgb(42, 63, 95); fill-opacity: 1; white-space: pre; opacity: 1;" transform="translate(604.57,0)">10</text></g></g><g class="yaxislayer-above"><g class="ytick"><text text-anchor="end" x="76.6" y="4.199999999999999" transform="translate(0,520)" style="font-family: 'Open Sans', verdana, arial, sans-serif; font-size: 12px; fill: rgb(42, 63, 95); fill-opacity: 1; white-space: pre; opacity: 1;">−15</text></g><g class="ytick"><text text-anchor="end" x="76.6" y="4.199999999999999" style="font-family: 'Open Sans', verdana, arial, sans-serif; font-size: 12px; fill: rgb(42, 63, 95); fill-opacity: 1; white-space: pre; opacity: 1;" transform="translate(0,436)">−10</text></g><g class="ytick"><text text-anchor="end" x="76.6" y="4.199999999999999" style="font-family: 'Open Sans', verdana, arial, sans-serif; font-size: 12px; fill: rgb(42, 63, 95); fill-opacity: 1; white-space: pre; opacity: 1;" transform="translate(0,352)">−5</text></g><g class="ytick"><text text-anchor="end" x="76.6" y="4.199999999999999" style="font-family: 'Open Sans', verdana, arial, sans-serif; font-size: 12px; fill: rgb(42, 63, 95); fill-opacity: 1; white-space: pre; opacity: 1;" transform="translate(0,268)">0</text></g><g class="ytick"><text text-anchor="end" x="76.6" y="4.199999999999999" style="font-family: 'Open Sans', verdana, arial, sans-serif; font-size: 12px; fill: rgb(42, 63, 95); fill-opacity: 1; white-space: pre; opacity: 1;" transform="translate(0,184)">5</text></g><g class="ytick"><text text-anchor="end" x="76.6" y="4.199999999999999" style="font-family: 'Open Sans', verdana, arial, sans-serif; font-size: 12px; fill: rgb(42, 63, 95); fill-opacity: 1; white-space: pre; opacity: 1;" transform="translate(0,100)">10</text></g></g><g class="overaxes-above"/></g></g><g class="polarlayer"/><g class="smithlayer"/><g class="ternarylayer"/><g class="geolayer"/><g class="funnelarealayer"/><g class="pielayer"/><g class="iciclelayer"/><g class="treemaplayer"/><g class="sunburstlayer"/><g class="glimages"/><defs id="topdefs-b96bc4"><g class="clips"/><clipPath id="legendb96bc4"><rect width="84" height="48" x="0" y="0"/></clipPath></defs><g class="layer-above"><g class="imagelayer"/><g class="shapelayer"/></g><g class="infolayer"><g class="legend" pointer-events="all" transform="translate(704.24,100)"><rect class="bg" shape-rendering="crispEdges" width="84" height="48" x="0" y="0" style="stroke: rgb(68, 68, 68); stroke-opacity: 1; fill: rgb(255, 255, 255); fill-opacity: 1; stroke-width: 0px;"/><g class="scrollbox" transform="" clip-path="url(#legendb96bc4)"><g class="groups"><g class="traces" transform="translate(0,14.5)" style="opacity: 1;"><text class="legendtext" text-anchor="start" x="40" y="4.680000000000001" style="font-family: 'Open Sans', verdana, arial, sans-serif; font-size: 12px; fill: rgb(42, 63, 95); fill-opacity: 1; white-space: pre;">trace 0</text><g class="layers" style="opacity: 1;"><g class="legendfill"/><g class="legendlines"><path class="js-line" d="M5,0h30" style="fill: none; stroke: rgb(99, 110, 250); stroke-opacity: 1; stroke-width: 2px;"/></g><g class="legendsymbols"><g class="legendpoints"/></g></g><rect class="legendtoggle" x="0" y="-9.5" width="78.375" height="19" style="fill: rgb(0, 0, 0); fill-opacity: 0;"/></g><g class="traces" transform="translate(0,33.5)" style="opacity: 1;"><text class="legendtext" text-anchor="start" x="40" y="4.680000000000001" style="font-family: 'Open Sans', verdana, arial, sans-serif; font-size: 12px; fill: rgb(42, 63, 95); fill-opacity: 1; white-space: pre;">trace 1</text><g class="layers" style="opacity: 1;"><g class="legendfill"/><g class="legendlines"><path class="js-line" d="M5,0h30" style="fill: none; stroke: rgb(239, 85, 59); stroke-opacity: 1; stroke-width: 2px;"/></g><g class="legendsymbols"><g class="legendpoints"/></g></g><rect class="legendtoggle" x="0" y="-9.5" width="78.375" height="19" style="fill: rgb(0, 0, 0); fill-opacity: 0;"/></g></g></g><rect class="scrollbar" rx="20" ry="3" width="0" height="0" x="0" y="0" style="fill: rgb(128, 139, 164); fill-opacity: 1;"/></g><g class="g-gtitle"/><g class="g-xtitle"/><g class="g-ytitle"/></g></svg>