<svg class="main-svg" xmlns="http://www.w3.org/2000/svg" xmlns:xlink="http://www.w3.org/1999/xlink" width="700" height="500" style="" viewBox="0 0 700 500"><rect x="0" y="0" width="700" height="500" style="fill: rgb(255, 255, 255); fill-opacity: 1;"/><defs id="defs-0caa17"><g class="clips"><clipPath id="clip0caa17xyplot" class="plotclip"><rect width="504" height="320"/></clipPath><clipPath class="axesclip" id="clip0caa17x"><rect x="80" y="0" width="504" height="500"/></clipPath><clipPath class="axesclip" id="clip0caa17y"><rect x="0" y="100" width="700" height="320"/></clipPath><clipPath class="axesclip" id="clip0caa17xy"><rect x="80" y="100" width="504" height="320"/></clipPath></g><g class="gradients"/><g class="patterns"/></defs><g class="bglayer"/><g class="layer-below"><g class="imagelayer"/><g class="shapelayer"/></g><g class="cartesianlayer"><g class="subplot xy"><g class="layer-subplot"><g class="shapelayer"/><g class="imagelayer"/></g><g class="gridlayer"><g class="x"><path class="xgrid crisp" transform="translate(203.07999999999998,0)" d="M0,100v320" style="stroke: rgb(235, 240, 248); stroke-opacity: 1; stroke-width: 1px;"/><path class="xgrid crisp" transform="translate(326.15,0)" d="M0,100v320" style="stroke: rgb(235, 240, 248); stroke-opacity: 1; stroke-width: 1px;"/><path class="xgrid crisp" transform="translate(449.23,0)" d="M0,100v320" style="stroke: rgb(235, 240, 248); stroke-opacity: 1; stroke-width: 1px;"/><path class="xgrid crisp" transform="translate(572.31,0)" d="M0,100v320" style="stroke: rgb(235, 240, 248); stroke-opacity: 1; stroke-width: 1px;"/></g><g class="y"><path class="ygrid crisp" transform="translate(0,395.88)" d="M80,0h504" style="stroke: rgb(235, 240, 248); stroke-opacity: 1; stroke-width: 1px;"/><path class="ygrid crisp" transform="translate(0,341.28)" d="M80,0h504" style="stroke: rgb(235, 240, 248); stroke-opacity: 1; stroke-width: 1px;"/><path class="ygrid crisp" transform="translate(0,286.69)" d="M80,0h504" style="stroke: rgb(235, 240, 248); stroke-opacity: 1; stroke-width: 1px;"/><path class="ygrid crisp" transform="translate(0,177.49)" d="M80,0h504" style="stroke: rgb(235, 240, 248); stroke-opacity: 1; stroke-width: 1px;"/><path class="ygrid crisp" transform="translate(0,122.89)" d="M80,0h504" style="stroke: rgb(235, 240, 248); stroke-opacity: 1; stroke-width: 1px;"/></g></g><g class="zerolinelayer"><path class="xzl zl crisp" transform="translate(80,0)" d="M0,100v320" style="stroke: rgb(235, 240, 248); stroke-opacity: 1; stroke-width: 2px;"/><path class="yzl zl crisp" transform="translate(0,232.09)" d="M80,0h504" style="stroke: rgb(235, 240, 248); stroke-opacity: 1; stroke-width: 2px;"/></g><path class="xlines-below"/><path class="ylines-below"/><g class="overlines-below"/><g class="xaxislayer-below"/><g class="yaxislayer-below"/><g class="overaxes-below"/><g class="plot" transform="translate(80,100)" clip-path="url(#clip0caa17xyplot)"><g class="scatterlayer mlayer"><g class="trace scatter trace5e3b40" style="stroke-miterlimit: 2; opacity: 1;"><g class="fills"/><g class="errorbars"/><g class="lines"><path class="js-line" d="M0,117.61L0.12,117.16L0.25,111.2L0.37,111.55L0.49,125.62L0.86,131.45L1.23,117.79L1.35,120.13L1.48,115.71L2.34,133.37L2.46,127.78L2.58,120.48L2.95,136.35L3.2,123.42L3.32,132.04L3.45,142.37L3.94,123.69L4.06,129.44L4.68,124.12L4.92,146.52L5.05,130.46L5.66,143.97L5.78,141.29L5.91,130.58L6.03,125.31L6.15,145.42L6.52,136.69L6.65,136.48L7.51,158.6L7.63,149.95L7.75,143.48L7.88,143.07L8,147.98L8.12,148.16L8.25,151.62L8.74,151.76L8.86,141.22L8.98,144.73L9.11,144.63L9.85,158.98L9.97,140.93L10.34,161.56L10.58,145.44L10.71,142.39L10.83,169.46L11.45,153.99L11.57,152.44L11.69,154.19L11.82,148.5L11.94,162.96L12.55,149.86L12.68,164.83L12.8,164.3L12.92,167.82L13.29,158.78L13.54,161.69L13.66,177.12L13.78,151.1L14.4,156.26L14.52,165.09L14.77,167.18L14.89,161.04L15.14,183.98L15.63,170.77L15.75,168.3L15.88,180.41L16.49,171.51L16.62,162.74L17.6,183.08L17.72,179.76L17.85,180.84L17.97,166.04L18.95,188.61L19.08,185.05L19.2,164.51L19.57,190.49L19.69,187.13L19.82,192.32L20.18,178.77L20.43,196.55L20.55,194.31L21.17,182.77L21.29,191.58L21.42,193.49L21.66,179.24L21.78,197.26L22.03,187.16L22.15,198.23L22.77,181.85L22.89,190.37L23.02,192.1L23.38,177.88L23.75,209.63L23.88,201.15L24,197.98L24.12,204.99L24.37,193.07L24.62,200.08L24.74,197.26L24.98,192.38L25.6,208.21L25.72,191.85L26.34,212.88L26.58,211.25L26.71,200.24L27.32,223.32L27.69,221.31L27.82,223.43L27.94,228.99L28.18,217.76L28.31,208.69L28.43,230.55L28.92,208.62L29.05,223.28L29.17,220.69L29.29,219.25L29.42,229.81L30.15,221.55L30.28,221.74L30.4,229.03L30.77,233.44L30.89,224.02L31.02,229.07L31.14,234.94L31.26,230.47L31.38,232.53L31.51,251.53L32.37,231.59L32.49,251.72L32.98,229.14L33.23,245.48L33.35,244.8L33.48,230.69L33.72,257.86L33.97,253.57L34.09,253.48L34.34,233.04L34.71,245.66L34.83,255.7L35.2,244.17L35.32,259.17L35.69,247.7L35.82,248.82L36.18,248.79L36.31,275.83L36.55,253.88L36.68,246.64L37.54,267.17L37.66,256.43L37.78,256.78L37.91,262.37L38.03,264.88L38.15,260.22L38.28,253.17L38.4,268.83L38.77,252.2L39.02,263.52L39.14,258.04L39.26,261.02L39.51,254.58L39.63,248.39L40.12,268.16L40.37,259.73L40.49,248.8L40.98,242.91L41.11,268.43L41.23,256.52L41.35,251.64L41.48,252.25L41.6,262.9L41.85,249.8L42.34,251.98L42.46,266.56L43.08,242.63L43.32,245.65L43.45,237.9L43.57,239.15L43.69,231.21L43.82,246.11L44.31,229.33L44.43,234.77L44.55,226.24L44.68,226.14L44.8,235.37L45.54,207.26L45.66,215.99L46.77,182.68L46.89,191.03L47.88,156.41L48,166.73L48.74,138.66L49.11,138.84L49.23,146.4L50.09,114.88L50.22,124.41L51.2,81.51L51.32,95.89L51.82,64.35L52.43,64.66L52.55,73.11L52.8,70.94L52.92,58.58L53.54,69.71L53.66,43.27L53.78,60.95L54.4,54.2L54.52,52.87L54.89,61.95L55.26,43.79L55.38,49.2L55.51,45.61L55.63,47.91L55.75,59.81L56.12,35.39L56.49,58.15L56.62,71.44L56.86,39.64L57.48,47.59L57.6,63.72L57.97,53.11L58.09,47.04L58.34,43.28L58.46,64.32L58.95,62.04L59.08,67.68L59.32,54.61L59.57,77.23L59.69,78.51L59.82,65.13L60.18,83.63L60.43,74.69L60.55,83.08L60.92,99.21L61.05,74.6L61.42,75.93L61.54,81.45L62.28,97.13L62.4,93.83L62.52,83.57L62.65,107.41L63.26,95.84L63.38,97.35L63.75,112.63L64.12,106.4L64.25,96.04L64.49,112.71L65.11,107.7L65.23,111.16L65.6,110.87L65.97,133.73L66.09,109.37L66.83,128.5L66.95,120.39L67.08,120.98L67.94,132.61L68.06,130.88L68.18,129.82L68.31,137.26L68.55,126.55L68.68,151.51L68.8,126.23L69.42,139.05L69.54,137.51L69.78,136.93L70.15,148.15L70.28,141.05L70.4,139.56L70.52,135.49L70.65,141.33L70.77,152.76L71.02,135.35L71.26,141.15L71.38,156.39L71.63,138.05L71.88,149.69L72,161.48L72.49,143.04L72.86,143.24L72.98,151.02L73.72,166.41L73.85,147.2L74.58,173.04L74.71,152.95L74.83,154.4L75.45,166.4L75.57,157.61L75.69,154.96L76.43,176.04L76.55,156.85L77.05,181.11L77.29,164.82L77.42,159.07L78.03,183.07L78.4,178.99L78.52,162.49L79.26,182.65L79.38,179.74L79.51,176.27L79.75,182.51L80.12,169.49L80.25,172.25L80.37,181.66L80.49,192.17L80.74,173.86L80.98,182.29L81.11,172.14L81.23,171.68L81.35,178.51L81.6,183.52L81.72,177.93L82.09,172.72L82.71,200.29L82.83,186.37L82.95,185.44L83.08,196.32L83.2,182.97L83.94,183.06L84.06,195.66L84.43,194.83L84.55,198.75L84.68,193.31L84.92,185.48L85.54,208.29L85.66,195.03L85.78,194.05L85.91,196.71L86.03,203.76L86.15,204.7L86.28,188.83L86.4,208.89L86.77,184.28L87.02,207.78L87.14,199.02L87.75,212.23L87.88,202.07L88,206.79L88.12,204.48L88.25,207.14L88.37,214.35L88.98,214.39L89.23,201.3L89.35,201.3L89.48,222.72L90.09,203.81L90.22,203.51L90.34,202.35L90.46,215.28L90.83,221.67L91.2,199.46L91.32,212.66L91.69,202L91.82,220.43L91.94,214L92.06,217.02L92.18,218.59L92.31,204.18L93.17,235.67L93.29,212.39L94.03,223.89L94.15,211.81L94.77,223.55L94.89,219.15L95.02,210.99L95.63,230.62L95.75,227.02L95.88,221.26L96,220.04L96.12,221.71L96.25,221.44L96.37,228.22L96.74,229.77L96.86,204.99L97.23,213.06L97.35,226.98L97.6,223.96L97.72,210.24L98.34,226.59L98.46,211.02L98.83,225.35L98.95,209.29L99.2,215.79L99.32,213.67L99.45,223.73L99.94,219.25L100.06,212.08L100.18,217.67L100.43,205.02L100.68,207.94L100.8,208.56L100.92,199.27L101.29,216.66L101.54,208.79L101.66,206.19L101.91,211.01L102.52,190.96L102.65,200.94L103.02,205.41L103.26,187.88L103.38,176.3L103.63,201.11L104.25,195.06L104.37,182.1L104.62,189.1L105.11,173.26L105.23,180.04L105.35,182.23L105.48,178.45L105.6,167.76L105.85,176.35L106.34,158.18L106.46,161.41L107.32,141.52L107.45,145.66L107.57,153.21L108.55,118.77L108.68,137.18L108.8,135.72L108.92,136.26L109.05,114.94L109.78,133.46L109.91,131.44L110.03,120.96L110.15,121.18L110.28,115.33L110.4,116.1L110.52,115.05L110.65,110.93L111.51,92.79L111.63,102.68L111.75,92.6L112.37,97.63L112.49,95.94L112.74,105.44L112.98,89.46L113.11,88.75L113.23,87.75L113.35,101.1L113.97,77.46L114.22,88.51L114.34,85.15L114.58,82.92L114.71,93.43L115.57,77.89L115.69,84.29L115.82,83.92L115.94,76.46L116.43,87.02L116.55,86.72L116.68,70.52L116.92,76.83L117.05,81.7L117.17,73.58L117.29,89.27L117.78,77.57L117.91,86.15L118.03,86.8L118.15,72.94L118.65,71.65L118.89,91.15L119.02,73.1L120.12,93.15L120.25,82.41L120.49,84.81L120.62,81.23L120.74,78.88L121.11,87.28L121.23,83.66L121.35,80.77L122.22,98.48L122.34,81.32L122.58,100.13L123.08,89.78L123.2,96.67L123.57,90.76L124.06,106.94L124.18,103.72L124.55,88.98L124.92,94.62L125.05,100.96L125.54,98.08L125.78,116.68L125.91,102.72L126.03,101.97L126.15,86.14L126.65,115.78L126.89,115.53L127.02,100.05L127.14,93.1L127.38,117.01L127.51,94.17L127.63,108.34L128.49,120.72L128.62,112.84L128.86,104.26L129.35,126.25L129.48,119.87L129.85,95.95L130.09,109.18L130.22,117.37L130.46,118.21L130.83,109.21L130.95,122.48L131.08,121.34L131.2,126.06L131.32,111.12L131.94,129.86L132.31,127.76L132.43,113.46L132.68,111.25L132.8,131.41L133.17,116.63L133.29,119.45L133.66,115.65L133.91,133.51L134.03,131.81L134.15,112.36L134.4,112.13L134.52,126.25L135.02,125.34L135.14,114L136.37,145.17L136.49,130.55L137.11,117.01L137.23,133.25L137.35,135.61L137.6,129L137.72,121.69L137.85,135.37L138.46,126.87L138.58,130.91L138.71,137.64L138.83,114.25L139.08,125.7L139.2,118.76L140.06,134.01L140.18,127.85L140.31,122.76L140.43,138.21L140.68,127.14L140.8,139.34L140.92,115.29L141.54,127.87L141.66,122.82L142.52,138.71L142.65,137.26L143.02,139.22L143.63,122.52L143.75,142.11L144,129.24L144.25,142.23L144.49,134.89L144.62,135.81L144.86,139.56L145.11,128.18L145.23,134.06L145.35,144.32L146.34,122.51L146.46,144.79L147.2,121.38L147.32,136.01L147.45,145.05L147.94,130.9L148.06,140.57L148.18,137.66L148.55,132.95L148.68,139.77L148.92,137.45L149.05,139.48L149.54,141.25L149.66,123.04L149.78,135.04L149.91,142.69L150.28,132.12L150.65,142.48L150.77,145.93L150.89,148.31L151.02,145.04L151.14,128.65L151.75,141.78L151.88,133.48L152,136.1L152.12,137.01L152.25,149.11L152.37,130.79L152.98,142.43L153.11,147.77L153.6,126.89L153.85,130.7L153.97,143.24L154.46,150.49L154.71,134.23L154.83,134.29L154.95,141.08L155.08,134.5L155.45,144.65L155.57,136.39L155.69,142.55L155.82,145.15L155.94,131.52L156.06,147.65L156.8,147.46L156.92,149.52L157.17,150.81L157.54,127.4L157.66,147.44L157.78,143.26L157.91,126.67L158.28,148.95L158.4,137.94L158.52,146.16L158.77,149.56L158.89,131.41L159.63,147.5L159.75,137.17L160,143.82L160.12,146.54L160.37,154.8L160.86,132.38L160.98,147.05L161.11,137.78L161.23,151.56L161.72,143.73L161.85,153.07L162.09,139.35L162.34,141.81L162.46,153.25L163.2,136L163.32,150.1L163.57,139.98L163.69,158.29L163.82,139.21L164.43,149.49L164.55,144.14L164.68,155.38L164.92,143.14L165.17,147.46L165.29,141.58L165.66,162.47L165.78,134.61L166.03,147.99L166.15,151.34L166.28,150.71L166.4,151.11L166.52,139.72L166.89,157.57L167.14,139.59L167.26,137.42L167.38,138.49L167.51,151.5L167.75,137.34L167.88,160.35L168.25,155.47L168.37,154.86L168.74,160.96L168.98,145.62L169.11,154.1L169.23,150.35L169.35,165.52L169.85,146.11L169.97,145.2L170.09,163.52L170.71,153.52L170.83,158.33L171.2,141.52L171.45,160L171.57,154.55L171.69,153.44L171.82,144.85L172.06,162.42L172.31,159.64L172.43,158.35L172.55,161.65L172.68,158.08L172.8,161.25L172.92,148.17L173.42,167.1L173.66,149.87L173.78,145.68L174.89,172.92L175.02,146.98L175.51,171.24L175.88,160.25L176,165.89L176.25,185.51L176.37,162.53L176.62,177.33L176.74,165.45L176.98,175.31L177.11,180.64L177.48,157.98L177.85,165.99L177.97,162.13L178.22,189.21L178.71,175.73L178.83,167.7L179.32,178.81L179.69,175.73L179.82,176.77L179.94,179.31L180.06,174.32L180.18,176.49L180.31,162.49L180.55,190.9L181.17,179.79L181.29,180.48L181.54,173.36L181.91,194.93L182.03,177.43L182.15,175.88L182.28,191.2L182.77,183.06L182.89,199.32L183.02,181.18L183.63,187.64L183.75,185.74L183.88,184.97L184,196.95L184.62,179.04L184.74,203.14L184.98,204.7L185.48,182.86L185.6,187.2L186.71,209.14L186.83,198.74L186.95,197.48L187.08,203.55L187.2,199.41L187.32,201.77L187.45,211.01L188.06,206.17L188.18,207.59L188.31,202.86L188.55,210.73L188.68,217.09L189.17,200.51L189.29,215.71L189.42,227.62L189.91,229.71L190.15,200.69L190.28,223.61L190.89,208.19L191.02,226.59L191.14,213.59L191.51,229.89L191.75,223.12L191.88,239.31L192.62,225.18L192.74,235.91L192.86,238.31L193.11,229.86L193.23,250.3L193.48,233.64L193.85,257.94L193.97,247.06L194.09,253.9L194.34,239.22L194.95,239.99L195.08,256.89L195.45,263.41L195.57,248.92L195.69,261.2L195.82,259.47L196.06,248.13L196.31,259.19L196.43,264.19L196.92,255.61L197.05,267.73L197.17,268.87L197.54,262.5L197.66,269.11L197.78,263.14L197.91,271.96L198.4,260.92L198.52,288.25L199.26,272.56L199.38,273.69L199.51,280.7L199.63,273.69L199.75,292.7L199.88,276.86L200,300.58L200.86,282.27L200.98,282.65L201.23,299.65L201.72,296.22L201.85,290.18L201.97,291.04L202.09,287.82L202.22,294.67L202.71,302.04L202.83,286.23L202.95,293.81L203.08,292.88L203.32,290.6L203.82,302.48L203.94,291.12L204.18,287.77L204.55,304L204.68,293.31L204.8,290.02L205.05,289.24L205.17,298.72L205.42,301.2L205.54,279.22L206.03,280.59L206.15,279.66L206.65,297.17L206.89,289.93L207.02,269.67L207.14,286.86L207.51,268.95L207.75,276.04L207.88,271.45L208,276.01L208.25,257.79L208.37,252.7L208.62,239.35L208.74,252.53L208.86,252.95L208.98,256.76L209.11,245.75L209.35,247.17L209.48,239.08L210.22,203.28L210.58,211.99L210.71,216.01L212.06,146.68L212.18,154.01L212.31,152.57L212.43,160.33L212.8,141.37L212.92,120.63L213.05,130.15L213.42,114.3L213.54,109.86L213.66,121.35L214.03,91.31L214.15,89.28L214.28,89.94L214.4,74.96L214.65,79.86L214.77,68.34L214.89,75.67L215.02,62.33L215.38,67.65L215.51,53.02L215.63,64.29L215.75,33.86L215.88,49.98L216.49,41.72L216.62,33.99L216.74,43L217.11,25.89L217.23,28.31L217.35,16L217.48,34.9L218.09,33.07L218.22,31.19L218.58,19.73L218.83,41.9L218.95,30.59L219.08,23.64L219.94,35.77L220.06,35.67L220.18,31.6L220.31,22.69L220.68,40.66L220.8,30.92L220.92,37.14L221.05,36.86L221.17,29.27L221.54,60.43L222.03,47.98L222.15,48.14L222.28,43.52L222.4,61.1L222.52,55.86L222.65,58.51L222.77,54.98L222.89,67.57L223.14,63.88L223.26,70.43L223.51,66.74L223.63,80.67L224,77.21L224.12,66.2L225.11,101L225.23,96.86L225.35,97.35L225.6,88.9L225.72,104.53L225.97,101.95L226.09,113.31L226.46,100.13L226.58,109.66L226.71,115.71L227.08,135.79L227.32,126.54L227.45,114.11L228.18,136.92L228.31,129.19L228.43,130.24L228.55,131.25L228.68,126.48L228.8,138.84L229.17,139.85L229.42,130.84L229.54,145.96L229.91,138.48L230.15,155.76L230.28,143.13L230.4,159.47L230.65,141.14L231.02,153.54L231.14,148.45L232,175.03L232.12,161.2L232.74,180.97L232.86,169.68L233.11,162.22L233.72,182.7L234.09,179.28L234.22,170.73L234.83,193.68L234.95,187.92L235.08,177.45L235.32,171.58L235.45,177.69L235.57,191.03L235.69,170.68L235.82,192.18L236.31,190.7L236.43,185.42L236.92,203.55L237.05,200.52L237.17,186.9L237.78,206.22L237.91,192.19L238.03,197.24L238.28,205.78L238.4,185.46L238.65,191.67L238.77,192.15L239.75,219.11L239.88,198.5L240.86,222.68L240.98,218.58L241.23,205.91L241.6,215.75L241.72,217.25L241.85,211.34L241.97,233.18L242.34,216.74L242.46,225.49L242.58,216.86L243.08,226.5L243.2,226.2L243.32,218.27L243.57,214.28L244.18,231.94L244.43,229.93L244.55,209.82L245.17,239.03L245.42,233.94L245.54,238.44L246.15,224.33L246.4,225.86L246.52,230.03L246.77,226.88L247.26,245.12L247.38,232.49L247.51,235.27L247.75,226.29L247.88,231.73L248,248.82L248.62,226.72L248.74,230.82L248.86,236.2L249.23,224.08L249.35,237.86L249.72,227.63L249.85,238.21L250.09,224.15L250.46,238.28L250.58,234.05L250.71,234.89L250.95,221.47L251.2,237.47L251.32,231.91L251.45,243.66L251.82,208.04L252.31,220.8L252.43,217.82L252.92,213.38L253.17,226.44L253.29,214.72L253.54,216.66L253.66,209.07L253.78,221.77L254.4,197.62L254.65,205L254.77,194.4L255.14,214.91L255.26,191.53L255.51,194.04L255.63,178.32L255.75,204.19L256.37,186.24L256.49,176.71L256.74,179.14L256.98,164.47L257.23,175.74L257.35,177.5L257.48,177.82L257.6,164.79L257.85,167.06L258.34,145.75L258.46,163.33L259.2,126.25L259.32,128.19L259.45,148.53L259.57,146.84L259.69,129.32L259.82,131.92L259.94,131.47L260.06,113.99L260.31,129.4L260.68,106.23L260.8,123.57L260.92,109.41L261.05,116.24L261.42,101.82L261.54,104.71L261.66,103.41L261.91,108.82L262.03,88.55L262.15,105.29L262.77,87.45L262.89,80.55L263.51,89.1L263.63,78.36L263.75,83.73L263.88,73.58L264.37,80.14L264.49,79.5L265.35,61.26L265.48,74.79L265.6,81.19L265.97,71.18L266.09,61.27L266.22,60.23L266.34,75.01L266.95,80.07L267.08,60.81L267.2,61.84L267.32,72.76L267.57,70.55L267.69,63.99L268.06,83.64L268.31,79.5L268.43,59.07L269.05,85.67L269.17,70.02L269.29,72.94L269.42,84.85L269.54,58.76L270.03,81.11L270.15,76.97L270.4,84.73L270.52,75.66L270.77,79.05L270.89,74.68L271.02,67.85L271.26,81.59L271.38,89L271.51,88.33L271.63,83.17L271.88,93.43L272.37,64.67L272.49,86.69L272.62,70.22L273.11,94.59L273.23,85.3L273.35,85.62L273.48,106.18L274.22,104.65L274.34,100.07L274.71,112.48L274.95,89.17L275.08,101.56L275.94,107.92L276.06,103.28L276.31,95.72L276.55,113.13L276.8,107.2L276.92,100.91L277.54,123.79L277.78,115.83L277.91,103.24L278.15,97.27L278.28,129.83L278.65,122.76L278.77,110.86L279.38,107.95L279.51,125.73L279.63,115.7L279.75,115.1L279.88,122.64L280,117.86L280.25,127.72L280.49,126.95L280.62,123.12L280.86,121.43L280.98,125.7L281.11,122.95L281.23,134.04L281.35,140.45L281.85,119.27L282.09,130.93L282.22,134.75L282.71,143.12L282.83,121.01L282.95,135.41L283.08,135.6L283.32,134.01L283.45,129.12L283.69,130.16L283.82,142.2L283.94,120.57L284.55,144.54L284.68,133.55L284.8,143L284.92,126.05L285.29,128.94L285.42,127.52L286.15,146.72L286.28,141.03L286.52,130.47L286.65,147.69L287.02,131.75L287.14,146.73L287.51,130.14L287.63,136.49L287.75,152.91L288.62,135.54L288.74,145.06L288.86,145.47L288.98,143.54L289.11,138.34L289.48,137.01L289.85,150.82L289.97,139.88L290.58,155.44L290.71,152.86L290.83,145.14L290.95,145.45L291.08,132.49L291.57,154.08L292.06,153.84L292.18,149.99L292.31,139.01L292.8,154.59L292.92,146.68L293.05,164.07L293.17,144.08L293.78,154.65L293.91,147.52L294.15,146.59L294.65,162.36L294.77,145.23L295.38,171.31L295.51,143.88L295.75,163.65L296.25,143.75L296.37,156.3L296.49,157.7L296.86,161.34L297.11,137.78L297.23,155.93L297.35,166.13L297.72,167.33L297.85,155.82L297.97,174.17L298.09,153.22L298.71,170.41L298.83,166.21L299.08,157.17L299.2,174.99L299.45,166.97L299.57,153.87L300.18,181.15L300.31,162.72L300.43,166.3L300.68,161.33L300.8,179.85L301.05,156.83L301.54,173.85L301.66,164.32L301.91,175.89L302.28,173.29L302.4,163.45L303.02,178.29L303.14,168.61L303.26,163.95L303.38,192.2L303.63,162.4L304,177.33L304.12,180.38L304.74,163.53L304.86,178.39L304.98,188.3L305.72,169.77L305.85,181.63L305.97,185.77L306.09,174.31L306.34,185.55L306.46,173.64L306.95,187.53L307.32,184.07L307.45,187.08L307.69,185.34L307.82,193.23L308.06,193.68L308.43,175.65L308.55,197.45L308.68,176.59L309.29,183.78L309.42,188L309.78,194.96L310.28,191.42L310.4,192.09L310.52,201.13L310.77,189.26L311.02,196.77L311.14,191.08L311.51,185.28L311.63,194.85L311.75,186.19L312.12,204.71L312.62,196.19L312.74,189.78L313.6,215.3L313.72,190.15L314.58,216.3L314.71,199.33L314.95,223.23L315.45,203.14L315.57,190.95L316.68,231.82L316.8,214.92L316.92,213.48L317.05,230.52L317.54,203.85L317.91,212.06L318.03,221.37L318.28,204.11L318.52,209.13L318.65,219.22L318.89,208.61L319.02,220.46L319.26,219.07L319.38,224.65L319.51,224.98L319.63,219.91L320,211.17L320.12,237.65L320.25,213.57L320.62,232.72L320.86,213.34L320.98,221.92L321.11,222.17L321.23,217.1L321.35,237.79L321.72,221.92L321.85,227.91L322.22,236.84L322.34,216.53L322.58,223.72L322.71,222.04L322.95,236.09L323.57,235.93L323.69,226.73L323.82,229.32L324.18,224.13L324.31,226.76L324.43,218.57L324.55,218.86L324.68,233.35L325.05,217.75L325.54,218.41L325.66,222.02L325.78,215.7L325.91,228.17L326.03,220.01L326.15,240.38L326.65,221.77L326.77,222.37L326.89,227.21L327.26,205.96L327.51,216.34L327.63,223.78L327.88,225.08L328.25,206.39L328.49,207.5L328.62,221.4L329.35,194.76L329.48,220.93L330.34,185.16L330.46,199.01L331.08,176.55L331.2,183.61L331.32,196.84L332.68,163.76L332.8,175.76L333.05,152L333.17,169.46L333.29,170.56L334.15,139.1L334.28,160.97L335.14,131.87L335.26,142.01L336,119.67L336.12,128.57L336.25,126.25L336.37,125.12L336.49,129.9L336.62,118.85L336.86,106.54L336.98,120.23L337.11,110.99L337.23,119.95L337.6,95L338.09,96.25L338.22,100.63L338.34,113.92L338.71,97.52L338.83,100.2L338.95,89.2L339.08,80.62L339.32,94.91L339.69,87.64L339.82,90.12L340.43,94.93L340.8,71.83L340.92,91.43L341.78,73.65L341.91,77.89L342.03,77.18L342.15,69.25L342.77,83.59L342.89,70.99L343.02,63.16L343.14,80.01L343.38,59.83L343.75,69.06L343.88,68.67L344.25,66.2L344.62,85.87L344.74,75.42L344.86,66.76L345.11,78.05L345.35,74.45L345.48,81.25L345.85,91.21L346.22,70.83L346.34,94.37L346.95,78.66L347.08,83.44L347.2,82.98L347.45,77.86L347.57,88.94L347.69,82.71L347.82,74.98L348.06,99.8L348.55,92.42L348.68,88.11L349.05,100.32L349.17,87.74L349.42,97.18L349.66,92.84L349.78,89.44L349.91,100.51L350.4,99.85L350.52,77.4L351.14,111.42L351.51,108.07L351.63,89.98L352.25,112.79L352.37,104.47L352.49,96.36L353.23,114.97L353.35,114.22L353.48,107.81L354.09,106.98L354.22,113.89L354.34,104.81L354.71,119.52L355.08,105.53L355.2,108.8L355.57,107.65L355.82,134.01L355.94,117.25L356.06,119.61L356.18,122.29L356.31,118.09L356.43,119.02L356.55,111.8L357.42,123.01L357.54,118.86L357.66,117.06L357.78,128.35L357.91,138.86L358.15,113.08L358.28,131.5L358.4,115.23L358.77,112.85L358.89,134.74L359.26,129.07L359.38,117.13L359.51,114.55L359.63,123.77L359.75,117.93L359.88,130.14L360.12,115.09L360.49,122.72L360.62,134.77L361.11,137.1L361.23,123.83L361.6,124.91L361.72,129.42L361.85,113.13L361.97,141.42L362.46,130.48L362.58,141.19L362.95,129.58L363.2,133.15L363.32,142.29L363.45,129.25L363.57,144.67L364.06,130.9L364.18,133.54L364.31,149.15L364.92,134.52L365.05,135.06L365.42,138.19L365.54,118.15L365.66,136.12L365.78,137.16L365.91,137.37L366.03,140.31L366.15,140.57L366.28,131.26L366.4,142.24L366.77,123.59L367.02,137.07L367.14,137.62L367.38,126.71L367.51,141.76L367.63,131.52L367.88,129.88L368.62,147.36L368.74,125.94L369.23,150.16L369.48,134.63L369.6,132.05L370.22,149.87L370.46,147.38L370.58,140.26L370.95,133.52L371.2,138.03L371.32,144.36L371.57,149.2L371.94,134.88L372.06,152.19L372.68,154.39L372.8,138.91L372.92,145.81L373.05,127.52L373.42,147.39L373.54,134.3L373.66,150.51L373.78,160.61L374.03,136.14L374.4,153.82L374.52,139.94L374.65,137.75L374.77,164.82L375.26,140.37L375.51,146.62L375.63,155.64L376.25,138.55L376.49,141.02L376.62,139.73L377.48,159.01L377.6,142.75L378.22,157.81L378.34,145.34L378.46,147.06L378.95,160.12L379.32,157.13L379.45,144.27L379.69,137.08L380.18,162.05L380.31,158.17L380.43,152.66L380.68,145.71L380.8,159.85L380.92,160.88L381.29,151.29L381.66,158.79L381.78,166.37L382.28,152.72L382.52,155.69L382.65,161.44L383.38,151.23L383.51,176.27L384.37,150.8L384.49,158.6L384.74,158.35L384.86,166.37L384.98,166.31L385.11,158.23L385.23,146.54L385.72,166.29L385.85,164.93L385.97,156.59L386.22,183.31L386.46,165.61L386.58,166.65L386.83,160.16L387.2,163.65L387.32,174.8L387.69,161.39L388.18,162.17L388.31,161.57L388.43,161.96L388.55,165.04L388.68,175.57L388.8,163.26L389.29,165.32L389.42,171.22L389.66,175.93L389.78,161.57L389.91,163.53L390.03,175.03L390.15,158.11L390.28,176.94L390.65,169L390.77,179.6L390.89,182.51L391.02,165.27L391.26,180.91L391.51,164.99L391.75,172.48L391.88,163.43L392.62,192.7L392.74,176.22L392.86,168.2L393.6,192.46L393.72,180.49L393.85,186.38L394.09,174.25L394.22,179.02L394.34,173.46L394.58,190.19L394.95,189.25L395.08,177.37L395.57,193.64L395.94,189.95L396.06,191.37L396.43,196.95L396.55,180.21L396.8,181.39L396.92,197.54L397.29,199.18L397.54,182.98L397.66,195.82L397.91,205.58L398.15,193.51L398.4,198.38L398.52,189.06L399.02,207.17L399.51,206.52L399.63,192.44L400.62,217.29L400.74,210.67L400.98,214.32L401.48,199.98L401.6,214.84L401.72,213.34L401.85,220.48L401.97,203.98L402.71,220.31L402.83,204.3L403.32,223.26L403.69,215.85L403.82,222.34L404.31,226.89L404.43,215.57L404.55,216.58L404.68,230.99L404.8,231.49L404.92,226.48L405.42,219.42L405.66,242.13L405.78,234.46L405.91,226.54L406.28,225.25L406.77,233.4L406.89,229.4L407.26,248.43L407.38,237.33L407.51,235.39L407.88,228.73L408.12,241.77L408.25,259.97L408.98,239.34L409.11,245.86L409.35,239.24L409.48,257.06L409.6,235.25L410.22,238.48L410.34,245.89L410.46,260L410.95,239.55L411.08,243.92L411.82,260.83L411.94,247.07L412.43,241.61L412.68,257.95L412.8,255.52L412.92,252L413.17,258.65L413.42,250.36L413.54,247.19L413.78,262.13L413.91,246.46L414.03,239.25L414.28,255.58L414.52,253.68L414.65,251.08L415.02,243.68L415.26,252.29L415.38,248L415.51,250.28L415.88,255.68L416,243.66L416.98,256.56L417.11,241.59L417.35,246.61L417.6,231.93L417.72,242.7L418.09,245.52L418.22,235.42L418.34,244.42L418.46,212.9L418.58,236.81L419.2,217.99L419.32,231.94L419.82,204L419.94,206.1L420.06,195.35L420.18,208.69L420.8,203.1L420.92,191.76L421.05,193.48L421.17,182.37L421.29,192.34L421.66,178.47L421.78,168.65L421.91,174.53L422.4,163.78L422.52,149.38L422.65,161.74L423.02,143.14L423.26,149.74L423.38,148.02L423.63,144.34L423.75,151.1L423.88,135.66L424.12,126.63L424.25,118.08L424.37,140.76L424.86,113.81L424.98,102.46L425.11,122.48L425.48,97.12L425.72,109.14L425.85,88.08L425.97,103.54L426.46,74.9L426.58,95.15L426.71,82.88L427.2,72.66L427.32,84.97L428.18,64.55L428.31,76.31L429.05,53.43L429.17,62.39L429.29,69.65L429.54,65.66L429.66,40.5L429.91,58.8L430.52,58.55L430.65,63.64L430.89,47.82L431.38,51.9L431.51,62.78L431.75,63.57L432,48.68L432.49,52.97L432.62,60.71L432.74,52.51L432.86,70.84L433.23,59.1L433.35,69.16L433.6,63.29L433.97,72.4L434.09,66.35L434.22,78L434.46,63.32L434.83,80.58L434.95,74.94L435.08,76.44L435.2,63.73L435.45,77.62L435.82,66.53L435.94,82.29L436.18,72.04L436.43,83.94L436.55,91.35L436.68,80.87L437.17,91.74L437.29,85.23L437.42,96.06L437.54,104.93L437.91,80.02L438.03,79.01L438.89,109.83L439.02,97.74L439.75,123.49L439.88,118.96L440,108.84L440.12,106.39L440.25,122.65L440.62,109.47L440.98,115.3L441.11,120.34L441.72,109.3L441.85,120.36L441.97,117.99L442.09,118.31L442.22,128.88L442.34,131.99L442.46,121.29L442.58,118.61L443.32,134.87L443.45,124.65L443.82,117.58L444.18,139.76L444.31,124.63L445.17,153.31L445.29,145.76L445.78,126.54L445.91,153.48L446.03,144.7L446.15,134.87L446.28,151.49L446.65,133.96L446.89,147.88L447.02,140.11L447.14,140.66L447.26,137.38L447.63,155.39L447.88,136.87L448,151.63L448.12,131.47L449.11,166.75L449.23,150.84L449.35,135.76L449.72,156.98L449.97,151.4L450.09,153.08L450.22,147.16L450.34,164.64L450.58,147.82L450.71,161.46L450.83,165.93L450.95,148.06L451.08,142.27L451.45,165.12L451.94,158.76L452.06,165.17L452.55,151.69L452.8,154.74L452.92,163.4L453.17,172.1L453.42,156.35L453.54,172.05L453.78,177.05L454.03,160.78L454.28,169.36L454.4,168.37L454.77,160.02L454.89,174.85L455.02,162.1L455.26,177.94L455.63,173.79L455.75,188.66L455.88,155.43L456.49,174.56L456.62,163.69L457.23,178.26L457.35,174.06L457.48,171.47L457.97,170.37L458.22,187.2L458.34,180.36L458.46,175.6L458.58,166.2L458.71,186.89L459.2,172.79L459.32,173.18L459.45,188.83L460.06,188.24L460.18,181.69L460.31,177.67L460.43,189.07L460.68,186.49L460.8,202.75L461.05,181.28L461.54,189.46L461.66,197.05L462.03,198.25L462.65,186.86L462.77,189.71L463.02,184.69L463.38,192.27L463.51,210.69L463.88,190.03L464,211.65L464.25,194.1L464.37,197.19L464.74,204.37L464.98,188.62L465.11,192.52L465.23,204.5L465.48,206.64L465.6,197.64L465.97,198.59L466.09,203.68L466.22,191.17L466.46,208.12L466.71,201.76L466.83,219.54L467.45,205.06L467.57,205.88L467.69,212.13L467.82,212.26L467.94,199.68L468.43,223.77L468.55,202.26L468.68,200.38L468.8,211.3L468.92,216.82L469.29,203.88L469.42,215.25L469.54,202.37L469.78,220.93L470.28,217.21L470.4,206.38L471.02,221.79L471.14,204.56L472,224.49L472.12,218.7L472.25,215.93L472.37,233.41L472.98,213.53L473.11,220.09L473.23,233.35L473.6,211.91L474.09,212.38L474.22,234.41L474.71,211.02L474.95,213.05L475.08,227.14L475.32,218.17L475.45,237.37L475.82,225.08L475.94,221.2L476.06,227.55L476.18,209.7L476.55,224.65L476.68,217.25L476.8,222.07L477.29,219.99L477.42,210.68L477.66,209.03L478.03,229.59L478.15,214.37L478.28,213.43L478.4,215.94L478.52,225.19L479.38,196.93L479.51,194.31L479.63,215.21L479.88,191.99L480.37,214.29L480.49,206.08L481.48,183.96L481.6,202.33L481.97,176.28L482.22,186.01L482.34,188.87L482.58,189.52L483.45,165.51L483.57,165.77L483.69,182.83L484.43,159.18L484.55,163.49L484.68,168.82L485.54,147.65L485.66,161.11L485.91,125.37L486.4,136.74L486.52,147.69L486.77,142.32L486.89,128.93L487.14,137.43L487.51,125.65L487.63,131.89L487.75,119.48L488.37,119.19L488.49,129.93L488.62,109.33L488.98,127.04L489.11,113L489.23,105.41L489.48,112.14L490.09,87.63L490.22,108.04L490.34,80.5L490.95,99.47L491.08,100.62L491.32,102.78L491.82,79.82L491.94,87.64L492.06,83.64L492.18,84.35L492.31,75.19L492.43,97.54L493.05,84.6L493.17,84.7L493.42,73.52L493.66,77.84L493.78,88.7L494.03,72.44L494.4,91.19L494.52,81.11L494.65,86.74L495.14,70.57L495.38,75.94L495.51,82.6L495.75,72.95L495.88,79.19L496,79.9L496.12,91.96L496.37,78.52L496.62,85.72L496.74,67.59L497.23,95.67L497.85,91.77L497.97,82.7L498.09,84.88L498.22,84.79L498.34,72.57L499.08,93.44L499.2,86.7L499.32,79.21L499.69,93.21L499.82,80.26L499.94,92.89L500.18,102.84L500.68,77.09L500.8,88.74L500.92,82.69L501.29,100.23L501.42,98.29L501.54,102.73L501.91,89.7L502.03,91.4L502.4,105.28L502.89,101.3L503.02,99.86L503.14,107.63L503.51,90.62L503.63,94.08L503.75,88.78L503.88,110.76L504,99.92" style="vector-effect: non-scaling-stroke; fill: none; stroke: rgb(99, 110, 250); stroke-opacity: 1; stroke-width: 2px; opacity: 1;"/></g><g class="points"/><g class="text"/></g><g class="trace scatter trace71e221" style="stroke-miterlimit: 2; opacity: 1;"><g class="fills"/><g class="errorbars"/><g class="lines"><path class="js-line" d="M0,148.47L0.25,111.35L0.74,119.14L0.86,131L1.48,115.97L1.6,125.95L1.72,128.75L1.97,126.93L2.09,131.76L2.34,133.1L2.58,120.81L2.83,128.04L2.95,136.08L3.2,123.76L3.45,141.9L3.57,130.53L3.69,137.78L3.94,123.87L4.18,142.58L4.43,133.45L4.55,135.95L4.68,124.56L4.92,145.94L5.17,134.65L5.29,141.52L5.42,142.02L5.54,137.94L6.03,125.78L6.15,144.93L6.28,144L6.4,136.18L6.52,136.69L6.65,136.59L6.77,142.73L7.14,149.07L7.26,139.54L7.38,149.05L7.51,158.2L7.88,143.17L8,147.86L8.12,148.2L8.37,142.98L8.74,151.53L8.86,141.52L9.85,158.65L9.97,141.42L10.34,161.24L10.46,156L10.58,145.66L10.71,142.93L10.83,168.62L11.2,145.47L11.69,154.06L11.82,148.87L12.68,164.49L12.8,164.33L12.92,167.69L13.29,158.99L13.42,165.84L13.54,162.03L13.66,176.35L13.78,151.74L14.28,164.57L14.4,156.63L15.14,183.51L15.26,172.83L15.38,169.5L15.51,165.65L15.63,170.61L15.75,168.54L15.88,180.03L16.62,163.09L16.74,170.65L16.86,181.92L17.23,171.13L17.48,176.42L17.6,182.88L17.97,166.56L18.22,178.46L18.34,176.96L18.71,174.58L18.95,188.48L19.08,184.79L19.2,165.25L19.82,192.13L20.06,181.87L20.18,178.95L20.43,196.23L20.92,191.08L21.05,187.35L21.42,193.29L21.66,179.72L21.78,196.8L22.15,197.81L22.4,184.32L22.52,193.37L22.77,182.21L23.02,192.17L23.14,199.81L23.26,203.77L23.38,178.9L23.75,209.25L24.25,201.83L24.37,193.36L24.98,192.82L25.11,206.58L25.23,204.27L25.35,196.24L25.72,192.55L25.85,209.92L26.09,209.38L26.22,203.41L26.34,212.61L26.71,200.61L26.95,209.9L27.08,208.71L27.94,228.69L28.06,218.42L28.18,217.65L28.31,209.26L28.43,229.95L28.92,209.16L29.05,222.92L29.17,220.69L29.29,219.49L29.42,229.51L30.15,221.63L30.28,221.86L30.4,228.83L30.77,233.12L30.89,224.3L31.02,229.08L31.14,234.71L31.26,230.6L31.38,232.83L31.51,250.77L32.37,232.14L32.49,251.05L32.98,229.56L33.23,245.17L33.35,244.57L33.48,231.37L33.72,257.53L33.97,253.51L34.09,253.15L34.34,233.39L34.71,245.98L34.83,255.38L35.2,244.54L35.32,258.84L35.69,247.87L35.82,249L36.31,274.8L36.55,253.78L36.68,246.88L37.54,266.79L37.66,256.65L37.78,256.9L37.91,262.27L38.03,264.74L38.15,260.21L38.28,253.6L38.4,268.26L38.77,252.5L39.02,263.39L39.14,258.23L39.26,260.86L39.51,254.49L39.63,248.58L40.12,267.74L40.37,259.45L40.49,249.21L40.98,243.65L41.11,267.69L41.23,256.64L41.35,251.8L41.48,252.41L41.6,262.48L41.85,249.89L42.34,252.34L42.46,265.98L43.08,243.01L43.32,245.53L43.45,238.09L43.57,238.99L43.69,231.61L43.82,245.58L44.31,229.53L44.43,234.5L44.55,226.4L44.68,226.31L44.8,234.72L45.54,207.55L45.66,215.64L46.77,183.04L46.89,190.57L47.88,156.94L48,166.39L49.11,139.24L49.23,146.05L50.46,97.42L50.58,117.75L51.82,64.91L51.94,80.38L52.92,58.89L53.05,60.57L53.29,62.41L53.42,60.08L53.54,69.04L53.66,44.14L54.28,59.95L54.4,54.31L54.65,47.1L54.77,50.95L54.89,61.55L55.26,43.95L55.63,48.06L55.75,59.21L56.12,35.87L56.49,58.33L56.62,70.8L56.86,40.36L57.48,48.01L57.6,63.33L57.72,62.24L57.85,62.74L57.97,53.23L58.34,44.06L58.46,63.81L58.71,47.34L58.83,57.54L59.32,55.04L59.69,78.27L59.82,65.45L59.94,65.96L60.06,79.02L60.31,72.28L60.92,98.36L61.05,75.26L61.78,90.77L62.03,89.49L62.15,84.53L62.52,84.23L62.65,106.72L62.89,102.65L63.02,93.66L63.14,93.53L63.26,95.8L63.51,100.62L63.63,100.2L63.75,112.29L64.25,96.45L64.37,107.56L64.49,112.45L64.74,104.14L65.23,111.15L65.35,114.5L65.6,111.27L65.97,133.11L66.09,110.03L67.2,128.37L67.32,121.59L67.45,122.39L67.57,131.82L67.69,131.59L67.82,129.19L68.31,137.06L68.43,135.18L68.55,127.19L68.68,150.53L68.8,126.93L69.29,128.93L69.42,138.8L69.66,143.56L69.78,137.19L69.91,143.42L70.15,147.99L70.4,139.54L70.52,135.67L71.38,155.98L71.51,150.31L71.63,138.52L72,160.94L72.12,145.52L72.25,160.54L72.49,143.57L72.98,151.07L73.11,163.23L73.23,162.65L73.35,157.51L73.72,166.06L73.85,147.75L74.58,172.49L74.71,153.44L74.83,154.6L75.45,166.01L75.57,157.73L75.69,155.11L76.43,175.59L76.55,157.39L77.05,180.69L77.29,164.79L77.42,159.33L78.03,182.61L78.4,178.5L78.52,163.03L79.26,182.4L79.38,179.73L79.51,176.3L79.75,182.2L80.12,169.6L80.25,172.34L80.37,181.61L80.49,191.61L80.74,174.11L80.98,182.14L81.11,172.38L81.23,171.82L81.35,178.36L81.6,183.34L81.72,178.13L81.97,183.3L82.09,173.33L82.71,199.65L82.83,186.64L82.95,185.7L83.08,195.84L83.2,183.41L83.57,195.08L83.69,184.77L83.94,183.39L84.8,205.76L84.92,186.16L85.54,207.91L85.66,195.31L85.78,194.15L86.15,204.4L86.28,189.54L86.4,208.36L86.77,184.82L87.02,207.41L87.14,199.43L87.75,211.92L87.88,202.38L88,206.67L88.12,204.56L88.25,207.21L88.37,213.97L88.98,214.09L89.23,201.44L89.35,201.66L89.48,222.04L90.09,204.01L90.22,203.52L90.34,202.58L90.46,214.83L90.83,221.14L91.2,200.15L91.32,212.29L91.69,202.69L91.82,219.95L91.94,214.14L92.06,217.02L92.18,218.3L92.31,204.56L93.17,234.98L93.29,213.03L94.03,223.47L94.15,212.19L94.77,223.47L94.89,219.12L95.02,211.46L95.63,230.15L95.75,226.96L95.88,221.41L96,220.11L96.12,221.66L96.25,221.56L96.37,227.92L96.74,228.97L96.86,205.88L97.23,213.61L97.35,226.66L97.6,223.78L97.72,210.58L98.09,220.18L98.22,215.01L98.34,226.08L98.95,209.82L99.08,220.9L99.2,215.83L99.32,213.91L99.45,223.36L99.82,217.15L99.94,219.09L100.92,199.71L101.05,213.64L101.29,216.47L102.52,191.16L102.65,200.67L103.02,205.08L103.26,187.74L103.38,176.78L103.63,200.66L104.25,194.46L104.37,182.25L104.62,188.62L105.11,173.42L105.23,179.9L105.35,182.1L105.48,178.36L105.6,167.88L105.85,175.78L106.34,158.55L106.46,161.26L106.58,156.05L107.32,141.84L107.45,145.7L107.57,152.8L108.55,119.44L108.68,136.75L108.8,135.7L108.92,135.9L109.05,115.48L109.78,133.19L109.91,131.29L110.03,121.22L110.15,121.08L110.28,115.45L110.4,116.07L110.52,114.99L110.65,110.96L111.75,92.96L111.88,102.44L112,101.72L112.12,95.44L112.74,105.07L112.86,90.09L113.23,87.99L113.35,100.57L113.97,77.85L114.22,88.4L114.34,85.2L114.58,83.09L114.71,92.97L115.57,78.04L115.69,84.14L115.82,83.78L115.94,76.74L116.43,86.88L116.55,86.44L116.68,70.92L116.8,71.42L116.92,76.77L117.17,74.02L117.29,88.86L117.66,85.55L117.78,77.9L118.03,86.53L118.15,73.45L118.52,81.75L118.65,71.97L118.89,90.52L119.38,84.28L119.51,76.15L120.12,92.84L120.37,83.7L120.49,84.71L120.74,78.97L121.11,87.08L121.35,81.08L121.48,93.7L121.97,96.32L122.09,84.4L122.22,97.89L122.34,81.95L122.58,100.02L122.95,93.79L123.08,89.98L124.06,106.68L124.18,103.65L124.55,89.3L124.92,94.67L125.05,100.96L125.54,98.22L125.78,116.12L125.91,103.02L126.03,101.77L126.15,86.79L126.65,115.39L126.89,115.21L127.02,100.28L127.14,93.6L127.38,116.45L127.51,94.95L127.63,108.17L128.49,120.46L128.62,113.15L128.86,104.82L129.35,125.77L129.48,119.87L129.85,96.67L130.09,109.34L130.22,117.1L130.46,118.04L130.83,109.59L130.95,122.17L131.08,121.42L131.2,125.72L131.32,111.56L131.82,114.51L131.94,129.24L132.68,111.86L132.8,130.78L133.17,116.72L133.42,127.17L133.54,132.09L133.91,133.24L134.4,112.5L134.52,125.94L134.65,125.37L134.77,117.78L134.89,118.6L135.02,124.98L135.14,114.31L135.63,120.36L135.75,128.84L135.88,124.66L136,134.03L136.25,129.38L136.37,144.56L137.11,117.48L137.23,132.93L137.35,135.51L137.6,129.02L137.72,122.1L137.85,134.92L138.46,126.99L138.58,130.94L138.71,137.08L138.83,114.92L139.08,125.47L139.2,119.1L140.06,133.84L140.18,127.9L140.31,123.16L140.43,137.69L140.68,127.42L140.8,138.65L140.92,116.16L141.54,127.7L141.66,123.07L142.52,138.56L142.65,137.22L143.02,138.8L143.63,122.92L143.75,141.58L144,129.56L144.25,141.89L144.49,134.89L144.62,135.73L144.86,139.25L145.11,128.35L145.23,134.09L145.35,143.87L146.34,123.04L146.46,143.99L147.2,121.86L147.32,135.85L147.45,144.66L147.94,131.3L148.06,140.33L148.18,137.64L148.55,133.09L148.68,139.54L148.92,137.45L149.05,139.37L149.54,140.58L149.66,123.63L149.78,134.94L149.91,142.36L150.28,132.5L150.65,142.4L150.77,145.88L150.89,148.2L151.02,144.84L151.14,129.21L151.38,129.18L151.75,141.44L151.88,133.7L152,136.08L152.12,137.18L152.25,148.52L152.37,131.44L152.98,142.39L153.11,147.3L153.6,127.44L153.85,131.04L153.97,142.87L154.46,149.99L154.71,134.28L154.83,134.38L154.95,140.81L155.08,134.71L155.45,144.34L155.57,136.67L155.69,142.47L155.82,144.84L155.94,132.11L156.8,147.26L156.92,149.29L157.17,150.42L157.54,128.03L157.66,146.93L157.78,143.02L157.91,127.32L158.28,148.64L158.4,138.33L158.52,146.01L158.77,149.2L158.89,132.02L159.63,147.18L159.75,137.4L160,143.73L160.12,146.37L160.37,154.24L160.86,132.95L160.98,146.59L161.11,138.18L161.23,151.23L161.72,143.95L161.85,152.81L162.09,139.72L162.34,142.08L162.46,152.75L163.2,136.45L163.32,149.75L163.57,140.48L163.69,157.56L163.82,139.66L164.43,149.48L164.55,144.46L164.68,155.05L164.92,143.37L165.17,147.27L165.29,141.96L165.66,161.7L165.78,135.42L166.03,147.96L166.15,151.26L166.28,150.73L166.4,150.91L166.52,140.16L166.89,157.26L167.14,139.76L167.26,137.49L167.38,138.67L167.51,151.26L167.75,138.16L167.88,159.81L168.25,155.45L168.37,154.78L168.74,160.65L168.98,145.98L169.11,153.85L169.23,150.67L169.35,164.86L169.85,146.43L169.97,145.57L170.09,162.94L170.71,153.66L170.83,158.11L171.2,141.93L171.45,159.62L171.57,154.65L171.69,153.35L171.82,145.23L172.06,162.04L172.31,159.45L172.43,158.4L172.55,161.53L172.68,158.21L172.8,160.97L172.92,148.67L173.42,166.76L173.66,150.08L173.78,145.87L174.89,172.12L175.02,147.78L175.51,170.96L175.88,160.48L176,165.83L176.25,184.75L176.37,163.07L176.62,176.81L176.74,165.73L176.98,175.19L177.11,180.12L177.48,158.26L177.85,165.9L177.97,162.46L178.22,188.7L178.71,175.5L178.83,168.02L179.32,178.49L179.69,175.76L179.82,176.8L179.94,179.17L180.06,174.47L180.18,176.22L180.31,163.02L180.55,190.27L181.17,179.76L181.29,180.52L181.54,173.65L181.91,194.19L182.03,177.77L182.15,176.23L182.28,190.81L182.77,183.41L182.89,198.64L183.02,181.7L183.63,187.48L183.75,185.76L183.88,185.2L184,196.55L184.62,179.6L184.74,202.3L184.98,204.11L185.48,183.22L185.6,187.25L185.72,193.75L185.85,193.31L185.97,190.22L186.34,202.43L186.46,208.35L186.58,207.38L186.71,208.94L186.83,198.95L186.95,197.64L187.08,203.34L187.2,199.53L187.32,201.89L187.94,210.81L188.06,206.31L188.18,207.49L188.31,203.05L188.55,210.76L188.68,216.73L189.17,201.13L189.29,215.59L189.42,227L189.91,229.24L190.15,201.37L190.28,222.85L190.89,208.8L191.02,225.98L191.14,213.98L191.51,229.59L191.75,223.38L191.88,238.8L192.62,225.6L192.74,235.73L192.86,238.23L193.11,230.41L193.23,249.59L193.48,234.01L193.85,257.39L193.97,247.39L194.09,253.58L194.34,239.51L194.95,240.55L195.08,256.46L195.45,263.02L195.57,249.46L195.69,260.93L195.82,259.4L196.06,248.38L196.31,259.12L196.43,263.98L196.92,255.99L197.05,267.49L197.17,268.71L197.54,262.65L197.66,268.87L197.78,263.42L197.91,271.6L198.4,261.5L198.52,287.53L199.26,272.66L199.38,273.78L199.51,280.42L199.63,274.16L199.75,292.03L199.88,277.58L200,299.84L200.86,282.51L200.98,282.78L201.23,299.24L201.72,295.91L201.85,290.32L201.97,290.99L202.09,288L202.22,294.46L202.71,301.66L202.83,286.71L202.95,293.66L203.08,292.92L203.32,290.75L203.82,302.11L203.94,291.51L204.18,288.11L204.55,303.72L204.68,293.49L204.8,290.1L204.92,289.27L205.05,289.39L205.17,298.33L205.42,300.58L205.54,279.96L206.03,280.64L206.15,279.92L206.65,296.78L206.89,289.64L207.02,270.38L207.14,286.33L207.51,269.39L207.75,276.07L207.88,271.65L208,275.85L208.12,272.12L208.25,258.01L208.62,239.76L209.11,246.12L209.23,254.18L210.22,203.66L210.58,212.18L210.71,215.79L212.06,147.11L212.18,153.8L212.31,152.68L212.43,159.91L212.8,141.09L212.92,121.21L213.05,129.76L213.42,114.22L213.54,110.13L213.66,120.67L214.03,91.32L214.15,89.31L214.28,89.65L214.4,75.34L214.65,79.62L214.77,68.7L214.89,75.29L215.02,62.53L215.38,67.15L215.51,53.51L215.63,63.55L215.75,34.76L215.88,49.48L216.49,41.61L216.62,34.31L216.74,42.5L217.11,26.02L217.23,28.05L217.35,16.58L217.48,34.42L218.09,32.96L218.22,31.3L218.34,34.51L218.46,24.78L218.58,19.94L218.83,41.29L219.08,23.9L219.2,26.95L219.57,24.76L220.06,35.58L220.18,31.55L220.31,23.17L220.68,40.35L220.8,31.23L220.92,37.02L221.05,36.72L221.17,29.58L221.54,59.54L222.03,48.19L222.15,48.07L222.28,43.92L222.4,60.62L222.52,55.99L222.65,58.43L222.77,55.27L222.89,67.2L223.14,63.98L223.26,70.38L223.51,67.2L223.63,80.26L224,76.88L224.12,66.61L225.11,100.62L225.23,96.96L225.35,97.26L225.6,89.22L225.72,103.93L225.97,101.92L226.09,112.98L226.46,100.44L226.58,109.56L226.71,115.63L227.08,135.05L227.32,126.18L227.45,114.6L228.18,136.64L228.31,129.38L228.43,130.27L228.55,131.14L228.68,126.8L228.8,138.5L229.17,139.61L229.42,131.16L229.54,145.7L229.91,138.84L230.15,155.17L230.28,143.68L230.4,159.12L230.65,141.81L231.02,153.53L231.14,148.79L232,174.57L232.12,161.55L232.74,180.75L232.86,170L232.98,171.42L233.11,162.57L233.72,182.53L234.09,179.08L234.22,171.06L234.83,193.33L234.95,187.86L235.08,177.67L235.32,171.74L235.45,177.77L235.57,190.36L235.69,171.49L235.82,191.67L236.31,190.57L236.43,185.58L236.92,203.36L237.05,200.35L237.17,187.5L237.78,205.6L237.91,192.56L238.03,197.26L238.28,205.36L238.4,186.13L238.65,191.76L238.77,192.26L239.75,218.64L239.88,199.15L240.86,222.26L240.98,218.58L241.23,206.23L241.6,215.78L241.72,217.12L241.85,211.84L241.97,232.44L242.34,216.99L242.46,225.16L242.58,217.07L243.08,226.37L243.2,226.06L243.57,214.41L243.94,225.9L244.06,229.5L244.18,231.74L244.31,223.53L244.43,229.46L244.55,210.6L245.17,238.53L245.42,233.75L245.54,238.19L246.15,224.64L246.4,226.11L246.52,230.08L246.77,227.36L247.26,244.51L247.38,232.79L247.51,235.25L247.75,226.58L247.88,231.91L248,248.08L248.62,226.92L248.74,230.83L248.86,235.97L249.23,224.5L249.35,237.51L249.72,227.94L249.85,237.9L250.09,224.44L250.46,237.91L250.58,234.13L250.71,234.68L250.83,222.1L250.95,221.65L251.08,230.56L251.45,243.12L251.57,226.57L251.69,232.91L251.82,208.94L251.94,229.83L252.55,223.2L252.68,214.35L252.92,213.6L253.17,226.12L253.29,214.94L253.42,212.65L253.78,221.2L253.91,204.71L254.03,215.55L254.15,208.37L254.4,197.93L254.52,204.32L254.65,204.78L255.14,214.16L255.63,179.08L255.75,203.24L256.62,173.88L256.74,178.8L257.72,156.15L257.85,166.62L258.83,135.24L258.95,144.86L259.08,148.03L259.2,126.77L259.32,128.51L259.45,148.01L259.57,146.54L259.69,129.78L259.82,131.88L259.94,131.15L260.06,114.63L260.31,129.16L260.68,106.99L260.8,122.98L260.92,109.77L261.05,115.99L261.42,101.91L261.54,104.61L261.66,103.47L261.91,108.4L262.03,89.28L262.15,104.68L262.65,97.33L262.77,87.54L262.89,80.85L263.14,88.73L263.38,86.82L263.51,88.86L263.88,73.89L264.25,77.83L264.37,80.07L264.49,79.3L264.62,68.1L264.74,77.76L264.98,67.72L265.23,71.26L265.35,61.72L265.6,80.83L266.09,61.49L266.22,60.51L266.95,79.51L267.08,61.24L267.2,62.05L267.32,72.47L267.57,70.49L267.69,64.23L268.06,83.19L268.31,79.09L268.43,59.82L269.05,85.1L269.17,70.4L269.29,73.12L269.42,84.11L269.54,59.6L270.03,80.81L270.15,77.11L270.4,84.48L270.65,75.75L270.77,78.89L270.89,74.66L271.02,68.18L271.26,81.6L271.38,88.83L271.51,88.25L271.63,83.22L271.88,93.04L272.37,65.52L272.49,85.94L272.62,70.86L273.11,94.26L273.23,85.51L273.35,85.99L273.48,105.45L274.22,104.4L274.34,100.07L274.71,111.8L274.95,89.51L275.08,101.35L275.94,107.79L276.06,103.43L276.31,96.16L276.55,112.82L276.8,107.03L276.92,101.16L277.54,123.04L277.78,115.49L277.91,103.68L278.15,98.17L278.28,128.83L278.65,122.35L278.77,111.31L279.38,108.56L279.51,125.18L279.63,115.87L279.75,115.28L279.88,122.38L280,118.08L280.25,127.6L280.49,126.86L280.62,123.2L280.86,121.53L280.98,125.56L281.11,123.19L281.23,133.9L281.35,139.96L281.85,119.55L282.09,130.79L282.22,134.47L282.71,142.49L282.83,121.75L282.95,135.13L283.08,135.54L283.32,133.96L283.45,129.24L283.69,130.35L283.82,141.56L283.94,121.3L284.55,144.22L284.68,133.95L284.8,142.53L284.92,126.46L285.29,129.15L285.42,127.86L286.15,146.46L286.28,141L286.52,130.82L286.65,147.07L287.02,132.25L287.14,146.34L287.51,130.55L287.63,136.65L287.75,152.43L288.62,135.79L288.74,144.86L288.86,145.4L288.98,143.51L289.11,138.51L289.48,137.4L289.85,150.62L289.97,140.31L290.58,155.34L290.71,152.8L290.83,145.34L290.95,145.23L291.08,132.84L291.57,153.8L292.06,153.7L292.18,149.9L292.31,139.41L292.8,154.29L292.92,147.14L293.05,163.36L293.17,144.83L293.78,154.33L293.91,147.88L294.15,146.96L294.65,162.01L294.77,145.87L295.38,170.42L295.51,144.67L295.75,163.29L296.25,144.37L296.37,156.08L296.49,157.51L296.86,161.07L297.11,138.37L297.23,155.69L297.35,165.76L297.72,167.05L297.85,156.39L297.97,173.42L298.09,154.01L298.22,173.46L298.71,170.18L298.83,166.25L299.08,157.63L299.2,174.56L299.45,166.92L299.57,154.42L300.18,180.34L300.31,163.15L300.43,166.25L300.68,161.72L300.8,179.06L301.05,157.22L301.54,173.34L301.66,164.59L301.91,175.71L302.28,173.16L302.4,163.86L303.02,178.01L303.14,168.75L303.26,164.56L303.38,191.16L303.63,162.9L304,177.43L304.12,180.1L304.74,164.05L304.86,178.23L304.98,187.82L305.72,170.13L305.85,181.44L305.97,185.46L306.09,174.63L306.34,185.14L306.46,174.04L306.95,187.28L307.32,184.16L307.45,187.02L307.69,185.52L307.82,192.76L308.06,193.22L308.43,176.31L308.55,196.63L308.68,177.31L309.29,184.05L309.42,187.99L309.78,194.82L310.28,191.48L310.4,192.24L310.52,200.76L310.77,189.38L311.02,196.57L311.14,191.25L311.51,185.57L311.63,194.49L311.75,186.49L312.12,204.45L312.62,196.03L312.74,190.08L313.6,214.35L313.72,190.83L314.58,215.6L314.71,199.93L314.95,222.93L315.45,203L315.57,191.39L316.68,231.22L316.8,215.26L316.92,213.86L317.05,230.05L317.54,204.18L317.91,212.29L318.03,221.09L318.28,204.56L318.52,209.35L318.65,218.94L318.89,208.99L319.02,220.16L319.26,219.16L319.38,224.53L319.51,224.88L319.63,220.11L320,211.85L320.12,236.66L320.25,214.28L320.62,232.37L320.86,213.59L320.98,221.72L321.11,222.06L321.23,217.57L321.35,237.09L321.72,222.19L321.85,227.61L321.97,216.98L322.22,236.09L322.58,223.6L322.71,222.14L323.57,235.68L323.69,226.99L323.82,229.27L324.18,224.25L324.31,226.57L324.43,218.75L324.55,219.11L324.68,232.89L325.05,218.08L325.54,218.77L325.66,221.86L325.78,216.03L325.91,227.76L326.03,220.5L326.15,239.91L327.14,221.75L327.26,206.43L327.88,224.63L328.12,215.67L328.25,206.72L328.62,220.69L328.74,197.24L328.98,211.93L329.11,213.24L329.35,195.46L329.48,220.04L329.85,209.56L329.97,210.24L330.34,185.63L330.71,190.72L330.83,195.33L331.08,176.78L331.32,196.48L331.57,187.83L331.69,188.32L332.68,163.99L332.8,175.42L333.05,152.75L333.17,169.11L333.29,170.38L334.15,139.58L334.28,160.33L335.14,132.19L335.26,141.61L336,120.13L336.12,128.34L336.25,126.24L336.37,125.23L336.49,129.6L336.62,119.04L336.86,106.96L336.98,119.76L337.11,111.31L337.23,119.49L337.6,95.3L338.09,96.39L338.22,100.74L338.34,113.37L338.71,97.68L338.83,99.96L338.95,89.28L339.08,80.91L339.32,94.65L339.69,87.6L339.82,89.88L340.43,94.45L340.8,72.2L340.92,90.71L341.78,74.02L341.91,77.81L342.03,77.04L342.15,69.55L342.77,83.31L342.89,71.15L343.02,63.65L343.14,79.53L343.38,60.52L343.75,69.22L343.88,68.84L344.25,66.69L344.62,85.57L344.74,75.51L344.86,67.03L345.11,77.78L345.35,74.6L345.48,80.97L345.85,90.68L346.22,71.59L346.34,93.64L346.95,78.84L347.08,83.33L347.2,83.07L347.45,78.28L347.57,88.61L347.69,82.69L347.82,75.32L348.06,99.15L348.55,92.07L348.68,88.22L349.05,99.91L349.17,88.05L349.42,96.92L349.66,92.82L349.78,89.7L349.91,100.09L350.4,99.39L350.52,78.14L351.14,110.78L351.51,107.41L351.63,90.63L352.25,112.48L352.37,104.52L352.49,96.73L353.23,114.53L353.35,114.09L353.48,108.06L354.09,107.17L354.22,113.58L354.34,105.2L354.71,119.18L355.08,105.74L355.2,108.98L355.57,108.26L355.82,133.61L355.94,117.7L356.06,119.64L356.18,122.13L356.31,118.2L356.43,118.89L356.55,112.05L357.42,122.91L357.54,118.93L357.66,117.3L357.78,128.26L357.91,138.39L358.15,113.75L358.28,130.81L358.4,115.69L358.77,113.47L358.89,134.18L359.26,128.91L359.38,117.37L359.51,114.78L359.63,123.44L359.75,118.25L359.88,129.77L360.12,115.47L360.49,123.05L360.62,134.44L361.11,136.65L361.23,124.25L361.6,125.03L361.72,129.04L361.85,113.97L361.97,140.52L362.34,135.26L362.46,130.77L362.95,129.67L363.32,141.86L363.45,129.79L364.31,148.66L364.43,141.67L365.17,125.79L365.29,132.64L365.42,137.69L365.54,118.91L366.15,140.4L366.28,131.66L366.4,142L366.77,123.96L367.02,136.99L367.14,137.66L367.26,140.07L367.38,127.27L367.51,141.27L368.12,132.05L368.25,138.25L368.62,146.87L368.74,126.6L369.23,149.74L369.48,134.79L369.6,132.24L370.22,149.45L370.46,147.17L370.58,140.36L370.95,133.65L371.2,138.17L371.32,144.19L371.57,148.97L371.94,135.39L372.06,151.69L372.68,154.06L373.05,128.16L373.17,141.7L373.29,141.5L373.42,147.04L373.54,134.86L373.78,160.03L374.15,147.19L374.28,149.42L374.65,138.29L374.77,163.88L374.89,146.69L375.02,141.71L375.26,140.7L375.63,155.28L375.75,146.04L375.88,147.55L376,147.43L376.12,143.71L376.25,138.92L376.37,152.81L376.62,139.96L376.74,149.21L377.23,140.88L377.48,158.4L377.6,143.18L378.22,157.56L378.58,156L378.71,153.21L378.83,150.31L378.95,159.75L379.2,155.33L379.32,156.86L379.69,137.94L379.82,161.19L380.06,157.63L380.18,161.86L380.68,146.04L380.8,159.54L380.92,160.74L381.29,151.5L381.66,158.86L381.78,165.96L382.28,152.99L382.52,155.75L382.65,161.24L383.38,151.74L383.51,175.38L384.37,151.05L384.49,158.46L384.86,166.2L384.98,166.16L385.11,158.23L385.23,146.94L385.72,166.03L385.85,164.81L385.97,156.83L386.22,182.3L386.46,165.55L386.58,166.53L386.83,160.3L387.2,163.86L387.32,174.39L387.69,161.64L388.18,162.3L388.31,161.6L388.43,162L388.55,165.15L388.68,175.11L388.8,163.62L389.29,165.54L389.42,171.05L389.66,175.52L389.78,161.92L389.91,163.72L390.03,174.46L390.15,158.8L390.28,176.36L390.65,169.14L390.77,179.41L390.89,182.14L391.02,165.81L391.26,180.67L391.51,165.42L391.75,172.24L391.88,163.78L392.62,192.2L392.74,176.46L392.86,168.72L393.6,192.02L393.72,180.83L393.85,186.2L394.09,174.51L394.22,178.83L394.34,173.62L394.58,189.71L394.95,188.86L395.08,177.82L395.57,193.43L395.94,189.76L396.06,191.13L396.43,196.4L396.55,180.77L396.8,181.85L396.92,197.17L397.29,199.01L397.42,191.69L397.54,183.42L397.91,205.44L398.4,198.14L398.52,189.42L399.02,206.72L399.51,206.11L399.63,192.9L400.62,216.83L400.74,210.72L400.98,213.97L401.48,200.38L401.6,214.49L401.72,213.46L401.85,220.07L401.97,204.41L402.58,218.25L402.71,220.01L402.83,204.85L403.32,222.9L403.45,208.59L403.57,216.8L403.69,215.96L403.82,222.26L404.31,226.64L404.43,215.84L404.55,216.82L404.68,230.66L404.8,231.37L404.92,226.77L405.42,219.62L405.66,241.64L405.78,234.49L405.91,226.84L406.28,225.45L406.77,233.3L406.89,229.55L407.26,248.09L407.38,237.56L407.51,235.36L407.88,228.9L408.12,241.98L408.25,259.26L408.98,239.64L409.11,245.69L409.35,239.65L409.48,256.3L409.6,235.82L410.22,238.94L410.34,245.99L410.46,259.44L410.95,239.83L411.08,243.87L411.82,260.38L411.94,247.49L412.43,242.09L412.68,257.8L412.8,255.53L412.92,252.16L413.17,258.46L413.42,250.34L413.54,247.3L413.78,261.6L413.91,246.67L414.03,239.63L414.28,255.27L414.77,246.99L414.89,247.39L415.02,243.82L415.26,252.1L415.51,250.26L415.63,251.59L415.88,255.4L416,244.03L416.98,256.26L417.11,241.9L417.35,246.29L417.6,232.26L417.85,239.95L417.97,240.01L418.09,245.22L418.22,235.78L418.34,243.72L418.46,213.96L418.58,236.29L419.2,218.23L419.32,231.58L419.82,204.13L419.94,205.87L420.06,195.78L420.18,208.33L420.8,202.86L420.92,192.03L421.05,193.26L421.17,182.75L421.29,192.01L421.66,178.33L421.78,168.94L421.91,174.24L422.03,165.55L422.28,166.43L422.4,163.61L423.02,143.69L423.26,149.86L423.38,148.12L423.63,144.57L423.75,150.69L423.88,135.95L424.12,126.62L424.25,118.64L424.37,140.05L424.86,113.84L424.98,103.05L425.11,121.63L425.48,97.32L425.72,108.56L425.85,88.79L425.97,103.06L426.46,75.31L426.58,94.45L426.71,83.07L427.2,73.03L427.32,84.66L428.18,64.99L428.31,75.75L429.05,53.64L429.17,62.31L429.29,69.41L429.54,65.28L429.66,41.36L429.91,58.59L430.52,58.49L430.65,63.31L430.89,47.97L431.38,52.21L431.51,62.48L431.75,63.3L432,49.01L432.49,53.06L432.62,60.38L432.74,53L432.86,70.15L433.23,59.12L433.35,68.84L433.6,63.38L433.97,72.11L434.09,66.67L434.22,77.67L434.46,63.73L434.83,80.46L434.95,75.11L435.08,76.21L435.2,64.16L435.45,77.39L435.82,66.96L435.94,81.84L436.18,72.31L436.43,83.99L436.55,91.02L436.68,81.15L437.17,91.56L437.29,85.57L437.42,95.98L437.54,104.6L437.91,80.41L438.03,79.44L438.89,109.58L439.02,98.38L439.75,123.14L439.88,118.9L440,109.06L440.12,106.74L440.25,122.06L440.62,109.77L440.98,115.29L441.11,120.18L441.72,109.65L441.85,120.08L441.97,118.02L442.09,118.5L442.22,128.69L442.34,131.73L442.58,118.83L442.71,126.34L442.83,124L443.08,127.61L443.2,119.43L443.32,134.36L443.57,136.12L443.82,118.24L444.06,129.87L444.18,139.3L444.31,125.2L444.8,133.3L444.92,144.64L445.17,152.84L445.78,127.21L445.91,152.74L446.65,134.39L446.77,142.62L446.89,147.6L447.26,137.56L447.51,143.79L447.63,155.07L448.12,132.08L448.25,143.19L448.37,156.48L448.49,145.14L448.86,159.39L448.98,152.78L449.11,166.18L449.35,136.32L449.97,151.43L450.09,152.93L450.22,147.59L450.34,164.23L450.58,148.43L450.71,161.25L450.83,165.48L450.95,148.39L451.08,142.72L451.45,164.81L451.94,158.93L452.06,164.91L452.55,152.15L452.8,155.07L452.92,163.18L453.17,171.74L453.42,156.86L453.54,171.55L453.78,176.69L454.03,161.18L454.28,169.26L454.4,168.37L454.77,160.33L454.89,174.29L455.02,162.45L455.26,177.56L455.63,173.94L455.75,187.75L455.88,156.37L456.49,174.26L456.62,164.13L457.23,178.1L457.35,174.11L457.48,171.68L457.97,170.74L458.22,186.89L458.34,180.43L458.46,175.58L458.58,166.77L458.71,186.25L459.2,172.99L459.32,173.45L459.45,188.29L460.06,188.08L460.18,181.77L460.31,177.97L460.43,188.76L460.68,186.78L460.8,202.04L461.05,181.48L461.54,189.62L461.66,196.81L462.03,198.06L462.65,186.92L462.77,189.59L463.02,184.87L463.38,192.55L463.51,209.94L463.88,190.55L464,210.91L464.25,194.25L464.37,197.04L464.74,204.12L464.98,188.92L465.11,192.65L465.23,204.18L465.48,206.42L465.6,197.91L465.97,198.79L466.09,203.36L466.22,191.7L466.46,207.95L466.71,202.1L466.83,218.94L467.45,205.33L467.57,205.99L467.69,211.98L467.94,200.04L468.31,211.05L468.43,223.12L468.68,200.66L469.29,204.14L469.42,214.78L469.54,202.83L469.78,220.56L470.03,208.87L470.15,219.02L470.4,206.83L470.52,217.14L470.77,211.97L471.02,221.33L471.14,205.09L472,224.19L472.12,218.77L472.25,216.32L472.37,232.81L472.98,213.93L473.11,220.18L473.23,232.67L473.6,212.25L474.09,212.85L474.22,233.73L474.71,211.44L474.95,213.6L475.08,226.74L475.32,218.56L475.45,236.68L475.82,224.87L475.94,221.38L476.06,227.12L476.18,210.29L476.55,224.43L476.68,217.49L476.8,221.97L477.29,219.82L477.42,210.93L477.66,209.27L478.03,229.04L478.15,214.67L478.28,213.54L478.4,216.02L478.52,224.67L479.38,197.3L479.51,194.74L479.88,192.66L480.25,214.88L480.37,214.14L480.49,206.22L481.48,184.6L481.6,201.9L481.85,196.03L481.97,176.93L482.58,189.2L482.71,178.05L482.83,181.15L483.08,181.59L483.45,165.64L483.57,166.05L483.69,182.25L484.43,159.27L484.55,163.48L484.68,168.5L485.54,148.08L485.66,160.66L485.91,126.05L486.4,137.25L486.52,147.45L486.77,142.2L486.89,129.33L487.14,137.28L487.51,125.81L487.63,131.53L487.75,119.88L488.37,119.54L488.49,129.34L488.62,109.81L488.98,126.7L489.11,113.19L489.23,105.52L489.48,111.62L490.09,88.31L490.22,107.13L490.34,81.28L490.95,99.37L491.08,100.34L491.32,102.38L491.82,80.13L491.94,87.39L492.06,83.71L492.18,84.19L492.31,75.77L492.43,96.85L493.05,84.54L493.17,84.62L493.42,73.76L493.66,78.01L493.78,88.3L494.03,72.75L494.4,90.81L494.52,81.42L494.65,86.47L495.14,70.94L495.38,76.24L495.51,82.46L495.75,73.25L495.88,79.08L496,80.07L496.12,91.57L496.37,78.82L496.62,85.4L496.74,68.14L497.23,95.36L497.85,91.63L497.97,82.98L498.09,84.85L498.22,84.57L498.34,73.19L499.08,93.2L499.2,86.71L499.32,79.56L499.69,92.84L499.82,80.76L499.94,92.42L500.18,102.27L500.68,77.54L500.8,88.39L500.92,82.92L501.29,100.02L501.42,98.4L501.54,102.61L501.91,89.81L502.03,91.44L502.4,104.95L502.89,101.13L503.02,100.01L503.14,107.24L503.51,90.91L503.63,93.94L503.75,89.25L503.88,110.09L504,100.12" style="vector-effect: non-scaling-stroke; fill: none; stroke: rgb(239, 85, 59); stroke-opacity: 1; stroke-width: 2px; opacity: 1;"/></g><g class="points"/><g class="text"/></g></g></g><g class="overplot"/><path class="xlines-above crisp" d="M0,0" style="fill: none;"/><path class="ylines-above crisp" d="M0,0" style="fill: none;"/><g class="overlines-above"/><g class="xaxislayer-above"><g class="xtick"><text text-anchor="middle" x="0" y="433" transform="translate(80,0)" style="font-family: 'Open Sans', verdana, arial, sans-serif; font-size: 12px; fill: rgb(42, 63, 95); fill-opacity: 1; white-space: pre; opacity: 1;">0</text></g><g class="xtick"><text text-anchor="middle" x="0" y="433" style="font-family: 'Open Sans', verdana, arial, sans-serif; font-size: 12px; fill: rgb(42, 63, 95); fill-opacity: 1; white-space: pre; opacity: 1;" transform="translate(203.07999999999998,0)">1000</text></g><g class="xtick"><text text-anchor="middle" x="0" y="433" style="font-family: 'Open Sans', verdana, arial, sans-serif; font-size: 12px; fill: rgb(42, 63, 95); fill-opacity: 1; white-space: pre; opacity: 1;" transform="translate(326.15,0)">2000</text></g><g class="xtick"><text text-anchor="middle" x="0" y="433" style="font-family: 'Open Sans', verdana, arial, sans-serif; font-size: 12px; fill: rgb(42, 63, 95); fill-opacity: 1; white-space: pre; opacity: 1;" transform="translate(449.23,0)">3000</text></g><g class="xtick"><text text-anchor="middle" x="0" y="433" style="font-family: 'Open Sans', verdana, arial, sans-serif; font-size: 12px; fill: rgb(42, 63, 95); fill-opacity: 1; white-space: pre; opacity: 1;" transform="translate(572.31,0)">4000</text></g></g><g class="yaxislayer-above"><g class="ytick"><text text-anchor="end" x="79" y="4.199999999999999" transform="translate(0,395.88)" style="font-family: 'Open Sans', verdana, arial, sans-serif; font-size: 12px; fill: rgb(42, 63, 95); fill-opacity: 1; white-space: pre; opacity: 1;">15</text></g><g class="ytick"><text text-anchor="end" x="79" y="4.199999999999999" style="font-family: 'Open Sans', verdana, arial, sans-serif; font-size: 12px; fill: rgb(42, 63, 95); fill-opacity: 1; white-space: pre; opacity: 1;" transform="translate(0,341.28)">10</text></g><g class="ytick"><text text-anchor="end" x="79" y="4.199999999999999" style="font-family: 'Open Sans', verdana, arial, sans-serif; font-size: 12px; fill: rgb(42, 63, 95); fill-opacity: 1; white-space: pre; opacity: 1;" transform="translate(0,286.69)">5</text></g><g class="ytick"><text text-anchor="end" x="79" y="4.199999999999999" style="font-family: 'Open Sans', verdana, arial, sans-serif; font-size: 12px; fill: rgb(42, 63, 95); fill-opacity: 1; white-space: pre; opacity: 1;" transform="translate(0,232.09)">0</text></g><g class="ytick"><text text-anchor="end" x="79" y="4.199999999999999" style="font-family: 'Open Sans', verdana, arial, sans-serif; font-size: 12px; fill: rgb(42, 63, 95); fill-opacity: 1; white-space: pre; opacity: 1;" transform="translate(0,177.49)">5</text></g><g class="ytick"><text text-anchor="end" x="79" y="4.199999999999999" style="font-family: 'Open Sans', verdana, arial, sans-serif; font-size: 12px; fill: rgb(42, 63, 95); fill-opacity: 1; white-space: pre; opacity: 1;" transform="translate(0,122.89)">10</text></g></g><g class="overaxes-above"/></g></g><g class="polarlayer"/><g class="smithlayer"/><g class="ternarylayer"/><g class="geolayer"/><g class="funnelarealayer"/><g class="pielayer"/><g class="iciclelayer"/><g class="treemaplayer"/><g class="sunburstlayer"/><g class="glimages"/><defs id="topdefs-0caa17"><g class="clips"/><clipPath id="legend0caa17"><rect width="94" height="48" x="0" y="0"/></clipPath></defs><g class="layer-above"><g class="imagelayer"/><g class="shapelayer"/></g><g class="infolayer"><g class="legend" pointer-events="all" transform="translate(594.08,100)"><rect class="bg" shape-rendering="crispEdges" width="94" height="48" x="0" y="0" style="stroke: rgb(68, 68, 68); stroke-opacity: 1; fill: rgb(255, 255, 255); fill-opacity: 1; stroke-width: 0px;"/><g class="scrollbox" transform="" clip-path="url(#legend0caa17)"><g class="groups"><g class="traces" transform="translate(0,14.5)" style="opacity: 1;"><text class="legendtext" text-anchor="start" x="40" y="4.680000000000001" style="font-family: 'Open Sans', verdana, arial, sans-serif; font-size: 12px; fill: rgb(42, 63, 95); fill-opacity: 1; white-space: pre;">Stimulus</text><g class="layers" style="opacity: 1;"><g class="legendfill"/><g class="legendlines"><path class="js-line" d="M5,0h30" style="fill: none; stroke: rgb(99, 110, 250); stroke-opacity: 1; stroke-width: 2px;"/></g><g class="legendsymbols"><g class="legendpoints"/></g></g><rect class="legendtoggle" x="0" y="-9.5" width="88.796875" height="19" style="fill: rgb(0, 0, 0); fill-opacity: 0;"/></g><g class="traces" transform="translate(0,33.5)" style="opacity: 1;"><text class="legendtext" text-anchor="start" x="40" y="4.680000000000001" style="font-family: 'Open Sans', verdana, arial, sans-serif; font-size: 12px; fill: rgb(42, 63, 95); fill-opacity: 1; white-space: pre;">Percept</text><g class="layers" style="opacity: 1;"><g class="legendfill"/><g class="legendlines"><path class="js-line" d="M5,0h30" style="fill: none; stroke: rgb(239, 85, 59); stroke-opacity: 1; stroke-width: 2px;"/></g><g class="legendsymbols"><g class="legendpoints"/></g></g><rect class="legendtoggle" x="0" y="-9.5" width="88.796875" height="19" style="fill: rgb(0, 0, 0); fill-opacity: 0;"/></g></g></g><rect class="scrollbar" rx="20" ry="3" width="0" height="0" x="0" y="0" style="fill: rgb(128, 139, 164); fill-opacity: 1;"/></g><g class="g-gtitle"/><g class="g-xtitle"/><g class="g-ytitle"/></g></svg>