<svg class="main-svg" xmlns="http://www.w3.org/2000/svg" xmlns:xlink="http://www.w3.org/1999/xlink" width="800" height="600" style="" viewBox="0 0 800 600"><rect x="0" y="0" width="800" height="600" style="fill: rgb(255, 255, 255); fill-opacity: 1;"/><defs id="defs-bdba16"><g class="clips"><clipPath id="clipbdba16xyplot" class="plotclip"><rect width="612" height="420"/></clipPath><clipPath class="axesclip" id="clipbdba16x"><rect x="80" y="0" width="612" height="600"/></clipPath><clipPath class="axesclip" id="clipbdba16y"><rect x="0" y="100" width="800" height="420"/></clipPath><clipPath class="axesclip" id="clipbdba16xy"><rect x="80" y="100" width="612" height="420"/></clipPath></g><g class="gradients"/><g class="patterns"/></defs><g class="bglayer"/><g class="layer-below"><g class="imagelayer"/><g class="shapelayer"/></g><g class="cartesianlayer"><g class="subplot xy"><g class="layer-subplot"><g class="shapelayer"/><g class="imagelayer"/></g><g class="gridlayer"><g class="x"><path class="xgrid crisp" transform="translate(167.43,0)" d="M0,100v420" style="stroke: rgb(235, 240, 248); stroke-opacity: 1; stroke-width: 1px;"/><path class="xgrid crisp" transform="translate(276.71000000000004,0)" d="M0,100v420" style="stroke: rgb(235, 240, 248); stroke-opacity: 1; stroke-width: 1px;"/><path class="xgrid crisp" transform="translate(495.29,0)" d="M0,100v420" style="stroke: rgb(235, 240, 248); stroke-opacity: 1; stroke-width: 1px;"/><path class="xgrid crisp" transform="translate(604.57,0)" d="M0,100v420" style="stroke: rgb(235, 240, 248); stroke-opacity: 1; stroke-width: 1px;"/></g><g class="y"><path class="ygrid crisp" transform="translate(0,436)" d="M80,0h612" style="stroke: rgb(235, 240, 248); stroke-opacity: 1; stroke-width: 1px;"/><path class="ygrid crisp" transform="translate(0,352)" d="M80,0h612" style="stroke: rgb(235, 240, 248); stroke-opacity: 1; stroke-width: 1px;"/><path class="ygrid crisp" transform="translate(0,184)" d="M80,0h612" style="stroke: rgb(235, 240, 248); stroke-opacity: 1; stroke-width: 1px;"/></g></g><g class="zerolinelayer"><path class="xzl zl crisp" transform="translate(386,0)" d="M0,100v420" style="stroke: rgb(235, 240, 248); stroke-opacity: 1; stroke-width: 2px;"/><path class="yzl zl crisp" transform="translate(0,268)" d="M80,0h612" style="stroke: rgb(235, 240, 248); stroke-opacity: 1; stroke-width: 2px;"/></g><path class="xlines-below"/><path class="ylines-below"/><g class="overlines-below"/><g class="xaxislayer-below"/><g class="yaxislayer-below"/><g class="overaxes-below"/><g class="plot" transform="translate(80,100)" clip-path="url(#clipbdba16xyplot)"><g class="scatterlayer mlayer"><g class="trace scatter trace6c9067" style="stroke-miterlimit: 2; opacity: 1;"><g class="fills"/><g class="errorbars"/><g class="lines"><path class="js-line" d="M371.57,168L352.47,178.97L351.6,179.45L322.68,196.04L322.13,196.41L312.21,203.74L311.76,204.11L302.57,212.98L302.21,213.38L293.71,224.15L293.39,224.61L282.92,240.79L282.58,241.34L267.71,264.42L267.25,265.08L255.81,279.95L255.23,280.64L244.16,292.24L243.44,292.91L233.3,301.28L232.46,301.89L222.58,308.14L221.62,308.65L211.53,313.18L210.47,313.56L200.5,316.23L199.35,316.44L189.88,317.28L188.67,317.28L180.05,316.48L178.8,316.25L170.07,313.68L168.82,313.17L161.46,309.28L160.26,308.49L153.29,302.82L152.17,301.71L145.92,294.06L144.96,292.61L140.59,284.58L139.82,282.82L136.55,273.21L136.02,271.13L134.15,259.94L133.94,257.55L133.81,244.84L133.98,242.15L135.91,228.07L136.52,225.13L140.82,209.92L141.94,206.78L147.28,194L148.84,190.76L156,177.68L158.02,174.4L167.03,161.28L169.51,158.02L180.3,145.17L183.22,142.02L195.68,129.74L198.98,126.77L212.9,115.36L216.54,112.65L231.64,102.41L235.53,100.01L251.44,91.17L255.49,89.16L271.83,81.91L275.94,80.31L292.29,74.78L296.34,73.61L316.18,69.11L320.03,68.47L338.56,66.55L342.09,66.41L358.73,66.87L361.84,67.17L376.16,69.71L378.77,70.4L388.35,73.69L390.52,74.64L400.04,79.99L401.68,81.18L408.57,87.51L409.69,88.85L414.1,95.8L414.75,97.23L416.91,104.49L417.14,105.95L417.35,113.25L417.22,114.7L415.36,123.25L414.89,124.65L411.25,132.77L410.53,134.08L404.66,142.86L403.73,144.05L395.67,153.07L394.61,154.13L383.55,163.94L382.42,164.85L367.82,175.51L366.71,176.25L344.05,190.39L343.11,190.95L310.38,211.26L309.74,211.7L296.47,221.66L295.94,222.1L281.55,234.72L281.07,235.16L260.07,253.84L259.55,254.26L248.54,261.91L247.95,262.26L238.87,266.76L238.24,267.01L229.82,269.49L229.16,269.61L221.75,270.22L221.07,270.2L214.3,269.2L213.63,269.02L207.73,266.56L207.1,266.19L202.24,262.55L201.67,262L197.45,256.81L196.98,256.06L193.71,249.2L193.38,248.24L191.6,240.82L191.43,239.67L190.98,229.6L191.05,228.24L192.35,218.14L192.66,216.62L195.81,205.5L196.4,203.86L201.58,191.99L202.47,190.26L209.78,178.01L210.97,176.25L220.38,164.03L221.87,162.31L233.21,150.6L234.95,148.98L247.89,138.23L249.83,136.78L263.9,127.4L265.97,126.18L280.62,118.5L282.72,117.54L297.33,111.76L299.38,111.07L313.35,107.26L315.27,106.86L328.07,104.94L329.79,104.8L341,104.6L342.47,104.69L353.01,106.22L354.17,106.51L362.15,109.48L362.99,109.92L367.89,113.34L368.46,113.86L371.86,118.34L372.15,118.92L373.52,123.66L373.58,124.26L373.27,129L373.14,129.58L371.26,134.68L370.97,135.23L367.14,140.9L366.74,141.39L360.01,147.98L359.54,148.37L350.78,154.56L350.29,154.86L338.52,161.14L338.11,161.34L321,168.46L320.76,168.55L309.46,174L309.36,174.07L305.68,177.74L305.61,177.83L302.76,183.39L302.71,183.52L298.5,197L298.43,197.25L286.25,236.77L286.05,237.33L277.81,258.26L277.5,258.97L269.52,275.76L269.1,276.57L259.8,292.81L259.23,293.7L249.73,307.4L249.02,308.33L238.79,320.47L237.92,321.4L226.44,332.35L225.4,333.24L212.87,342.49L211.64,343.27L199.78,349.74L198.38,350.38L186.55,354.79L184.99,355.24L173.65,357.61L171.97,357.83L161.57,358.39L159.79,358.35L148.89,357.18L147.05,356.82L137.74,354.24L135.87,353.55L126.55,349.22L124.7,348.17L115.63,341.84L113.86,340.36L105.38,331.8L103.77,329.86L97.71,321.23L96.31,318.86L91.21,308.53L90.09,305.73L86.28,293.65L85.52,290.4L83.35,276.58L83.04,272.91L82.88,257.43L83.13,253.36L85.34,236.39L86.23,231.98L89.71,218.4L91.16,213.78L96.41,199.63L98.47,194.85L105.59,180.34L108.28,175.48L117.32,160.85L120.66,155.99L131.62,141.52L135.59,136.75L148.4,122.72L152.96,118.15L167.49,104.85L172.59,100.57L188.61,88.3L194.17,84.41L211.41,73.42L217.32,69.99L235.45,60.52L241.59,57.63L260.22,49.85L266.46,47.55L285.19,41.58L291.4,39.9L309.81,35.79L315.85,34.74L333.57,32.48L339.32,32.04L355.98,31.57L361.32,31.7L376.62,32.89L381.47,33.54L395.18,36.22L399.47,37.34L411.42,41.31L415.09,42.82L425.18,47.86L428.23,49.7L436.43,55.59L438.85,57.68L445.19,64.22L447,66.48L451.55,73.46L452.78,75.83L456.36,85.51L456.93,87.96L458.04,97.75L458.04,100.19L457.01,109.86L456.52,112.24L453.72,121.58L452.83,123.87L447.39,134.93L446.12,137.07L439.1,147.33L437.58,149.3L427.78,160.52L426.06,162.29L413.58,173.91L411.75,175.47L395.2,188.38L393.36,189.7L373.66,202.96L371.92,204.06L342.82,221.62L341.33,222.5L290.34,252.96L289.29,253.62L255.17,274.14L254.23,274.64L239.16,281.68L238.21,282.05L226.71,285.62L225.74,285.84L216.02,287.2L215.05,287.25L206.3,286.83L205.33,286.68L197.72,284.68L196.79,284.33L189.59,280.51L188.72,279.91L183.01,274.86L182.25,274.02L177.4,267.21L176.79,266.11L173.6,258.78L173.16,257.45L171.15,248.7L170.93,247.13L170.39,237.01L170.44,235.21L171.64,223.82L172,221.83L175.22,209.36L175.93,207.21L181.35,193.94L182.45,191.69L190.21,177.99L191.69,175.7L201.78,162.01L203.65,159.76L215.92,146.56L218.13,144.43L232.3,132.2L234.79,130.27L250.4,119.46L253.09,117.8L269.58,108.79L272.36,107.46L289.1,100.51L291.87,99.53L308.19,94.76L310.85,94.14L326.15,91.53L328.59,91.27L342.37,90.68L344.51,90.74L356.38,91.92L358.19,92.25L367.92,94.9L369.36,95.45L376.87,99.24L377.94,99.94L383.28,104.53L384,105.34L387.32,110.42L387.72,111.29L389.24,116.61L389.36,117.51L389.22,123.74L389.07,124.62L386.93,131.49L386.55,132.33L382.87,138.74L382.33,139.51L376.33,146.73L375.67,147.4L366.72,155.42L366.01,155.98L354.69,163.98L354,164.42L336.83,174.49L336.26,174.81L314.79,187.33L314.44,187.57L306,194.05L305.73,194.3L298.76,201.47L298.53,201.74L291.76,210.8L291.54,211.11L268.6,245.05L268.24,245.5L259.47,255.54L259.03,255.99L250.32,263.91L249.79,264.33L241.33,270.19L240.73,270.54L231.81,274.8L231.14,275.05L222.8,277.25L222.08,277.36L214.77,277.73L214.03,277.69L207.35,276.55L206.61,276.33L200.79,273.88L200.09,273.48L194.64,269.45L193.99,268.84L189.22,263.03L188.68,262.19L185.37,255.53L184.97,254.47L182.78,246.26L182.57,244.98L181.85,235.24L181.86,233.74L182.94,222.58L183.24,220.89L186.43,208.5L187.05,206.66L191.68,195.31L192.6,193.37L199.1,181.61L200.33,179.64L208.71,167.81L210.26,165.85L220.42,154.31L222.25,152.43L233.99,141.56L236.06,139.82L249.08,129.98L251.33,128.44L265.21,119.93L267.57,118.64L281.84,111.7L284.22,110.68L300.71,104.73L303.02,104.05L318.63,100.43L320.77,100.08L334.88,98.67L336.76,98.62L348.89,99.18L350.46,99.38L360.32,101.55L361.56,101.96L369.05,105.36L369.95,105.92L375.13,110.17L375.71,110.82L378.77,115.57L379.06,116.27L380.26,121.24L380.31,121.95L379.81,127.6L379.64,128.29L377.26,134.34L376.91,134.99L372.23,141.7L371.74,142.27L365.39,148.61L364.83,149.09L355.67,155.98L355.1,156.36L343.58,163.19L343.06,163.47L310.44,180.85L310.25,181L305.5,185.4L305.36,185.56L300.88,191.79L300.76,191.99L296.13,201.16L296.01,201.42L283.64,229.86L283.42,230.32L275.46,246.03L275.16,246.59L265.42,262.46L265,263.08L255.36,275.72L254.82,276.36L245.16,286.51L244.5,287.13L234.34,295.46L233.55,296.02L223.42,302.18L222.52,302.64L212.04,306.91L211.03,307.22L201.66,309.26L200.58,309.39L191.75,309.68L190.63,309.62L181.53,308.08L180.39,307.76L172.44,304.59L171.32,304L164.76,299.66L163.7,298.8L157.63,292.76L156.68,291.61L151.43,283.72L150.64,282.24L147.18,274.16L146.59,272.4L144.24,262.89L143.9,260.84L142.95,249.93L142.92,247.62L143.66,235.39L143.99,232.83L146.69,219.45L147.44,216.68L152.34,202.39L153.56,199.46L160.83,184.58L162.52,181.57L172.24,166.5L174.43,163.49L186.55,148.67L189.2,145.76L203.53,131.67L206.6,128.96L222.82,116.07L226.23,113.64L243.87,102.38L247.5,100.32L266,91.04L269.73,89.4L288.44,82.33L292.16,81.15L310.43,76.41L313.99,75.7L331.22,73.25L334.52,72.99L350.17,72.7L353.12,72.84L366.8,74.47L369.32,74.97L380.78,78.22L382.84,79L391.95,83.52L393.53,84.53L400.3,89.98L401.42,91.14L405.96,97.22L406.66,98.47L409.17,104.88L409.48,106.18L410.19,112.69L410.17,113.99L409.06,121.69L408.72,122.96L405.91,130.34L405.32,131.53L400.47,139.57L399.68,140.67L391.82,149.97L390.88,150.94L380.06,160.75L379.05,161.57L365.93,171.22L364.94,171.89L347.05,183.14L346.17,183.66L310.51,205.72L309.96,206.11L295.96,217.31L295.52,217.7L279.57,233.53L279.17,233.95L259.7,253.01L259.22,253.42L248.35,261.42L247.8,261.77L237.86,266.81L237.24,267.05L229,269.39L228.35,269.5L220.4,269.96L219.74,269.91L213.09,268.63L212.43,268.42L206.68,265.68L206.06,265.28L200.82,260.78L200.28,260.17L196.37,254.51L195.94,253.7L193.07,246.36L192.79,245.33L191.35,236.29L191.27,235.06L191.49,225.79L191.64,224.38L193.54,213.96L193.94,212.4L197.74,201.05L198.43,199.38L204.29,187.4L205.28,185.66L213.26,173.43L214.55,171.68L224.57,159.63L226.14,157.95L237.99,146.55L239.8,144.99L253.1,134.69L255.08,133.31L269.34,124.49L271.42,123.35L286.05,116.29L288.14,115.42L302.53,110.29L304.54,109.69L319.98,106.19L321.81,105.9L333.89,104.77L335.5,104.73L345.86,105.2L347.21,105.36L356.71,107.48L357.74,107.84L363.95,110.73L364.7,111.2L369,114.77L369.49,115.31L372.29,119.85L372.52,120.44L373.39,125.16L373.4,125.76L372.54,130.99L372.35,131.56L369.72,137.02L369.39,137.54L364.28,143.82L363.84,144.26L362.49,145.56" style="vector-effect: non-scaling-stroke; fill: none; stroke: rgb(99, 110, 250); stroke-opacity: 1; stroke-width: 2px; opacity: 1;"/></g><g class="points"/><g class="text"/></g><g class="trace scatter tracec883d0" style="stroke-miterlimit: 2; opacity: 1;"><g class="fills"/><g class="errorbars"/><g class="lines"><path class="js-line" d="M240.43,168L270.25,122.35L254.9,146.68L262.89,135.94L261.62,138.15L266.59,131.11L268.33,128.73L258.43,144.58L259.54,143.71L260.7,142.66L257.1,148.71L263.13,140.72L256.88,150.68L267.81,135.98L261.5,145.91L262.56,145.07L256.4,155.08L267.57,140.42L261.13,150.65L253.62,162.97L263.95,149.44L258.46,158.49L268.55,144.74L270.72,141.8L266.37,148.84L256.25,165.03L265.18,154.4L263.63,157.66L273.43,143.9L265.7,156.15L256.97,170.46L270.34,152.45L262.58,165.83L262.95,166.74L267.01,162.02L262.86,169.42L265.84,166.51L274.94,154.01L279.14,147.98L264.13,171.67L265.79,170.87L272.89,161.57L273.47,162.42L269.02,170.16L272.04,166.91L269.36,172.07L265.92,178.73L274.57,167.39L260.99,190.88L268.97,181.38L276,173.52L272.86,179.53L273.39,180.26L271.61,184.49L279.31,174.51L277.36,178.55L274.51,185.81L283.42,173.84L281.36,177.9L281.99,178.09L281.29,180.3L282.84,179.13L283.03,179.96L280.92,184.36L274.13,196.2L275.01,196.96L289.87,176.16L275.75,201.22L281.07,195.21L292.84,179.63L272.83,211.46L294.32,184.1L291.44,189.4L288.71,194.83L290.52,193.46L289.97,195.64L294.81,189.52L284.42,206.66L286.74,205.05L289.03,203.26L289.9,203.57L291.46,202.8L298.62,193.2L287.86,210.88L289.01,211.07L287.31,215.59L291.53,211.06L293.34,210L297.03,205.94L292.35,214.68L296.31,210.35L285.81,228.33L306.35,198.36L303.74,203.19L293.13,220.84L290.84,226.48L299.25,215.38L306.35,205.89L300.34,216.33L300.38,219.65L305.72,212.96L290,240.96L299.47,228.17L306.96,220L303.82,226.43L306.34,224.22L298.12,238.73L307.52,227.73L303.41,235.85L302.36,239.46L309.52,230.07L317.04,219.94L311.64,229.5L303.58,243.75L306.39,241.25L314.88,231.48L308.94,242.31L312.41,238.67L308.23,247L311.56,243.6L311.91,244.87L323.78,227.86L316.21,240.75L315.8,243.11L317.86,241.6L313.09,250.76L313.7,251.64L322.34,239.66L313.67,254.7L313.08,257.48L316.85,253.26L332.99,229.39L322.23,246.7L326.92,241.06L315.15,260.74L318.22,257.58L315.35,263.97L325.1,251.94L328.31,248.67L316.44,270.69L318.86,268.44L327.97,255.48L326.65,259.33L323.79,265.6L327.6,261.33L331.93,256.35L326.16,267.02L325.59,269.7L332.1,261.09L338.11,253.62L325.13,274.92L327.86,272.17L334.05,264.1L326.83,277.12L335.34,265.1L339.16,261.11L332.81,272.58L336.14,269.13L343.54,259.54L337.96,269.71L337.35,272.48L329.98,287.5L349.76,256.83L332.09,284.28L335.33,280.68L327.44,294.96L334.1,285.24L337.46,281.82L333.27,290.32L336.4,286.98L344.05,276.88L340.94,285.82L344,283.08L342.16,287.98L349.73,278.24L339.58,295.52L342.21,292.97L349.57,283.44L343.73,294.43L342.3,298.49L355.21,279.93L341.94,301.55L351.36,288.12L343.97,301.51L349.55,294.47L343.29,306.21L347.58,300.98L346.37,304.95L355.56,292.48L350.9,301.88L350.38,304.77L352.42,303.73L347.24,313.84L342.96,322.17L347.24,316.09L350.15,313.34L346.71,320.77L345.73,323.87L342.41,330.62L350.62,317.97L352.5,317.51L360.6,307.71L344.8,333.47L349.84,325.93L350.23,327.51L354.57,322.78L365.27,309.35L355.29,326.69L358.21,324.37L360.66,323.47L353.87,336.29L361.89,327.83L362.48,329.87L359.51,337.01L364.12,332.09L367.84,329.53L369.39,330.47L365.2,339.6L367.6,338.24L370.01,337.41L365.8,346.41L373.89,335.97L371.72,342.48L368.46,349.9L372.8,345.24L372.57,348.57L359.05,370.97L372,347.49L372.99,349.65L372.12,353.98L367.27,363.79L370.29,360.47L371.81,360.61L380.45,350.54L366.21,374.17L376.19,358.25L378.94,358.22L374.45,368.05L388.39,349.63L387.87,355.27L379.75,370.32L381.31,369.99L393.88,354.53L373.95,387.1L379.87,377.43L378.23,382.57L379.38,382.46L395.7,360.64L400.5,360.17L388.41,380.59L388.58,382.54L394.24,377.13L388.23,389.28L394.3,381.83L395.88,383.43L402.39,378.05L392.21,396.14L392.7,396.23L397.84,390.62L405.06,384.2L406.9,386.65L398.85,401.58L408.6,388.54L412.06,389.09L391.41,420.39L406.24,391L407.87,394.37L416.59,387.11L413.94,396.1L408.49,407.25L415.94,398.47L415.75,403.37L410.46,413.91L418.15,404.01L412.33,416.1L421.62,404.07L424.48,405.55L421.86,416.61L427.36,411.75L436.07,404.94L425.46,423.41L436.81,408.2L437.8,412.59L445.69,406.94L439.15,420.42L440.04,421.52L446.38,416.02L446.65,420.17L454.16,413.89L457.69,414.61L466.21,408.8L466.07,414.55L457.75,428.98L462.07,423.51L456.13,434.4L467.66,417.93L465.76,425.34L476.98,413.9L469.8,427.74L473.28,425.02L475.47,425.59L490.17,410.42L469.26,439.37L476.56,425.18L483.45,420.38L485.63,422.15L478.32,434.84L487.19,422.77L492.36,420.85L494.73,422.21L490.02,431.67L491.4,431.02L496.81,426.35L485.94,443.16L497.44,424.34L496.21,430.43L507.37,418.93L498,434.41L511.07,417.46L509.75,423.81L513.31,422.21L522.52,414.29L524.2,416.32L533.43,408.51L521.62,425.47L531.47,411.6L525.7,421.67L533.69,411.44L539.34,407.59L536.12,414L544.3,404.68L546.07,405.22L539.01,415.45L560.38,385.85L555.15,392.68L557.44,391.35L564.67,383.5L557.35,393.14L565.28,381.93L575.46,370.32L583.58,361.29L574.22,370.98L580.36,362.19L564.17,381.19L567.99,371.16L572.3,364.24L581.1,352.11L572.94,360.56L585.75,341.56L577.85,348.68L583.5,339.33L577.47,344.75L576.49,343.71L581.86,334.02L578.08,336.41L591.31,315.88L579.27,325.79L584.09,316.13L582.25,315.08L584.39,308.8L589.76,298.01L572.23,314.74L587.43,287.29L573.01,298.72L570.57,298.11L577.88,283.49L568.58,290.39L575.57,276.02L580.23,264.5L579.34,258.84L571.82,261.37L574.83,251.49L573.72,245.89L570.12,243.28L558.17,252.27L569.77,229.35L572.43,217.07L546.54,238.39L550.39,226.94L549.93,220.8L562.72,195.73L555.17,192.84L552.66,185.43L532.95,198.82L534.62,189.29L529.56,187.64L535.41,171.35L539.94,154.56L516.38,169.29L517.83,158.93L507.53,162.47L512.33,147.25L507.77,142.12L494,149.14L490.15,145.91L486.05,142.83L491.36,126.62L483.13,126.05L477.08,123.84L469.7,123.71L466.33,118.84L452.79,127.42L469.78,95.64L446.56,111.95L443.83,107.12L441.81,100.62L432.82,102.87L426.11,103.18L426.29,94.57L422.28,90.72L422.02,81.84L412.59,84.13L397.63,94.69L401.39,73.7L398.59,67.98L388.27,71.8L386.11,65.9L378.55,66.61L363.18,77.85L374.81,55.6L363.52,61.01L369.92,44.54L352.77,57.31L340.93,64.45L334.46,65.47L318.54,78.53L333.15,54.85L339.31,39.68L314.89,63.52L320.59,50.27L310.79,55.85L312.24,41.05L294.13,57.65L291.64,55.02L287.65,54.25L293.2,41.76L294.95,33.58L277.53,50.39L292.02,27.2L271.14,49.56L272.37,42.91L280.3,27.74L268.16,38.76L253.01,48.15L257.62,38.04L259.2,31.48L241.65,50.24L233.97,55.72L230.65,56.25L241.03,40.52L238.4,40.29L224.38,54.99L218.42,59.31L227.53,45.84L223.46,48.15L214.42,56.92L218.71,49.31L213.57,53.54L195.87,73.79L218.48,46.94L211.53,54.42L210.63,53.63L214.45,46.79L208.9,52.69L205.07,56.16L198.63,63.16L198.12,62.66L198.45,61.14L202.32,54.98L190.98,69.5L201.7,54.29L182.13,81.37L194.65,66.09L194.58,65.86L188.12,74.29L188.56,73.8L178.07,88.37L181.86,84.54L188.44,76.48L185.04,81.58L193.84,70.08L181.02,89.76L187.5,82.1L189.33,80.16L188.93,81.36L186.48,85.58L187.46,85.03L185.06,89.3L178.78,100.28L187.34,90.37L178.9,103.61L178.44,106.09L171.22,117.78L194.26,91.12L190.35,99.53L192.49,97.77L186.49,109.55L183.82,115.17L191.72,106.39L192.11,107.36L186.97,116.53L193.98,108.8L194.17,110.11L187.29,121.97L188.85,122.21L192.16,119.79L190.49,124.26L193.17,122.8L195.1,122.14L190.33,131.2L193.45,129.51L201.53,120.31L183.57,149.32L207.23,122.1L200.44,134.11L202.87,133.03L203.99,133.61L210.36,126.4L203.37,138.89L205.73,137.99L202.08,145.71L209.03,138.58L205.09,146.65L204.5,150.3L204.4,153.41L211.86,145.83L214.49,144.3L218.83,140.02L215.24,147.44L207.52,161.43L212.64,157.57L224.76,142.7L214.71,160.09L223.17,150.76L212.65,168.88L219.44,162.77L230.69,148.95L224.86,159.77L223.94,163.71L216.26,177.9L231.4,160L220.41,178.88L229.65,169.26L237.91,159.5L225.98,179.82L230.83,176.26L242.7,161.54L237.75,170.98L229.22,186.4L231.67,186.45L237.75,180.88L238.14,183.09L233.96,192.29L235.77,193.28L252.84,171.66L249.65,178.34L252.99,175.58L253.56,176.71L253.22,179.27L244.51,194.75L239.99,204.79L257.83,182.33L257.91,184.15L250.72,197.36L258.95,188.03L254.94,196.38L263,186.98L255.36,200.72L266.88,188.39L265.14,193.03L266.56,193.11L264.33,198.68L260.42,209.97L258.11,216.53L274.64,194.87L271.62,201.34L274.73,198.88L263.81,217.69L260.87,225.44L274.11,208.82L276.78,207.09L282.36,200.83L271.96,221.09L273.43,221.79L281.48,212.28L270.12,231.95L275.99,226.3L283.98,216.87L277.86,228.59L291.75,210.13L284.12,223.57L282.12,229.24L280.9,233.89L287.31,226.89L289.52,225.97L283.97,236.93L291.7,230.53L296.07,226.26L289.39,238.71L294.16,234.06L303.25,224.66L302.08,228.42L289.1,253.09L303.61,233.09L305.42,232.43L298.44,245.22L301.36,243.23L310.37,231.67L311.84,231.37L307.57,239.79L307.72,241.76L305.89,246.81L311.23,240.85L308.89,246.56L309.37,248.09L318.46,236.24L302.96,261.52L310.69,251.65L314.9,249.62L302.66,270.66L313.86,254.94L315.76,254.23L308.84,267.17L319.68,252.22L313.89,263.24L315.9,262.38L313.81,267.92L323.04,255.6L320.85,261.11L326.39,254.77L317.77,269.94L318,271.79L319.19,272.13L321.52,270.67L319.8,275.6L324.76,269.93L316.29,285.29L332.3,261.3L323.22,277.15L323.82,278.37L326.63,276.18L323.86,282.75L320.48,290.23L331.15,274.93L333.32,273.98L332.43,277.65L328.13,286.54L328.59,287.93L341.34,269.97L327.02,293.43L349.2,265.73L337.89,284.21L332.81,294.19L340.06,284.7L331.82,299.59L334.44,297.15L337.3,294.7L338.79,294.62L335.39,302.12L343.81,290.67L341.65,296.45L344.53,294.31L343.68,298.05L339.44,306.83L349.75,292.39L348.37,297.11L348.36,299.58L349.48,300.31L345.17,309.22L352.24,300.13L357.73,294.57L359.05,295.43L343.37,320.75L351.97,307.72L358.74,299.95L357.99,303.81L355.16,310.53L363.19,300.63L365.16,300.64L367.49,300.09L358.59,315.51L366.63,305.12L368.54,305.17L356.89,324.56L363.93,314.65L359.21,324.11L376.02,299.62L367.12,314.88L373.7,307.57L363.75,324.49L377.99,304.29L364.65,325.72L370.11,318.88L369.25,324.95L381.65,308.57L380.64,316.16L373.91,328.45L378.54,323.34L371.85,335.63L374.81,332.38L365.07,349L381.5,321.55L377.08,331.1L377.21,333.3L378.24,334.21L381.46,331.95L387.79,325.69L381.48,337.6L392,324.29L387.75,333.49L393.07,328.59L387.52,339.43L388.91,339.53L389.72,340.77L394.65,335.96L402.97,327.39L390.79,346.88L397.46,338.3L399.88,337.86L407.23,330.61L393.28,352.41L401.95,342.29L404.69,341.35L404.99,343.85L406.62,344.32L402.63,352.57L410.88,342.2L418.02,335.84L405.54,355.31L425.19,327.33L407.99,352.08L408.98,351.81L420.43,337.41L410.53,353.67L414.92,350.92L427.62,335.5L428.37,338.1L429.69,339.57L424.65,349.13L430.29,343.34L421.97,357.17L434.55,339.53L430.15,348.36L435.7,342.89L426.94,357.15L439.89,339.05L431.48,352.87L436.57,347.03L439.75,345.29L432.69,357.12L439.5,348.14L438.8,351.56L440.83,350.69L440.32,353.47L447.21,345.72L444.07,352.42L457.31,338.83L452.26,347.74L457.17,342.94L458.17,343.88L467.26,334.01L455.35,350.86L457.9,347.88L453.98,354.7L458.01,349.25L461.54,345.85L464.93,342.94L474,332.9L462.46,348.95L466.49,343.72L468.57,342.31L479.12,329.56L480.61,329.37L483.54,327.11L475.27,338.57L477.44,336.02L474.04,341.41L472.14,344.15L484.7,325.89L487.53,323.39L498.35,310.68L484.33,327L475.71,338.73L485.87,322.39L494.22,311.83L479.09,330.49L488.7,315.4L493.55,309.35L482.66,322.88L490.89,310.43L484.05,319.16L493.58,305.06L494.21,303.92L487.92,311.48L485.63,313.98L488.35,309.27L503.18,287.99L487.78,305.08L496.74,290.99L489.25,299.43L488.15,299.72L499.13,282.94L495.52,285.71L499.32,279.16L501.03,275.04L496.84,278.15L505.92,264.06L497.23,271.52L495.13,272.06L503.18,258.78L497.53,262.55L489.6,270.43L498.46,255.28L497.02,253.84L496.46,251.39L484.91,263.42L489.81,253.59L487.55,253.75L492.55,243.83L504.18,224.71L483.47,243.38L482.67,241.46L480.7,241.01L496.28,215.59L488.56,218.77L474.94,231.47L480.08,220.78L476.08,221.81L474.87,219.54L464.07,230.45L464.02,227.5L470.57,214.53L468.28,213.44L470.87,205.77L467.56,205.44L465.93,203.16L468.66,184.35L462.12,186.53L458.5,185.9L460.85,177.43L458.29,174.56L459.38,166.92L446.67,176.21L451.94,163.89L439.25,173.6L437.13,171.68L439.75,163.02L432.52,166.77L431.46,163.2L429.77,160.17L416.25,168.8L426.73,149.78L418,143.2L403.26,156.89L411.04,141.86L406.93,141.54L399.55,146.07L404.37,134.73L408.1,123.79L395.22,133.69L391.37,133.59L391.2,128.61L389.84,124.84L386.48,123.55L374.33,134.09L382.13,119.17L371.9,126.93L372.19,121.87L367.56,122.99L372.67,111.35L367.56,112.31L366.61,108.15L357.82,114.14L355.32,112.63L358.78,103.14L349.98,109.15L348.8,105.91L345.68,105.04L337.74,110.65L335.65,109.17L347.15,89.7L343.29,88.99L328.08,98.57L332.16,88.72L315.75,105.24L317.36,99.51L315.51,97.85L311.79,98.63L316.46,88.65L306.53,97.28L303.85,97.08L313.62,80.71L302.31,91.18L308.41,79.39L298.81,87.79L305.44,75.29L297.54,81.5L283.97,95.58L297.88,74.78L294.21,75.58L293.33,72.8L281.38,84.99L286.86,74.59L278.02,82.79L269.05,88.46L269.81,84.81L262.9,91.06L270.88,78.47L265.68,79.61L267.17,74.9L267.58,71.51L264.91,72.29L262.06,73.43L255.71,79.43L258.29,71.18L245.87,85.83L249.65,79.12L241.83,87.6L241.48,86.5L239.57,87.44L249.5,72.92L236.77,88.78L250.47,69.53L236.03,88.33L233.34,90.74L233.5,89.52L237.98,82.48L236.96,82.55L239.57,77.69L233.15,85.41L228.63,90.57L233.87,82.78L236.43,78.14L226.95,90.57L227.16,89.67L229.81,85.41L221.4,96.39L230.1,83.95L225.61,89.66L235.66,75.15L232.69,78.14L230.11,81.26L211.15,106.99L223.33,91.5L224.29,89.95L236.72,71.69L223.44,92.68L224.54,90.97L213.65,106.81L217.35,102.46L214.48,106.86L227.82,89.02L233.22,80.82L215.1,109.01L234.17,83.26L218.8,107.17L220.54,105.32L223.72,101.21L215.39,115.29L222.24,106.68L216.36,115.86L230.41,97L221.7,110.75L223.1,109.46L227.5,103.62L214.84,123.25L220.76,116.44L226.61,108.87L225.28,111.44L241.11,88.57L226.16,114.26L231.26,107.46L226.18,115.72L227.67,114.33L228.77,113.41L234.26,105.82L224.53,121.42L225.74,120.74L222.71,126.2L235.28,109.23L231.09,116.24L234.43,111.94L226.83,124.27L234.81,113.6L223.38,131.87L237.56,112.92L234.02,118.95L227.12,130.28L238.9,114.33L231.19,126.94L241.77,112.2L227.23,135.71L237.9,121.78L238.17,122.05L240.51,119.19L229.54,138.62L243.59,119.55L230.82,140.88L233.14,139.12L249.18,116.7L244.71,124.3L250.19,116.41L240.02,133.18L241.05,132.71L247.65,123.57L247.29,124.69L242.61,132.71L251.66,119.77L249,124.44L246.11,129.61L244.82,132.41L248.36,127.8L242.03,138.42L246.01,133.52L239,145.25L241.81,142.55L244.24,140.09L232.66,159L245.55,142.6L254.39,130.1L249.77,138.03L253.26,133.52L251.39,137.16L258.28,127.19L246.58,146.47L245.22,149.9L246.4,149.53L257.86,134.13L248.18,150.14L255.02,141.07L251.37,147.6L257.26,141.43L254.55,146.46L250.24,154.25L268.75,127.27L261.07,140.55L266.36,132.78L259.12,145.79L263.57,139.61L258.9,148.5L259.49,148.49L257.75,152.16L263.01,145.03L267.04,139.29L256.08,157.44L265.28,145.16L256.92,159.23L275.47,131.76L260.93,155.77L261.04,156.81L264.37,152.71L272.73,141.34L266.42,151.9L261.91,159.94L263.66,158.4L272.3,146.4L266.7,155.91L263.66,161.69L265.33,160.27L274.94,146.8L265.38,162.72L270.8,155.37L267.22,161.84L279.72,143.79L265.62,167.09L269.62,162.17L276.19,152.65L267.35,168.23L274.65,157.95L273.59,161.14L276.1,157.94L271.63,165.81L279.29,154.66L280.84,152.58L276.63,159.8L269.47,172.1L278.52,159.06L281.17,155.32L272.3,170.22L288.27,147.27L272.43,173.41L285.82,153.37L281.43,161.14L284.53,156.71L283.24,159.2L291.26,146.61L274.27,175.15L281.07,165.49L285.17,159.49L277.9,171.78L286.32,159.22L279.6,170.54L282.14,167.38L286.5,162.05L281.81,170.17L285.45,165.08L284.09,167.83L282.97,170.36L289.98,160.31L294.06,153.88L282.98,172.22L296.39,151.29L287.76,165.38L282.39,174.74L291.11,162.91L284.6,173.9L289.22,167.21L284.39,175.57L280.92,183.15L284.08,179.2L296.89,160.03L293.98,165.15L287.91,175.44L294.18,165.94L291.88,170.41L283.54,184.65L297.12,163.59L286.9,180.53L288.57,178.76L293.96,171.12L290.18,177.77L286.84,184.03L301.58,160.83L289.27,181.06L292.36,176.94L303.16,159.75L291.7,179.09L296.41,172.07L291.28,180.87L294.68,176.05L287.48,188.43L300.02,169.08L300.19,169.8L297.56,174.32L298.62,172.97L293.36,182L299.52,172.56L295.25,179.85L293.79,182.92L303.74,167.17L292.42,185.91L303.75,168.28L295.78,181.54L300.74,174.41L293.55,186.56L292.44,189.25L299.53,178.38L292.2,190.9L299.77,179.36L300.4,178.73L295.56,186.83L311,162.59L300.56,179.51L299.26,182.13L295.23,189.32L303.39,176.6L295.97,190.47L309.3,169.16L299.87,185.41L303.37,180.17L298.62,188.38L306.32,176.3L301.72,184.26L299.97,187.66L304.21,181.21L294.48,197.66L311.51,171.45L307.77,178.05L297.97,194.37L300.4,191.2L306.91,181.02L298.1,196.84L301.36,192.31L308.68,180.77L307.23,183.84L299.33,197.23L310.2,179.96L305.04,189.53L306.51,187.6L312.92,177.37L302.84,193.95L310.38,182.6L297.58,203.95L311.47,181.75L305.24,192.51L302.02,198.43L308.97,188.18L301.15,201.47L312.21,185.58L301.69,203.13L307.93,193.56L298.02,210.49L318.15,177.79L306.44,197.66L307.14,197.12L307.3,197.46L315.68,184.13L303.33,205.69L311.26,193.32L318.83,181.24L305.59,203.48L318.77,182.25L302.2,209.19L306.88,203.15L306.68,204.2L307.54,203.51L311.67,197.33L309.34,201.63L303.97,211.16L315.74,193.11L312.6,199.12L302.1,216.93L315.94,194.76L306.17,211.73L317.13,194.34L317.88,193.3L304.76,214.99L315.71,199.02L310.69,207.65L313.33,204.01L310.24,209.67L323.34,189.81L318.06,198.29L309.98,211.88L321.81,194.29L313.97,207.11L309.37,215.37L317.9,202.02L310.99,215.22L313.89,211.22L312.15,214.8L321.81,199.59L313.32,214.4L316.42,210.01L309.15,222.56L314.13,215.26L322.58,202.05L325.97,196.87L319.24,208.2L314.48,216.5L313.08,219.6L314.87,217.5L319.55,211.93L308.52,230.56L327.17,200.28L315.52,219.84L314.07,223.05L310.66,229.6L317.54,219.15L314.69,224.62L319.86,217.01L302.76,247.78L319.22,220.75L318.21,223.15L309.57,238.17L318.38,224.52L317.74,226.44L312.07,236.65L308.93,243.03L325.36,216.51L319.42,226.63L326.45,216.13L321.91,223.99L322.54,223.85L321.71,226.05L324.78,221.95L313.92,240.14L305.69,254.98L314.12,241.7L320.09,234.11L317.59,239.25L323.82,230.12L318.28,240L323.72,232.2L322.69,234.85L317.75,243.91L323.85,234.98L320.07,242.13L321.4,241.1L321.16,242.62L319.93,245.79L324.07,240.14L323.29,242.54L333.95,226.33L313.7,260.48L323.51,244.99L324.78,244.13L323.41,247.53L325.64,245.11L324.35,248.39L324.37,249.58L322.17,254.39L330.79,241.47L329.82,244.17L330.34,244.53L316.58,267.62L329.26,247.22L331.09,245.55L320.32,263.84L321.55,262.99L321.86,263.77L328.47,255.6L317.37,274.77L330.43,253.71L325.62,262.77L326.55,262.67L332.86,255.41L329.45,262.24L332.7,259.98L324.58,274.31L330.65,265.55L329.27,269.27L341.36,254.69L323.87,282.89L336.42,262.89L323.06,285.36L332.78,270.12L334.89,268.46L331.62,275.28L341.84,260.44L339.49,265.73L335.19,274.08L336.36,273.86L339.64,270.37L339.13,272.91L340.47,272.54L332.63,286.46L328.78,294.08L330.03,293.07L329.48,295.26L337.61,283.02L339.6,281.77L336.05,289.17L339.84,284.77L338.96,288.06L332.94,299.34L336.33,295.05L336.45,296.57L335.95,300.63L340.23,295.35L340.31,297.2L344.8,292.08L337.04,310.16L346.91,295.48L338.57,310.53L340.47,308.87L352.25,291.99L341.68,310.18L333.58,324.62L346.32,303.69L339.15,319.45L334.48,328.41L347.65,307.14L357.96,294.56L341.23,321.18L352.03,305.43L346.01,317.29L345.87,319.64L346.93,320.15L357.66,305.87L344.86,327.38L354.98,312.81L350.14,322.99L350.63,324.52L346.29,333.49L353.4,323.7L353.34,326.65L342.14,346.07L347.81,336.77L351.43,333.24L347.9,341.17L349.72,340.01L348.89,343.46L357.66,331.72L350.06,348.23L351.12,348.43L358.39,339.4L344.2,363.45L355.12,344.94L357.7,344.67L341.31,374.34L348.26,361.63L344.59,369.75L354.46,355.04L358.34,353.39L350.44,368.64L353.71,365.44L354.09,370.7L364.72,357.43L353.54,377.62L357.42,373.09L355.28,379.52L351.71,387.01L362.93,370.46L355.67,385.32L357.87,383.8L362.94,379.22L370.97,371.88L370.03,378.44L364.67,393.46L370.18,387.54L367.24,395.75L370.45,393.42L378.04,386.31L370.8,401.22L370.89,403.13L377.28,396.36L378.04,399.84L382.12,398.13L379.31,406.62L385.68,400.67L381.24,411.56L391.11,400.01L386.84,411.35L392.76,406.25L399.29,402.96L378.67,435.07L381.13,426.84L379.08,431.39L388.53,417.74L384.77,428L391.52,420.9L396.86,419.19L399.3,421.86L396.39,430.95L403.91,424.21L385.08,456.47L394.75,436.82L389.27,452.04L391.18,450.92L391.8,453.16L396.55,449.57L408.56,438.84L413.36,441.1L410.89,451.34L405.22,463.3L414.85,451.25L422.07,449.01L425.18,452.33L420.63,464.09L427.35,458.08L430.43,460.28L436.64,458.07L434.43,467.17L439.95,463.88L441.24,468.17L440.96,473.21L438.46,479.79L453.02,462.38L451.39,472.46L455.04,472.72L455.33,477.86L462.97,472.43L465.05,476.6L461.01,486.47L468.62,478.65L463.85,490.25L474.52,478.04L470.09,490.14L483.1,476.1L483.66,483.52L480.61,492.21L477.79,498.08L487.8,486.19L495.62,483.98L500.89,484.72L504.94,486.47L499.52,498.13L509.69,486.66L501.35,502.3L520.19,477.82L507.72,498.94L520.14,482.95L523.19,486.81L530.88,482.98L535.75,483.74L525.5,500.44L525.69,498.25L535.16,488.54L524.92,505.51L528.6,498.31L532.22,497.34L553.82,476L541.31,495.73L551.19,484.22L551.43,489.66L563.9,478.35L554.02,494.67L559.49,486.94L566.49,482.83L565.03,488.72L569.71,484.79L586.03,469.35L595.46,464.89L602.03,462.2L614.67,452.28L598.95,472.01L606.81,460.65L615.87,451.78L624.79,444.15L622.23,448.8L637.88,430.38L624.54,445.54L637.04,426.52L651.73,410.99L636.14,427.11L639.12,419.24L634.98,423.21L641.36,411.91L638.21,414.77L652.2,394.46L647.68,397.66L660.24,379.86L646.37,392.23L649.97,383.53L650.28,380.42L655.15,371.03L678.6,334.3L665.63,339.62L663.45,337.05L653.79,344.47L662.39,325.73L658.14,324.72L659.06,317.53L673.06,292.34L656.93,299.28L662,285.15L659.72,278.7L655.62,274.88L654.13,268.01L639.6,278.64L654.16,247.59L646.76,243.55L644.6,235.41L639.56,230.39L632.89,228.34L639.23,208.76L626.62,210.1L620.11,207.99L623.24,192.4L609.29,197.17L614.13,179.41L608.76,172.05L601.82,167.08L585.74,175.61L591.28,156.74L574.48,165.73L591.93,128.15L565.18,140.51L567.02,125.66L552.3,129.68L550.33,120.01L538.98,121.69L534.23,116.51L533.48,104.99L518.29,111.76L525.52,89.89L511.95,92.24L509.15,82.89L499.01,82.12L501.4,65.38L475.39,82.83L472.16,76.43L462.9,77.45L468.32,58.8L450.5,68.93L443.2,68.22L438.65,63.91L429.76,65.43L432.53,51.54L430.18,43.19L419.03,46.1L397.81,63.59L402.18,48.98L402.41,38.6L393.49,39.87L384.06,42.38L383.68,33.32L378.15,30.61L369.13,32.6L364.02,29.84L351.39,36.97L346.2,34.98L344.75,28.22L347.22,16.27L328.57,31.72L327.88,24.45L316.4,30.86L320.19,18.29L310.06,23.3L305.61,21.13L307.67,10.94L296.42,17.94L291.64,16.64L266.43,41.18L282.66,16.61L264.5,33.07L259.93,32.35L263.3,22.51L259.73,20.97L260.12,14.72L241.31,33.19L242.6,26.56L237.09,28.19L237.08,23.33L222.89,36.23L225.57,28.92L220.86,30.49L212.22,37.02L204.3,42.8L211.23,31.75L196.91,46.34L202.26,37.59L202.81,34.16L195.55,40.62L203.85,28.01L193.91,39.09L189.85,41.98L179.88,52.51L182.17,48.49L177.78,52.49L186.62,40.53L177.8,51.13L165.57,65.61L174.9,53.86L175.96,52.07L162.82,69.65L175.98,53.99L156.11,81L159.35,78.62L169.82,66.97L162.28,78.1L154.96,90.45L159.12,87.23L143.12,109.96L163.19,90.78L156.54,101.47L168.72,88.34L158.32,104.74L160.43,104.75L169.01,95.86L161.7,108.14L163.26,108.8L158.27,118.22L166.92,110.38L167.56,111.99L168.28,113.61L173.5,108.95L164.97,123.66L170.73,119.32L171.89,120.46L169.27,127.03L177.11,119.53L179.83,118.09L169.17,136.36L166.85,143.52L168.33,146.03L182.86,131.06L183.19,133.32L172.35,152.15L185.35,139.46L174.07,158.89L178.34,158.34L194.94,140.28L184.47,158.64L187.78,158.49L191.68,157.05L197.74,152.09L189.66,167.18L201.8,154.86L200.29,160.1L189.45,179.5L197.35,174.15L197.74,177.93L192.63,189.79L207.47,175.47L207.6,179.09L206.33,185.11L210.12,184.35L200.91,201.81L204.04,203.68L216.81,192.05L218,194.69L228.04,184.94L223.01,195.71L220.75,203.36L228.47,197.35L222.48,210.03L223.48,213.89L230.98,208.67L233.92,209.04L234.45,212.8L243.86,204.09L238.99,214.85L237.56,221.52L238.15,225.68L244.4,221.96L237.8,236.01L245.71,230.63L257.16,219.36L266.32,213.76L263.07,221.79L254.58,237.89L273.3,216.05L257.95,241.21L263.38,238.38L266.95,237.72L267.42,241.36L268.88,243.72L275.55,238.6L275.93,242.06L271.09,253.18L273.27,254.74L270.18,263.88L275.42,261.27L288.76,246.63L277.91,265.96L284.94,260.5L293.2,252.94L295.95,252.94L284.68,272.9L297.97,257.96L293.92,271.81L293.93,276.09L312.21,253.53L304.92,267.14L311.31,261.85L312.92,263.23L310.38,270.49L300.61,288.39L312.81,273.99L302.06,293.31L314.93,281.72L308.03,295.59L306.65,301.4L324.2,278.18L318.29,290.28L325.68,283.12L318.6,297.01L315.13,305.75L323.93,295.65L330.28,289.99L329.84,294.34L320.07,312.15L329.56,304.01L338.36,294.5L335.18,302.72L334.32,307.44L336.02,308.29L336.72,310.63L342.84,304.87L327.43,330.63L339.29,313.24L338.04,318.59L343.72,313.12L338.79,323.8L346.78,314.42L347.31,317.24L344.17,325.19L349.15,320.6L346.09,328.46L347.8,328.64L355.55,319.99L355.89,323.12L362.84,316.49L364.87,317.47L363.74,322.74L359.12,332.75L357.04,340.94L364.83,331.29L361.65,339.2L378.52,316.66L363.76,340.17L372.59,329.21L371,335.21L367.37,343.59L362.35,353.41L376.82,332.03L365.45,354.08L371.06,347.22L372.86,347.64L377.33,344.18L378.31,346.32L384.71,340.64L378.11,353.55L386.58,343.62L385.37,349.27L381.5,357.91L390.48,347.05L380.23,364.89L389.04,352.69L394.12,349.48L381.7,370.05L391.4,355.76L391.43,359.54L393.42,359.8L402.48,350.46L400.26,357.8L387.94,377.95L402.54,355.06L401.02,361.52L406.67,357.11L406.36,361.56L413.57,355.24L412.53,360.85L409.94,367.76L416.07,361.87L416.1,365.49L425.4,356.07L415.82,372.39L419.66,368.68L421.83,368.71L428.59,362.58L421.73,375.27L426.39,370.34L436.25,360.14L436.16,364.33L440.29,362.48L430.47,378.65L434.15,374.25L435.05,375.44L447.32,360.79L450.28,361.24L439.45,381.01L444.15,375.16L435.91,388.75L449.05,368.33L445.38,376.68L467.87,348.45L448.8,373.26L455.76,365.14L454.07,370.56L460.63,364.01L465.22,361.35L462.14,368.18L471.32,358.1L470.07,362.69L475.21,358.43L469.28,368.53L465.99,374.15L475.74,360.71L479.45,358.6L477.29,363.58L484.59,355.63L474.83,369.99L488.98,350.05L479.96,363.26L486.66,354.8L489.11,353.55L498.48,343.27L493.51,351.9L503.15,340.22L486.47,363.62L502.92,335.87L504.02,335.7L502.46,338.26L516.18,321.08L491.79,348.87L508.51,321.21L507.9,322.16L495.03,338.14L502.16,326.58L510.39,315.43L512.99,311.85L507.89,317.45L519.55,300.15L513.03,306.56L505.25,314.39L504.27,314.21L521.24,287.74L509.62,299.39L516.83,287.7L509.66,294.63L510.23,291.9L522.42,273.2L504.4,291.46L511.57,278.68L524.04,256.65L511.67,266.69L507.1,269.81L523.76,243.51L518.22,244.05L496.72,265.79L496.32,263.38L508.44,242.26L503.74,243.67L502.1,241.92L514.39,221.23L496.49,235.79L493.79,235.66L499.56,223.57L488.69,232.69L504.74,205.77L484.76,222.68L493.79,205.84L484.35,211.78L488.05,201.93L488.36,195.56L486.84,191.07L480.38,192.73L477.95,190.06L467.05,193.46L480.66,169.26L460.95,185.39L470.29,167.33L458.05,175.48L460.71,166.2L452.17,170.7L457.52,157.7L459.24,148.07L447.51,154.62L443.04,153.95L439.7,151.93L437.22,148.79L431.6,149.77L437.11,136.22L428.16,140.11L432.89,127.23L422.47,132.39L418.09,131.3L416.29,126.91L410.1,127.98L406.98,125.59L413.21,110.76L399.31,120.29L401.92,110.44L400.17,105.16L393.47,105.98L387.89,105.89L392.46,92.97L375.45,106.25L365.99,112.2L371.17,99.95L365.25,100.87L363.91,96.35L368.83,83.53L365.17,80.62L347.63,95.49L348.97,88.07L338.41,95.16L334.34,94.87L338.32,84.52L325.58,94.64L339.68,71.95L334.92,71.36L321.43,82.21L318.68,80.32L316.74,77.35L319.25,68.7L310.84,73.57L307.1,72.96L291.67,87.26L296.7,77.1L290.28,80.42L305.85,56.76L287.91,74.9L284.79,74.49L282,73.76L283.95,67.12L269.24,81.58L281.18,63.55L276.14,65.8L263.59,77.89L284.8,48.34L269.67,64.85L269.62,61.11L267.86,59.63L256.96,70.26L258.48,65.15L247.89,72.43L254.25,61.61L252.52,60.77L247.91,63.83L250.05,58.15L254.12,49.75L244.19,60.71L239.21,64.66L231.2,72.71L230.52,71.55L236.8,59.17L222.91,76L224.14,72.95L222.83,73.04L227.66,65.15L243.68,41.64L226.64,66.5L239.03,48.06L223.22,70.15L224.54,66.91L223.55,66.79L216.28,75.32L223.55,64.65L222.41,64.96L204.96,88.19L218.32,71.32L212.19,77.86L211.54,78.08L211.47,77.56L204.57,86.42L213.07,74.55L197.73,95.18L215.57,72.77L218.11,68.72L208.27,83.15L203.93,89.12L206.86,85.7L203.24,90.94L205.74,87.82L203.51,91.23L214.01,77.36L204.54,92.04L200.75,97.9L209.41,86.67L211.74,84.19L201.3,100.54L207.38,92.92L211.98,86.73L195.82,111.73L209.76,94.64L204.26,103.37L214.84,89.25L207.41,101.2L220.56,82.97L197.06,121.12L213.12,101.89L211.53,104.92L205.61,114.44L215.87,101.4L207.71,114.36L212.31,109.15L210.43,112.87L210.06,114.58L221.47,99.32L208.66,119.97L217.47,109.02L218.4,108.48L213.12,117.37L217.41,112.4L212.39,120.91L210.89,124.54L213.76,122.02L213.18,124.28L217.07,120.14L219.76,118.61L217.09,123.79L219.8,121.19L211.72,134.56L207.75,142.35L224.66,121.31L217.64,133.13L221.93,128.64L229.18,119.19L226.91,123.7L219.18,138.3L229,125.84L228.27,128.06L223.62,136.43L216.05,149.43L235.08,124.84L225.02,141.57L225.71,142.45L226.98,142.37L228.91,141.25L233.62,135.81L233.88,136.71L234.11,137.7L225.86,151.77L243.89,127.54L233.02,145.71L241.14,135.21L232.04,150.52L234.2,149.26L229.95,157.44L239.67,145.38L233.53,156.22L247.84,136.99L246.24,140.39L238.6,153.53L249.49,139.77L238.21,158.64L248.64,145.02L246.42,149.57L241.43,158.71L244.82,155.45L239.85,164.69L245.47,158.45L255.01,146.45L242.83,166.78L253.47,152.92L247.69,163.15L257.67,149.67L247.14,167.3L251.75,162.34L251.24,164.72L262.58,148.95L258.22,156.66L246.46,176.41L251.14,171.77L251.29,175.52L257.25,168.52L263.49,160.42L262.59,162.95L266.27,158.42L259.67,169.85L260.09,170.84L262.41,168.82L267.09,162.93L265.35,166.74L260.4,175.84L270.19,162.41L261.42,178.63L261.99,179.6L271.08,167.23L264.25,179.1L269.61,173.89L263.65,184.61L263.18,187.32L266.25,184.58L273.79,175.85L284.14,160.76L270.34,184L277.92,173.79L269.9,187.53L273.03,184.46L276.97,179.75L274.25,185.3L273.14,188.63L276.99,184.25L285.88,171.54L280.06,181.52L278.72,184.92L281.52,181.82L276.57,190.85L282.98,182.32L270.93,202.63L286.6,180.14L272.91,202.84L285.39,185.32L286.13,185.2L288.75,182.13L282.42,193.15L288.19,185.46L279.5,200.35L290.37,184.87L282.03,201.69L281.33,204.56L294.77,184.89L284.82,201.52L287.74,198.51L287.5,200.29L291.89,194.71L278.95,216.58L300.01,185.05L292.04,198.25L286.47,208.51L293.71,199.94L289.84,207.41L304.06,186.16L295.19,200.75L294.74,202.78L300.06,195.51L294.17,205.83L293.78,207.89L304.01,192.9L312.43,180.13L298.93,201.59L291.73,214.33L295.73,209.52L294.7,212.54L293,216.8L302.01,203.86L289.35,225.19L305.16,201.4L290.47,225.68L302.23,208.5L296.95,218.07L300.99,213.12L295.84,222.7L299.69,218.14L302.21,215.51L307.72,207.96L295.07,229.15L297.1,227.63L302.65,220.3L312.97,205.04L303.22,221.26L306.8,216.95L306.72,218.3L311.27,212.24L295.59,238.24L309.53,217.15L307.69,221.21L309.83,219.1L312.46,216.07L299.52,237.79L317.41,211.06L304.71,231.97L308.57,227.26L318.19,213.09L306.87,231.8L314.33,221.2L306.95,235.49L308.06,235.21L309.2,234.84L311.14,233.16L318.99,221.88L311.68,234.51L314.8,232.23L314.24,234.46L311.24,240.66L319.06,229.42L322.92,224.46L302.55,257.56L325.2,222.79L313.87,241.44L313.96,242.78L315.67,241.48L314.34,245.07L324.42,230.2L324.84,230.68L317.84,242.85L321.39,238.58L329.89,226.35L312.42,256.22L321.88,242.07L319.63,247.03L325.81,238.54L323.25,243.88L324.78,242.84L330.09,235.78L321.74,249.98L319.37,255.25L328.37,242.05L326.82,245.81L321.53,255.59L330.77,242.06L325.62,251.42L328.62,248.07L324.69,255.69L323.21,259.53L331.11,248.19L325.11,259.02L327.63,256.42L326.16,260.26L327.07,260.3L328.83,258.97L323.96,268.25L336.75,248.79L324.44,269.14L329.5,262.32L329.49,263.92L339.81,249.03L324.15,274.27L339.48,250.43L327.41,270.29L330.34,267.07L337.36,257.52L329.45,271.33L337.45,260.03L335.18,265.22L333.92,268.85L334.92,268.91L332.34,274.64L334.92,272.11L337.2,270.19L335.59,274.43L338.3,271.79L338.6,273.08L332.75,283.93L340.72,272.47L343.21,270.45L341.89,274.3L339.34,280.02L344.38,273.77L343.66,276.72L346.91,273.51L351.84,267.9L345.48,279.18L352.76,269.68L347.91,278.79L341.05,292.8L348.07,282.9L349.11,283.18L352.23,280.27L351.21,283.75L357,276.81L346.09,296.99L348.44,294.63L357.58,281.97L357.37,284.39L360.74,281.42L343.36,308.92L361.36,279.65L355.53,290.37L346.65,305.7L355.86,294.18L358.02,293L360.84,290.96L347.71,312.52L360.13,293.18L350.08,310.4L343.48,322.17L345.55,319.03L350.63,311.79L358.59,301.19L362.01,298.62L373.11,285.02L366.42,296.82L366.76,298.81L361.22,309.32L361.8,310.4L365.36,307.03L369.89,302.68L362.36,316.09L360.89,320.06L350.59,337.64L362.04,317.5L364.47,316.27L352.42,336.56L355.49,331.47L367.08,314.42L369.44,313.95L376.89,306.16L369.99,318.8L371.06,319.7L374.29,317.63L368.37,328.9L372.95,323.73L384.37,309.61L379.18,319.85L383.35,316.6L376.73,328.81L380.69,324.9L387.55,317.65L379.52,331.76L382.01,329.9L382.63,331.41L379.4,338.43L379.95,339.18L384.79,333.7L383.24,338.52L386.42,335.86L395.68,325.19L375.49,355.59L392.16,327.57L383.1,343.52L382.85,345.63L380.57,350.94L393.63,332.27L398.75,329.04L393.51,339.52L394.73,340.52L400.23,335.73L384.84,359.85L394.79,343.75L391.3,351.76L398.96,342.35L396.08,349.58L406.39,337.18L405.91,341.64L393.43,361.61L408.81,338.22L407.2,344.25L406.98,347.6L409.88,346.47L408.52,351.46L401.37,363.95L411.59,349.09L403.38,363.55L410.49,353.92L407.39,361.33L405.65,365.68L413.68,355.39L413.58,358.86L415.94,358.37L418.21,358.25L423.02,354.76L422.92,358.29L431.55,349.58L433.56,350.9L422.86,367.99L429.04,359.99L430.16,361.35L439.28,351.53L434.03,361.76L431.59,369.22L443.27,354.11L442.52,358.58L449.47,352.28L440.47,366.87L447.49,358.4L431.59,382.15L432.12,378.83L444.5,360.3L446.18,361.5L448.83,360.88L449.98,362.34L447.41,368.37L452.92,362.58L454.61,363.05L469.95,345.39L464.64,354.76L463.81,358.32L458.67,367.2L468.13,354.83L458.88,369.14L468.09,356.17L467.95,358.84L477.16,348.6L471.3,358.25L478.04,350.7L467.31,366.31L486.84,337.73L475.06,355.81L474.31,357.54L480.81,349.07L491.57,336.81L468.57,365.79L480.85,343.99L470.5,359.07L474.76,353.09L489.68,333.19L486.97,337.95L498.66,324.41L486.28,339.59L494.04,330.48L490.11,336.06L507.08,314.04L500.26,321.99L488.53,337.22L489.42,334.28L506.9,306.91L512.32,299.16L513.24,296.73L501.53,309.81L503.72,305.19L519.71,281.93L499.57,301.3L503.29,294.34L504.77,290.72L501.73,293.06L516.23,269.59L514.36,268.49L517.88,260.96L495.51,284.29L500.64,273.83L512.31,254.97L499.24,266.98L504.39,257.08L496.87,263.64L502.58,252.73L505.77,244.93L494.57,255.12L500.23,244.01L490.65,252.8L493.93,244.99L488.88,248.44L491.81,241.04L501.05,224.57L490.01,232.95L489.65,229.58L488.16,227.45L481.94,231.79L488.87,218.2L488.74,213.41L493.79,201.52L477.65,215L482.58,203.89L471.99,212.41L483.16,192.35L481.71,187.51L482.81,179.36L467.3,191.09L463.05,191.8L468.37,179.42L466.87,174.91L459.01,178.58L444.63,192.48L452.88,176.44L447.18,178.57L449.6,170.26L444.27,171.71L450.59,157.71L454.05,146.16L444.72,149.7L432.28,158.93L430.18,156.42L435.32,143.77L427.9,146.4L422.29,147.76L426.81,135.86L420.05,137.57L423.19,126.99L398.96,145.81L410.87,124.68L409.64,119.17L407.37,114.82L385.95,135.06L396.31,116.34L384.13,125.45L387.59,115.51L377.83,122.03L375.03,120.5L369.62,122.4L377.96,106.32L370.71,109.36L368.03,107.14L371.38,96.91L362.06,102.4L362.57,95.94L355.7,98.64L346.36,105.08L341.41,106.57L349.68,91.04L352.94,80.74L334.59,98.13L336.54,90.78L345.88,73.21L325.89,92.87L326.03,87.93L328.32,79.85L325.36,78.14L314.05,87.41L310.29,87.62L318.73,72.28L305.99,83.57L300.78,85.81L293.07,91.46L300.22,78.73L305.3,67.64L300.52,69.03L289.93,78.28L289.52,74.77L287.96,72.63L279.69,79.25L283.88,70.25L276.45,75.97L264.16,88.21L275.48,71.46L263.63,83.38L276.9,63.75L255.26,89.35L266.22,73.51L264.84,72.18L256.4,80.24L259.84,73.24L261.03,68.8L255.34,73.51L254.01,72.61L248.21,77.7L255.55,65.83L244.99,77.67L249.1,70.13L254.25,60.78L245.95,69.98L230.72,88.4L242.98,71.78L244.92,67.09L244.89,65.02L233.71,78.66L236.28,73.71L231.05,77.51L223.18,86.67L233.51,72.38L231.44,73.81L224.2,82.46L226.67,78.2L226.66,77.09L228.75,73.11L219.22,85.42L219.53,84.03L222.14,79.83L218.53,84.08L236.86,58.43L223.38,77.77L226.71,72.33L208.09,97.6L224.83,76.05L223.69,77.17L211.88,93.86L226.83,73.79L214.94,91.21L208.29,100.28L222.28,81.42L215.09,92.04L210.87,98.54L222.77,82.11L208.67,103.59L209.5,103.23L215.1,96.1L211.96,100.98L213.03,100.54L214.55,98.91L217.2,95.54L212.13,103.46L219.62,93.44L210.93,106.94L215.69,101.06L209.33,111L222.02,95.2L219.67,99.27L209.37,115.39L215.25,108.41L222.16,99.12L204.88,126.19L203.05,130.77L218.42,112.21L215.76,118.01L219.7,113.47L219.63,114.5L225.78,106.34L222.11,112.69L223.72,111.17L225.84,108.77L220.68,119.29L220.32,120.96L226.05,114.52L217.7,128.18L210.1,140.84L221.53,127.4L233,111.73L220,132.99L233.61,114.95L227.8,124.77L228.7,124.58L237.12,112.88L221.34,138.69L225.79,134.21L225.72,135.77L228.44,133.31L241.01,116.39L234.62,127.27L239.33,121.08L230.67,135.49L243.47,118.41L237.05,129.33L234.83,133.82L239.18,128.41L230.63,142.65L234.38,138.8L234.39,140.14L239.18,134.33L231.97,146.56L243.12,131.78L237.37,141.67L242.97,134.6L244.33,133.44L241.67,138.59L254.28,120.26L234.34,153.43L248.48,134.57L245.6,139.88L241.13,147.95L245.55,142.74L238.16,155.34L246.58,144.66L249.42,142.53L247.33,146.85L247.74,147.46L241.57,158.28L252.38,143.86L241.58,161.79L252,148.19L245.92,158.76L255.48,146.9L253.82,150.48L242.63,169.15L249.58,161.07L257.14,153.59L258.02,153.33L258.33,153.97L266.06,142.95L257.61,158.03L273.11,135.08L259.97,158L260.3,158.66L259.29,162.84L266.89,152.31L259.23,165.28L260.39,165.01L275.22,143.67L267.51,156.52L264.55,164.35L275.21,148.76L264.67,166.24L272.83,154.76L270.82,158.63L274.86,153.04L268.12,164.47L274.33,155.77L269.54,165.15L268.13,168.46L264.85,174.93L281.59,150.17L273.1,165.63L265.1,179.45L280.54,158.46L275.05,167.88L274.63,169.56L276.19,168.11L278.16,165.85L269.46,180.68L275.87,172.11L272.6,178.36L284.86,162.27L280.28,170.22L282.1,168.17L277.83,175.79L280.05,173.34L275.18,182.12L279.98,176.89L287.42,165.94L275.18,186.31L281.19,178.26L281.58,178.62L275.57,189.34L278.59,186.09L276.67,190.53L298.26,158.98L287.91,175.83L288.48,175.74L284.59,182.78L294.49,167.84L282.79,187.15L275.99,199.46L289.66,179.31L295.36,170.77L287.4,184.08L283.63,192.34L294.51,176.09L296.21,173.78L276.86,205.71L295.31,178.69L289.2,189.21L296.93,177.77L292.03,186.21L292.97,185.58L286.87,196.33L294.62,185.09L293.82,187.11L294.35,187.13L297.62,182.66L301.57,176.81L291.12,194.17L301.72,178.47L294.83,190.05L291.59,196.26L295.05,191.77L303.01,180.38L299.91,185.77L290.13,202.38L302.39,183.68L301.84,185.72L293.42,199.96L294.66,199.12L293.36,202.33L303.02,187.72L302.08,189.75L295.7,200.83L301.02,194.13L294.21,206.03L300.85,196.4L298.57,200.9L297.92,203.01L297.97,204.26L313.49,179.89L295.61,208.78L303.01,197.94L299.31,204.73L296.63,210.2L300.04,205.83L310.47,191.19L300.33,208.06L299.98,209.78L304.02,204.23L308.38,198.78L302.61,208.85L306.3,203.83L303.98,208.41L299.08,217.46L309.07,202.22L308.58,203.66L302.57,214.28L310.72,201.97L309.39,204.77L309.3,205.68L305.51,212.66L309.1,207.78L307.63,211.91L313.18,203.75L311.87,206.5L315.2,201.78L297.34,231.27L311.79,208.51L314.41,204.92L307.03,217.57L315.48,204.73L315.63,205.06L314.21,208L318.38,201.93L312.9,211.23L311.96,213.59L313.67,211.64L308.21,221.33L308.78,221.49L315.31,211.8L324.32,197.89L317.01,210.53L310.43,221.92L311.87,220.61L318.42,210.84L317.33,213.22L299.57,242.79L317.25,214.2L312.8,222.1L312.57,223.51L318.29,216.13L316.4,219.99L315.88,221.74L316.87,221.07L309.27,234.34L316.58,223.41L317.39,223.04L320.45,219.02L312.16,234.37L317.27,227.1L322.84,219.87L322.94,220.52L320.9,224.59L313.7,237.16L322.95,223.03L319.28,229.75L321.34,227.44L318.72,232.64L323.36,226.14L319.56,233.16L322.22,229.88L317.13,239.1L328.01,222.35L326.98,224.73L319.06,238.22L331.53,218.9L318,240.73L326.58,227.81L325.19,230.93L324.95,232.3L317.52,245.23L316.05,248.86L328.92,228.69L318.4,247.52L320.16,245.85L331.21,228.97L327.97,234.94L326.86,237.8L333.98,227.5L328.52,236.85L330.47,234.83L328.96,238.24L328.5,240.06L320.93,253.26L315.15,264L327.36,244.48L333.96,235.11L321.71,255.24L323.51,253.53L333.84,237.93L317.72,264.18L327.03,249.76L318.37,264.96L327.36,251.2L323.88,258.13L334.26,244.13L331.5,249.71L336.26,243.52L334.78,247.06L324.84,263.9L331.24,254.68L332.5,254.07L327.38,263.56L336.5,250.08L328.78,263.45L330.19,262.54L330.58,263.33L327.03,270.45L331.09,265.15L338.5,254.73L331.76,266.63L331.42,268.61L340,256.26L329.35,275.92L341.89,256.69L334.44,269.63L342.35,258.53L330.86,277.68L332.81,275.82L332.15,278.38L331.56,280.79L337.87,271.95L345.25,262.06L336.2,277.45L329.97,290.07L336.06,281.27L340.45,275.98L340.02,278.47L338.75,282.22L346.45,271.76L339.37,286.16L341.02,285.22L336.25,294.46L348.82,275.43L339.9,294.91L350.89,278.82L345.19,289.45L349.54,284.51L348.98,287.44L344.01,297.02L344.99,297.07L348.99,292.5L349.82,293.27L339.4,311.22L344.41,303.74L348.61,298.84L343.68,308.46L351.7,297.06L351.34,299.91L352.76,299.86L358.58,293.27L348.18,310.99L349.74,310L345.46,318.52L358.07,299.28L356.42,304.4L348.43,318.65L358.9,303.31L352.17,315.91L351.85,318.19L351.39,320.72L364.23,302.33L357.23,315.29L361.78,310.59L354.26,326.27L366.39,308.91L361.11,319.51L363.02,318.95L358.04,330.89L357.94,332.77L360.68,330.23L359.6,334.06L369.19,321.15L370.17,323.03L360.16,341.57L364.63,336.21L359.06,347L368.93,332.44L370.78,333L375.47,329.36L371.12,338.98L360.31,357.42L365.72,348.49L373.07,339.55L370.93,345.89L374.88,342.61L379.14,339.74L375.87,347.81L381.63,342.08L378.36,350.22L379.05,351.79L383.65,347.78L383.03,352.06L376.72,364.03L372.27,371.95L380.49,358.89L384.01,356.87L390.86,350.48L393.1,351.54L396.02,351.55L388.25,368.68L374.99,390.17L386.12,368.05L379.28,381.21L386.83,369.93L387.9,371.97L386.94,376.38L394.84,367.61L391.95,375.81L400.99,369.99L388.51,390.8L404.96,365.62L402.71,373.9L395.62,390.25L397.65,388.68L410.62,372.6L407.28,382.16L397.37,399.04L407.15,384.23L408.59,386.69L410.63,387.54L420.65,377.83L420.06,383.82L420.5,387.46L419.7,392.4L416.05,400.42L420.87,395.07L422.53,396.38L416.41,407.82L427.5,392.24L424.19,401.32L432.18,393.22L428.33,402.83L440.57,388.96L432.31,404.46L430.41,409.21L433.37,406.86L438.09,403.5L436.99,408.86L436.3,412.49L443.84,404.45L447.49,404.3L452.93,401.73L453.05,406.4L444.79,420.59L457.45,402.49L467.53,395.53L457.41,415.7L466.18,405.44L462.15,414.79L465.44,412.29L471.06,408.21L473.09,409.6L478.58,406.22L477.44,411.76L475.04,417.61L479.54,413.23L479.65,418.58L480.33,419.83L478.62,424.06L489.39,410.7L486.66,418.44L488.67,418.21L489.26,420.27L494.14,416.29L497.31,415.74L497.76,418.5L490.9,430.09L503.59,412.88L508.5,411.63L504.56,420.01L513.21,410.75L521.43,404.9L513.64,417.53L516.46,414.83L517.77,415.43L514.02,422L522.53,410.75L516.64,420.69L543.35,385.17L520.55,410.77L522.06,408.08L534.02,393.99L535.77,394.79L540.51,391.19L542.24,391.32L530.44,407.32L531.66,403.16L546.76,382.78L549.46,381.7L556.32,375.04L555.31,377.32L565.4,365.68L552.96,380.21L555.99,374.83L561.03,368.15L558.64,370.95L556.37,373.1L572.99,348.55L563.23,359.05L573.08,341.79L580.85,330.33L574.08,335.88L580.63,325.02L570.77,334.42L575.78,324.52L576.76,320.55L587.54,303.58L573.03,315.81L571.85,314.08L573.37,308.59L582.83,292.24L565.7,308.01L570.45,296.97L569.72,294.02L565.51,295.71L568.18,287.97L560.3,294.36L570.27,275.51L568.66,272.18L576.02,251.08L550.47,274.21L556.44,260.06L557.86,252.71L553.92,252.23L560.39,237.7L565.88,223.19L541.85,242.56L556.8,214.87L545.03,219.65L548.6,207.75L540.38,209.26L528.79,217.42L541.81,192.01L522.19,206.43L526.23,194.36L518.89,196.46L532.11,170.63L526.78,165.49L501.92,185.39L507.97,170.21L505.12,165.3L505.4,156.14L493.88,161.4L496.16,150.22L480.05,161.92L478.4,157.56L476,153.7L478.83,142.17L468.85,146.76L464.77,145.11L462.98,140.25L467.08,126.67L451.92,137.4L462.29,115.63L455.2,114.53L452.6,108.4L446.41,106.43L440.96,103.86L438.04,98.06L413.05,112.71L410.98,108.46L408.4,104.58L425.25,74.24L403.91,90.08L397.65,90.14L398.3,81.23L390.98,81.94L393.44,70.41L382.1,75.73L363.34,84.22L370.1,68.53L368.34,62.54L360.81,63.81L355.18,63.06L344.81,68.54L345.66,60.35L331.6,70.75L330.88,65.17L322.81,68.63L328.7,54.95L328.1,48.68L313.05,60.87L309.5,59.11L314.65,46.49L308.7,47.46L298.04,54.62L301.42,44.56L281.85,63.43L294.88,42.64L291.21,41.5L282.64,46.76L270.29,56.96L271.7,50.47L269.5,48.27L264.02,50.27L263.12,46.77L252.76,55.27L255.43,47.93L242.6,59.91L245.6,52.74L251.35,41.83L240.08,52.72L232.88,58.24L229.58,59.2L232.88,52.24L229.99,52.82L239.39,37.89L230.81,46.79L224.29,52.45L226.43,47.06L224.42,47.06L229.13,38.27L214.92,55.69L221.04,43.39L212.11,53.5L208.33,56.46L200.82,64.4L209.31,52.48L206.14,55.12L204.88,55.28L199.77,60.72L196.64,63.62L201.55,56.29L183.47,78.62L189.91,70.47L205.32,49.8L206,48.57L188.77,74.32L190.68,71.64L181.05,85.35L191.69,72.2L175.66,95.28L187.94,81.36L176.89,97.2L194.58,76.06L175.84,104.2L180.96,99.66L193.01,85.58L180.72,104.42L192.31,90.83L187.06,99.41L194.25,90.72L188.13,100.72L195.46,91.81L191.8,98.26L188.36,104.47L190.53,102.96L195.55,97.19L191.16,104.89L201.09,93.16L193.34,106.23L195.92,104.05L196.25,104.91L188.57,117.65L187.17,121.78L200.44,107.04L195.08,116.53L201.41,110.83L196.87,119.17L204.77,109.62L193.51,128.27L202.91,117.55L194.71,131.43L197.05,130.75L212.66,110.82L203.33,126.85L205.37,125.92L198.62,137.83L212.16,121.34L202.28,138.03L205.59,135.89L207.68,135.08L210.44,133.14L202.21,147.43L209.89,139.57L198.49,158.62L207.02,150.79L221.47,132.86L218.02,139.77L219.51,139.55L226.96,130.12L207.69,161.98L216.67,153.03L225.68,142.27L214.02,161.91L216.51,161.6L221.64,157.14L232.64,143.36L226.91,153.81L224.06,160.38L231.48,152L232.23,152.77L235.71,149.4L231.46,157.65L232.77,157.87L224.77,172.14L229.09,169.03L242.45,151.9L232.57,168.84L249.47,146.27L241.36,160.24L231.77,177L242.78,163.79L237.3,174.09L239.02,174.16L235.02,182.72L242.13,175.29L232.54,192.22L247.3,174.41L260.15,156.89L253.78,168.07L259.34,161.22L246.52,182.65L253.18,175.27L253.05,177.41L252.95,179.67L258.36,173.54L246.02,194.4L248.85,193.37L262.07,176.26L252.71,192.39L250.77,198.15L266.25,177.8L271.51,171.1L259.82,190.63L257.26,199.61L270.7,181.88L261.86,197.13L264.37,195.85L266.89,194.27L263.24,202.06L269.62,194.88L265.74,202.93L269.82,199.22L278.36,188.24L270.01,202.72L278.1,192.63L272.5,202.96L275.54,200.54L267.93,214.38L274.33,207.35L282.43,197.06L271.62,215.5L279.38,206.21L270.01,222.79L274.95,218.15L285.24,204.78L281.67,212.09L280.88,215.54L285.19,213.4L289.94,208.12L292.32,206.19L282.07,223.73L292.73,209.62L289.56,216.21L282.66,229L288.61,222.28L291.55,219.86L289.01,225.86L279.3,243.38L305.32,205.09L293.37,226.46L292.69,229.7L299.09,221.92L295.77,228.95L304.86,216.86L296.41,231.44L298.42,230.49L301.39,227.91L298.76,236.01L303,231.5L305.93,228.88L300.78,238.72L303.88,236L302.92,239.53L310.75,229.29L304.49,240.68L299.92,249.97L306.07,242.41L310.94,236.81L318.88,226.3L303.95,250.54L312.7,238.75L308.28,247.48L311.66,244.21L318.35,235.67L318.85,236.58L307.88,255.18L316.32,243.76L310.45,254.75L314.4,250.51L312.93,256.81L318.87,249.39L322.85,245.07L315.16,258.71L318.12,255.98L318.7,257.02L307.72,276.28L322.92,252.97L325.2,251.37L321.31,259.23L323.07,258.44L320.79,263.94L322.68,262.92L318.04,272.2L322.45,267L321.37,270.69L319.98,274.87L325.72,267.54L325.75,269.52L326.62,270.14L332.37,263.11L333.73,263.03L332.63,266.7L335.93,263.59L338.49,261.69L333.91,270.54L335.98,269.27L335.31,272.28L322.47,294.1L336.59,271.76L332.61,279.94L339.6,270.87L324.22,296.27L336.02,277.89L338.55,276.14L337.4,279.99L341.47,275.75L334.93,289.94L340.45,282.99L349,271.97L347.11,276.97L338.8,291.52L340.78,290.2L338.95,295.02L346.52,284.84L344.4,290.29L344.45,292.25L349.06,287.18L346.52,293.23L356.92,279.28L346,297.43L345.56,299.92L350.5,294.07L352.34,293.52L339.79,314.62L348.11,301.7L348.03,304.03L343.2,313.48L345.47,311.19L354.2,299.2L355.02,300.54L351.41,308.37L352.43,308.85L363.21,294.54L361.74,299.44L358.63,306.55L358.2,309.55L349.55,324.79L365.68,299.58L369.08,297.74L361.66,310.98L358.4,318.1L364.11,311.2L372.44,304.39L364.88,317.85L375.66,303.6L368.26,316.89L363.44,326.19L371.57,315.02L375.06,312.68L367.96,325.56L370.44,323.48L380.02,311.44L372.8,324.52L371.43,328.57L379.06,318.97L378.25,323.01L374.11,331.47L388.25,311.92L380.49,328.5L382.96,327.13L385.48,326.02L386.1,327.79L387.6,328.23L381.94,338.89L387.11,332.54L390.62,330.11L377.99,350.63L387.02,336.06L392.09,331.54L385.65,343.49L387.18,342.83L397.88,329.23L394.34,337.49L385.06,353.13L400.84,329.23L399.03,335.3L405.42,329.54L395.19,346.49L399.25,342.16L405.41,336.09L410.53,332.43L393.58,358.03L401.23,345.78L403.21,345.59L410.4,337.93L416.85,332.69L403.93,352.71L416.21,335.76L406.31,352.17L413.04,343.69L415.65,343.17L401.24,365.52L411.45,348.33L416.2,344.75L413.12,351.91L417.35,348.18L413.91,355.67L429.21,335.66L420.95,349.61L423.45,348.5L421.16,354.33L428.24,346.37L426,352.4L427.83,352.11L432.54,350.74L433.52,351.98L442.78,341.87L442.44,345.44L447.78,341.23L441.16,352.48L444.25,349.95L433.77,366.26L444.96,348.46L447.6,347.74L446.82,351.24L440.27,362.05L454.58,341.51L457.28,341.06L462.7,336.83L453.38,350.8L452.55,353.17L453.72,352.65L470,331.36L474.03,328.97L455.83,352.51L461.84,343.45L475.73,326.42L460.86,345.84L468.5,335.38L456.18,353.09L456.28,351.99L462.85,342.34L472.14,332.91L467.24,340.72L473.56,332.94L475.74,331.56L479.26,328.28L473.97,336.13L487.3,318.47L471.07,338.84L472.99,335.55L493.14,308.91L481.47,322.52L485.82,317.47L481.51,323.32L491.08,309.85L488.17,313.5L499.21,298.78L486.32,313.46L499.01,293.8L497.98,294.03L482.39,312.96L489.79,299.76L481.51,309.2L495.08,287.53L496.44,283.01L491.61,287.63L486.35,293.33L494.53,280.12L485.85,289.7L489.59,282.72L495.59,272.91L490.93,276.76L489.93,276.24L496.23,265.71L483.1,280.02L489.47,268.64L510.81,237.42L503.31,239.51L487.26,253.96L478.61,263.1L488.5,246.08L477.28,257.46L476.66,255.93L478.99,250.04L488.51,233.89L481.05,239.2L476.86,241.66L477.69,237.51L481.2,229.4L481.07,225.62L473.5,231.51L481.67,216.74L471.19,225.36L476.02,215.11L468,221.16L465.61,220.93L469.68,211.61L458.46,222.37L472.98,197.9L466.8,199.92L449.61,214.91L459.06,197.75L463.08,187.49L464.4,179.98L450,191.86L458.52,175.78L453.58,175.65L451.37,172.64L443.84,176.52L454.06,157.56L431.65,177.89L451.62,145.79L424.13,165.77L428.24,155.42L423.01,156.4L416.26,160.04L412.72,160.18L421.6,143.34L403.91,159.93L403.99,155.84L405.51,149.29L409.42,138.97L412.43,128.96L401.65,136L401.69,130.35L397.64,129.53L401.75,118.15L378.12,141.5L385.04,128.13L380.25,129L383.49,119.6L379.13,119.4L373.72,120.87L370.55,119.78L371.01,113.95L373.97,104.39L366.33,107.9L362.89,106.66L350.14,117.6L355.03,106.77L358.47,96.87L349.45,102.49L343.22,105.33L332.33,114.61L338.6,102.58L331.06,107.46L337.3,95.08L333.35,95L332.67,90.86L333.55,84.52L317.38,100.17L323.17,88.68L314.58,94.94L313.33,92.3L317.88,82.05L309.67,87.85L306.18,88.04L293.13,100.72L300.8,84.05L291.77,91.66L290.25,90.12L304.02,68.86L295.44,75.78L294.21,73.29L277.73,91.13L270.24,97.75L282.41,76.77L283.19,72.13L265.08,92.86L265.39,90.15L271.87,79.33L268.38,80.86L266.93,79.88L275.52,65.68L257.02,88.11L256.33,86.85L261.28,78.21L252.5,87.37L256.8,79.76L249.91,86.62L259.69,69.4L250.54,79.72L251.38,76.54L244.39,83.95L254.24,69.14L243.03,82.78L252.24,68.8L233.02,94.08L244.56,76.77L243.33,76.74L251.83,63.26L241.93,76.15L245.77,69.2L238.85,77.54L236.2,79.8L228.65,88.94L229.61,86.82L225.35,91.65L235.2,75.75L233.24,77.5L228.59,83.16L231.66,78.06L220.4,93.36L226.38,84.52L228.57,80.79L217.15,95.63L222.02,89.1L231.15,75.88L228.44,79.51L232.06,73.68L215.09,99.22L224.05,87.33" style="vector-effect: non-scaling-stroke; fill: none; stroke: rgb(239, 85, 59); stroke-opacity: 1; stroke-width: 2px; opacity: 1;"/></g><g class="points"/><g class="text"/></g></g></g><g class="overplot"/><path class="xlines-above crisp" d="M79,520.5H693M79,99.5H693" style="fill: none; stroke-width: 1px; stroke: rgb(0, 0, 0); stroke-opacity: 1;"/><path class="ylines-above crisp" d="M79.5,100V520M692.5,100V520" style="fill: none; stroke-width: 1px; stroke: rgb(0, 0, 0); stroke-opacity: 1;"/><g class="overlines-above"/><g class="xaxislayer-above"><g class="xtick"><text text-anchor="middle" x="0" y="535.4" transform="translate(167.43,0)" style="font-family: 'Open Sans', verdana, arial, sans-serif; font-size: 12px; fill: rgb(42, 63, 95); fill-opacity: 1; white-space: pre; opacity: 1;">10</text></g><g class="xtick"><text text-anchor="middle" x="0" y="535.4" style="font-family: 'Open Sans', verdana, arial, sans-serif; font-size: 12px; fill: rgb(42, 63, 95); fill-opacity: 1; white-space: pre; opacity: 1;" transform="translate(276.71000000000004,0)">5</text></g><g class="xtick"><text text-anchor="middle" x="0" y="535.4" style="font-family: 'Open Sans', verdana, arial, sans-serif; font-size: 12px; fill: rgb(42, 63, 95); fill-opacity: 1; white-space: pre; opacity: 1;" transform="translate(386,0)">0</text></g><g class="xtick"><text text-anchor="middle" x="0" y="535.4" style="font-family: 'Open Sans', verdana, arial, sans-serif; font-size: 12px; fill: rgb(42, 63, 95); fill-opacity: 1; white-space: pre; opacity: 1;" transform="translate(495.29,0)">5</text></g><g class="xtick"><text text-anchor="middle" x="0" y="535.4" style="font-family: 'Open Sans', verdana, arial, sans-serif; font-size: 12px; fill: rgb(42, 63, 95); fill-opacity: 1; white-space: pre; opacity: 1;" transform="translate(604.57,0)">10</text></g></g><g class="yaxislayer-above"><g class="ytick"><text text-anchor="end" x="76.6" y="4.199999999999999" transform="translate(0,520)" style="font-family: 'Open Sans', verdana, arial, sans-serif; font-size: 12px; fill: rgb(42, 63, 95); fill-opacity: 1; white-space: pre; opacity: 1;">15</text></g><g class="ytick"><text text-anchor="end" x="76.6" y="4.199999999999999" style="font-family: 'Open Sans', verdana, arial, sans-serif; font-size: 12px; fill: rgb(42, 63, 95); fill-opacity: 1; white-space: pre; opacity: 1;" transform="translate(0,436)">10</text></g><g class="ytick"><text text-anchor="end" x="76.6" y="4.199999999999999" style="font-family: 'Open Sans', verdana, arial, sans-serif; font-size: 12px; fill: rgb(42, 63, 95); fill-opacity: 1; white-space: pre; opacity: 1;" transform="translate(0,352)">5</text></g><g class="ytick"><text text-anchor="end" x="76.6" y="4.199999999999999" style="font-family: 'Open Sans', verdana, arial, sans-serif; font-size: 12px; fill: rgb(42, 63, 95); fill-opacity: 1; white-space: pre; opacity: 1;" transform="translate(0,268)">0</text></g><g class="ytick"><text text-anchor="end" x="76.6" y="4.199999999999999" style="font-family: 'Open Sans', verdana, arial, sans-serif; font-size: 12px; fill: rgb(42, 63, 95); fill-opacity: 1; white-space: pre; opacity: 1;" transform="translate(0,184)">5</text></g><g class="ytick"><text text-anchor="end" x="76.6" y="4.199999999999999" style="font-family: 'Open Sans', verdana, arial, sans-serif; font-size: 12px; fill: rgb(42, 63, 95); fill-opacity: 1; white-space: pre; opacity: 1;" transform="translate(0,100)">10</text></g></g><g class="overaxes-above"/></g></g><g class="polarlayer"/><g class="smithlayer"/><g class="ternarylayer"/><g class="geolayer"/><g class="funnelarealayer"/><g class="pielayer"/><g class="iciclelayer"/><g class="treemaplayer"/><g class="sunburstlayer"/><g class="glimages"/><defs id="topdefs-bdba16"><g class="clips"/><clipPath id="legendbdba16"><rect width="84" height="48" x="0" y="0"/></clipPath></defs><g class="layer-above"><g class="imagelayer"/><g class="shapelayer"/></g><g class="infolayer"><g class="legend" pointer-events="all" transform="translate(704.24,100)"><rect class="bg" shape-rendering="crispEdges" width="84" height="48" x="0" y="0" style="stroke: rgb(68, 68, 68); stroke-opacity: 1; fill: rgb(255, 255, 255); fill-opacity: 1; stroke-width: 0px;"/><g class="scrollbox" transform="" clip-path="url(#legendbdba16)"><g class="groups"><g class="traces" transform="translate(0,14.5)" style="opacity: 1;"><text class="legendtext" text-anchor="start" x="40" y="4.680000000000001" style="font-family: 'Open Sans', verdana, arial, sans-serif; font-size: 12px; fill: rgb(42, 63, 95); fill-opacity: 1; white-space: pre;">trace 0</text><g class="layers" style="opacity: 1;"><g class="legendfill"/><g class="legendlines"><path class="js-line" d="M5,0h30" style="fill: none; stroke: rgb(99, 110, 250); stroke-opacity: 1; stroke-width: 2px;"/></g><g class="legendsymbols"><g class="legendpoints"/></g></g><rect class="legendtoggle" x="0" y="-9.5" width="78.375" height="19" style="fill: rgb(0, 0, 0); fill-opacity: 0;"/></g><g class="traces" transform="translate(0,33.5)" style="opacity: 1;"><text class="legendtext" text-anchor="start" x="40" y="4.680000000000001" style="font-family: 'Open Sans', verdana, arial, sans-serif; font-size: 12px; fill: rgb(42, 63, 95); fill-opacity: 1; white-space: pre;">trace 1</text><g class="layers" style="opacity: 1;"><g class="legendfill"/><g class="legendlines"><path class="js-line" d="M5,0h30" style="fill: none; stroke: rgb(239, 85, 59); stroke-opacity: 1; stroke-width: 2px;"/></g><g class="legendsymbols"><g class="legendpoints"/></g></g><rect class="legendtoggle" x="0" y="-9.5" width="78.375" height="19" style="fill: rgb(0, 0, 0); fill-opacity: 0;"/></g></g></g><rect class="scrollbar" rx="20" ry="3" width="0" height="0" x="0" y="0" style="fill: rgb(128, 139, 164); fill-opacity: 1;"/></g><g class="g-gtitle"/><g class="g-xtitle"/><g class="g-ytitle"/></g></svg>