<svg class="main-svg" xmlns="http://www.w3.org/2000/svg" xmlns:xlink="http://www.w3.org/1999/xlink" width="800" height="600" style="" viewBox="0 0 800 600"><rect x="0" y="0" width="800" height="600" style="fill: rgb(255, 255, 255); fill-opacity: 1;"/><defs id="defs-7b173e"><g class="clips"><clipPath id="clip7b173exyplot" class="plotclip"><rect width="612" height="420"/></clipPath><clipPath class="axesclip" id="clip7b173ex"><rect x="80" y="0" width="612" height="600"/></clipPath><clipPath class="axesclip" id="clip7b173ey"><rect x="0" y="100" width="800" height="420"/></clipPath><clipPath class="axesclip" id="clip7b173exy"><rect x="80" y="100" width="612" height="420"/></clipPath></g><g class="gradients"/><g class="patterns"/></defs><g class="bglayer"/><g class="layer-below"><g class="imagelayer"/><g class="shapelayer"/></g><g class="cartesianlayer"><g class="subplot xy"><g class="layer-subplot"><g class="shapelayer"/><g class="imagelayer"/></g><g class="gridlayer"><g class="x"><path class="xgrid crisp" transform="translate(141.2,0)" d="M0,100v420" style="stroke: rgb(235, 240, 248); stroke-opacity: 1; stroke-width: 1px;"/><path class="xgrid crisp" transform="translate(263.6,0)" d="M0,100v420" style="stroke: rgb(235, 240, 248); stroke-opacity: 1; stroke-width: 1px;"/><path class="xgrid crisp" transform="translate(508.4,0)" d="M0,100v420" style="stroke: rgb(235, 240, 248); stroke-opacity: 1; stroke-width: 1px;"/><path class="xgrid crisp" transform="translate(630.8,0)" d="M0,100v420" style="stroke: rgb(235, 240, 248); stroke-opacity: 1; stroke-width: 1px;"/></g><g class="y"><path class="ygrid crisp" transform="translate(0,436)" d="M80,0h612" style="stroke: rgb(235, 240, 248); stroke-opacity: 1; stroke-width: 1px;"/><path class="ygrid crisp" transform="translate(0,352)" d="M80,0h612" style="stroke: rgb(235, 240, 248); stroke-opacity: 1; stroke-width: 1px;"/><path class="ygrid crisp" transform="translate(0,184)" d="M80,0h612" style="stroke: rgb(235, 240, 248); stroke-opacity: 1; stroke-width: 1px;"/></g></g><g class="zerolinelayer"><path class="xzl zl crisp" transform="translate(386,0)" d="M0,100v420" style="stroke: rgb(235, 240, 248); stroke-opacity: 1; stroke-width: 2px;"/><path class="yzl zl crisp" transform="translate(0,268)" d="M80,0h612" style="stroke: rgb(235, 240, 248); stroke-opacity: 1; stroke-width: 2px;"/></g><path class="xlines-below"/><path class="ylines-below"/><g class="overlines-below"/><g class="xaxislayer-below"/><g class="yaxislayer-below"/><g class="overaxes-below"/><g class="plot" transform="translate(80,100)" clip-path="url(#clip7b173exyplot)"><g class="scatterlayer mlayer"><g class="trace scatter trace8282f9" style="stroke-miterlimit: 2; opacity: 1;"><g class="fills"/><g class="errorbars"/><g class="lines"><path class="js-line" d="M208.08,168L234.09,187.68L234.54,188.08L241.97,195.67L242.27,196.04L246.79,203L246.98,203.37L249.55,210.59L249.64,210.99L250.61,218.38L250.63,218.81L250.16,228.88L250.1,229.36L247.54,242.46L247.39,243.02L243.54,255.47L243.31,256.09L237.99,269.06L237.68,269.74L230.4,283.39L229.98,284.08L222.44,294.9L221.91,295.56L214.4,303.69L213.77,304.27L206.27,310.14L205.54,310.61L197.68,314.61L196.84,314.92L189.76,316.79L188.83,316.93L180.99,317.2L179.97,317.11L172.46,315.69L171.34,315.35L163.21,312.03L162.01,311.41L153.29,305.86L152,304.9L142.74,296.81L141.38,295.46L131.67,284.58L130.26,282.82L120.25,269L118.81,266.81L108.7,250.07L107.26,247.48L95.94,225.13L94.56,222.16L83.96,197.23L82.7,194L73.38,167.83L72.32,164.55L64.88,138.9L64.09,135.81L59.07,112.65L58.61,109.99L56.55,93.27L56.43,91.17L56.57,80.31L56.74,78.79L58.25,72.53L58.67,71.55L61.41,67.92L62.07,67.45L65.11,66.41L65.95,66.35L69.68,66.86L70.7,67.17L77.37,70.4L78.58,71.14L87.63,77.73L88.99,78.85L103.4,91.59L104.89,92.98L178.99,162.09L180.06,163.02L213.1,192.61L213.63,193.15L222.14,203.13L222.47,203.6L226.66,210.82L226.86,211.26L229.11,218.21L229.19,218.65L229.8,225.12L229.8,225.56L228.95,232.97L228.86,233.41L226.34,241.34L226.16,241.78L222.04,249.63L221.76,250.06L216.37,257.08L216.01,257.47L209.53,263.26L209.08,263.59L202.21,267.49L201.67,267.71L194.83,269.73L194.22,269.83L187.14,270.17L186.46,270.12L179.35,268.82L178.61,268.6L170.89,265.4L170.08,264.98L161.82,259.58L160.97,258.92L153.16,251.95L152.28,251.06L143.36,240.82L142.47,239.66L133.55,226.85L132.67,225.45L124.08,210.36L123.25,208.75L114.66,190.25L113.94,188.51L106.82,169.23L106.26,167.49L101.18,148.97L100.83,147.38L98.41,132.59L98.28,131.25L98.11,120.52L98.2,119.49L99.7,112.47L99.99,111.75L102.56,107.7L103.01,107.26L106.1,105.33L106.68,105.12L111.2,104.52L111.9,104.55L118.07,105.7L118.89,105.95L127.7,109.48L128.63,109.92L142.17,117.19L143.17,117.76L196.44,148.37L197.21,148.76L216,157.59L216.59,157.84L234.28,164.8L234.67,164.94L257.43,173.5L257.56,173.57L262.29,176.96L262.37,177.04L264.93,180.63L264.99,180.74L266.62,185.65L266.65,185.8L267.39,193.16L267.39,193.37L267.08,202.61L267.06,202.9L265.33,217.12L265.27,217.53L260.38,242L260.24,242.6L253.47,267.14L253.23,267.9L245.25,290.21L244.9,291.09L237.54,307.46L237.07,308.39L229.22,322.38L228.64,323.31L220.22,335.03L219.51,335.9L211.79,344.08L210.95,344.84L202.89,351.02L201.94,351.62L194.84,355.24L193.77,355.66L185.86,357.82L184.67,358L177.19,358.31L175.88,358.23L167.72,356.76L166.3,356.35L157.43,352.72L155.89,351.91L146.32,345.72L144.67,344.45L134.43,335.3L132.67,333.51L121.84,321.03L119.99,318.66L108.7,302.6L106.78,299.61L95.21,279.88L93.27,276.29L81.67,253.04L79.76,248.9L68.49,222.64L66.66,218.06L56.11,189.68L54.44,184.84L43.64,150.8L42.25,145.97L33.75,113.34L32.73,108.91L27.18,80.38L26.62,76.72L24.6,57.46L24.49,54.73L24.91,43.31L25.19,41.48L26.96,35.74L27.56,34.69L29.72,32.48L30.56,32.04L33.43,31.6L34.5,31.74L39.28,33.62L40.6,34.4L47.86,40L49.43,41.43L61.36,53.72L63.17,55.75L84.27,80.82L86.25,83.25L142.83,151.36L144.49,153.27L197.36,214.33L198.07,215.29L205.73,226.76L206.21,227.58L210.73,236.94L211.01,237.68L213.39,246.25L213.51,246.94L214.01,254.92L213.98,255.57L212.63,263.62L212.45,264.21L209.61,271L209.31,271.54L205,277.51L204.59,277.96L199.39,282.4L198.86,282.75L193.1,285.61L192.47,285.83L185.73,287.19L185,287.23L178.09,286.81L177.28,286.66L170.48,284.66L169.6,284.3L162.22,280.48L161.26,279.88L153.36,273.98L152.34,273.11L142.96,263.76L141.9,262.56L132.18,250.2L131.1,248.66L121.33,233.34L120.26,231.48L110.81,213.56L109.8,211.45L100.2,189.38L99.31,187.1L91.29,164.24L90.59,161.98L84.8,140.21L84.35,138.16L81.53,121.15L81.35,119.45L80.97,107.45L81.06,106.17L82.46,98.6L82.77,97.73L85.24,93.59L85.75,93.08L88.66,91.28L89.32,91.07L93.74,90.75L94.55,90.85L100.78,92.63L101.74,93.03L111.01,97.9L112.1,98.57L125.81,107.86L126.99,108.71L191.45,155.42L192.3,155.98L233.37,183.39L233.66,183.64L239.65,189.94L239.83,190.18L242.93,195.76L243.03,196L244.54,202.26L244.57,202.53L244.61,209.51L244.59,209.82L243.05,218.81L242.96,219.16L239.42,230.28L239.26,230.69L233.96,242.31L233.73,242.75L227.36,253.22L227.04,253.68L218.96,263.46L218.54,263.88L211.69,269.8L211.19,270.16L204.22,274.27L203.64,274.54L196.91,276.85L196.26,277L188.7,277.8L187.98,277.79L180.38,276.79L179.58,276.6L172.15,273.96L171.3,273.56L163.34,268.94L162.43,268.31L154.03,261.45L153.07,260.56L144.36,251.28L143.38,250.11L133.55,236.9L132.57,235.43L123.88,221.1L122.93,219.4L113.84,201.27L112.98,199.37L104.98,179.87L104.25,177.89L97.88,158.32L97.34,156.41L93.09,138.3L92.79,136.61L91.11,122.77L91.05,121.39L91.42,111.8L91.58,110.77L93.37,104.79L93.72,104.1L96.32,100.85L96.83,100.45L100.34,98.88L101,98.75L106.1,98.82L106.9,98.97L113.8,101.11L114.72,101.49L125.52,106.99L126.55,107.59L144.66,119.02L145.74,119.73L189.32,147.57L190.17,148.07L215.3,161.73L215.89,162.03L245.53,177.41L245.75,177.56L250.77,181.75L250.9,181.9L253.71,185.75L253.8,185.91L255.84,191.63L255.88,191.83L256.52,198.66L256.52,198.91L255.8,208.41L255.76,208.72L253.54,220.49L253.45,220.89L248.36,238.67L248.18,239.19L242.25,254.68L241.99,255.27L235.1,269.43L234.75,270.06L226.77,282.81L226.31,283.44L218.78,292.63L218.23,293.21L210.38,300.27L209.72,300.77L201.96,305.52L201.2,305.88L193.99,308.48L193.14,308.68L186.02,309.63L185.08,309.65L177.25,308.93L176.22,308.72L168.77,306.41L167.67,305.95L159.67,301.75L158.49,301L149.97,294.64L148.72,293.56L139.77,284.77L138.46,283.34L127.83,270.14L126.48,268.28L115.65,251.69L114.3,249.41L103.61,229.66L102.29,227.01L92.15,204.7L90.93,201.8L80.77,174.96L79.74,171.95L71.6,145.24L70.83,142.37L65.87,120.65L65.4,118.13L63.15,102.06L62.98,100.01L62.87,87.64L63.02,86.16L64.68,78.93L65.09,78L67.69,74.49L68.32,74.01L71.17,72.85L71.97,72.73L76.4,73.17L77.38,73.45L83.76,76.31L84.91,76.96L94.78,83.75L96.08,84.76L111.19,97.47L112.6,98.72L179.21,157.46L180.26,158.32L218.57,190.46L219.03,190.92L226.46,199.39L226.76,199.79L230.85,206.84L231.01,207.22L232.95,213.37L233.02,213.76L233.59,219.99L233.59,220.39L232.72,228.04L232.63,228.45L230.22,236.4L230.05,236.82L225.88,245.36L225.63,245.79L220.4,253.33L220.07,253.74L213.72,260.29L213.3,260.65L206.45,265.45L205.95,265.72L198.98,268.64L198.4,268.8L191.7,269.95L191.05,269.98L184.3,269.61L183.59,269.5L176.21,267.46L175.44,267.16L167.49,263.11L166.67,262.59L158.22,256.23L157.35,255.47L148.55,246.59L147.66,245.57L138.73,234.08L137.84,232.81L129.06,218.87L128.2,217.37L119.16,199.75L118.39,198.07L110.53,179.06L109.89,177.31L103.81,158.32L103.36,156.64L99.84,140.76L99.59,139.28L98.3,125.92L98.29,124.74L98.99,116.49L99.17,115.61L101.06,110.42L101.41,109.82L104.45,106.58L104.96,106.25L108.39,104.96L109.03,104.85L113.89,104.9L114.65,105.02L121.97,107.07L122.84,107.4L133.89,112.56L134.85,113.07L155.59,125.03L156.58,125.62L191.25,145.47" style="vector-effect: non-scaling-stroke; fill: none; stroke: rgb(99, 110, 250); stroke-opacity: 1; stroke-width: 2px; opacity: 1;"/></g><g class="points"/><g class="text"/></g><g class="trace scatter trace8c67e0" style="stroke-miterlimit: 2; opacity: 1;"><g class="fills"/><g class="errorbars"/><g class="lines"><path class="js-line" d="M403.92,168L400.23,138.24L399.63,139.44L398.97,139.87L398.42,141.33L397.68,141.41L397.1,137.94L395.93,135.43L395.36,136.13L394.77,137.23L394.08,135.83L393.56,134.13L393.04,137.86L392.38,140.6L391.8,139.53L390.15,140.75L389.57,145.86L388.91,147.85L388.22,146.53L387.07,150.66L386.49,149.21L384.04,157.52L383.37,158.49L380.95,163.4L380.27,163.7L379.07,162.22L378.46,161.08L377.91,159.99L377.35,161.79L376.79,163.2L376.18,161.38L375.7,159.63L375.19,160.8L374.69,161.37L374.17,164.35L370.97,175.21L370.37,174.19L369.88,171.36L369.42,173.22L368.9,175.25L368.36,174.73L367.87,175.36L366.8,179.27L366.37,175.78L365.88,175.41L365.48,176.97L364.51,181.17L364.02,180.6L363.61,179.39L363.18,179.96L362.78,182.77L362.32,187.43L361.83,186.84L361.4,186.26L359.24,194.35L358.82,194.13L358.42,191L358.06,190.49L357.69,190.91L357.32,191.6L356.94,191.28L356.61,189.59L356.31,188.91L356.01,189.59L355.7,190.7L353.72,202.97L353.39,201.71L353.08,200.89L352.76,203.24L352.47,201.46L352.19,201.85L351.33,205.68L351.06,204.05L350.81,204.39L350.53,207.48L349.74,210.03L349.5,209.22L348.51,213.32L348.28,215.86L348.06,215.81L347.81,217.69L346.88,222.3L346.7,218.83L346.38,214.17L345.97,218.79L345.83,220.1L345.71,219.69L345.51,223.01L344.53,232.37L344.35,234.84L344.08,234.33L343.45,240.63L343.37,238.83L343.31,236.44L343.23,235.54L343.05,239.59L342.91,239.32L342.88,240.86L342.82,264.17L342.89,265.55L342.96,264.36L343.17,270.99L343.38,272.46L343.39,270.62L344.02,287.82L344.15,288.63L344.4,290.23L344.57,288.52L344.82,286.23L344.93,285.06L344.99,288.6L345.34,289.49L345.51,286.87L345.88,290.1L346.05,290.85L347.89,300.03L348.15,298.68L348.97,301.35L349.26,300.54L349.57,300.71L351.45,316.21L351.72,317L352.84,324.25L353.14,326.14L354.32,334.98L354.8,334.77L355.25,331.92L355.48,331.68L355.9,333.68L357.09,337.35L357.63,336.11L358.2,332.98L358.43,333.54L358.86,338L360.63,345.13L361.07,348.44L363.42,358.66L363.9,358.79L365.29,365.71L365.78,367.14L366.88,369.4L367.21,372.59L367.99,375.39L368.78,373.21L370.18,369.55L370.71,370.15L372.17,372.6L372.92,372.82L374.24,376.62L374.9,379.27L375.64,381.82L376.89,379.42L377.44,376.46L378.1,379.61L380.37,387.64L381.42,388.8L382.25,387.62L382.93,389.65L384.71,395.06L385.7,394.23L386.47,394.9L387.47,397L391.4,402.98L392.1,402.99L398.1,413.08L399.4,415.32L401.89,412.83L402.93,413.42L404.98,420.54L406.42,421.62L407.67,420.73L408.77,421.85L411.35,424.14L412.83,424.09L414.37,422.17L415.5,422.22L416.72,425.37L418.41,426.91L420.05,425.64L421.21,426.33L425.92,432.97L427.8,429.09L429.14,427.35L430.78,428.62L433.91,429.76L435.35,432.47L437.25,433.67L439.07,431.76L440.58,431.49L441.91,435.23L443.83,439.03L446.01,438.03L449.54,441.33L451.36,439.35L455.11,435.93L457.32,435.68L461.34,433.7L463.28,431.28L465.71,429.44L468.11,425.34L470.14,422.42L472.1,422.63L474.44,423.17L476.88,421.93L481.51,418.02L484.01,416.21L485.91,415.37L488.53,416.26L493.46,412.73L495.23,412.55L497.81,413.94L500.73,410.03L506,397.48L508.69,393.66L510.75,392.45L513.45,393.49L515.91,392.23L518.81,388.47L524.11,384.11L526.16,379.66L528.66,380.4L531.47,379.73L537.25,371.97L540,367.47L545.45,360.07L547.98,357.92L551.08,355.11L553.84,350.29L556.91,344.02L559.49,336.61L565.12,332.56L567.64,329.24L570.94,325.21L573.07,320.78L576.29,318.9L579.04,313.36L592.35,291.22L595.73,286.92L598.08,279.68L601.1,273.63L603.66,265.56L606.36,260.07L611.6,248.56L613.86,246.97L616.91,244.53L619.31,238L626.72,221.54L628.95,220.6L631.94,214.68L633.87,204.37L640.29,184.34L642.64,179.46L648.65,159.54L650.55,157.78L652.59,157.27L654.6,152.89L661.1,131.44L662.56,126.65L671.05,95.64L671.76,92.23L674.16,70.01L674.04,67.13L670.36,46.06L669.46,42.94L666.6,33.41L665.67,33.13L663.51,35.41L662.09,33.1L660.8,31.77L659.49,33.16L658.22,35.91L656.24,35.4L653.02,29.38L651.17,30.19L645.61,27.29L644.03,27.86L641.7,28.48L639.7,26.2L635.68,23.92L633.62,26.99L626.93,28.06L624.77,29.68L622.31,30.42L619.64,28.81L617.19,25.25L615.09,25.27L608.11,34.33L605.49,33.62L603.17,33.6L600.98,37.35L597.97,38.65L595.37,34.87L592.92,33.6L590.45,34.82L587.85,35.13L585.16,33.71L583.08,34.71L580.56,38.8L578.19,42.24L575.33,44.01L573.07,44.71L570.37,47.45L563.02,51.79L559.98,51.89L557.6,48.64L555.32,50.31L550.32,57.9L547.55,59.81L544.87,58.38L542.41,55.88L540.21,56.69L537.78,60.99L535.07,63.62L532.56,64.02L530.33,66.48L527.52,66.02L525.28,63.39L522.89,64.2L520.52,64.83L518.18,66.49L513.6,67.2L511.17,69.24L506.64,74.27L504.09,75.53L501.88,75.28L499.69,77.8L495.08,82.74L492.63,83.47L490.28,82.76L488.32,84.76L486.2,89.51L483.93,92.57L479.52,94.16L477.38,95.93L470.93,102.17L468.82,103.13L466.77,102.74L464.6,101.26L462.58,99.73L460.58,100.22L458.64,102.23L456.7,105.87L452.74,111.22L450.54,111.11L448.75,109.46L446.95,110.97L445.2,113.54L443.08,114.5L441.44,115.51L439.68,121.5L437.63,124.77L435.85,125.68L434.04,127.43L432.25,126.52L430.57,126.6L428.75,128.84L425.33,126.77L423.64,128.06L422,126.44L420.66,129.38L418.78,133.18L417.32,131.67L414.24,141.12L412.61,141.91L411.14,142.58L409.77,146.49L408.13,151.2L406.55,152.58L405.01,152.27L403.47,150.51L402.07,148.99L400.74,149.47L397.94,155.14L396.58,154.68L395.28,155.4L394,157.73L390.12,161.89L388.8,163.68L386.33,168.5L385.12,167.67L383.88,168.34L382.67,168.05L381.56,167.24L380.51,167.85L378.17,175.77L376.94,176.74L375.89,175.75L374.82,178.39L373.65,179.26L372.65,177.57L371.69,178.21L370.76,181.63L368.68,183.09L367.78,186.08L365.85,188.37L364.86,187.33L364.07,187.9L363.05,190.45L362.2,189.66L361.33,190.14L359.64,193.1L358.84,195.23L357.27,197.27L356.37,200.78L354.8,201.74L354.06,200.59L353.3,200L352.61,200.56L350.47,206.34L349.73,209.23L348.31,211.2L347.65,211.01L347.03,209.02L346.47,209.39L345.82,212.49L345.2,212.89L344.57,212.02L344.03,210.28L343.47,212.08L342.25,222.68L341.68,220.81L340.68,218.36L340.13,220.33L339.13,220.85L338.64,223.31L337.7,225.35L337.21,227.85L335.7,236.26L335.25,234.93L334.83,233L334.41,233.47L334,233.24L332.93,230.18L332.58,231.52L331.93,232.62L331.6,234.97L330.96,237.02L330.63,240.04L327.61,252.55L327.37,254.26L327.11,253.94L326.87,254.58L326.68,253.03L326.42,252.88L326.22,254.69L325.98,255.2L325.72,259.09L324.81,267.77L324.66,266.72L324.5,263.54L324.18,265L323.96,266.73L323.52,264.02L322.46,283.89L322.27,281.98L322.18,281.2L322.02,282.48L321.95,280.39L321.93,277.81L322.09,302.17L322.35,304.55L322.7,299.28L322.86,308.66L323.05,309.17L323.24,312.09L323.51,311.95L323.81,313.13L323.96,310.49L324.17,314.23L324.42,315.74L325.03,313.61L325.17,314.25L325.44,315.41L325.83,320.58L326.04,319.23L326.34,318.4L326.83,317.15L327.04,318.61L327.51,317.74L327.61,316.98L328.04,318.39L328.26,317.71L328.64,318.11L329.75,322.64L330.13,324.7L331.63,323.07L332.15,320.68L332.41,319.87L332.84,321.93L334.06,323.27L334.51,324.15L335.37,325.19L335.94,323.95L336.81,326.97L337.35,325.18L338.7,327.62L339.17,327.75L340.71,330.94L341.31,329.39L342.45,329.32L342.87,327.91L343.6,327.93L344.18,326.19L346.79,320.45L347.44,319.97L348.82,321.1L349.48,319.87L351.79,312.41L352.45,313.81L353.18,316.12L354.12,315.42L354.81,313.72L355.46,315.16L356.33,315.77L357.22,313.05L358.84,307.35L359.66,307.6L363.36,298.19L364.08,301.03L365.15,302.3L366.01,301.42L368.81,298.04L369.62,297.2L370.62,297.58L371.7,295.45L374.4,289.5L375.44,291.03L376.57,289.11L377.6,284.62L380.75,272.17L381.81,273.05L383.82,270.63L385.05,270.75L385.94,269.54L387.14,269.52L389.14,264.76L390.42,264.03L393.82,254.57L394.98,250.04L398.25,242.9L399.48,242.99L401.77,242.9L402.95,239.72L406.21,228.64L407.52,229.11L408.65,226.89L410,222.43L410.92,217.89L412.11,216.88L414.29,211.94L415.55,209.97L418.71,202.7L420.02,201.57L422.05,194.9L423.27,193.02L424.27,189.19L425.26,188.5L427.23,188.44L428.21,188.51L430.11,181.95L431.04,181.56L432.06,178.19L432.96,172.48L434.73,170.08L435.65,166.49L438.28,156.29L439.11,157.29L440.09,155.3L440.79,149.81L443.12,141.42L443.92,141.11L445.39,140.58L446.08,137.01L448.5,127.27L449.07,125.07L450.18,125.96L450.65,124.88L451.55,122.98L452,123.8L452.73,119.72L453.05,115.72L454.49,108.2L454.72,108.1L454.92,107.68L455.06,104.5L455.5,98.1L455.63,105.02L455.46,102.65L455.28,96.41L454.59,84.37L454.37,88.48L454.08,90.6L453.76,88.36L453.53,89.01L453.22,91.71L452.41,88.61L451.94,85.39L451.68,85.54L451.2,88.49L450.27,85.95L449.73,85.98L448.69,81.98L448.13,82.25L447.57,81.35L447.05,81.79L446.41,81.5L445.93,82.28L445.36,86.31L443.93,88L443.2,87.46L441.8,83.55L441.17,85.41L438.88,85.97L438.08,84.04L436.65,87.66L435.8,87.23L435.03,87.24L434.25,88.54L432.57,92.35L431.61,90.48L430.81,90.06L429.96,90.99L428.08,88.76L427.17,87.67L426.42,88.26L425.57,90.77L422.72,92.36L421.86,91.5L420.05,93.37L419.07,93.21L417.25,91.74L416.25,91.72L415.38,91.37L414.46,92.35L412.59,93.65L411.66,93.74L410.65,93.37L409.73,92.2L407.88,96.94L406.96,97.21L405.05,98.91L404.03,98.46L402.15,102.21L401.11,99.89L399.25,95.72L398.27,96.61L396.38,102.51L395.4,100.05L394.51,99.96L393.56,101.17L391.61,102.01L390.68,100.23L388.83,103.78L388.06,103.82L386.19,111.82L385.08,112.98L384.05,110.33L383.2,110.88L382.3,114.38L381.25,114.8L380.27,112.71L379.36,112.92L377.48,113.21L376.47,111.51L375.7,110.72L374.7,112.15L372.89,113L371.92,111.43L370.29,117.46L369.37,116.99L368.45,115.36L367.75,117.09L366.69,119.28L365.86,117.8L362.46,117.06L361.6,118.32L359.09,126.52L358.11,127.03L357.3,124.54L356.58,125.65L354.85,127.03L353.95,127.35L351.54,124.94L350.83,125.62L349.25,128.13L348.47,125.67L347.84,125.51L347.13,128.11L346.34,128.54L345.55,125.76L344.28,122.17L343.62,123.5L341.59,132.68L340.85,132.81L339.49,129.5L338.8,132.26L338.11,133.44L337.39,133.08L336.76,133.25L336.02,132.31L334.88,128.24L334.34,127.88L333.21,136.31L332.53,136.17L331.93,137.06L331.28,140.34L329.9,142.31L329.32,141.66L328.06,142.83L327.44,141.04L326.39,136.03L325.8,137.89L322.05,137.9L321.59,139.59L319.46,147.6L318.86,146.86L318.38,145.63L317.85,146.63L316.31,150.28L315.8,151.39L315.25,152.75L314.69,151.22L313.78,147.89L313.29,150.05L312.4,149.39L311.89,149.64L310.65,150.86L310.16,153.61L308.86,151.43L308.45,151.35L307.62,151.29L307.24,151.1L306.5,147.76L306.14,148.75L305.78,149.75L305.4,149.93L305.05,148.84L304.4,147.43L304.06,148.73L303.4,151.25L303.05,153.35L302.36,154.46L302.01,156.98L301.62,157.6L301.28,156.29L300.96,155.8L300.64,156.36L300.32,158.12L299.25,161L298.91,157.11L298.04,154.73L297.84,155.58L297.48,156.28L297.22,152.35L296.99,152.5L296.78,156.35L296.47,160.01L296.17,158.38L295.92,157.07L295.66,157.41L295.38,156.99L295.12,155.38L294.89,153.76L294.46,155.39L294.25,155.54L293.81,157.74L293.55,157.14L293.36,156.09L292.06,164.69L291.78,166.08L290.66,160.04L290.27,161.02L290.08,161.75L289.14,165.35L288.95,167.54L287.36,177.6L287.1,174.8L286.27,164.75L286,168.06L285.86,167.84L285.25,171.96L285.08,175.16L284.54,177.23L284.34,175.5L284.21,172.1L283.91,174.7L283.64,171.62L283.38,173.9L283.24,171.75L283.16,169.87L282.68,173.38L282.59,171.38L282.48,172.63L282.13,177.92L281.8,175.98L281.68,175.87L281.08,177.09L280.7,171.69L280.64,173.21L280.57,174.77L279.66,180.16L279.57,180.44L279.4,182.19L279.3,184.24L279.09,183.85L278.74,192.15L278.6,189.81L278.49,187.21L278.34,179.36L278.1,188.69L277.82,186.99L277.74,187.13L277.29,185.28L277.02,188.26L276.96,187.54L276.9,187.7L276.75,181.14L276.49,186.07L276.44,188.25L275.83,196.31L275.66,190.89L275.63,186.43L275.61,184.27L275.34,201.02L274.85,197.23L274.79,197.25L274.19,195.74L272.89,217.75L272.79,214.29L272.71,210.94L272.63,210.77L272.56,211.04L272.52,208.15L272.44,207.82L272.4,210.51L272.33,209.84L272.26,211.94L271.93,207.8L271.27,219.44L271.21,219.34L271.1,218.28L271.01,221.09L270.83,220.44L270.75,223.99L270.53,225.61L270.44,225.17L270.37,221.43L270.25,217.57L270.02,225.57L269.71,223.34L269.61,224.55L269.43,223.26L269,229.97L268.86,226.08L268.8,226.2L268.45,233.33L268.32,237.15L268.18,241.62L267.69,237.1L267.57,236.05L266.41,242.32L266.26,244.12L265.61,251.86L265.28,249.73L265.17,248.25L264.99,247.92L264.85,250.11L264.71,250.65L264.61,248.67L264.48,244.39L263.58,254.82L263.45,253L263.29,252.19L262.47,262.23L261.96,261.95L261.76,259.43L260.41,268.29L260.23,268L260.05,265.76L259.61,269.64L259.39,272.86L258.68,277.59L258.43,276.06L258.2,275.91L256.9,281.62L256.7,281.34L256.43,279.76L256.17,282.15L255.94,283.12L254.03,287.3L253.77,285.99L252.26,294.16L252.02,292.82L251.63,292.26L250.32,301.97L249.98,302.24L249.66,301.23L249.25,302.04L248.88,306.56L247.22,315.13L246.83,314.11L246,309.07L245.59,311.12L243.85,322.19L243.4,319.8L242.88,319.82L242.35,325.51L241.9,328.97L241.38,327.29L240.87,327.48L239.85,330.1L239.37,329.66L238.83,329.03L236.76,332L236.23,331.62L235.62,332.45L235.06,334.57L233.36,335.29L232.77,337.76L231.54,341.8L230.87,346.49L230.22,347.7L229.55,346.2L227.56,340.91L226.92,341.33L223.42,351.91L222.61,356.98L221.05,363.27L220.22,361.33L218.6,357.88L217.79,358.21L217,358.31L216.15,359.8L215.3,362.54L214.46,362.42L213.57,361.86L212.67,362.89L211.8,362.89L210.89,363.68L209.03,370.73L208.05,370.66L206.04,367.53L205.08,368.04L204.03,368.6L203.03,370.27L200.97,366.26L199.97,366.54L198.86,366.62L197.81,367.65L195.58,372.48L194.47,372.57L193.29,374.26L192.14,373.56L190.96,372.37L189.82,374.04L188.62,374.74L187.4,373.65L184.96,369.65L183.68,367.3L182.45,364.08L181.24,365.52L179.95,368.08L178.62,368.44L175.98,361.48L174.65,359.84L173.36,361.16L172.06,364.95L170.67,365.75L169.26,364.75L167.81,364.04L166.32,360.62L163.35,358.26L161.91,355.64L158.97,347.89L157.59,346.87L156.2,347.37L154.72,346.61L151.56,342.54L149.9,338.72L148.43,335.68L146.89,334.25L145.4,331.72L143.84,331.63L142.24,331.57L140.51,328.19L137.29,319.58L135.68,318.62L134.17,320.28L132.36,318.8L130.72,314.32L128.95,311.95L120.53,297.42L118.77,292.24L115.54,281.83L113.86,278.37L112.3,273.55L110.68,271.67L108.97,269.15L107.33,265.13L98.01,232.46L96.55,227.54L93.57,219.72L92.09,212.05L90.91,207.92L89.59,206.19L85.44,197.36L84.19,192.21L79.31,171.82L78.12,168.37L72.02,138.33L70.97,130.57L70.58,125.11L69.74,125.18L67.64,112.1L67.2,107.05L66.25,100.87L65.65,94.3L65.11,62.9L65.52,61.79L67.94,41.85L68.69,37.59L71.06,32.92L71.92,34.33L75.96,29.62L77.02,29.71L78.22,28.47L79.45,29.71L80.66,30.95L81.91,30.69L84.55,32.86L85.99,32.14L90.27,42.64L91.65,46.17L93.13,47.13L94.75,44.94L99.7,42.53L101.49,42.74L104.95,47.07L106.52,51.71L108.3,53.23L110.14,51.12L111.8,53.84L113.49,58.66L115.34,61.71L117.11,62.87L122.45,68.01L124.12,69.98L125.92,73.13L127.76,74.57L129.48,78.6L131.18,85.33L133.1,87.53L134.84,88.03L139.91,97.37L141.74,101.18L143.5,102.02L145.1,101.81L148.51,103.78L150.09,108.36L153.34,119.17L154.88,122.81L160.92,127.09L162.43,128.89L168.08,139.87L169.58,142.9L171,142.26L172.3,142.55L173.73,143.47L175.13,142.98L177.82,148.48L179.17,147.9L180.49,147.31L181.7,148.68L182.98,151.53L184.27,152.44L186.73,154.75L187.86,157.31L190.21,161.01L191.31,163.05L195.48,176.66L196.49,178.75L198.33,176.26L199.34,178.16L200.33,178.18L201.19,180.45L202.06,183.92L202.94,184.09L203.71,184.5L204.57,186.7L205.36,187.58L206.09,190.47L206.91,192.93L207.74,191.55L208.4,190.55L209.11,192.63L210.52,193.69L211.12,197.76L211.8,202.93L212.51,202.02L213.06,200.32L213.64,202.99L215.87,208.44L216.35,207.6L216.89,206.59L217.35,207.52L218.32,210.2L218.81,209.14L219.73,208.06L220.12,210.11L220.63,211.42L220.99,210.25L221.71,215.63L222.06,220.67L222.95,227.13L223.22,226.16L223.45,226.23L224.19,228.46L224.39,228.01L224.64,226.64L224.79,226.48L224.99,230.26L226.08,244.91L226.08,244.91L226.12,246.11L226.16,243.7L225.28,254.91L225.13,256.88L224.85,256.7L224.7,260.26L224.15,259.39L223.05,269.9L222.81,267.71L222.27,268.36L221.72,266.74L221.45,267.37L220.9,269.46L220.6,267.71L220.31,268.76L220.05,266.24L219.72,264.38L219.41,270.29L219.11,272.68L218.78,270.9L218.42,271.93L218.1,273.93L217.75,272.23L217.39,271.14L216.67,274.73L216.29,277.97L215.86,279.75L215.45,278.81L215.03,275.13L214.19,282.23L213.74,281.93L213.28,282.78L212.31,285.83L211.84,284.15L210.87,280.45L210.42,281.25L209.94,280.5L209.48,276.51L209.02,273.12L208.59,276.21L207.13,281.91L206.6,284.43L206.02,284.62L205.45,283.67L204.88,284.54L204.33,283.75L202.59,285.37L202.03,285.72L201.45,285.64L200.89,287.36L200.27,288.14L199.65,287.1L198.38,286.24L197.75,287.61L196.4,293.2L195.72,293.21L195.04,291.52L194.34,293.31L193.64,295.36L192.91,295.12L191.4,294.56L190.63,290.16L189.88,287.94L189.17,288.21L187.76,283.75L187.03,284.08L186.32,286.03L185.55,290.65L184.77,290.88L183.96,289.74L182.31,287.09L181.5,288.24L179.8,286.64L178.98,287.18L174.66,289.3L173.76,287.59L172.85,285.65L172.05,287.55L171.1,288.36L170.16,287.26L169.16,285.96L168.26,282.9L166.4,282.15L165.42,280.47L161.62,279.26L160.63,277.86L158.63,272.16L157.66,274.79L153.69,262.85L152.81,263.05L151.73,264.1L150.75,260.96L147.77,254.44L146.93,253.28L145.84,253.79L145.02,255.24L143.84,254.06L142.91,247.07L140.95,244.6L140,242.81L137.99,232.05L137.23,232.39L136.24,235.04L135.22,232.09L133.46,226.33L132.55,226.76L129.79,219.06L128.94,216.8L128.15,217.01L127.24,216.25L123.7,207.5L122.75,202.03L121.28,195.69L120.53,195.42L119.7,193.13L118.95,188.77L116.27,179.5L115.67,179.99L114.86,177.79L114.22,171.33L113.76,168.5L113.21,169.33L112.6,168.13L112.06,165.91L111.59,166.06L111,166.28L108.48,151.36L108.05,146.04L107.82,143.16L107.54,144.94L107.09,143.8L105.49,131.91L105.34,132.22L105.19,132.03L104.81,118.32L104.94,113.45L106.03,102.24L106.38,97.78L107.07,98.63L107.45,99.49L107.76,99.63L108.2,98.83L108.56,98.53L109.02,95.26L109.57,95.37L110.01,94.22L110.63,92.82L111.13,94.96L111.72,93.23L112.35,94.03L112.89,95.99L113.51,94.13L114.17,93.13L114.81,95.41L116.22,91.98L116.89,94.38L117.63,94.21L118.37,92.53L119.17,90.27L120.04,90.31L123.35,95.68L124.2,95.6L125.97,94.03L126.89,91.46L127.83,91.47L128.83,93.63L129.73,94.22L130.75,91.95L131.73,92.17L132.72,95.58L133.66,98.31L134.67,98.71L136.76,95.31L137.82,97.9L138.86,100.27L139.91,99.19L140.96,100.61L141.96,103.28L142.99,103.85L144.06,102.09L146.15,100.62L147.21,102.69L149.36,104.17L150.36,109.17L151.43,111.46L152.45,111.86L153.59,110.53L154.69,107.8L155.83,107.03L156.83,109.89L157.83,116.13L158.97,114.81L159.98,111.43L161,114.89L162.02,119.4L163.14,119.18L164.22,113.27L165.33,111.83L167.51,109.86L168.56,113.73L171.75,122.12L172.84,120.68L173.79,122.51L174.84,126.76L176.8,130.15L177.78,129.29L178.78,129.8L179.84,128.28L180.87,127.55L181.89,128.37L183.81,129.57L184.73,130.73L185.69,132.68L186.66,131.31L188.49,137.92L189.44,135.77L190.31,135.9L191.21,138.11L193.92,137.5L194.83,136.9L195.71,136.56L196.57,137.68L198.29,136.92L199.07,141.71L200.72,146.92L201.47,147.4L202.26,147.68L203.04,146.06L204.63,141.91L205.3,145.9L206.11,150.32L206.83,150.09L207.59,152.35L208.31,152.1L209.07,150.02L211.1,156.69L211.77,156.33L213.05,152.25L213.77,152.2L214.37,151.8L215.06,153.64L216.37,157.53L216.95,155.78L218.17,158.5L218.73,160.76L219.86,161.42L220.42,161.93L223.09,161.81L223.57,164.42L224.07,166.9L224.57,166.75L225.03,166.08L226.48,163.19L226.94,166.95L227.41,167.42L227.9,163.41L228.36,161.67L228.78,166.62L229.24,171.36L229.67,170.12L230.05,169.23L231.68,173.46L232.06,173.15L232.84,169.57L233.21,171.8L234.34,172.44L234.67,174.94L236,179.06L236.31,176.38L236.93,171.75L237.27,173.14L237.56,174.11L238.14,179.33L238.42,178.38L238.69,177.28L239.22,177.89L239.5,176.92L240.78,179.56L241,181.46L241.47,181.21L241.88,182.63L242.11,181.69L242.87,187.34L243.22,185.77L243.4,184.79L243.79,182.01L243.96,183.8L244.14,186.76L244.92,178.23L245.11,180.11L245.3,182.16L245.62,187.38L246.05,187.04L246.21,185.63L246.36,185.53L246.49,188.02L246.62,189.26L246.89,185.93L247.01,185.52L247.34,193.16L247.92,190.63L248.02,189.13L248.22,189.88L248.34,189.55L248.45,187.36L248.73,193.25L248.81,196.89L249.04,202.66L249.22,193.99L249.47,195.49L249.5,199.65L249.56,196.79L249.06,211.8L249,212.66L247.82,219.15L247.72,220.03L247.29,222.49L247.08,219.54L246.98,218.66L246.7,220.01L246.62,218.91L246.53,217L246.18,221.51L246.08,223.82L245.98,221.38L245.46,226.95L245.32,227.48L244.9,224.75L244.31,232.93L244.15,233.04L244,229.45L243.69,234.3L243.51,233.89L243.32,236.36L243.14,236.91L242.96,233.84L242.79,231.93L242.47,234.92L242.12,232.85L241.97,232.93L241.79,232.68L241.64,234.58L241.47,234.25L241.29,235.54L240.49,240.22L240.29,239.99L240.1,239.04L238.29,246.24L238.07,246.18L237.41,240.17L237.19,241.23L236.96,244.19L236.72,247.2L236.27,245.13L236.03,244.93L234.67,252.69L234.4,251.9L234.12,251.2L233.82,254.01L232.88,258.85L232.52,259.46L232.16,260.23L231.84,259.36L231.51,257.59L230.85,260.75L230.51,258.07L229.86,256.32L229.53,256.67L229.2,260.32L228.84,262.48L228.49,260.97L228.15,259.64L227.48,258.33L227.15,256.05L226.45,262.64L226.08,261.75L225.72,260.78L224.32,256.41L223.97,258.51L222.4,266.44L221.99,268.32L221.56,268.2L221.13,270.34L220.23,272.62L219.75,272.96L218.81,272.11L218.33,274.19L217.85,275.48L217.35,273.67L216.86,269.37L216.37,270.6L215.91,273.7L215.43,273.51L214.91,270.62L214.43,270.38L213.96,271.35L213.47,268.93L212.99,269.28L212.5,271.13L212.01,273.64L211.52,271.47L211.01,268.49L210.57,270.62L209.07,274.84L208.55,274.63L208.02,273.9L207.51,274.89L205.81,281.39L205.22,280.46L204.04,276.98L203.45,277.18L202.84,279.79L202.23,278.14L201.62,275.03L201.02,276.67L199.15,279.56L198.51,277.47L197.88,277.46L197.24,278.97L195.96,277.53L195.28,278.67L194.6,277.43L193.98,278.41L191.83,287.63L190.99,287.23L190.21,287.07L189.45,289.06L188.67,289.81L187.84,289.08L186.27,283.65L185.46,284.41L184.65,284.22L183.83,281.78L183.06,280.94L182.26,282.81L179.79,275.94L178.97,277.9L176.47,278.19L175.65,277.72L173.91,276.68L173,274.98L171.28,272.45L170.43,267.98L169.6,266.54L168.79,266.7L167.01,270.7L166.19,270.04L164.41,271.46L163.51,271.63L162.51,271.78L161.53,269.84L158.73,261.32L157.79,259.84L156.91,258.44L156,260.32L153.21,257.03L152.28,254.41L147.71,244.09L146.81,244.18L144.98,238.76L144.09,239.7L143.22,239.88L142.33,239.27L140.61,236.38L139.69,234.9L137.95,229.39L137.03,228.46L132.75,217.78L131.84,216.46L129.45,209.28L128.64,208.51L125.53,204.65L124.79,203.37L123.93,200.75L123.23,195.98L121.96,189.38L121.27,191.23L119.84,186.67L119.1,183.58L117.97,179.06L117.39,179.71L115.58,173.03L115.14,174.26L114.5,175.77L113.87,170.91L113.01,165.02L112.53,166.02L109.16,147.3L108.87,144.82L108.17,135.57L107.63,137.47L107.4,135.64L107.23,116.88L107.39,115.41L107.69,115.74L107.85,114.65L108.08,113.85L108.55,111.59L109.1,112.06L109.41,112.93L110.47,106.21L110.91,106.7L111.29,106.16L112.65,103.39L113.19,102.36L113.68,105.25L114.16,103.83L114.77,100.01L116.02,95.91L116.7,97.05L117.95,100.31L118.66,98.54L120.07,98.48L120.82,95.57L122.38,97.98L123.19,94.01L124.05,93.7L124.85,96.44L126.49,98.17L127.39,97.14L128.29,96.56L129.14,98.48L129.97,101L130.91,100.78L131.85,97.46L132.75,101.8L133.61,108.71L134.5,108.41L135.44,107.07L136.33,107.47L137.26,109.1L138.22,107.49L139.14,107.87L140.16,109.16L142.08,106.84L143.13,106.3L145.09,111.01L146.08,110.6L147.07,110.57L148.05,113.3L149.03,116.53L149.99,115.99L152,113.66L153.06,111L154.15,107.97L155.21,108.47L156.25,108.85L157.26,108.16L158.33,110.28L159.39,110.11L161.51,114.06L162.55,114.05L164.54,118.68L165.59,118.39L166.6,118.17L167.68,119.85L169.67,121.53L170.64,120.56L174.61,129.44L175.61,127.91L176.55,128.4L177.5,132.15L178.47,133.68L179.39,132.47L180.34,131.83L181.33,130.01L182.24,128.03L183.19,129.6L185.94,137.88L186.98,137.84L187.78,137.45L188.72,139.13L189.62,135.94L190.4,138.62L191.36,141.26L192.24,138.53L193.92,140.39L194.83,137.16L195.63,135.72L196.49,137.75L198.1,144.68L198.91,141.09L200.54,137.85L201.33,138.4L203.63,147.36L204.4,147.87L205.13,147.65L205.83,150.15L206.54,153.56L207.26,152.64L207.94,150.43L208.59,151.83L209.23,154.47L209.96,152.88L210.6,150.82L211.26,154.89L211.96,157.03L212.61,154.66L213.22,154.03L213.84,154.71L215.6,161.68L216.22,161.27L216.78,159.22L217.89,159.52L218.49,160.14L219.02,160.43L219.54,161.63L221.09,163.98L221.63,163.84L222.64,164.07L223.18,160.97L223.68,158.19L224.17,161.17L225.67,164.02L226.14,160.87L226.61,159.89L227.08,161.17L228.03,164.37L228.47,162.21L228.94,161.67L229.41,159.9L229.86,159.49L230.34,160.44L231.22,162.81L231.64,165.98L232.08,165.42L232.46,162.93L232.88,163.2L233.28,164.98L233.69,167.24L234.1,165.49L234.48,163.73L236.01,166.57L236.4,165.59L236.77,163.07L237.13,164.87L237.48,169.36L237.84,168.99L238.16,167.31L238.89,160.37L239.26,160.8L239.63,163.89L240.88,170.2L241.17,172.62L242.04,171.03L242.32,167.67L243.5,167.19L243.79,170.14L244.54,175.6L244.8,174.11L245.05,171.44L245.83,169.23L246.06,171L246.32,172.66L246.57,170.03L246.81,169.31L247.06,169.92L247.28,172.67L248.12,176.54L248.32,174.02L248.75,170.82L248.97,172.48L249.18,174.51L249.95,177.15L250.13,176.05L250.33,173.22L250.51,171.67L250.71,175.34L250.91,175.64L251.09,173.59L251.44,176.87L251.6,180.54L252.12,179.95L252.59,184.87L252.71,182.68L252.82,180.91L253.24,185.9L253.32,188.86L254.15,177.35L254.28,178.78L254.41,180.92L254.59,187.52L255.22,186.07L255.29,185.18L255.45,185.23L255.52,186.89L255.67,191.55L256.01,185.39L256.21,186.23L256.28,185.43L256.53,186.07L256.79,179.52L257.07,183.45L257.13,185.18L257.51,193.01L257.73,184.97L257.91,187.64L257.99,185.28L258.05,183.96L258.46,190.9L258.49,193.25L258.45,192.15L258.36,209.1L258,203.48L257.99,199.97L257.86,198.72L257.12,213.25L257.05,214.4L256.83,215.5L256.76,214.94L256.7,212.93L255.53,226.72L255.43,226.65L255.31,223.48L254.98,223.63L254.88,224.71L254.78,223.77L254.56,226.72L254.43,228.11L253.74,231.36L253.6,230.83L253.44,232.94L252.99,231.23L252.68,236.01L252.53,235.97L252.38,234.41L252.08,232.82L251.79,234.59L251.51,232.93L251.37,233.94L250.81,233.43L250.65,235.03L250.5,238.15L250.19,236.66L250.02,240.32L249.86,241.06L249.18,239.31L248.99,242.42L248.06,244.97L247.87,244.17L247.51,243.98L247.3,245.7L247.11,248.49L246.34,246.77L246.14,248.05L245.74,247.32L245.51,249.07L245.29,253.34L245.06,254.69L244.6,252.94L244.39,250.53L244.17,249.29L243.95,251.32L243.72,253.73L242.76,256.9L242.49,260.4L241.92,265.25L241.64,265.18L241.37,261.9L240.85,258.65L240.54,262.84L239.62,267.11L239.31,267.15L238.3,271.86L237.98,271.44L237.64,270.44L237.29,273.29L236.16,278.27L235.83,277.1L235.42,276.1L235.07,277.78L234.69,275.77L234.3,276L233.96,274.7L233.59,273.12L233.22,274.3L232.87,274.7L232.49,275.35L232.07,280.7L231.66,285.21L231.22,284.43L230.78,284.92L230.33,285.95L229.88,285.65L229.45,284.87L228.56,289.2L228.09,285.94L227.63,283.42L227.16,285.31L226.24,289.71L225.75,289.35L224.38,284.35L223.91,286.46L222.35,298.98L221.82,296.89L219.7,289.72L219.16,293.22L218.02,297.04L217.45,296.88L216.86,297.07L216.3,299.88L215.09,299.8L214.5,301.34L213.24,301.31L212.61,301.48L210.6,306.11L209.91,306.85L208.48,311.47L207.79,311.87L206.31,310.52L205.57,307.18L204.84,304.29L204.1,304.76L202.61,309.48L201.83,309.37L200.29,304.86L199.54,306.01L197.9,305.92L197.14,306.93L196.34,306.74L195.55,307.55L193.86,312.53L192.97,312.02L191.19,313.15L190.32,312.85L189.42,312.09L188.51,309.96L187.61,310.4L186.64,308.67L184.78,311.11L183.82,308.59L181.88,309.82L180.93,309.39L178.94,312.16L177.89,311.81L175.77,309L174.7,307.95L173.7,307.85L172.66,309.92L171.62,310.27L170.55,309.14L168.25,312.7L167.08,309.66L163.58,303.98L162.45,300.75L161.39,301.96L160.2,300.55L157.86,294.63L156.76,293.87L155.59,293.41L154.39,290.16L153.21,286.87L152.17,289.08L150.92,291.99L149.7,290.66L147.33,288.3L146.11,286.36L143.66,284.68L142.46,284.96L139.88,279.35L138.55,279.41L135.85,271.92L134.71,271.69L133.4,270.25L132.12,266.21L130.88,266.17L129.45,264.73L128.21,260.27L127.01,259.1L124.56,256.19L123.18,256.87L119.29,246.45L118.02,244.57L112.97,231.55L111.77,231.2L109.31,225.79L107.99,222.53L105.68,216L104.57,215.64L103.37,214.6L102.13,210.63L98.9,195.96L97.77,193.19L93.8,181.76L92.93,182.45L91.83,181.04L90.86,176.2L87.32,164.4L86.54,160.74L84.99,155.75L84.15,150.12L82.24,140.98L81.56,139.89L77.31,110.83L77.03,105.76L77.06,87.31L77.27,84.11L78.24,81.52L78.63,82.97L79.42,78.57L79.88,80.41L80.33,80.18L80.89,75.73L82.14,72.44L82.84,73.12L83.48,73.21L84.27,71.04L85.04,69.74L85.83,70.4L88.21,77.5L89.04,76.6L91.81,76.57L92.73,78.61L94.71,76.74L95.73,78.25L96.73,79.67L97.85,78.93L99.06,76.49L100.14,76.51L102.62,73.14L103.82,76.12L105,79.74L106.29,80.52L107.58,81.84L108.81,84.28L110.06,84.92L111.27,88.16L112.54,90.01L113.82,89.57L115.19,89.3L116.49,91.25L119.09,93.52L120.38,94.01L121.72,94.04L123.14,92.91L124.49,93.96L125.83,96.47L127.16,98.34L128.54,98.79L131.27,102.71L132.62,102.27L135.34,103.94L136.64,107.24L138,108.6L139.28,108.33L141.88,113.77L143.29,114.28L144.59,113.41L145.92,115.62L148.52,116.98L149.89,117.52L152.47,121.6L153.82,120.75L155.11,117.89L156.41,119.58L160.26,127.13L161.5,126.9L162.76,127.4L163.93,129.23L165.2,132.61L166.44,132.46L167.53,133.57L168.79,136.67L169.98,136.55L171.23,134.63L172.38,135.51L173.59,139.34L175.84,138.69L176.9,142.15L178.06,143.13L179.19,142.84L180.29,144.42L181.48,143.71L182.58,141.97L183.58,142.71L185.74,148.81L186.76,149.27L187.79,151.31L188.78,155.06L189.79,156.85L190.76,156.45L192.59,159.86L193.38,163.75L194.34,167.24L195.24,165.02L197.87,160.08L198.8,160.93L199.67,159.27L200.51,159.52L205.44,169L206.18,167.55L207.73,168.01L208.49,166.78L209.2,167.79L209.91,170.63L212,176.16L212.6,175.23L213.83,180.11L214.44,182.41L215.6,183.32L216.19,181.25L216.76,179.64L217.33,180.44L218.97,182.28L219.51,185.16L220.48,191.06L220.94,187.75L221.41,185.93L221.85,187.57L222.34,188.53L222.74,187.31L224.46,191.07L224.91,188.79L226.16,183.77L226.54,185.32L227.69,191.71L228.05,190.7L228.66,197.24L229.03,196.62L229.3,193.21L230.28,191.62L230.61,189.77L232.01,197.78L232.31,195.57L232.55,193.8L232.83,196.04L233.08,196.24L233.97,202.24L234.2,200.4L234.41,198.3L234.62,198.01L234.82,198.85L235.01,200.76L235.25,200.25L235.44,197.3L235.64,196.95L235.82,199.08L236.64,209.23L236.98,206.62L237.07,204.55L237.36,212.24L237.66,206.88L237.75,204.07L238.13,228.33L238.05,229.22L237.67,231.95L237.36,231.14L237.26,230.2L236.93,225.55L236.59,228.32L236.5,231.15L235.92,237.87L235.77,235.49L235.64,232.8L235.26,231.03L235.02,232.05L234.86,234.3L234.59,234.04L234.29,236.92L234.14,234.14L233.98,234.72L232.66,243.09L232.42,244.15L232.21,245.22L232,243.19L231.79,242.45L231.56,243.13L231.38,241.35L231.17,237.87L230.76,243.39L230.55,245.73L230.31,244.76L230.07,245.91L229.82,245.9L229.58,247.21L229.33,247.69L229.08,246.78L228.82,247.26L228.57,247.47L228.31,246.54L228.05,248.65L227.76,251.86L227.19,250.54L226.9,251.1L225.97,256.27L225.66,253.79L225.35,253.56L225.02,255.4L222.89,262.02L222.51,260.2L221.14,252.66L220.79,255.83L220.05,261.63L219.65,260.68L217.15,268.13L216.71,266.51L215.84,264.8L215.38,266.13L214.94,266.99L214.5,264.62L214.06,265.26L213.61,268.92L213.13,268.96L212.64,266.59L211.69,267.61L211.22,266.81L210.26,269.26L209.75,268.49L208.74,270.83L208.24,269.95L207.72,269.81L207.21,271.25L206.17,270.15L205.65,269.92L205.11,271.04L204.57,275.49L203.99,276.1L203.36,272.99L202.79,271.72L202.18,272.04L201.62,272.24L201.03,272.39L200.45,269.99L199.86,269.21L199.26,270.44L198.63,267.94L198.05,268.6L197.48,274.85L196.85,277.42L196.15,276.07L193.57,268.62L193,269.73L191.05,270.73L190.38,268.17L189.76,266.22L189.13,266.46L188.47,268.11L187.84,269.88L187.15,269.39L185.79,267.28L185.14,269.99L184.43,272.51L183.71,271.97L182.98,271.63L182.22,269.96L181.5,267.92L180.81,271.31L180.05,274.13L179.25,273.23L174.53,270.19L173.7,266.49L172.95,263.76L172.2,265.78L171.36,267.13L170.51,263.83L169.79,259.86L169.08,261.13L168.25,263.08L167.45,262.67L165.75,260.31L164.86,256.51L164.11,255.07L163.26,256.83L160.03,250.19L159.21,249.33L158.44,248.71L157.63,249.6L156.78,249.69L155.87,246.17L154.33,240.63L153.55,241.6L152.79,241.58L152.03,242.86L150.39,245.05L149.42,243.19L147.76,240.2L146.9,238.71L145.16,231.38L144.44,231.91L143.61,234.89L142.65,232.99L140.3,228.84L139.48,229.56L138.51,228.45L137.68,225.27L133.8,214.52L132.99,214.43L131.34,209.33L130.7,206.15L129.99,207.01L129.19,204.54L126.49,193.49L125.96,194.13L125.24,195.8L124.55,194.09L123.19,190L122.57,187.05L121.39,184.57L120.75,184.88L117.96,175.76L117.42,177.47L115.32,168.9L114.81,166.37L113.6,161.76L113.12,160.16L112.04,156.42L111.67,155.73L110.52,141.48L110.13,143.54L109.9,142.68L109.25,138.13L109.12,133.19L109.05,134.26L109.64,117.27L110.01,119.41L110.21,118.77L110.42,118.53L110.62,116.27L111.57,110.51L111.92,111.59L112.67,110.04L113.02,112.17L113.78,114.48L114.15,113.88L114.59,109.09L115.11,104.74L115.65,105.14L116.16,104.8L117.92,100.84L118.52,101.1L119.14,101.83L119.73,104.31L122.28,106.27L122.94,107.36L124.3,108.66L125.01,108.01L125.76,106.42L126.51,106.77L127.25,106.58L128.06,104.83L129.65,103.64L130.42,105.63L132.04,106.56L132.86,106.4L135.37,110.5L136.27,109.63L138.09,107.28L138.98,106.5L140.79,109.1L141.73,107.38L142.7,106.3L143.63,107.15L144.55,108.84L145.54,108.72L146.49,107.41L147.46,109.38L148.43,111.87L149.42,111.91L152.21,121.81L153.19,122.27L155.1,118.75L156.14,119.15L157.16,116.35L158.15,116.03L161.14,119.69L162.11,119.73L163.11,122.02L164.06,120.58L165.04,118.9L166.05,119.75L168.08,121.79L169.01,123.95L169.92,125.57L170.81,130.07L172.64,133.02L173.54,133.05L174.47,131.84L175.42,129.19L176.36,126.46L177.29,126.22L178.23,126.13L179.13,127.86L180.13,128.22L180.99,130.38L181.9,134.14L182.77,134.2L184.59,132.66L185.41,134.93L186.33,137.06L187.18,136.08L188.09,134.68L188.93,135.24L189.83,137.15L190.71,136.61L192.33,142.48L193.14,141.81L193.91,141.86L194.71,142.88L196.3,141.23L197.11,141.83L198.66,141.13L199.46,143.1" style="vector-effect: non-scaling-stroke; fill: none; stroke: rgb(239, 85, 59); stroke-opacity: 1; stroke-width: 2px; opacity: 1;"/></g><g class="points"/><g class="text"/></g></g></g><g class="overplot"/><path class="xlines-above crisp" d="M79,520.5H693M79,99.5H693" style="fill: none; stroke-width: 1px; stroke: rgb(0, 0, 0); stroke-opacity: 1;"/><path class="ylines-above crisp" d="M79.5,100V520M692.5,100V520" style="fill: none; stroke-width: 1px; stroke: rgb(0, 0, 0); stroke-opacity: 1;"/><g class="overlines-above"/><g class="xaxislayer-above"><g class="xtick"><text text-anchor="middle" x="0" y="535.4" transform="translate(141.2,0)" style="font-family: 'Open Sans', verdana, arial, sans-serif; font-size: 12px; fill: rgb(42, 63, 95); fill-opacity: 1; white-space: pre; opacity: 1;">−2</text></g><g class="xtick"><text text-anchor="middle" x="0" y="535.4" style="font-family: 'Open Sans', verdana, arial, sans-serif; font-size: 12px; fill: rgb(42, 63, 95); fill-opacity: 1; white-space: pre; opacity: 1;" transform="translate(263.6,0)">−1</text></g><g class="xtick"><text text-anchor="middle" x="0" y="535.4" style="font-family: 'Open Sans', verdana, arial, sans-serif; font-size: 12px; fill: rgb(42, 63, 95); fill-opacity: 1; white-space: pre; opacity: 1;" transform="translate(386,0)">0</text></g><g class="xtick"><text text-anchor="middle" x="0" y="535.4" style="font-family: 'Open Sans', verdana, arial, sans-serif; font-size: 12px; fill: rgb(42, 63, 95); fill-opacity: 1; white-space: pre; opacity: 1;" transform="translate(508.4,0)">1</text></g><g class="xtick"><text text-anchor="middle" x="0" y="535.4" style="font-family: 'Open Sans', verdana, arial, sans-serif; font-size: 12px; fill: rgb(42, 63, 95); fill-opacity: 1; white-space: pre; opacity: 1;" transform="translate(630.8,0)">2</text></g></g><g class="yaxislayer-above"><g class="ytick"><text text-anchor="end" x="76.6" y="4.199999999999999" transform="translate(0,520)" style="font-family: 'Open Sans', verdana, arial, sans-serif; font-size: 12px; fill: rgb(42, 63, 95); fill-opacity: 1; white-space: pre; opacity: 1;">−15</text></g><g class="ytick"><text text-anchor="end" x="76.6" y="4.199999999999999" style="font-family: 'Open Sans', verdana, arial, sans-serif; font-size: 12px; fill: rgb(42, 63, 95); fill-opacity: 1; white-space: pre; opacity: 1;" transform="translate(0,436)">−10</text></g><g class="ytick"><text text-anchor="end" x="76.6" y="4.199999999999999" style="font-family: 'Open Sans', verdana, arial, sans-serif; font-size: 12px; fill: rgb(42, 63, 95); fill-opacity: 1; white-space: pre; opacity: 1;" transform="translate(0,352)">−5</text></g><g class="ytick"><text text-anchor="end" x="76.6" y="4.199999999999999" style="font-family: 'Open Sans', verdana, arial, sans-serif; font-size: 12px; fill: rgb(42, 63, 95); fill-opacity: 1; white-space: pre; opacity: 1;" transform="translate(0,268)">0</text></g><g class="ytick"><text text-anchor="end" x="76.6" y="4.199999999999999" style="font-family: 'Open Sans', verdana, arial, sans-serif; font-size: 12px; fill: rgb(42, 63, 95); fill-opacity: 1; white-space: pre; opacity: 1;" transform="translate(0,184)">5</text></g><g class="ytick"><text text-anchor="end" x="76.6" y="4.199999999999999" style="font-family: 'Open Sans', verdana, arial, sans-serif; font-size: 12px; fill: rgb(42, 63, 95); fill-opacity: 1; white-space: pre; opacity: 1;" transform="translate(0,100)">10</text></g></g><g class="overaxes-above"/></g></g><g class="polarlayer"/><g class="smithlayer"/><g class="ternarylayer"/><g class="geolayer"/><g class="funnelarealayer"/><g class="pielayer"/><g class="iciclelayer"/><g class="treemaplayer"/><g class="sunburstlayer"/><g class="glimages"/><defs id="topdefs-7b173e"><g class="clips"/><clipPath id="legend7b173e"><rect width="84" height="48" x="0" y="0"/></clipPath></defs><g class="layer-above"><g class="imagelayer"/><g class="shapelayer"/></g><g class="infolayer"><g class="legend" pointer-events="all" transform="translate(704.24,100)"><rect class="bg" shape-rendering="crispEdges" width="84" height="48" x="0" y="0" style="stroke: rgb(68, 68, 68); stroke-opacity: 1; fill: rgb(255, 255, 255); fill-opacity: 1; stroke-width: 0px;"/><g class="scrollbox" transform="" clip-path="url(#legend7b173e)"><g class="groups"><g class="traces" transform="translate(0,14.5)" style="opacity: 1;"><text class="legendtext" text-anchor="start" x="40" y="4.680000000000001" style="font-family: 'Open Sans', verdana, arial, sans-serif; font-size: 12px; fill: rgb(42, 63, 95); fill-opacity: 1; white-space: pre;">trace 0</text><g class="layers" style="opacity: 1;"><g class="legendfill"/><g class="legendlines"><path class="js-line" d="M5,0h30" style="fill: none; stroke: rgb(99, 110, 250); stroke-opacity: 1; stroke-width: 2px;"/></g><g class="legendsymbols"><g class="legendpoints"/></g></g><rect class="legendtoggle" x="0" y="-9.5" width="78.375" height="19" style="fill: rgb(0, 0, 0); fill-opacity: 0;"/></g><g class="traces" transform="translate(0,33.5)" style="opacity: 1;"><text class="legendtext" text-anchor="start" x="40" y="4.680000000000001" style="font-family: 'Open Sans', verdana, arial, sans-serif; font-size: 12px; fill: rgb(42, 63, 95); fill-opacity: 1; white-space: pre;">trace 1</text><g class="layers" style="opacity: 1;"><g class="legendfill"/><g class="legendlines"><path class="js-line" d="M5,0h30" style="fill: none; stroke: rgb(239, 85, 59); stroke-opacity: 1; stroke-width: 2px;"/></g><g class="legendsymbols"><g class="legendpoints"/></g></g><rect class="legendtoggle" x="0" y="-9.5" width="78.375" height="19" style="fill: rgb(0, 0, 0); fill-opacity: 0;"/></g></g></g><rect class="scrollbar" rx="20" ry="3" width="0" height="0" x="0" y="0" style="fill: rgb(128, 139, 164); fill-opacity: 1;"/></g><g class="g-gtitle"/><g class="g-xtitle"/><g class="g-ytitle"/></g></svg>