<svg class="main-svg" xmlns="http://www.w3.org/2000/svg" xmlns:xlink="http://www.w3.org/1999/xlink" width="800" height="600" style="" viewBox="0 0 800 600"><rect x="0" y="0" width="800" height="600" style="fill: rgb(255, 255, 255); fill-opacity: 1;"/><defs id="defs-7cc099"><g class="clips"><clipPath id="clip7cc099xyplot" class="plotclip"><rect width="612" height="420"/></clipPath><clipPath class="axesclip" id="clip7cc099x"><rect x="80" y="0" width="612" height="600"/></clipPath><clipPath class="axesclip" id="clip7cc099y"><rect x="0" y="100" width="800" height="420"/></clipPath><clipPath class="axesclip" id="clip7cc099xy"><rect x="80" y="100" width="612" height="420"/></clipPath></g><g class="gradients"/><g class="patterns"/></defs><g class="bglayer"/><g class="layer-below"><g class="imagelayer"/><g class="shapelayer"/></g><g class="cartesianlayer"><g class="subplot xy"><g class="layer-subplot"><g class="shapelayer"/><g class="imagelayer"/></g><g class="gridlayer"><g class="x"><path class="xgrid crisp" transform="translate(167.43,0)" d="M0,100v420" style="stroke: rgb(235, 240, 248); stroke-opacity: 1; stroke-width: 1px;"/><path class="xgrid crisp" transform="translate(276.71000000000004,0)" d="M0,100v420" style="stroke: rgb(235, 240, 248); stroke-opacity: 1; stroke-width: 1px;"/><path class="xgrid crisp" transform="translate(495.29,0)" d="M0,100v420" style="stroke: rgb(235, 240, 248); stroke-opacity: 1; stroke-width: 1px;"/><path class="xgrid crisp" transform="translate(604.57,0)" d="M0,100v420" style="stroke: rgb(235, 240, 248); stroke-opacity: 1; stroke-width: 1px;"/></g><g class="y"><path class="ygrid crisp" transform="translate(0,436)" d="M80,0h612" style="stroke: rgb(235, 240, 248); stroke-opacity: 1; stroke-width: 1px;"/><path class="ygrid crisp" transform="translate(0,352)" d="M80,0h612" style="stroke: rgb(235, 240, 248); stroke-opacity: 1; stroke-width: 1px;"/><path class="ygrid crisp" transform="translate(0,184)" d="M80,0h612" style="stroke: rgb(235, 240, 248); stroke-opacity: 1; stroke-width: 1px;"/></g></g><g class="zerolinelayer"><path class="xzl zl crisp" transform="translate(386,0)" d="M0,100v420" style="stroke: rgb(235, 240, 248); stroke-opacity: 1; stroke-width: 2px;"/><path class="yzl zl crisp" transform="translate(0,268)" d="M80,0h612" style="stroke: rgb(235, 240, 248); stroke-opacity: 1; stroke-width: 2px;"/></g><path class="xlines-below"/><path class="ylines-below"/><g class="overlines-below"/><g class="xaxislayer-below"/><g class="yaxislayer-below"/><g class="overaxes-below"/><g class="plot" transform="translate(80,100)" clip-path="url(#clip7cc099xyplot)"><g class="scatterlayer mlayer"><g class="trace scatter tracee358cc" style="stroke-miterlimit: 2; opacity: 1;"><g class="fills"/><g class="errorbars"/><g class="lines"><path class="js-line" d="M371.57,168L352.47,178.97L351.6,179.45L322.68,196.04L322.13,196.41L312.21,203.74L311.76,204.11L302.57,212.98L302.21,213.38L293.71,224.15L293.39,224.61L282.92,240.79L282.58,241.34L267.71,264.42L267.25,265.08L255.81,279.95L255.23,280.64L244.16,292.24L243.44,292.91L233.3,301.28L232.46,301.89L222.58,308.14L221.62,308.65L211.53,313.18L210.47,313.56L200.5,316.23L199.35,316.44L189.88,317.28L188.67,317.28L180.05,316.48L178.8,316.25L170.07,313.68L168.82,313.17L161.46,309.28L160.26,308.49L153.29,302.82L152.17,301.71L145.92,294.06L144.96,292.61L140.59,284.58L139.82,282.82L136.55,273.21L136.02,271.13L134.15,259.94L133.94,257.55L133.81,244.84L133.98,242.15L135.91,228.07L136.52,225.13L140.82,209.92L141.94,206.78L147.28,194L148.84,190.76L156,177.68L158.02,174.4L167.03,161.28L169.51,158.02L180.3,145.17L183.22,142.02L195.68,129.74L198.98,126.77L212.9,115.36L216.54,112.65L231.64,102.41L235.53,100.01L251.44,91.17L255.49,89.16L271.83,81.91L275.94,80.31L292.29,74.78L296.34,73.61L316.18,69.11L320.03,68.47L338.56,66.55L342.09,66.41L358.73,66.87L361.84,67.17L376.16,69.71L378.77,70.4L388.35,73.69L390.52,74.64L400.04,79.99L401.68,81.18L408.57,87.51L409.69,88.85L414.1,95.8L414.75,97.23L416.91,104.49L417.14,105.95L417.35,113.25L417.22,114.7L415.36,123.25L414.89,124.65L411.25,132.77L410.53,134.08L404.66,142.86L403.73,144.05L395.67,153.07L394.61,154.13L383.55,163.94L382.42,164.85L367.82,175.51L366.71,176.25L344.05,190.39L343.11,190.95L310.38,211.26L309.74,211.7L296.47,221.66L295.94,222.1L281.55,234.72L281.07,235.16L260.07,253.84L259.55,254.26L248.54,261.91L247.95,262.26L238.87,266.76L238.24,267.01L229.82,269.49L229.16,269.61L221.75,270.22L221.07,270.2L214.3,269.2L213.63,269.02L207.73,266.56L207.1,266.19L202.24,262.55L201.67,262L197.45,256.81L196.98,256.06L193.71,249.2L193.38,248.24L191.6,240.82L191.43,239.67L190.98,229.6L191.05,228.24L192.35,218.14L192.66,216.62L195.81,205.5L196.4,203.86L201.58,191.99L202.47,190.26L209.78,178.01L210.97,176.25L220.38,164.03L221.87,162.31L233.21,150.6L234.95,148.98L247.89,138.23L249.83,136.78L263.9,127.4L265.97,126.18L280.62,118.5L282.72,117.54L297.33,111.76L299.38,111.07L313.35,107.26L315.27,106.86L328.07,104.94L329.79,104.8L341,104.6L342.47,104.69L353.01,106.22L354.17,106.51L362.15,109.48L362.99,109.92L367.89,113.34L368.46,113.86L371.86,118.34L372.15,118.92L373.52,123.66L373.58,124.26L373.27,129L373.14,129.58L371.26,134.68L370.97,135.23L367.14,140.9L366.74,141.39L360.01,147.98L359.54,148.37L350.78,154.56L350.29,154.86L338.52,161.14L338.11,161.34L321,168.46L320.76,168.55L309.46,174L309.36,174.07L305.68,177.74L305.61,177.83L302.76,183.39L302.71,183.52L298.5,197L298.43,197.25L286.25,236.77L286.05,237.33L277.81,258.26L277.5,258.97L269.52,275.76L269.1,276.57L259.8,292.81L259.23,293.7L249.73,307.4L249.02,308.33L238.79,320.47L237.92,321.4L226.44,332.35L225.4,333.24L212.87,342.49L211.64,343.27L199.78,349.74L198.38,350.38L186.55,354.79L184.99,355.24L173.65,357.61L171.97,357.83L161.57,358.39L159.79,358.35L148.89,357.18L147.05,356.82L137.74,354.24L135.87,353.55L126.55,349.22L124.7,348.17L115.63,341.84L113.86,340.36L105.38,331.8L103.77,329.86L97.71,321.23L96.31,318.86L91.21,308.53L90.09,305.73L86.28,293.65L85.52,290.4L83.35,276.58L83.04,272.91L82.88,257.43L83.13,253.36L85.34,236.39L86.23,231.98L89.71,218.4L91.16,213.78L96.41,199.63L98.47,194.85L105.59,180.34L108.28,175.48L117.32,160.85L120.66,155.99L131.62,141.52L135.59,136.75L148.4,122.72L152.96,118.15L167.49,104.85L172.59,100.57L188.61,88.3L194.17,84.41L211.41,73.42L217.32,69.99L235.45,60.52L241.59,57.63L260.22,49.85L266.46,47.55L285.19,41.58L291.4,39.9L309.81,35.79L315.85,34.74L333.57,32.48L339.32,32.04L355.98,31.57L361.32,31.7L376.62,32.89L381.47,33.54L395.18,36.22L399.47,37.34L411.42,41.31L415.09,42.82L425.18,47.86L428.23,49.7L436.43,55.59L438.85,57.68L445.19,64.22L447,66.48L451.55,73.46L452.78,75.83L456.36,85.51L456.93,87.96L458.04,97.75L458.04,100.19L457.01,109.86L456.52,112.24L453.72,121.58L452.83,123.87L447.39,134.93L446.12,137.07L439.1,147.33L437.58,149.3L427.78,160.52L426.06,162.29L413.58,173.91L411.75,175.47L395.2,188.38L393.36,189.7L373.66,202.96L371.92,204.06L342.82,221.62L341.33,222.5L290.34,252.96L289.29,253.62L255.17,274.14L254.23,274.64L239.16,281.68L238.21,282.05L226.71,285.62L225.74,285.84L216.02,287.2L215.05,287.25L206.3,286.83L205.33,286.68L197.72,284.68L196.79,284.33L189.59,280.51L188.72,279.91L183.01,274.86L182.25,274.02L177.4,267.21L176.79,266.11L173.6,258.78L173.16,257.45L171.15,248.7L170.93,247.13L170.39,237.01L170.44,235.21L171.64,223.82L172,221.83L175.22,209.36L175.93,207.21L181.35,193.94L182.45,191.69L190.21,177.99L191.69,175.7L201.78,162.01L203.65,159.76L215.92,146.56L218.13,144.43L232.3,132.2L234.79,130.27L250.4,119.46L253.09,117.8L269.58,108.79L272.36,107.46L289.1,100.51L291.87,99.53L308.19,94.76L310.85,94.14L326.15,91.53L328.59,91.27L342.37,90.68L344.51,90.74L356.38,91.92L358.19,92.25L367.92,94.9L369.36,95.45L376.87,99.24L377.94,99.94L383.28,104.53L384,105.34L387.32,110.42L387.72,111.29L389.24,116.61L389.36,117.51L389.22,123.74L389.07,124.62L386.93,131.49L386.55,132.33L382.87,138.74L382.33,139.51L376.33,146.73L375.67,147.4L366.72,155.42L366.01,155.98L354.69,163.98L354,164.42L336.83,174.49L336.26,174.81L314.79,187.33L314.44,187.57L306,194.05L305.73,194.3L298.76,201.47L298.53,201.74L291.76,210.8L291.54,211.11L268.6,245.05L268.24,245.5L259.47,255.54L259.03,255.99L250.32,263.91L249.79,264.33L241.33,270.19L240.73,270.54L231.81,274.8L231.14,275.05L222.8,277.25L222.08,277.36L214.77,277.73L214.03,277.69L207.35,276.55L206.61,276.33L200.79,273.88L200.09,273.48L194.64,269.45L193.99,268.84L189.22,263.03L188.68,262.19L185.37,255.53L184.97,254.47L182.78,246.26L182.57,244.98L181.85,235.24L181.86,233.74L182.94,222.58L183.24,220.89L186.43,208.5L187.05,206.66L191.68,195.31L192.6,193.37L199.1,181.61L200.33,179.64L208.71,167.81L210.26,165.85L220.42,154.31L222.25,152.43L233.99,141.56L236.06,139.82L249.08,129.98L251.33,128.44L265.21,119.93L267.57,118.64L281.84,111.7L284.22,110.68L300.71,104.73L303.02,104.05L318.63,100.43L320.77,100.08L334.88,98.67L336.76,98.62L348.89,99.18L350.46,99.38L360.32,101.55L361.56,101.96L369.05,105.36L369.95,105.92L375.13,110.17L375.71,110.82L378.77,115.57L379.06,116.27L380.26,121.24L380.31,121.95L379.81,127.6L379.64,128.29L377.26,134.34L376.91,134.99L372.23,141.7L371.74,142.27L365.39,148.61L364.83,149.09L355.67,155.98L355.1,156.36L343.58,163.19L343.06,163.47L310.44,180.85L310.25,181L305.5,185.4L305.36,185.56L300.88,191.79L300.76,191.99L296.13,201.16L296.01,201.42L283.64,229.86L283.42,230.32L275.46,246.03L275.16,246.59L265.42,262.46L265,263.08L255.36,275.72L254.82,276.36L245.16,286.51L244.5,287.13L234.34,295.46L233.55,296.02L223.42,302.18L222.52,302.64L212.04,306.91L211.03,307.22L201.66,309.26L200.58,309.39L191.75,309.68L190.63,309.62L181.53,308.08L180.39,307.76L172.44,304.59L171.32,304L164.76,299.66L163.7,298.8L157.63,292.76L156.68,291.61L151.43,283.72L150.64,282.24L147.18,274.16L146.59,272.4L144.24,262.89L143.9,260.84L142.95,249.93L142.92,247.62L143.66,235.39L143.99,232.83L146.69,219.45L147.44,216.68L152.34,202.39L153.56,199.46L160.83,184.58L162.52,181.57L172.24,166.5L174.43,163.49L186.55,148.67L189.2,145.76L203.53,131.67L206.6,128.96L222.82,116.07L226.23,113.64L243.87,102.38L247.5,100.32L266,91.04L269.73,89.4L288.44,82.33L292.16,81.15L310.43,76.41L313.99,75.7L331.22,73.25L334.52,72.99L350.17,72.7L353.12,72.84L366.8,74.47L369.32,74.97L380.78,78.22L382.84,79L391.95,83.52L393.53,84.53L400.3,89.98L401.42,91.14L405.96,97.22L406.66,98.47L409.17,104.88L409.48,106.18L410.19,112.69L410.17,113.99L409.06,121.69L408.72,122.96L405.91,130.34L405.32,131.53L400.47,139.57L399.68,140.67L391.82,149.97L390.88,150.94L380.06,160.75L379.05,161.57L365.93,171.22L364.94,171.89L347.05,183.14L346.17,183.66L310.51,205.72L309.96,206.11L295.96,217.31L295.52,217.7L279.57,233.53L279.17,233.95L259.7,253.01L259.22,253.42L248.35,261.42L247.8,261.77L237.86,266.81L237.24,267.05L229,269.39L228.35,269.5L220.4,269.96L219.74,269.91L213.09,268.63L212.43,268.42L206.68,265.68L206.06,265.28L200.82,260.78L200.28,260.17L196.37,254.51L195.94,253.7L193.07,246.36L192.79,245.33L191.35,236.29L191.27,235.06L191.49,225.79L191.64,224.38L193.54,213.96L193.94,212.4L197.74,201.05L198.43,199.38L204.29,187.4L205.28,185.66L213.26,173.43L214.55,171.68L224.57,159.63L226.14,157.95L237.99,146.55L239.8,144.99L253.1,134.69L255.08,133.31L269.34,124.49L271.42,123.35L286.05,116.29L288.14,115.42L302.53,110.29L304.54,109.69L319.98,106.19L321.81,105.9L333.89,104.77L335.5,104.73L345.86,105.2L347.21,105.36L356.71,107.48L357.74,107.84L363.95,110.73L364.7,111.2L369,114.77L369.49,115.31L372.29,119.85L372.52,120.44L373.39,125.16L373.4,125.76L372.54,130.99L372.35,131.56L369.72,137.02L369.39,137.54L364.28,143.82L363.84,144.26L362.49,145.56" style="vector-effect: non-scaling-stroke; fill: none; stroke: rgb(99, 110, 250); stroke-opacity: 1; stroke-width: 2px; opacity: 1;"/></g><g class="points"/><g class="text"/></g><g class="trace scatter trace923662" style="stroke-miterlimit: 2; opacity: 1;"><g class="fills"/><g class="errorbars"/><g class="lines"><path class="js-line" d="M240.43,168L264,137.78L263.7,138.65L263.13,140.1L267.16,135.59L265.68,138.21L263.43,143.79L263.41,144.44L262.92,145.93L264.36,144.48L265.32,143.61L265.07,144.56L264.34,146.29L263.35,148.44L264.46,147.52L265.31,146.94L263.1,152.76L263.56,152.95L267.33,148.94L266.14,151.52L264.61,154.67L265.14,154.8L265.35,155.38L268.1,152.78L266.36,156.21L265.83,158.03L267.27,156.72L265.53,164.58L267,163.44L270.76,159.65L268.78,163.34L269,163.99L270.23,163.22L270.98,162.97L271,163.85L270.15,170.58L268.11,174.91L266.75,178.45L268.05,177.91L270.8,176.39L271.02,177.34L271,178.68L271.76,178.84L273.26,177.78L273.56,178.52L273.32,180.09L274.27,179.89L276.95,178.19L277.65,178.26L279.11,179.19L277.96,182.08L276.02,186.33L277.01,186.15L280.31,183.48L279,186.79L277.77,189.91L279.02,189.26L281.75,186.35L281.05,188.55L278.81,193.45L279.61,193.55L284.17,190.39L284.42,191.16L284.82,191.72L285.71,191.51L285.64,192.75L284.1,196.44L284.35,199.84L285.85,198.76L286.54,198.94L285.25,202.29L284.15,206.86L284.78,207.33L286.65,207.31L286.89,208.28L286.67,211.59L290.35,207.08L290.54,208.03L288.73,212.09L288.33,214.14L290.36,212.2L291.85,211.01L291.77,212.36L291.8,213.64L292.65,213.65L292.91,214.5L290.4,219.47L288.95,223.29L290.07,223.15L292.94,221.69L293.62,222.06L292.45,226.58L293.57,226.42L294.15,227.03L293.57,229.47L294.02,230.31L296.69,227.86L298.8,225.9L298.12,228.34L297.11,232.93L298.52,232.25L299.19,232.62L299.13,234.23L299.13,238.69L301.07,237.2L303.35,235.25L303.34,236.62L303.81,237.3L303.72,238.76L302.85,241.62L303.72,241.77L304.43,242.06L303.22,245.55L302.92,247.6L305.59,244.89L309.46,241.77L309.34,243.2L306.39,252.34L307.54,252.02L310.76,250.11L309.71,253.1L308.08,257.08L308.85,257.54L310.71,256.31L311.03,257.32L311.34,258.36L312.9,257.48L313.75,257.61L313.14,259.96L313.64,260.65L315.97,258.49L316.5,259.01L315.11,262.92L315.84,263.3L316.14,264.33L316.21,265.71L318.38,263.78L319.38,263.67L319.37,265.13L322.49,262.89L322.4,264.36L319.76,271.35L321.24,270.61L323.15,269.16L321.8,272.55L319.39,279.34L320.43,279.45L320.86,280.49L320.81,282.34L324.76,279.81L325.47,280.3L326.94,281.23L328.14,280.95L328.79,281.47L327.78,284.63L329.78,284.7L328.99,287.53L331.48,286.93L331.32,288.73L332.01,289.27L331.87,291.26L331.79,296.47L332.99,296.41L334.8,295.6L334.88,297.21L335.29,298.29L335.17,300.23L332.56,307.96L333.24,308.96L333.61,310.47L333.19,313.06L332.64,318.3L334.55,317.54L337.15,315.65L338.11,316.3L336.94,320.37L337.59,321.59L338.48,322.53L341.44,320.32L343.71,319.1L343.83,321.02L345.1,321.29L345.17,323.28L344.6,326.47L345.65,327.1L347.05,327.11L347.5,328.6L348,330.04L349.64,329.76L351.41,329.29L352.11,330.39L352.22,332.45L353.16,333.26L354.03,336.43L355.58,336.32L355.83,340.78L356.9,341.62L354.82,350.13L357.38,349L358.6,349.67L358.73,352.13L358.66,355L359.5,356.53L361.54,356.12L362.28,357.65L362.17,360.74L364.71,359.79L365.81,361.06L367.85,360.84L371.51,358L372.31,359.45L371.9,362.76L373.93,362.45L375.3,363.16L373.18,369.36L372.59,373.52L373.34,375.51L373.66,378.43L376.59,377.23L381.93,372.47L384.03,372.28L383.72,375.64L384.75,377.15L385.92,381.68L387.71,382.31L389.95,382.28L391.04,383.87L390.34,388.3L391.28,390.3L396.64,389.1L397.54,391.1L398.51,393.08L401.61,391.83L400.62,400.58L404.02,399.01L409.96,396.93L410.78,399.33L411.82,401.33L413.99,401.79L415.48,407.13L416.92,408.85L418.34,410.7L421.46,409.9L423.48,410.81L424.56,413.27L426.3,414.82L429.62,413.85L431.61,414.86L433.1,416.71L439.54,414.97L441.89,415.22L442.71,418.02L444.73,419.07L449.67,419.73L453.08,418.74L460.13,415.63L461.38,417.69L463.03,423.28L464.74,424.93L474.08,423.12L475.61,424.77L477.84,425.44L481.86,423.62L484.26,424.07L484.51,427.95L491.29,426.08L492.97,427.67L494.75,429.29L498.49,427.82L501.7,426.77L503.91,427.52L505.3,429.56L507.78,429.97L510.9,434.35L514.56,433.35L521.31,431.67L524.12,431.71L531.15,428.96L535.34,426.8L543.38,421.35L546.15,420.44L548.14,420.79L550.63,419.86L552.9,419.8L556.96,417.15L562.76,414.36L566.51,411.56L568.26,411.55L571.75,408.85L576.48,403.32L578.04,403.06L580.28,401.83L583.44,399.02L595.09,386.36L599.89,379.69L605.81,369.49L608.2,365.24L614.11,352.21L615.16,348.81L616.19,345.14L615.75,343.56L617.93,332.02L619.35,326.62L619.47,318.49L619.34,314.48L620.2,308.7L619.08,305.49L617.96,301.97L618.06,296.12L615.15,294.7L613.92,290.89L612.67,286.73L610.76,283.29L611.08,268.48L609.66,262.77L607.59,257.58L606.13,251L604.01,245.3L599.93,242.23L596.37,238.25L595.83,229.33L592.12,224.51L586.03,223.37L581.96,219.27L579.73,211.83L578.65,202.18L575.95,193.62L571.02,188.64L564.27,186.04L558.52,181.76L553.59,176.62L550.8,167.48L545.99,160.9L532.61,153.25L526.31,148.65L521.49,142.19L514.69,137.76L498.49,132.38L492.04,127.51L486.47,121.25L479.5,116.51L464.69,109.06L456.31,107.11L449.57,102.48L443.94,96.06L435.13,94.46L427.64,90.8L420.14,87.57L411.82,85.93L404.23,83.42L397.22,79.65L384.29,70.7L375.37,69.69L366.23,69.31L360.2,65.59L354.57,60.19L347.64,56.4L334.34,50.37L325.75,50.23L318.72,48.7L313.05,44.32L301.61,36.18L293.19,36.99L284.44,38.42L274.72,41.88L266.95,43.23L264.14,37.46L258.59,34.85L252.03,35.53L246.44,33.96L240.47,33.26L236.44,29.98L231.12,29.25L224.22,31.3L218.74,31.99L214.16,30.8L211.81,26.5L203.29,23.21L199.67,20.87L193.76,22.81L190.92,20.15L187.92,17.62L182.87,18.4L173.01,20.99L170.66,18.63L166.7,18.86L160.36,23L154.84,26.86L151.81,27.58L150.69,25.2L147.52,26.06L142.82,29.92L140.1,31.18L139.02,30.01L136.34,31.4L133.97,32.69L132.63,32.54L126.48,39.02L127.15,36.54L126.09,36.79L126.06,35.52L125.92,34.27L124.6,35.02L118.19,41.98L116.24,44.89L116.83,44.11L115.8,45.79L113.31,50.19L112.77,52.87L114.21,51.59L115.28,51.75L115.15,52.87L115.02,54.09L113.91,57.04L112.25,61.07L112.92,61.87L113.93,62.12L115.5,61.59L117.02,61.04L116.08,64.07L116.21,65.77L117.73,65.41L119.08,65.22L119.84,65.93L121.01,68.21L120.99,70.42L120.38,73.61L120.81,75.5L121.55,76.94L120.87,80.69L119.67,85.37L120.87,86.85L124.74,84.07L126.57,84.23L128.53,83.93L129.98,84.53L131.12,91.64L133.16,91.45L135.12,94.73L137.39,94.45L138.1,96.44L137.95,99.84L141.03,105.24L142.81,106.09L144.29,110.68L146.64,110.59L147.54,116.53L150.73,114.97L151.98,116.53L153.83,117.28L158.3,117.14L158.98,119.43L160.63,123.81L162.03,124.99L162.78,130.87L164.2,132.54L171.95,130.78L172.1,133.8L171.83,137.78L174.41,137.32L176.53,137.28L177.62,139.08L178.58,140.91L178.37,144.74L183.91,142.92L184.91,144.65L184.61,148.63L185.4,150.89L186.84,151.97L187.07,154.78L190.05,153.41L191.76,154.05L191.59,157.49L194.2,156.79L197.37,155.28L197.42,158.27L196.57,162.67L197.38,164.75L198.88,165.67L199.43,168.07L199.32,171.54L202,170.9L206.11,167.95L208.67,167.07L213.56,165.47L213.96,167.77L212.2,173.28L212.75,175.49L216.1,173.34L217.04,174.71L217.87,176.29L219.36,176.87L222.09,178.18L222.78,179.88L227.26,178.42L228.58,178.96L229.52,179.98L229.47,182.53L227.93,190.1L229.16,191.13L232.11,189.05L234,188.65L234.51,190.31L232.5,196.14L232.72,198.54L235.27,197.24L240.32,194.65L240.2,197.31L239.63,200.65L240.73,201.42L241.14,203.34L240.14,207.5L244.87,207.89L247.31,206.22L247.52,213.14L249.19,212.94L249.76,214.47L249.7,216.97L250.89,217.56L252.86,216.75L253.95,217.35L254.16,219.23L256.08,218.63L258.61,216.84L260.65,215.67L261.05,217.06L259.08,224.03L261.69,222.13L262.46,223.04L262.18,225.54L263.83,225.02L266.56,222.72L267.95,222.49L268.27,223.9L268.71,227.07L269.52,227.64L269.55,229.46L271.07,228.97L271.34,230.33L269.93,234.54L271.94,235.28L271.18,238.22L270.21,241.69L271.94,240.92L272.58,243.87L274.12,243.5L274.33,246.91L275.32,247.3L278.61,245.66L279.39,246.14L278.03,251.65L278.25,253.17L279.53,258.63L281.62,257.07L281.83,260.3L282.17,261.54L281.67,265.96L284.09,264L285.62,263.31L285.87,264.57L285.29,267.12L286.97,266.25L288.05,266.12L286.96,269.44L288.2,269.14L291.51,265.78L293.8,263.93L292.5,267.34L290.57,276.61L291.12,277.42L291.62,280.03L293.14,279.39L294.83,279.95L294.44,282.04L294.96,282.83L296.86,281.49L298.15,282.49L297.96,284.29L298.01,285.76L299.88,284.25L302.11,282.36L301.34,284.91L299.57,288.83L301.08,288.06L302.6,287.08L302.82,288.12L303.56,288.37L305.55,286.75L307.17,285.52L307.21,286.72L306.85,288.68L308.28,287.72L305.79,295.53L306.95,295.17L309.96,293.1L310.13,294.12L310.55,294.77L311.5,294.62L310.57,298.45L310.15,300.39L311.53,299.63L314.17,296.88L315.49,296.15L315.18,297.84L312.62,305.55L310.81,309.65L310.53,311.43L312.84,309.48L314.12,311.8L315.81,310.69L317.66,310.61L319.29,309.39L320.56,309.94L319.95,312.23L320.31,314.35L322.37,312.48L323.16,312.64L322.49,314.78L323.54,314.49L325.18,313.16L325.4,314.05L323.61,318.06L324,318.75L325.21,318.22L326.91,318.31L326.87,319.68L327.18,320.47L329.68,317.99L330.12,318.39L331.31,317.82L333.29,316.09L331.77,319.67L333.92,318.89L333.04,321.52L333.2,322.56L335.07,320.91L339.83,315.5L340.41,315.69L340.5,317.68L340.72,318.53L343.16,317.14L343.27,318.05L343.69,318.48L345.01,317.57L344.96,318.79L346.31,317.86L346.29,320.09L347.25,319.75L348.26,320.51L349.31,320.06L351.23,319.33L353.52,316.9L360.89,310.39L360.17,312.35L359.41,315.28L360.3,314.88L364.06,310.86L365.54,309.43L365.28,310.6L366.18,310.08L374.46,299.43L374.2,300.25L374.13,300.87L373.23,302.84L374.14,302.05L376.92,298.11L382.65,289.92L380.85,293.65L381.22,293.43L392.87,276.85L392.2,277.67L393.72,275.23L399.21,265.42L398.47,266.07L407.66,247.53L409.37,243.92L409.13,243.07L410.1,240.38L411.58,236.89L410.8,236.67L410.62,235.54L412.05,231.89L412.82,229.09L412.09,228.54L410.85,228.91L410.79,227.36L411.01,225.35L413.86,219.31L415.35,215.1L413.7,215.55L412.64,215.16L413.82,211.24L416.48,204.9L415.75,203.63L414.54,203.16L414.36,200.98L413.61,199.5L411.78,199.74L409.16,201.57L408.5,200.35L409.5,188.44L409.55,185.44L411.18,173.6L410.38,171.54L410.08,165.3L410.28,161.26L408.09,157.11L406.87,155.25L404.05,155.73L402.51,154.27L401.14,152.5L399.16,151.76L397.71,150.16L395.76,149.41L392.52,150.61L391.11,149.19L391.59,144.66L391.14,141.68L390.52,138.61L388,138.35L385.28,138.44L384.54,135.65L380.77,133.61L381.11,129.19L380.46,126.06L377.99,125.83L375.97,124.74L374.63,122.74L373.28,120.63L370.4,120.76L367.9,120.5L366.29,118.75L363.74,118.67L361.63,117.85L360.25,116.02L359.62,113.07L358.43,110.81L356.67,109.33L354.03,109.4L352.52,107.69L350.98,105.82L348.39,105.47L346.54,104.4L343.88,104.53L340.59,105.65L339.72,103.26L340.45,98.05L339.28,95.62L336.6,95.61L334.55,94.7L331.86,94.88L327.9,97.34L322.97,97.88L321.45,96.85L319.97,95.79L316.94,96.9L314.04,91.4L313.05,89.6L311.76,88.21L311.16,85.69L305.29,88.08L305.33,84.74L304.55,82.67L302.44,82.57L300.05,83.02L298.34,82.54L285.29,89.65L284.97,87.77L283.1,85.95L282.89,83.84L282.48,82.03L281.47,81.11L277.52,82.13L276.71,81.08L271.85,84.13L269.68,85.52L264.57,89.83L264.11,89.04L262.79,88.11L262.64,86.91L256.85,92.26L256.7,91.43L256.43,89.68L254.65,91.45L253.49,92.29L253.9,90.74L253.18,90.9L251.24,93.24L249.28,94.83L247.48,97.24L248.32,94.45L250,91.18L250.59,88.76L249.56,89.67L240.73,101.05L243.64,96.31L245.13,93.79L242.13,97.62L239.5,101.58L238.02,104.32L241.42,99.06L239.37,102.6L241.19,100.26L237.58,107.64L236.93,109.22L235.32,113.73L236.09,113.28L237.67,111.55L237.24,112.94L238.12,112.26L235.71,117.32L236.43,117.04L237.33,116.41L242.57,109.49L242.36,110.82L241.92,111.98L240.94,115.39L241.89,114.67L242.02,115.17L240.52,118.01L239.84,120.9L241.59,119.24L242.33,118.88L242.42,119.51L242.34,120.42L241.67,123.17L243.42,121.44L242.86,124.04L243.81,123.55L244.69,123.87L243.61,126.49L246.74,124.21L246.28,125.73L244.79,129.96L246.37,128.54L243.67,134.54L245.24,133.14L250.98,127.13L249.93,129.71L250.55,129.62L251.91,128.24L251.99,128.91L252.62,128.73L254.2,126.94L254.33,127.43L253.87,128.91L253.65,130.82L252.92,132.74L247.93,145.72L250.45,142.96L256.78,137.18L257.44,136.98L254.45,144.28L256.24,142.58L256.89,142.53L256.6,143.81L259.46,144.07L258.66,146.28L260.07,145.03L263.31,141.1L265.07,139.82L265.78,139.42L265.13,141.82L265.48,142.04L263.99,147.33L265.58,145.67L265.59,146.39L264.78,148.49L266.02,147.45L265.54,148.96L268.26,146.35L266.52,149.65L266.17,151.02L267.42,149.84L270.88,146.63L269.54,149.3L268.42,152.44L269.9,150.9L270.46,150.77L269.48,153.11L268.68,155.77L270.22,154.07L270.73,153.96L270.14,155.56L270.63,156.29L272.58,154.08L274.68,151.41L274.54,152.26L272.41,155.97L273.62,155.41L272.58,157.7L272.11,159.07L272.92,158.53L273.12,158.92L273.66,158.8L273.72,159.36L274.04,159.56L276.78,156.61L275.55,159.11L274.76,160.84L276.27,159.04L276.23,159.77L275.88,160.9L277.55,158.91L281.44,154.51L280.98,155.68L279.78,158.03L281.32,156.2L281.43,157.03L281.81,156.89L283.91,154.7L281.57,158.86L279.95,161.87L280.51,162.08L280.33,162.86L280.79,162.72L280.11,164.42L282.14,162.92L282.16,163.38L281.9,164.34L282.24,164.34L281.93,165.31L281.91,165.87L282.9,164.77L287.31,159.87L285.76,162.56L284.26,167.08L284.27,167.54L280.62,174.61L282.33,172.57L284.45,169.92L288.52,165.22L287.76,167.03L288.44,166.39L288.45,166.74L287.07,169.3L286.07,172.42L287.05,171.37L287.2,171.57L286.01,173.85L291.28,168.39L290.38,170.17L287.96,175.43L289.97,172.77L292.15,170.55L292.2,170.79L291.65,171.94L290.93,175.08L292.67,172.74L292.98,172.56L292.14,174.12L292.59,173.73L292.13,174.73L290.27,177.89L289.31,180.54L290.41,179.2L292.66,176.06L292.21,177.24L295.58,172.62L294.52,174.49L293.2,176.89L291.05,181.33L292.05,180.11L293.75,177.81L295.8,175.26L294.53,177.6L294.12,178.52L294.01,178.89L295.27,177.13L295.31,177.31L292.48,182.93L294.16,180.84L295.01,179.82L296.05,178.61L295.45,179.99L293.71,183.11L294.49,182.46L294.23,183.21L293.68,184.37L292.45,186.66L294.44,184.23L294.79,183.97L294.39,185.1L295.63,183.38L295.23,184.74L296.54,183.01L296.96,182.52L295.47,185.41L294.65,187.03L297.5,183.25L294.8,187.73L295.17,187.41L294.81,188.23L293.5,190.48L295.94,187.53L296.61,186.74L293.82,191.79L294.11,191.65L296.84,187.55L295.25,190.95L296.27,189.64L297.25,188.32L294.74,192.97L296.75,190.33L299.19,186.85L301.02,184.26L298.69,188.61L295.77,193.24L293.3,198.98L294.7,196.98L295.72,195.65L294,198.94L295.51,196.93L294.47,198.73L294.68,198.7L296.98,195.34L294.84,199.13L295.44,199.42L295.47,199.6L297.44,197.06L299.35,194.11L294.02,204.66L294.9,203.56L295.98,202.2L294.95,204.26L294.26,205.59L293.06,207.83L294.43,206.01L297.18,202.19L299.32,199.23L294.99,206.51L295.22,206.41L294.37,208.38L296.37,205.55L295.36,207.32L294.43,208.99L288.26,220.86L290.29,218.17L287.81,223.67L288.46,223L290.83,219.64L294.38,215.3L293.61,216.75L289.96,223.17L287.09,227.86L288.03,227.16L288.66,226.56L290.23,225.09L289.67,226.23L289.31,227.06L289.54,227L288.96,228.22L288.08,230.54L288.41,230.35L289.95,228.26L291.58,226.1L289.13,230.19L287.25,233.58L287.89,232.89L287.99,233.68L287.67,234.48L286.99,235.91L288.7,233.87L289.39,233.11L282.61,245.79L281.86,247.29L284.78,244.64L284.64,245.15L285.03,244.84L284.06,246.59L282.66,249.83L283.47,248.83L285.2,246.56L280.44,255.03L282.16,253.19L284.03,250.59L282.35,254.75L279.57,259.39L274.88,267.19L276.5,265.37L276.44,265.73L276.83,265.42L275.71,267.45L272.21,274.47L272.6,274.15L273.24,273.51L273.86,272.9L273.31,273.96L271.88,276.41L270.16,279.75L271.2,278.42L272.04,277.33L264.8,289.55L268.69,284.15L267.42,286.25L249,316.58L247.31,319.12L241.69,326.34L242.07,325.51L233.69,336.01L234.55,334.21L235.44,332.45L234.65,333.2L232.78,335.66L225.81,342.47L224.78,343.31L223.93,343.09L223.05,343.67L220.34,345.34L220.07,344.86L218.88,345.67L219.32,343.98L216.81,346.74L207.93,357.15L207.29,356.94L206.07,357.52L206.31,355.88L206.38,354.53L205.25,354.91L204.24,355.11L202.06,356.96L189.75,367.81L187.25,369.85L183.55,371.74L183.67,369.5L184.67,365.88L184.14,364.71L179.35,367.94L179.31,365.84L179.05,364.06L177.31,364.53L175.32,365.42L174.32,364.69L171.9,363.41L170.05,363.73L168.7,363.33L166.66,364L163.78,365.98L162.37,365.36L162.19,362.92L160.52,362.61L157.26,361.74L156.34,360.2L151.58,361.22L149.52,361.25L147.51,361.1L146.01,360.06L144.47,359.02L144.21,356.01L142.06,356.02L138.62,357.71L136.19,357.68L135.72,354.64L134.37,349.2L132.15,348.78L128,347.42L126.42,345.64L125.81,342.53L123.69,341.79L122.63,331.41L120.52,330.85L116.72,332.63L114.96,331.32L112.61,330.89L108.74,332.25L106.51,331.26L106.61,326.55L106.75,322.07L104.96,320.39L102.93,310.72L100.48,310.22L98.57,304.53L96.83,302.81L97.14,297.89L99.17,290.63L104.59,271.08L103.16,269.79L101.31,269.01L100.3,267L99.55,264.61L98.06,263.38L98.47,259.18L100.11,253.13L102.86,242.72L104.57,237.72L105.06,234.2L108.93,225.35L113.63,214.66L113.41,213.05L113.82,208.79L114.73,205.72L119.75,195.06L122.89,188.92L131.42,173.4L135.74,166.63L148.86,147.13L152.65,142.45L158.05,137.34L162.27,132.47L182.72,110.7L188.63,104.56L199.01,95.6L202.68,94.04L206.98,91.34L214.54,84.41L226.58,75.14L231.78,72.35L245.52,63.73L250.63,62L281.05,47.32L285.9,46.98L295.58,45.93L301.96,43.21L309.58,38.09L315.23,37.12L321.76,35.58L326.61,35.56L331.5,35.36L335.56,36.42L340.93,35.7L345.43,35.93L350.48,35.6L356.7,33.38L367.39,32.04L373.47,30.39L378.52,30.57L380.68,34.62L383.55,37.31L387.58,37.94L392.21,38.03L394.32,41.23L399.38,46.29L402.63,47.6L412.19,45.37L413.59,49.31L414.34,54L418.09,53.78L421.86,53.53L424.28,55.25L426.9,56.42L430.3,56.3L435.34,58.86L436.74,61.46L437.21,65.33L438.58,67.4L441.62,66.8L443.8,67.7L445.07,73.18L446.05,75.07L447.88,75.68L448.61,77.88L452.41,78.16L453.15,80.02L449.87,90.16L450.37,91.75L448.11,98.98L449.12,99.33L450.4,99.01L450.22,100.96L447.7,108.56L446.71,111.18L438.26,127.51L436.21,130.56L431.95,136.99L429.38,140.69L417.81,155.15L416.87,155.8L417.22,154.44L415.65,156.05L413.56,157.41L409.86,162.12L404.26,168.33L403.98,167.61L403.26,167.63L400.62,170.42L386.8,184.87L385.84,185.19L385.1,184.98L382.31,187.65L380.57,187.61L378.42,189.84L373.75,194.17L373,193.93L369.93,194.43L367.61,196.5L366.55,196.76L364.83,198.1L363.58,198.74L363.74,197.09L362.15,198.32L358.23,202.6L353.16,207.65L353.62,205.54L344.07,214.88L343.67,214.21L343.55,213.17L341.17,215.54L339.86,216.17L339.6,215.36L337.02,216.89L337.21,215.44L325.04,228.72L325.11,227.46L322.62,228.95L320.25,231.4L315.16,237.23L315.13,236.25L316.18,232.63L314.52,234.16L312.02,235.78L309.26,238.84L306.26,240.51L306.18,239.71L306.2,238.77L304.32,240.67L296.22,249.62L296.44,248.43L300.37,239.81L298.45,241.97L297.4,241.86L294.43,245.52L285.85,253.29L283.41,256.19L280.94,259.27L281.06,258.31L280.91,257.91L279.05,260.15L279.39,258.88L280.43,256.53L274.59,262.04L274.95,260.76L276.8,255.84L276.47,255.69L266.2,268L265.1,268.97L262.07,272.92L261.78,272.64L262.93,270.12L262.6,269.22L259.83,272.66L258.16,274.39L258.7,272.78L259.22,271.27L253.73,277.59L254.33,275.94L255,274.15L254.02,274.87L252.92,275.75L249.43,278.67L246.64,281.99L245.73,281.69L244.95,282L244.03,282.52L244.32,281.18L239.61,284.87L239.31,284.4L239.65,282.87L241.17,277.69L239.77,278.9L233.33,285.59L232.56,285.72L233.88,281.57L232.4,282.78L232.43,281.73L230.83,283.11L226.44,287.28L226.43,286.09L221.79,290.69L221.14,290.49L220.59,288.84L220.75,287.42L220.22,287.01L219.16,287.21L219.21,285.88L217.51,287.14L215.23,288L213.25,289.76L213.69,287.69L212.03,288.82L209.83,290.67L209.56,289.62L208.5,289.71L208.65,287.98L209.15,285.77L206.48,288.36L204.45,289.96L204.92,287.69L204.28,283.88L204.43,282.11L201.92,282.8L201.3,282.07L200.66,279.82L198.47,281.46L197.43,281.4L197.09,280.2L196.17,279.85L194.25,280.97L195.19,274.16L193.88,274.47L189.83,277.02L189.75,275.27L191.23,271.2L190.91,269.88L183.82,274.86L182.21,275.34L182.29,273.26L183.72,269.02L185.42,264.65L184.06,264.92L183.24,262.44L183.84,259.74L183.58,256.56L184.18,253.77L183.84,250.88L181.59,252.63L180.52,252.47L181.32,249.45L180.84,245.07L180.43,243.98L181.12,241.24L180.37,240.74L182.29,234.75L183.59,231.51L183.22,230.69L184.03,227.98L184.71,224.29L183.25,225.36L182.35,225.46L184.72,220.5L188.19,211.88L187.53,211.84L190.34,206.48L190.16,205.99L188.89,207.05L190.63,202.73L193.22,198.14L205.45,176.85L206.61,175.13L212.86,166.36L213.03,166.62L215.91,162.85L223.76,153.48L226.47,150.09L232.55,143.56L231.12,147.1L232.66,145.87L235.79,142.29L237.76,140.78L241.5,136.44L245.19,132.61L245.82,133.44L252.48,128.48L255.91,125.28L257.77,124.48L260.63,121.87L262.79,120.7L266.39,117.59L273.08,112.38L275.35,111.49L277.23,111.12L278.23,112.15L284.6,107.46L286.63,107.02L289.55,105.06L291.57,104.73L296.24,103.27L300.48,99.7L303.97,97.46L305.72,97.76L311.24,98.34L313.56,97.44L322.84,92.48L324.54,92.92L328.57,92.91L329.99,93.68L336,90.79L337.74,91.08L343.71,87.99L345.61,88.23L350.82,86.49L350.18,90.39L350.59,92.57L352.26,92.75L353.57,93.42L356.46,91.84L360.25,88.62L361.72,89.19L362.55,93.2L362.04,96.63L363.73,98.74L365.14,98.7L369.27,94.74L370.84,94.81L371.69,97.93L373.42,97.42L375.17,96.94L375.87,97.87L374.1,106.25L375.97,104.98L378.34,103.13L377.69,105.8L377.68,107.34L378.43,107.68L378,111.03L379.97,109.32L379.53,111.36L380.88,110.49L383.78,107.22L383.91,108.24L384.99,107.85L384.77,109.4L382.42,116.88L383.61,115.84L384.49,116.07L386.29,113.94L387.41,112.89L386.53,114.91L379.08,129.81L382.08,125.45L385.61,121.09L383.09,125.32L381.64,127.74L374.89,137.89L374.13,138.91L368.55,145.91L370.98,141.97L371.32,141.09L369.44,143.78L363.46,150.47L363.05,150.66L362.96,150.36L363.59,148.94L364.04,147.87L361.74,150.67L360.88,151.46L361.05,150.72L361.13,150.13L361.21,149.47L359.47,151.76L355.1,156.4L354.91,156.19L354.82,155.79L355.83,153.21L354.85,154.27L351.6,158.69L351.77,157.86L350.12,159.9L345.9,163.82L346.42,162.47L346.48,161.91L345.02,163.53L344.98,162.51L344.08,163.39L341.32,166.51L339.92,168.18L338.29,169.59L338.33,169.01L338.44,168.32L337.59,168.59L336.35,169.95L332.22,175.2L332.83,173.67L331.92,174.47L334.16,169.91L333.53,170.39L331.6,172.82L331.04,173.2L331.87,171.57L331.29,172.02L328.65,175.57L327.93,176.21L328.76,174.44L325.21,178.37L325.36,177.72L325.96,176.45L326.18,175.71L324.79,177.33L324.71,177.07L325.85,175.24L324.98,175.74L322.97,178.21L319.8,182.03L319.97,181.42L322.25,177.84L321.34,178.52L322.66,176.03L315.37,184.96L316.02,183.71L317.78,180.74L313.21,185.49L313.9,184.17L315.57,181.33L307.91,191.96L310.46,187.7L311.59,185.85L311.86,185.18L310.17,187.42L311.13,185.48L310.16,186.79L310.51,185.9L309.12,187.83L307.44,190.36L307.66,189.71L306.8,190.88L307,190.41L306.19,191.48L304.29,194.22L302.96,196.05L306.35,190.65L308.98,186.37L299.09,199.32L301.52,195.37L301.6,195.19L293.24,207.58L292.97,208L284.22,223.02L285.16,221.63L285.84,220.6L273.16,242.14L274.37,240.09L272.55,242.84L273.01,241.85L267.04,250.44L268.52,248.12L267.9,248.96L267.54,249.39L269.27,246.36L269.14,246.42L269.51,245.71L261.69,256.51L261.82,256.11L262.87,254.13L263.75,252.64L260.6,256.98L262.15,254.31L260.13,257.23L252.39,267.46L249.07,271.89L247.82,273.54L248.56,272.07L250.28,269.05L255.7,260.21L253.12,263.38L252.19,264.41L252.37,263.77L251.71,264.41L249.56,267.42L242.39,276.64L239.15,280.54L239.29,279.79L241,276.62L244.04,270.96L243.3,271.55L243.18,271.19L240.74,273.84L241.72,271.7L242.88,268.85L242.23,269.27L240.65,271.02L240.91,269.99L240.46,270.07L238.6,272.07L235.99,274.75L233.99,277.17L231.58,278.66L232.47,276.51L229.38,279.68L230.02,278L225.49,282.2L227.52,278.09L228.13,276.35L227.29,276.76L227.31,275.77L222.16,280.71L221.32,280.95L221.13,279.22L222.28,276.41L219.14,279.29L220.31,276.37L218.67,275.62L216.51,278.02L212.19,280.92L211.48,280.76L208.48,282.8L208.51,281.45L207.63,280.13L207.65,278.72L207.91,275.6L209.04,272.52L207.91,272.93L206,274.69L205.39,274.26L205.5,272.67L205.67,271L204.01,272.05L202.07,273.54L201.66,272.71L202.88,267.89L202.51,266.97L201.27,267.35L199.18,269.08L194.83,274.32L193.93,274.08L195.13,269.07L195.23,267.27L193.64,266.48L193.53,265L196.79,255.67L195.44,256.27L192.61,255.95L192.91,253.87L193.88,247.67L193.02,247.56L193.06,246L195.5,241.15L194.81,240.87L193.22,242L192.55,241.59L194.15,237.77L193.57,237.44L191.5,239.01L191.18,238.12L189.29,239.44L188.63,239.05L189.64,236.16L196.76,219.49L196.77,218.51L197.65,216.14L200.68,210.33L202.22,207.03L200.98,208.24L198.69,211.07L198.13,211.06L198.27,209.99L202.67,199.87L204.03,197.33L219.64,172.04L223.36,166.52L227.66,161.34L226.41,163.88L233.78,155.57L234.9,154.68L239.57,149.22L240.72,148.52L243.81,147.17L244.72,146.89L252.65,138.76L254.5,137.34L257.15,136.2L260.26,133.01L266.69,126.12L268.11,125.82L271.79,124.01L276.07,119.39L283,113.12L283.54,114.66L285.26,114.18L288.47,111.59L290.93,110.36L290.91,112.93L291.03,114.9L292.89,114.3L296.74,112.97L299.49,111.33L308.5,102.77L310.1,102.86L310.63,104.62L312.7,103.88L315.5,102.29L316.8,102.81L321.61,100.39L324.36,98.79L326.49,98.22L325.78,101.78L326.9,102.51L330.54,99.23L334.09,96.37L335.2,97.37L335.55,99.31L337.57,99L338.57,99.87L340.08,100.08L340.76,103.69L342.41,103.42L345.15,101.56L346.79,101.37L351.99,98.24L353.71,97.97L355.55,97.34L355.91,99.04L355.32,102.09L356.29,102.59L359.94,99.09L361.69,98.56L361.54,100.75L364.34,98.34L366.29,97.4L365.68,100.14L367,100.05L368.86,99L369.39,99.95L368.68,102.88L371.23,102.18L370.54,104.73L369.15,110.01L371.57,107.58L374.89,105.23L374.71,106.85L375.38,107.13L375.3,108.47L376,109.75L374.36,113.32L373.78,116.05L374.29,116.11L374.61,116.56L373.01,119.65L374.29,118.38L374.19,119.24L373.87,120.38L375.57,119.02L375.53,119.66L375.09,120.89L375.79,120.95L375.22,122.39L377.9,119.18L375.74,123.05L376.26,123.2L368.12,136.46L367.42,137.37L371.23,131.36L365.41,139.78L366.8,137.45L365.54,139.19L362.09,143.01L359.98,145.94L358.41,147.92L359.36,146.06L359.82,144.9L356.41,148.85L358.04,146.02L357.49,146.51L352.45,152.73L351.88,153.14L351.46,153.35L351.64,152.61L351.27,152.71L351.1,152.54L350.85,152.48L349.56,153.96L347.6,156.07L347.83,155.24L348.19,154.21L349.17,152.26L347.75,154.05L345.6,156.83L346.06,155.65L344.72,157.28L340.24,164.03L338.72,165.77L338.99,164.4L338.79,164.2L341.04,158.11L340.18,158.91L333.04,166.91L330.63,170.19L333.59,163.37L333.07,163.76L327.86,170.35L328.62,168.8L330.92,165.1L331.66,163.2L331.13,163.64L329.6,165.42L331.13,162.29L329.17,164.64L327.96,166.15L323.02,172.06L323.5,171.07L323.14,171.28L325.09,166.89L323.7,168.58L322.41,170.23L315.04,178.6L314.98,178.47L314.6,178.86L315.92,176.72L316.42,175.75L312.18,181.74L313.92,178.33L315.16,176.25L318.05,170.9L315.26,174.94L314.08,176.51L311.31,180L313.93,175.49L315.14,173.42L312.32,177.08L312.96,175.35L313.34,174.58L312.65,175.26L312.66,175.07L311.61,176.52L311.68,175.66L305.02,184.95L308.72,179.3L309,178.73L300.75,190.63L299.77,192.24L306.13,182.68L299.08,194.02L297.74,196.14L299.34,193.89L296.16,199.34L297.45,197.79L295.84,200.29L298.12,197.44L293.71,204.93L294.99,202.89L294.53,203.73L295.7,202.29L294.36,204.82L294.7,204.42L295.61,203.19L292.59,208.1L297.31,201.61L295.83,204.09L294.86,205.69L298.9,200.21L290.4,213.74L290.89,213.36L290.83,213.58L292.17,211.74L290.84,214.26L289.78,216.25L288.6,218.78L292.24,213.58L290.97,215.78L290.18,217.23L290.71,216.63L289.94,218.23L290.02,218.27L289.6,219.02L290.81,217.56L284.76,228.1L287.53,224.18L288.53,222.84L289.5,221.44L283.9,230.77L282.2,233.5L284.49,230.41L281.31,236.05L280.59,237.32L279.67,239.17L284.54,232.22L281.18,237.78L280.94,238.31L281.18,238.07L279.82,240.25L279.23,241.28L269.31,259.51L270.95,257.13L265.34,265.97L263.08,269.58L263.75,268.31L256.2,279.27L257.47,276.77L257.05,277.24L248.56,288.21L248.64,287.78L250.03,285.28L249.12,286.37L246.51,289.93L243.02,294.03L244.05,292.05L244.9,290.31L245.22,289.42L242.63,292.85L239.63,296.94L239.67,296L239.3,296.1L239.73,294.42L239.36,294.43L239.13,294.22L231.93,302.18L229.88,304.44L230.7,301.73L231.9,299.35L232.62,297.48L232.12,297.5L230.04,299.72L223.04,309.28L221.92,310.09L220.28,311.73L220.33,310.72L219.44,311.11L219.28,309.44L218.43,309.7L218.66,308.27L217.04,309.64L215.84,310.34L217.15,307.22L216,307.83L213.56,310.28L211.14,312.79L211.09,311.58L211.93,309.07L209.54,311.48L207.35,313.32L207.3,312.08L206.53,311.86L206.87,309.91L207.01,306.82L205.82,307.19L201.67,310.62L200.68,310.57L196.94,313.01L196.69,311.83L195.4,310.39L195.1,309.12L195.06,307.48L192.54,309.71L190.46,311.07L189.41,310.8L188.4,310.55L186.51,311.61L185.4,311.37L185.36,309.42L185.3,305.6L183.01,306.94L181.32,307.38L182.91,302.98L183.23,300.5L181.08,301.75L179.81,301.58L179.02,300.65L177.27,301.18L176.62,299.96L175.55,294.99L173.86,295.4L165.73,296.22L164.83,295.18L164.7,293.03L163.42,292.57L161.2,290.93L160.78,289.08L160.08,287.65L158.25,287.99L155.36,289.89L154.23,288.84L155.28,284.6L154.87,282.54L154.3,280.84L155.5,276.5L155.48,274.12L154.03,273.89L153.18,272.67L151.46,272.74L149.37,270.75L150.61,266.2L152.75,260.86L150.69,261.6L151.07,258.62L152.58,253.9L154.58,246.69L153.56,246.2L151.01,247.93L151.44,245.06L160.71,221.41L160.12,220.86L163.69,207.43L165.58,203.53L174.13,186.73L176.66,182.34L189.96,162.15L190.64,161.69L203.6,147.54L205.06,146.58L210.87,140.05L214.61,135.73L222.12,127.88L222.5,129.43L231.32,121.74L236.8,115.48L252.35,103.6L256.44,100.23L258.5,100.52L261.77,98.82L265.54,96.26L267.68,96.57L270.79,95.45L275.02,92.32L281.71,85.52L284.72,84.72L286.36,86.32L290.35,84.36L298.11,80.72L301.29,79.99L304.12,80.04L305.19,82.52L307.31,83.44L310.48,82.67L313.75,81.83L315.74,82.81L318.09,83.18L321.87,81.34L328.32,79.62L333.56,75.75L342.02,71.47L345.66,70.37L349.32,69.24L352.09,69.54L352.89,76.54L354.07,78.71L363.69,72.45L365.19,74.12L370.46,74.01L373.48,73.24L376.73,72.23L378.08,74.14L378.24,77.63L379.57,79.07L385.94,76.4L388.07,76.68L391.23,81.63L391.16,84.75L391.57,87.03L392.68,88.01L395.81,85.9L397.5,86.2L397.37,89.06L398.98,89.13L401.51,87.83L402.28,89.12L403.2,90.11L403.22,92.4L402.92,94.91L405.58,92.99L406.81,93.22L406.12,96.39L405.57,100.52L405.7,101.93L405.59,105.1L405.07,107.16L403.07,112.57L404.16,111.96L405,111.8L403.64,114.74L401.62,120.17L402.92,118.73L404.79,116.61L404.27,118.06L403.93,119.18L404.26,119.22L405.27,118.16L405.24,118.68L403.81,121.33L404.43,120.74L404.21,121.44L402.63,124.25L394.69,136.72L391.54,141.38L388.01,146.33L389.09,144.27L392.17,138.67L391.88,138.85L389.14,142.85L374.81,159.97L373.73,160.78L374.18,159.23L371.25,163.15L368.04,166.8L369.17,164.3L366.67,166.53L366.53,165.95L366.02,165.92L365.16,164.83L363.69,166.33L361.83,167.64L361.36,167.58L360.44,168.22L361.12,166.39L361,165.88L359.63,167.37L358.97,167.57L357.16,169.66L352.53,175.16L353.07,173.53L352.62,173.44L351.42,174.49L351.29,173.91L350.59,174.18L350.14,174.16L346.19,177.96L343.54,181.1L344.79,177.72L343.49,178.95L337.38,184.66L336.97,184.6L328.57,194.72L329.36,192.81L331.12,189.55L331.25,188.76L332.58,186.13L331.51,187.12L328.06,191.75L328.16,190.95L327.34,191.6L324.53,195.45L323.2,196.73L324.09,194.81L325.21,192.58L323.99,193.85L323.42,194.1L324.33,191.04L323.42,191.87L318.85,197.65L319.21,196.57L319.59,195.58L321.64,191.36L319.32,194.23L308.62,207.39L311.42,202.72L314.93,196.18L314.71,196.2L312.76,198.61L311.41,199.57L310.14,201.19L304.77,208.55L304.64,208.42L307.55,203.67L308.23,202.47L306.19,205.25L304.06,208.15L303.97,207.98L304.42,206.98L299.77,212.42L300.77,210.63L301.09,209.47L300.23,210.53L298.8,212.46L292.53,220.82L292.96,219.96L294.66,216.11L294.06,216.85L293.13,218.1L293.71,217.02L290.26,222.02L290.22,221.93L289.89,222.27L287.21,226.19L290.54,221.21L287.29,224.79L286.26,226.19L280.89,233.25L281.25,232.58L283.04,229.55L283.16,229.28L281.47,231.52L280.49,232.99L282.44,229.62L278.03,235.98L277.43,236.8L267.49,249.93L267.62,249.42L268.16,248.4L271.06,243.21L269.83,244.67L267.03,248.62L261.85,255.78L263.15,253.33L263.38,252.72L263.47,252.31L262.08,254.15L263.79,250.9L258.71,257.46L258.92,256.89L257.83,257.6L258.4,256.4L258.81,255.5L250.94,265.04L249.33,267.07L247.42,269.55L248.57,266.89L248.41,266.74L247.4,267.83L248.1,266.25L249.77,263.37L249.57,263.2L248.62,264.16L244.88,268.49L247.22,264.29L247.48,263.35L245.5,265.71L244.25,267.13L244.52,266.16L245.38,264.29L244.46,264.51L244.7,263.55L240.73,268.47L241.21,267.18L240.39,267.8L238.48,270.01L238.73,268.98L238.93,268.03L236.38,270.62L236.61,269.57L235.24,270.9L235.25,270.08L236.62,267.35L233.33,269.22L232.81,269.27L224.96,276.72L225.48,274.95L224.9,274.92L223.09,276.79L224.2,273.2L222.09,275.52L221.18,275.86L222.57,272.69L222.75,270.45L220.9,272.48L220.74,271.66L221.63,269.21L216.58,273.66L216.53,272.55L217.36,269.08L216.35,269.59L216.08,268.95L214.38,270.24L214.52,268.79L212.27,271.09L209.51,273.92L209.98,271.89L208.88,270.97L207.96,271.06L209.38,266.31L208.36,266.54L206.66,266.51L206.43,265.52L204.77,265.29L204.37,264.51L203.85,263.92L204.23,261.92L205.62,255.88L204.41,256.46L200.37,259.95L201.06,257.41L200.94,256.21L199.29,257.41L198.69,256.84L200.55,252.57L202.24,247.32L200.45,248.78L198.85,249.74L199.65,247.12L202.64,239.95L200.39,241.92L202.4,236.29L201.36,236.58L200.34,236.98L197.34,240.49L196.2,240.83L196.63,238.8L200.01,227.4L200.19,226.13L201.75,221.7L199.71,223.78L199.06,223.67L201.02,219.64L203.82,212.8L204.06,211.65L204.7,209.22L206.18,206.43L215.57,189.56L213.7,191.57L212.34,193.35L215.86,187.41L218.15,184.01L238.35,155.46L240.62,152.74L240.22,155.1L241.37,154.3L241.16,156.35L243.55,153.39L247.46,149.27L248.48,148.78L259.02,138.79L260.5,137.85L262.37,136.3L262.86,137L267.08,134.94L271.21,130.38L272.43,130.23L271.79,132.83L272.72,132.88L276.21,129.1L283.24,122.32L285.29,121.08L291.85,115.67L293.72,115L298.67,111.76L300.75,110.75L305.21,106.11L305.66,107.9L306.4,109.02L308.17,108.56L308.9,109.72L309.04,111.75L312.65,110.68L312.18,113.69L313.22,114.07L315.54,112.4L322.55,106.28L324.53,105.58L329.67,102.26L330.87,102.96L330.18,106.15L331.49,106.27L333.07,106.04L335.48,104.67L339.32,105.16L342.06,103.15L344.55,101.25L346.09,101.05L346.31,104.76L348.67,103.04L350.79,101.86L351.36,102.96L350.35,108.33L351.12,108.9L352.1,109.09L354.4,107.41L358.61,104.28L359.51,104.69L359.46,106.41L360.42,106.62L360.34,108.25L361.78,107.62L363.37,106.81L363.71,107.74L361.44,113.86L362.46,113.53L363.17,113.68L362.73,115.57L369.48,108.74L369.36,110.17L364.68,119.06L365.7,118.41L368.04,115.86L368.08,116.77L365.91,121L366.06,121.51L367.14,120.66L367.51,120.82L369.4,118.57L370.19,118.21L368.05,121.92L366.74,126.45L368.37,124.26L369.49,123.13L369.3,123.87L368.89,124.88L369.74,124.57L369.17,125.81L366.32,130.66L370.64,124.68L370.82,124.61L371.2,124.29L370.18,125.95L368.42,128.76L359.91,140.73L359.39,141.28L363.02,134.83L359.63,139.64" style="vector-effect: non-scaling-stroke; fill: none; stroke: rgb(239, 85, 59); stroke-opacity: 1; stroke-width: 2px; opacity: 1;"/></g><g class="points"/><g class="text"/></g></g></g><g class="overplot"/><path class="xlines-above crisp" d="M79,520.5H693M79,99.5H693" style="fill: none; stroke-width: 1px; stroke: rgb(0, 0, 0); stroke-opacity: 1;"/><path class="ylines-above crisp" d="M79.5,100V520M692.5,100V520" style="fill: none; stroke-width: 1px; stroke: rgb(0, 0, 0); stroke-opacity: 1;"/><g class="overlines-above"/><g class="xaxislayer-above"><g class="xtick"><text text-anchor="middle" x="0" y="535.4" transform="translate(167.43,0)" style="font-family: 'Open Sans', verdana, arial, sans-serif; font-size: 12px; fill: rgb(42, 63, 95); fill-opacity: 1; white-space: pre; opacity: 1;">−10</text></g><g class="xtick"><text text-anchor="middle" x="0" y="535.4" style="font-family: 'Open Sans', verdana, arial, sans-serif; font-size: 12px; fill: rgb(42, 63, 95); fill-opacity: 1; white-space: pre; opacity: 1;" transform="translate(276.71000000000004,0)">−5</text></g><g class="xtick"><text text-anchor="middle" x="0" y="535.4" style="font-family: 'Open Sans', verdana, arial, sans-serif; font-size: 12px; fill: rgb(42, 63, 95); fill-opacity: 1; white-space: pre; opacity: 1;" transform="translate(386,0)">0</text></g><g class="xtick"><text text-anchor="middle" x="0" y="535.4" style="font-family: 'Open Sans', verdana, arial, sans-serif; font-size: 12px; fill: rgb(42, 63, 95); fill-opacity: 1; white-space: pre; opacity: 1;" transform="translate(495.29,0)">5</text></g><g class="xtick"><text text-anchor="middle" x="0" y="535.4" style="font-family: 'Open Sans', verdana, arial, sans-serif; font-size: 12px; fill: rgb(42, 63, 95); fill-opacity: 1; white-space: pre; opacity: 1;" transform="translate(604.57,0)">10</text></g></g><g class="yaxislayer-above"><g class="ytick"><text text-anchor="end" x="76.6" y="4.199999999999999" transform="translate(0,520)" style="font-family: 'Open Sans', verdana, arial, sans-serif; font-size: 12px; fill: rgb(42, 63, 95); fill-opacity: 1; white-space: pre; opacity: 1;">−15</text></g><g class="ytick"><text text-anchor="end" x="76.6" y="4.199999999999999" style="font-family: 'Open Sans', verdana, arial, sans-serif; font-size: 12px; fill: rgb(42, 63, 95); fill-opacity: 1; white-space: pre; opacity: 1;" transform="translate(0,436)">−10</text></g><g class="ytick"><text text-anchor="end" x="76.6" y="4.199999999999999" style="font-family: 'Open Sans', verdana, arial, sans-serif; font-size: 12px; fill: rgb(42, 63, 95); fill-opacity: 1; white-space: pre; opacity: 1;" transform="translate(0,352)">−5</text></g><g class="ytick"><text text-anchor="end" x="76.6" y="4.199999999999999" style="font-family: 'Open Sans', verdana, arial, sans-serif; font-size: 12px; fill: rgb(42, 63, 95); fill-opacity: 1; white-space: pre; opacity: 1;" transform="translate(0,268)">0</text></g><g class="ytick"><text text-anchor="end" x="76.6" y="4.199999999999999" style="font-family: 'Open Sans', verdana, arial, sans-serif; font-size: 12px; fill: rgb(42, 63, 95); fill-opacity: 1; white-space: pre; opacity: 1;" transform="translate(0,184)">5</text></g><g class="ytick"><text text-anchor="end" x="76.6" y="4.199999999999999" style="font-family: 'Open Sans', verdana, arial, sans-serif; font-size: 12px; fill: rgb(42, 63, 95); fill-opacity: 1; white-space: pre; opacity: 1;" transform="translate(0,100)">10</text></g></g><g class="overaxes-above"/></g></g><g class="polarlayer"/><g class="smithlayer"/><g class="ternarylayer"/><g class="geolayer"/><g class="funnelarealayer"/><g class="pielayer"/><g class="iciclelayer"/><g class="treemaplayer"/><g class="sunburstlayer"/><g class="glimages"/><defs id="topdefs-7cc099"><g class="clips"/><clipPath id="legend7cc099"><rect width="84" height="48" x="0" y="0"/></clipPath></defs><g class="layer-above"><g class="imagelayer"/><g class="shapelayer"/></g><g class="infolayer"><g class="legend" pointer-events="all" transform="translate(704.24,100)"><rect class="bg" shape-rendering="crispEdges" width="84" height="48" x="0" y="0" style="stroke: rgb(68, 68, 68); stroke-opacity: 1; fill: rgb(255, 255, 255); fill-opacity: 1; stroke-width: 0px;"/><g class="scrollbox" transform="" clip-path="url(#legend7cc099)"><g class="groups"><g class="traces" transform="translate(0,14.5)" style="opacity: 1;"><text class="legendtext" text-anchor="start" x="40" y="4.680000000000001" style="font-family: 'Open Sans', verdana, arial, sans-serif; font-size: 12px; fill: rgb(42, 63, 95); fill-opacity: 1; white-space: pre;">trace 0</text><g class="layers" style="opacity: 1;"><g class="legendfill"/><g class="legendlines"><path class="js-line" d="M5,0h30" style="fill: none; stroke: rgb(99, 110, 250); stroke-opacity: 1; stroke-width: 2px;"/></g><g class="legendsymbols"><g class="legendpoints"/></g></g><rect class="legendtoggle" x="0" y="-9.5" width="78.375" height="19" style="fill: rgb(0, 0, 0); fill-opacity: 0;"/></g><g class="traces" transform="translate(0,33.5)" style="opacity: 1;"><text class="legendtext" text-anchor="start" x="40" y="4.680000000000001" style="font-family: 'Open Sans', verdana, arial, sans-serif; font-size: 12px; fill: rgb(42, 63, 95); fill-opacity: 1; white-space: pre;">trace 1</text><g class="layers" style="opacity: 1;"><g class="legendfill"/><g class="legendlines"><path class="js-line" d="M5,0h30" style="fill: none; stroke: rgb(239, 85, 59); stroke-opacity: 1; stroke-width: 2px;"/></g><g class="legendsymbols"><g class="legendpoints"/></g></g><rect class="legendtoggle" x="0" y="-9.5" width="78.375" height="19" style="fill: rgb(0, 0, 0); fill-opacity: 0;"/></g></g></g><rect class="scrollbar" rx="20" ry="3" width="0" height="0" x="0" y="0" style="fill: rgb(128, 139, 164); fill-opacity: 1;"/></g><g class="g-gtitle"/><g class="g-xtitle"/><g class="g-ytitle"/></g></svg>