<svg class="main-svg" xmlns="http://www.w3.org/2000/svg" xmlns:xlink="http://www.w3.org/1999/xlink" width="700" height="500" style="" viewBox="0 0 700 500"><rect x="0" y="0" width="700" height="500" style="fill: rgb(255, 255, 255); fill-opacity: 1;"/><defs id="defs-ec451c"><g class="clips"><clipPath id="clipec451cxyplot" class="plotclip"><rect width="504" height="320"/></clipPath><clipPath class="axesclip" id="clipec451cx"><rect x="80" y="0" width="504" height="500"/></clipPath><clipPath class="axesclip" id="clipec451cy"><rect x="0" y="100" width="700" height="320"/></clipPath><clipPath class="axesclip" id="clipec451cxy"><rect x="80" y="100" width="504" height="320"/></clipPath></g><g class="gradients"/><g class="patterns"/></defs><g class="bglayer"/><g class="layer-below"><g class="imagelayer"/><g class="shapelayer"/></g><g class="cartesianlayer"><g class="subplot xy"><g class="layer-subplot"><g class="shapelayer"/><g class="imagelayer"/></g><g class="gridlayer"><g class="x"><path class="xgrid crisp" transform="translate(203.07999999999998,0)" d="M0,100v320" style="stroke: rgb(235, 240, 248); stroke-opacity: 1; stroke-width: 1px;"/><path class="xgrid crisp" transform="translate(326.15,0)" d="M0,100v320" style="stroke: rgb(235, 240, 248); stroke-opacity: 1; stroke-width: 1px;"/><path class="xgrid crisp" transform="translate(449.23,0)" d="M0,100v320" style="stroke: rgb(235, 240, 248); stroke-opacity: 1; stroke-width: 1px;"/><path class="xgrid crisp" transform="translate(572.31,0)" d="M0,100v320" style="stroke: rgb(235, 240, 248); stroke-opacity: 1; stroke-width: 1px;"/></g><g class="y"><path class="ygrid crisp" transform="translate(0,395.88)" d="M80,0h504" style="stroke: rgb(235, 240, 248); stroke-opacity: 1; stroke-width: 1px;"/><path class="ygrid crisp" transform="translate(0,341.28)" d="M80,0h504" style="stroke: rgb(235, 240, 248); stroke-opacity: 1; stroke-width: 1px;"/><path class="ygrid crisp" transform="translate(0,286.69)" d="M80,0h504" style="stroke: rgb(235, 240, 248); stroke-opacity: 1; stroke-width: 1px;"/><path class="ygrid crisp" transform="translate(0,177.49)" d="M80,0h504" style="stroke: rgb(235, 240, 248); stroke-opacity: 1; stroke-width: 1px;"/><path class="ygrid crisp" transform="translate(0,122.89)" d="M80,0h504" style="stroke: rgb(235, 240, 248); stroke-opacity: 1; stroke-width: 1px;"/></g></g><g class="zerolinelayer"><path class="xzl zl crisp" transform="translate(80,0)" d="M0,100v320" style="stroke: rgb(235, 240, 248); stroke-opacity: 1; stroke-width: 2px;"/><path class="yzl zl crisp" transform="translate(0,232.09)" d="M80,0h504" style="stroke: rgb(235, 240, 248); stroke-opacity: 1; stroke-width: 2px;"/></g><path class="xlines-below"/><path class="ylines-below"/><g class="overlines-below"/><g class="xaxislayer-below"/><g class="yaxislayer-below"/><g class="overaxes-below"/><g class="plot" transform="translate(80,100)" clip-path="url(#clipec451cxyplot)"><g class="scatterlayer mlayer"><g class="trace scatter tracedfba25" style="stroke-miterlimit: 2; opacity: 1;"><g class="fills"/><g class="errorbars"/><g class="lines"><path class="js-line" d="M0,117.61L0.12,117.16L0.25,111.2L0.37,111.55L0.49,125.62L0.86,131.45L1.23,117.79L1.35,120.13L1.48,115.71L2.34,133.37L2.46,127.78L2.58,120.48L2.95,136.35L3.2,123.42L3.32,132.04L3.45,142.37L3.94,123.69L4.06,129.44L4.68,124.12L4.92,146.52L5.05,130.46L5.66,143.97L5.78,141.29L5.91,130.58L6.03,125.31L6.15,145.42L6.52,136.69L6.65,136.48L7.51,158.6L7.63,149.95L7.75,143.48L7.88,143.07L8,147.98L8.12,148.16L8.25,151.62L8.74,151.76L8.86,141.22L8.98,144.73L9.11,144.63L9.85,158.98L9.97,140.93L10.34,161.56L10.58,145.44L10.71,142.39L10.83,169.46L11.45,153.99L11.57,152.44L11.69,154.19L11.82,148.5L11.94,162.96L12.55,149.86L12.68,164.83L12.8,164.3L12.92,167.82L13.29,158.78L13.54,161.69L13.66,177.12L13.78,151.1L14.4,156.26L14.52,165.09L14.77,167.18L14.89,161.04L15.14,183.98L15.63,170.77L15.75,168.3L15.88,180.41L16.49,171.51L16.62,162.74L17.6,183.08L17.72,179.76L17.85,180.84L17.97,166.04L18.95,188.61L19.08,185.05L19.2,164.51L19.57,190.49L19.69,187.13L19.82,192.32L20.18,178.77L20.43,196.55L20.55,194.31L21.17,182.77L21.29,191.58L21.42,193.49L21.66,179.24L21.78,197.26L22.03,187.16L22.15,198.23L22.77,181.85L22.89,190.37L23.02,192.1L23.38,177.88L23.75,209.63L23.88,201.15L24,197.98L24.12,204.99L24.37,193.07L24.62,200.08L24.74,197.26L24.98,192.38L25.6,208.21L25.72,191.85L26.34,212.88L26.58,211.25L26.71,200.24L27.32,223.32L27.69,221.31L27.82,223.43L27.94,228.99L28.18,217.76L28.31,208.69L28.43,230.55L28.92,208.62L29.05,223.28L29.17,220.69L29.29,219.25L29.42,229.81L30.15,221.55L30.28,221.74L30.4,229.03L30.77,233.44L30.89,224.02L31.02,229.07L31.14,234.94L31.26,230.47L31.38,232.53L31.51,251.53L32.37,231.59L32.49,251.72L32.98,229.14L33.23,245.48L33.35,244.8L33.48,230.69L33.72,257.86L33.97,253.57L34.09,253.48L34.34,233.04L34.71,245.66L34.83,255.7L35.2,244.17L35.32,259.17L35.69,247.7L35.82,248.82L36.18,248.79L36.31,275.83L36.55,253.88L36.68,246.64L37.54,267.17L37.66,256.43L37.78,256.78L37.91,262.37L38.03,264.88L38.15,260.22L38.28,253.17L38.4,268.83L38.77,252.2L39.02,263.52L39.14,258.04L39.26,261.02L39.51,254.58L39.63,248.39L40.12,268.16L40.37,259.73L40.49,248.8L40.98,242.91L41.11,268.43L41.23,256.52L41.35,251.64L41.48,252.25L41.6,262.9L41.85,249.8L42.34,251.98L42.46,266.56L43.08,242.63L43.32,245.65L43.45,237.9L43.57,239.15L43.69,231.21L43.82,246.11L44.31,229.33L44.43,234.77L44.55,226.24L44.68,226.14L44.8,235.37L45.54,207.26L45.66,215.99L46.77,182.68L46.89,191.03L47.88,156.41L48,166.73L48.74,138.66L49.11,138.84L49.23,146.4L50.09,114.88L50.22,124.41L51.2,81.51L51.32,95.89L51.82,64.35L52.43,64.66L52.55,73.11L52.8,70.94L52.92,58.58L53.54,69.71L53.66,43.27L53.78,60.95L54.4,54.2L54.52,52.87L54.89,61.95L55.26,43.79L55.38,49.2L55.51,45.61L55.63,47.91L55.75,59.81L56.12,35.39L56.49,58.15L56.62,71.44L56.86,39.64L57.48,47.59L57.6,63.72L57.97,53.11L58.09,47.04L58.34,43.28L58.46,64.32L58.95,62.04L59.08,67.68L59.32,54.61L59.57,77.23L59.69,78.51L59.82,65.13L60.18,83.63L60.43,74.69L60.55,83.08L60.92,99.21L61.05,74.6L61.42,75.93L61.54,81.45L62.28,97.13L62.4,93.83L62.52,83.57L62.65,107.41L63.26,95.84L63.38,97.35L63.75,112.63L64.12,106.4L64.25,96.04L64.49,112.71L65.11,107.7L65.23,111.16L65.6,110.87L65.97,133.73L66.09,109.37L66.83,128.5L66.95,120.39L67.08,120.98L67.94,132.61L68.06,130.88L68.18,129.82L68.31,137.26L68.55,126.55L68.68,151.51L68.8,126.23L69.42,139.05L69.54,137.51L69.78,136.93L70.15,148.15L70.28,141.05L70.4,139.56L70.52,135.49L70.65,141.33L70.77,152.76L71.02,135.35L71.26,141.15L71.38,156.39L71.63,138.05L71.88,149.69L72,161.48L72.49,143.04L72.86,143.24L72.98,151.02L73.72,166.41L73.85,147.2L74.58,173.04L74.71,152.95L74.83,154.4L75.45,166.4L75.57,157.61L75.69,154.96L76.43,176.04L76.55,156.85L77.05,181.11L77.29,164.82L77.42,159.07L78.03,183.07L78.4,178.99L78.52,162.49L79.26,182.65L79.38,179.74L79.51,176.27L79.75,182.51L80.12,169.49L80.25,172.25L80.37,181.66L80.49,192.17L80.74,173.86L80.98,182.29L81.11,172.14L81.23,171.68L81.35,178.51L81.6,183.52L81.72,177.93L82.09,172.72L82.71,200.29L82.83,186.37L82.95,185.44L83.08,196.32L83.2,182.97L83.94,183.06L84.06,195.66L84.43,194.83L84.55,198.75L84.68,193.31L84.92,185.48L85.54,208.29L85.66,195.03L85.78,194.05L85.91,196.71L86.03,203.76L86.15,204.7L86.28,188.83L86.4,208.89L86.77,184.28L87.02,207.78L87.14,199.02L87.75,212.23L87.88,202.07L88,206.79L88.12,204.48L88.25,207.14L88.37,214.35L88.98,214.39L89.23,201.3L89.35,201.3L89.48,222.72L90.09,203.81L90.22,203.51L90.34,202.35L90.46,215.28L90.83,221.67L91.2,199.46L91.32,212.66L91.69,202L91.82,220.43L91.94,214L92.06,217.02L92.18,218.59L92.31,204.18L93.17,235.67L93.29,212.39L94.03,223.89L94.15,211.81L94.77,223.55L94.89,219.15L95.02,210.99L95.63,230.62L95.75,227.02L95.88,221.26L96,220.04L96.12,221.71L96.25,221.44L96.37,228.22L96.74,229.77L96.86,204.99L97.23,213.06L97.35,226.98L97.6,223.96L97.72,210.24L98.34,226.59L98.46,211.02L98.83,225.35L98.95,209.29L99.2,215.79L99.32,213.67L99.45,223.73L99.94,219.25L100.06,212.08L100.18,217.67L100.43,205.02L100.68,207.94L100.8,208.56L100.92,199.27L101.29,216.66L101.54,208.79L101.66,206.19L101.91,211.01L102.52,190.96L102.65,200.94L103.02,205.41L103.26,187.88L103.38,176.3L103.63,201.11L104.25,195.06L104.37,182.1L104.62,189.1L105.11,173.26L105.23,180.04L105.35,182.23L105.48,178.45L105.6,167.76L105.85,176.35L106.34,158.18L106.46,161.41L107.32,141.52L107.45,145.66L107.57,153.21L108.55,118.77L108.68,137.18L108.8,135.72L108.92,136.26L109.05,114.94L109.78,133.46L109.91,131.44L110.03,120.96L110.15,121.18L110.28,115.33L110.4,116.1L110.52,115.05L110.65,110.93L111.51,92.79L111.63,102.68L111.75,92.6L112.37,97.63L112.49,95.94L112.74,105.44L112.98,89.46L113.11,88.75L113.23,87.75L113.35,101.1L113.97,77.46L114.22,88.51L114.34,85.15L114.58,82.92L114.71,93.43L115.57,77.89L115.69,84.29L115.82,83.92L115.94,76.46L116.43,87.02L116.55,86.72L116.68,70.52L116.92,76.83L117.05,81.7L117.17,73.58L117.29,89.27L117.78,77.57L117.91,86.15L118.03,86.8L118.15,72.94L118.65,71.65L118.89,91.15L119.02,73.1L120.12,93.15L120.25,82.41L120.49,84.81L120.62,81.23L120.74,78.88L121.11,87.28L121.23,83.66L121.35,80.77L122.22,98.48L122.34,81.32L122.58,100.13L123.08,89.78L123.2,96.67L123.57,90.76L124.06,106.94L124.18,103.72L124.55,88.98L124.92,94.62L125.05,100.96L125.54,98.08L125.78,116.68L125.91,102.72L126.03,101.97L126.15,86.14L126.65,115.78L126.89,115.53L127.02,100.05L127.14,93.1L127.38,117.01L127.51,94.17L127.63,108.34L128.49,120.72L128.62,112.84L128.86,104.26L129.35,126.25L129.48,119.87L129.85,95.95L130.09,109.18L130.22,117.37L130.46,118.21L130.83,109.21L130.95,122.48L131.08,121.34L131.2,126.06L131.32,111.12L131.94,129.86L132.31,127.76L132.43,113.46L132.68,111.25L132.8,131.41L133.17,116.63L133.29,119.45L133.66,115.65L133.91,133.51L134.03,131.81L134.15,112.36L134.4,112.13L134.52,126.25L135.02,125.34L135.14,114L136.37,145.17L136.49,130.55L137.11,117.01L137.23,133.25L137.35,135.61L137.6,129L137.72,121.69L137.85,135.37L138.46,126.87L138.58,130.91L138.71,137.64L138.83,114.25L139.08,125.7L139.2,118.76L140.06,134.01L140.18,127.85L140.31,122.76L140.43,138.21L140.68,127.14L140.8,139.34L140.92,115.29L141.54,127.87L141.66,122.82L142.52,138.71L142.65,137.26L143.02,139.22L143.63,122.52L143.75,142.11L144,129.24L144.25,142.23L144.49,134.89L144.62,135.81L144.86,139.56L145.11,128.18L145.23,134.06L145.35,144.32L146.34,122.51L146.46,144.79L147.2,121.38L147.32,136.01L147.45,145.05L147.94,130.9L148.06,140.57L148.18,137.66L148.55,132.95L148.68,139.77L148.92,137.45L149.05,139.48L149.54,141.25L149.66,123.04L149.78,135.04L149.91,142.69L150.28,132.12L150.65,142.48L150.77,145.93L150.89,148.31L151.02,145.04L151.14,128.65L151.75,141.78L151.88,133.48L152,136.1L152.12,137.01L152.25,149.11L152.37,130.79L152.98,142.43L153.11,147.77L153.6,126.89L153.85,130.7L153.97,143.24L154.46,150.49L154.71,134.23L154.83,134.29L154.95,141.08L155.08,134.5L155.45,144.65L155.57,136.39L155.69,142.55L155.82,145.15L155.94,131.52L156.06,147.65L156.8,147.46L156.92,149.52L157.17,150.81L157.54,127.4L157.66,147.44L157.78,143.26L157.91,126.67L158.28,148.95L158.4,137.94L158.52,146.16L158.77,149.56L158.89,131.41L159.63,147.5L159.75,137.17L160,143.82L160.12,146.54L160.37,154.8L160.86,132.38L160.98,147.05L161.11,137.78L161.23,151.56L161.72,143.73L161.85,153.07L162.09,139.35L162.34,141.81L162.46,153.25L163.2,136L163.32,150.1L163.57,139.98L163.69,158.29L163.82,139.21L164.43,149.49L164.55,144.14L164.68,155.38L164.92,143.14L165.17,147.46L165.29,141.58L165.66,162.47L165.78,134.61L166.03,147.99L166.15,151.34L166.28,150.71L166.4,151.11L166.52,139.72L166.89,157.57L167.14,139.59L167.26,137.42L167.38,138.49L167.51,151.5L167.75,137.34L167.88,160.35L168.25,155.47L168.37,154.86L168.74,160.96L168.98,145.62L169.11,154.1L169.23,150.35L169.35,165.52L169.85,146.11L169.97,145.2L170.09,163.52L170.71,153.52L170.83,158.33L171.2,141.52L171.45,160L171.57,154.55L171.69,153.44L171.82,144.85L172.06,162.42L172.31,159.64L172.43,158.35L172.55,161.65L172.68,158.08L172.8,161.25L172.92,148.17L173.42,167.1L173.66,149.87L173.78,145.68L174.89,172.92L175.02,146.98L175.51,171.24L175.88,160.25L176,165.89L176.25,185.51L176.37,162.53L176.62,177.33L176.74,165.45L176.98,175.31L177.11,180.64L177.48,157.98L177.85,165.99L177.97,162.13L178.22,189.21L178.71,175.73L178.83,167.7L179.32,178.81L179.69,175.73L179.82,176.77L179.94,179.31L180.06,174.32L180.18,176.49L180.31,162.49L180.55,190.9L181.17,179.79L181.29,180.48L181.54,173.36L181.91,194.93L182.03,177.43L182.15,175.88L182.28,191.2L182.77,183.06L182.89,199.32L183.02,181.18L183.63,187.64L183.75,185.74L183.88,184.97L184,196.95L184.62,179.04L184.74,203.14L184.98,204.7L185.48,182.86L185.6,187.2L186.71,209.14L186.83,198.74L186.95,197.48L187.08,203.55L187.2,199.41L187.32,201.77L187.45,211.01L188.06,206.17L188.18,207.59L188.31,202.86L188.55,210.73L188.68,217.09L189.17,200.51L189.29,215.71L189.42,227.62L189.91,229.71L190.15,200.69L190.28,223.61L190.89,208.19L191.02,226.59L191.14,213.59L191.51,229.89L191.75,223.12L191.88,239.31L192.62,225.18L192.74,235.91L192.86,238.31L193.11,229.86L193.23,250.3L193.48,233.64L193.85,257.94L193.97,247.06L194.09,253.9L194.34,239.22L194.95,239.99L195.08,256.89L195.45,263.41L195.57,248.92L195.69,261.2L195.82,259.47L196.06,248.13L196.31,259.19L196.43,264.19L196.92,255.61L197.05,267.73L197.17,268.87L197.54,262.5L197.66,269.11L197.78,263.14L197.91,271.96L198.4,260.92L198.52,288.25L199.26,272.56L199.38,273.69L199.51,280.7L199.63,273.69L199.75,292.7L199.88,276.86L200,300.58L200.86,282.27L200.98,282.65L201.23,299.65L201.72,296.22L201.85,290.18L201.97,291.04L202.09,287.82L202.22,294.67L202.71,302.04L202.83,286.23L202.95,293.81L203.08,292.88L203.32,290.6L203.82,302.48L203.94,291.12L204.18,287.77L204.55,304L204.68,293.31L204.8,290.02L205.05,289.24L205.17,298.72L205.42,301.2L205.54,279.22L206.03,280.59L206.15,279.66L206.65,297.17L206.89,289.93L207.02,269.67L207.14,286.86L207.51,268.95L207.75,276.04L207.88,271.45L208,276.01L208.25,257.79L208.37,252.7L208.62,239.35L208.74,252.53L208.86,252.95L208.98,256.76L209.11,245.75L209.35,247.17L209.48,239.08L210.22,203.28L210.58,211.99L210.71,216.01L212.06,146.68L212.18,154.01L212.31,152.57L212.43,160.33L212.8,141.37L212.92,120.63L213.05,130.15L213.42,114.3L213.54,109.86L213.66,121.35L214.03,91.31L214.15,89.28L214.28,89.94L214.4,74.96L214.65,79.86L214.77,68.34L214.89,75.67L215.02,62.33L215.38,67.65L215.51,53.02L215.63,64.29L215.75,33.86L215.88,49.98L216.49,41.72L216.62,33.99L216.74,43L217.11,25.89L217.23,28.31L217.35,16L217.48,34.9L218.09,33.07L218.22,31.19L218.58,19.73L218.83,41.9L218.95,30.59L219.08,23.64L219.94,35.77L220.06,35.67L220.18,31.6L220.31,22.69L220.68,40.66L220.8,30.92L220.92,37.14L221.05,36.86L221.17,29.27L221.54,60.43L222.03,47.98L222.15,48.14L222.28,43.52L222.4,61.1L222.52,55.86L222.65,58.51L222.77,54.98L222.89,67.57L223.14,63.88L223.26,70.43L223.51,66.74L223.63,80.67L224,77.21L224.12,66.2L225.11,101L225.23,96.86L225.35,97.35L225.6,88.9L225.72,104.53L225.97,101.95L226.09,113.31L226.46,100.13L226.58,109.66L226.71,115.71L227.08,135.79L227.32,126.54L227.45,114.11L228.18,136.92L228.31,129.19L228.43,130.24L228.55,131.25L228.68,126.48L228.8,138.84L229.17,139.85L229.42,130.84L229.54,145.96L229.91,138.48L230.15,155.76L230.28,143.13L230.4,159.47L230.65,141.14L231.02,153.54L231.14,148.45L232,175.03L232.12,161.2L232.74,180.97L232.86,169.68L233.11,162.22L233.72,182.7L234.09,179.28L234.22,170.73L234.83,193.68L234.95,187.92L235.08,177.45L235.32,171.58L235.45,177.69L235.57,191.03L235.69,170.68L235.82,192.18L236.31,190.7L236.43,185.42L236.92,203.55L237.05,200.52L237.17,186.9L237.78,206.22L237.91,192.19L238.03,197.24L238.28,205.78L238.4,185.46L238.65,191.67L238.77,192.15L239.75,219.11L239.88,198.5L240.86,222.68L240.98,218.58L241.23,205.91L241.6,215.75L241.72,217.25L241.85,211.34L241.97,233.18L242.34,216.74L242.46,225.49L242.58,216.86L243.08,226.5L243.2,226.2L243.32,218.27L243.57,214.28L244.18,231.94L244.43,229.93L244.55,209.82L245.17,239.03L245.42,233.94L245.54,238.44L246.15,224.33L246.4,225.86L246.52,230.03L246.77,226.88L247.26,245.12L247.38,232.49L247.51,235.27L247.75,226.29L247.88,231.73L248,248.82L248.62,226.72L248.74,230.82L248.86,236.2L249.23,224.08L249.35,237.86L249.72,227.63L249.85,238.21L250.09,224.15L250.46,238.28L250.58,234.05L250.71,234.89L250.95,221.47L251.2,237.47L251.32,231.91L251.45,243.66L251.82,208.04L252.31,220.8L252.43,217.82L252.92,213.38L253.17,226.44L253.29,214.72L253.54,216.66L253.66,209.07L253.78,221.77L254.4,197.62L254.65,205L254.77,194.4L255.14,214.91L255.26,191.53L255.51,194.04L255.63,178.32L255.75,204.19L256.37,186.24L256.49,176.71L256.74,179.14L256.98,164.47L257.23,175.74L257.35,177.5L257.48,177.82L257.6,164.79L257.85,167.06L258.34,145.75L258.46,163.33L259.2,126.25L259.32,128.19L259.45,148.53L259.57,146.84L259.69,129.32L259.82,131.92L259.94,131.47L260.06,113.99L260.31,129.4L260.68,106.23L260.8,123.57L260.92,109.41L261.05,116.24L261.42,101.82L261.54,104.71L261.66,103.41L261.91,108.82L262.03,88.55L262.15,105.29L262.77,87.45L262.89,80.55L263.51,89.1L263.63,78.36L263.75,83.73L263.88,73.58L264.37,80.14L264.49,79.5L265.35,61.26L265.48,74.79L265.6,81.19L265.97,71.18L266.09,61.27L266.22,60.23L266.34,75.01L266.95,80.07L267.08,60.81L267.2,61.84L267.32,72.76L267.57,70.55L267.69,63.99L268.06,83.64L268.31,79.5L268.43,59.07L269.05,85.67L269.17,70.02L269.29,72.94L269.42,84.85L269.54,58.76L270.03,81.11L270.15,76.97L270.4,84.73L270.52,75.66L270.77,79.05L270.89,74.68L271.02,67.85L271.26,81.59L271.38,89L271.51,88.33L271.63,83.17L271.88,93.43L272.37,64.67L272.49,86.69L272.62,70.22L273.11,94.59L273.23,85.3L273.35,85.62L273.48,106.18L274.22,104.65L274.34,100.07L274.71,112.48L274.95,89.17L275.08,101.56L275.94,107.92L276.06,103.28L276.31,95.72L276.55,113.13L276.8,107.2L276.92,100.91L277.54,123.79L277.78,115.83L277.91,103.24L278.15,97.27L278.28,129.83L278.65,122.76L278.77,110.86L279.38,107.95L279.51,125.73L279.63,115.7L279.75,115.1L279.88,122.64L280,117.86L280.25,127.72L280.49,126.95L280.62,123.12L280.86,121.43L280.98,125.7L281.11,122.95L281.23,134.04L281.35,140.45L281.85,119.27L282.09,130.93L282.22,134.75L282.71,143.12L282.83,121.01L282.95,135.41L283.08,135.6L283.32,134.01L283.45,129.12L283.69,130.16L283.82,142.2L283.94,120.57L284.55,144.54L284.68,133.55L284.8,143L284.92,126.05L285.29,128.94L285.42,127.52L286.15,146.72L286.28,141.03L286.52,130.47L286.65,147.69L287.02,131.75L287.14,146.73L287.51,130.14L287.63,136.49L287.75,152.91L288.62,135.54L288.74,145.06L288.86,145.47L288.98,143.54L289.11,138.34L289.48,137.01L289.85,150.82L289.97,139.88L290.58,155.44L290.71,152.86L290.83,145.14L290.95,145.45L291.08,132.49L291.57,154.08L292.06,153.84L292.18,149.99L292.31,139.01L292.8,154.59L292.92,146.68L293.05,164.07L293.17,144.08L293.78,154.65L293.91,147.52L294.15,146.59L294.65,162.36L294.77,145.23L295.38,171.31L295.51,143.88L295.75,163.65L296.25,143.75L296.37,156.3L296.49,157.7L296.86,161.34L297.11,137.78L297.23,155.93L297.35,166.13L297.72,167.33L297.85,155.82L297.97,174.17L298.09,153.22L298.71,170.41L298.83,166.21L299.08,157.17L299.2,174.99L299.45,166.97L299.57,153.87L300.18,181.15L300.31,162.72L300.43,166.3L300.68,161.33L300.8,179.85L301.05,156.83L301.54,173.85L301.66,164.32L301.91,175.89L302.28,173.29L302.4,163.45L303.02,178.29L303.14,168.61L303.26,163.95L303.38,192.2L303.63,162.4L304,177.33L304.12,180.38L304.74,163.53L304.86,178.39L304.98,188.3L305.72,169.77L305.85,181.63L305.97,185.77L306.09,174.31L306.34,185.55L306.46,173.64L306.95,187.53L307.32,184.07L307.45,187.08L307.69,185.34L307.82,193.23L308.06,193.68L308.43,175.65L308.55,197.45L308.68,176.59L309.29,183.78L309.42,188L309.78,194.96L310.28,191.42L310.4,192.09L310.52,201.13L310.77,189.26L311.02,196.77L311.14,191.08L311.51,185.28L311.63,194.85L311.75,186.19L312.12,204.71L312.62,196.19L312.74,189.78L313.6,215.3L313.72,190.15L314.58,216.3L314.71,199.33L314.95,223.23L315.45,203.14L315.57,190.95L316.68,231.82L316.8,214.92L316.92,213.48L317.05,230.52L317.54,203.85L317.91,212.06L318.03,221.37L318.28,204.11L318.52,209.13L318.65,219.22L318.89,208.61L319.02,220.46L319.26,219.07L319.38,224.65L319.51,224.98L319.63,219.91L320,211.17L320.12,237.65L320.25,213.57L320.62,232.72L320.86,213.34L320.98,221.92L321.11,222.17L321.23,217.1L321.35,237.79L321.72,221.92L321.85,227.91L322.22,236.84L322.34,216.53L322.58,223.72L322.71,222.04L322.95,236.09L323.57,235.93L323.69,226.73L323.82,229.32L324.18,224.13L324.31,226.76L324.43,218.57L324.55,218.86L324.68,233.35L325.05,217.75L325.54,218.41L325.66,222.02L325.78,215.7L325.91,228.17L326.03,220.01L326.15,240.38L326.65,221.77L326.77,222.37L326.89,227.21L327.26,205.96L327.51,216.34L327.63,223.78L327.88,225.08L328.25,206.39L328.49,207.5L328.62,221.4L329.35,194.76L329.48,220.93L330.34,185.16L330.46,199.01L331.08,176.55L331.2,183.61L331.32,196.84L332.68,163.76L332.8,175.76L333.05,152L333.17,169.46L333.29,170.56L334.15,139.1L334.28,160.97L335.14,131.87L335.26,142.01L336,119.67L336.12,128.57L336.25,126.25L336.37,125.12L336.49,129.9L336.62,118.85L336.86,106.54L336.98,120.23L337.11,110.99L337.23,119.95L337.6,95L338.09,96.25L338.22,100.63L338.34,113.92L338.71,97.52L338.83,100.2L338.95,89.2L339.08,80.62L339.32,94.91L339.69,87.64L339.82,90.12L340.43,94.93L340.8,71.83L340.92,91.43L341.78,73.65L341.91,77.89L342.03,77.18L342.15,69.25L342.77,83.59L342.89,70.99L343.02,63.16L343.14,80.01L343.38,59.83L343.75,69.06L343.88,68.67L344.25,66.2L344.62,85.87L344.74,75.42L344.86,66.76L345.11,78.05L345.35,74.45L345.48,81.25L345.85,91.21L346.22,70.83L346.34,94.37L346.95,78.66L347.08,83.44L347.2,82.98L347.45,77.86L347.57,88.94L347.69,82.71L347.82,74.98L348.06,99.8L348.55,92.42L348.68,88.11L349.05,100.32L349.17,87.74L349.42,97.18L349.66,92.84L349.78,89.44L349.91,100.51L350.4,99.85L350.52,77.4L351.14,111.42L351.51,108.07L351.63,89.98L352.25,112.79L352.37,104.47L352.49,96.36L353.23,114.97L353.35,114.22L353.48,107.81L354.09,106.98L354.22,113.89L354.34,104.81L354.71,119.52L355.08,105.53L355.2,108.8L355.57,107.65L355.82,134.01L355.94,117.25L356.06,119.61L356.18,122.29L356.31,118.09L356.43,119.02L356.55,111.8L357.42,123.01L357.54,118.86L357.66,117.06L357.78,128.35L357.91,138.86L358.15,113.08L358.28,131.5L358.4,115.23L358.77,112.85L358.89,134.74L359.26,129.07L359.38,117.13L359.51,114.55L359.63,123.77L359.75,117.93L359.88,130.14L360.12,115.09L360.49,122.72L360.62,134.77L361.11,137.1L361.23,123.83L361.6,124.91L361.72,129.42L361.85,113.13L361.97,141.42L362.46,130.48L362.58,141.19L362.95,129.58L363.2,133.15L363.32,142.29L363.45,129.25L363.57,144.67L364.06,130.9L364.18,133.54L364.31,149.15L364.92,134.52L365.05,135.06L365.42,138.19L365.54,118.15L365.66,136.12L365.78,137.16L365.91,137.37L366.03,140.31L366.15,140.57L366.28,131.26L366.4,142.24L366.77,123.59L367.02,137.07L367.14,137.62L367.38,126.71L367.51,141.76L367.63,131.52L367.88,129.88L368.62,147.36L368.74,125.94L369.23,150.16L369.48,134.63L369.6,132.05L370.22,149.87L370.46,147.38L370.58,140.26L370.95,133.52L371.2,138.03L371.32,144.36L371.57,149.2L371.94,134.88L372.06,152.19L372.68,154.39L372.8,138.91L372.92,145.81L373.05,127.52L373.42,147.39L373.54,134.3L373.66,150.51L373.78,160.61L374.03,136.14L374.4,153.82L374.52,139.94L374.65,137.75L374.77,164.82L375.26,140.37L375.51,146.62L375.63,155.64L376.25,138.55L376.49,141.02L376.62,139.73L377.48,159.01L377.6,142.75L378.22,157.81L378.34,145.34L378.46,147.06L378.95,160.12L379.32,157.13L379.45,144.27L379.69,137.08L380.18,162.05L380.31,158.17L380.43,152.66L380.68,145.71L380.8,159.85L380.92,160.88L381.29,151.29L381.66,158.79L381.78,166.37L382.28,152.72L382.52,155.69L382.65,161.44L383.38,151.23L383.51,176.27L384.37,150.8L384.49,158.6L384.74,158.35L384.86,166.37L384.98,166.31L385.11,158.23L385.23,146.54L385.72,166.29L385.85,164.93L385.97,156.59L386.22,183.31L386.46,165.61L386.58,166.65L386.83,160.16L387.2,163.65L387.32,174.8L387.69,161.39L388.18,162.17L388.31,161.57L388.43,161.96L388.55,165.04L388.68,175.57L388.8,163.26L389.29,165.32L389.42,171.22L389.66,175.93L389.78,161.57L389.91,163.53L390.03,175.03L390.15,158.11L390.28,176.94L390.65,169L390.77,179.6L390.89,182.51L391.02,165.27L391.26,180.91L391.51,164.99L391.75,172.48L391.88,163.43L392.62,192.7L392.74,176.22L392.86,168.2L393.6,192.46L393.72,180.49L393.85,186.38L394.09,174.25L394.22,179.02L394.34,173.46L394.58,190.19L394.95,189.25L395.08,177.37L395.57,193.64L395.94,189.95L396.06,191.37L396.43,196.95L396.55,180.21L396.8,181.39L396.92,197.54L397.29,199.18L397.54,182.98L397.66,195.82L397.91,205.58L398.15,193.51L398.4,198.38L398.52,189.06L399.02,207.17L399.51,206.52L399.63,192.44L400.62,217.29L400.74,210.67L400.98,214.32L401.48,199.98L401.6,214.84L401.72,213.34L401.85,220.48L401.97,203.98L402.71,220.31L402.83,204.3L403.32,223.26L403.69,215.85L403.82,222.34L404.31,226.89L404.43,215.57L404.55,216.58L404.68,230.99L404.8,231.49L404.92,226.48L405.42,219.42L405.66,242.13L405.78,234.46L405.91,226.54L406.28,225.25L406.77,233.4L406.89,229.4L407.26,248.43L407.38,237.33L407.51,235.39L407.88,228.73L408.12,241.77L408.25,259.97L408.98,239.34L409.11,245.86L409.35,239.24L409.48,257.06L409.6,235.25L410.22,238.48L410.34,245.89L410.46,260L410.95,239.55L411.08,243.92L411.82,260.83L411.94,247.07L412.43,241.61L412.68,257.95L412.8,255.52L412.92,252L413.17,258.65L413.42,250.36L413.54,247.19L413.78,262.13L413.91,246.46L414.03,239.25L414.28,255.58L414.52,253.68L414.65,251.08L415.02,243.68L415.26,252.29L415.38,248L415.51,250.28L415.88,255.68L416,243.66L416.98,256.56L417.11,241.59L417.35,246.61L417.6,231.93L417.72,242.7L418.09,245.52L418.22,235.42L418.34,244.42L418.46,212.9L418.58,236.81L419.2,217.99L419.32,231.94L419.82,204L419.94,206.1L420.06,195.35L420.18,208.69L420.8,203.1L420.92,191.76L421.05,193.48L421.17,182.37L421.29,192.34L421.66,178.47L421.78,168.65L421.91,174.53L422.4,163.78L422.52,149.38L422.65,161.74L423.02,143.14L423.26,149.74L423.38,148.02L423.63,144.34L423.75,151.1L423.88,135.66L424.12,126.63L424.25,118.08L424.37,140.76L424.86,113.81L424.98,102.46L425.11,122.48L425.48,97.12L425.72,109.14L425.85,88.08L425.97,103.54L426.46,74.9L426.58,95.15L426.71,82.88L427.2,72.66L427.32,84.97L428.18,64.55L428.31,76.31L429.05,53.43L429.17,62.39L429.29,69.65L429.54,65.66L429.66,40.5L429.91,58.8L430.52,58.55L430.65,63.64L430.89,47.82L431.38,51.9L431.51,62.78L431.75,63.57L432,48.68L432.49,52.97L432.62,60.71L432.74,52.51L432.86,70.84L433.23,59.1L433.35,69.16L433.6,63.29L433.97,72.4L434.09,66.35L434.22,78L434.46,63.32L434.83,80.58L434.95,74.94L435.08,76.44L435.2,63.73L435.45,77.62L435.82,66.53L435.94,82.29L436.18,72.04L436.43,83.94L436.55,91.35L436.68,80.87L437.17,91.74L437.29,85.23L437.42,96.06L437.54,104.93L437.91,80.02L438.03,79.01L438.89,109.83L439.02,97.74L439.75,123.49L439.88,118.96L440,108.84L440.12,106.39L440.25,122.65L440.62,109.47L440.98,115.3L441.11,120.34L441.72,109.3L441.85,120.36L441.97,117.99L442.09,118.31L442.22,128.88L442.34,131.99L442.46,121.29L442.58,118.61L443.32,134.87L443.45,124.65L443.82,117.58L444.18,139.76L444.31,124.63L445.17,153.31L445.29,145.76L445.78,126.54L445.91,153.48L446.03,144.7L446.15,134.87L446.28,151.49L446.65,133.96L446.89,147.88L447.02,140.11L447.14,140.66L447.26,137.38L447.63,155.39L447.88,136.87L448,151.63L448.12,131.47L449.11,166.75L449.23,150.84L449.35,135.76L449.72,156.98L449.97,151.4L450.09,153.08L450.22,147.16L450.34,164.64L450.58,147.82L450.71,161.46L450.83,165.93L450.95,148.06L451.08,142.27L451.45,165.12L451.94,158.76L452.06,165.17L452.55,151.69L452.8,154.74L452.92,163.4L453.17,172.1L453.42,156.35L453.54,172.05L453.78,177.05L454.03,160.78L454.28,169.36L454.4,168.37L454.77,160.02L454.89,174.85L455.02,162.1L455.26,177.94L455.63,173.79L455.75,188.66L455.88,155.43L456.49,174.56L456.62,163.69L457.23,178.26L457.35,174.06L457.48,171.47L457.97,170.37L458.22,187.2L458.34,180.36L458.46,175.6L458.58,166.2L458.71,186.89L459.2,172.79L459.32,173.18L459.45,188.83L460.06,188.24L460.18,181.69L460.31,177.67L460.43,189.07L460.68,186.49L460.8,202.75L461.05,181.28L461.54,189.46L461.66,197.05L462.03,198.25L462.65,186.86L462.77,189.71L463.02,184.69L463.38,192.27L463.51,210.69L463.88,190.03L464,211.65L464.25,194.1L464.37,197.19L464.74,204.37L464.98,188.62L465.11,192.52L465.23,204.5L465.48,206.64L465.6,197.64L465.97,198.59L466.09,203.68L466.22,191.17L466.46,208.12L466.71,201.76L466.83,219.54L467.45,205.06L467.57,205.88L467.69,212.13L467.82,212.26L467.94,199.68L468.43,223.77L468.55,202.26L468.68,200.38L468.8,211.3L468.92,216.82L469.29,203.88L469.42,215.25L469.54,202.37L469.78,220.93L470.28,217.21L470.4,206.38L471.02,221.79L471.14,204.56L472,224.49L472.12,218.7L472.25,215.93L472.37,233.41L472.98,213.53L473.11,220.09L473.23,233.35L473.6,211.91L474.09,212.38L474.22,234.41L474.71,211.02L474.95,213.05L475.08,227.14L475.32,218.17L475.45,237.37L475.82,225.08L475.94,221.2L476.06,227.55L476.18,209.7L476.55,224.65L476.68,217.25L476.8,222.07L477.29,219.99L477.42,210.68L477.66,209.03L478.03,229.59L478.15,214.37L478.28,213.43L478.4,215.94L478.52,225.19L479.38,196.93L479.51,194.31L479.63,215.21L479.88,191.99L480.37,214.29L480.49,206.08L481.48,183.96L481.6,202.33L481.97,176.28L482.22,186.01L482.34,188.87L482.58,189.52L483.45,165.51L483.57,165.77L483.69,182.83L484.43,159.18L484.55,163.49L484.68,168.82L485.54,147.65L485.66,161.11L485.91,125.37L486.4,136.74L486.52,147.69L486.77,142.32L486.89,128.93L487.14,137.43L487.51,125.65L487.63,131.89L487.75,119.48L488.37,119.19L488.49,129.93L488.62,109.33L488.98,127.04L489.11,113L489.23,105.41L489.48,112.14L490.09,87.63L490.22,108.04L490.34,80.5L490.95,99.47L491.08,100.62L491.32,102.78L491.82,79.82L491.94,87.64L492.06,83.64L492.18,84.35L492.31,75.19L492.43,97.54L493.05,84.6L493.17,84.7L493.42,73.52L493.66,77.84L493.78,88.7L494.03,72.44L494.4,91.19L494.52,81.11L494.65,86.74L495.14,70.57L495.38,75.94L495.51,82.6L495.75,72.95L495.88,79.19L496,79.9L496.12,91.96L496.37,78.52L496.62,85.72L496.74,67.59L497.23,95.67L497.85,91.77L497.97,82.7L498.09,84.88L498.22,84.79L498.34,72.57L499.08,93.44L499.2,86.7L499.32,79.21L499.69,93.21L499.82,80.26L499.94,92.89L500.18,102.84L500.68,77.09L500.8,88.74L500.92,82.69L501.29,100.23L501.42,98.29L501.54,102.73L501.91,89.7L502.03,91.4L502.4,105.28L502.89,101.3L503.02,99.86L503.14,107.63L503.51,90.62L503.63,94.08L503.75,88.78L503.88,110.76L504,99.92" style="vector-effect: non-scaling-stroke; fill: none; stroke: rgb(99, 110, 250); stroke-opacity: 1; stroke-width: 2px; opacity: 1;"/></g><g class="points"/><g class="text"/></g><g class="trace scatter trace62c128" style="stroke-miterlimit: 2; opacity: 1;"><g class="fills"/><g class="errorbars"/><g class="lines"><path class="js-line" d="M0,148.47L0.37,110.98L0.74,118.8L0.86,126.49L1.11,122.82L1.23,120.33L1.48,117.43L1.6,121.76L1.72,128.06L1.85,128.33L1.97,127.18L2.09,130.05L2.46,130.45L2.58,123.17L2.83,128.51L2.95,132.95L3.08,133.65L3.2,126.3L3.45,138.64L3.69,134.73L3.82,131.28L3.94,124.23L4.31,138.69L4.43,133.77L4.55,135.21L4.68,128.9L4.92,142.15L5.17,132.32L5.29,138.98L5.78,142.69L5.91,134.87L6.03,126.87L6.28,145.27L6.52,136.2L6.65,136.54L7.51,155.23L7.63,153.76L7.75,145.89L7.88,143.11L8.25,150.35L8.49,144.47L8.62,148.21L8.74,151.06L8.98,143.06L9.23,145.63L9.35,145.61L9.48,145.27L9.6,147.43L9.85,159.34L10.09,142.72L10.46,158.66L10.58,149.63L10.71,143.03L10.95,162.99L11.32,147.64L11.45,152.43L11.69,153.53L11.82,150.66L11.94,157.03L12.55,153.15L12.8,164.92L12.92,166.42L13.29,160.28L13.54,163.48L13.66,171.19L13.91,152.73L14.15,172.98L14.52,161.44L14.65,166.18L14.89,163.42L15.02,167.95L15.14,180.14L15.51,167.11L15.75,169.35L15.88,175.61L16.12,171.52L16.37,178.98L16.49,175.08L16.62,166.06L16.74,167.2L16.86,177.94L17.23,172.64L17.72,181.4L17.85,180.65L17.97,172.03L18.46,181.32L18.58,185.04L18.95,188.44L19.2,172.65L19.45,176.62L19.57,183.78L19.82,190.3L20.18,180L20.31,182.4L20.55,195.79L21.05,189.27L21.17,184.53L21.66,181.69L21.91,196.32L22.15,193.95L22.28,192.52L22.77,185.22L23.02,191.72L23.14,196.86L23.38,188.49L23.88,205.17L24,199.14L24.25,203.72L24.49,195.32L24.62,199.18L24.74,198.6L24.98,196.08L25.23,206.16L25.35,199.25L25.72,198.43L26.46,210.44L26.58,210.18L26.83,204.8L27.2,213.47L27.32,221.17L27.57,216.43L27.69,219.13L27.82,222.94L27.94,227.21L28.18,218.07L28.31,212.35L28.55,227.26L29.17,222.42L29.29,219.77L29.54,228.36L30.03,226.49L30.15,222.75L30.28,221.8L30.4,226.41L30.52,228.51L30.65,226.67L30.77,230.87L31.02,226.97L31.14,233.12L31.38,231.59L31.51,244.55L31.75,232.44L32.12,242.85L32.25,241.36L32.62,244.37L33.11,231.2L33.23,240.98L33.48,236.26L33.72,256.19L34.09,254.27L34.22,242.46L34.34,233.18L34.83,251.89L34.95,252.17L35.2,246.53L35.32,253.24L35.45,259.73L35.82,248.33L36.18,248.59L36.31,265.57L36.68,249.91L37.17,256.03L37.29,263.18L37.54,263.21L37.78,256.43L37.91,260.31L38.03,264.23L38.77,254.74L38.89,258.61L39.02,263.8L39.51,254.61L39.63,250.86L39.75,250.32L39.88,259.51L40.12,264.42L40.25,259.72L40.37,257.04L40.74,258.75L40.98,248.27L41.11,257.79L41.23,261.94L41.48,251.6L41.72,256.61L41.85,250.22L41.97,249.57L42.09,254.34L42.46,260.46L42.71,252.73L42.83,248.48L42.95,251.9L43.2,244.65L43.32,246.2L43.45,240.35L44.68,224.9L44.8,231.15L45.54,208.99L45.66,211.29L45.78,209.48L46.77,185.33L46.89,186.27L48,160.58L48.12,160.66L48.25,156.86L50.34,111.83L50.46,97.78L50.71,111.72L50.95,91.85L51.08,83.66L51.45,90.2L51.69,80.48L51.82,67.26L52.06,75.04L52.43,63.7L52.55,68.35L52.68,71.19L52.92,62.32L53.05,58.33L53.54,65.08L53.66,53.02L53.78,52.28L53.91,59.09L54.77,48.5L54.89,57.3L55.02,57.51L55.14,49.44L55.26,44.58L55.63,46.61L55.75,55.35L56.12,40.95L56.37,53.79L56.49,57.64L56.62,66.8L56.86,44.1L57.11,57.2L57.23,55.85L57.35,56.17L57.48,50.16L57.72,64.04L58.09,49.93L58.22,57.97L58.34,52.5L59.08,66.68L59.2,64.2L59.32,57.32L60.18,83.61L60.31,77.92L60.43,74.42L60.92,93.39L61.29,83.41L61.42,79.3L61.66,84.51L61.78,89.52L62.15,87.24L62.4,96.73L62.52,88.27L62.77,102.93L63.38,97.66L63.51,100.28L63.63,101.04L63.75,108.41L63.88,111.7L64,105.25L64.12,105.35L64.25,101.02L64.49,111.89L64.98,107.77L65.11,108.68L65.85,123.77L65.97,130.53L66.22,113.11L66.71,123.29L66.83,127.2L67.08,120.77L67.45,121.84L67.57,128.44L68.43,136.62L68.55,129.82L68.68,141.79L69.29,131.29L69.42,134.8L70.15,147.49L70.28,144.07L70.4,140.12L70.52,137.1L70.77,148.39L70.89,150.86L71.02,140.43L71.51,153.45L71.63,142.69L71.75,143.18L72.74,158.58L72.86,148.22L72.98,147.36L73.11,158.73L73.48,157.93L73.72,166.69L73.85,154.81L73.97,150.21L74.46,159.75L74.58,170.32L74.83,153.1L75.45,161.55L75.57,161.49L75.69,155.66L76.18,165.56L76.31,169.49L76.68,159.76L77.05,179.31L77.17,172.34L77.42,161.31L77.78,175.57L77.91,169.78L78.03,176.25L78.15,180.36L78.52,169.28L78.65,168.71L79.38,181.21L79.51,177.64L79.63,173.63L80.12,170.41L80.49,188.43L80.62,181.97L80.98,183.64L81.23,171.6L81.35,175.84L81.48,179.31L82.09,176.86L82.34,189.53L82.46,184.47L82.58,183.19L82.71,193.43L82.83,192.57L82.95,185.35L83.57,193.74L83.69,189.02L83.82,187.12L83.94,185.58L84.06,190.49L84.18,196.67L84.55,197.36L84.68,195.56L84.8,201.41L85.05,193.09L85.42,200.15L85.54,206.34L85.78,194.23L86.28,195.1L86.4,200.67L86.77,188.85L87.26,206.44L87.38,210.59L88,204.89L88.25,206.11L88.37,211.95L89.35,201.15L89.48,214.51L89.6,216.79L89.72,207.03L89.85,206.25L89.97,211.06L90.34,202.92L90.58,210.26L90.71,205.26L91.08,217.78L91.45,208.92L91.57,214.45L92.18,218.6L92.43,205.82L92.55,208.91L93.17,230.48L93.42,216.88L93.54,221.92L93.66,222.33L93.78,221.18L93.91,216.38L94.65,223.61L94.77,223.6L94.89,221.41L95.02,214.26L95.26,223.78L95.51,214.98L95.63,223.34L95.75,229.39L96,220.77L96.37,225.96L96.49,223.37L96.62,215.13L97.11,227.57L97.23,218.35L97.35,221.45L97.48,226.63L97.72,216.12L97.85,211.38L98.34,222.19L98.46,217.88L98.58,215.5L98.71,215.73L98.83,220.82L99.32,214.54L99.57,219.48L99.69,217.34L99.94,218.82L100.06,215.32L100.18,215.66L100.31,215.35L100.43,208.2L100.68,210.39L100.8,208.62L100.92,203.17L101.29,214.6L101.66,207.7L101.78,200.72L102.03,208.86L102.28,198.52L102.4,193.57L102.52,192.16L102.65,197.19L102.77,199.9L103.02,205.08L103.14,196.49L103.38,181.11L103.63,197.91L103.88,193.51L104,191.35L104.49,178.6L104.74,183.05L104.86,183.07L105.72,163.14L105.97,169.53L106.09,168.51L106.22,172.94L106.46,160.05L106.58,158.61L107.45,143.76L107.57,150.68L108.55,124.96L108.68,129.54L108.8,136.95L108.92,136.32L109.05,123.62L109.17,116.97L109.29,127.1L109.66,123.81L109.78,129.39L109.91,132.75L110.15,121.02L110.28,117.81L111.51,94.87L111.88,98.26L112,102.55L112.49,96.43L112.62,99.19L112.74,104.23L113.23,87.87L113.6,88.65L113.72,92.82L113.97,80.36L114.58,82.67L114.71,89.27L115.57,78.86L115.69,81.49L115.82,84.21L115.94,79.19L116.43,84.54L116.55,87.11L116.8,70.39L117.29,82.64L117.42,86.84L118.03,86.88L118.4,77.62L118.52,78.34L118.65,75.88L118.77,74.69L118.89,86.11L119.14,73.59L119.63,80.11L119.75,85.52L120.12,90.58L120.37,82.73L120.49,84.37L120.86,79.42L120.98,80.76L121.11,84.87L121.23,85.13L121.35,81.46L121.97,96.01L122.22,92.4L122.34,88.29L122.58,99.67L122.95,93.44L123.08,91.23L124.18,105.27L124.31,98.86L124.43,99.27L124.55,94.06L124.68,90.42L125.05,98.16L125.17,106.34L125.29,105.9L125.42,101.39L125.54,98.95L125.66,100.66L125.78,111.39L126.15,92.22L126.52,100.31L126.65,110.33L126.89,113.85L127.02,106.44L127.14,95.13L127.38,115.4L128,110.32L128.12,110.1L128.49,118.44L128.86,110.98L128.98,110.81L129.48,122.85L129.72,114.88L129.85,103.71L130.58,117.45L130.71,116.21L130.83,111.63L131.2,124.18L131.69,119.48L131.82,117.93L132.18,115.27L132.31,124.19L132.55,119.75L132.68,116.56L133.54,130.7L133.66,122.3L133.78,120.25L133.91,130.1L134.03,132.85L134.4,114.94L134.89,117.71L135.02,122.69L135.26,115.89L135.51,123.5L135.63,121.61L135.75,125.34L136.12,132.91L136.25,129.64L136.37,138.77L136.49,136.97L136.62,123.62L136.98,124.5L137.11,120.34L137.48,135.24L137.97,130.61L138.09,130.08L138.22,130.19L138.34,128.97L138.46,127.9L138.58,129.01L138.71,135.3L138.95,118.66L139.45,129.75L139.57,125.98L140.06,132.8L140.18,130.44L140.31,124.37L141.17,136.65L141.29,134L141.66,124.81L141.91,135.63L142.03,137.29L142.28,127.12L142.65,137.91L142.89,128.17L143.02,133.64L143.26,135.59L143.38,132.97L143.51,126.88L143.63,123.39L143.75,134.12L143.88,139.87L144,132.19L144.62,135.53L144.74,133.9L145.11,128.47L145.35,140.44L145.48,137.76L145.6,130.47L145.72,137.42L146.09,129.13L146.22,129.3L146.34,124.95L146.46,135.82L147.08,131.36L147.2,125.6L147.45,141.91L147.94,135.51L148.06,136.36L148.18,139.16L148.55,133.42L148.8,137.14L148.92,136.32L149.05,138.76L149.29,133.15L149.42,127.35L149.91,140.03L150.28,136.14L150.4,137.55L150.65,139.41L150.77,144.69L150.89,147.44L151.02,146.65L151.14,135.03L151.51,130.67L151.63,132.82L151.75,138.36L152,134.76L152.12,136.56L152.25,144.49L152.62,144.82L152.86,136.93L152.98,140.2L153.11,146.05L153.6,132.43L153.85,133.77L153.97,138L154.46,146.31L154.58,141.25L154.71,133.9L154.83,134.25L154.95,138.42L155.2,136.63L155.32,137.58L155.45,141.63L155.82,144.51L156.31,133.54L156.43,139.24L156.68,138.22L156.92,149.11L157.29,145.21L157.42,140.64L157.54,132.51L157.78,145.74L158.03,134.92L158.15,142.59L158.4,142.41L158.77,148.62L158.89,138.66L159.14,137L159.26,137.13L159.38,143.82L159.63,144.68L159.88,137.43L160,141.61L160.12,145.68L160.37,149.23L160.86,138.31L160.98,140.88L161.11,141.77L161.97,151.16L162.09,143.1L162.34,143.69L162.46,148.72L163.2,139.34L163.32,144.26L163.45,149.04L163.69,151.05L163.94,140.57L164.18,144.78L164.31,151.44L164.43,151.12L164.55,146.08L164.8,153.21L165.05,143.66L165.17,146.37L165.29,143.83L165.66,156.73L165.91,140.84L166.15,150L166.28,151.07L166.52,144.22L166.77,151.11L166.89,155.16L167.38,137.87L167.51,146.23L167.63,154.6L167.75,144.48L168,159.07L168.37,155.32L168.49,151.71L168.62,151.47L168.74,158.06L168.86,157.04L168.98,148.64L169.35,159.59L169.48,154.51L169.6,150.15L169.97,144.95L170.22,158.85L170.34,154.77L170.46,151.79L170.83,156.44L171.08,153.17L171.2,146.85L171.32,145.36L171.45,155.82L171.57,157.06L171.69,153.9L171.82,148.25L172.55,160.4L172.8,160.17L172.92,153.48L173.54,163.91L173.66,154.25L173.78,147.16L174.15,159L174.28,163.24L174.4,162.96L174.52,160.59L174.77,157.28L174.89,166.93L175.14,154.52L175.51,169.32L175.63,166L175.75,164.97L175.88,163.14L176.12,167.73L176.25,179.32L176.49,163.09L176.98,172.09L177.11,179.13L177.6,161.76L177.97,163.61L178.09,170.89L178.22,185.01L178.83,171.09L178.95,172.74L179.2,170.25L179.32,176.11L179.45,174.32L179.69,176.53L179.82,176.41L179.94,178.55L180.31,168.19L180.43,169.75L180.55,185.37L180.8,176.77L181.29,180.38L181.42,183.2L181.66,174.62L181.91,187.45L182.15,175.91L182.28,185.27L182.77,183.94L182.89,193.18L183.02,188.99L183.14,185.45L183.51,183L184,192.4L184.12,192.73L184.62,181.54L184.74,193.71L184.86,193.15L184.98,196.79L185.11,197.69L185.23,190.34L185.6,185.21L185.85,193.98L185.97,191.55L186.09,191.43L186.22,191.68L186.34,198.1L186.71,208.78L186.95,197.91L187.08,201.45L187.2,201.44L187.32,200.78L187.45,207.66L187.94,210.85L188.06,208.34L188.18,207.22L188.31,205.01L188.55,209.76L188.68,215.01L189.05,216.79L189.17,206.4L189.29,209.3L189.42,223.79L189.91,227.42L190.15,204.71L190.28,214.68L190.4,215.93L190.52,215.1L190.65,220.76L190.77,221.35L190.89,213.38L192,235.28L192.12,229.23L192.98,238.72L193.11,233.26L193.97,252.24L194.09,251.33L194.22,247.04L194.34,239.9L194.83,251.84L194.95,245.02L195.08,250.19L195.45,261.66L195.94,257.29L196.06,251.2L197.17,269.27L197.29,265.43L197.42,264.22L197.54,263.88L197.66,266.89L197.78,266.02L197.91,268.8L198.15,266.85L198.28,268.07L198.4,262.51L198.65,285.21L198.77,284L199.38,273.52L199.63,276.79L199.75,285.45L199.88,283.81L200,291.17L200.12,291.79L200.62,295.92L200.98,282.54L201.11,287.36L201.23,296.48L201.6,286.67L201.85,293.19L201.97,290.91L202.09,289.44L202.34,292.89L202.46,292.54L202.58,295.77L202.71,300.58L202.95,290.73L203.2,295.31L203.32,293.32L203.45,292L203.57,298.05L203.69,296.5L203.82,298.95L204.31,290.55L204.43,297.04L204.55,302.64L205.05,289.31L205.29,292.46L205.42,296L206.15,279.76L206.28,288.08L206.4,293.2L206.77,294.01L207.02,277.61L207.38,278.22L207.51,273.3L207.75,279.13L207.88,272.85L208.12,273.98L208.25,263.41L208.62,242.89L209.11,249.82L209.23,250.43L209.35,250.16L209.48,241.86L210.34,204.96L210.58,214.15L210.71,213.72L216.25,41.88L216.37,41.6L216.49,42.44L216.62,36.5L216.74,39.06L216.98,28.63L217.11,28.06L217.35,20.48L217.48,26.73L217.85,25.57L218.34,33.32L218.46,28.82L218.58,21.31L218.95,35.62L219.2,25.46L219.32,29.68L219.57,24.62L219.82,27.99L219.94,32.52L220.31,26.09L220.68,37.7L220.8,35.15L220.92,34.53L221.05,37.48L221.17,32.37L221.42,37.07L221.54,51.41L221.91,56.29L222.28,45.43L222.4,54.21L223.75,76.88L223.88,71.56L224.12,70.9L225.23,99.03L225.35,97.35L225.48,93.61L225.6,89.41L225.72,98.68L225.97,96.73L226.09,109.39L226.46,102.46L227.08,128.19L227.32,122.59L227.45,119.54L228.18,134.07L228.55,131.22L228.68,128.47L229.78,152.37L229.91,144.37L230.03,139.04L230.4,152.74L230.52,159.56L230.65,147.83L231.26,156.28L231.38,154.54L231.51,151.19L231.63,163.16L231.75,166.09L232,171.71L232.25,162.55L232.37,166.87L232.49,167.25L232.74,181.59L233.11,166.22L233.35,174.87L233.48,172.94L233.72,182.38L234.09,178.62L234.22,174.34L234.95,190.96L235.08,181.78L235.32,172.81L235.57,186.3L235.69,179.07L235.82,183.2L236.68,193.17L236.8,196.82L237.05,202.39L237.17,192.31L237.42,200.64L237.54,193.23L237.66,189.66L237.78,199.92L238.03,194.89L238.15,200.86L238.28,205.15L238.52,192.19L238.65,194.46L238.77,191.86L239.75,218.19L239.88,206.96L240,204.47L240.25,208.25L240.37,217.61L240.74,206.81L240.86,217.16L240.98,220.85L241.23,209.51L241.85,213.66L241.97,224.67L242.71,217.81L242.83,222.8L242.95,222.44L243.08,224.06L243.2,226.84L243.69,214.35L243.94,223.08L244.06,228.45L244.18,231.35L244.31,226.9L244.43,227.52L244.55,218.07L245.54,237.36L245.66,234.93L245.78,232.26L246.15,226.7L246.52,228.1L246.65,234.64L247.14,228.62L247.26,238.35L247.38,238.13L247.88,229.17L248,242.49L248.74,228.98L248.86,234.31L248.98,232.89L249.23,227.7L249.35,232.17L249.48,236.06L249.72,229.99L249.97,235.94L250.09,227.79L250.34,225.67L250.46,232.77L250.58,236.09L250.83,227.16L250.95,221.14L251.45,238.97L251.69,230.32L251.82,218.19L252.06,226.28L252.55,221.15L252.68,217.83L252.92,215L253.05,217.98L253.17,224.76L254.4,201.08L254.52,201.18L254.77,198.23L255.14,208L255.26,201.1L255.38,190.52L255.63,183.98L255.75,193.32L255.88,190.46L256,179.87L256.25,191.87L256.62,174.23L256.74,176.69L256.98,164.62L257.35,176.41L257.48,177.46L258.34,151.42L258.46,155.52L258.58,157.1L259.32,126.01L259.45,139.98L259.57,147.74L260.06,120.3L260.43,122.76L260.55,124.82L261.42,102.29L261.54,103.06L261.66,103.52L261.91,107.73L262.03,96.12L262.15,97.85L262.52,94.8L262.65,94.92L262.77,91.47L263.63,82.39L263.75,81.14L264.62,72.03L264.74,73.5L264.86,73.81L265.35,65.03L265.48,68.8L265.6,78.99L266.22,60.1L266.46,71.68L266.58,73.39L266.71,77.6L267.08,68.86L267.2,60.7L268.18,78.83L268.31,77.78L268.43,67.27L268.92,73.63L269.05,80.19L269.42,80.66L269.66,67.52L269.91,71.01L270.03,77.14L270.4,83.47L270.52,79.52L270.65,75.49L271.02,70.43L271.51,88.97L271.63,85.42L271.75,80.04L272,92.34L272.25,88L272.37,72.54L273.48,98.31L273.6,97.63L273.72,91.28L274.71,107.25L274.83,100.99L274.95,89.83L275.45,106.17L275.57,104.98L275.94,106.8L276.18,105.15L276.31,99.96L276.55,111.77L276.92,103.61L277.05,105.16L277.42,104.11L277.54,115.35L277.78,112.48L277.91,108.58L278.03,109.54L278.15,103.89L278.4,120.12L279.02,119.53L279.14,118.83L279.26,121.43L279.38,113.32L279.63,120.36L279.75,114.97L280.25,126.93L280.62,124.83L280.74,122.82L280.86,121.94L280.98,124.07L281.11,124.08L281.23,129.45L281.35,138.51L281.85,122.49L281.97,121.26L282.71,139.25L282.83,130.05L282.95,129.09L283.82,137.75L283.94,129.44L284.06,129.58L284.18,130.9L284.55,141.93L284.92,133.25L285.05,127.2L285.91,139.68L286.03,140.52L286.28,143.76L286.4,135.87L286.52,130.93L287.26,144.29L287.38,143.14L287.51,135.75L287.63,133.4L287.75,146.64L288.12,150.47L288.25,147.31L288.37,140.29L288.62,137.25L288.74,141.14L288.86,145.63L289.23,139.97L289.35,146.23L289.6,141.01L289.85,150.95L290.09,145.8L290.22,148.02L290.58,155.06L291.2,134.18L291.32,145.91L291.57,149.18L291.69,152.76L292.06,153.1L292.31,143.3L292.43,143.86L292.55,149.39L292.68,148.17L292.8,151.62L292.92,149.9L293.05,157.19L293.66,146.55L293.91,150.51L294.03,155.14L294.28,149.31L294.52,157.81L294.65,161.9L294.77,152.05L295.26,154.51L295.38,164.09L295.63,149.87L296.25,151.27L296.37,150.8L296.86,161.24L296.98,154.02L297.11,141.67L297.97,166.9L298.09,162L298.83,168.27L298.95,164.93L299.08,159.71L299.32,174.56L299.57,158.92L299.82,165.77L299.94,164.24L300.06,161.12L300.18,172.43L300.68,162.31L300.8,172.72L301.05,156.6L301.54,167.34L301.66,168.67L301.78,167.22L301.91,173.7L302.03,175.77L302.28,174.17L302.4,167.38L303.02,176.54L303.14,172.84L303.26,165.27L303.38,181.2L303.63,164.28L304,177.91L304.12,179.43L304.37,167.45L304.86,172.11L304.98,185.02L305.72,172.24L305.85,176.75L305.97,184.72L306.22,175.85L306.71,179.97L306.83,181.97L307.08,181.64L307.57,187.2L307.69,185.96L307.94,183.2L308.18,190.59L308.31,188.32L308.43,180.85L308.92,192.57L309.29,188.25L309.42,186.09L309.91,193.81L310.28,192.71L310.4,191.77L310.52,197.83L310.77,189.85L311.14,193.6L311.26,192.53L311.38,192L311.51,187.31L312.12,203.1L312.49,194.75L312.62,195.27L312.74,192.49L312.98,203.66L313.11,205.29L313.48,192.94L313.6,206.2L313.85,194.76L313.97,207.38L314.09,208.5L314.22,203.07L314.34,201L314.46,198.81L314.58,209.25L314.71,206.59L314.83,207.44L315.08,221.98L315.45,204.21L315.57,195.87L315.82,201.76L315.94,206.97L316.31,205.01L316.68,226.29L316.8,222.32L316.92,213.53L317.17,228.76L317.54,206.91L317.66,210.08L318.15,219.19L318.28,209.07L318.4,209.19L319.51,225.24L319.88,222.7L320,214.92L320.62,231.3L320.74,223.45L320.86,214.28L321.48,229.96L321.85,225.53L321.97,221.47L322.09,218.04L322.22,230.46L322.58,223.11L322.71,222.77L323.57,234.95L323.69,230.55L324.55,218.32L324.68,227.66L324.8,229.3L324.92,226.41L325.05,221.39L325.42,230.88L325.54,223.8L325.78,218.2L326.03,223.28L326.15,231.87L326.28,239.63L326.52,222.16L326.65,222.25L326.77,221.94L326.89,225.26L327.14,221.88L327.26,212.24L327.38,210.16L327.51,215.39L327.63,220.78L328.25,210.03L328.49,210.27L328.62,215.72L329.35,198.54L329.48,210.16L329.72,209.38L329.85,212.07L331.08,177.38L331.2,180.14L331.32,191.32L331.45,195.38L331.82,183.79L331.94,179.84L332.55,167.77L332.68,163.77L332.92,173.73L333.05,159.25L333.42,166.63L333.54,162.54L333.66,163.29L333.78,158.68L334.15,140.87L334.65,142.98L334.77,143.34L334.89,143.51L335.02,141.37L335.14,133.44L335.75,136.7L335.88,135.39L336.86,109.68L336.98,114.13L337.23,115.8L337.35,109.91L338.09,96.55L338.22,98.26L338.34,108.49L339.2,82.89L339.32,90.95L339.45,94.21L340.18,78.79L340.31,82.85L340.43,92.75L340.8,72.4L341.29,80.58L341.42,81.16L341.66,85.68L341.91,75.74L342.03,77.65L342.15,72.19L342.4,72.9L342.52,72.74L342.65,78.52L342.77,82.9L343.02,65.71L343.26,77.3L343.38,65.17L344.12,79.01L344.25,71.22L344.62,83.69L344.74,79.97L344.86,70.02L344.98,67.89L345.11,74.59L345.23,76.85L345.35,74.75L345.48,78.68L345.72,76.93L345.85,87L346.22,77.97L346.58,79.59L346.71,84.82L346.83,84.63L346.95,79.84L347.32,86.25L347.69,85.77L347.82,77.86L347.94,79.63L348.06,93.7L348.43,80.73L348.55,87.65L348.68,90.25L348.8,89.03L348.92,91.12L349.05,97.29L349.29,88.39L349.78,90.8L349.91,96.25L350.03,94.66L350.4,98.46L350.52,86.51L350.65,85.42L350.77,93.87L350.89,91.32L351.02,94.83L351.14,107.01L351.38,92.24L351.88,103.15L352,101.04L352.49,99.39L352.86,110.84L352.98,105.07L353.11,97.92L353.35,115.18L353.6,110.37L353.72,111.65L353.97,110.8L354.09,108.17L354.71,116.07L354.95,111.75L355.08,108.78L355.2,107.16L355.32,117.25L355.57,110.56L355.69,121.24L355.82,133.62L356.55,114.77L356.68,114.96L356.8,116.61L356.92,114.34L357.29,121.31L357.42,122.67L357.66,117.6L357.78,123.7L357.91,135.17L358.77,116.78L358.89,125.78L359.02,132.61L359.38,122.03L359.51,115.25L360,126.83L360.49,124.7L360.62,129.89L360.98,128.75L361.11,133.01L361.23,129.43L361.35,128.72L361.48,128.96L361.6,125.15L361.85,119.45L362.58,136.92L362.71,135.83L362.83,131.03L362.95,130.21L363.2,133.12L363.32,138.83L364.06,130.85L364.18,132.33L364.31,143.07L364.43,145.12L364.68,136.99L364.8,135.59L365.17,129.27L365.29,129.48L365.42,136.53L365.54,126.09L366.03,139.18L366.15,140.75L366.52,142.5L366.77,126.17L366.89,129.96L367.02,136.34L367.26,139.51L367.38,132.13L367.88,131.96L368.37,139.16L368.49,140.77L368.62,145.55L368.86,131.71L368.98,133.41L369.11,135.25L369.23,145.91L369.6,132.89L369.85,140.81L369.97,140.21L370.09,138.08L370.34,145.48L370.46,145.12L370.95,133.54L371.2,138.96L371.32,141.77L371.69,146.53L371.82,144.47L371.94,138.61L372.68,153.03L372.8,145.25L372.92,142.97L373.05,135L373.42,145.1L373.66,143.5L373.78,157.31L374.65,137.94L374.77,154.25L374.89,154.65L375.02,142.74L375.63,152.13L375.75,150.04L375.88,146.63L376,147.75L376.12,145.36L376.25,140.37L376.62,139.77L376.86,152.63L377.11,147.91L377.23,142.87L377.35,143L377.48,153.79L377.72,145.27L378.09,155.91L378.22,156.89L378.46,145.99L378.95,156.2L379.08,155.32L379.32,156.82L379.69,145.75L379.82,151.45L379.94,156.7L380.18,160.59L380.68,147.09L380.8,154.1L380.92,160.95L381.29,152.32L381.66,157.13L381.78,163.71L382.03,153.58L382.52,155.59L382.65,159.26L382.89,157.99L383.02,159.99L383.38,152.87L383.51,166.41L383.63,165.33L384.37,153L384.49,155.35L384.98,166.77L385.11,161.74L385.23,151.07L385.48,150.5L385.6,153.23L386.22,173.76L386.46,162.18L386.58,166.72L386.83,161.44L387.2,163.97L387.32,170.5L387.69,162.86L387.82,167.46L387.94,173.41L388.31,161.81L388.55,163.73L388.68,171.66L388.92,166.49L389.42,168.84L389.54,169.52L389.66,172.98L389.91,162.3L390.03,170.89L390.15,165.04L390.89,181.99L391.02,172.28L391.14,169.62L391.38,180.49L391.63,167.85L391.75,172.01L391.88,167.1L392.37,172.74L392.49,179.55L392.62,189.78L392.86,170.91L393.11,185.05L393.23,175.05L393.6,187.12L393.97,183.83L394.09,177.02L394.22,177.16L394.34,175.94L394.46,174.76L394.58,184.83L394.83,181.27L394.95,186.37L395.08,182.35L395.57,191.54L395.69,191.35L395.82,183.5L396.43,193.2L396.55,187.21L396.68,186.75L396.8,185.74L396.92,190.91L397.05,196.89L397.17,196.56L397.29,198.79L397.54,186.31L397.66,190.52L397.78,201.75L397.91,205.75L398.28,194.71L398.4,197.56L398.52,192.93L398.77,200.04L398.89,199.96L399.02,204.41L399.26,194.14L399.75,197.71L399.88,199.17L400,197.96L400.12,203.78L400.25,206.88L400.49,202.14L400.62,211.58L400.74,214L401.48,202.47L401.6,208.91L401.85,217.94L402.09,205.99L402.34,212.16L402.46,212.42L402.95,210.77L403.32,222.55L403.45,214.34L403.57,213.25L403.69,216.74L403.82,219.82L404.06,226.07L404.43,220.47L404.55,215.9L405.05,232.23L405.29,223.05L405.42,221.14L405.78,238.23L406.03,229.74L406.15,230.15L406.28,226.53L406.77,233.53L406.89,231.18L407.26,246.44L407.51,236.22L407.63,232.06L407.88,229.2L408,234.58L408.12,240.55L408.25,253.15L408.86,246.61L408.98,242.85L409.23,244.87L409.35,240.75L409.72,238.57L410.09,253.93L410.22,244.29L410.34,242.53L410.46,254.93L411.08,242.04L411.32,248.2L411.45,253.59L411.69,250.94L411.82,257.36L412.43,246.97L412.55,248.93L412.68,257.03L412.8,256.65L412.92,253.38L413.17,257.87L413.29,254.32L413.42,250.6L413.54,248.48L413.66,248.74L413.78,257.63L414.03,241.55L414.52,250.34L414.65,252.39L415.02,245.1L415.38,249.67L415.51,249.09L415.88,254.31L416.12,246.9L416.25,249.41L416.37,249.65L416.62,245.37L416.86,251.03L416.98,255.75L417.6,233.62L417.97,239.28L418.09,243L419.2,217.33L419.32,225.76L419.45,230.09L419.57,217.57L419.69,209.7L420.55,198.34L420.68,199.13L420.8,201.74L422.03,168.17L422.15,169.7L422.28,169.04L423.02,147.43L423.38,147.46L423.51,148.66L424.25,120.08L424.37,130.66L424.49,133.65L425.6,97.76L425.72,105.18L426.46,74.18L426.71,87.69L426.83,80.57L427.45,83.2L427.69,74.72L427.82,74.71L427.94,77.46L428.18,68.11L428.31,71.19L428.43,65.7L429.05,54.3L429.17,58.28L429.29,66.73L429.42,68.07L429.54,66.35L429.66,50.23L429.78,49.73L429.91,58.68L430.28,49.9L430.52,56.44L430.65,61.83L430.89,48.83L431.38,54.42L431.51,58.35L431.75,61.83L431.88,57.48L432,50.02L432.86,63.67L432.98,60.92L433.11,52.86L433.48,66.66L433.6,63.69L433.72,65.32L433.85,64.98L433.97,69.23L434.09,69.13L434.22,73.48L434.46,66.89L434.83,80.45L435.08,76.2L435.2,69.11L435.32,68.65L435.45,76.03L435.69,73.95L435.82,69.64L436.55,88.85L436.8,82.6L436.92,84.28L437.54,102.1L437.78,98.44L437.91,87.67L438.03,78.97L438.28,100.86L438.4,98.71L438.52,100.28L438.65,99.79L438.77,104.48L439.02,102.61L439.38,113.35L439.51,107.87L439.63,107.1L439.88,121.4L440.37,115.61L440.49,114.4L440.74,114.74L440.98,113.03L441.11,118.73L441.23,119.77L441.35,115.62L441.6,117.96L441.72,111.82L442.34,131.41L442.83,125.54L442.95,122.15L443.69,136.63L443.82,124.72L444.06,130.84L444.18,136.01L444.31,130.98L444.55,137.97L444.8,133.93L444.92,140.46L445.05,140.61L445.17,146.84L445.29,149.68L445.42,136.11L445.54,133.27L445.78,129.79L446.4,151.51L446.52,148.11L446.65,138.85L446.77,139L446.89,146.35L447.26,138.81L447.51,143.97L447.63,150.78L447.75,154.16L447.88,142.87L448,145.81L448.12,140.05L448.25,137.81L448.37,152.18L448.62,149.69L448.74,153.35L448.86,157.09L448.98,155.47L449.11,161.17L449.23,158.08L449.35,141.42L449.6,141.75L449.72,149.68L450.22,149.46L450.46,164.57L450.58,153.81L450.71,155.69L450.83,164.97L451.08,144.05L451.45,164.42L451.57,155.71L452.43,163.43L452.55,155.49L453.91,175.11L454.03,165.43L454.4,168.96L454.77,160.67L454.89,169.15L455.14,164.86L455.26,174.13L455.38,174.58L455.51,170.08L455.75,183.44L455.88,169.18L456,161.47L456.25,175.09L456.62,168.22L456.74,170.88L457.23,177.17L457.6,176.46L457.72,178.2L457.85,178.58L457.97,174.18L458.22,184.73L458.34,183.47L458.46,177.62L458.58,169.77L459.08,182.02L459.2,175.85L459.32,172.77L460.06,187.87L460.18,184.59L460.31,179.11L460.8,196.67L461.17,185.4L461.29,187.26L462.03,197.3L462.28,192.54L462.4,193.66L463.02,185.44L463.14,189.14L463.26,191.31L463.51,203.76L464.12,202.93L464.25,194.39L464.74,202.48L464.86,201.14L464.98,192.44L465.11,190.73L465.23,199.99L465.48,205.25L465.97,200.62L466.09,201.85L466.22,196.3L466.46,208.14L466.71,201.94L466.83,212.7L466.95,213.37L467.08,208.88L467.32,216.82L467.57,205.38L467.82,212.68L467.94,204.81L468.06,201.74L468.31,210.2L468.43,219.03L468.68,200.53L469.29,204.93L469.42,210.95L469.54,207.83L469.78,218.52L470.03,209.33L470.15,215.17L470.4,210.63L470.65,219.73L470.77,215.31L470.89,213.32L471.02,219.46L471.26,209.02L471.63,215.47L471.75,215.63L471.88,215.82L472,221.12L472.12,221.4L472.25,216.71L472.37,226.62L472.98,218.33L473.11,217.03L473.23,228.59L473.6,214.35L473.85,224.21L473.97,218.6L474.34,228.6L474.71,212.81L474.83,221.49L475.2,223.02L475.32,218.15L475.45,229.87L475.57,229.19L475.69,220.11L476.06,225.12L476.18,216.89L476.31,216.37L476.55,222.72L477.05,220.48L477.17,219.45L477.29,219.73L477.42,214.34L477.66,210.68L477.91,216.65L478.03,223.89L478.89,203.92L479.02,209.18L479.14,215.38L479.26,215.71L479.38,204.26L479.51,194.4L479.75,211.01L480.12,203.81L480.25,208.43L480.37,214.97L480.74,198.98L480.86,201.34L480.98,200.07L481.48,189.94L481.6,194.18L481.72,200.76L482.95,173.15L483.08,175.95L483.57,164.76L483.69,175.69L483.82,175.96L483.94,173.82L484.06,179.02L484.31,160.82L484.43,159.62L484.68,166.46L485.05,163.07L485.17,155.22L485.42,156.45L485.54,150.56L485.66,155.08L485.78,155.92L485.91,135.24L486.03,126.27L486.28,147.83L486.52,142.37L486.65,147.02L488,123.1L488.12,123L488.25,126.43L488.62,117.46L488.74,110.06L488.98,125.56L489.35,101.48L489.48,106.9L490.46,86.83L490.58,98.42L491.08,100.18L491.2,91.75L491.32,95.69L491.45,101.28L492.31,78.36L492.43,88.23L492.55,91.13L492.8,83.95L492.92,81.37L493.17,84.61L493.29,82.29L493.42,76.13L493.54,75.93L493.66,77.77L494.03,75.03L494.4,87.6L494.52,85.25L494.65,84.3L495.14,72.16L495.51,79.6L495.63,82.1L495.75,76.12L496.25,88.21L496.37,80.82L496.49,83.06L496.62,86.47L496.74,74.81L496.86,71.62L497.11,82.74L497.23,93.74L497.6,76.1L497.72,86.4L497.85,93.34L498.34,77.27L498.58,93.04L498.71,87.35L499.08,90.76L499.2,89.86L499.32,82.01L500.31,100.41L500.43,91.54L500.55,88.45L500.68,81.78L501.17,91.55L501.29,97.12L501.66,101.46L501.78,95.65L501.91,90.83L502.52,104.35L502.65,99.75L502.77,95.72L503.14,104.74L503.51,95.58L503.63,92.54L503.75,90.83L503.88,101.98L504,104.95" style="vector-effect: non-scaling-stroke; fill: none; stroke: rgb(239, 85, 59); stroke-opacity: 1; stroke-width: 2px; opacity: 1;"/></g><g class="points"/><g class="text"/></g></g></g><g class="overplot"/><path class="xlines-above crisp" d="M0,0" style="fill: none;"/><path class="ylines-above crisp" d="M0,0" style="fill: none;"/><g class="overlines-above"/><g class="xaxislayer-above"><g class="xtick"><text text-anchor="middle" x="0" y="433" transform="translate(80,0)" style="font-family: 'Open Sans', verdana, arial, sans-serif; font-size: 12px; fill: rgb(42, 63, 95); fill-opacity: 1; white-space: pre; opacity: 1;">0</text></g><g class="xtick"><text text-anchor="middle" x="0" y="433" style="font-family: 'Open Sans', verdana, arial, sans-serif; font-size: 12px; fill: rgb(42, 63, 95); fill-opacity: 1; white-space: pre; opacity: 1;" transform="translate(203.07999999999998,0)">1000</text></g><g class="xtick"><text text-anchor="middle" x="0" y="433" style="font-family: 'Open Sans', verdana, arial, sans-serif; font-size: 12px; fill: rgb(42, 63, 95); fill-opacity: 1; white-space: pre; opacity: 1;" transform="translate(326.15,0)">2000</text></g><g class="xtick"><text text-anchor="middle" x="0" y="433" style="font-family: 'Open Sans', verdana, arial, sans-serif; font-size: 12px; fill: rgb(42, 63, 95); fill-opacity: 1; white-space: pre; opacity: 1;" transform="translate(449.23,0)">3000</text></g><g class="xtick"><text text-anchor="middle" x="0" y="433" style="font-family: 'Open Sans', verdana, arial, sans-serif; font-size: 12px; fill: rgb(42, 63, 95); fill-opacity: 1; white-space: pre; opacity: 1;" transform="translate(572.31,0)">4000</text></g></g><g class="yaxislayer-above"><g class="ytick"><text text-anchor="end" x="79" y="4.199999999999999" transform="translate(0,395.88)" style="font-family: 'Open Sans', verdana, arial, sans-serif; font-size: 12px; fill: rgb(42, 63, 95); fill-opacity: 1; white-space: pre; opacity: 1;">15</text></g><g class="ytick"><text text-anchor="end" x="79" y="4.199999999999999" style="font-family: 'Open Sans', verdana, arial, sans-serif; font-size: 12px; fill: rgb(42, 63, 95); fill-opacity: 1; white-space: pre; opacity: 1;" transform="translate(0,341.28)">10</text></g><g class="ytick"><text text-anchor="end" x="79" y="4.199999999999999" style="font-family: 'Open Sans', verdana, arial, sans-serif; font-size: 12px; fill: rgb(42, 63, 95); fill-opacity: 1; white-space: pre; opacity: 1;" transform="translate(0,286.69)">5</text></g><g class="ytick"><text text-anchor="end" x="79" y="4.199999999999999" style="font-family: 'Open Sans', verdana, arial, sans-serif; font-size: 12px; fill: rgb(42, 63, 95); fill-opacity: 1; white-space: pre; opacity: 1;" transform="translate(0,232.09)">0</text></g><g class="ytick"><text text-anchor="end" x="79" y="4.199999999999999" style="font-family: 'Open Sans', verdana, arial, sans-serif; font-size: 12px; fill: rgb(42, 63, 95); fill-opacity: 1; white-space: pre; opacity: 1;" transform="translate(0,177.49)">5</text></g><g class="ytick"><text text-anchor="end" x="79" y="4.199999999999999" style="font-family: 'Open Sans', verdana, arial, sans-serif; font-size: 12px; fill: rgb(42, 63, 95); fill-opacity: 1; white-space: pre; opacity: 1;" transform="translate(0,122.89)">10</text></g></g><g class="overaxes-above"/></g></g><g class="polarlayer"/><g class="smithlayer"/><g class="ternarylayer"/><g class="geolayer"/><g class="funnelarealayer"/><g class="pielayer"/><g class="iciclelayer"/><g class="treemaplayer"/><g class="sunburstlayer"/><g class="glimages"/><defs id="topdefs-ec451c"><g class="clips"/><clipPath id="legendec451c"><rect width="94" height="48" x="0" y="0"/></clipPath></defs><g class="layer-above"><g class="imagelayer"/><g class="shapelayer"/></g><g class="infolayer"><g class="legend" pointer-events="all" transform="translate(594.08,100)"><rect class="bg" shape-rendering="crispEdges" style="stroke: rgb(68, 68, 68); stroke-opacity: 1; fill: rgb(255, 255, 255); fill-opacity: 1; stroke-width: 0px;" width="94" height="48" x="0" y="0"/><g class="scrollbox" transform="" clip-path="url(#legendec451c)"><g class="groups"><g class="traces" transform="translate(0,14.5)" style="opacity: 1;"><text class="legendtext" text-anchor="start" x="40" y="4.680000000000001" style="font-family: 'Open Sans', verdana, arial, sans-serif; font-size: 12px; fill: rgb(42, 63, 95); fill-opacity: 1; white-space: pre;">Stimulus</text><g class="layers" style="opacity: 1;"><g class="legendfill"/><g class="legendlines"><path class="js-line" d="M5,0h30" style="fill: none; stroke: rgb(99, 110, 250); stroke-opacity: 1; stroke-width: 2px;"/></g><g class="legendsymbols"><g class="legendpoints"/></g></g><rect class="legendtoggle" x="0" y="-9.5" width="88.796875" height="19" style="fill: rgb(0, 0, 0); fill-opacity: 0;"/></g><g class="traces" transform="translate(0,33.5)" style="opacity: 1;"><text class="legendtext" text-anchor="start" x="40" y="4.680000000000001" style="font-family: 'Open Sans', verdana, arial, sans-serif; font-size: 12px; fill: rgb(42, 63, 95); fill-opacity: 1; white-space: pre;">Percept</text><g class="layers" style="opacity: 1;"><g class="legendfill"/><g class="legendlines"><path class="js-line" d="M5,0h30" style="fill: none; stroke: rgb(239, 85, 59); stroke-opacity: 1; stroke-width: 2px;"/></g><g class="legendsymbols"><g class="legendpoints"/></g></g><rect class="legendtoggle" x="0" y="-9.5" width="88.796875" height="19" style="fill: rgb(0, 0, 0); fill-opacity: 0;"/></g></g></g><rect class="scrollbar" rx="20" ry="3" width="0" height="0" style="fill: rgb(128, 139, 164); fill-opacity: 1;" x="0" y="0"/></g><g class="g-gtitle"/><g class="g-xtitle"/><g class="g-ytitle"/></g></svg>