<svg class="main-svg" xmlns="http://www.w3.org/2000/svg" xmlns:xlink="http://www.w3.org/1999/xlink" width="600" height="600" style="" viewBox="0 0 600 600"><rect x="0" y="0" width="600" height="600" style="fill: rgb(255, 255, 255); fill-opacity: 1;"/><defs id="defs-610331"><g class="clips"><clipPath id="clip610331xyplot" class="plotclip"><rect width="440" height="93.33333333333333"/></clipPath><clipPath id="clip610331x2y2plot" class="plotclip"><rect width="440" height="93.33333333333336"/></clipPath><clipPath id="clip610331x3y3plot" class="plotclip"><rect width="440" height="93.33333333333334"/></clipPath><clipPath class="axesclip" id="clip610331x"><rect x="80" y="0" width="440" height="600"/></clipPath><clipPath class="axesclip" id="clip610331y"><rect x="0" y="100" width="600" height="93.33333333333333"/></clipPath><clipPath class="axesclip" id="clip610331xy"><rect x="80" y="100" width="440" height="93.33333333333333"/></clipPath><clipPath class="axesclip" id="clip610331y2"><rect x="0" y="263.3333333333333" width="600" height="93.33333333333336"/></clipPath><clipPath class="axesclip" id="clip610331xy2"><rect x="80" y="263.3333333333333" width="440" height="93.33333333333336"/></clipPath><clipPath class="axesclip" id="clip610331y3"><rect x="0" y="426.6666666666667" width="600" height="93.33333333333334"/></clipPath><clipPath class="axesclip" id="clip610331xy3"><rect x="80" y="426.6666666666667" width="440" height="93.33333333333334"/></clipPath><clipPath class="axesclip" id="clip610331x2"><rect x="80" y="0" width="440" height="600"/></clipPath><clipPath class="axesclip" id="clip610331x2y"><rect x="80" y="100" width="440" height="93.33333333333333"/></clipPath><clipPath class="axesclip" id="clip610331x2y2"><rect x="80" y="263.3333333333333" width="440" height="93.33333333333336"/></clipPath><clipPath class="axesclip" id="clip610331x2y3"><rect x="80" y="426.6666666666667" width="440" height="93.33333333333334"/></clipPath><clipPath class="axesclip" id="clip610331x3"><rect x="80" y="0" width="440" height="600"/></clipPath><clipPath class="axesclip" id="clip610331x3y"><rect x="80" y="100" width="440" height="93.33333333333333"/></clipPath><clipPath class="axesclip" id="clip610331x3y2"><rect x="80" y="263.3333333333333" width="440" height="93.33333333333336"/></clipPath><clipPath class="axesclip" id="clip610331x3y3"><rect x="80" y="426.6666666666667" width="440" height="93.33333333333334"/></clipPath></g><g class="gradients"/><g class="patterns"/></defs><g class="bglayer"/><g class="layer-below"><g class="imagelayer"/><g class="shapelayer"/></g><g class="cartesianlayer"><g class="subplot xy"><g class="layer-subplot"><g class="shapelayer"/><g class="imagelayer"/></g><g class="gridlayer"><g class="x"/><g class="y"/></g><g class="zerolinelayer"/><path class="xlines-below"/><path class="ylines-below"/><g class="overlines-below"/><g class="xaxislayer-below"/><g class="yaxislayer-below"/><g class="overaxes-below"/><g class="plot" transform="translate(80,100)" clip-path="url(#clip610331xyplot)"><g class="scatterlayer mlayer"><g class="trace scatter trace96fd00" style="stroke-miterlimit: 2; opacity: 1;"><g class="fills"/><g class="errorbars"/><g class="lines"><path class="js-line" d="M0,37.73L4.73,50.21L5.16,51.07L9.03,57.18L9.46,57.64L12.04,59.52L12.47,59.64L14.62,59.11L15.05,58.75L16.77,55.81L17.2,54.61L18.92,47L19.35,44.27L21.94,20.09L22.37,15.42L24.09,2.54L24.52,2.16L25.38,5.45L25.81,8.79L30.54,48.69L30.97,50.56L34.41,60.99L34.84,62.06L43.44,81.68L43.87,81.73L44.73,80.73L45.16,79.67L46.88,71.75L47.31,69.2L50.32,55.03L50.75,54.11L52.47,52.89L52.9,53.07L55.05,55.47L55.48,56.16L59.78,64.24L60.22,65.17L64.09,74.65L64.52,75.89L68.82,86.65L69.25,86.55L70.11,84.79L70.54,82.96L72.69,66.75L73.12,63.08L75.27,50.67L75.7,49.55L76.99,48.12L77.42,48.14L79.14,49.49L79.57,50.05L86.02,57.4L86.45,57.58L88.17,57.58L88.6,57.35L90.32,55.3L90.75,54.43L92.47,48.46L92.9,46.29L95.05,30.34L95.48,26.22L98.06,5.07L98.49,4.27L98.92,4.67L99.35,6.24L101.08,20.43L101.51,24.64L104.52,46.39L104.95,48.33L107.96,57.86L108.39,58.92L116.56,79.7L116.99,80.85L119.14,84.28L119.57,84.11L120.43,82.48L120.86,80.87L123.01,67.19L123.44,64.08L125.59,53.22L126.02,52.13L127.31,50.67L127.74,50.65L129.03,51.46L129.46,51.91L134.19,59.28L134.62,60.01L143.23,75.81L143.66,76.99L149.25,93.12L149.68,92.45L150.54,88.35L150.97,84.76L155.27,43.93L155.7,42.85L156.99,41.64L157.42,41.72L159.57,43.19L160,43.56L162.58,45.12L163.01,45.15L164.73,44.36L165.16,43.83L166.88,40.53L167.31,39.28L170.32,27.1L170.75,25.12L172.9,17.82L173.33,17.32L174.19,17.61L174.62,18.38L176.34,24.36L176.77,26.27L180.65,41.15L181.08,42.25L183.66,46.67L184.09,47.07L186.24,47.71L186.67,47.5L188.39,45.44L188.82,44.57L190.97,37.57L191.4,35.62L196.13,14.31L196.56,14.4L197.42,16.05L197.85,17.63L204.3,46.13L204.73,47.12L207.31,51.31L207.74,51.74L209.89,52.69L210.32,52.6L211.61,51.69L212.04,51.1L213.76,47L214.19,45.47L216.34,34.03L216.77,30.99L220.22,9.66L220.65,9.4L221.51,11.47L221.94,13.58L227.96,48.41L228.39,49.69L232.26,58.07L232.69,58.79L238.71,66.88L239.14,67.39L245.59,75.92L246.02,76.73L248.6,83.25L249.03,84.69L252.9,97.9L253.33,97.6L253.76,96.27L255.05,84.53L255.48,78.35L258.49,41.78L258.92,39.94L260.65,37.22L261.08,37.17L264.09,38.54L264.52,38.7L266.67,39.03L267.1,38.9L269.25,37.03L269.68,36.44L272.26,31.29L272.69,30.26L276.13,23.82L276.56,23.6L277.85,23.95L278.28,24.45L280.43,28.74L280.86,29.76L285.16,38.27L285.59,38.73L287.74,39.93L288.17,39.9L289.89,38.79L290.32,38.28L292.9,32.89L293.33,31.74L297.2,22.51L297.63,22.17L298.92,22.59L299.35,23.17L301.51,28.42L301.94,29.67L305.81,39.04L306.24,39.7L308.39,41.57L308.82,41.64L310.54,41.02L310.97,40.6L313.12,36.87L313.55,35.81L319.14,20.55L319.57,20.51L320.86,22.1L321.29,23.11L328.17,41.97L328.6,42.5L330.75,43.68L331.18,43.61L332.9,42.26L333.33,41.61L335.48,36.35L335.91,34.9L340.65,18.59L341.08,18.34L341.94,18.9L342.37,19.72L344.52,27.36L344.95,29.19L348.82,41.95L349.25,42.85L351.83,46.22L352.26,46.45L353.98,46.33L354.41,46L356.13,43.4L356.56,42.4L358.71,34.76L359.14,32.74L363.01,16.12L363.44,15.71L364.3,16.34L364.73,17.34L366.88,26.83L367.31,29.05L370.75,42.9L371.18,44.07L373.76,48.85L374.19,49.32L376.34,50.45L376.77,50.39L378.49,48.97L378.92,48.22L380.65,43.7L381.08,42.01L383.66,27.46L384.09,24.55L386.67,11.93L387.1,11.74L387.96,13.47L388.39,15.24L394.84,47.91L395.27,49.06L398.28,54.96L398.71,55.53L401.72,58.11L402.15,58.26L403.87,58.01L404.3,57.71L406.02,55L406.45,53.88L408.17,46.92L408.6,44.46L410.75,26.63L411.18,22.18L413.33,4.54L413.76,3.63L414.19,3.93L414.62,5.5L416.34,20.13L416.77,24.49L419.78,46.8L420.22,48.79L423.23,58.52L423.66,59.58L433.55,83.04L433.98,83L434.84,81.75L435.27,80.48L436.99,71.44L437.42,68.57L440,54.68" style="vector-effect: non-scaling-stroke; fill: none; stroke: rgb(68, 170, 153); stroke-opacity: 1; stroke-width: 2px; opacity: 1;"/></g><g class="points"/><g class="text"/></g><g class="trace scatter tracecec9c5" style="stroke-miterlimit: 2; opacity: 1;"><g class="fills"/><g class="errorbars"/><g class="lines"><path class="js-line" d="M0,37.73L4.73,50.21L5.16,51.07L9.03,57.18L9.46,57.64L12.04,59.52L12.47,59.64L14.62,59.11L15.05,58.75L16.77,55.81L17.2,54.61L18.92,47L19.35,44.27L21.94,20.09L22.37,15.42L24.09,2.54L24.52,2.16L25.38,5.45L25.81,8.79L30.54,48.69L30.97,50.56L34.41,60.99L34.84,62.06L43.44,81.68L43.87,81.73L44.73,80.73L45.16,79.67L46.88,71.75L47.31,69.2L50.32,55.03L50.75,54.11L52.47,52.89L52.9,53.07L55.05,55.47L55.48,56.16L59.78,64.24L60.22,65.17L64.09,74.65L64.52,75.89L68.82,86.65L69.25,86.55L70.11,84.79L70.54,82.96L72.69,66.75L73.12,63.08L75.27,50.67L75.7,49.55L76.99,48.12L77.42,48.14L79.14,49.49L79.57,50.05L86.02,57.4L86.45,57.58L88.17,57.58L88.6,57.35L90.32,55.3L90.75,54.43L92.47,48.46L92.9,46.29L95.05,30.34L95.48,26.22L98.06,5.07L98.49,4.27L98.92,4.67L99.35,6.24L101.08,20.43L101.51,24.64L104.52,46.39L104.95,48.33L107.96,57.86L108.39,58.92L116.56,79.7L116.99,80.85L119.14,84.28L119.57,84.11L120.43,82.48L120.86,80.87L123.01,67.19L123.44,64.08L125.59,53.22L126.02,52.13L127.31,50.67L127.74,50.65L129.03,51.46L129.46,51.91L134.19,59.28L134.62,60.01L143.23,75.81L143.66,76.99L149.25,93.12L149.68,92.45L150.54,88.35L150.97,84.76L155.27,43.93L155.7,42.85L156.99,41.64L157.42,41.72L159.57,43.19L160,43.56L162.58,45.12L163.01,45.15L164.73,44.36L165.16,43.83L166.88,40.53L167.31,39.28L170.32,27.1L170.75,25.12L172.9,17.82L173.33,17.32L174.19,17.61L174.62,18.38L176.34,24.36L176.77,26.27L180.65,41.15L181.08,42.25L183.66,46.67L184.09,47.07L186.24,47.71L186.67,47.5L188.39,45.44L188.82,44.57L190.97,37.57L191.4,35.62L196.13,14.31L196.56,14.4L197.42,16.05L197.85,17.63L204.3,46.13L204.73,47.12L207.31,51.31L207.74,51.74L209.89,52.69L210.32,52.6L211.61,51.69L212.04,51.1L213.76,47L214.19,45.47L216.34,34.03L216.77,30.99L220.22,9.66L220.65,9.4L221.51,11.47L221.94,13.58L227.96,48.41L228.39,49.69L232.26,58.07L232.69,58.79L238.71,66.88L239.14,67.39L245.59,75.92L246.02,76.73L248.6,83.25L249.03,84.69L252.9,97.9L253.33,97.6L253.76,96.27L255.05,84.53L255.48,78.35L258.49,41.78L258.92,39.94L260.65,37.22L261.08,37.17L264.09,38.54L264.52,38.7L266.67,39.03L267.1,38.9L269.25,37.03L269.68,36.44L272.26,31.29L272.69,30.26L276.13,23.82L276.56,23.6L277.85,23.95L278.28,24.45L280.43,28.74L280.86,29.76L285.16,38.27L285.59,38.73L287.74,39.93L288.17,39.9L289.89,38.79L290.32,38.28L292.9,32.89L293.33,31.74L297.2,22.51L297.63,22.17L298.92,22.59L299.35,23.17L301.51,28.42L301.94,29.67L305.81,39.04L306.24,39.7L308.39,41.57L308.82,41.64L310.54,41.02L310.97,40.6L313.12,36.87L313.55,35.81L319.14,20.55L319.57,20.51L320.86,22.1L321.29,23.11L328.17,41.97L328.6,42.5L330.75,43.68L331.18,43.61L332.9,42.26L333.33,41.61L335.48,36.35L335.91,34.9L340.65,18.59L341.08,18.34L341.94,18.9L342.37,19.72L344.52,27.36L344.95,29.19L348.82,41.95L349.25,42.85L351.83,46.22L352.26,46.45L353.98,46.33L354.41,46L356.13,43.4L356.56,42.4L358.71,34.76L359.14,32.74L363.01,16.12L363.44,15.71L364.3,16.34L364.73,17.34L366.88,26.83L367.31,29.05L370.75,42.9L371.18,44.07L373.76,48.85L374.19,49.32L376.34,50.45L376.77,50.39L378.49,48.97L378.92,48.22L380.65,43.7L381.08,42.01L383.66,27.46L384.09,24.55L386.67,11.93L387.1,11.74L387.96,13.47L388.39,15.24L394.84,47.91L395.27,49.06L398.28,54.96L398.71,55.53L401.72,58.11L402.15,58.26L403.87,58.01L404.3,57.71L406.02,55L406.45,53.88L408.17,46.92L408.6,44.46L410.75,26.63L411.18,22.18L413.33,4.54L413.76,3.63L414.19,3.93L414.62,5.5L416.34,20.13L416.77,24.49L419.78,46.8L420.22,48.79L423.23,58.52L423.66,59.58L433.55,83.04L433.98,83L434.84,81.75L435.27,80.48L436.99,71.44L437.42,68.57L440,54.68" style="vector-effect: non-scaling-stroke; fill: none; stroke: rgb(0, 0, 0); stroke-opacity: 1; stroke-width: 1px; opacity: 1; stroke-dasharray: 9px, 9px;"/></g><g class="points"/><g class="text"/></g></g></g><g class="overplot"/><path class="xlines-above crisp" d="M79,193.83333333333331H520" style="fill: none; stroke-width: 1px; stroke: rgb(36, 36, 36); stroke-opacity: 1;"/><path class="ylines-above crisp" d="M79.5,100V193.33333333333331" style="fill: none; stroke-width: 1px; stroke: rgb(36, 36, 36); stroke-opacity: 1;"/><g class="overlines-above"/><g class="xaxislayer-above"><path class="xtick ticks crisp" d="M0,194.33333333333331v5" transform="translate(80,0)" style="stroke: rgb(68, 68, 68); stroke-opacity: 1; stroke-width: 1px;"/><path class="xtick ticks crisp" d="M0,194.33333333333331v5" transform="translate(190.11,0)" style="stroke: rgb(68, 68, 68); stroke-opacity: 1; stroke-width: 1px;"/><path class="xtick ticks crisp" d="M0,194.33333333333331v5" transform="translate(300.22,0)" style="stroke: rgb(68, 68, 68); stroke-opacity: 1; stroke-width: 1px;"/><path class="xtick ticks crisp" d="M0,194.33333333333331v5" transform="translate(410.32,0)" style="stroke: rgb(68, 68, 68); stroke-opacity: 1; stroke-width: 1px;"/></g><g class="yaxislayer-above"><path class="ytick ticks crisp" d="M79,0h-5" transform="translate(0,180)" style="stroke: rgb(68, 68, 68); stroke-opacity: 1; stroke-width: 1px;"/><path class="ytick ticks crisp" d="M79,0h-5" transform="translate(0,153.32999999999998)" style="stroke: rgb(68, 68, 68); stroke-opacity: 1; stroke-width: 1px;"/><path class="ytick ticks crisp" d="M79,0h-5" transform="translate(0,126.67)" style="stroke: rgb(68, 68, 68); stroke-opacity: 1; stroke-width: 1px;"/><path class="ytick ticks crisp" d="M79,0h-5" transform="translate(0,100)" style="stroke: rgb(68, 68, 68); stroke-opacity: 1; stroke-width: 1px;"/><g class="ytick"><text text-anchor="end" x="71.6" y="4.199999999999999" transform="translate(0,180)" style="font-family: 'Open Sans', verdana, arial, sans-serif; font-size: 12px; fill: rgb(36, 36, 36); fill-opacity: 1; white-space: pre; opacity: 1;">0</text></g><g class="ytick"><text text-anchor="end" x="71.6" y="4.199999999999999" style="font-family: 'Open Sans', verdana, arial, sans-serif; font-size: 12px; fill: rgb(36, 36, 36); fill-opacity: 1; white-space: pre; opacity: 1;" transform="translate(0,153.32999999999998)">20</text></g><g class="ytick"><text text-anchor="end" x="71.6" y="4.199999999999999" style="font-family: 'Open Sans', verdana, arial, sans-serif; font-size: 12px; fill: rgb(36, 36, 36); fill-opacity: 1; white-space: pre; opacity: 1;" transform="translate(0,126.67)">40</text></g><g class="ytick"><text text-anchor="end" x="71.6" y="4.199999999999999" style="font-family: 'Open Sans', verdana, arial, sans-serif; font-size: 12px; fill: rgb(36, 36, 36); fill-opacity: 1; white-space: pre; opacity: 1;" transform="translate(0,100)">60</text></g></g><g class="overaxes-above"/></g><g class="subplot x2y2"><g class="layer-subplot"><g class="shapelayer"/><g class="imagelayer"/></g><g class="gridlayer"><g class="x2"/><g class="y2"/></g><g class="zerolinelayer"/><path class="xlines-below"/><path class="ylines-below"/><g class="overlines-below"/><g class="xaxislayer-below"/><g class="yaxislayer-below"/><g class="overaxes-below"/><g class="plot" transform="translate(80,263.3333333333333)" clip-path="url(#clip610331x2y2plot)"><g class="scatterlayer mlayer"><g class="trace scatter tracea7e94a" style="stroke-miterlimit: 2; opacity: 1;"><g class="fills"/><g class="errorbars"/><g class="lines"><path class="js-line" d="M0,60.67L0.43,56.29L0.86,58.62L1.29,58.93L8.61,61.02L9.04,61.04L13.35,60.19L13.78,59.96L17.22,57.14L17.65,56.5L20.23,51.44L20.67,49.94L24.11,41.18L24.54,40.89L26.69,46.29L27.12,48.04L31,61.13L31.43,61.92L34.87,65.37L35.3,65.69L37.46,66.97L37.89,67.47L41.33,71.16L41.76,71.88L46.93,79.29L47.36,79.2L49.08,76.86L49.51,75.99L54.25,66.53L54.68,66.57L56.83,65.08L57.26,65.11L59.41,65.26L59.84,64.69L61.14,65.49L61.57,65.66L65.87,69.45L66.3,70.17L71.9,81.13L72.33,81.26L73.62,79.41L74.05,78.17L78.79,65.77L79.22,65.27L82.23,62.96L82.66,62.7L86.54,60.38L86.97,60.3L91.27,56.89L91.7,56.44L94.72,50.51L95.15,49.41L97.73,42.84L98.16,41.92L99.02,42.26L99.45,42.76L101.17,47.47L101.6,49.04L105.48,60.66L105.91,61.38L108.49,63.98L108.92,64.25L109.78,64.64L110.22,64.82L112.37,66.09L112.8,66.14L117.53,72.16L117.96,73.01L122.27,80.28L122.7,80.28L124.42,77.77L124.85,76.68L128.73,67.2L129.16,66.88L131.31,64.71L131.74,64.69L137.34,63.37L137.77,63.35L141.64,64.28L142.07,64.63L145.09,67.56L145.52,68.11L145.95,68.31L146.38,70.07L148.1,73.7L148.53,74.96L151.98,83.7L152.41,83.76L153.27,81.99L153.7,80.67L157.57,66.35L158,65.77L166.61,54.81L167.05,54.3L173.07,46.64L173.5,46.55L174.79,47.04L175.23,47.38L182.11,56.91L182.54,57.22L183.84,57.6L184.27,57.64L186.42,57.17L186.85,56.82L189,55.33L189.43,54.89L192.88,49.66L193.31,48.93L195.89,45.54L196.32,45.43L197.61,46.22L198.04,46.85L201.49,53.87L201.92,54.84L204.93,58.49L205.36,58.78L207.95,59.29L208.38,59.15L210.96,58.43L211.39,57.94L215.26,53.46L215.69,52.69L220.43,43.58L220.86,43.71L221.72,44.44L222.15,45.18L224.31,50.83L224.74,52.2L228.18,59.53L228.61,60.01L231.62,61.82L232.05,61.93L244.97,63.54L245.4,63.86L247.98,65.43L248.41,65.98L250.14,68.5L250.57,69.69L253.15,77.56L253.58,79.14L255.73,85.43L256.16,85.53L257.03,83.74L257.46,81.88L261.33,66.22L261.76,65.55L265.64,62.54L266.07,61.57L272.09,52.06L272.52,51.6L275.97,49.04L276.4,48.96L278.55,49.33L278.98,49.52L285.87,54.58L286.3,54.87L289.75,54.33L290.18,54.1L297.93,48.31L298.36,48.33L300.51,49.47L300.94,49.92L305.24,54.41L305.68,54.76L308.26,55.55L308.69,55.39L311.27,54.64L311.7,54.39L315.58,50.69L316.01,50.2L319.02,47.78L319.45,47.73L321.17,48.43L321.6,48.81L328.49,55.99L328.92,56.05L332.37,55.68L332.8,55.17L334.52,53.91L334.95,53.57L340.98,46.93L341.41,46.93L343.13,47.97L343.56,48.55L349.59,56.61L350.02,56.84L352.17,57.32L352.6,57.21L355.19,56.09L355.62,55.78L358.63,52.38L359.06,51.75L363.37,46.01L363.8,46L365.09,46.7L365.52,47.24L367.67,51.18L368.1,52.05L371.55,57.36L371.98,57.65L374.13,58.54L374.56,58.57L375.85,58.33L376.28,58.19L377.57,57.81L378,57.5L381.45,53.84L381.88,53.14L387.05,44.37L387.48,44.54L388.77,45.8L389.2,46.56L392.21,54.03L392.64,55.21L395.66,59.58L396.09,59.9L398.67,60.7L399.1,60.78L402.54,60.43L402.97,60.01L404.7,59.16L405.13,58.71L408.14,55.25L408.57,54.48L411.59,47.04L412.02,45.08L414.17,41.58L414.6,42.24L415.46,43.26L415.89,44.43L421.49,61.59L421.92,62.27L425.36,65.1L425.79,65.35L429.24,67.91L429.67,68.46L430.53,68.69L430.96,70.09L433.97,75.06L434.4,75.99L436.99,79.66L437.42,79.77L438.71,78.66L439.14,77.92L440,75.92" style="vector-effect: non-scaling-stroke; fill: none; stroke: rgb(136, 204, 238); stroke-opacity: 1; stroke-width: 2px; opacity: 1;"/></g><g class="points"/><g class="text"/></g><g class="trace scatter tracee55da6" style="stroke-miterlimit: 2; opacity: 1;"><g class="fills"/><g class="errorbars"/><g class="lines"><path class="js-line" d="M0,60.82L10.76,60.94L11.19,60.84L14.64,59.42L15.07,59.13L17.65,56.5L18.08,55.86L20.67,50.07L21.1,48.83L24.11,41.49L24.54,41.39L25.4,42.36L25.83,43.39L31.86,62.44L32.29,63.01L35.3,65.56L35.73,65.82L40.04,69.36L40.47,69.91L43.91,75.66L44.34,76.44L46.5,79.12L46.93,79.21L48.22,78.36L48.65,77.72L55.11,65.93L55.54,65.61L58.12,64.65L58.55,64.66L62,65.61L62.43,65.86L65.01,68.3L65.44,68.9L68.45,74.77L68.88,75.85L71.9,81.27L72.33,81.26L73.62,79.43L74.05,78.31L79.22,64.57L79.65,64L82.23,61.94L82.66,61.73L89.98,58.35L90.41,57.93L92.99,54.3L93.42,53.46L98.59,42.12L99.02,42.23L100.31,44.65L100.74,46.03L105.48,60.65L105.91,61.31L108.49,63.81L108.92,64.05L114.95,68.23L115.38,68.71L118.4,73.79L118.83,74.71L121.84,80.08L122.27,80.28L123.56,79.46L123.99,78.71L130.45,64.83L130.88,64.46L133.89,63.08L134.32,63.03L138.63,63.29L139.06,63.4L142.5,64.83L142.94,65.16L145.52,68.01L145.95,68.73L148.53,75.05L148.96,76.43L151.98,83.9L152.41,83.77L153.27,82.14L153.7,80.75L158.86,61.97L159.3,61.23L161.88,58.43L162.31,58.11L167.91,53.09L168.34,52.54L173.07,46.7L173.5,46.57L175.23,47.48L175.66,48L182.11,57.06L182.54,57.27L185.13,57.55L185.56,57.48L188.14,56.11L188.57,55.75L191.59,51.92L192.02,51.19L195.89,45.66L196.32,45.54L197.61,46.24L198.04,46.82L201.49,53.95L201.92,54.78L204.5,58.07L204.93,58.39L207.51,59.24L207.95,59.22L210.96,58.3L211.39,58.02L213.97,55.42L214.4,54.82L217.42,48.99L217.85,48.02L220.43,43.92L220.86,43.87L222.15,45.34L222.58,46.23L228.18,59.49L228.61,59.96L231.19,61.58L231.62,61.73L235.93,62.29L236.36,62.32L244.97,63.6L245.4,63.79L248.41,66.04L248.85,66.57L251,70.67L251.43,71.81L256.16,85.63L256.59,85.06L257.89,80.3L258.32,78.03L261.76,62.3L262.19,61.15L264.77,57.02L265.21,56.65L273.82,50.19L274.25,49.87L276.83,48.85L277.26,48.87L279.41,49.89L279.84,50.24L285.87,54.66L286.3,54.76L288.88,54.58L289.32,54.42L292.33,52.46L292.76,52.07L297.5,48.42L297.93,48.34L299.65,48.84L300.08,49.15L307.4,55.4L307.83,55.45L310.84,54.85L311.27,54.61L314.72,51.67L315.15,51.18L319.02,47.79L319.45,47.72L321.17,48.41L321.6,48.8L328.49,56L328.92,56.14L331.51,55.96L331.94,55.79L334.52,53.97L334.95,53.55L341.41,47.01L341.84,47.08L343.56,48.56L343.99,49.17L349.16,56.23L349.59,56.52L352.17,57.26L352.6,57.21L355.19,56.1L355.62,55.78L358.63,52.36L359.06,51.73L363.37,46.09L363.8,46.03L365.09,46.74L365.52,47.26L368.53,52.94L368.96,53.72L371.98,57.61L372.41,57.91L374.99,58.57L375.42,58.54L378.43,57.2L378.86,56.87L381.45,53.88L381.88,53.16L387.05,44.71L387.48,44.66L388.77,45.95L389.2,46.73L395.23,59.01L395.66,59.39L398.24,60.59L398.67,60.68L402.11,60.31L402.54,60.17L405.56,58.45L405.99,58.05L408.57,54.46L409,53.61L414.17,41.85L414.6,41.95L415.89,44.42L416.32,45.82L421.06,60.88L421.49,61.6L424.07,64.24L424.5,64.53L430.53,69.29L430.96,69.89L433.97,75.17L434.4,76.03L436.99,79.71L437.42,79.81L438.71,78.71L439.14,77.94L440,75.97" style="vector-effect: non-scaling-stroke; fill: none; stroke: rgb(0, 0, 0); stroke-opacity: 1; stroke-width: 1px; opacity: 1; stroke-dasharray: 9px, 9px;"/></g><g class="points"/><g class="text"/></g><g class="trace scatter trace2ea30e" style="stroke-miterlimit: 2; opacity: 1;"><g class="fills"/><g class="errorbars"/><g class="lines"><path class="js-line" d="M0,60.67L0.43,62.98L0.86,60.16L2.58,60.89L3.01,61.09L9.9,60.65L10.33,60.32L13.35,58.8L13.78,58.38L16.36,55.11L16.79,53.96L18.08,50.85L18.51,49.39L22.82,36.17L23.25,36.52L24.11,39.5L24.54,42.27L28.41,65.31L28.85,65.96L30.57,67.15L31,67.09L34.01,66.98L34.44,67.42L35.73,68.04L36.16,68.38L37.03,68.88L37.46,69.49L39.18,71.88L39.61,72.46L44.77,82.33L45.21,82.5L45.64,82.43L46.07,81.54L46.93,79.23L47.36,77.58L51.66,65.03L52.09,64.44L53.39,63.69L53.82,63.63L57.69,64.33L58.12,64.72L59.41,64.97L59.84,66.4L60.7,65.66L61.14,66.48L63.72,69.96L64.15,70.64L66.73,77.06L67.16,78.45L69.32,85.63L69.75,85.33L70.18,85.78L70.61,86.76L71.04,84.31L71.9,82.61L72.33,79.82L76.2,62.81L76.63,62.39L78.79,61.19L79.22,61.11L82.23,60.5L82.66,60.17L83.95,60.27L84.38,59.88L86.97,58.93L87.4,58.53L90.84,54.24L91.27,52.97L92.56,49.89L92.99,48.56L96.87,37.31L97.3,37.78L97.73,38.03L98.16,39.84L100.31,53.51L100.74,56.41L102.9,64.54L103.33,65.13L105.05,65.95L105.48,65.91L108.92,65.69L109.35,66.33L110.65,66.27L111.08,66.57L116.67,75.53L117.1,76.8L120.55,84.93L120.98,84.08L122.27,80.93L122.7,78.98L127.01,63.58L127.44,63.23L129.59,62.44L130.02,62.55L133.03,62.3L133.46,62.71L140.35,64.54L140.78,65.11L142.94,67.64L143.37,68.29L145.52,72.64L145.95,74.53L146.81,76.94L147.24,78.66L150.68,91.47L151.12,89.37L153.27,74.26L153.7,70.1L155.85,60.51L156.28,60.16L157.57,58.61L158,58.44L161.02,56.45L161.45,56.1L162.31,55.46L162.74,55.04L164.46,54.18L164.89,53.43L167.91,49.16L168.34,48.49L170.49,44.97L170.92,44.59L172.21,44.52L172.64,44.97L173.93,47.36L174.36,48.38L177.81,57.11L178.24,57.59L179.96,59.07L180.39,59.2L184.27,57.68L184.7,57.33L187.28,54.77L187.71,54.32L194.6,42.71L195.03,43.04L195.89,44.3L196.32,45.39L201.06,59.45L201.49,59.91L202.78,60.68L203.21,60.74L204.93,60.43L205.36,60.38L209.24,58.22L209.67,57.88L213.11,53.11L213.54,52.16L216.56,44.52L216.99,43.06L219.14,40.02L219.57,40.55L220.86,44.52L221.29,46.7L224.74,61.19L225.17,61.81L226.89,63.24L227.32,63.4L230.33,62.56L230.76,62.7L232.05,62.63L232.49,62.36L234.21,62.64L234.64,62.54L235.5,62.48L235.93,62.78L237.22,62.51L237.65,62.62L241.53,62.96L241.96,63.21L246.26,65.89L246.69,66.56L248.41,69.58L248.85,70.58L250.57,76.45L251,78.03L254.44,94.85L254.87,93.44L257.03,74.49L257.46,70.58L259.18,59.45L259.61,58.57L265.21,54.61L265.64,53.58L268.22,51.69L268.65,51.32L272.09,48.88L272.52,48.46L275.11,47.8L275.54,47.76L277.69,49.63L278.12,50.4L282.86,55.55L283.29,55.65L285.44,55.71L285.87,55.37L287.16,54.95L287.59,54.74L294.05,47.86L294.48,47.56L296.2,47.11L296.63,47.06L298.36,48.7L298.79,49.33L303.52,56.13L303.95,56.23L305.68,56.65L306.11,56.58L309.12,54.91L309.55,54.58L313.42,50.1L313.86,49.68L316.44,46.5L316.87,46.15L318.16,46.35L318.59,46.63L320.31,49.24L320.74,50.01L323.76,55.72L324.19,56.09L326.34,57.5L326.77,57.46L329.78,56.44L330.22,55.99L333.23,52.96L333.66,52.33L339.26,44.79L339.69,44.86L340.98,46.4L341.41,47.16L346.58,58L347.01,58.1L348.73,58.66L349.16,58.57L352.17,57.11L352.6,56.74L355.19,53.96L355.62,53.36L361.64,43.41L362.07,43.57L363.37,45.1L363.8,45.98L368.53,58.84L368.96,59.27L371.12,60.03L371.55,60.06L377.57,56.12L378,55.56L381.02,50.21L381.45,49.02L385.32,41.42L385.75,41.48L386.18,41.68L386.61,42.79L388.34,49.18L388.77,50.92L391.35,59.81L391.78,60.36L393.5,62.17L393.93,62.06L396.52,61.81L396.95,61.67L398.24,61.32L398.67,60.77L399.96,60.69L400.39,60.34L404.7,57.12L405.13,56.43L407.71,51.39L408.14,49.9L412.45,37.01L412.88,37.05L414.17,41.53L414.6,43.84L417.61,62.88L418.04,64L419.77,66L420.2,66.31L421.49,66.4L421.92,66.28L425.79,67.17L426.22,67.5L428.38,69.57L428.81,70.34L430.96,74.12L431.39,75.25L435.26,83.51L435.69,83.18L436.56,82.01L436.99,81.11L440,68.85" style="vector-effect: non-scaling-stroke; fill: none; stroke: rgb(204, 102, 119); stroke-opacity: 1; stroke-width: 2px; opacity: 1;"/></g><g class="points"/><g class="text"/></g><g class="trace scatter tracecb0e10" style="stroke-miterlimit: 2; opacity: 1;"><g class="fills"/><g class="errorbars"/><g class="lines"><path class="js-line" d="M0,60.98L3.87,61.59L4.31,61.57L9.9,60.64L10.33,60.48L13.35,58.77L13.78,58.39L16.36,54.94L16.79,54.08L19.37,46.52L19.8,44.88L22.39,36.13L22.82,35.85L23.68,37.43L24.11,39.37L28.41,65.27L28.85,66L30.57,67.02L31,67L34.44,67.12L34.87,67.28L37.46,69.22L37.89,69.73L40.47,73.97L40.9,74.87L44.77,82.22L45.21,82.28L46.07,81.47L46.5,80.56L49.08,70.93L49.51,69.35L51.66,64.37L52.09,63.91L53.82,63.21L54.25,63.23L57.69,64.29L58.12,64.48L61.57,66.95L62,67.37L64.58,71.32L65.01,72.25L68.02,80.85L68.45,82.15L70.18,85.55L70.61,85.46L71.47,83.73L71.9,82.07L76.2,61.89L76.63,61.19L78.36,60.17L78.79,60.15L84.81,59.97L85.24,59.83L87.83,58.26L88.26,57.87L90.84,54.19L91.27,53.27L93.86,45.6L94.29,44.05L96.87,37.05L97.3,37.23L98.16,39.6L98.59,41.75L102.47,63.69L102.9,64.55L104.62,65.81L105.05,65.84L110.22,66.4L110.65,66.59L113.23,68.94L113.66,69.51L116.24,74.48L116.67,75.57L120.55,83.99L120.98,83.86L121.84,82.33L122.27,80.94L127.01,62.91L127.44,62.44L129.16,61.75L129.59,61.75L136.05,63.09L136.48,63.19L140.35,64.8L140.78,65.08L143.37,68.05L143.8,68.79L145.95,74.13L146.38,75.59L150.68,89.95L151.12,89.08L152.41,81.27L152.84,77.45L155.42,59.35L155.85,58.11L157.57,56.26L158,56.2L162.31,55.9L162.74,55.66L165.32,53.27L165.75,52.7L171.78,44.25L172.21,44.41L173.5,46.25L173.93,47.25L178.67,58.22L179.1,58.6L181.25,59.08L181.68,59L185.13,57.11L185.56,56.75L188.57,52.95L189,52.23L194.6,42.69L195.03,42.89L196.32,45.34L196.75,46.7L201.06,59.52L201.49,59.99L203.64,60.78L204.07,60.7L207.51,59.31L207.95,59.06L211.39,55.93L211.82,55.34L214.4,50.33L214.83,49.25L218.71,40L219.14,40.02L220,41.34L220.43,42.69L225.17,61.9L225.6,62.47L227.32,63.24L227.75,63.21L238.51,62.61L238.94,62.67L244.11,64.18L244.54,64.46L247.12,67.18L247.55,67.88L249.71,73.25L250.14,74.81L254.44,93.25L254.87,92.66L255.73,87.85L256.16,83.79L259.18,56.61L259.61,55.23L260.9,53.56L261.33,53.49L266.5,53.65L266.93,53.46L270.8,50.29L271.23,49.89L274.25,47.72L274.68,47.66L276.4,48.35L276.83,48.77L283.29,55.64L283.72,55.74L286.3,55.32L286.73,55.13L289.75,52.8L290.18,52.38L295.77,46.94L296.2,46.96L297.93,48.13L298.36,48.69L303.52,56.02L303.95,56.25L306.11,56.51L306.54,56.39L309.12,54.95L309.55,54.6L313.42,50.1L313.86,49.5L316.87,46.19L317.3,46.06L318.59,46.57L319.02,47.03L321.17,50.97L321.6,51.89L324.62,56.54L325.05,56.87L327.2,57.41L327.63,57.33L330.22,56.02L330.65,55.68L334.09,51.75L334.52,51.08L338.83,45.08L339.26,44.94L340.55,45.61L340.98,46.25L343.56,52.58L343.99,53.67L346.58,57.9L347.01,58.19L349.16,58.52L349.59,58.42L352.6,56.75L353.03,56.39L356.48,52.02L356.91,51.28L361.64,43.49L362.07,43.48L363.37,45L363.8,46L368.53,58.82L368.96,59.28L371.12,60.03L371.55,59.99L374.99,58.42L375.42,58.11L378.43,54.99L378.86,54.34L381.88,48.11L382.31,47.01L385.32,41.25L385.75,41.3L386.61,42.55L387.05,43.76L391.78,60.61L392.21,61.16L393.93,62.08L394.36,62.1L399.1,60.88L399.53,60.71L403.41,58.46L403.84,58.06L406.42,54.25L406.85,53.35L409.43,45.69L409.86,44.09L412.45,36.7L412.88,36.83L413.74,39.14L414.17,41.34L418.04,64.06L418.47,64.93L420.2,66.22L420.63,66.28L424.93,66.64L425.36,66.83L427.95,68.98L428.38,69.53L430.96,74.08L431.39,75.07L435.26,83.14L435.69,83.16L436.56,82.08L436.99,80.96L440,68.31" style="vector-effect: non-scaling-stroke; fill: none; stroke: rgb(0, 0, 0); stroke-opacity: 1; stroke-width: 1px; opacity: 1; stroke-dasharray: 9px, 9px;"/></g><g class="points"/><g class="text"/></g><g class="trace scatter trace6c1a2b" style="stroke-miterlimit: 2; opacity: 1;"><g class="fills"/><g class="errorbars"/><g class="lines"><path class="js-line" d="M0,37.33L0.43,19.65L0.86,21.66L1.29,22.82L6.03,32.79L6.46,33.73L9.9,39.43L10.33,40.36L15.5,46.18L15.93,46.12L17.65,46.87L18.08,46.62L18.94,45.87L19.37,45.01L20.67,41.04L21.1,38.94L23.25,22.83L23.68,19.05L25.4,8.67L25.83,8.06L26.26,8.2L26.69,9.25L28.41,15.28L28.85,17.07L33.15,29.49L33.58,30.41L37.46,36.61L37.89,36.98L40.47,38.32L40.9,37.57L41.76,36.92L42.19,36.48L42.62,35.89L43.05,34.02L43.91,31.59L44.34,29.48L48.65,15.07L49.08,14.67L50.37,16.38L50.8,17.5L57.69,33.72L58.12,34.5L62.43,40.94L62.86,41.41L65.01,42.5L65.44,42.36L66.3,42.05L66.73,41.4L68.45,37.2L68.88,35.16L72.33,14.53L72.76,12.45L74.05,10.87L74.48,11.7L74.91,12.06L75.34,13.41L80.94,29.13L81.37,30.13L85.24,38.76L85.68,39.3L87.83,42.87L88.26,43.04L90.41,44.78L90.84,45.02L91.27,45.63L91.7,45.15L92.13,45.33L93.86,42.95L94.29,41.67L95.58,36.22L96.01,33.7L99.88,9.54L100.31,9.46L101.17,10.89L101.6,12.21L107.2,29.54L107.63,30.57L112.37,38.79L112.8,39.23L114.95,40.52L115.38,40.67L116.24,40.65L116.67,40.26L119.26,33.72L119.69,31.45L123.99,13.31L124.42,13.15L126.58,16.75L127.01,18.34L136.05,39.63L136.48,40.14L140.35,45.96L140.78,46.02L143.37,47.88L143.8,48.03L145.09,48.76L145.52,48.62L147.24,47.04L147.67,45.01L149.39,35.44L149.82,32.22L153.27,5.94L153.7,6.15L154.56,7.36L154.99,8.58L158,17.99L158.43,19.09L164.89,34.94L165.32,35.36L167.05,35.69L167.48,35.8L170.06,31.73L170.49,30.55L174.79,18.05L175.23,17.93L176.09,17.41L176.52,17.91L179.96,24.14L180.39,25.03L183.84,32.28L184.27,32.92L187.28,36.92L187.71,37L189,37.76L189.43,37.75L190.72,37.31L191.15,36.47L192.02,35.23L192.45,33.99L194.6,26.3L195.03,24.42L197.61,16.23L198.04,15.53L198.9,15.97L199.33,16.54L200.63,19L201.06,20.13L207.51,34.45L207.95,35.38L210.53,39.2L210.96,39.46L212.25,40.86L212.68,41.13L213.97,41.5L214.4,41.17L215.69,39.87L216.13,38.93L218.28,30.53L218.71,28.12L221.72,13.37L222.15,12.86L223.01,13.18L223.44,13.92L227.32,24.61L227.75,25.98L232.49,36.75L232.92,37.23L235.07,41.34L235.5,41.51L235.93,41.72L236.36,42.98L239.8,47.08L240.23,47.69L240.67,47.73L241.1,48.6L242.39,49.6L242.82,49.92L244.97,51.85L245.4,51.87L248.41,53.34L248.85,53.4L249.71,52.9L250.14,52.37L251.43,49.85L251.86,48.24L254.01,30.9L254.44,25.57L257.03,3.01L257.46,2.22L258.75,5.38L259.18,7.51L261.76,14L262.19,14.69L263.91,18.14L264.34,18.98L269.08,30.31L269.51,30.59L272.09,30.08L272.52,29.78L278.55,21.58L278.98,21.55L280.27,21.73L280.7,22.02L288.02,31.05L288.45,31.07L289.75,31.85L290.18,32.07L291.47,32.25L291.9,32.11L292.76,31.64L293.19,31.12L294.91,28.74L295.34,27.98L299.22,21.08L299.65,20.72L300.94,20.65L301.37,20.69L310.84,33.1L311.27,33.19L313.42,33.27L313.86,32.77L315.15,31.64L315.58,30.9L318.16,24.88L318.59,23.84L321.17,19.68L321.6,19.59L322.9,20.04L323.33,20.55L328.06,28.11L328.49,29.28L331.51,33.5L331.94,33.59L333.66,34.81L334.09,34.82L334.95,34.68L335.38,34.55L337.1,32.43L337.53,31.5L340.12,24.3L340.55,22.98L342.7,18.46L343.13,18.29L343.99,18.26L344.42,18.68L345.71,20.74L346.14,21.57L347.01,23.15L347.44,23.86L352.6,33.58L353.03,34.12L356.05,36.86L356.48,36.87L357.77,36.55L358.2,36.15L359.49,34.27L359.92,33.09L362.07,25.96L362.5,24.27L365.09,16.96L365.52,16.52L366.81,17.17L367.24,17.75L371.55,27.33L371.98,28.52L374.99,34.09L375.42,35.07L377.57,38.01L378,38.56L379.73,39.52L380.16,39.63L381.88,38.98L382.31,38.18L384.03,33.46L384.46,31.59L388.77,14.39L389.2,14.27L390.49,15.65L390.92,17.08L394.36,25.89L394.79,27.11L396.09,29.85L396.52,30.98L400.82,39.63L401.25,39.99L403.84,43.74L404.27,43.94L406.85,45.81L407.28,45.76L409,44.14L409.43,43.61L411.15,36.83L411.59,34.27L415.46,9.16L415.89,9.06L417.18,11.74L417.61,13.24L421.06,25.05L421.49,26.18L425.36,34.48L425.79,35.19L428.81,38.86L429.24,39.08L430.53,39.94L430.96,39.2L432.68,37.62L433.11,36.03L435.26,27.57L435.69,25.68L438.28,14.78L438.71,13.95L440,14.14" style="vector-effect: non-scaling-stroke; fill: none; stroke: rgb(221, 204, 119); stroke-opacity: 1; stroke-width: 2px; opacity: 1;"/></g><g class="points"/><g class="text"/></g><g class="trace scatter trace1745c3" style="stroke-miterlimit: 2; opacity: 1;"><g class="fills"/><g class="errorbars"/><g class="lines"><path class="js-line" d="M0,15.56L5.17,30.04L5.6,31.02L10.76,40.64L11.19,41.28L15.07,45.78L15.5,46.09L17.65,46.81L18.08,46.66L19.37,45.1L19.8,44.1L21.53,36.5L21.96,33.55L25.4,8.7L25.83,8.1L26.69,9.03L27.12,10.29L33.15,29.77L33.58,30.68L37.46,36.89L37.89,37.33L40.04,38.39L40.47,38.31L41.76,37.19L42.19,36.5L43.91,31.67L44.34,29.97L48.22,15.36L48.65,15.03L49.51,15.4L49.94,15.98L52.52,22.17L52.95,23.34L58.12,35.05L58.55,35.81L62.86,41.74L63.29,42.11L65.44,42.74L65.87,42.55L67.16,40.88L67.59,39.88L69.32,33L69.75,30.49L73.19,11.73L73.62,11.33L74.48,12.03L74.91,12.96L83.09,35.16L83.52,35.96L87.83,42.59L88.26,43.08L91.27,45.26L91.7,45.27L92.99,44.47L93.42,43.84L94.72,40.35L95.15,38.5L97.3,24.09L97.73,20.64L99.88,9.58L100.31,9.37L101.17,10.73L101.6,11.99L107.63,30.61L108.06,31.56L112.37,38.74L112.8,39.22L115.38,40.77L115.81,40.71L117.1,39.66L117.53,38.95L119.26,33.7L119.69,31.76L123.56,13.63L123.99,13.2L124.85,13.65L125.28,14.38L128.3,22.8L128.73,24.04L133.46,35.18L133.89,36L139.06,44.1L139.49,44.65L143.8,48.48L144.23,48.62L145.95,48.3L146.38,47.86L147.67,45.13L148.1,43.56L149.82,32.69L150.25,28.8L152.84,7.58L153.27,6.57L153.7,6.51L154.13,7.24L156.28,15.75L156.71,17.51L159.73,26.79L160.16,27.75L163.6,33.72L164.03,34.21L166.18,35.72L166.61,35.78L167.91,35.24L168.34,34.82L170.06,31.71L170.49,30.56L175.23,17.63L175.66,17.46L176.95,18.37L177.38,19L182.11,28.88L182.54,29.71L186.85,36.4L187.28,36.81L189.43,37.79L189.86,37.69L191.15,36.64L191.59,35.98L193.31,31.46L193.74,29.9L197.61,16.03L198.04,15.64L198.9,15.86L199.33,16.33L201.49,21.03L201.92,22.13L207.95,35.42L208.38,36.14L212.25,40.93L212.68,41.19L214.4,41.23L214.83,40.93L216.13,38.89L216.56,37.77L218.28,30.56L218.71,28.13L221.72,13.3L222.15,12.72L223.01,12.96L223.44,13.64L226.03,21.01L226.46,22.31L231.19,34.12L231.62,34.99L236.79,43.5L237.22,44.1L243.25,50.48L243.68,50.82L247.98,53.21L248.41,53.24L250.14,52.37L250.57,51.76L251.86,48.13L252.29,46.1L254.01,31.8L254.44,26.73L257.03,3.27L257.46,3.16L258.32,5.74L258.75,7.84L262.19,22.22L262.62,23.32L265.64,28.61L266.07,29.14L269.08,31.32L269.51,31.38L271.66,30.68L272.09,30.32L274.68,26.71L275.11,26L278.55,21.56L278.98,21.43L280.27,21.7L280.7,21.99L283.29,24.88L283.72,25.45L288.45,31.17L288.88,31.5L291.04,32.31L291.47,32.25L293.19,31.18L293.62,30.7L296.2,26.13L296.63,25.23L299.65,20.71L300.08,20.55L301.37,20.88L301.8,21.23L304.81,25.42L305.24,26.1L309.98,32.37L310.41,32.71L312.56,33.48L312.99,33.42L314.72,32.21L315.15,31.61L317.3,27.15L317.73,26.05L320.74,20.05L321.17,19.73L322.47,19.82L322.9,20.13L325.48,23.88L325.91,24.64L331.51,33.37L331.94,33.78L334.09,34.87L334.52,34.86L336.24,33.7L336.67,33.13L338.83,28.26L339.26,26.97L342.7,18.47L343.13,18.19L344.42,18.65L344.85,19.17L348.3,25.73L348.73,26.63L353.03,34.16L353.46,34.73L356.05,36.84L356.48,36.94L358.2,36.23L358.63,35.7L360.35,32.05L360.78,30.74L365.09,16.86L365.52,16.5L366.38,16.69L366.81,17.15L368.96,21.43L369.39,22.45L375.42,35.11L375.85,35.78L378.86,39.26L379.3,39.48L381.02,39.57L381.45,39.28L382.74,37.31L383.17,36.22L385.32,27.54L385.75,25.3L388.34,14.7L388.77,14.16L389.63,14.26L390.06,14.79L392.21,20.03L392.64,21.28L397.81,34.05L398.24,34.93L403.41,43.09L403.84,43.57L406.42,45.63L406.85,45.74L408.14,45.38L408.57,44.95L409.86,42.35L410.29,40.9L412.02,31.18L412.45,27.84L415.46,9.18L415.89,8.98L416.75,10.39L417.18,11.69L422.78,29.52L423.21,30.49L427.08,37.19L427.51,37.74L430.1,39.54L430.53,39.55L431.82,38.75L432.25,38.15L433.97,33.67L434.4,31.95L438.71,14.19L439.14,13.96L440,14.64" style="vector-effect: non-scaling-stroke; fill: none; stroke: rgb(0, 0, 0); stroke-opacity: 1; stroke-width: 1px; opacity: 1; stroke-dasharray: 9px, 9px;"/></g><g class="points"/><g class="text"/></g></g></g><g class="overplot"/><path class="xlines-above crisp" d="M79,357.1666666666667H520" style="fill: none; stroke-width: 1px; stroke: rgb(36, 36, 36); stroke-opacity: 1;"/><path class="ylines-above crisp" d="M79.5,263.3333333333333V356.6666666666667" style="fill: none; stroke-width: 1px; stroke: rgb(36, 36, 36); stroke-opacity: 1;"/><g class="overlines-above"/><g class="xaxislayer-above"><path class="x2tick ticks crisp" d="M0,357.6666666666667v5" transform="translate(80,0)" style="stroke: rgb(68, 68, 68); stroke-opacity: 1; stroke-width: 1px;"/><path class="x2tick ticks crisp" d="M0,357.6666666666667v5" transform="translate(190.22,0)" style="stroke: rgb(68, 68, 68); stroke-opacity: 1; stroke-width: 1px;"/><path class="x2tick ticks crisp" d="M0,357.6666666666667v5" transform="translate(300.43,0)" style="stroke: rgb(68, 68, 68); stroke-opacity: 1; stroke-width: 1px;"/><path class="x2tick ticks crisp" d="M0,357.6666666666667v5" transform="translate(410.65,0)" style="stroke: rgb(68, 68, 68); stroke-opacity: 1; stroke-width: 1px;"/></g><g class="yaxislayer-above"><path class="y2tick ticks crisp" d="M79,0h-5" transform="translate(0,356.6633333333333)" style="stroke: rgb(68, 68, 68); stroke-opacity: 1; stroke-width: 1px;"/><path class="y2tick ticks crisp" d="M79,0h-5" transform="translate(0,325.5533333333333)" style="stroke: rgb(68, 68, 68); stroke-opacity: 1; stroke-width: 1px;"/><path class="y2tick ticks crisp" d="M79,0h-5" transform="translate(0,294.4433333333333)" style="stroke: rgb(68, 68, 68); stroke-opacity: 1; stroke-width: 1px;"/><path class="y2tick ticks crisp" d="M79,0h-5" transform="translate(0,263.3333333333333)" style="stroke: rgb(68, 68, 68); stroke-opacity: 1; stroke-width: 1px;"/><g class="y2tick"><text text-anchor="end" x="71.6" y="4.199999999999999" transform="translate(0,356.6633333333333)" style="font-family: 'Open Sans', verdana, arial, sans-serif; font-size: 12px; fill: rgb(36, 36, 36); fill-opacity: 1; white-space: pre; opacity: 1;">−20</text></g><g class="y2tick"><text text-anchor="end" x="71.6" y="4.199999999999999" style="font-family: 'Open Sans', verdana, arial, sans-serif; font-size: 12px; fill: rgb(36, 36, 36); fill-opacity: 1; white-space: pre; opacity: 1;" transform="translate(0,325.5533333333333)">0</text></g><g class="y2tick"><text text-anchor="end" x="71.6" y="4.199999999999999" style="font-family: 'Open Sans', verdana, arial, sans-serif; font-size: 12px; fill: rgb(36, 36, 36); fill-opacity: 1; white-space: pre; opacity: 1;" transform="translate(0,294.4433333333333)">20</text></g><g class="y2tick"><text text-anchor="end" x="71.6" y="4.199999999999999" style="font-family: 'Open Sans', verdana, arial, sans-serif; font-size: 12px; fill: rgb(36, 36, 36); fill-opacity: 1; white-space: pre; opacity: 1;" transform="translate(0,263.3333333333333)">40</text></g></g><g class="overaxes-above"/></g><g class="subplot x3y3"><g class="layer-subplot"><g class="shapelayer"/><g class="imagelayer"/></g><g class="gridlayer"><g class="x3"/><g class="y3"/></g><g class="zerolinelayer"/><path class="xlines-below"/><path class="ylines-below"/><g class="overlines-below"/><g class="xaxislayer-below"/><g class="yaxislayer-below"/><g class="overaxes-below"/><g class="plot" transform="translate(80,426.6666666666667)" clip-path="url(#clip610331x3y3plot)"><g class="scatterlayer mlayer"><g class="trace scatter trace23c81e" style="stroke-miterlimit: 2; opacity: 1;"><g class="fills"/><g class="errorbars"/><g class="lines"><path class="js-line" d="M0,6.21L0.86,76.7L1.29,77.68L3.87,83.69L4.31,86.05L6.03,89.03L6.46,89.04L8.18,92.44L8.61,91.05L9.9,92.78L10.33,91.55L11.62,92.97L12.05,92.26L13.35,92.91L13.78,93.25L15.07,91.81L15.5,92.87L16.36,91.94L16.79,92.6L17.22,92.18L17.65,93.06L19.37,92.81L19.8,92.33L20.23,91.77L20.67,92.5L21.1,91.75L21.53,92.54L21.96,93.12L22.39,90.6L23.68,92.66L24.11,91.8L24.54,90.89L24.97,92.7L26.26,92.92L26.69,92.24L27.12,93.2L27.55,92.35L27.98,93.03L29.28,92.78L29.71,92.49L30.14,91.46L30.57,91.99L31,92.01L35.73,91.6L36.16,91.46L37.03,91.29L37.46,91.79L38.75,91.83L39.18,91.75L39.61,91.63L40.04,92.29L40.47,92.49L40.9,90.82L42.19,93.2L42.62,91.94L43.05,90.72L43.48,92.93L43.91,92.51L44.34,90.26L44.77,92.76L45.21,92.25L45.64,91.31L46.07,92.99L46.5,91.85L46.93,92.81L47.36,92L47.79,92.57L48.22,92.84L48.65,93.14L49.08,90.88L49.51,90.76L49.94,89.38L51.23,92.37L51.66,89.28L52.95,91.52L53.39,90.41L53.82,90.2L54.25,91.19L55.11,90.82L55.54,90.96L56.4,90.03L56.83,90.6L59.41,90.7L59.84,88.61L61.14,91.79L61.57,91.83L62.43,91.27L62.86,91.73L67.16,91.51L67.59,90.17L68.45,92.66L68.88,92.37L69.32,86.79L69.75,92.5L70.18,92.21L70.61,86.58L71.47,92.68L71.9,90.59L72.33,92.59L72.76,91.15L73.19,92.7L73.62,93.21L74.05,89.63L74.48,91.11L74.91,87.77L75.77,89.17L76.2,88.23L77.06,85.3L77.5,86.75L78.36,84.78L78.79,85.45L80.08,84.68L80.51,85.33L81.8,86.66L82.23,87.46L84.81,91.81L85.24,91.88L85.68,91.48L86.11,92.54L87.4,92.86L87.83,91.93L88.69,92.9L89.12,92.22L89.98,93.14L90.41,92.52L90.84,92.68L91.27,91.41L91.7,92.69L92.13,92.32L92.56,93.3L93.86,93.28L94.29,92.23L94.72,93.07L95.15,92.79L95.58,91.96L96.44,92.53L96.87,91.68L97.3,89.96L97.73,93.04L98.59,91.35L99.02,92.89L100.74,93.13L101.17,92.54L102.04,91.76L102.47,92.73L105.91,92.94L106.34,92.52L106.77,93.14L107.2,92.71L107.63,92.87L109.35,91.97L109.78,92.86L110.22,93.03L110.65,91.63L111.94,93.13L112.37,92.54L113.66,92.85L114.09,91.63L114.52,92.18L114.95,90.8L116.24,92.7L116.67,92.97L117.96,91.47L118.4,91.33L118.83,90.89L119.26,93.19L120.55,88.44L120.98,92.15L122.27,93.23L122.7,92.13L123.99,92.45L124.42,92.91L124.85,93.06L125.28,92.02L126.14,86.6L126.58,88.11L127.01,89.69L128.3,87.32L128.73,88.73L129.59,87.22L130.02,88.03L131.31,87.6L131.74,87.55L133.03,88.34L133.46,88.65L134.32,89.75L134.76,88.93L136.91,91.85L137.34,90.62L138.2,92.25L138.63,92.32L139.92,92.42L140.35,91.52L140.78,93.14L141.21,92.97L141.64,92.43L143.8,91.05L144.23,92.08L145.52,92.5L145.95,90.99L146.81,91.11L147.24,89.78L147.67,92.24L148.1,92.03L148.53,90.71L149.39,88.57L149.82,89.83L150.25,89.07L150.68,85.69L151.55,91.86L151.98,90.5L152.84,93.04L153.27,89.26L153.7,91.01L154.13,87.56L155.85,79.69L156.28,75.2L156.71,77.65L157.14,77.51L157.57,75.15L158.86,71.27L159.3,71.71L159.73,71.66L160.16,72.66L161.88,79.47L162.31,82.09L164.03,88.79L164.46,88.79L165.32,91.52L165.75,91.35L167.05,92.6L167.48,91.76L167.91,92.94L168.34,92.78L168.77,92.39L169.63,93.16L170.06,92.96L171.35,93.13L171.78,92.71L174.79,93.12L175.23,91.86L175.66,93.27L176.09,92.55L176.52,93.16L176.95,92.31L177.38,93.07L177.81,92.65L178.24,91.7L178.67,93.17L180.39,92.25L180.82,93.12L181.68,92.73L182.11,91.02L183.41,92.82L183.84,92.42L185.13,92.9L185.56,91.73L186.42,93.08L186.85,92.02L188.14,93.1L188.57,93.21L190.29,92.98L190.72,92.41L192.45,92.44L192.88,93.02L194.6,93.17L195.03,92.45L195.89,92.73L196.32,92.78L198.04,92.79L198.47,93.15L200.2,92.47L200.63,92.72L201.92,92.5L202.35,92.86L203.21,92.91L203.64,91.45L204.5,92.8L204.93,92.81L206.22,92.51L206.65,92.73L207.51,92.42L207.95,93.02L209.67,92.28L210.1,93.1L210.53,93.03L210.96,91.77L211.39,92.87L211.82,91.94L212.25,92.95L213.11,92.47L213.54,91.94L214.83,93.05L215.26,92.7L217.42,92.71L217.85,92.35L219.14,93.03L219.57,92.29L220,91.43L220.43,91.67L220.86,92.53L222.58,91.98L223.01,92.21L224.31,91.94L224.74,92.81L225.17,92.14L225.6,93.05L226.46,92.27L226.89,92.91L227.32,92.24L227.75,93.03L228.18,93.14L228.61,92.36L229.47,92.93L229.9,92.68L230.33,92.29L230.76,93.04L231.62,91.55L232.05,92.61L233.78,92.73L234.21,91.68L235.5,92.71L235.93,90.61L236.79,92.75L237.22,93.05L237.65,92.55L238.08,93.17L238.51,93.03L238.94,91.46L239.37,93.11L239.8,92.71L240.23,93.22L240.67,91.49L241.1,93.08L241.53,91.19L241.96,92.83L242.39,92.64L242.82,92.39L243.68,93.28L244.11,92.09L244.97,92.94L245.4,92.38L246.26,91.57L246.69,92.98L247.12,92.24L247.55,93.14L247.98,91.96L248.41,92.82L248.85,92.34L249.28,91.32L249.71,92.52L250.14,92.01L250.57,92.84L251,89.1L251.43,92.1L251.86,92.52L252.29,90.35L252.72,87.5L253.15,89.25L253.58,87.5L254.44,85.25L254.87,89.27L255.3,91.72L255.73,91.54L256.16,91.47L256.59,92.14L257.03,91.05L258.75,77.83L259.18,77.99L262.62,53.69L263.05,53.38L264.34,52.54L264.77,54.2L269.94,87.15L270.37,88.48L272.09,91.23L272.52,91.64L275.97,92.99L276.4,92.44L277.26,92.87L277.69,92.38L278.55,93.16L278.98,92.74L279.84,93.15L280.27,93.17L280.7,93.16L281.14,91.95L282,92.7L282.43,93L283.29,93.29L283.72,93.26L284.15,92.15L284.58,93.05L285.01,92.02L285.87,92.41L286.3,92.3L286.73,92.95L287.16,92.62L287.59,92.33L288.02,92.14L288.45,92.81L289.75,92.54L290.18,92.77L290.61,92.99L291.04,91.7L291.9,93.18L292.33,92.15L293.62,93.17L294.05,92.77L294.91,93.24L295.34,92.83L296.63,93.04L297.06,93.02L299.65,93.3L300.08,92.71L300.94,93.23L301.37,92.42L302.23,93.15L302.66,92.62L303.09,92.96L303.52,92.28L303.95,93.17L304.38,92.08L304.81,93.03L305.24,92.64L305.68,92.29L307.4,93.21L307.83,92.14L309.55,93.22L309.98,93.16L310.84,92.83L311.27,93.15L312.13,93.17L312.56,92.24L313.42,93.28L313.86,92.08L314.29,93.19L314.72,92.79L315.15,93.23L323.76,93.11L324.19,92.09L325.91,92.83L326.34,92.37L327.2,92.85L327.63,92.54L328.06,91.43L328.49,93.05L329.78,92.28L330.22,93.15L332.8,91.71L333.23,93.14L334.09,93.07L334.52,92.5L335.81,93.08L336.24,92.92L336.67,92.5L337.1,93.21L339.26,92.59L339.69,92.82L340.55,93.16L340.98,92.58L342.7,93.04L343.13,92.84L345.28,93.02L345.71,92.3L346.58,92.54L347.01,92.75L348.3,93.05L348.73,92.37L350.45,92.71L350.88,91.95L353.89,93.16L354.32,92.59L355.62,93.24L356.05,93.21L357.34,92.17L357.77,93.13L359.92,92.46L360.35,93.2L362.5,92.48L362.94,93.19L363.8,93.11L364.23,93.12L365.09,92.83L365.52,93.22L365.95,92.34L366.38,93.06L366.81,93.24L369.39,92.85L369.82,92.13L371.12,93.02L371.55,92.5L373.7,93.11L374.13,93.04L374.56,93.06L374.99,91.96L375.42,93.1L375.85,92.24L376.28,92.06L378,93.22L378.43,92.56L378.86,92.77L379.3,91.84L380.59,92.91L381.02,93.13L381.88,92.39L382.31,93.13L383.17,93.04L383.6,92.02L384.89,92.95L385.32,92.33L386.18,92.92L386.61,91.65L387.05,91.65L387.48,92.7L388.34,92.56L388.77,92.19L389.63,91.46L390.06,92.29L390.49,92.9L390.92,90.93L391.35,91.81L391.78,90.78L392.21,92.68L392.64,91.11L393.07,92.93L393.5,91.96L393.93,92.69L394.79,92.74L395.23,90.91L395.66,92.13L396.09,91.06L396.95,91.97L397.38,90.87L397.81,92.46L398.24,92.03L398.67,91.91L399.53,92.94L399.96,91.95L400.39,93.17L400.82,92.45L401.25,92.68L401.68,92.84L402.11,91.1L402.54,90.94L402.97,92.73L403.84,92.53L404.27,92.85L405.99,92.86L406.42,93.17L408.14,92.76L408.57,92.96L409,91.9L409.43,92.24L409.86,93.03L411.59,92.45L412.02,89.76L412.88,91.81L413.31,90.95L413.74,92.59L414.17,91.95L414.6,91.86L415.46,93.14L415.89,92.86L417.18,93.02L417.61,93.11L418.47,92.14L418.9,92.9L421.49,92.36L421.92,92.58L423.64,92.1L424.07,92.62L425.36,92.71L425.79,92.73L428.81,92.25L429.24,92.44L429.67,92.02L430.1,92.58L430.53,90.37L431.82,92.81L432.25,92.46L433.54,90.82L433.97,92.59L434.4,88.95L434.83,92.59L435.26,91.28L435.69,93.1L436.99,92.6L437.42,92.45L437.85,91.24L438.28,92.97L440,90.38" style="vector-effect: non-scaling-stroke; fill: none; stroke: rgb(136, 136, 136); stroke-opacity: 1; stroke-width: 2px; opacity: 1;"/></g><g class="points"/><g class="text"/></g></g></g><g class="overplot"/><path class="xlines-above crisp" d="M79,520.5H520" style="fill: none; stroke-width: 1px; stroke: rgb(36, 36, 36); stroke-opacity: 1;"/><path class="ylines-above crisp" d="M79.5,426.6666666666667V520" style="fill: none; stroke-width: 1px; stroke: rgb(36, 36, 36); stroke-opacity: 1;"/><g class="overlines-above"/><g class="xaxislayer-above"><path class="x3tick ticks crisp" d="M0,521v5" transform="translate(80,0)" style="stroke: rgb(68, 68, 68); stroke-opacity: 1; stroke-width: 1px;"/><path class="x3tick ticks crisp" d="M0,521v5" transform="translate(190.22,0)" style="stroke: rgb(68, 68, 68); stroke-opacity: 1; stroke-width: 1px;"/><path class="x3tick ticks crisp" d="M0,521v5" transform="translate(300.43,0)" style="stroke: rgb(68, 68, 68); stroke-opacity: 1; stroke-width: 1px;"/><path class="x3tick ticks crisp" d="M0,521v5" transform="translate(410.65,0)" style="stroke: rgb(68, 68, 68); stroke-opacity: 1; stroke-width: 1px;"/></g><g class="yaxislayer-above"><path class="y3tick ticks crisp" d="M79,0h-5" transform="translate(0,519.9966666666667)" style="stroke: rgb(68, 68, 68); stroke-opacity: 1; stroke-width: 1px;"/><path class="y3tick ticks crisp" d="M79,0h-5" transform="translate(0,488.88666666666666)" style="stroke: rgb(68, 68, 68); stroke-opacity: 1; stroke-width: 1px;"/><path class="y3tick ticks crisp" d="M79,0h-5" transform="translate(0,457.7766666666667)" style="stroke: rgb(68, 68, 68); stroke-opacity: 1; stroke-width: 1px;"/><path class="y3tick ticks crisp" d="M79,0h-5" transform="translate(0,426.6666666666667)" style="stroke: rgb(68, 68, 68); stroke-opacity: 1; stroke-width: 1px;"/><g class="y3tick"><text text-anchor="end" x="71.6" y="4.199999999999999" transform="translate(0,519.9966666666667)" style="font-family: 'Open Sans', verdana, arial, sans-serif; font-size: 12px; fill: rgb(36, 36, 36); fill-opacity: 1; white-space: pre; opacity: 1;">0</text></g><g class="y3tick"><text text-anchor="end" x="71.6" y="4.199999999999999" style="font-family: 'Open Sans', verdana, arial, sans-serif; font-size: 12px; fill: rgb(36, 36, 36); fill-opacity: 1; white-space: pre; opacity: 1;" transform="translate(0,488.88666666666666)">5</text></g><g class="y3tick"><text text-anchor="end" x="71.6" y="4.199999999999999" style="font-family: 'Open Sans', verdana, arial, sans-serif; font-size: 12px; fill: rgb(36, 36, 36); fill-opacity: 1; white-space: pre; opacity: 1;" transform="translate(0,457.7766666666667)">10</text></g><g class="y3tick"><text text-anchor="end" x="71.6" y="4.199999999999999" style="font-family: 'Open Sans', verdana, arial, sans-serif; font-size: 12px; fill: rgb(36, 36, 36); fill-opacity: 1; white-space: pre; opacity: 1;" transform="translate(0,426.6666666666667)">15</text></g></g><g class="overaxes-above"/></g></g><g class="polarlayer"/><g class="smithlayer"/><g class="ternarylayer"/><g class="geolayer"/><g class="funnelarealayer"/><g class="pielayer"/><g class="iciclelayer"/><g class="treemaplayer"/><g class="sunburstlayer"/><g class="glimages"/><defs id="topdefs-610331"><g class="clips"/><clipPath id="legend610331"><rect width="320" height="48" x="0" y="0"/></clipPath></defs><g class="layer-above"><g class="imagelayer"/><g class="shapelayer"/></g><g class="infolayer"><g class="legend" pointer-events="all" transform="translate(195.60000000000002,30.999999999999986)"><rect class="bg" shape-rendering="crispEdges" width="320" height="48" x="0" y="0" style="stroke: rgb(68, 68, 68); stroke-opacity: 1; fill: rgb(255, 255, 255); fill-opacity: 1; stroke-width: 0px;"/><g class="scrollbox" transform="" clip-path="url(#legend610331)"><g class="groups"><g class="traces" transform="translate(0,14.5)" style="opacity: 1;"><text class="legendtext" text-anchor="start" x="40" y="4.680000000000001" style="font-family: 'Open Sans', verdana, arial, sans-serif; font-size: 12px; fill: rgb(36, 36, 36); fill-opacity: 1; white-space: pre;">x+y+z+noise</text><g class="layers" style="opacity: 1;"><g class="legendfill"/><g class="legendlines"><path class="js-line" d="M5,0h30" style="fill: none; stroke: rgb(68, 170, 153); stroke-opacity: 1; stroke-width: 2px;"/></g><g class="legendsymbols"><g class="legendpoints"/></g></g><rect class="legendtoggle" x="0" y="-9.5" width="111.40625" height="19" style="fill: rgb(0, 0, 0); fill-opacity: 0;"/></g><g class="traces" transform="translate(113.90625,14.5)" style="opacity: 1;"><text class="legendtext" text-anchor="start" x="40" y="4.680000000000001" style="font-family: 'Open Sans', verdana, arial, sans-serif; font-size: 12px; fill: rgb(36, 36, 36); fill-opacity: 1; white-space: pre;">realised</text><g class="layers" style="opacity: 1;"><g class="legendfill"/><g class="legendlines"><path class="js-line" d="M5,0h30" style="fill: none; stroke: rgb(0, 0, 0); stroke-opacity: 1; stroke-dasharray: 9px, 9px; stroke-width: 1px;"/></g><g class="legendsymbols"><g class="legendpoints"/></g></g><rect class="legendtoggle" x="0" y="-9.5" width="86.6875" height="19" style="fill: rgb(0, 0, 0); fill-opacity: 0;"/></g><g class="traces" transform="translate(227.8125,14.5)" style="opacity: 1;"><text class="legendtext" text-anchor="start" x="40" y="4.680000000000001" style="font-family: 'Open Sans', verdana, arial, sans-serif; font-size: 12px; fill: rgb(36, 36, 36); fill-opacity: 1; white-space: pre;">x</text><g class="layers" style="opacity: 1;"><g class="legendfill"/><g class="legendlines"><path class="js-line" d="M5,0h30" style="fill: none; stroke: rgb(136, 204, 238); stroke-opacity: 1; stroke-width: 2px;"/></g><g class="legendsymbols"><g class="legendpoints"/></g></g><rect class="legendtoggle" x="0" y="-9.5" width="49.5" height="19" style="fill: rgb(0, 0, 0); fill-opacity: 0;"/></g><g class="traces" transform="translate(0,33.5)" style="opacity: 1;"><text class="legendtext" text-anchor="start" x="40" y="4.680000000000001" style="font-family: 'Open Sans', verdana, arial, sans-serif; font-size: 12px; fill: rgb(36, 36, 36); fill-opacity: 1; white-space: pre;">y</text><g class="layers" style="opacity: 1;"><g class="legendfill"/><g class="legendlines"><path class="js-line" d="M5,0h30" style="fill: none; stroke: rgb(204, 102, 119); stroke-opacity: 1; stroke-width: 2px;"/></g><g class="legendsymbols"><g class="legendpoints"/></g></g><rect class="legendtoggle" x="0" y="-9.5" width="49.5" height="19" style="fill: rgb(0, 0, 0); fill-opacity: 0;"/></g><g class="traces" transform="translate(113.90625,33.5)" style="opacity: 1;"><text class="legendtext" text-anchor="start" x="40" y="4.680000000000001" style="font-family: 'Open Sans', verdana, arial, sans-serif; font-size: 12px; fill: rgb(36, 36, 36); fill-opacity: 1; white-space: pre;">z</text><g class="layers" style="opacity: 1;"><g class="legendfill"/><g class="legendlines"><path class="js-line" d="M5,0h30" style="fill: none; stroke: rgb(221, 204, 119); stroke-opacity: 1; stroke-width: 2px;"/></g><g class="legendsymbols"><g class="legendpoints"/></g></g><rect class="legendtoggle" x="0" y="-9.5" width="48.5" height="19" style="fill: rgb(0, 0, 0); fill-opacity: 0;"/></g><g class="traces" transform="translate(227.8125,33.5)" style="opacity: 1;"><text class="legendtext" text-anchor="start" x="40" y="4.680000000000001" style="font-family: 'Open Sans', verdana, arial, sans-serif; font-size: 12px; fill: rgb(36, 36, 36); fill-opacity: 1; white-space: pre;">distance</text><g class="layers" style="opacity: 1;"><g class="legendfill"/><g class="legendlines"><path class="js-line" d="M5,0h30" style="fill: none; stroke: rgb(136, 136, 136); stroke-opacity: 1; stroke-width: 2px;"/></g><g class="legendsymbols"><g class="legendpoints"/></g></g><rect class="legendtoggle" x="0" y="-9.5" width="89.609375" height="19" style="fill: rgb(0, 0, 0); fill-opacity: 0;"/></g></g></g><rect class="scrollbar" rx="20" ry="3" width="0" height="0" x="0" y="0" style="fill: rgb(128, 139, 164); fill-opacity: 1;"/></g><g class="g-gtitle"/><g class="g-xtitle"/><g class="g-x2title"/><g class="g-x3title"><text class="x3title" x="300" y="549.8" text-anchor="middle" style="font-family: 'Open Sans', verdana, arial, sans-serif; font-size: 14px; fill: rgb(36, 36, 36); opacity: 1; font-weight: normal; white-space: pre;">Time (s)</text></g><g class="g-ytitle"/><g class="g-y2title"/><g class="g-y3title"/><g class="annotation" data-index="0" style="opacity: 1;"><g class="annotation-text-g" transform="rotate(0,300,86.99999999999999)"><g class="cursor-pointer" transform="translate(166,74)"><rect class="bg" x="0.5" y="0.5" width="267" height="25" style="stroke-width: 1px; stroke: rgb(0, 0, 0); stroke-opacity: 0; fill: rgb(0, 0, 0); fill-opacity: 0;"/><text class="annotation-text" text-anchor="middle" x="133.8125" y="19" style="font-family: 'Open Sans', verdana, arial, sans-serif; font-size: 16px; fill: rgb(36, 36, 36); fill-opacity: 1; white-space: pre;">Observation - Noise volatility: 1e-04</text></g></g></g><g class="annotation" data-index="1" style="opacity: 1;"><g class="annotation-text-g" transform="rotate(0,300,250.33333333333331)"><g class="cursor-pointer" transform="translate(189,237)"><rect class="bg" x="0.5" y="0.5" width="221" height="25" style="stroke-width: 1px; stroke: rgb(0, 0, 0); stroke-opacity: 0; fill: rgb(0, 0, 0); fill-opacity: 0;"/><text class="annotation-text" text-anchor="middle" x="110.859375" y="19" style="font-family: 'Open Sans', verdana, arial, sans-serif; font-size: 16px; fill: rgb(36, 36, 36); fill-opacity: 1; white-space: pre;">States - Noise volatility: 1e-02</text></g></g></g><g class="annotation" data-index="2" style="opacity: 1;"><g class="annotation-text-g" transform="rotate(0,300,413.6666666666667)"><g class="cursor-pointer" transform="translate(218,401)"><rect class="bg" x="0.5" y="0.5" width="163" height="25" style="stroke-width: 1px; stroke: rgb(0, 0, 0); stroke-opacity: 0; fill: rgb(0, 0, 0); fill-opacity: 0;"/><text class="annotation-text" text-anchor="middle" x="81.828125" y="19" style="font-family: 'Open Sans', verdana, arial, sans-serif; font-size: 16px; fill: rgb(36, 36, 36); fill-opacity: 1; white-space: pre;">Phase-space distance</text></g></g></g></g></svg>