<svg class="main-svg" xmlns="http://www.w3.org/2000/svg" xmlns:xlink="http://www.w3.org/1999/xlink" width="600" height="600" style="" viewBox="0 0 600 600"><rect x="0" y="0" width="600" height="600" style="fill: rgb(255, 255, 255); fill-opacity: 1;"/><defs id="defs-96f71e"><g class="clips"><clipPath id="clip96f71exyplot" class="plotclip"><rect width="440" height="93.33333333333333"/></clipPath><clipPath id="clip96f71ex2y2plot" class="plotclip"><rect width="440" height="93.33333333333336"/></clipPath><clipPath id="clip96f71ex3y3plot" class="plotclip"><rect width="440" height="93.33333333333334"/></clipPath><clipPath class="axesclip" id="clip96f71ex"><rect x="80" y="0" width="440" height="600"/></clipPath><clipPath class="axesclip" id="clip96f71ey"><rect x="0" y="100" width="600" height="93.33333333333333"/></clipPath><clipPath class="axesclip" id="clip96f71exy"><rect x="80" y="100" width="440" height="93.33333333333333"/></clipPath><clipPath class="axesclip" id="clip96f71ey2"><rect x="0" y="263.3333333333333" width="600" height="93.33333333333336"/></clipPath><clipPath class="axesclip" id="clip96f71exy2"><rect x="80" y="263.3333333333333" width="440" height="93.33333333333336"/></clipPath><clipPath class="axesclip" id="clip96f71ey3"><rect x="0" y="426.6666666666667" width="600" height="93.33333333333334"/></clipPath><clipPath class="axesclip" id="clip96f71exy3"><rect x="80" y="426.6666666666667" width="440" height="93.33333333333334"/></clipPath><clipPath class="axesclip" id="clip96f71ex2"><rect x="80" y="0" width="440" height="600"/></clipPath><clipPath class="axesclip" id="clip96f71ex2y"><rect x="80" y="100" width="440" height="93.33333333333333"/></clipPath><clipPath class="axesclip" id="clip96f71ex2y2"><rect x="80" y="263.3333333333333" width="440" height="93.33333333333336"/></clipPath><clipPath class="axesclip" id="clip96f71ex2y3"><rect x="80" y="426.6666666666667" width="440" height="93.33333333333334"/></clipPath><clipPath class="axesclip" id="clip96f71ex3"><rect x="80" y="0" width="440" height="600"/></clipPath><clipPath class="axesclip" id="clip96f71ex3y"><rect x="80" y="100" width="440" height="93.33333333333333"/></clipPath><clipPath class="axesclip" id="clip96f71ex3y2"><rect x="80" y="263.3333333333333" width="440" height="93.33333333333336"/></clipPath><clipPath class="axesclip" id="clip96f71ex3y3"><rect x="80" y="426.6666666666667" width="440" height="93.33333333333334"/></clipPath></g><g class="gradients"/><g class="patterns"/></defs><g class="bglayer"/><g class="layer-below"><g class="imagelayer"/><g class="shapelayer"/></g><g class="cartesianlayer"><g class="subplot xy"><g class="layer-subplot"><g class="shapelayer"/><g class="imagelayer"/></g><g class="gridlayer"><g class="x"/><g class="y"/></g><g class="zerolinelayer"/><path class="xlines-below"/><path class="ylines-below"/><g class="overlines-below"/><g class="xaxislayer-below"/><g class="yaxislayer-below"/><g class="overaxes-below"/><g class="plot" transform="translate(80,100)" clip-path="url(#clip96f71exyplot)"><g class="scatterlayer mlayer"><g class="trace scatter trace3c2415" style="stroke-miterlimit: 2; opacity: 1;"><g class="fills"/><g class="errorbars"/><g class="lines"><path class="js-line" d="M0,54.83L0.43,40.01L0.86,41.15L1.29,42.26L6.03,51.98L6.46,52.62L10.33,56.99L10.76,57.27L13.35,58.05L13.78,57.98L15.5,56.81L15.93,56.24L17.65,52.36L18.08,50.85L20.23,38.72L20.67,35.26L24.11,8.05L24.54,7.72L25.4,10.6L25.83,13.53L30.57,48.42L31,50.06L34.44,59.2L34.87,60.14L43.48,77.32L43.91,77.35L44.77,76.48L45.21,75.54L46.93,68.61L47.36,66.38L50.37,53.97L50.8,53.17L52.52,52.1L52.95,52.26L55.11,54.38L55.54,54.98L60.27,62.86L60.7,63.64L64.58,72.24L65.01,73.36L68.88,81.64L69.32,81.55L70.18,80.01L70.61,78.41L72.76,64.24L73.19,61.03L75.34,50.15L75.77,49.17L77.06,47.92L77.5,47.94L79.22,49.14L79.65,49.63L86.11,56.06L86.54,56.21L88.69,56L89.12,55.74L90.84,53.43L91.27,52.42L92.99,46.33L93.42,44.15L95.58,28.78L96.01,25.04L98.16,10.28L98.59,9.57L99.02,9.92L99.45,11.29L101.17,23.71L101.6,27.4L104.62,46.43L105.05,48.12L108.06,56.45L108.49,57.37L119.26,79.58L119.69,79.43L120.55,77.99L120.98,76.59L123.13,64.63L123.56,61.91L125.71,52.41L126.14,51.45L127.87,50.14L128.3,50.25L130.45,52.28L130.88,52.84L142.07,69.43L142.5,70.29L145.52,77.86L145.95,79.21L148.96,87.28L149.39,87.33L150.25,85.39L150.68,83.14L152.41,66.79L152.84,62L154.99,45.67L155.42,44.27L157.14,42.27L157.57,42.33L160.16,43.93L160.59,44.25L163.17,45.34L163.6,45.29L165.32,44.2L165.75,43.66L167.91,38.99L168.34,37.69L173.5,20.99L173.93,20.94L174.79,21.92L175.23,22.84L177.81,32.22L178.24,33.84L181.68,43.66L182.11,44.4L184.7,47.29L185.13,47.48L186.85,47.39L187.28,47.09L189,44.84L189.43,43.94L191.59,37.01L192.02,35.11L195.89,18.82L196.32,18.37L197.18,18.96L197.61,19.88L199.77,29.14L200.2,31.26L203.64,44.19L204.07,45.22L207.08,50.29L207.51,50.74L209.67,51.92L210.1,51.93L211.82,51.05L212.25,50.54L213.97,46.96L214.4,45.62L216.56,35.62L216.99,32.96L220.43,14.29L220.86,14.07L221.72,15.87L222.15,17.72L228.18,48.21L228.61,49.33L232.49,56.65L232.92,57.28L238.94,64.35L239.37,64.8L245.83,72.27L246.26,72.97L248.85,78.68L249.28,79.93L253.15,91.5L253.58,91.23L254.44,87.8L254.87,84.34L259.18,40.77L259.61,39.7L260.9,38.4L261.33,38.36L264.34,39.54L264.77,39.68L266.93,39.97L267.36,39.85L269.51,38.23L269.94,37.71L272.95,32.32L273.39,31.42L275.97,27.02L276.4,26.69L277.69,26.52L278.12,26.8L280.27,30.07L280.7,30.97L285.44,39.33L285.87,39.73L288.02,40.78L288.45,40.76L290.18,39.79L290.61,39.33L293.19,34.61L293.62,33.61L297.5,25.52L297.93,25.23L299.22,25.6L299.65,26.11L302.23,31.81L302.66,32.89L306.54,40.57L306.97,41.06L309.12,42.27L309.55,42.27L311.27,41.37L311.7,40.91L313.86,37.18L314.29,36.14L319.02,24.12L319.45,23.83L320.31,24.03L320.74,24.49L322.47,28.28L322.9,29.53L327.2,40.58L327.63,41.3L329.78,43.65L330.22,43.88L331.94,43.84L332.37,43.63L334.09,41.59L334.52,40.77L337.1,33.56L337.53,32.04L340.98,22.11L341.41,21.89L342.27,22.37L342.7,23.09L344.85,29.77L345.28,31.37L348.73,41.65L349.16,42.53L351.74,45.97L352.17,46.26L353.89,46.53L354.32,46.35L356.05,44.56L356.48,43.81L358.63,37.87L359.06,36.25L363.37,19.93L363.8,19.57L364.66,20.12L365.09,21L367.24,29.31L367.67,31.25L371.12,43.36L371.55,44.38L374.56,48.99L374.99,49.36L376.71,49.97L377.14,49.92L378.86,48.66L379.3,48L381.02,44.05L381.45,42.57L384.03,29.83L384.46,27.28L387.05,16.26L387.48,16.1L388.34,17.61L388.77,19.16L395.23,47.75L395.66,48.76L398.67,53.92L399.1,54.42L402.11,56.69L402.54,56.82L404.27,56.59L404.7,56.33L406.42,53.96L406.85,52.98L408.57,46.89L409,44.74L411.59,25.22L412.02,21.35L414.17,8.98L414.6,9.26L415.46,13L415.89,16.09L420.2,46.81L420.63,48.55L423.64,57.04L424.07,57.97L433.97,78.47L434.4,78.44L435.26,77.34L435.69,76.23L437.42,68.34L437.85,65.83L440,55.01" style="vector-effect: non-scaling-stroke; fill: none; stroke: rgb(68, 170, 153); stroke-opacity: 1; stroke-width: 2px; opacity: 1;"/></g><g class="points"/><g class="text"/></g><g class="trace scatter trace33ee47" style="stroke-miterlimit: 2; opacity: 1;"><g class="fills"/><g class="errorbars"/><g class="lines"><path class="js-line" d="M0,38.84L4.74,49.78L5.17,50.54L9.04,55.87L9.47,56.28L12.49,58.02L12.92,58.06L14.64,57.56L15.07,57.25L16.79,54.68L17.22,53.63L18.94,46.97L19.37,44.58L21.96,23.41L22.39,19.32L24.11,8.05L24.54,7.72L25.4,10.6L25.83,13.53L30.57,48.42L31,50.06L34.44,59.2L34.87,60.14L43.48,77.32L43.91,77.35L44.77,76.48L45.21,75.54L46.93,68.61L47.36,66.38L50.37,53.97L50.8,53.17L52.52,52.1L52.95,52.26L55.11,54.38L55.54,54.98L60.27,62.86L60.7,63.64L64.58,72.24L65.01,73.36L68.88,81.64L69.32,81.55L70.18,80.01L70.61,78.41L72.76,64.24L73.19,61.03L75.34,50.15L75.77,49.17L77.06,47.92L77.5,47.94L79.22,49.14L79.65,49.63L86.11,56.06L86.54,56.21L88.69,56L89.12,55.74L90.84,53.43L91.27,52.42L92.99,46.33L93.42,44.15L95.58,28.78L96.01,25.04L98.16,10.28L98.59,9.57L99.02,9.92L99.45,11.29L101.17,23.71L101.6,27.4L104.62,46.43L105.05,48.12L108.06,56.45L108.49,57.37L119.26,79.58L119.69,79.43L120.55,77.99L120.98,76.59L123.13,64.63L123.56,61.91L125.71,52.41L126.14,51.45L127.87,50.14L128.3,50.25L130.45,52.28L130.88,52.84L142.07,69.43L142.5,70.29L145.52,77.86L145.95,79.21L148.96,87.28L149.39,87.33L150.25,85.39L150.68,83.14L152.41,66.79L152.84,62L154.99,45.67L155.42,44.27L157.14,42.27L157.57,42.33L160.16,43.93L160.59,44.25L163.17,45.34L163.6,45.3L165.32,44.2L165.75,43.66L167.91,38.99L168.34,37.69L173.5,20.99L173.93,20.94L174.79,21.92L175.23,22.84L177.81,32.22L178.24,33.84L181.68,43.66L182.11,44.4L184.7,47.29L185.13,47.48L186.85,47.39L187.28,47.09L189,44.84L189.43,43.94L191.59,37.01L192.02,35.11L195.89,18.82L196.32,18.37L197.18,18.96L197.61,19.88L199.77,29.14L200.2,31.26L203.64,44.19L204.07,45.22L207.08,50.29L207.51,50.74L209.67,51.92L210.1,51.93L211.82,51.05L212.25,50.54L213.97,46.96L214.4,45.62L216.56,35.62L216.99,32.96L220.43,14.29L220.86,14.07L221.72,15.87L222.15,17.72L228.18,48.21L228.61,49.33L232.49,56.65L232.92,57.28L238.94,64.35L239.37,64.8L245.83,72.27L246.26,72.97L248.85,78.68L249.28,79.93L253.15,91.5L253.58,91.23L254.44,87.8L254.87,84.34L259.18,40.77L259.61,39.7L260.9,38.4L261.33,38.36L264.34,39.54L264.77,39.69L267.36,39.85L267.79,39.66L269.94,37.71L270.37,37.12L274.25,29.61L274.68,28.83L276.83,26.5L277.26,26.45L278.55,27.24L278.98,27.78L282.43,34.51L282.86,35.38L285.87,39.73L286.3,40.09L288.45,40.76L288.88,40.64L291.04,38.73L291.47,38.06L294.05,32.53L294.48,31.44L297.5,25.52L297.93,25.23L299.22,25.6L299.65,26.11L302.23,31.81L302.66,32.89L306.54,40.57L306.97,41.06L309.12,42.27L309.55,42.27L311.27,41.37L311.7,40.91L313.86,37.18L314.29,36.14L319.02,24.12L319.45,23.83L320.31,24.03L320.74,24.49L322.47,28.28L322.9,29.53L327.2,40.58L327.63,41.3L329.78,43.65L330.22,43.88L331.94,43.84L332.37,43.63L334.09,41.59L334.52,40.77L337.1,33.56L337.53,32.04L340.98,22.11L341.41,21.89L342.27,22.37L342.7,23.09L344.85,29.77L345.28,31.37L348.73,41.65L349.16,42.53L351.74,45.97L352.17,46.26L353.89,46.53L354.32,46.35L356.05,44.56L356.48,43.81L358.63,37.87L359.06,36.25L363.37,19.93L363.8,19.57L364.66,20.12L365.09,21L367.24,29.31L367.67,31.25L371.12,43.36L371.55,44.38L374.56,48.99L374.99,49.36L376.71,49.97L377.14,49.92L378.86,48.66L379.3,48L381.02,44.05L381.45,42.57L384.03,29.83L384.46,27.28L387.05,16.26L387.48,16.1L388.34,17.61L388.77,19.16L395.23,47.75L395.66,48.76L398.67,53.92L399.1,54.42L402.11,56.69L402.54,56.82L404.27,56.59L404.7,56.33L406.42,53.96L406.85,52.98L408.57,46.89L409,44.74L411.59,25.22L412.02,21.35L414.17,8.98L414.6,9.26L415.46,13L415.89,16.09L420.2,46.81L420.63,48.55L423.64,57.04L424.07,57.97L433.97,78.47L434.4,78.44L435.26,77.34L435.69,76.23L437.42,68.34L437.85,65.83L440,55.01" style="vector-effect: non-scaling-stroke; fill: none; stroke: rgb(0, 0, 0); stroke-opacity: 1; stroke-width: 1px; opacity: 1; stroke-dasharray: 9px, 9px;"/></g><g class="points"/><g class="text"/></g></g></g><g class="overplot"/><path class="xlines-above crisp" d="M79,193.83333333333331H520" style="fill: none; stroke-width: 1px; stroke: rgb(36, 36, 36); stroke-opacity: 1;"/><path class="ylines-above crisp" d="M79.5,100V193.33333333333331" style="fill: none; stroke-width: 1px; stroke: rgb(36, 36, 36); stroke-opacity: 1;"/><g class="overlines-above"/><g class="xaxislayer-above"><path class="xtick ticks crisp" d="M0,194.33333333333331v5" transform="translate(80,0)" style="stroke: rgb(68, 68, 68); stroke-opacity: 1; stroke-width: 1px;"/><path class="xtick ticks crisp" d="M0,194.33333333333331v5" transform="translate(190.22,0)" style="stroke: rgb(68, 68, 68); stroke-opacity: 1; stroke-width: 1px;"/><path class="xtick ticks crisp" d="M0,194.33333333333331v5" transform="translate(300.43,0)" style="stroke: rgb(68, 68, 68); stroke-opacity: 1; stroke-width: 1px;"/><path class="xtick ticks crisp" d="M0,194.33333333333331v5" transform="translate(410.65,0)" style="stroke: rgb(68, 68, 68); stroke-opacity: 1; stroke-width: 1px;"/></g><g class="yaxislayer-above"><path class="ytick ticks crisp" d="M79,0h-5" transform="translate(0,175.82999999999998)" style="stroke: rgb(68, 68, 68); stroke-opacity: 1; stroke-width: 1px;"/><path class="ytick ticks crisp" d="M79,0h-5" transform="translate(0,152.5)" style="stroke: rgb(68, 68, 68); stroke-opacity: 1; stroke-width: 1px;"/><path class="ytick ticks crisp" d="M79,0h-5" transform="translate(0,129.17000000000002)" style="stroke: rgb(68, 68, 68); stroke-opacity: 1; stroke-width: 1px;"/><path class="ytick ticks crisp" d="M79,0h-5" transform="translate(0,105.83)" style="stroke: rgb(68, 68, 68); stroke-opacity: 1; stroke-width: 1px;"/><g class="ytick"><text text-anchor="end" x="71.6" y="4.199999999999999" transform="translate(0,175.82999999999998)" style="font-family: 'Open Sans', verdana, arial, sans-serif; font-size: 12px; fill: rgb(36, 36, 36); fill-opacity: 1; white-space: pre; opacity: 1;">0</text></g><g class="ytick"><text text-anchor="end" x="71.6" y="4.199999999999999" style="font-family: 'Open Sans', verdana, arial, sans-serif; font-size: 12px; fill: rgb(36, 36, 36); fill-opacity: 1; white-space: pre; opacity: 1;" transform="translate(0,152.5)">20</text></g><g class="ytick"><text text-anchor="end" x="71.6" y="4.199999999999999" style="font-family: 'Open Sans', verdana, arial, sans-serif; font-size: 12px; fill: rgb(36, 36, 36); fill-opacity: 1; white-space: pre; opacity: 1;" transform="translate(0,129.17000000000002)">40</text></g><g class="ytick"><text text-anchor="end" x="71.6" y="4.199999999999999" style="font-family: 'Open Sans', verdana, arial, sans-serif; font-size: 12px; fill: rgb(36, 36, 36); fill-opacity: 1; white-space: pre; opacity: 1;" transform="translate(0,105.83)">60</text></g></g><g class="overaxes-above"/></g><g class="subplot x2y2"><g class="layer-subplot"><g class="shapelayer"/><g class="imagelayer"/></g><g class="gridlayer"><g class="x2"/><g class="y2"/></g><g class="zerolinelayer"/><path class="xlines-below"/><path class="ylines-below"/><g class="overlines-below"/><g class="xaxislayer-below"/><g class="yaxislayer-below"/><g class="overaxes-below"/><g class="plot" transform="translate(80,263.3333333333333)" clip-path="url(#clip96f71ex2y2plot)"><g class="scatterlayer mlayer"><g class="trace scatter tracec2cbc6" style="stroke-miterlimit: 2; opacity: 1;"><g class="fills"/><g class="errorbars"/><g class="lines"><path class="js-line" d="M0,58.67L0.43,54.92L0.86,56.92L1.29,57.18L9.04,58.99L9.47,58.97L13.35,58.27L13.78,58.07L17.65,55.09L18.08,54.56L20.23,50.76L20.67,49.47L24.11,41.95L24.54,41.71L26.69,46.34L27.12,47.84L31,59.04L31.43,59.73L35.3,62.98L35.73,63.08L40.47,66.45L40.9,67.32L42.62,69.35L43.05,70.16L46.93,74.62L47.36,74.55L49.08,72.55L49.51,71.8L54.25,63.66L54.68,63.69L56.83,62.44L57.26,62.47L61.57,62.93L62,63.22L62.86,63.52L63.29,63.87L65.01,65.31L65.44,65.91L66.73,67.56L67.16,68.29L71.9,76.2L72.33,76.31L73.62,74.72L74.05,73.66L78.79,63L79.22,62.57L82.23,60.58L82.66,60.36L86.54,58.41L86.97,58.35L91.27,55.44L91.7,55.05L94.72,49.97L95.15,49.02L97.73,43.38L98.16,42.6L99.02,42.89L99.45,43.32L101.17,47.36L101.6,48.7L105.48,58.66L105.91,59.28L108.49,61.49L108.92,61.71L110.22,62.21L110.65,62.59L114.09,64.19L114.52,65.02L122.27,75.48L122.7,75.47L124.42,73.33L124.85,72.39L128.73,64.26L129.16,63.99L131.31,62.13L131.74,62.11L137.77,60.97L138.2,60.98L142.5,62.34L142.94,62.61L145.95,65.23L146.38,66.73L148.1,69.83L148.53,70.92L151.98,78.41L152.41,78.46L153.7,75.81L154.13,74.21L157.57,63.52L158,63.03L167.48,52.67L167.91,52.24L173.5,46.57L173.93,46.58L175.66,47.8L176.09,48.42L182.11,55.45L182.54,55.72L183.84,56.05L184.27,56.09L187.28,55.24L187.71,55.14L192.02,50.58L192.45,49.84L196.32,45.61L196.75,45.65L198.9,48.06L199.33,48.8L203.64,55.71L204.07,56.14L206.65,57.39L207.08,57.4L208.81,57.3L209.24,57.32L212.25,55.84L212.68,55.51L216.56,50.22L216.99,49.53L220,44.22L220.43,44.02L221.72,44.76L222.15,45.39L224.31,50.25L224.74,51.42L228.18,57.7L228.61,58.12L231.62,59.65L232.05,59.74L244.97,61.1L245.4,61.38L248.41,63.21L248.85,63.62L250.57,66.37L251,67.98L251.86,69.39L252.29,70.68L256.16,79.97L256.59,79.64L258.32,73.12L258.75,71.07L260.9,64.19L261.33,63.39L263.48,61.75L263.91,61.35L264.77,60.99L265.21,60.35L266.07,59.3L266.5,58.68L269.94,53.4L270.37,52.92L274.68,49.28L275.11,49.07L277.69,48.6L278.12,48.8L280.7,50.35L281.14,50.58L285.44,53.46L285.87,53.45L287.59,53.77L288.02,53.53L289.75,53.23L290.18,53.03L297.5,48.14L297.93,48.08L300.08,48.85L300.51,49.07L306.54,53.94L306.97,54.06L309.98,54.02L310.41,53.92L316.01,49.69L316.44,49.27L319.45,47.58L319.88,47.61L322.04,48.91L322.47,49.36L328.06,54.67L328.49,54.66L331.94,54.58L332.37,54.4L340.55,47.08L340.98,46.9L342.7,47.44L343.13,47.79L350.02,55.39L350.45,55.56L352.6,55.69L353.03,55.64L355.62,54.49L356.05,54.18L358.63,51.56L359.06,51.02L363.37,46.1L363.8,46.09L365.09,46.69L365.52,47.16L367.67,50.53L368.1,51.27L371.55,55.82L371.98,56.07L374.13,56.85L374.56,56.88L375.85,56.65L376.28,56.53L377.57,56.2L378,55.95L381.88,52.21L382.31,51.54L387.05,44.71L387.48,44.86L388.77,45.94L389.2,46.58L395.66,57.74L396.09,58.02L398.67,58.7L399.1,58.76L402.54,58.46L402.97,58.09L404.7,57.37L405.13,56.99L408.14,54.03L408.57,53.37L411.59,46.97L412.02,45.3L414.17,42.31L414.6,42.88L415.46,43.75L415.89,44.75L421.49,59.49L421.92,60.07L425.36,62.46L425.79,62.67L429.24,64.91L429.67,65.37L430.53,65.54L430.96,66.73L433.97,71L434.4,71.8L436.99,74.94L437.42,75.03L439.14,73.46L439.57,72.63L440,71.75" style="vector-effect: non-scaling-stroke; fill: none; stroke: rgb(136, 204, 238); stroke-opacity: 1; stroke-width: 2px; opacity: 1;"/></g><g class="points"/><g class="text"/></g><g class="trace scatter tracee69810" style="stroke-miterlimit: 2; opacity: 1;"><g class="fills"/><g class="errorbars"/><g class="lines"><path class="js-line" d="M0,58.8L11.62,58.73L12.05,58.62L15.93,56.77L16.36,56.44L18.94,53.19L19.37,52.41L24.54,42.14L24.97,42.4L26.26,45.03L26.69,46.39L31,58.91L31.43,59.6L34.01,62.1L34.44,62.37L40.04,66.11L40.47,66.59L44.34,72.19L44.77,72.83L46.93,74.57L47.36,74.5L48.65,73.29L49.08,72.62L54.68,63.49L55.11,63.17L58.12,62.08L58.55,62.09L62,62.9L62.43,63.12L65.44,65.72L65.87,66.29L68.88,71.68L69.32,72.58L71.9,76.33L72.33,76.31L73.62,74.75L74.05,73.79L79.22,62.01L79.65,61.52L82.23,59.76L82.66,59.58L89.98,56.68L90.41,56.32L92.99,53.21L93.42,52.49L98.59,42.77L99.02,42.86L100.31,44.94L100.74,46.12L105.48,58.65L105.91,59.21L108.92,61.57L109.35,61.79L114.95,65.15L115.38,65.56L118.4,69.92L118.83,70.71L121.84,75.31L122.27,75.48L123.56,74.77L123.99,74.13L130.45,62.24L130.88,61.91L133.89,60.73L134.32,60.69L139.06,61.01L139.49,61.09L143.37,62.8L143.8,63.13L146.38,66.27L146.81,67.03L149.82,74.59L150.25,75.79L151.98,78.58L152.41,78.47L153.7,75.88L154.13,74.42L158.43,60.55L158.86,59.79L161.45,57.03L161.88,56.75L167.91,52.17L168.34,51.7L173.5,46.58L173.93,46.62L175.66,47.81L176.09,48.35L181.68,55.34L182.11,55.58L184.7,56.06L185.13,56L187.71,55.03L188.14,54.76L191.15,51.74L191.59,51.17L195.89,45.81L196.32,45.7L197.61,46.3L198.04,46.8L201.49,52.91L201.92,53.62L204.93,56.71L205.36,56.94L207.95,57.43L208.38,57.39L211.82,56.12L212.25,55.8L214.83,53.1L215.26,52.49L220.43,44.31L220.86,44.27L222.15,45.53L222.58,46.29L228.18,57.65L228.61,58.06L231.62,59.58L232.05,59.69L246.26,61.74L246.69,61.95L249.28,64.27L249.71,64.88L251.86,69.33L252.29,70.56L255.73,80.04L256.16,80.06L257.03,78.62L257.46,77.23L262.62,58.23L263.05,57.52L265.64,54.91L266.07,54.63L276.83,48.54L277.26,48.56L279.41,49.43L279.84,49.73L286.3,53.6L286.73,53.65L289.75,53.17L290.18,52.98L294.05,50.25L294.48,49.89L297.93,48.1L298.36,48.11L300.51,49.11L300.94,49.46L306.54,53.91L306.97,54.05L309.55,54.1L309.98,53.99L312.99,52.43L313.42,52.08L319.45,47.57L319.88,47.58L322.04,48.88L322.47,49.34L328.06,54.52L328.49,54.67L331.08,54.75L331.51,54.63L334.52,52.93L334.95,52.57L341.41,46.96L341.84,47.02L343.56,48.29L343.99,48.81L349.59,55.12L350.02,55.33L352.6,55.71L353.03,55.63L356.05,54.17L356.48,53.81L359.49,50.43L359.92,49.85L363.37,46.17L363.8,46.12L365.09,46.73L365.52,47.18L368.53,52.04L368.96,52.71L371.98,56.05L372.41,56.3L374.99,56.87L375.42,56.84L378.43,55.7L378.86,55.41L381.45,52.85L381.88,52.24L387.05,44.99L387.48,44.95L388.77,46.05L389.2,46.72L395.23,57.25L395.66,57.58L398.67,58.68L399.1,58.71L402.97,58.1L403.41,57.95L406.42,56.05L406.85,55.61L409.43,51.81L409.86,50.93L414.17,42.54L414.6,42.63L415.89,44.74L416.32,45.94L421.06,58.85L421.49,59.46L424.5,61.98L424.93,62.23L430.1,65.58L430.53,66.06L433.97,71.1L434.4,71.83L436.99,74.99L437.42,75.07L438.71,74.13L439.14,73.47L440,71.78" style="vector-effect: non-scaling-stroke; fill: none; stroke: rgb(0, 0, 0); stroke-opacity: 1; stroke-width: 1px; opacity: 1; stroke-dasharray: 9px, 9px;"/></g><g class="points"/><g class="text"/></g><g class="trace scatter tracec387a0" style="stroke-miterlimit: 2; opacity: 1;"><g class="fills"/><g class="errorbars"/><g class="lines"><path class="js-line" d="M0,58.67L0.43,60.63L0.86,58.22L3.87,58.96L4.31,59.32L9.47,58.69L9.9,58.66L15.93,54.53L16.36,53.9L19.8,44.96L20.23,43.38L22.82,37.67L23.25,37.97L24.11,40.53L24.54,42.9L28.41,62.63L28.85,63.19L30.57,64.22L31,64.17L34.44,64.45L34.87,64.5L37.03,65.7L37.46,66.22L39.61,68.78L40.04,69.5L44.77,77.24L45.21,77.36L46.07,76.53L46.5,75.94L51.23,62.52L51.66,62.4L53.39,61.25L53.82,61.19L58.12,62.12L58.55,62.32L59.41,62.34L59.84,63.57L60.7,62.94L61.14,63.65L63.72,66.6L64.15,67.18L66.73,72.69L67.16,73.89L69.32,80.08L69.75,79.81L70.18,80.19L70.61,81.02L71.04,78.91L71.9,77.45L72.33,75.07L76.2,60.48L76.63,60.11L78.79,59.08L79.22,59.02L82.23,58.51L82.66,58.23L83.95,58.33L84.38,58L86.97,57.17L87.4,56.83L90.84,53.16L91.27,52.08L92.56,49.43L92.99,48.29L96.87,38.65L97.3,39.05L97.73,39.26L98.16,40.82L100.31,52.53L100.74,55.02L102.9,61.98L103.33,62.49L105.05,63.2L105.48,63.16L108.92,62.98L109.35,63.53L110.65,63.5L111.08,63.76L114.09,67.04L114.52,67.27L116.67,71.41L117.1,72.5L120.55,79.46L120.98,78.72L122.7,74.36L123.13,73.01L126.14,63.04L126.58,61.99L127.87,60.63L128.3,60.45L130.45,60.19L130.88,60.24L135.62,60.64L136.05,60.55L139.06,61.65L139.49,61.81L140.78,62.48L141.21,62.8L142.5,64.13L142.94,64.66L145.52,68.95L145.95,70.58L146.81,72.66L147.24,74.12L150.68,85.05L151.12,83.24L153.27,70.34L153.7,66.77L155.85,58.52L156.28,58.21L157.57,56.88L158,56.74L161.88,54.75L162.31,54.24L167.05,50.06L167.48,49.26L171.78,44.71L172.21,44.83L173.93,47.26L174.36,48.13L177.81,55.6L178.24,56.01L179.96,57.27L180.39,57.38L184.27,56.13L184.7,55.82L187.71,53.23L188.14,52.61L191.15,47.9L191.59,46.88L194.17,43.18L194.6,43.29L195.89,44.65L196.32,45.58L201.06,57.64L201.49,58.04L202.78,58.67L203.21,58.7L204.93,58.44L205.36,58.42L208.81,56.74L209.24,56.55L212.25,53.6L212.68,52.98L216.56,44.83L216.99,43.58L219.14,40.97L219.57,41.43L220.86,44.83L221.29,46.7L224.74,59.13L225.17,59.67L226.89,60.88L227.32,61.01L230.76,60.39L231.19,60.5L241.53,60.63L241.96,60.85L246.69,63.72L247.12,64.16L249.71,69.42L250.14,70.91L251.86,77.39L252.29,79.93L254.01,87.28L254.44,87.97L255.73,82.27L256.16,78.8L258.32,61.01L258.75,59.45L260.04,56.59L260.47,56.12L263.91,54.66L264.34,54.04L268.65,50.69L269.08,50.52L274.68,47.55L275.11,47.64L276.4,48.21L276.83,48.44L279.84,51.95L280.27,52.39L282.86,54.29L283.29,54.38L285.44,54.42L285.87,54.12L287.59,53.59L288.02,53.14L289.75,52L290.18,51.6L295.34,46.94L295.77,46.87L298.36,48.41L298.79,48.95L303.52,54.77L303.95,54.86L305.68,55.22L306.11,55.16L309.55,53.46L309.98,53.12L312.99,50.19L313.42,49.61L317.73,46.26L318.16,46.41L319.88,48.13L320.31,48.88L325.05,55.54L325.48,55.58L327.2,55.81L327.63,55.86L328.92,55.37L329.35,55.05L330.65,54.36L331.08,54.09L335.81,48.65L336.24,48.07L339.26,45.07L339.69,45.13L340.98,46.44L341.41,47.09L346.58,56.38L347.01,56.47L348.73,56.94L349.16,56.86L352.17,55.6L352.6,55.28L355.19,52.92L355.62,52.41L362.07,44.01L362.5,44.26L363.37,45.32L363.8,46.07L368.53,57.1L368.96,57.47L371.55,58.14L371.98,57.9L373.27,57.52L373.7,57.41L377.57,54.75L378,54.27L381.45,48.67L381.88,47.77L385.32,42.17L385.75,42.22L386.61,43.34L387.05,44.36L389.2,51.98L389.63,53.45L391.78,58.39L392.21,59.04L393.5,59.96L393.93,59.87L396.52,59.66L396.95,59.54L398.24,59.21L398.67,58.74L400.39,58.41L400.82,58.16L402.54,57.54L402.97,56.97L404.27,56.06L404.7,55.62L407.71,50.71L408.14,49.43L412.45,38.38L412.88,38.41L414.17,42.26L414.6,44.24L417.61,60.58L418.04,61.54L419.77,63.28L420.2,63.53L421.92,63.47L422.35,63.52L425.36,64.06L425.79,64.28L429.24,67.4L429.67,68L433.11,74.99L433.54,75.97L435.26,78.23L435.69,77.94L436.56,76.95L436.99,76.19L440,65.68" style="vector-effect: non-scaling-stroke; fill: none; stroke: rgb(204, 102, 119); stroke-opacity: 1; stroke-width: 2px; opacity: 1;"/></g><g class="points"/><g class="text"/></g><g class="trace scatter trace0a11bd" style="stroke-miterlimit: 2; opacity: 1;"><g class="fills"/><g class="errorbars"/><g class="lines"><path class="js-line" d="M0,58.93L3.87,59.46L4.31,59.44L10.33,58.51L10.76,58.37L14.21,56.35L14.64,55.93L16.79,53.02L17.22,52.19L19.8,45.14L20.23,43.65L22.82,37.4L23.25,37.75L24.11,40.41L24.54,42.69L27.98,61.69L28.41,62.62L30.14,64.05L30.57,64.12L35.3,64.5L35.73,64.72L38.75,67.42L39.18,68.02L45.21,77.2L45.64,76.99L46.93,74.67L47.36,73.39L51.23,62.36L51.66,61.84L53.82,60.84L54.25,60.86L58.12,61.94L58.55,62.12L62.43,64.83L62.86,65.32L65.44,69.44L65.87,70.37L70.18,80L70.61,79.92L71.47,78.44L71.9,77.01L76.2,59.72L76.63,59.11L78.36,58.24L78.79,58.23L85.24,57.95L85.68,57.81L88.69,55.88L89.12,55.45L91.7,51.45L92.13,50.49L96.87,38.42L97.3,38.58L98.16,40.61L98.59,42.45L102.47,61.26L102.9,62L104.62,63.08L105.05,63.1L110.22,63.58L110.65,63.75L113.23,65.76L113.66,66.24L116.67,71.44L117.1,72.42L120.55,78.66L120.98,78.54L122.27,76.05L122.7,74.56L126.58,61.18L127.01,60.59L129.16,59.59L129.59,59.59L137.34,61.04L137.77,61.17L141.21,62.75L141.64,63.1L144.23,66.34L144.66,67.15L147.24,74.28L147.67,75.87L150.25,83.78L150.68,83.77L151.55,81.49L151.98,79.21L155.85,56.48L156.28,55.73L158,54.84L158.43,54.85L162.31,54.58L162.74,54.37L165.32,52.33L165.75,51.84L171.78,44.6L172.21,44.73L173.5,46.31L173.93,47.17L178.67,56.57L179.1,56.89L181.25,57.31L181.68,57.24L185.56,55.31L185.99,54.95L189,51.43L189.43,50.76L194.6,43.26L195.03,43.43L196.32,45.53L196.75,46.69L201.06,57.68L201.49,58.09L203.64,58.76L204.07,58.69L207.51,57.51L207.95,57.29L211.39,54.6L211.82,54.1L214.4,49.81L214.83,48.88L218.71,40.95L219.14,40.97L220,42.1L220.43,43.26L225.17,59.73L225.6,60.21L227.32,60.87L227.75,60.85L238.51,60.33L238.94,60.38L244.11,61.68L244.54,61.92L247.12,64.25L247.55,64.85L249.71,69.46L250.14,70.79L254.44,86.6L254.87,86.09L255.73,81.97L256.16,78.49L259.18,55.19L259.61,54.01L260.9,52.57L261.33,52.51L266.93,52.49L267.36,52.27L271.66,49.07L272.09,48.73L274.68,47.52L275.11,47.55L277.26,48.87L277.69,49.34L282.43,54.06L282.86,54.24L285.44,54.35L285.87,54.22L288.88,52.64L289.32,52.29L295.77,46.9L296.2,46.92L297.93,47.92L298.36,48.4L303.52,54.69L303.95,54.88L306.54,55L306.97,54.88L309.98,53.13L310.41,52.78L317.73,46.16L318.16,46.31L319.88,48.1L320.31,48.81L324.62,55.13L325.05,55.41L327.2,55.88L327.63,55.81L330.65,54.39L331.08,54.07L334.52,50.45L334.95,49.84L338.83,45.31L339.26,45.19L340.55,45.76L340.98,46.31L343.56,51.74L343.99,52.67L346.58,56.29L347.01,56.54L349.16,56.82L349.59,56.74L352.6,55.31L353.03,55L356.48,51.26L356.91,50.62L361.64,43.94L362.07,43.93L363.37,45.24L363.8,46.09L368.96,57.48L369.39,57.75L371.55,58.08L371.98,58L375.42,56.47L375.85,56.2L378.86,53.24L379.3,52.63L382.74,46.02L383.17,45.09L385.32,42.02L385.75,42.06L386.61,43.14L387.05,44.17L391.78,58.62L392.21,59.09L394.36,59.89L394.79,59.85L399.96,58.56L400.39,58.41L403.84,56.43L404.27,56.04L406.85,52.39L407.28,51.53L410.29,43.08L410.72,41.71L412.45,38.13L412.88,38.23L413.74,40.22L414.17,42.1L418.04,61.58L418.47,62.32L420.2,63.43L420.63,63.48L425.36,63.95L425.79,64.16L428.38,66.26L428.81,66.77L431.82,71.92L432.25,72.84L435.26,77.93L435.69,77.94L436.56,77.02L436.99,76.07L440,65.22" style="vector-effect: non-scaling-stroke; fill: none; stroke: rgb(0, 0, 0); stroke-opacity: 1; stroke-width: 1px; opacity: 1; stroke-dasharray: 9px, 9px;"/></g><g class="points"/><g class="text"/></g><g class="trace scatter trace62f37c" style="stroke-miterlimit: 2; opacity: 1;"><g class="fills"/><g class="errorbars"/><g class="lines"><path class="js-line" d="M0,38.67L0.43,23.5L0.86,25.22L1.29,26.22L6.46,35.6L6.89,36.12L9.04,39.35L9.47,39.99L15.5,46.25L15.93,46.21L17.65,46.85L18.08,46.63L18.94,45.99L19.37,45.26L20.67,41.85L21.1,40.06L23.25,26.24L23.68,23L25.4,14.1L25.83,13.57L26.69,14.6L27.12,15.52L31.86,29.33L32.29,30.25L36.16,36.65L36.59,37.07L39.61,39.26L40.04,39.43L40.9,38.88L41.33,38.8L42.62,37.44L43.05,35.83L43.91,33.72L44.34,31.92L48.65,19.58L49.08,19.24L50.37,20.7L50.8,21.65L57.69,35.62L58.12,36.28L62.43,41.78L62.86,42.19L65.01,43.13L65.44,43.01L66.3,42.73L66.73,42.17L68.45,38.54L68.88,36.79L72.33,19.14L72.76,17.34L74.05,15.95L74.48,16.65L75.34,18.12L75.77,19.33L83.52,37.25L83.95,37.7L86.54,41.88L86.97,42.18L89.55,44.8L89.98,44.97L92.56,45.12L92.99,44.77L94.29,42.38L94.72,41.22L96.44,33.03L96.87,30.28L99.88,14.85L100.31,14.77L101.17,15.99L101.6,17.13L107.2,32L107.63,32.88L112.37,39.9L112.8,40.28L114.95,41.36L115.38,41.49L116.24,41.49L116.67,41.17L119.26,35.56L119.69,33.61L123.99,18.08L124.42,17.94L126.58,21L127.01,22.36L136.05,40.6L136.48,41.04L140.78,46.1L141.21,46.44L142.94,47.44L143.37,47.69L145.52,48.31L145.95,48.06L147.24,46.98L147.67,45.25L149.39,37.03L149.82,34.27L153.27,11.75L153.7,11.92L154.56,12.95L154.99,14L158,22.12L158.43,23.05L164.89,36.65L165.32,37.02L167.05,37.25L167.48,37.34L170.06,33.86L170.49,32.85L174.79,22.14L175.23,22.03L176.09,21.59L176.52,22.02L180.39,28.13L180.82,29.1L185.13,36.01L185.56,36.25L187.28,38.3L187.71,38.36L189.43,39.02L189.86,38.99L191.59,37.58L192.02,36.88L195.03,27.61L195.46,26.03L197.61,20.59L198.04,19.99L198.9,20.35L199.33,20.84L201.06,23.9L201.49,24.81L203.21,28.48L203.64,29.68L211.82,41.68L212.25,41.66L213.97,42.23L214.4,41.96L215.69,40.84L216.13,40.03L218.28,32.84L218.71,30.78L221.72,18.13L222.15,17.7L223.01,17.96L223.44,18.6L227.32,27.77L227.75,28.94L232.49,38.17L232.92,38.57L235.07,42.12L235.5,42.27L235.93,42.45L236.36,43.53L239.8,47.04L240.23,47.57L241.1,48.33L241.53,48.99L242.82,49.39L243.25,49.92L247.98,52.52L248.41,52.42L249.71,52.1L250.14,51.65L251.43,49.51L251.86,48.1L254.01,33.14L254.44,28.58L257.03,9.24L257.46,8.56L258.75,11.25L259.18,13.09L261.76,18.73L262.19,19.32L264.34,23.05L264.77,24.03L268.65,32.35L269.08,32.66L270.8,33.08L271.23,32.8L272.52,32.19L272.95,31.66L274.68,29.44L275.11,28.79L278.98,25.16L279.41,25.02L280.7,25.53L281.14,26.04L284.15,28.8L284.58,29.58L286.73,31.84L287.16,32.2L290.61,34.44L291.04,34.67L294.91,31.3L295.34,30.65L299.22,24.73L299.65,24.42L300.94,24.36L301.37,24.39L310.84,35.06L311.27,35.13L313.42,35.18L313.86,34.76L315.15,33.8L315.58,33.17L318.16,27.98L318.59,27.09L321.17,23.53L321.6,23.46L322.9,23.87L323.33,24.32L328.06,30.76L328.49,31.76L331.51,35.36L331.94,35.43L334.09,36.51L334.52,36.7L337.1,34.47L337.53,33.67L340.12,27.49L340.55,26.36L342.7,22.49L343.13,22.34L343.99,22.31L344.42,22.67L345.71,24.44L346.14,25.15L347.44,27.13L347.87,27.92L353.03,35.91L353.46,36.35L355.62,38.06L356.05,38.23L357.77,38.01L358.2,37.67L359.49,36.06L359.92,35.04L362.07,28.92L362.5,27.47L365.09,21.19L365.52,20.82L367.24,21.89L367.67,22.57L377.14,38.95L377.57,39.26L379.73,40.52L380.16,40.62L381.88,40.06L382.31,39.38L384.03,35.33L384.46,33.72L388.77,18.99L389.2,18.89L390.49,20.08L390.92,21.31L394.36,28.83L394.79,29.89L396.52,33.2L396.95,34.05L404.27,44.35L404.7,44.73L406.42,45.79L406.85,45.92L408.57,45.25L409,44.51L409.86,42.93L410.29,41.68L412.02,33.38L412.45,30.6L415.46,14.5L415.89,14.41L417.18,16.71L417.61,17.99L421.06,28.13L421.49,29.1L425.36,36.22L425.79,36.82L428.81,39.95L429.24,40.14L430.96,40.27L431.39,39.93L431.82,39.95L432.25,39.2L432.68,38.89L433.11,37.53L435.26,30.29L435.69,28.68L438.28,19.31L438.71,18.6L440,18.78" style="vector-effect: non-scaling-stroke; fill: none; stroke: rgb(221, 204, 119); stroke-opacity: 1; stroke-width: 2px; opacity: 1;"/></g><g class="points"/><g class="text"/></g><g class="trace scatter tracef42b56" style="stroke-miterlimit: 2; opacity: 1;"><g class="fills"/><g class="errorbars"/><g class="lines"><path class="js-line" d="M0,20L5.17,32.41L5.6,33.26L10.76,41.5L11.19,42.05L15.5,46.17L15.93,46.42L18.08,46.66L18.51,46.38L19.8,44.47L20.23,43.32L21.96,35.43L22.39,32.57L25.4,14.12L25.83,13.61L26.69,14.41L27.12,15.49L33.15,32.18L33.58,32.96L37.46,38.29L37.89,38.66L40.04,39.57L40.47,39.5L42.19,37.95L42.62,37.19L44.77,30.76L45.21,29.08L48.22,19.83L48.65,19.55L49.94,20.36L50.37,21.04L60.27,39.76L60.7,40.26L64.15,43.23L64.58,43.34L66.3,42.84L66.73,42.38L68.45,38.43L68.88,36.85L73.62,16.38L74.05,16.47L75.34,18.8L75.77,19.97L81.37,33.76L81.8,34.57L86.54,41.73L86.97,42.25L90.41,45.19L90.84,45.37L92.56,45.15L92.99,44.78L94.29,42.49L94.72,41.25L96.44,33.04L96.87,30.24L99.88,14.88L100.31,14.7L101.17,15.86L101.6,16.95L107.63,32.91L108.06,33.72L112.37,39.87L112.8,40.29L115.38,41.61L115.81,41.56L117.1,40.66L117.53,40.05L119.26,35.55L119.69,33.89L123.56,18.35L123.99,17.98L124.85,18.36L125.28,19L128.73,27.28L129.16,28.3L134.32,38.2L134.76,38.86L139.49,44.94L139.92,45.36L144.23,48.34L144.66,48.42L146.38,47.69L146.81,47.13L148.1,44L148.53,42.29L150.25,31.35L150.68,27.74L153.27,12.3L153.7,12.25L154.99,15.39L155.42,16.98L159.3,28.74L159.73,29.63L163.6,35.57L164.03,35.99L166.18,37.28L166.61,37.34L168.34,36.51L168.77,36.03L170.92,31.76L171.35,30.56L174.79,22.15L175.23,21.78L176.52,22L176.95,22.41L179.53,26.67L179.96,27.5L185.56,36.49L185.99,36.99L188.57,38.94L189,39.04L190.72,38.5L191.15,38.08L192.88,34.84L193.31,33.63L198.04,20.07L198.47,20.04L199.77,21.27L200.2,22.01L209.24,38.79L209.67,39.34L212.68,41.97L213.11,42.12L214.83,41.75L215.26,41.33L216.99,37.84L217.42,36.42L222.15,17.57L222.58,17.48L223.87,19.17L224.31,20.15L231.19,35.91L231.62,36.66L237.22,44.46L237.65,44.93L243.68,50.23L244.11,50.51L247.98,52.27L248.41,52.3L250.14,51.55L250.57,51.03L251.86,47.92L252.29,46.18L254.01,33.92L254.44,29.58L257.03,9.47L257.46,9.37L258.32,11.59L258.75,13.39L262.19,25.72L262.62,26.66L265.64,31.19L266.07,31.64L269.08,33.51L269.51,33.57L271.66,32.96L272.09,32.66L274.68,29.56L275.11,28.95L278.55,25.15L278.98,25.03L280.7,25.52L281.14,25.82L284.58,29.54L285.01,30.03L289.32,33.9L289.75,34.1L291.9,34.21L292.33,34.02L294.48,31.94L294.91,31.28L299.65,24.42L300.08,24.28L301.8,24.86L302.23,25.25L306.11,30.22L306.54,30.79L310.41,34.7L310.84,34.95L312.99,35.31L313.42,35.18L315.15,33.77L315.58,33.17L321.17,23.58L321.6,23.47L323.33,24.3L323.76,24.77L328.92,32.31L329.35,32.87L332.8,36.17L333.23,36.36L335.38,36.26L335.81,35.96L337.53,33.72L337.96,32.88L343.13,22.26L343.56,22.22L344.85,23.1L345.28,23.65L350.45,32.4L350.88,33.09L354.76,37.6L355.19,37.87L357.34,38.23L357.77,38.03L359.49,35.99L359.92,35.15L362.5,27.49L362.94,26.06L365.09,21.12L365.52,20.81L366.81,21.37L367.24,21.91L370.68,28.53L371.12,29.39L375.85,37.34L376.28,37.87L379.3,40.51L379.73,40.66L381.45,40.33L381.88,39.93L383.6,36.6L384.03,35.29L388.77,18.8L389.2,18.69L390.49,20.04L390.92,20.89L399.53,38.63L399.96,39.28L404.7,44.79L405.13,45.11L407.28,45.87L407.71,45.79L409,44.69L409.43,43.96L411.15,38.26L411.59,35.99L415.46,14.54L415.89,14.36L416.75,15.57L417.18,16.69L422.78,31.97L423.21,32.8L427.51,39.01L427.95,39.42L430.53,40.57L430.96,40.47L432.68,38.7L433.11,37.85L435.26,30.6L435.69,28.72L438.28,19.37L438.71,18.83L439.57,18.79L440,19.21" style="vector-effect: non-scaling-stroke; fill: none; stroke: rgb(0, 0, 0); stroke-opacity: 1; stroke-width: 1px; opacity: 1; stroke-dasharray: 9px, 9px;"/></g><g class="points"/><g class="text"/></g></g></g><g class="overplot"/><path class="xlines-above crisp" d="M79,357.1666666666667H520" style="fill: none; stroke-width: 1px; stroke: rgb(36, 36, 36); stroke-opacity: 1;"/><path class="ylines-above crisp" d="M79.5,263.3333333333333V356.6666666666667" style="fill: none; stroke-width: 1px; stroke: rgb(36, 36, 36); stroke-opacity: 1;"/><g class="overlines-above"/><g class="xaxislayer-above"><path class="x2tick ticks crisp" d="M0,357.6666666666667v5" transform="translate(80,0)" style="stroke: rgb(68, 68, 68); stroke-opacity: 1; stroke-width: 1px;"/><path class="x2tick ticks crisp" d="M0,357.6666666666667v5" transform="translate(190.22,0)" style="stroke: rgb(68, 68, 68); stroke-opacity: 1; stroke-width: 1px;"/><path class="x2tick ticks crisp" d="M0,357.6666666666667v5" transform="translate(300.43,0)" style="stroke: rgb(68, 68, 68); stroke-opacity: 1; stroke-width: 1px;"/><path class="x2tick ticks crisp" d="M0,357.6666666666667v5" transform="translate(410.65,0)" style="stroke: rgb(68, 68, 68); stroke-opacity: 1; stroke-width: 1px;"/></g><g class="yaxislayer-above"><path class="y2tick ticks crisp" d="M79,0h-5" transform="translate(0,350.00333333333333)" style="stroke: rgb(68, 68, 68); stroke-opacity: 1; stroke-width: 1px;"/><path class="y2tick ticks crisp" d="M79,0h-5" transform="translate(0,323.3333333333333)" style="stroke: rgb(68, 68, 68); stroke-opacity: 1; stroke-width: 1px;"/><path class="y2tick ticks crisp" d="M79,0h-5" transform="translate(0,296.6633333333333)" style="stroke: rgb(68, 68, 68); stroke-opacity: 1; stroke-width: 1px;"/><path class="y2tick ticks crisp" d="M79,0h-5" transform="translate(0,270.00333333333333)" style="stroke: rgb(68, 68, 68); stroke-opacity: 1; stroke-width: 1px;"/><g class="y2tick"><text text-anchor="end" x="71.6" y="4.199999999999999" transform="translate(0,350.00333333333333)" style="font-family: 'Open Sans', verdana, arial, sans-serif; font-size: 12px; fill: rgb(36, 36, 36); fill-opacity: 1; white-space: pre; opacity: 1;">−20</text></g><g class="y2tick"><text text-anchor="end" x="71.6" y="4.199999999999999" style="font-family: 'Open Sans', verdana, arial, sans-serif; font-size: 12px; fill: rgb(36, 36, 36); fill-opacity: 1; white-space: pre; opacity: 1;" transform="translate(0,323.3333333333333)">0</text></g><g class="y2tick"><text text-anchor="end" x="71.6" y="4.199999999999999" style="font-family: 'Open Sans', verdana, arial, sans-serif; font-size: 12px; fill: rgb(36, 36, 36); fill-opacity: 1; white-space: pre; opacity: 1;" transform="translate(0,296.6633333333333)">20</text></g><g class="y2tick"><text text-anchor="end" x="71.6" y="4.199999999999999" style="font-family: 'Open Sans', verdana, arial, sans-serif; font-size: 12px; fill: rgb(36, 36, 36); fill-opacity: 1; white-space: pre; opacity: 1;" transform="translate(0,270.00333333333333)">40</text></g></g><g class="overaxes-above"/></g><g class="subplot x3y3"><g class="layer-subplot"><g class="shapelayer"/><g class="imagelayer"/></g><g class="gridlayer"><g class="x3"/><g class="y3"/></g><g class="zerolinelayer"/><path class="xlines-below"/><path class="ylines-below"/><g class="overlines-below"/><g class="xaxislayer-below"/><g class="yaxislayer-below"/><g class="overaxes-below"/><g class="plot" transform="translate(80,426.6666666666667)" clip-path="url(#clip96f71ex3y3plot)"><g class="scatterlayer mlayer"><g class="trace scatter trace5f7cec" style="stroke-miterlimit: 2; opacity: 1;"><g class="fills"/><g class="errorbars"/><g class="lines"><path class="js-line" d="M0,6.21L0.86,76.71L1.29,77.7L3.87,83.9L4.31,86.24L6.03,89.07L6.46,88.99L8.18,92.4L8.61,90.97L9.9,92.79L10.33,91.53L11.62,93.1L12.05,92.12L13.35,92.89L13.78,93.17L14.64,93.1L15.07,91.74L15.5,92.88L15.93,92.1L16.36,92.03L18.08,93.15L18.51,92.75L19.8,92.28L20.23,91.74L21.53,92.56L21.96,93.08L22.39,90.61L22.82,91.25L23.25,91.59L23.68,92.61L24.11,91.76L24.54,90.86L25.4,93.06L25.83,92.63L26.26,92.92L26.69,92.19L27.12,93.12L27.55,92.22L28.41,93.1L28.85,92.84L29.71,92.56L30.14,91.5L31.43,92.08L31.86,91.88L33.58,91.91L34.01,91.49L35.3,91.8L35.73,91.61L37.03,91.26L37.46,91.79L39.18,91.67L39.61,91.76L40.47,92.44L40.9,90.83L42.19,93.21L42.62,91.92L43.05,90.68L43.48,92.87L43.91,92.38L44.34,90.13L44.77,92.76L45.21,92.35L45.64,91.46L46.07,93.13L46.5,91.92L46.93,92.85L47.36,92.12L47.79,92.44L48.22,92.9L48.65,93.15L49.08,90.92L49.51,90.81L49.94,89.39L51.23,92.35L51.66,89.28L52.95,91.58L53.39,90.54L53.82,90.39L54.25,91.24L55.11,91.05L55.54,91.15L56.4,90.21L56.83,90.83L59.41,90.85L59.84,88.71L61.14,91.94L61.57,91.98L62.43,91.36L62.86,91.87L67.16,91.65L67.59,90.27L68.02,90.85L68.45,92.69L68.88,92.32L69.32,86.7L69.75,92.46L70.18,92.23L70.61,86.63L71.47,92.79L71.9,90.71L72.33,92.53L72.76,91.12L73.19,92.6L73.62,93.07L74.05,89.4L74.48,90.88L74.91,87.56L75.77,89.1L76.2,88.26L77.06,85.59L77.5,87.1L78.36,85.18L78.79,85.82L80.51,85.74L80.94,86.07L82.23,87.86L82.66,88.78L85.24,92.05L85.68,91.64L86.97,92.86L87.4,92.83L87.83,91.85L88.26,93.06L89.55,92.49L89.98,93.11L91.27,91.62L91.7,92.47L93.86,93.19L94.29,92.26L94.72,93.04L95.15,92.79L95.58,91.95L96.44,92.55L96.87,91.68L97.3,89.95L97.73,93.02L98.59,91.36L99.02,92.86L100.74,93.14L101.17,92.58L102.04,91.8L102.47,92.73L105.91,92.93L106.34,92.43L107.2,92.83L107.63,92.84L108.92,92.26L109.35,91.88L110.22,93.02L110.65,91.8L112.37,92.76L112.8,92.44L113.66,93.01L114.09,91.85L114.52,91.92L114.95,90.55L116.24,92.8L116.67,93.02L117.96,91.49L118.4,91.31L118.83,90.84L119.26,93.23L119.69,91.41L120.12,92.88L120.55,88.45L120.98,92.21L122.27,93.17L122.7,92.11L124.42,92.87L124.85,93.09L125.71,89.81L126.14,86.45L127.01,89.6L127.44,88.62L127.87,88.06L128.3,87.36L128.73,88.77L129.59,87.25L130.02,88.05L131.31,87.62L131.74,87.57L133.03,88.36L133.46,88.71L134.32,89.79L134.76,88.94L136.91,91.78L137.34,90.54L138.2,92.22L138.63,92.31L139.92,92.37L140.35,91.49L140.78,93.12L141.21,92.86L141.64,92.62L142.94,91.37L143.37,91.42L143.8,90.93L144.23,92.12L145.52,92.57L145.95,90.95L146.81,91.17L147.24,89.82L147.67,92.35L148.1,91.97L148.53,90.63L149.39,88.38L149.82,89.7L150.25,89.06L150.68,85.78L151.12,91.96L151.55,91.71L151.98,90.6L152.84,93L153.27,89.18L153.7,90.89L154.13,87.43L155.85,79.74L156.28,75.33L156.71,77.82L157.14,77.71L157.57,75.35L158.86,71.35L159.3,71.77L159.73,71.71L160.16,72.73L161.88,79.52L162.31,82.13L164.03,88.86L164.46,88.91L165.75,91.52L166.18,92.14L167.05,92.6L167.48,91.79L167.91,92.94L168.34,92.77L168.77,92.4L169.63,93.15L170.06,92.98L171.35,93.16L171.78,92.69L174.79,93.13L175.23,91.86L175.66,93.28L176.09,92.55L176.52,93.17L176.95,92.29L177.38,93.05L177.81,92.54L178.24,91.54L178.67,92.99L179.53,92.98L179.96,92.67L180.39,92.33L180.82,93.1L181.68,92.6L182.11,91.2L182.54,92.73L182.97,91.45L184.27,93.02L184.7,92.67L185.13,92.92L185.56,91.91L186.42,92.9L186.85,91.96L188.14,93.2L188.57,93.12L190.29,93L190.72,92.37L194.6,93.11L195.03,92.39L196.32,92.75L196.75,92.6L197.61,92.21L198.04,92.83L198.9,92.79L199.33,92.3L200.63,92.82L201.06,92.55L203.21,92.83L203.64,91.15L204.5,92.81L204.93,92.81L206.22,92.17L206.65,93.07L207.51,92.17L207.95,92.98L209.67,92.58L210.1,92.87L210.53,93.16L210.96,91.81L211.39,92.95L211.82,92.06L212.25,92.82L213.11,92.59L213.54,92.02L214.83,93.09L215.26,92.66L217.42,92.69L217.85,92.37L219.14,93.01L219.57,92.25L220,91.39L220.43,91.63L220.86,92.48L222.58,91.96L223.01,92.21L224.31,92.03L224.74,92.85L225.17,92.27L225.6,93.01L227.32,92.25L227.75,93.01L228.18,93.11L228.61,92.38L229.47,92.95L229.9,92.75L230.33,92.16L230.76,93.15L231.62,91.68L232.05,92.69L233.78,92.8L234.21,91.66L234.64,92.34L235.07,91.52L235.5,92.84L235.93,90.76L237.22,93.09L237.65,92.53L238.51,92.94L238.94,91.4L239.37,93.13L239.8,92.81L240.23,93.07L240.67,91.64L241.1,93.01L241.53,91.26L241.96,93.04L242.82,92L243.25,93.21L243.68,93.11L244.11,92.12L244.54,92.97L244.97,92.62L245.4,92.69L246.26,91.5L246.69,93.02L247.12,92.32L247.55,93.19L247.98,91.91L248.41,92.65L248.85,92.04L249.28,90.89L249.71,92.15L250.57,92.2L251,88.96L251.86,91.93L252.29,90.73L252.72,87.64L253.15,89.18L253.58,87.39L254.44,85.25L254.87,89.31L255.73,91.6L256.16,91.49L256.59,92.16L257.03,90.97L258.75,77.73L259.18,77.97L262.62,54.05L263.05,53.77L263.48,53.17L263.91,53.88L264.34,53.17L264.77,54.95L269.94,87.38L270.37,88.7L272.09,91.32L272.52,91.72L275.97,93.01L276.4,92.42L277.26,92.87L277.69,92.33L278.55,93.05L278.98,92.58L280.27,93.14L280.7,93.2L281.57,92.12L282,92.82L283.72,93.16L284.15,92.08L284.58,93.07L285.01,92L285.44,92.7L285.87,92.35L286.3,92.36L286.73,92.97L287.16,92.61L287.59,92.28L288.88,92.59L289.32,93L291.04,91.53L291.47,93.1L291.9,93.22L292.33,92.18L293.62,93.24L294.05,92.8L294.91,93.22L295.34,92.8L296.63,93.04L297.06,93.02L299.65,93.32L300.08,92.69L300.94,93.28L301.37,92.35L302.23,93.18L302.66,92.63L303.95,93.16L304.38,92.2L305.24,92.71L305.68,92.31L307.4,93.21L307.83,92.2L309.98,93.15L310.41,92.81L312.13,93.18L312.56,92.24L313.42,93.27L313.86,92.07L314.29,93.2L314.72,92.74L315.15,93.16L316.87,93.08L317.3,92.79L319.02,93.18L319.45,93.22L321.17,93.01L321.6,93.21L323.76,92.97L324.19,91.88L325.91,92.8L326.34,92.34L326.77,93.1L327.2,92.79L327.63,92.59L328.06,91.46L328.49,93.05L329.78,92.27L330.22,93.15L332.8,91.85L333.23,93.1L334.09,93.05L334.52,92.48L335.81,93.09L336.24,92.96L336.67,92.56L337.1,93.16L337.53,93L338.4,93.27L338.83,92.77L339.69,92.87L340.12,93.32L342.27,92.78L342.7,93.08L343.99,92.96L344.42,93.1L346.58,92.56L347.01,92.7L348.3,93.08L348.73,92.44L350.45,92.72L350.88,91.99L353.89,93.12L354.32,92.71L355.62,93.21L356.05,93.24L357.34,92.21L357.77,93.14L359.92,92.5L360.35,93.22L363.37,92.86L363.8,93.11L365.52,93.23L365.95,92.35L367.24,93.14L367.67,93.16L369.39,92.8L369.82,92.21L371.12,93.07L371.55,92.54L374.13,93.16L374.56,93.19L374.99,91.85L375.42,93.09L376.28,91.89L376.71,92.75L378.86,92.8L379.3,91.88L380.59,92.88L381.02,93.15L381.88,92.42L382.31,93.14L383.17,93.05L383.6,92.02L384.89,92.94L385.32,92.3L385.75,92.25L386.18,93.01L387.05,91.73L387.48,92.8L388.34,92.6L388.77,92.25L389.63,91.48L390.06,92.27L390.49,92.9L390.92,90.87L391.35,91.77L391.78,90.75L392.21,92.68L392.64,91.09L393.07,92.95L393.5,91.89L393.93,92.64L394.79,92.73L395.23,90.81L395.66,92.04L396.09,90.96L396.95,91.9L397.38,90.84L397.81,92.45L398.24,92.09L398.67,91.82L399.53,92.93L399.96,91.85L400.39,93.08L400.82,92.64L401.25,92.53L401.68,92.89L402.11,91.06L402.54,91.04L402.97,92.62L404.27,92.95L404.7,92.96L405.56,92.24L405.99,92.82L406.42,93.21L409.43,92.16L409.86,93.09L411.59,92.46L412.02,89.76L412.88,91.86L413.31,91.01L413.74,92.65L414.17,92.01L414.6,91.79L415.46,93.1L415.89,92.93L417.18,93.09L417.61,93.05L419.33,92.48L419.77,92.87L421.49,92.36L421.92,92.54L423.64,92.04L424.07,92.57L426.22,92.43L426.65,92.51L429.24,92.31L429.67,91.91L430.1,92.56L430.53,90.36L431.82,92.81L432.25,92.42L433.11,91.36L433.54,90.79L433.97,92.63L434.4,88.95L434.83,92.61L435.26,91.31L435.69,93.13L436.99,92.6L437.42,92.49L437.85,91.12L438.28,92.82L438.71,91.68L439.14,92.36L439.57,91.53L440,90.38" style="vector-effect: non-scaling-stroke; fill: none; stroke: rgb(136, 136, 136); stroke-opacity: 1; stroke-width: 2px; opacity: 1;"/></g><g class="points"/><g class="text"/></g></g></g><g class="overplot"/><path class="xlines-above crisp" d="M79,520.5H520" style="fill: none; stroke-width: 1px; stroke: rgb(36, 36, 36); stroke-opacity: 1;"/><path class="ylines-above crisp" d="M79.5,426.6666666666667V520" style="fill: none; stroke-width: 1px; stroke: rgb(36, 36, 36); stroke-opacity: 1;"/><g class="overlines-above"/><g class="xaxislayer-above"><path class="x3tick ticks crisp" d="M0,521v5" transform="translate(80,0)" style="stroke: rgb(68, 68, 68); stroke-opacity: 1; stroke-width: 1px;"/><path class="x3tick ticks crisp" d="M0,521v5" transform="translate(190.22,0)" style="stroke: rgb(68, 68, 68); stroke-opacity: 1; stroke-width: 1px;"/><path class="x3tick ticks crisp" d="M0,521v5" transform="translate(300.43,0)" style="stroke: rgb(68, 68, 68); stroke-opacity: 1; stroke-width: 1px;"/><path class="x3tick ticks crisp" d="M0,521v5" transform="translate(410.65,0)" style="stroke: rgb(68, 68, 68); stroke-opacity: 1; stroke-width: 1px;"/></g><g class="yaxislayer-above"><path class="y3tick ticks crisp" d="M79,0h-5" transform="translate(0,519.9966666666667)" style="stroke: rgb(68, 68, 68); stroke-opacity: 1; stroke-width: 1px;"/><path class="y3tick ticks crisp" d="M79,0h-5" transform="translate(0,488.88666666666666)" style="stroke: rgb(68, 68, 68); stroke-opacity: 1; stroke-width: 1px;"/><path class="y3tick ticks crisp" d="M79,0h-5" transform="translate(0,457.7766666666667)" style="stroke: rgb(68, 68, 68); stroke-opacity: 1; stroke-width: 1px;"/><path class="y3tick ticks crisp" d="M79,0h-5" transform="translate(0,426.6666666666667)" style="stroke: rgb(68, 68, 68); stroke-opacity: 1; stroke-width: 1px;"/><g class="y3tick"><text text-anchor="end" x="71.6" y="4.199999999999999" transform="translate(0,519.9966666666667)" style="font-family: 'Open Sans', verdana, arial, sans-serif; font-size: 12px; fill: rgb(36, 36, 36); fill-opacity: 1; white-space: pre; opacity: 1;">0</text></g><g class="y3tick"><text text-anchor="end" x="71.6" y="4.199999999999999" style="font-family: 'Open Sans', verdana, arial, sans-serif; font-size: 12px; fill: rgb(36, 36, 36); fill-opacity: 1; white-space: pre; opacity: 1;" transform="translate(0,488.88666666666666)">5</text></g><g class="y3tick"><text text-anchor="end" x="71.6" y="4.199999999999999" style="font-family: 'Open Sans', verdana, arial, sans-serif; font-size: 12px; fill: rgb(36, 36, 36); fill-opacity: 1; white-space: pre; opacity: 1;" transform="translate(0,457.7766666666667)">10</text></g><g class="y3tick"><text text-anchor="end" x="71.6" y="4.199999999999999" style="font-family: 'Open Sans', verdana, arial, sans-serif; font-size: 12px; fill: rgb(36, 36, 36); fill-opacity: 1; white-space: pre; opacity: 1;" transform="translate(0,426.6666666666667)">15</text></g></g><g class="overaxes-above"/></g></g><g class="polarlayer"/><g class="smithlayer"/><g class="ternarylayer"/><g class="geolayer"/><g class="funnelarealayer"/><g class="pielayer"/><g class="iciclelayer"/><g class="treemaplayer"/><g class="sunburstlayer"/><g class="glimages"/><defs id="topdefs-96f71e"><g class="clips"/><clipPath id="legend96f71e"><rect width="320" height="48" x="0" y="0"/></clipPath></defs><g class="layer-above"><g class="imagelayer"/><g class="shapelayer"/></g><g class="infolayer"><g class="legend" pointer-events="all" transform="translate(195.60000000000002,30.999999999999986)"><rect class="bg" shape-rendering="crispEdges" width="320" height="48" x="0" y="0" style="stroke: rgb(68, 68, 68); stroke-opacity: 1; fill: rgb(255, 255, 255); fill-opacity: 1; stroke-width: 0px;"/><g class="scrollbox" transform="" clip-path="url(#legend96f71e)"><g class="groups"><g class="traces" transform="translate(0,14.5)" style="opacity: 1;"><text class="legendtext" text-anchor="start" x="40" y="4.680000000000001" style="font-family: 'Open Sans', verdana, arial, sans-serif; font-size: 12px; fill: rgb(36, 36, 36); fill-opacity: 1; white-space: pre;">x+y+z+noise</text><g class="layers" style="opacity: 1;"><g class="legendfill"/><g class="legendlines"><path class="js-line" d="M5,0h30" style="fill: none; stroke: rgb(68, 170, 153); stroke-opacity: 1; stroke-width: 2px;"/></g><g class="legendsymbols"><g class="legendpoints"/></g></g><rect class="legendtoggle" x="0" y="-9.5" width="111.40625" height="19" style="fill: rgb(0, 0, 0); fill-opacity: 0;"/></g><g class="traces" transform="translate(113.90625,14.5)" style="opacity: 1;"><text class="legendtext" text-anchor="start" x="40" y="4.680000000000001" style="font-family: 'Open Sans', verdana, arial, sans-serif; font-size: 12px; fill: rgb(36, 36, 36); fill-opacity: 1; white-space: pre;">realised</text><g class="layers" style="opacity: 1;"><g class="legendfill"/><g class="legendlines"><path class="js-line" d="M5,0h30" style="fill: none; stroke: rgb(0, 0, 0); stroke-opacity: 1; stroke-dasharray: 9px, 9px; stroke-width: 1px;"/></g><g class="legendsymbols"><g class="legendpoints"/></g></g><rect class="legendtoggle" x="0" y="-9.5" width="86.6875" height="19" style="fill: rgb(0, 0, 0); fill-opacity: 0;"/></g><g class="traces" transform="translate(227.8125,14.5)" style="opacity: 1;"><text class="legendtext" text-anchor="start" x="40" y="4.680000000000001" style="font-family: 'Open Sans', verdana, arial, sans-serif; font-size: 12px; fill: rgb(36, 36, 36); fill-opacity: 1; white-space: pre;">x</text><g class="layers" style="opacity: 1;"><g class="legendfill"/><g class="legendlines"><path class="js-line" d="M5,0h30" style="fill: none; stroke: rgb(136, 204, 238); stroke-opacity: 1; stroke-width: 2px;"/></g><g class="legendsymbols"><g class="legendpoints"/></g></g><rect class="legendtoggle" x="0" y="-9.5" width="49.5" height="19" style="fill: rgb(0, 0, 0); fill-opacity: 0;"/></g><g class="traces" transform="translate(0,33.5)" style="opacity: 1;"><text class="legendtext" text-anchor="start" x="40" y="4.680000000000001" style="font-family: 'Open Sans', verdana, arial, sans-serif; font-size: 12px; fill: rgb(36, 36, 36); fill-opacity: 1; white-space: pre;">y</text><g class="layers" style="opacity: 1;"><g class="legendfill"/><g class="legendlines"><path class="js-line" d="M5,0h30" style="fill: none; stroke: rgb(204, 102, 119); stroke-opacity: 1; stroke-width: 2px;"/></g><g class="legendsymbols"><g class="legendpoints"/></g></g><rect class="legendtoggle" x="0" y="-9.5" width="49.5" height="19" style="fill: rgb(0, 0, 0); fill-opacity: 0;"/></g><g class="traces" transform="translate(113.90625,33.5)" style="opacity: 1;"><text class="legendtext" text-anchor="start" x="40" y="4.680000000000001" style="font-family: 'Open Sans', verdana, arial, sans-serif; font-size: 12px; fill: rgb(36, 36, 36); fill-opacity: 1; white-space: pre;">z</text><g class="layers" style="opacity: 1;"><g class="legendfill"/><g class="legendlines"><path class="js-line" d="M5,0h30" style="fill: none; stroke: rgb(221, 204, 119); stroke-opacity: 1; stroke-width: 2px;"/></g><g class="legendsymbols"><g class="legendpoints"/></g></g><rect class="legendtoggle" x="0" y="-9.5" width="48.5" height="19" style="fill: rgb(0, 0, 0); fill-opacity: 0;"/></g><g class="traces" transform="translate(227.8125,33.5)" style="opacity: 1;"><text class="legendtext" text-anchor="start" x="40" y="4.680000000000001" style="font-family: 'Open Sans', verdana, arial, sans-serif; font-size: 12px; fill: rgb(36, 36, 36); fill-opacity: 1; white-space: pre;">distance</text><g class="layers" style="opacity: 1;"><g class="legendfill"/><g class="legendlines"><path class="js-line" d="M5,0h30" style="fill: none; stroke: rgb(136, 136, 136); stroke-opacity: 1; stroke-width: 2px;"/></g><g class="legendsymbols"><g class="legendpoints"/></g></g><rect class="legendtoggle" x="0" y="-9.5" width="89.609375" height="19" style="fill: rgb(0, 0, 0); fill-opacity: 0;"/></g></g></g><rect class="scrollbar" rx="20" ry="3" width="0" height="0" x="0" y="0" style="fill: rgb(128, 139, 164); fill-opacity: 1;"/></g><g class="g-gtitle"/><g class="g-xtitle"/><g class="g-x2title"/><g class="g-x3title"><text class="x3title" x="300" y="549.8" text-anchor="middle" style="font-family: 'Open Sans', verdana, arial, sans-serif; font-size: 14px; fill: rgb(36, 36, 36); opacity: 1; font-weight: normal; white-space: pre;">Time (s)</text></g><g class="g-ytitle"/><g class="g-y2title"/><g class="g-y3title"/><g class="annotation" data-index="0" style="opacity: 1;"><g class="annotation-text-g" transform="rotate(0,300,86.99999999999999)"><g class="cursor-pointer" transform="translate(166,74)"><rect class="bg" x="0.5" y="0.5" width="267" height="25" style="stroke-width: 1px; stroke: rgb(0, 0, 0); stroke-opacity: 0; fill: rgb(0, 0, 0); fill-opacity: 0;"/><text class="annotation-text" text-anchor="middle" x="133.8125" y="19" style="font-family: 'Open Sans', verdana, arial, sans-serif; font-size: 16px; fill: rgb(36, 36, 36); fill-opacity: 1; white-space: pre;">Observation - Noise volatility: 1e-02</text></g></g></g><g class="annotation" data-index="1" style="opacity: 1;"><g class="annotation-text-g" transform="rotate(0,300,250.33333333333331)"><g class="cursor-pointer" transform="translate(189,237)"><rect class="bg" x="0.5" y="0.5" width="221" height="25" style="stroke-width: 1px; stroke: rgb(0, 0, 0); stroke-opacity: 0; fill: rgb(0, 0, 0); fill-opacity: 0;"/><text class="annotation-text" text-anchor="middle" x="110.859375" y="19" style="font-family: 'Open Sans', verdana, arial, sans-serif; font-size: 16px; fill: rgb(36, 36, 36); fill-opacity: 1; white-space: pre;">States - Noise volatility: 1e-02</text></g></g></g><g class="annotation" data-index="2" style="opacity: 1;"><g class="annotation-text-g" transform="rotate(0,300,413.6666666666667)"><g class="cursor-pointer" transform="translate(218,401)"><rect class="bg" x="0.5" y="0.5" width="163" height="25" style="stroke-width: 1px; stroke: rgb(0, 0, 0); stroke-opacity: 0; fill: rgb(0, 0, 0); fill-opacity: 0;"/><text class="annotation-text" text-anchor="middle" x="81.828125" y="19" style="font-family: 'Open Sans', verdana, arial, sans-serif; font-size: 16px; fill: rgb(36, 36, 36); fill-opacity: 1; white-space: pre;">Phase-space distance</text></g></g></g></g></svg>