<svg class="main-svg" xmlns="http://www.w3.org/2000/svg" xmlns:xlink="http://www.w3.org/1999/xlink" width="600" height="600" style="" viewBox="0 0 600 600"><rect x="0" y="0" width="600" height="600" style="fill: rgb(255, 255, 255); fill-opacity: 1;"/><defs id="defs-b7cfc5"><g class="clips"><clipPath id="clipb7cfc5xyplot" class="plotclip"><rect width="440" height="93.33333333333333"/></clipPath><clipPath id="clipb7cfc5x2y2plot" class="plotclip"><rect width="440" height="93.33333333333336"/></clipPath><clipPath id="clipb7cfc5x3y3plot" class="plotclip"><rect width="440" height="93.33333333333334"/></clipPath><clipPath class="axesclip" id="clipb7cfc5x"><rect x="80" y="0" width="440" height="600"/></clipPath><clipPath class="axesclip" id="clipb7cfc5y"><rect x="0" y="100" width="600" height="93.33333333333333"/></clipPath><clipPath class="axesclip" id="clipb7cfc5xy"><rect x="80" y="100" width="440" height="93.33333333333333"/></clipPath><clipPath class="axesclip" id="clipb7cfc5y2"><rect x="0" y="263.3333333333333" width="600" height="93.33333333333336"/></clipPath><clipPath class="axesclip" id="clipb7cfc5xy2"><rect x="80" y="263.3333333333333" width="440" height="93.33333333333336"/></clipPath><clipPath class="axesclip" id="clipb7cfc5y3"><rect x="0" y="426.6666666666667" width="600" height="93.33333333333334"/></clipPath><clipPath class="axesclip" id="clipb7cfc5xy3"><rect x="80" y="426.6666666666667" width="440" height="93.33333333333334"/></clipPath><clipPath class="axesclip" id="clipb7cfc5x2"><rect x="80" y="0" width="440" height="600"/></clipPath><clipPath class="axesclip" id="clipb7cfc5x2y"><rect x="80" y="100" width="440" height="93.33333333333333"/></clipPath><clipPath class="axesclip" id="clipb7cfc5x2y2"><rect x="80" y="263.3333333333333" width="440" height="93.33333333333336"/></clipPath><clipPath class="axesclip" id="clipb7cfc5x2y3"><rect x="80" y="426.6666666666667" width="440" height="93.33333333333334"/></clipPath><clipPath class="axesclip" id="clipb7cfc5x3"><rect x="80" y="0" width="440" height="600"/></clipPath><clipPath class="axesclip" id="clipb7cfc5x3y"><rect x="80" y="100" width="440" height="93.33333333333333"/></clipPath><clipPath class="axesclip" id="clipb7cfc5x3y2"><rect x="80" y="263.3333333333333" width="440" height="93.33333333333336"/></clipPath><clipPath class="axesclip" id="clipb7cfc5x3y3"><rect x="80" y="426.6666666666667" width="440" height="93.33333333333334"/></clipPath></g><g class="gradients"/><g class="patterns"/></defs><g class="bglayer"/><g class="layer-below"><g class="imagelayer"/><g class="shapelayer"/></g><g class="cartesianlayer"><g class="subplot xy"><g class="layer-subplot"><g class="shapelayer"/><g class="imagelayer"/></g><g class="gridlayer"><g class="x"/><g class="y"/></g><g class="zerolinelayer"/><path class="xlines-below"/><path class="ylines-below"/><g class="overlines-below"/><g class="xaxislayer-below"/><g class="yaxislayer-below"/><g class="overaxes-below"/><g class="plot" transform="translate(80,100)" clip-path="url(#clipb7cfc5xyplot)"><g class="scatterlayer mlayer"><g class="trace scatter traceff34a5" style="stroke-miterlimit: 2; opacity: 1;"><g class="fills"/><g class="errorbars"/><g class="lines"><path class="js-line" d="M0,54.83L3.01,49.9L3.44,49.68L4.74,50.09L5.17,50.41L8.61,52.16L9.04,52.18L10.33,51.05L10.76,50.26L13.35,42.73L13.78,41.39L18.08,25.23L18.51,23.78L20.67,19.22L21.1,18.96L22.82,19.22L23.25,19.67L24.97,23.59L25.4,25.17L30.57,43.73L31,44.91L36.59,58.79L37.03,59.45L39.61,65.15L40.04,66.23L42.19,73.36L42.62,75L46.07,84.66L46.5,85.18L47.36,84.7L47.79,83.74L49.08,78.05L49.51,75.06L52.95,50.73L53.39,49.54L54.68,48.76L55.11,49.08L56.83,51.99L57.26,53.07L65.87,73.96L66.3,74.81L68.45,77.51L68.88,77.35L70.18,75.06L70.61,73.63L76.2,51.45L76.63,50.62L78.36,48.75L78.79,48.73L80.08,50.55L80.51,51.44L85.68,60.12L86.11,60.47L87.4,60.98L87.83,60.46L91.27,51.45L91.7,49.95L95.58,32.45L96.01,29.84L99.02,15.19L99.45,14.86L100.31,16.35L100.74,18.13L106.34,48.84L106.77,49.89L111.51,60.29L111.94,61.91L118.4,82.35L118.83,82.91L119.69,83.03L120.12,82.45L121.41,77.33L121.84,74.52L125.28,52.34L125.71,50.99L127.44,48.36L127.87,48.2L130.45,48.51L130.88,48.85L132.6,49.77L133.03,49.7L138.2,49.13L138.63,49.07L143.8,47.45L144.23,47.65L146.38,49.45L146.81,50.16L148.96,53.9L149.39,53.82L151.12,51.37L151.55,50.17L152.84,43.22L153.27,39.78L157.14,6.81L157.57,7.06L158.86,14.43L159.3,17.93L162.74,39.77L163.17,41.85L165.75,50.42L166.18,51.5L167.48,53.12L167.91,52.89L170.92,49.1L171.35,48.26L173.93,41.14L174.36,39.69L180.39,21.17L180.82,20.95L181.68,21.74L182.11,22.79L183.84,31.1L184.27,33.73L187.28,47.96L187.71,49.4L189.86,53.29L190.29,53.86L192.02,55.05L192.45,54.91L193.74,53.04L194.17,52.16L195.89,47.11L196.32,45.22L201.06,23.82L201.49,23.55L202.78,24.57L203.21,25.21L206.22,31.26L206.65,32.64L210.96,45.04L211.39,45.42L213.11,45.59L213.54,45.35L216.13,42.16L216.56,41.33L218.28,35.58L218.71,33.75L222.15,20.46L222.58,20.22L223.44,21.41L223.87,22.82L226.03,34.79L226.46,37.33L229.9,53.03L230.33,54.14L234.21,61.7L234.64,62.15L239.37,65.86L239.8,65.61L241.1,65.41L241.53,65.91L244.54,70.23L244.97,70.79L251,84.81L251.43,86.31L253.58,90.76L254.01,90.43L254.87,87.05L255.3,83.69L259.61,40L260.04,38.8L262.19,35.96L262.62,35.93L265.21,35.87L265.64,35.59L268.65,33.31L269.08,33.25L270.8,33.68L271.23,34.23L274.68,38.39L275.11,38.65L277.26,39.07L277.69,38.45L280.27,31.51L280.7,30.11L282.43,26.29L282.86,26.23L283.72,27.19L284.15,28.13L289.75,42.74L290.18,42.83L292.33,41.6L292.76,40.98L294.91,34.72L295.34,33.28L298.79,23.71L299.22,23.52L300.08,24.21L300.51,25.09L303.09,34.51L303.52,35.99L306.11,41.71L306.54,41.94L310.84,43.07L311.27,42.92L312.99,42.04L313.42,41.43L314.72,38.06L315.15,36.39L319.02,22.01L319.45,21.91L320.31,23.27L320.74,24.64L324.62,38.29L325.05,39.07L326.34,39.55L326.77,39.14L332.37,33.13L332.8,33.18L336.24,33.77L336.67,33.27L340.55,28.84L340.98,28.82L343.13,29.48L343.56,29.85L345.71,33.02L346.14,33.86L349.59,39.41L350.02,39.67L351.31,39.35L351.74,38.87L355.62,33.62L356.05,33.76L359.06,35.27L359.49,35.08L360.78,33.26L361.21,32.19L364.66,23.83L365.09,23.85L366.38,25.62L366.81,26.77L371.55,40.39L371.98,40.98L375.42,44.26L375.85,44.16L377.57,42.86L378,42.07L379.73,36.57L380.16,34.71L384.46,17.94L384.89,17.8L385.75,19.04L386.18,20.33L391.35,39.26L391.78,40.06L401.68,54.33L402.11,54.55L404.27,54.91L404.7,54.52L406.85,51.71L407.28,50.42L409,42.02L409.43,38.9L413.74,3.89L414.17,5.18L415.46,15.77L415.89,20.51L419.33,52.01L419.77,54.43L422.35,63.59L422.78,64.31L425.79,65.87L426.22,66.1L429.67,66.63L430.1,66.26L434.4,61.85L434.83,61.65L436.99,61.75L437.42,61.76L440,61.7" style="vector-effect: non-scaling-stroke; fill: none; stroke: rgb(68, 170, 153); stroke-opacity: 1; stroke-width: 2px; opacity: 1;"/></g><g class="points"/><g class="text"/></g><g class="trace scatter trace4db53f" style="stroke-miterlimit: 2; opacity: 1;"><g class="fills"/><g class="errorbars"/><g class="lines"><path class="js-line" d="M0,28.58L1.29,25.9L1.72,26.61L2.58,31.61L3.01,36.13L6.46,79.85L6.89,78.23L9.04,67.79L9.47,68.63L10.76,70.95L11.19,69.98L13.35,60.43L13.78,61.54L15.93,73.05L16.36,71.13L18.51,60.56L18.94,59.15L20.23,48.58L20.67,43.8L24.11,2.95L24.54,4.18L27.55,25.66L27.98,25.41L28.41,25.63L28.85,26.73L30.57,37.83L31,42.19L33.58,66.2L34.01,66.54L36.59,63.11L37.03,62.91L37.89,63.27L38.32,64.61L40.04,78.67L40.47,81.87L42.62,89.97L43.05,90.74L43.48,89.97L43.91,87.21L46.07,67.25L46.5,66.79L47.36,64.25L47.79,60.72L49.94,45.95L50.37,44.95L52.09,42.8L52.52,43.5L53.39,46.91L53.82,50.1L56.4,70.04L56.83,68.71L58.55,62.35L58.98,62.48L60.7,65.89L61.14,67.23L63.29,74.15L63.72,73.79L65.44,71.61L65.87,71.52L66.73,71.86L67.16,72.66L68.45,75.38L68.88,74.71L70.18,66.22L70.61,62.9L71.47,59.78L71.9,60.59L72.76,63.83L73.19,63.66L73.62,61.09L76.63,27.47L77.06,29.64L80.94,59.95L81.37,61.79L82.23,62.1L82.66,61.45L84.81,59.5L85.24,57.89L88.26,44.45L88.69,38.73L90.41,18.1L90.84,19.94L93.42,42.49L93.86,41.35L96.87,25.56L97.3,22.34L99.45,11.82L99.88,12.11L100.74,17.81L101.17,22.95L103.33,43.09L103.76,45.08L105.48,52.33L105.91,51.86L108.06,42.84L108.49,44.09L110.22,58.48L110.65,62.96L113.23,93.98L113.66,92.54L116.24,75.02L116.67,75.1L118.83,80.78L119.26,80.16L120.55,72.34L120.98,69.35L122.27,65.73L122.7,65.55L123.56,64.3L123.99,63.1L125.28,56.89L125.71,53.66L127.87,41.09L128.3,41.52L130.02,44.49L130.45,44.14L131.31,43.84L131.74,44.18L132.6,44.26L133.03,43.19L134.76,37.78L135.19,39.34L138.2,57.58L138.63,58.3L139.49,58.74L139.92,58.34L140.78,58.05L141.21,59.42L146.38,89.46L146.81,91.5L148.96,104.76L149.39,102.89L149.82,98.1L152.41,65.78L152.84,63.17L154.56,43.48L154.99,38.36L156.28,32.61L156.71,33.87L158,38.39L158.43,37.59L159.73,26.1L160.16,21.93L161.02,19.2L161.45,21.35L162.74,39.74L163.17,48.01L164.46,62.02L164.89,59.51L167.05,33.88L167.48,33.43L168.34,32.84L168.77,31.47L170.49,26.91L170.92,26.9L173.07,28.5L173.5,27.97L175.23,26.39L175.66,26.99L177.38,30.62L177.81,29.29L180.82,10.3L181.25,11.53L182.54,24.13L182.97,30.73L185.13,61.2L185.56,59.93L187.28,46.04L187.71,47.74L189.86,60.27L190.29,59.49L192.02,48.87L192.45,45.98L195.03,31.5L195.46,31.67L196.32,32.07L196.75,31.21L198.47,24.79L198.9,25.09L199.33,26.31L200.63,35.16L201.06,40.19L202.35,53.37L202.78,52.85L203.21,48.98L205.36,24.56L205.79,27.79L208.38,69.14L208.81,67.3L211.39,38.1L211.82,38.88L213.97,51.88L214.4,51.27L214.83,49.04L216.56,41.83L216.99,42.01L217.42,41.81L217.85,40.62L221.29,20.83L221.72,20.96L222.58,24.55L223.01,28L226.89,65.61L227.32,65.8L228.18,67.21L228.61,68.59L229.47,70.17L229.9,69.41L232.49,58.9L232.92,60.23L234.64,67.51L235.07,67.1L237.65,58.49L238.08,59.45L239.37,63.7L239.8,62.89L241.53,54.24L241.96,56.78L244.11,88.7L244.54,87.92L244.97,84.09L246.26,73.3L246.69,73.82L247.98,78.88L248.41,78.5L248.85,76.78L250.57,69.57L251,71.39L253.58,93.23L254.01,91.33L256.59,64.95L257.03,59.55L259.61,26.27L260.04,27.14L261.76,38.22L262.19,37.39L264.77,24.55L265.21,24.44L266.07,24.43L266.5,23.42L267.79,18.43L268.22,19.27L271.23,38.26L271.66,39.84L273.39,47.19L273.82,47.07L274.25,46.02L275.97,40.71L276.4,41.66L277.26,44.77L277.69,44.4L278.12,41.46L280.7,14.22L281.14,15.78L282.86,31.72L283.29,36.68L285.01,49.07L285.44,49.37L287.16,47.04L287.59,47.9L289.32,56.89L289.75,56.72L290.18,53.87L292.33,27.62L292.76,28.42L294.05,34.47L294.48,34.07L294.91,32.2L297.5,19.97L297.93,20.26L299.22,24.26L299.65,26.18L301.37,37.16L301.8,41.23L303.09,48.76L303.52,47.78L306.11,35.93L306.54,35.62L307.4,35.61L307.83,36.51L309.12,45.41L309.55,49.13L310.41,53.12L310.84,52.54L312.99,45.49L313.42,45.92L313.86,46.1L314.29,45.3L315.15,38.83L315.58,33.22L317.3,15.65L317.73,17.62L320.31,37.39L320.74,39.42L322.47,52.58L322.9,52.33L323.33,49.22L325.48,26.42L325.91,26.72L326.77,27.85L327.2,27.15L328.49,24.36L328.92,24.59L330.22,25.19L330.65,25.12L331.51,26.97L331.94,29.52L334.09,46.55L334.52,46.41L334.95,44.62L336.67,27.95L337.1,23.13L337.96,17.56L338.4,17.85L338.83,19.91L340.55,28.5L340.98,28.44L341.84,25.45L342.27,23.11L343.13,19.96L343.56,20.32L343.99,22.24L346.58,39.94L347.01,40.35L347.87,39.94L348.3,39.34L350.45,36.45L350.88,36.13L351.74,33.11L352.17,30.43L353.89,22.86L354.32,23.9L355.19,30.59L355.62,36.18L357.77,59.28L358.2,56.37L361.21,22.36L361.64,20.97L363.37,11.05L363.8,9.18L364.23,9.24L364.66,11.53L366.81,27.11L367.24,27.8L368.53,33.17L368.96,35.22L369.82,36.65L370.25,36.01L371.98,33.84L372.41,34.18L373.27,35.8L373.7,38.01L375.42,52.43L375.85,52.17L376.28,49.47L379.3,24.8L379.73,23.52L382.31,13.01L382.74,9.88L384.89,-1.63L385.32,-0.42L388.34,11.35L388.77,12.57L390.06,15.38L390.49,15.32L391.35,15.29L391.78,16.33L393.5,27.53L393.93,31.17L397.38,55.51L397.81,56.06L398.67,54.1L399.1,52.72L399.53,52.33L399.96,53.73L402.11,70.78L402.54,70.35L402.97,68.54L405.56,53.93L405.99,54.21L406.42,55.89L407.28,59.62L407.71,59.46L408.14,57.21L409.86,34.48L410.29,27.34L414.17,-12.22L414.6,-10.62L415.89,4.38L416.32,12.18L420.2,76.12L420.63,75.81L423.64,56.99L424.07,56.38L424.5,56.65L424.93,58.44L427.08,77.75L427.51,76.56L430.1,54.56L430.53,54.97L432.25,59.64L432.68,59.36L435.26,54.51L435.69,54.92L437.85,62.14L438.28,60.1L440,42.45" style="vector-effect: non-scaling-stroke; fill: none; stroke: rgb(136, 34, 85); stroke-opacity: 1; stroke-width: 1px; opacity: 1; stroke-dasharray: 3px, 3px;"/></g><g class="points"/><g class="text"/></g><g class="trace scatter trace4a1b3d" style="stroke-miterlimit: 2; opacity: 1;"><g class="fills"/><g class="errorbars"/><g class="lines"><path class="js-line" d="M0,38.85L4.74,49.77L5.17,50.52L9.04,55.86L9.47,56.27L12.49,58.02L12.92,58.05L14.64,57.55L15.07,57.24L16.79,54.67L17.22,53.62L18.94,46.96L19.37,44.57L21.96,23.41L22.39,19.32L24.11,8.05L24.54,7.72L25.4,10.6L25.83,13.53L30.57,48.43L31,50.07L34.44,59.2L34.87,60.13L43.48,77.31L43.91,77.34L44.77,76.48L45.21,75.55L46.93,68.61L47.36,66.39L50.37,53.98L50.8,53.18L52.52,52.11L52.95,52.27L55.11,54.37L55.54,54.97L59.84,62.05L60.27,62.86L64.15,71.15L64.58,72.24L68.88,81.65L69.32,81.56L70.18,80.02L70.61,78.42L72.76,64.24L73.19,61.03L75.34,50.17L75.77,49.19L77.06,47.94L77.5,47.96L79.22,49.14L79.65,49.62L86.11,56.06L86.54,56.22L88.69,56.02L89.12,55.76L90.84,53.46L91.27,52.45L92.99,46.34L93.42,44.15L95.58,28.78L96.01,25.04L98.16,10.27L98.59,9.57L99.02,9.92L99.45,11.29L101.17,23.71L101.6,27.39L104.62,46.43L105.05,48.12L108.06,56.46L108.49,57.38L119.26,79.58L119.69,79.43L120.55,78L120.98,76.6L123.13,64.63L123.56,61.9L125.71,52.4L126.14,51.45L127.87,50.15L128.3,50.26L130.45,52.29L130.88,52.85L142.07,69.43L142.5,70.29L145.52,77.86L145.95,79.21L148.96,87.26L149.39,87.31L150.25,85.39L150.68,83.14L152.41,66.79L152.84,61.99L154.99,45.67L155.42,44.28L157.14,42.27L157.57,42.34L160.16,43.95L160.59,44.27L163.17,45.34L163.6,45.28L165.32,44.19L165.75,43.65L167.48,40.21L167.91,38.99L170.92,27.81L171.35,26.13L173.5,20.99L173.93,20.94L174.79,21.91L175.23,22.84L177.81,32.23L178.24,33.85L181.68,43.69L182.11,44.43L184.7,47.28L185.13,47.46L186.85,47.39L187.28,47.09L189,44.83L189.43,43.93L191.59,37L192.02,35.1L195.89,18.81L196.32,18.35L197.18,18.95L197.61,19.87L199.77,29.14L200.2,31.26L203.64,44.19L204.07,45.23L207.08,50.29L207.51,50.73L209.67,51.92L210.1,51.94L211.82,51.06L212.25,50.55L213.97,46.95L214.4,45.62L216.56,35.61L216.99,32.95L220.43,14.28L220.86,14.06L221.72,15.87L222.15,17.72L228.18,48.19L228.61,49.31L232.49,56.64L232.92,57.27L238.94,64.35L239.37,64.8L245.83,72.27L246.26,72.97L248.85,78.68L249.28,79.93L253.15,91.5L253.58,91.23L254.44,87.8L254.87,84.34L259.18,40.78L259.61,39.72L260.9,38.4L261.33,38.36L264.34,39.56L264.77,39.7L266.93,39.99L267.36,39.87L269.51,38.24L269.94,37.72L272.95,32.31L273.39,31.4L276.4,26.67L276.83,26.48L278.12,26.79L278.55,27.23L280.7,30.98L281.14,31.87L285.44,39.32L285.87,39.72L288.02,40.77L288.45,40.75L290.61,39.32L291.04,38.73L293.62,33.61L294.05,32.53L297.5,25.53L297.93,25.24L299.22,25.6L299.65,26.11L302.23,31.8L302.66,32.88L306.54,40.57L306.97,41.07L309.12,42.27L309.55,42.26L311.27,41.36L311.7,40.9L313.86,37.17L314.29,36.13L319.02,24.11L319.45,23.82L320.31,24.02L320.74,24.48L322.47,28.25L322.9,29.51L327.2,40.6L327.63,41.32L329.78,43.67L330.22,43.89L331.94,43.85L332.37,43.64L334.09,41.58L334.52,40.76L337.1,33.58L337.53,32.06L340.98,22.1L341.41,21.88L342.27,22.37L342.7,23.09L344.85,29.78L345.28,31.37L348.73,41.65L349.16,42.54L351.74,45.99L352.17,46.28L353.89,46.55L354.32,46.37L356.05,44.56L356.48,43.81L358.63,37.85L359.06,36.25L363.37,19.94L363.8,19.58L364.66,20.13L365.09,21L367.24,29.31L367.67,31.25L371.12,43.37L371.55,44.39L374.56,48.99L374.99,49.36L377.14,49.93L377.57,49.79L379.3,48.03L379.73,47.26L381.45,42.59L381.88,40.89L384.89,24.78L385.32,22.38L387.05,16.27L387.48,16.11L388.34,17.62L388.77,19.17L395.23,47.76L395.66,48.76L398.67,53.92L399.1,54.42L402.11,56.68L402.54,56.81L404.27,56.59L404.7,56.33L406.42,53.96L406.85,52.98L408.57,46.89L409,44.73L411.15,29.13L411.59,25.24L413.74,9.8L414.17,9.01L414.6,9.28L415.03,10.64L416.75,23.45L417.18,27.26L420.2,46.78L420.63,48.53L423.64,57.04L424.07,57.97L433.97,78.49L434.4,78.46L435.26,77.36L435.69,76.25L437.42,68.35L437.85,65.83L440,55.02" style="vector-effect: non-scaling-stroke; fill: none; stroke: rgb(0, 0, 0); stroke-opacity: 1; stroke-width: 1px; opacity: 1; stroke-dasharray: 9px, 9px;"/></g><g class="points"/><g class="text"/></g></g></g><g class="overplot"/><path class="xlines-above crisp" d="M79,193.83333333333331H520" style="fill: none; stroke-width: 1px; stroke: rgb(36, 36, 36); stroke-opacity: 1;"/><path class="ylines-above crisp" d="M79.5,100V193.33333333333331" style="fill: none; stroke-width: 1px; stroke: rgb(36, 36, 36); stroke-opacity: 1;"/><g class="overlines-above"/><g class="xaxislayer-above"><path class="xtick ticks crisp" d="M0,194.33333333333331v5" transform="translate(80,0)" style="stroke: rgb(68, 68, 68); stroke-opacity: 1; stroke-width: 1px;"/><path class="xtick ticks crisp" d="M0,194.33333333333331v5" transform="translate(190.22,0)" style="stroke: rgb(68, 68, 68); stroke-opacity: 1; stroke-width: 1px;"/><path class="xtick ticks crisp" d="M0,194.33333333333331v5" transform="translate(300.43,0)" style="stroke: rgb(68, 68, 68); stroke-opacity: 1; stroke-width: 1px;"/><path class="xtick ticks crisp" d="M0,194.33333333333331v5" transform="translate(410.65,0)" style="stroke: rgb(68, 68, 68); stroke-opacity: 1; stroke-width: 1px;"/></g><g class="yaxislayer-above"><path class="ytick ticks crisp" d="M79,0h-5" transform="translate(0,175.82999999999998)" style="stroke: rgb(68, 68, 68); stroke-opacity: 1; stroke-width: 1px;"/><path class="ytick ticks crisp" d="M79,0h-5" transform="translate(0,152.5)" style="stroke: rgb(68, 68, 68); stroke-opacity: 1; stroke-width: 1px;"/><path class="ytick ticks crisp" d="M79,0h-5" transform="translate(0,129.17000000000002)" style="stroke: rgb(68, 68, 68); stroke-opacity: 1; stroke-width: 1px;"/><path class="ytick ticks crisp" d="M79,0h-5" transform="translate(0,105.83)" style="stroke: rgb(68, 68, 68); stroke-opacity: 1; stroke-width: 1px;"/><g class="ytick"><text text-anchor="end" x="71.6" y="4.199999999999999" transform="translate(0,175.82999999999998)" style="font-family: 'Open Sans', verdana, arial, sans-serif; font-size: 12px; fill: rgb(36, 36, 36); fill-opacity: 1; white-space: pre; opacity: 1;">0</text></g><g class="ytick"><text text-anchor="end" x="71.6" y="4.199999999999999" style="font-family: 'Open Sans', verdana, arial, sans-serif; font-size: 12px; fill: rgb(36, 36, 36); fill-opacity: 1; white-space: pre; opacity: 1;" transform="translate(0,152.5)">20</text></g><g class="ytick"><text text-anchor="end" x="71.6" y="4.199999999999999" style="font-family: 'Open Sans', verdana, arial, sans-serif; font-size: 12px; fill: rgb(36, 36, 36); fill-opacity: 1; white-space: pre; opacity: 1;" transform="translate(0,129.17000000000002)">40</text></g><g class="ytick"><text text-anchor="end" x="71.6" y="4.199999999999999" style="font-family: 'Open Sans', verdana, arial, sans-serif; font-size: 12px; fill: rgb(36, 36, 36); fill-opacity: 1; white-space: pre; opacity: 1;" transform="translate(0,105.83)">60</text></g></g><g class="overaxes-above"/></g><g class="subplot x2y2"><g class="layer-subplot"><g class="shapelayer"/><g class="imagelayer"/></g><g class="gridlayer"><g class="x2"/><g class="y2"/></g><g class="zerolinelayer"/><path class="xlines-below"/><path class="ylines-below"/><g class="overlines-below"/><g class="xaxislayer-below"/><g class="yaxislayer-below"/><g class="overaxes-below"/><g class="plot" transform="translate(80,263.3333333333333)" clip-path="url(#clipb7cfc5x2y2plot)"><g class="scatterlayer mlayer"><g class="trace scatter trace1cfd23" style="stroke-miterlimit: 2; opacity: 1;"><g class="fills"/><g class="errorbars"/><g class="lines"><path class="js-line" d="M0,58.67L3.01,55.89L3.44,55.74L10.33,54.97L10.76,54.63L20.67,46.08L21.1,46.07L23.68,46.9L24.11,47.19L26.26,49.65L26.69,50.3L31,55.94L31.43,56.32L36.59,59.86L37.03,59.93L40.04,61.28L40.47,61.54L43.05,64.38L43.48,64.87L45.64,68.37L46.07,69.32L49.51,75.46L49.94,75.52L51.23,73.89L51.66,73.02L55.97,64.21L56.4,63.86L58.55,63.59L58.98,63.56L62,63.95L62.43,64.16L65.01,66.2L65.44,66.68L69.75,72.56L70.18,73.14L71.9,74.05L72.33,73.81L75.34,69.8L75.77,69.03L80.08,61.13L80.51,61L83.09,60.89L83.52,60.98L86.54,60.64L86.97,60.54L88.26,59.4L88.69,58.77L99.45,44.53L99.88,44.66L101.17,46.35L101.6,47.28L106.34,57.97L106.77,58.39L109.35,59.59L109.78,59.61L111.51,60.68L111.94,61.13L115.81,65.53L116.24,66.14L119.69,72.42L120.12,73.39L122.27,76.31L122.7,76.1L124.42,73.4L124.85,72.49L130.88,60.42L131.31,60.04L136.91,56.17L137.34,55.98L143.8,54.39L144.23,54.44L147.67,55.57L148.1,55.78L149.39,55.58L149.82,55.26L152.41,52.13L152.84,51.24L157.14,41.85L157.57,41.98L158.86,44.54L159.3,45.87L162.74,54.54L163.17,55.26L166.61,59.64L167.05,59.82L168.34,59.05L168.77,58.62L173.93,52.9L174.36,52.36L179.1,47.38L179.53,47.08L181.25,46.72L181.68,46.93L183.41,49.14L183.84,50.05L188.14,58.23L188.57,58.38L192.02,58.52L192.45,58.3L195.46,55L195.89,54.34L200.63,47.46L201.06,47.32L202.78,47.87L203.21,48.18L208.38,53.06L208.81,53.63L210.96,55.59L211.39,55.63L213.97,54.63L214.4,54.33L217.85,51.44L218.28,50.85L222.15,46.31L222.58,46.27L223.87,47.17L224.31,47.82L230.33,59.16L230.76,59.42L233.78,60.4L234.21,60.41L241.96,59.99L242.39,60.28L244.54,60.76L244.97,60.88L249.71,64.37L250.14,64.96L252.72,70.44L253.15,71.64L256.16,79.93L256.59,79.83L257.89,76.68L258.32,75.03L263.05,57.25L263.48,56.57L267.36,52.14L267.79,51.87L270.8,51.25L271.23,51.43L275.54,52.97L275.97,53.03L277.69,52.58L278.12,52.2L282.86,48.3L283.29,48.42L285.01,49.96L285.44,50.51L289.32,54.46L289.75,54.54L292.33,53.69L292.76,53.38L299.22,47.44L299.65,47.52L301.37,49.04L301.8,49.67L305.68,54.48L306.11,54.59L310.84,54.06L311.27,53.94L313.86,52.79L314.29,52.35L319.02,46.81L319.45,46.82L320.74,47.86L321.17,48.52L325.05,53.81L325.48,53.99L327.2,53.25L327.63,52.99L332.8,50.77L333.23,50.82L337.1,50.74L337.53,50.52L340.98,49.36L341.41,49.41L344.85,50.5L345.28,50.73L350.45,53.47L350.88,53.38L356.48,50.98L356.91,51.11L359.92,51.37L360.35,51.15L365.09,47.63L365.52,47.73L367.24,49.16L367.67,49.79L371.12,53.81L371.55,54.11L374.99,54.96L375.42,54.87L378.43,53.17L378.86,52.66L384.46,45.59L384.89,45.56L386.18,46.4L386.61,46.95L391.78,54.33L392.21,54.59L401.25,57.59L401.68,57.53L405.13,56.28L405.56,56.05L407.28,54.64L407.71,54.04L409.86,49.5L410.29,48.25L413.31,40.94L413.74,40.88L414.6,41.94L415.03,42.99L418.47,55.8L418.9,57.41L421.92,65.66L422.35,66.54L424.07,67.88L424.5,67.98L428.81,69.63L429.24,69.97L430.96,70.03L431.39,69.77L435.26,68.05L435.69,67.89L440,66.68" style="vector-effect: non-scaling-stroke; fill: none; stroke: rgb(136, 204, 238); stroke-opacity: 1; stroke-width: 2px; opacity: 1;"/></g><g class="points"/><g class="text"/></g><g class="trace scatter trace6a7e77" style="stroke-miterlimit: 2; opacity: 1;"><g class="fills"/><g class="errorbars"/><g class="lines"><path class="js-line" d="M0,58.8L11.62,58.73L12.05,58.62L15.93,56.77L16.36,56.44L18.94,53.19L19.37,52.41L24.54,42.14L24.97,42.4L26.26,45.03L26.69,46.39L31,58.91L31.43,59.6L34.01,62.1L34.44,62.37L40.04,66.11L40.47,66.59L44.34,72.19L44.77,72.83L46.93,74.57L47.36,74.5L48.65,73.29L49.08,72.62L54.68,63.49L55.11,63.17L58.12,62.08L58.55,62.09L62,62.9L62.43,63.12L65.44,65.72L65.87,66.29L68.88,71.68L69.32,72.58L71.9,76.33L72.33,76.31L73.62,74.75L74.05,73.79L79.22,62.01L79.65,61.52L82.23,59.76L82.66,59.58L89.98,56.68L90.41,56.32L92.99,53.21L93.42,52.49L98.59,42.77L99.02,42.86L100.31,44.94L100.74,46.12L105.48,58.65L105.91,59.21L108.92,61.57L109.35,61.79L114.95,65.15L115.38,65.56L118.4,69.92L118.83,70.71L121.84,75.31L122.27,75.48L123.56,74.77L123.99,74.13L130.45,62.24L130.88,61.91L133.89,60.73L134.32,60.69L139.06,61.01L139.49,61.09L143.37,62.8L143.8,63.13L146.38,66.27L146.81,67.03L149.82,74.59L150.25,75.79L151.98,78.58L152.41,78.47L153.7,75.88L154.13,74.42L158.43,60.55L158.86,59.79L161.45,57.03L161.88,56.75L167.91,52.17L168.34,51.7L173.5,46.58L173.93,46.62L175.66,47.81L176.09,48.35L181.68,55.34L182.11,55.58L184.7,56.06L185.13,56L187.71,55.03L188.14,54.76L191.15,51.74L191.59,51.17L195.89,45.81L196.32,45.7L197.61,46.3L198.04,46.8L201.49,52.91L201.92,53.62L204.93,56.71L205.36,56.94L207.95,57.43L208.38,57.39L211.82,56.12L212.25,55.8L214.83,53.1L215.26,52.49L220.43,44.31L220.86,44.27L222.15,45.53L222.58,46.29L228.18,57.65L228.61,58.06L231.62,59.58L232.05,59.69L246.26,61.74L246.69,61.95L249.28,64.27L249.71,64.88L251.86,69.33L252.29,70.56L255.73,80.04L256.16,80.06L257.03,78.62L257.46,77.23L262.62,58.23L263.05,57.52L265.64,54.91L266.07,54.63L276.83,48.54L277.26,48.56L279.41,49.43L279.84,49.73L286.3,53.6L286.73,53.65L289.75,53.17L290.18,52.98L294.05,50.25L294.48,49.89L297.93,48.1L298.36,48.11L300.51,49.11L300.94,49.46L306.54,53.91L306.97,54.05L309.55,54.1L309.98,53.99L312.99,52.43L313.42,52.08L319.45,47.57L319.88,47.58L322.04,48.88L322.47,49.34L328.06,54.52L328.49,54.67L331.08,54.75L331.51,54.63L334.52,52.93L334.95,52.57L341.41,46.96L341.84,47.02L343.56,48.29L343.99,48.81L349.59,55.12L350.02,55.33L352.6,55.71L353.03,55.63L356.05,54.17L356.48,53.81L359.49,50.43L359.92,49.85L363.37,46.17L363.8,46.12L365.09,46.73L365.52,47.18L368.53,52.04L368.96,52.71L371.98,56.05L372.41,56.3L374.99,56.87L375.42,56.84L378.43,55.7L378.86,55.41L381.45,52.85L381.88,52.24L387.05,44.99L387.48,44.95L388.77,46.05L389.2,46.72L395.23,57.25L395.66,57.58L398.67,58.68L399.1,58.71L402.97,58.1L403.41,57.95L406.42,56.05L406.85,55.61L409.43,51.81L409.86,50.93L414.17,42.54L414.6,42.63L415.89,44.74L416.32,45.94L421.06,58.85L421.49,59.46L424.5,61.98L424.93,62.23L430.1,65.58L430.53,66.06L433.97,71.1L434.4,71.83L436.99,74.99L437.42,75.07L438.71,74.13L439.14,73.47L440,71.78" style="vector-effect: non-scaling-stroke; fill: none; stroke: rgb(0, 0, 0); stroke-opacity: 1; stroke-width: 1px; opacity: 1; stroke-dasharray: 9px, 9px;"/></g><g class="points"/><g class="text"/></g><g class="trace scatter trace4f9d3e" style="stroke-miterlimit: 2; opacity: 1;"><g class="fills"/><g class="errorbars"/><g class="lines"><path class="js-line" d="M0,58.67L3.87,54.24L4.31,54.16L6.89,53.24L7.32,52.96L10.76,49.76L11.19,49.04L15.5,42.6L15.93,42.09L17.65,41.22L18.08,41.28L19.8,42.56L20.23,43.18L24.11,50.29L24.54,51.43L27.55,58.03L27.98,58.4L30.57,59.04L31,59.16L36.16,59.9L36.59,59.91L38.75,60.72L39.18,61.08L41.76,64.49L42.19,65.43L46.07,76.05L46.5,77.43L48.22,80.99L48.65,80.99L49.51,79.49L49.94,78.02L54.25,61.36L54.68,60.97L56.4,60.8L56.83,60.93L60.27,62.94L60.7,63.32L64.15,67.57L64.58,68.29L69.75,76.97L70.18,76.94L71.47,75.09L71.9,73.99L77.5,60.1L77.93,59.76L79.65,59.58L80.08,59.73L85.24,60.88L85.68,60.82L87.83,59.89L88.26,59.22L97.3,41.66L97.73,41.65L98.59,42.61L99.02,43.63L101.17,52.62L101.6,54.52L103.76,60.4L104.19,60.86L105.91,61.19L106.34,61.05L109.78,60.35L110.22,60.49L111.94,62.21L112.37,62.74L114.95,66.69L115.38,67.63L120.55,80.65L120.98,80.6L121.84,78.97L122.27,77.47L126.58,60.54L127.01,59.79L129.16,58.14L129.59,58.02L133.46,56.76L133.89,56.46L144.66,49.74L145.09,49.67L147.24,50.06L147.67,50.31L148.96,50.42L149.39,50.06L151.55,46.74L151.98,45.66L155.85,34.86L156.28,35.6L157.57,42L158,44.96L160.16,56L160.59,57.1L163.6,61.57L164.03,61.78L165.75,61.27L166.18,61.02L168.77,58.62L169.2,58.12L172.64,52.9L173.07,52.1L176.95,46.43L177.38,46.09L179.1,45.57L179.53,45.74L180.82,47.42L181.25,48.41L185.56,59.25L185.99,59.38L189.86,59.22L190.29,59.07L192.45,57.53L192.88,56.96L195.89,51.37L196.32,50.27L199.33,43.85L199.77,43.62L200.63,44.17L201.06,44.86L204.5,50.1L204.93,50.52L209.24,56.01L209.67,55.84L214.4,52.43L214.83,51.89L218.71,46.06L219.14,45.37L220.86,43.81L221.29,43.96L222.58,46.21L223.01,47.47L226.89,58.23L227.32,58.68L229.47,59.72L229.9,59.76L239.8,60.25L240.23,59.97L241.53,59.69L241.96,59.93L246.69,63.95L247.12,64.61L250.14,70L250.57,71.28L254.87,86.24L255.3,85.62L256.59,77.95L257.03,74.1L259.61,55.03L260.04,53.72L261.33,52.12L261.76,52.01L266.5,51.42L266.93,51.22L269.08,51.35L269.51,51.47L274.25,52.89L274.68,52.75L277.69,51.09L278.12,50.46L281.14,46.84L281.57,46.91L282.86,48.43L283.29,49.23L286.3,53.74L286.73,54.04L289.32,54.86L289.75,54.61L293.62,49.96L294.05,49.34L297.06,46.03L297.5,45.99L298.79,47.01L299.22,47.69L303.52,55.66L303.95,55.82L305.68,55.51L306.11,55.27L312.99,50.96L313.42,50.47L315.58,46.61L316.01,45.73L317.3,44.31L317.73,44.37L319.02,45.99L319.45,46.96L322.9,54.88L323.33,55.11L325.05,54.78L325.48,54.54L331.51,50.25L331.94,50.31L335.38,51.02L335.81,50.76L338.83,49.13L339.26,49.21L343.56,51.42L343.99,51.78L347.44,54.41L347.87,54.43L350.45,53.51L350.88,53.16L354.76,49.67L355.19,49.76L358.2,51.06L358.63,50.83L363.8,47.14L364.23,47.56L366.38,51.58L366.81,52.51L368.96,55.68L369.39,55.97L371.55,56.09L371.98,55.93L376.28,54.02L376.71,53.51L380.59,46.82L381.02,46.17L382.74,44.56L383.17,44.59L384.46,46.27L384.89,47.35L388.77,57.93L389.2,58.36L390.92,58.79L391.35,58.72L402.97,55.7L403.41,55.39L406.42,51.87L406.85,51.15L409,45.37L409.43,43.79L412.02,36.15L412.45,36.49L413.31,39.7L413.74,42.46L417.18,65.47L417.61,66.72L419.33,69.15L419.77,69.32L424.07,69.28L424.5,69.29L430.1,70.11L430.53,69.9L436.99,66.98L437.42,66.95L440,66.4" style="vector-effect: non-scaling-stroke; fill: none; stroke: rgb(204, 102, 119); stroke-opacity: 1; stroke-width: 2px; opacity: 1;"/></g><g class="points"/><g class="text"/></g><g class="trace scatter trace6eadac" style="stroke-miterlimit: 2; opacity: 1;"><g class="fills"/><g class="errorbars"/><g class="lines"><path class="js-line" d="M0,58.93L3.87,59.46L4.31,59.44L10.33,58.51L10.76,58.37L14.21,56.35L14.64,55.93L16.79,53.02L17.22,52.19L19.8,45.14L20.23,43.65L22.82,37.4L23.25,37.75L24.11,40.41L24.54,42.69L27.98,61.69L28.41,62.62L30.14,64.05L30.57,64.12L35.3,64.5L35.73,64.72L38.75,67.42L39.18,68.02L45.21,77.2L45.64,76.99L46.93,74.67L47.36,73.39L51.23,62.36L51.66,61.84L53.82,60.84L54.25,60.86L58.12,61.94L58.55,62.12L62.43,64.83L62.86,65.32L65.44,69.44L65.87,70.37L70.18,80L70.61,79.92L71.47,78.44L71.9,77.01L76.2,59.72L76.63,59.11L78.36,58.24L78.79,58.23L85.24,57.95L85.68,57.81L88.69,55.88L89.12,55.45L91.7,51.45L92.13,50.49L96.87,38.42L97.3,38.58L98.16,40.61L98.59,42.45L102.47,61.26L102.9,62L104.62,63.08L105.05,63.1L110.22,63.58L110.65,63.75L113.23,65.76L113.66,66.24L116.67,71.44L117.1,72.42L120.55,78.66L120.98,78.54L122.27,76.05L122.7,74.56L126.58,61.18L127.01,60.59L129.16,59.59L129.59,59.59L137.34,61.04L137.77,61.17L141.21,62.75L141.64,63.1L144.23,66.34L144.66,67.15L147.24,74.28L147.67,75.87L150.25,83.78L150.68,83.77L151.55,81.49L151.98,79.21L155.85,56.48L156.28,55.73L158,54.84L158.43,54.85L162.31,54.58L162.74,54.37L165.32,52.33L165.75,51.84L171.78,44.6L172.21,44.73L173.5,46.31L173.93,47.17L178.67,56.57L179.1,56.89L181.25,57.31L181.68,57.24L185.56,55.31L185.99,54.95L189,51.43L189.43,50.76L194.6,43.26L195.03,43.43L196.32,45.53L196.75,46.69L201.06,57.68L201.49,58.09L203.64,58.76L204.07,58.69L207.51,57.51L207.95,57.29L211.39,54.6L211.82,54.1L214.4,49.81L214.83,48.88L218.71,40.95L219.14,40.97L220,42.1L220.43,43.26L225.17,59.73L225.6,60.21L227.32,60.87L227.75,60.85L238.51,60.33L238.94,60.38L244.11,61.68L244.54,61.92L247.12,64.25L247.55,64.85L249.71,69.46L250.14,70.79L254.44,86.6L254.87,86.09L255.73,81.97L256.16,78.49L259.18,55.19L259.61,54.01L260.9,52.57L261.33,52.51L266.93,52.49L267.36,52.27L271.66,49.07L272.09,48.73L274.68,47.52L275.11,47.55L277.26,48.87L277.69,49.34L282.43,54.06L282.86,54.24L285.44,54.35L285.87,54.22L288.88,52.64L289.32,52.29L295.77,46.9L296.2,46.92L297.93,47.92L298.36,48.4L303.52,54.69L303.95,54.88L306.54,55L306.97,54.88L309.98,53.13L310.41,52.78L317.73,46.16L318.16,46.31L319.88,48.1L320.31,48.81L324.62,55.13L325.05,55.41L327.2,55.88L327.63,55.81L330.65,54.39L331.08,54.07L334.52,50.45L334.95,49.84L338.83,45.31L339.26,45.19L340.55,45.76L340.98,46.31L343.56,51.74L343.99,52.67L346.58,56.29L347.01,56.54L349.16,56.82L349.59,56.74L352.6,55.31L353.03,55L356.48,51.26L356.91,50.62L361.64,43.94L362.07,43.93L363.37,45.24L363.8,46.09L368.96,57.48L369.39,57.75L371.55,58.08L371.98,58L375.42,56.47L375.85,56.2L378.86,53.24L379.3,52.63L382.74,46.02L383.17,45.09L385.32,42.02L385.75,42.06L386.61,43.14L387.05,44.17L391.78,58.62L392.21,59.09L394.36,59.89L394.79,59.85L399.96,58.56L400.39,58.41L403.84,56.43L404.27,56.04L406.85,52.39L407.28,51.53L410.29,43.08L410.72,41.71L412.45,38.13L412.88,38.23L413.74,40.22L414.17,42.1L418.04,61.58L418.47,62.32L420.2,63.43L420.63,63.48L425.36,63.95L425.79,64.16L428.38,66.26L428.81,66.77L431.82,71.92L432.25,72.84L435.26,77.93L435.69,77.94L436.56,77.02L436.99,76.07L440,65.22" style="vector-effect: non-scaling-stroke; fill: none; stroke: rgb(0, 0, 0); stroke-opacity: 1; stroke-width: 1px; opacity: 1; stroke-dasharray: 9px, 9px;"/></g><g class="points"/><g class="text"/></g><g class="trace scatter trace50cbd5" style="stroke-miterlimit: 2; opacity: 1;"><g class="fills"/><g class="errorbars"/><g class="lines"><path class="js-line" d="M0,38.67L4.31,40.42L4.74,40.74L7.75,44.15L8.18,44.68L10.33,46.32L10.76,46.38L12.49,45.78L12.92,45.36L15.07,41.77L15.5,40.77L19.37,29.07L19.8,27.71L22.39,22.04L22.82,21.4L24.97,19.71L25.4,19.81L27.12,21.92L27.55,22.72L38.75,44.02L39.18,44.67L43.05,48.9L43.48,48.85L44.77,47.7L45.21,46.98L46.5,43L46.93,40.88L51.23,16.74L51.66,16.23L52.52,16.58L52.95,17.29L55.97,25.81L56.4,26.99L60.27,35.78L60.7,36.49L63.72,40.01L64.15,40.24L65.87,40.07L66.3,39.7L68.02,36.76L68.45,35.53L73.19,20.57L73.62,20.19L74.91,20.27L75.34,20.68L77.5,24.67L77.93,25.56L86.11,40.97L86.54,41.48L88.69,42.84L89.12,42.94L91.27,43.13L91.7,42.86L94.29,39.75L94.72,38.99L96.44,34.02L96.87,32.26L100.74,17.87L101.17,17.76L102.04,18.68L102.47,19.58L109.35,35.95L109.78,36.64L115.38,45.33L115.81,45.41L117.1,44.54L117.53,43.85L119.26,38.42L119.69,36.3L123.56,16.93L123.99,16.57L124.85,17.01L125.28,17.66L127.87,24.1L128.3,25.24L132.6,33.93L133.03,34.53L137.77,39.64L138.2,40.03L141.64,42.38L142.07,42.58L145.52,44.53L145.95,44.91L148.96,48.72L149.39,49.2L151.55,50.4L151.98,50.15L153.27,47.36L153.7,45.67L155.42,34.53L155.85,30.79L158,15.73L158.43,14.87L159.3,15.18L159.73,15.96L168.34,35.11L168.77,35.47L171.78,37.43L172.21,37.49L173.93,36.95L174.36,36.6L176.52,33.42L176.95,32.53L182.54,21.03L182.97,21.14L184.27,23.18L184.7,24.26L189.86,36.4L190.29,37.13L193.31,41.01L193.74,41.28L195.46,41.65L195.89,41.47L197.61,39.19L198.04,38.26L200.63,29.74L201.06,28.37L202.78,25.35L203.21,25.16L205.79,25.66L206.22,25.88L207.95,27.88L208.38,28.71L212.68,36.22L213.11,36.57L216.13,37.9L216.56,37.89L217.85,36.94L218.28,36.33L220,32.53L220.43,31.2L223.87,21.79L224.31,21.74L225.6,23.52L226.03,24.56L232.49,40.46L232.92,41.17L237.22,46.25L237.65,46.67L243.25,50.75L243.68,50.97L245.83,52.56L246.26,52.97L247.98,53.33L248.41,53.18L250.57,51.64L251,51.03L252.29,47.6L252.72,45.74L254.44,33.52L254.87,29.27L257.46,9.72L257.89,9.44L258.75,11.19L259.18,12.84L262.19,23.39L262.62,24.29L265.21,28.01L265.64,28.3L267.79,28.6L268.22,28.6L271.66,28.97L272.09,29.31L277.69,33.61L278.12,33.59L279.84,32.55L280.27,31.97L284.15,25.55L284.58,25.64L286.3,27.49L286.73,28.15L291.9,35.28L292.33,35.53L293.62,35.33L294.05,34.95L296.63,31.11L297.06,30.14L300.51,23.52L300.94,23.42L302.23,24.42L302.66,25.06L308.26,33.44L308.69,33.85L312.99,37L313.42,37.07L315.15,36.18L315.58,35.59L317.3,31.31L317.73,29.87L320.31,23.25L320.74,23.06L322.04,24.07L322.47,24.75L326.77,31.06L327.2,31.2L329.78,31.33L330.22,31.13L334.09,29.74L334.52,29.83L337.1,30.25L337.53,30.02L343.13,26.15L343.56,26.11L345.71,26.62L346.14,26.94L352.17,32.64L352.6,32.66L354.32,31.96L354.76,31.6L356.91,30.6L357.34,30.69L360.78,31.69L361.21,31.32L363.37,27.53L363.8,26.57L365.95,23.05L366.38,22.82L367.67,23.39L368.1,23.92L376.71,35.43L377.14,35.8L378.86,36.16L379.3,35.85L381.02,32.91L381.45,31.82L386.18,18.64L386.61,18.51L387.91,19.58L388.34,20.26L397.38,34.8L397.81,35.51L404.27,44.74L404.7,45.12L406.85,46.14L407.28,46.04L408.57,44.97L409,44.3L410.29,40.29L410.72,38.04L415.03,10.5L415.46,10.8L416.75,14.64L417.18,16.38L420.63,27.84L421.06,28.57L422.78,30.27L423.21,30.3L428.38,29.89L428.81,29.63L432.68,27.59L433.11,27.61L435.69,28.56L436.13,28.89L439.57,30.56L440,30.76" style="vector-effect: non-scaling-stroke; fill: none; stroke: rgb(221, 204, 119); stroke-opacity: 1; stroke-width: 2px; opacity: 1;"/></g><g class="points"/><g class="text"/></g><g class="trace scatter trace739571" style="stroke-miterlimit: 2; opacity: 1;"><g class="fills"/><g class="errorbars"/><g class="lines"><path class="js-line" d="M0,20L5.17,32.41L5.6,33.26L10.76,41.5L11.19,42.05L15.5,46.17L15.93,46.42L18.08,46.66L18.51,46.38L19.8,44.47L20.23,43.32L21.96,35.43L22.39,32.57L25.4,14.12L25.83,13.61L26.69,14.41L27.12,15.49L33.15,32.18L33.58,32.96L37.46,38.29L37.89,38.66L40.04,39.57L40.47,39.5L42.19,37.95L42.62,37.19L44.77,30.76L45.21,29.08L48.22,19.83L48.65,19.55L49.94,20.36L50.37,21.04L60.27,39.76L60.7,40.26L64.15,43.23L64.58,43.34L66.3,42.84L66.73,42.38L68.45,38.43L68.88,36.85L73.62,16.38L74.05,16.47L75.34,18.8L75.77,19.97L81.37,33.76L81.8,34.57L86.54,41.73L86.97,42.25L90.41,45.19L90.84,45.37L92.56,45.15L92.99,44.78L94.29,42.49L94.72,41.25L96.44,33.04L96.87,30.24L99.88,14.88L100.31,14.7L101.17,15.86L101.6,16.95L107.63,32.91L108.06,33.72L112.37,39.87L112.8,40.29L115.38,41.61L115.81,41.56L117.1,40.66L117.53,40.05L119.26,35.55L119.69,33.89L123.56,18.35L123.99,17.98L124.85,18.36L125.28,19L128.73,27.28L129.16,28.3L134.32,38.2L134.76,38.86L139.49,44.94L139.92,45.36L144.23,48.34L144.66,48.42L146.38,47.69L146.81,47.13L148.1,44L148.53,42.29L150.25,31.35L150.68,27.74L153.27,12.3L153.7,12.25L154.99,15.39L155.42,16.98L159.3,28.74L159.73,29.63L163.6,35.57L164.03,35.99L166.18,37.28L166.61,37.34L168.34,36.51L168.77,36.03L170.92,31.76L171.35,30.56L174.79,22.15L175.23,21.78L176.52,22L176.95,22.41L179.53,26.67L179.96,27.5L185.56,36.49L185.99,36.99L188.57,38.94L189,39.04L190.72,38.5L191.15,38.08L192.88,34.84L193.31,33.63L198.04,20.07L198.47,20.04L199.77,21.27L200.2,22.01L209.24,38.79L209.67,39.34L212.68,41.97L213.11,42.12L214.83,41.75L215.26,41.33L216.99,37.84L217.42,36.42L222.15,17.57L222.58,17.48L223.87,19.17L224.31,20.15L231.19,35.91L231.62,36.66L237.22,44.46L237.65,44.93L243.68,50.23L244.11,50.51L247.98,52.27L248.41,52.3L250.14,51.55L250.57,51.03L251.86,47.92L252.29,46.18L254.01,33.92L254.44,29.58L257.03,9.47L257.46,9.37L258.32,11.59L258.75,13.39L262.19,25.72L262.62,26.66L265.64,31.19L266.07,31.64L269.08,33.51L269.51,33.57L271.66,32.96L272.09,32.66L274.68,29.56L275.11,28.95L278.55,25.15L278.98,25.03L280.7,25.52L281.14,25.82L284.58,29.54L285.01,30.03L289.32,33.9L289.75,34.1L291.9,34.21L292.33,34.02L294.48,31.94L294.91,31.28L299.65,24.42L300.08,24.28L301.8,24.86L302.23,25.25L306.11,30.22L306.54,30.79L310.41,34.7L310.84,34.95L312.99,35.31L313.42,35.18L315.15,33.77L315.58,33.17L321.17,23.58L321.6,23.47L323.33,24.3L323.76,24.77L328.92,32.31L329.35,32.87L332.8,36.17L333.23,36.36L335.38,36.26L335.81,35.96L337.53,33.72L337.96,32.88L343.13,22.26L343.56,22.22L344.85,23.1L345.28,23.65L350.45,32.4L350.88,33.09L354.76,37.6L355.19,37.87L357.34,38.23L357.77,38.03L359.49,35.99L359.92,35.15L362.5,27.49L362.94,26.06L365.09,21.12L365.52,20.81L366.81,21.37L367.24,21.91L370.68,28.53L371.12,29.39L375.85,37.34L376.28,37.87L379.3,40.51L379.73,40.66L381.45,40.33L381.88,39.93L383.6,36.6L384.03,35.29L388.77,18.8L389.2,18.69L390.49,20.04L390.92,20.89L399.53,38.63L399.96,39.28L404.7,44.79L405.13,45.11L407.28,45.87L407.71,45.79L409,44.69L409.43,43.96L411.15,38.26L411.59,35.99L415.46,14.54L415.89,14.36L416.75,15.57L417.18,16.69L422.78,31.97L423.21,32.8L427.51,39.01L427.95,39.42L430.53,40.57L430.96,40.47L432.68,38.7L433.11,37.85L435.26,30.6L435.69,28.72L438.28,19.37L438.71,18.83L439.57,18.79L440,19.21" style="vector-effect: non-scaling-stroke; fill: none; stroke: rgb(0, 0, 0); stroke-opacity: 1; stroke-width: 1px; opacity: 1; stroke-dasharray: 9px, 9px;"/></g><g class="points"/><g class="text"/></g></g></g><g class="overplot"/><path class="xlines-above crisp" d="M79,357.1666666666667H520" style="fill: none; stroke-width: 1px; stroke: rgb(36, 36, 36); stroke-opacity: 1;"/><path class="ylines-above crisp" d="M79.5,263.3333333333333V356.6666666666667" style="fill: none; stroke-width: 1px; stroke: rgb(36, 36, 36); stroke-opacity: 1;"/><g class="overlines-above"/><g class="xaxislayer-above"><path class="x2tick ticks crisp" d="M0,357.6666666666667v5" transform="translate(80,0)" style="stroke: rgb(68, 68, 68); stroke-opacity: 1; stroke-width: 1px;"/><path class="x2tick ticks crisp" d="M0,357.6666666666667v5" transform="translate(190.22,0)" style="stroke: rgb(68, 68, 68); stroke-opacity: 1; stroke-width: 1px;"/><path class="x2tick ticks crisp" d="M0,357.6666666666667v5" transform="translate(300.43,0)" style="stroke: rgb(68, 68, 68); stroke-opacity: 1; stroke-width: 1px;"/><path class="x2tick ticks crisp" d="M0,357.6666666666667v5" transform="translate(410.65,0)" style="stroke: rgb(68, 68, 68); stroke-opacity: 1; stroke-width: 1px;"/></g><g class="yaxislayer-above"><path class="y2tick ticks crisp" d="M79,0h-5" transform="translate(0,350.00333333333333)" style="stroke: rgb(68, 68, 68); stroke-opacity: 1; stroke-width: 1px;"/><path class="y2tick ticks crisp" d="M79,0h-5" transform="translate(0,323.3333333333333)" style="stroke: rgb(68, 68, 68); stroke-opacity: 1; stroke-width: 1px;"/><path class="y2tick ticks crisp" d="M79,0h-5" transform="translate(0,296.6633333333333)" style="stroke: rgb(68, 68, 68); stroke-opacity: 1; stroke-width: 1px;"/><path class="y2tick ticks crisp" d="M79,0h-5" transform="translate(0,270.00333333333333)" style="stroke: rgb(68, 68, 68); stroke-opacity: 1; stroke-width: 1px;"/><g class="y2tick"><text text-anchor="end" x="71.6" y="4.199999999999999" transform="translate(0,350.00333333333333)" style="font-family: 'Open Sans', verdana, arial, sans-serif; font-size: 12px; fill: rgb(36, 36, 36); fill-opacity: 1; white-space: pre; opacity: 1;">−20</text></g><g class="y2tick"><text text-anchor="end" x="71.6" y="4.199999999999999" style="font-family: 'Open Sans', verdana, arial, sans-serif; font-size: 12px; fill: rgb(36, 36, 36); fill-opacity: 1; white-space: pre; opacity: 1;" transform="translate(0,323.3333333333333)">0</text></g><g class="y2tick"><text text-anchor="end" x="71.6" y="4.199999999999999" style="font-family: 'Open Sans', verdana, arial, sans-serif; font-size: 12px; fill: rgb(36, 36, 36); fill-opacity: 1; white-space: pre; opacity: 1;" transform="translate(0,296.6633333333333)">20</text></g><g class="y2tick"><text text-anchor="end" x="71.6" y="4.199999999999999" style="font-family: 'Open Sans', verdana, arial, sans-serif; font-size: 12px; fill: rgb(36, 36, 36); fill-opacity: 1; white-space: pre; opacity: 1;" transform="translate(0,270.00333333333333)">40</text></g></g><g class="overaxes-above"/></g><g class="subplot x3y3"><g class="layer-subplot"><g class="shapelayer"/><g class="imagelayer"/></g><g class="gridlayer"><g class="x3"/><g class="y3"/></g><g class="zerolinelayer"/><path class="xlines-below"/><path class="ylines-below"/><g class="overlines-below"/><g class="xaxislayer-below"/><g class="yaxislayer-below"/><g class="overaxes-below"/><g class="plot" transform="translate(80,426.6666666666667)" clip-path="url(#clipb7cfc5x3y3plot)"><g class="scatterlayer mlayer"><g class="trace scatter trace96144a" style="stroke-miterlimit: 2; opacity: 1;"><g class="fills"/><g class="errorbars"/><g class="lines"><path class="js-line" d="M0,6.21L2.58,28.24L3.01,31.02L6.03,45.36L6.46,45.92L7.75,45.98L8.18,45.78L9.9,45L10.33,44.17L11.62,39.43L12.05,37.2L17.65,12.73L18.08,11.64L19.37,9.99L19.8,10.53L21.1,17.08L21.53,20.63L24.97,46.15L25.4,48.45L28.41,64.2L28.85,64.73L30.57,64.77L31,64.86L33.58,65.19L34.01,64.85L35.3,63.25L35.73,62.28L38.32,51.61L38.75,49.71L41.33,33.67L41.76,30.44L45.64,1.75L46.07,1.21L46.93,4.16L47.36,7.35L51.23,34.9L51.66,36.83L59.84,73.1L60.27,74.02L62.43,77.78L62.86,78.06L65.44,78.58L65.87,78.4L67.16,78.43L67.59,78.53L68.88,77.86L69.32,77.49L71.04,75.41L71.47,74.38L73.19,71.15L73.62,71.67L74.91,76.48L75.34,78.45L77.5,85.52L77.93,86.24L79.22,85.77L79.65,85.67L81.37,84.54L81.8,84.03L83.52,79.67L83.95,78.54L86.97,74.11L87.4,74.14L88.26,77.01L88.69,79.09L89.98,82.51L90.41,82.59L91.27,81.36L91.7,80.17L93.86,76.18L94.29,76.1L95.58,75.04L96.01,74.22L99.02,66.32L99.45,66.39L100.74,68.73L101.17,69.97L105.48,81.49L105.91,81.32L108.06,78.55L108.49,77.82L110.22,74.79L110.65,75.15L111.08,76.14L112.37,78.32L112.8,78.09L116.24,74.68L116.67,74.84L117.96,76.09L118.4,76.82L123.56,86.27L123.99,86.61L125.71,86.9L126.14,86.84L128.3,86.01L128.73,85.39L132.6,75.97L133.03,73.78L140.78,29.85L141.21,27.03L148.53,-60.06L148.96,-72.24L152.41,-158.89L155.42,-83.68L155.85,-68.48L158.43,-9.35L158.86,-2.43L161.45,28.5L161.88,30.75L163.6,35.36L164.03,35.86L165.75,36.61L166.18,35.84L168.34,31.55L168.77,31.03L173.07,21.65L173.5,21.78L174.79,24.21L175.23,25.65L178.24,36.15L178.67,35.55L182.11,25.42L182.54,25.87L183.41,28.59L183.84,30.96L187.28,50.11L187.71,50.17L188.57,48.37L189,46.84L190.72,36.46L191.15,33.02L195.89,-0.99L196.32,-1.27L197.61,1.82L198.04,3.67L200.2,18.69L200.63,22.37L202.35,32.6L202.78,33.61L204.5,34.69L204.93,34.83L205.79,35.99L206.22,37.12L208.38,46.69L208.81,49.51L211.39,63.56L211.82,64.69L214.83,68.69L215.26,68.99L216.13,67.61L216.56,66.2L220.86,47.09L221.29,47.35L222.58,51.42L223.01,53.53L228.61,84.59L229.04,84.72L233.78,81.89L234.21,82.23L237.22,84.77L237.65,84.94L238.51,85.7L238.94,86.57L239.8,88.46L240.23,88.16L240.67,87.17L241.53,86.65L241.96,87.4L243.68,89.61L244.11,89.78L246.26,87.5L246.69,86.83L247.55,87.28L247.98,88.21L249.28,89.68L249.71,88.98L252.29,81.77L252.72,79.78L254.87,72.4L255.3,71.95L256.59,72.82L257.03,73.31L258.75,75.69L259.18,76.88L261.33,82.8L261.76,82.56L263.48,81.71L263.91,81.34L265.64,78.16L266.07,76.64L268.22,70.19L268.65,69.68L270.8,68.02L271.23,68.33L272.52,68.02L272.95,67.34L274.68,62.03L275.11,60.3L277.69,51.11L278.12,51.54L281.57,57.38L282,58.64L285.44,68.72L285.87,70.63L288.02,78.57L288.45,78.95L290.18,78.82L290.61,79.33L291.47,79.19L291.9,78.4L293.19,76.57L293.62,77.02L295.77,78.95L296.2,79.13L297.93,81.26L298.36,82.04L302.66,88.55L303.09,88.53L304.38,87.83L304.81,87.3L305.68,86.89L306.11,87.34L308.69,90.48L309.12,90.3L311.27,88.38L311.7,87.32L313.86,81.92L314.29,81.69L316.87,81.63L317.3,82.42L319.88,87.64L320.31,87.7L321.17,86.28L321.6,84.65L323.33,79.95L323.76,79.44L325.48,77.8L325.91,78.19L326.77,78.75L327.2,78.18L328.92,72.17L329.35,70L331.94,59.51L332.37,58.92L333.66,59.22L334.09,59.75L335.38,63.23L335.81,64.99L337.96,71.54L338.4,71.99L339.69,71.77L340.12,71.48L341.41,71.61L341.84,71.93L343.56,73.58L343.99,74.45L347.01,80.18L347.44,80.32L349.16,78.84L349.59,78.23L350.88,74.83L351.31,72.9L355.19,54.53L355.62,54.17L356.48,54.82L356.91,55.6L358.63,62.24L359.06,64.46L360.78,70.1L361.21,70.79L364.66,77.7L365.09,78.73L367.67,83.51L368.1,83.64L369.39,83.25L369.82,82.7L372.41,78.6L372.84,77.63L373.7,77.09L374.13,77.4L374.99,77.27L375.42,76.44L378,70.04L378.43,68L381.88,44.17L382.31,41.57L384.03,35.13L384.46,34.72L385.32,35.28L385.75,36.14L387.48,42.95L387.91,45.21L390.49,64.67L390.92,68.42L393.5,82.64L393.93,82.84L396.95,81.99L397.38,81.85L399.1,80.77L399.53,81.39L402.11,85.44L402.54,85.71L403.84,85.76L404.27,85.28L405.13,84.59L405.56,85.1L407.28,87L407.71,86.55L409,83.78L409.43,82.04L412.02,64.85L412.45,62.07L413.74,57.37L414.17,57.14L415.46,58.86L415.89,59.68L418.04,62.36L418.47,61.91L421.49,56.45L421.92,54.78L423.64,50.37L424.07,49.74L426.65,44.11L427.08,42.77L430.1,33.42L430.53,33.3L431.82,34.62L432.25,35.39L434.4,38.5L434.83,38.06L436.13,34.32L436.56,32.48L438.28,27.68L438.71,28.33L440,34.17" style="vector-effect: non-scaling-stroke; fill: none; stroke: rgb(136, 136, 136); stroke-opacity: 1; stroke-width: 2px; opacity: 1;"/></g><g class="points"/><g class="text"/></g></g></g><g class="overplot"/><path class="xlines-above crisp" d="M79,520.5H520" style="fill: none; stroke-width: 1px; stroke: rgb(36, 36, 36); stroke-opacity: 1;"/><path class="ylines-above crisp" d="M79.5,426.6666666666667V520" style="fill: none; stroke-width: 1px; stroke: rgb(36, 36, 36); stroke-opacity: 1;"/><g class="overlines-above"/><g class="xaxislayer-above"><path class="x3tick ticks crisp" d="M0,521v5" transform="translate(80,0)" style="stroke: rgb(68, 68, 68); stroke-opacity: 1; stroke-width: 1px;"/><path class="x3tick ticks crisp" d="M0,521v5" transform="translate(190.22,0)" style="stroke: rgb(68, 68, 68); stroke-opacity: 1; stroke-width: 1px;"/><path class="x3tick ticks crisp" d="M0,521v5" transform="translate(300.43,0)" style="stroke: rgb(68, 68, 68); stroke-opacity: 1; stroke-width: 1px;"/><path class="x3tick ticks crisp" d="M0,521v5" transform="translate(410.65,0)" style="stroke: rgb(68, 68, 68); stroke-opacity: 1; stroke-width: 1px;"/></g><g class="yaxislayer-above"><path class="y3tick ticks crisp" d="M79,0h-5" transform="translate(0,519.9966666666667)" style="stroke: rgb(68, 68, 68); stroke-opacity: 1; stroke-width: 1px;"/><path class="y3tick ticks crisp" d="M79,0h-5" transform="translate(0,488.88666666666666)" style="stroke: rgb(68, 68, 68); stroke-opacity: 1; stroke-width: 1px;"/><path class="y3tick ticks crisp" d="M79,0h-5" transform="translate(0,457.7766666666667)" style="stroke: rgb(68, 68, 68); stroke-opacity: 1; stroke-width: 1px;"/><path class="y3tick ticks crisp" d="M79,0h-5" transform="translate(0,426.6666666666667)" style="stroke: rgb(68, 68, 68); stroke-opacity: 1; stroke-width: 1px;"/><g class="y3tick"><text text-anchor="end" x="71.6" y="4.199999999999999" transform="translate(0,519.9966666666667)" style="font-family: 'Open Sans', verdana, arial, sans-serif; font-size: 12px; fill: rgb(36, 36, 36); fill-opacity: 1; white-space: pre; opacity: 1;">0</text></g><g class="y3tick"><text text-anchor="end" x="71.6" y="4.199999999999999" style="font-family: 'Open Sans', verdana, arial, sans-serif; font-size: 12px; fill: rgb(36, 36, 36); fill-opacity: 1; white-space: pre; opacity: 1;" transform="translate(0,488.88666666666666)">5</text></g><g class="y3tick"><text text-anchor="end" x="71.6" y="4.199999999999999" style="font-family: 'Open Sans', verdana, arial, sans-serif; font-size: 12px; fill: rgb(36, 36, 36); fill-opacity: 1; white-space: pre; opacity: 1;" transform="translate(0,457.7766666666667)">10</text></g><g class="y3tick"><text text-anchor="end" x="71.6" y="4.199999999999999" style="font-family: 'Open Sans', verdana, arial, sans-serif; font-size: 12px; fill: rgb(36, 36, 36); fill-opacity: 1; white-space: pre; opacity: 1;" transform="translate(0,426.6666666666667)">15</text></g></g><g class="overaxes-above"/></g></g><g class="polarlayer"/><g class="smithlayer"/><g class="ternarylayer"/><g class="geolayer"/><g class="funnelarealayer"/><g class="pielayer"/><g class="iciclelayer"/><g class="treemaplayer"/><g class="sunburstlayer"/><g class="glimages"/><defs id="topdefs-b7cfc5"><g class="clips"/><clipPath id="legendb7cfc5"><rect width="357" height="48" x="0" y="0"/></clipPath></defs><g class="layer-above"><g class="imagelayer"/><g class="shapelayer"/></g><g class="infolayer"><g class="legend" pointer-events="all" transform="translate(158.60000000000002,30.999999999999986)"><rect class="bg" shape-rendering="crispEdges" width="357" height="48" x="0" y="0" style="stroke: rgb(68, 68, 68); stroke-opacity: 1; fill: rgb(255, 255, 255); fill-opacity: 1; stroke-width: 0px;"/><g class="scrollbox" transform="" clip-path="url(#legendb7cfc5)"><g class="groups"><g class="traces" transform="translate(0,14.5)" style="opacity: 1;"><text class="legendtext" text-anchor="start" x="40" y="4.680000000000001" style="font-family: 'Open Sans', verdana, arial, sans-serif; font-size: 12px; fill: rgb(36, 36, 36); fill-opacity: 1; white-space: pre;">x+y+z</text><g class="layers" style="opacity: 1;"><g class="legendfill"/><g class="legendlines"><path class="js-line" d="M5,0h30" style="fill: none; stroke: rgb(68, 170, 153); stroke-opacity: 1; stroke-width: 2px;"/></g><g class="legendsymbols"><g class="legendpoints"/></g></g><rect class="legendtoggle" x="0" y="-9.5" width="74.5625" height="19" style="fill: rgb(0, 0, 0); fill-opacity: 0;"/></g><g class="traces" transform="translate(101.65625,14.5)" style="opacity: 1;"><text class="legendtext" text-anchor="start" x="40" y="4.680000000000001" style="font-family: 'Open Sans', verdana, arial, sans-serif; font-size: 12px; fill: rgb(36, 36, 36); fill-opacity: 1; white-space: pre;">measured</text><g class="layers" style="opacity: 1;"><g class="legendfill"/><g class="legendlines"><path class="js-line" d="M5,0h30" style="fill: none; stroke: rgb(136, 34, 85); stroke-opacity: 1; stroke-dasharray: 3px, 3px; stroke-width: 1px;"/></g><g class="legendsymbols"><g class="legendpoints"/></g></g><rect class="legendtoggle" x="0" y="-9.5" width="99.15625" height="19" style="fill: rgb(0, 0, 0); fill-opacity: 0;"/></g><g class="traces" transform="translate(203.3125,14.5)" style="opacity: 1;"><text class="legendtext" text-anchor="start" x="40" y="4.680000000000001" style="font-family: 'Open Sans', verdana, arial, sans-serif; font-size: 12px; fill: rgb(36, 36, 36); fill-opacity: 1; white-space: pre;">true</text><g class="layers" style="opacity: 1;"><g class="legendfill"/><g class="legendlines"><path class="js-line" d="M5,0h30" style="fill: none; stroke: rgb(0, 0, 0); stroke-opacity: 1; stroke-dasharray: 9px, 9px; stroke-width: 1px;"/></g><g class="legendsymbols"><g class="legendpoints"/></g></g><rect class="legendtoggle" x="0" y="-9.5" width="66" height="19" style="fill: rgb(0, 0, 0); fill-opacity: 0;"/></g><g class="traces" transform="translate(304.96875,14.5)" style="opacity: 1;"><text class="legendtext" text-anchor="start" x="40" y="4.680000000000001" style="font-family: 'Open Sans', verdana, arial, sans-serif; font-size: 12px; fill: rgb(36, 36, 36); fill-opacity: 1; white-space: pre;">x</text><g class="layers" style="opacity: 1;"><g class="legendfill"/><g class="legendlines"><path class="js-line" d="M5,0h30" style="fill: none; stroke: rgb(136, 204, 238); stroke-opacity: 1; stroke-width: 2px;"/></g><g class="legendsymbols"><g class="legendpoints"/></g></g><rect class="legendtoggle" x="0" y="-9.5" width="49.5" height="19" style="fill: rgb(0, 0, 0); fill-opacity: 0;"/></g><g class="traces" transform="translate(0,33.5)" style="opacity: 1;"><text class="legendtext" text-anchor="start" x="40" y="4.680000000000001" style="font-family: 'Open Sans', verdana, arial, sans-serif; font-size: 12px; fill: rgb(36, 36, 36); fill-opacity: 1; white-space: pre;">y</text><g class="layers" style="opacity: 1;"><g class="legendfill"/><g class="legendlines"><path class="js-line" d="M5,0h30" style="fill: none; stroke: rgb(204, 102, 119); stroke-opacity: 1; stroke-width: 2px;"/></g><g class="legendsymbols"><g class="legendpoints"/></g></g><rect class="legendtoggle" x="0" y="-9.5" width="49.5" height="19" style="fill: rgb(0, 0, 0); fill-opacity: 0;"/></g><g class="traces" transform="translate(101.65625,33.5)" style="opacity: 1;"><text class="legendtext" text-anchor="start" x="40" y="4.680000000000001" style="font-family: 'Open Sans', verdana, arial, sans-serif; font-size: 12px; fill: rgb(36, 36, 36); fill-opacity: 1; white-space: pre;">z</text><g class="layers" style="opacity: 1;"><g class="legendfill"/><g class="legendlines"><path class="js-line" d="M5,0h30" style="fill: none; stroke: rgb(221, 204, 119); stroke-opacity: 1; stroke-width: 2px;"/></g><g class="legendsymbols"><g class="legendpoints"/></g></g><rect class="legendtoggle" x="0" y="-9.5" width="48.5" height="19" style="fill: rgb(0, 0, 0); fill-opacity: 0;"/></g><g class="traces" transform="translate(203.3125,33.5)" style="opacity: 1;"><text class="legendtext" text-anchor="start" x="40" y="4.680000000000001" style="font-family: 'Open Sans', verdana, arial, sans-serif; font-size: 12px; fill: rgb(36, 36, 36); fill-opacity: 1; white-space: pre;">distance</text><g class="layers" style="opacity: 1;"><g class="legendfill"/><g class="legendlines"><path class="js-line" d="M5,0h30" style="fill: none; stroke: rgb(136, 136, 136); stroke-opacity: 1; stroke-width: 2px;"/></g><g class="legendsymbols"><g class="legendpoints"/></g></g><rect class="legendtoggle" x="0" y="-9.5" width="89.609375" height="19" style="fill: rgb(0, 0, 0); fill-opacity: 0;"/></g></g></g><rect class="scrollbar" rx="20" ry="3" width="0" height="0" x="0" y="0" style="fill: rgb(128, 139, 164); fill-opacity: 1;"/></g><g class="g-gtitle"/><g class="g-xtitle"/><g class="g-x2title"/><g class="g-x3title"><text class="x3title" x="300" y="549.8" text-anchor="middle" style="font-family: 'Open Sans', verdana, arial, sans-serif; font-size: 14px; fill: rgb(36, 36, 36); opacity: 1; font-weight: normal; white-space: pre;">Time (s)</text></g><g class="g-ytitle"/><g class="g-y2title"/><g class="g-y3title"/><g class="annotation" data-index="0" style="opacity: 1;"><g class="annotation-text-g" transform="rotate(0,300,86.99999999999999)"><g class="cursor-pointer" transform="translate(164,74)"><rect class="bg" x="0.5" y="0.5" width="271" height="25" style="stroke-width: 1px; stroke: rgb(0, 0, 0); stroke-opacity: 0; fill: rgb(0, 0, 0); fill-opacity: 0;"/><text class="annotation-text" text-anchor="middle" x="135.8125" y="19" style="font-family: 'Open Sans', verdana, arial, sans-serif; font-size: 16px; fill: rgb(36, 36, 36); fill-opacity: 1; white-space: pre;">Observation - Noise volatility: 1e+01</text></g></g></g><g class="annotation" data-index="1" style="opacity: 1;"><g class="annotation-text-g" transform="rotate(0,300,250.33333333333331)"><g class="cursor-pointer" transform="translate(189,237)"><rect class="bg" x="0.5" y="0.5" width="221" height="25" style="stroke-width: 1px; stroke: rgb(0, 0, 0); stroke-opacity: 0; fill: rgb(0, 0, 0); fill-opacity: 0;"/><text class="annotation-text" text-anchor="middle" x="110.859375" y="19" style="font-family: 'Open Sans', verdana, arial, sans-serif; font-size: 16px; fill: rgb(36, 36, 36); fill-opacity: 1; white-space: pre;">States - Noise volatility: 1e-02</text></g></g></g><g class="annotation" data-index="2" style="opacity: 1;"><g class="annotation-text-g" transform="rotate(0,300,413.6666666666667)"><g class="cursor-pointer" transform="translate(218,401)"><rect class="bg" x="0.5" y="0.5" width="163" height="25" style="stroke-width: 1px; stroke: rgb(0, 0, 0); stroke-opacity: 0; fill: rgb(0, 0, 0); fill-opacity: 0;"/><text class="annotation-text" text-anchor="middle" x="81.828125" y="19" style="font-family: 'Open Sans', verdana, arial, sans-serif; font-size: 16px; fill: rgb(36, 36, 36); fill-opacity: 1; white-space: pre;">Phase-space distance</text></g></g></g></g></svg>