<svg class="main-svg" xmlns="http://www.w3.org/2000/svg" xmlns:xlink="http://www.w3.org/1999/xlink" width="600" height="600" style="" viewBox="0 0 600 600"><rect x="0" y="0" width="600" height="600" style="fill: rgb(255, 255, 255); fill-opacity: 1;"/><defs id="defs-b13ea6"><g class="clips"><clipPath id="clipb13ea6xyplot" class="plotclip"><rect width="440" height="93.33333333333333"/></clipPath><clipPath id="clipb13ea6x2y2plot" class="plotclip"><rect width="440" height="93.33333333333336"/></clipPath><clipPath id="clipb13ea6x3y3plot" class="plotclip"><rect width="440" height="93.33333333333334"/></clipPath><clipPath class="axesclip" id="clipb13ea6x"><rect x="80" y="0" width="440" height="600"/></clipPath><clipPath class="axesclip" id="clipb13ea6y"><rect x="0" y="100" width="600" height="93.33333333333333"/></clipPath><clipPath class="axesclip" id="clipb13ea6xy"><rect x="80" y="100" width="440" height="93.33333333333333"/></clipPath><clipPath class="axesclip" id="clipb13ea6y2"><rect x="0" y="263.3333333333333" width="600" height="93.33333333333336"/></clipPath><clipPath class="axesclip" id="clipb13ea6xy2"><rect x="80" y="263.3333333333333" width="440" height="93.33333333333336"/></clipPath><clipPath class="axesclip" id="clipb13ea6y3"><rect x="0" y="426.6666666666667" width="600" height="93.33333333333334"/></clipPath><clipPath class="axesclip" id="clipb13ea6xy3"><rect x="80" y="426.6666666666667" width="440" height="93.33333333333334"/></clipPath><clipPath class="axesclip" id="clipb13ea6x2"><rect x="80" y="0" width="440" height="600"/></clipPath><clipPath class="axesclip" id="clipb13ea6x2y"><rect x="80" y="100" width="440" height="93.33333333333333"/></clipPath><clipPath class="axesclip" id="clipb13ea6x2y2"><rect x="80" y="263.3333333333333" width="440" height="93.33333333333336"/></clipPath><clipPath class="axesclip" id="clipb13ea6x2y3"><rect x="80" y="426.6666666666667" width="440" height="93.33333333333334"/></clipPath><clipPath class="axesclip" id="clipb13ea6x3"><rect x="80" y="0" width="440" height="600"/></clipPath><clipPath class="axesclip" id="clipb13ea6x3y"><rect x="80" y="100" width="440" height="93.33333333333333"/></clipPath><clipPath class="axesclip" id="clipb13ea6x3y2"><rect x="80" y="263.3333333333333" width="440" height="93.33333333333336"/></clipPath><clipPath class="axesclip" id="clipb13ea6x3y3"><rect x="80" y="426.6666666666667" width="440" height="93.33333333333334"/></clipPath></g><g class="gradients"/><g class="patterns"/></defs><g class="bglayer"/><g class="layer-below"><g class="imagelayer"/><g class="shapelayer"/></g><g class="cartesianlayer"><g class="subplot xy"><g class="layer-subplot"><g class="shapelayer"/><g class="imagelayer"/></g><g class="gridlayer"><g class="x"/><g class="y"/></g><g class="zerolinelayer"/><path class="xlines-below"/><path class="ylines-below"/><g class="overlines-below"/><g class="xaxislayer-below"/><g class="yaxislayer-below"/><g class="overaxes-below"/><g class="plot" transform="translate(80,100)" clip-path="url(#clipb13ea6xyplot)"><g class="scatterlayer mlayer"><g class="trace scatter trace08f3dd" style="stroke-miterlimit: 2; opacity: 1;"><g class="fills"/><g class="errorbars"/><g class="lines"><path class="js-line" d="M0,54.83L0.86,40.07L1.29,41.27L6.89,55.3L7.32,55.87L9.9,57.99L10.33,57.95L13.78,59.27L14.21,59.05L15.07,58.18L15.5,57.27L17.22,55.34L17.65,53.94L19.37,45.45L19.8,42.59L21.96,23.64L22.39,19.52L24.11,7.52L24.54,7.34L25.4,10.74L25.83,13.9L30.14,45.68L30.57,47.63L33.15,56.86L33.58,57.75L43.05,77.96L43.48,78.21L44.77,76.86L45.21,75.6L47.79,63.61L48.22,61.43L50.37,52.94L50.8,52.17L52.09,51.32L52.52,51.42L53.39,52.2L53.82,53.1L58.55,60.29L58.98,60.74L63.29,69.13L63.72,70.23L68.45,80.36L68.88,80.37L69.75,79.85L70.18,78.62L72.33,66.93L72.76,63.9L75.77,47.47L76.2,46.69L77.06,46.52L77.5,46.74L78.36,47.49L78.79,48.28L82.66,54.01L83.09,54.56L86.97,56.16L87.4,55.49L89.55,53.28L89.98,53.32L90.84,51.69L91.27,50.32L92.56,46.35L92.99,44.67L95.15,32.78L95.58,29.33L98.16,10.95L98.59,10.07L99.02,10.21L99.45,11.34L100.74,19.84L101.17,23.65L104.19,44.98L104.62,46.73L107.2,53.72L107.63,54.61L115.38,73.56L115.81,74.35L119.26,79.48L119.69,79.19L120.55,77.47L120.98,76.12L123.99,59.73L124.42,57.45L126.58,50.38L127.01,49.78L128.3,49.5L128.73,49.72L129.59,50.34L130.02,50.91L133.89,55.46L134.32,56.22L136.48,59.62L136.91,60.28L143.8,73.51L144.23,74.7L148.96,88.44L149.39,88.39L150.25,86.08L150.68,83.34L155.85,42.18L156.28,41.69L159.73,41.78L160.16,42.31L164.03,45.33L164.46,45.01L165.75,44.25L166.18,43.58L167.05,41.62L167.48,39.87L173.5,21.61L173.93,21.59L174.79,22.38L175.23,23.15L180.82,39.16L181.25,40.34L184.7,47.36L185.13,47.48L187.71,48.07L188.14,47.03L190.72,41.55L191.15,40.46L195.89,20.14L196.32,19.62L197.18,19.74L197.61,20.62L199.77,29.25L200.2,31.51L202.78,41.83L203.21,42.62L208.38,51.68L208.81,51.88L210.96,52.01L211.39,51.26L213.11,48.6L213.54,47.62L215.69,41.18L216.13,39.24L220.43,15.25L220.86,14.84L221.72,16.41L222.15,18.19L227.75,49.03L228.18,50.28L232.05,56.65L232.49,57.36L234.64,59.66L235.07,60.1L236.79,62.18L237.22,62.66L238.94,64.01L239.37,63.91L240.67,65.48L241.1,66.1L242.82,69.1L243.25,69.13L244.54,70.19L244.97,71.15L246.69,74.62L247.12,74.86L248.41,76.84L248.85,77.82L253.15,89.84L253.58,90.07L254.01,89.56L254.44,87.59L256.16,68.53L256.59,62.62L258.75,41.21L259.18,39.57L260.47,37.82L260.9,37.44L266.07,38.22L266.5,37.85L268.65,38.01L269.08,37.62L272.95,33.52L273.39,32.52L275.97,28.98L276.4,28.76L278.12,27.62L278.55,27.45L280.27,29.14L280.7,29.76L282,32.79L282.43,34.02L285.44,40.14L285.87,40.38L287.59,41.91L288.02,41.94L288.88,41.73L289.32,41.42L292.76,35.9L293.19,34.52L295.77,28.2L296.2,27.33L297.93,24.78L298.36,24.84L299.65,26.16L300.08,27.04L306.11,39.69L306.54,40.1L309.12,42.75L309.55,42.73L312.56,40.96L312.99,39.92L316.01,30.78L316.44,29.6L318.59,24.68L319.02,24.39L319.88,24.92L320.31,25.56L324.19,33.69L324.62,34.88L326.77,38.16L327.2,38.94L328.92,41.29L329.35,41.48L331.94,43.08L332.37,42.86L334.09,41.21L334.52,40.42L335.81,37.42L336.24,35.98L340.55,22.94L340.98,22.52L342.27,22.37L342.7,23.04L343.99,26.5L344.42,28.08L347.87,39.56L348.3,40.47L350.88,44.05L351.31,44.06L352.6,44.68L353.03,44.88L356.05,44.56L356.48,44.08L359.06,37.06L359.49,35.25L363.8,18.66L364.23,18.83L365.52,21.9L365.95,23.41L370.68,41.58L371.12,42.68L374.99,48.97L375.42,48.79L377.57,48.82L378,48.3L379.73,45.22L380.16,43.95L382.31,36.16L382.74,33.91L386.61,15.78L387.05,15.26L387.91,15.82L388.34,16.95L390.06,24.52L390.49,26.74L395.23,47.42L395.66,48.4L397.38,52.12L397.81,52.52L401.25,56.93L401.68,56.77L403.41,57.59L403.84,57.23L405.56,56.14L405.99,55.79L408.57,46.98L409,44.9L412.02,19.54L412.45,15.48L414.17,6.91L414.6,7.38L415.46,11.49L415.89,14.94L420.2,49.26L420.63,50.57L423.21,56.17L423.64,56.74L426.65,63.9L427.08,64.7L433.54,76.12L433.97,76.29L435.26,75.1L435.69,74.21L437.42,67.45L437.85,65.13L440,53.92" style="vector-effect: non-scaling-stroke; fill: none; stroke: rgb(68, 170, 153); stroke-opacity: 1; stroke-width: 2px; opacity: 1;"/></g><g class="points"/><g class="text"/></g><g class="trace scatter trace1ec40d" style="stroke-miterlimit: 2; opacity: 1;"><g class="fills"/><g class="errorbars"/><g class="lines"><path class="js-line" d="M0,37.82L3.44,46.75L3.87,48.21L6.46,55.32L6.89,55.7L12.05,58.68L12.49,58.51L14.21,58.45L14.64,58.57L15.5,58.41L15.93,57.91L17.65,53.38L18.08,51.89L19.8,42.95L20.23,39.69L24.11,7.54L24.54,7.37L25.4,10.7L25.83,13.82L30.14,45.33L30.57,47.37L33.58,58.19L34.01,59.08L39.18,69.61L39.61,70.92L42.62,77.9L43.05,78.4L43.91,78.33L44.34,77.63L46.5,70.34L46.93,68.37L50.37,53.08L50.8,52.25L52.09,51.17L52.52,51.25L53.82,52.59L54.25,53.44L57.26,58.45L57.69,58.87L59.84,62.23L60.27,63.06L65.44,74.21L65.87,75.24L68.88,80.96L69.32,80.68L70.61,76.87L71.04,74.73L76.2,46.46L76.63,46.07L77.5,46.53L77.93,47.13L83.52,54.76L83.95,55.13L85.68,55.81L86.11,55.79L88.26,55.04L88.69,54.29L91.7,49.15L92.13,48.44L93.42,43.98L93.86,41.62L96.87,18.49L97.3,15.34L98.59,10.07L99.02,10.2L99.88,13.45L100.31,16.33L104.62,46.74L105.05,48.45L107.2,53.52L107.63,54.26L110.22,60.69L110.65,61.91L114.52,71.79L114.95,72.31L117.1,76.53L117.53,77.51L119.26,79.63L119.69,79.32L120.98,75.87L121.41,74.03L126.58,50.35L127.01,49.69L128.3,49.38L128.73,49.73L135.19,57.02L135.62,57.88L139.49,64.52L139.92,65.07L141.64,67.97L142.07,69.05L147.67,85.92L148.1,87.32L149.39,88.87L149.82,87.86L151.12,79.67L151.55,75.66L155.42,43.31L155.85,42.27L157.14,41.63L157.57,41.86L159.3,42.05L159.73,41.87L161.02,42.03L161.45,42.47L164.46,46.66L164.89,46.13L168.77,35.77L169.2,34.19L173.07,22.13L173.5,21.68L174.36,21.79L174.79,22.36L176.09,25.79L176.52,27.39L179.53,36.02L179.96,36.88L183.41,45.43L183.84,46.61L185.56,48.84L185.99,48.46L188.14,46.72L188.57,46.53L189.86,44.61L190.29,43.44L192.88,32.23L193.31,29.98L195.89,20.14L196.32,19.72L197.18,20L197.61,20.61L199.33,26.94L199.77,29.06L203.21,43.64L203.64,44.04L205.36,45.54L205.79,46.51L208.38,53.18L208.81,53.2L210.53,50.98L210.96,50.49L213.97,47.45L214.4,46.18L216.99,33.86L217.42,31.3L220.43,15.16L220.86,14.81L221.72,16.38L222.15,18.17L227.75,48.87L228.18,50.1L230.76,54.91L231.19,55.32L233.78,59.05L234.21,59.76L236.36,61.6L236.79,61.85L238.94,64.21L239.37,64.69L241.96,66.32L242.39,67.3L244.54,72.13L244.97,72.27L246.26,73L246.69,73.74L251,84.4L251.43,86.17L253.15,91.65L253.58,91.43L254.44,87.8L254.87,84.22L259.18,39.52L259.61,38.37L260.47,37.77L260.9,37.97L262.62,38.37L263.05,38.26L265.64,38.42L266.07,38.47L270.37,37.01L270.8,36.51L274.25,31.24L274.68,30.36L276.4,28.17L276.83,28.17L278.98,27.9L279.41,27.83L280.27,28.53L280.7,29.31L285.87,40.63L286.3,40.86L289.75,41.79L290.18,41.19L297.93,24.74L298.36,24.75L299.65,26.12L300.08,26.97L305.24,38.49L305.68,39.04L309.55,42.95L309.98,43.14L310.84,42.81L311.27,42.29L314.72,35.77L315.15,34.24L318.16,25.01L318.59,24.88L320.31,25.36L320.74,25.97L326.77,38.61L327.2,39.25L330.22,42.02L330.65,42.13L333.66,42.5L334.09,42.08L335.81,37.64L336.24,36.03L339.69,24.72L340.12,23.91L341.84,22.32L342.27,22.44L343.56,24.79L343.99,26.25L348.3,40.54L348.73,41.34L351.31,44.57L351.74,44.7L356.91,44.19L357.34,43.58L358.63,39.15L359.06,37.01L362.94,20.03L363.37,19.05L364.23,18.61L364.66,19.27L366.81,27.35L367.24,29.16L370.68,41.54L371.12,42.45L375.42,49.93L375.85,50.08L377.14,48.96L377.57,48.36L380.59,42.85L381.02,41.57L383.17,31.87L383.6,29.41L386.61,15.96L387.05,15.45L387.91,15.92L388.34,16.99L390.49,26.94L390.92,29.11L395.23,47.19L395.66,48.43L398.24,53.59L398.67,53.94L400.39,55.83L400.82,56.57L402.54,58.16L402.97,58.03L404.7,56.45L405.13,55.87L407.71,51.33L408.14,49.65L410.29,35.37L410.72,31.57L413.74,7.61L414.17,6.88L414.6,7.29L415.03,8.85L416.75,23.16L417.18,27.45L420.2,49.71L420.63,51.25L423.64,57.04L424.07,57.81L426.22,63.49L426.65,64.71L428.38,67.3L428.81,67.68L430.53,70.6L430.96,71.68L433.54,76.15L433.97,76.31L434.83,75.78L435.26,75.08L436.99,69.72L437.42,67.73L440,53.76" style="vector-effect: non-scaling-stroke; fill: none; stroke: rgb(136, 34, 85); stroke-opacity: 1; stroke-width: 1px; opacity: 1; stroke-dasharray: 3px, 3px;"/></g><g class="points"/><g class="text"/></g><g class="trace scatter traceb8ec48" style="stroke-miterlimit: 2; opacity: 1;"><g class="fills"/><g class="errorbars"/><g class="lines"><path class="js-line" d="M0,38.85L4.74,49.77L5.17,50.52L9.04,55.86L9.47,56.27L12.49,58.02L12.92,58.05L14.64,57.55L15.07,57.24L16.79,54.67L17.22,53.62L18.94,46.96L19.37,44.57L21.96,23.41L22.39,19.32L24.11,8.05L24.54,7.72L25.4,10.6L25.83,13.53L30.57,48.43L31,50.07L34.44,59.2L34.87,60.13L43.48,77.31L43.91,77.34L44.77,76.48L45.21,75.55L46.93,68.61L47.36,66.39L50.37,53.98L50.8,53.18L52.52,52.11L52.95,52.27L55.11,54.37L55.54,54.97L59.84,62.05L60.27,62.86L64.15,71.15L64.58,72.24L68.88,81.65L69.32,81.56L70.18,80.02L70.61,78.42L72.76,64.24L73.19,61.03L75.34,50.17L75.77,49.19L77.06,47.94L77.5,47.96L79.22,49.14L79.65,49.62L86.11,56.06L86.54,56.22L88.69,56.02L89.12,55.76L90.84,53.46L91.27,52.45L92.99,46.34L93.42,44.15L95.58,28.78L96.01,25.04L98.16,10.27L98.59,9.57L99.02,9.92L99.45,11.29L101.17,23.71L101.6,27.39L104.62,46.43L105.05,48.12L108.06,56.46L108.49,57.38L119.26,79.58L119.69,79.43L120.55,78L120.98,76.6L123.13,64.63L123.56,61.9L125.71,52.4L126.14,51.45L127.87,50.15L128.3,50.26L130.45,52.29L130.88,52.85L142.07,69.43L142.5,70.29L145.52,77.86L145.95,79.21L148.96,87.26L149.39,87.31L150.25,85.39L150.68,83.14L152.41,66.79L152.84,61.99L154.99,45.67L155.42,44.28L157.14,42.27L157.57,42.34L160.16,43.95L160.59,44.27L163.17,45.34L163.6,45.28L165.32,44.19L165.75,43.65L167.48,40.21L167.91,38.99L170.92,27.81L171.35,26.13L173.5,20.99L173.93,20.94L174.79,21.91L175.23,22.84L177.81,32.23L178.24,33.85L181.68,43.69L182.11,44.43L184.7,47.28L185.13,47.46L186.85,47.39L187.28,47.09L189,44.83L189.43,43.93L191.59,37L192.02,35.1L195.89,18.81L196.32,18.35L197.18,18.95L197.61,19.87L199.77,29.14L200.2,31.26L203.64,44.19L204.07,45.23L207.08,50.29L207.51,50.73L209.67,51.92L210.1,51.94L211.82,51.06L212.25,50.55L213.97,46.95L214.4,45.62L216.56,35.61L216.99,32.95L220.43,14.28L220.86,14.06L221.72,15.87L222.15,17.72L228.18,48.19L228.61,49.31L232.49,56.64L232.92,57.27L238.94,64.35L239.37,64.8L245.83,72.27L246.26,72.97L248.85,78.68L249.28,79.93L253.15,91.5L253.58,91.23L254.44,87.8L254.87,84.34L259.18,40.78L259.61,39.72L260.9,38.4L261.33,38.36L264.34,39.56L264.77,39.7L266.93,39.99L267.36,39.87L269.51,38.24L269.94,37.72L272.95,32.31L273.39,31.4L276.4,26.67L276.83,26.48L278.12,26.79L278.55,27.23L280.7,30.98L281.14,31.87L285.44,39.32L285.87,39.72L288.02,40.77L288.45,40.75L290.61,39.32L291.04,38.73L293.62,33.61L294.05,32.53L297.5,25.53L297.93,25.24L299.22,25.6L299.65,26.11L302.23,31.8L302.66,32.88L306.54,40.57L306.97,41.07L309.12,42.27L309.55,42.26L311.27,41.36L311.7,40.9L313.86,37.17L314.29,36.13L319.02,24.11L319.45,23.82L320.31,24.02L320.74,24.48L322.47,28.25L322.9,29.51L327.2,40.6L327.63,41.32L329.78,43.67L330.22,43.89L331.94,43.85L332.37,43.64L334.09,41.58L334.52,40.76L337.1,33.58L337.53,32.06L340.98,22.1L341.41,21.88L342.27,22.37L342.7,23.09L344.85,29.78L345.28,31.37L348.73,41.65L349.16,42.54L351.74,45.99L352.17,46.28L353.89,46.55L354.32,46.37L356.05,44.56L356.48,43.81L358.63,37.85L359.06,36.25L363.37,19.94L363.8,19.58L364.66,20.13L365.09,21L367.24,29.31L367.67,31.25L371.12,43.37L371.55,44.39L374.56,48.99L374.99,49.36L377.14,49.93L377.57,49.79L379.3,48.03L379.73,47.26L381.45,42.59L381.88,40.89L384.89,24.78L385.32,22.38L387.05,16.27L387.48,16.11L388.34,17.62L388.77,19.17L395.23,47.76L395.66,48.76L398.67,53.92L399.1,54.42L402.11,56.68L402.54,56.81L404.27,56.59L404.7,56.33L406.42,53.96L406.85,52.98L408.57,46.89L409,44.73L411.15,29.13L411.59,25.24L413.74,9.8L414.17,9.01L414.6,9.28L415.03,10.64L416.75,23.45L417.18,27.26L420.2,46.78L420.63,48.53L423.64,57.04L424.07,57.97L433.97,78.49L434.4,78.46L435.26,77.36L435.69,76.25L437.42,68.35L437.85,65.83L440,55.02" style="vector-effect: non-scaling-stroke; fill: none; stroke: rgb(0, 0, 0); stroke-opacity: 1; stroke-width: 1px; opacity: 1; stroke-dasharray: 9px, 9px;"/></g><g class="points"/><g class="text"/></g></g></g><g class="overplot"/><path class="xlines-above crisp" d="M79,193.83333333333331H520" style="fill: none; stroke-width: 1px; stroke: rgb(36, 36, 36); stroke-opacity: 1;"/><path class="ylines-above crisp" d="M79.5,100V193.33333333333331" style="fill: none; stroke-width: 1px; stroke: rgb(36, 36, 36); stroke-opacity: 1;"/><g class="overlines-above"/><g class="xaxislayer-above"><path class="xtick ticks crisp" d="M0,194.33333333333331v5" transform="translate(80,0)" style="stroke: rgb(68, 68, 68); stroke-opacity: 1; stroke-width: 1px;"/><path class="xtick ticks crisp" d="M0,194.33333333333331v5" transform="translate(190.22,0)" style="stroke: rgb(68, 68, 68); stroke-opacity: 1; stroke-width: 1px;"/><path class="xtick ticks crisp" d="M0,194.33333333333331v5" transform="translate(300.43,0)" style="stroke: rgb(68, 68, 68); stroke-opacity: 1; stroke-width: 1px;"/><path class="xtick ticks crisp" d="M0,194.33333333333331v5" transform="translate(410.65,0)" style="stroke: rgb(68, 68, 68); stroke-opacity: 1; stroke-width: 1px;"/></g><g class="yaxislayer-above"><path class="ytick ticks crisp" d="M79,0h-5" transform="translate(0,175.82999999999998)" style="stroke: rgb(68, 68, 68); stroke-opacity: 1; stroke-width: 1px;"/><path class="ytick ticks crisp" d="M79,0h-5" transform="translate(0,152.5)" style="stroke: rgb(68, 68, 68); stroke-opacity: 1; stroke-width: 1px;"/><path class="ytick ticks crisp" d="M79,0h-5" transform="translate(0,129.17000000000002)" style="stroke: rgb(68, 68, 68); stroke-opacity: 1; stroke-width: 1px;"/><path class="ytick ticks crisp" d="M79,0h-5" transform="translate(0,105.83)" style="stroke: rgb(68, 68, 68); stroke-opacity: 1; stroke-width: 1px;"/><g class="ytick"><text text-anchor="end" x="71.6" y="4.199999999999999" transform="translate(0,175.82999999999998)" style="font-family: 'Open Sans', verdana, arial, sans-serif; font-size: 12px; fill: rgb(36, 36, 36); fill-opacity: 1; white-space: pre; opacity: 1;">0</text></g><g class="ytick"><text text-anchor="end" x="71.6" y="4.199999999999999" style="font-family: 'Open Sans', verdana, arial, sans-serif; font-size: 12px; fill: rgb(36, 36, 36); fill-opacity: 1; white-space: pre; opacity: 1;" transform="translate(0,152.5)">20</text></g><g class="ytick"><text text-anchor="end" x="71.6" y="4.199999999999999" style="font-family: 'Open Sans', verdana, arial, sans-serif; font-size: 12px; fill: rgb(36, 36, 36); fill-opacity: 1; white-space: pre; opacity: 1;" transform="translate(0,129.17000000000002)">40</text></g><g class="ytick"><text text-anchor="end" x="71.6" y="4.199999999999999" style="font-family: 'Open Sans', verdana, arial, sans-serif; font-size: 12px; fill: rgb(36, 36, 36); fill-opacity: 1; white-space: pre; opacity: 1;" transform="translate(0,105.83)">60</text></g></g><g class="overaxes-above"/></g><g class="subplot x2y2"><g class="layer-subplot"><g class="shapelayer"/><g class="imagelayer"/></g><g class="gridlayer"><g class="x2"/><g class="y2"/></g><g class="zerolinelayer"/><path class="xlines-below"/><path class="ylines-below"/><g class="overlines-below"/><g class="xaxislayer-below"/><g class="yaxislayer-below"/><g class="overaxes-below"/><g class="plot" transform="translate(80,263.3333333333333)" clip-path="url(#clipb13ea6x2y2plot)"><g class="scatterlayer mlayer"><g class="trace scatter tracecd3972" style="stroke-miterlimit: 2; opacity: 1;"><g class="fills"/><g class="errorbars"/><g class="lines"><path class="js-line" d="M0,58.67L0.86,52.58L1.29,53.05L5.6,57.51L6.03,57.74L8.18,59.22L8.61,59.21L10.33,58.68L10.76,58.59L15.5,57.31L15.93,56.98L19.8,51.66L20.23,50.75L24.54,41.47L24.97,41.99L26.69,46.3L27.12,47.78L30.57,57.39L31,58.2L35.3,63.61L35.73,63.88L37.46,64.63L37.89,64.84L40.9,66.53L41.33,67.54L45.64,74.72L46.07,74.63L47.79,74.09L48.22,74.05L49.51,71.82L49.94,70.76L54.68,62.23L55.11,61.91L55.97,61.53L56.4,61.98L58.12,62.92L58.55,62.8L60.7,62.45L61.14,62.73L63.29,63.44L63.72,63.92L68.45,70.36L68.88,71.23L71.04,75.84L71.47,75.89L72.76,74.95L73.19,74.56L75.34,71.13L75.77,69.92L78.79,61.32L79.22,61.1L86.97,58.2L87.4,57.74L89.55,55.84L89.98,55.92L91.27,55.54L91.7,55.32L96.44,46.12L96.87,45.17L98.59,42.8L99.02,42.96L100.31,44.8L100.74,45.94L105.48,58.49L105.91,59.14L108.06,61.47L108.49,61.34L110.65,61.64L111.08,62.15L113.23,63.2L113.66,64.29L115.81,68.65L116.24,68.79L118.4,69.93L118.83,70.67L121.84,75.21L122.27,75.19L123.99,73.89L124.42,73.11L130.45,62.22L130.88,62.1L133.89,60.72L134.32,60.72L135.62,60.33L136.05,60.18L138.2,60.61L138.63,60.78L141.64,62.05L142.07,62.26L143.8,63.42L144.23,63.9L148.96,71.91L149.39,73.45L151.55,79.04L151.98,78.75L153.27,76.58L153.7,75.58L158.86,60.04L159.3,59.78L165.32,54.42L165.75,54.23L170.92,48.53L171.35,48.08L173.5,46.88L173.93,46.91L175.23,47.52L175.66,48.05L182.97,55.4L183.41,55.52L185.56,55.89L185.99,55.89L187.71,55.8L188.14,55.32L192.45,50.31L192.88,49.54L195.89,46L196.32,45.94L197.61,46.59L198.04,47.06L199.77,49.68L200.2,50.54L203.21,55.29L203.64,55.91L204.93,56.96L205.36,57.09L210.96,56.49L211.39,56.24L213.11,55.23L213.54,54.73L217.42,49.02L217.85,48.22L220.86,44.25L221.29,44.4L222.58,46.22L223.01,47.2L228.18,58.71L228.61,58.91L232.49,60.36L232.92,60.34L235.07,59.72L235.5,59.96L241.53,60.35L241.96,60.92L243.25,61.41L243.68,61.24L244.97,61.22L245.4,61.52L249.28,63.47L249.71,64.04L252.72,69.2L253.15,71.12L255.3,79.8L255.73,80.05L256.59,79.36L257.03,78.19L260.04,65.72L260.47,63.61L262.19,59.09L262.62,58.83L263.91,57.16L264.34,56.4L267.36,53.53L267.79,53.5L272.52,51.09L272.95,50.82L275.54,49.35L275.97,49.32L278.98,49.12L279.41,49.38L282,50.93L282.43,51.4L286.3,54.13L286.73,54.14L288.45,54.17L288.88,53.83L293.19,50.91L293.62,50.37L297.06,48.08L297.5,47.96L299.22,48.22L299.65,48.5L306.11,53.61L306.54,53.67L309.55,54.19L309.98,54.01L313.86,52L314.29,51.37L318.16,47.72L318.59,47.54L319.88,47.95L320.31,48.26L324.62,52.1L325.05,52.49L327.2,53.13L327.63,53.6L329.78,54.12L330.22,54.03L332.37,54.21L332.8,53.97L334.09,53.17L334.52,52.78L336.24,51.02L336.67,50.51L340.12,47.38L340.55,47.26L342.7,47.6L343.13,47.87L346.14,51.79L346.58,52.48L349.59,55.03L350.02,55.17L353.89,54.87L354.32,54.79L356.48,54.21L356.91,53.7L362.5,46.44L362.94,46.18L364.66,46.03L365.09,46.39L367.24,49.84L367.67,50.64L371.55,55.56L371.98,55.69L374.56,56.64L374.99,56.46L376.71,56.13L377.14,55.87L379.73,54.13L380.16,53.64L382.74,50.08L383.17,49.4L386.18,45.29L386.61,45.17L388.34,45.84L388.77,46.31L391.78,51.92L392.21,52.82L396.52,58.05L396.95,58.35L400.39,59.38L400.82,59.17L407.28,55.42L407.71,54.74L414.17,42.38L414.6,42.71L415.46,43.73L415.89,44.75L422.35,63.11L422.78,63.07L424.07,63.21L424.5,63.43L427.08,63L427.51,63.72L430.1,67.56L430.53,67.39L431.39,67.09L431.82,67.38L433.54,70.2L433.97,70.91L436.56,73.76L436.99,73.83L439.14,73.54L439.57,72.95L440,72.16" style="vector-effect: non-scaling-stroke; fill: none; stroke: rgb(136, 204, 238); stroke-opacity: 1; stroke-width: 2px; opacity: 1;"/></g><g class="points"/><g class="text"/></g><g class="trace scatter trace2badc8" style="stroke-miterlimit: 2; opacity: 1;"><g class="fills"/><g class="errorbars"/><g class="lines"><path class="js-line" d="M0,58.8L11.62,58.73L12.05,58.62L15.93,56.77L16.36,56.44L18.94,53.19L19.37,52.41L24.54,42.14L24.97,42.4L26.26,45.03L26.69,46.39L31,58.91L31.43,59.6L34.01,62.1L34.44,62.37L40.04,66.11L40.47,66.59L44.34,72.19L44.77,72.83L46.93,74.57L47.36,74.5L48.65,73.29L49.08,72.62L54.68,63.49L55.11,63.17L58.12,62.08L58.55,62.09L62,62.9L62.43,63.12L65.44,65.72L65.87,66.29L68.88,71.68L69.32,72.58L71.9,76.33L72.33,76.31L73.62,74.75L74.05,73.79L79.22,62.01L79.65,61.52L82.23,59.76L82.66,59.58L89.98,56.68L90.41,56.32L92.99,53.21L93.42,52.49L98.59,42.77L99.02,42.86L100.31,44.94L100.74,46.12L105.48,58.65L105.91,59.21L108.92,61.57L109.35,61.79L114.95,65.15L115.38,65.56L118.4,69.92L118.83,70.71L121.84,75.31L122.27,75.48L123.56,74.77L123.99,74.13L130.45,62.24L130.88,61.91L133.89,60.73L134.32,60.69L139.06,61.01L139.49,61.09L143.37,62.8L143.8,63.13L146.38,66.27L146.81,67.03L149.82,74.59L150.25,75.79L151.98,78.58L152.41,78.47L153.7,75.88L154.13,74.42L158.43,60.55L158.86,59.79L161.45,57.03L161.88,56.75L167.91,52.17L168.34,51.7L173.5,46.58L173.93,46.62L175.66,47.81L176.09,48.35L181.68,55.34L182.11,55.58L184.7,56.06L185.13,56L187.71,55.03L188.14,54.76L191.15,51.74L191.59,51.17L195.89,45.81L196.32,45.7L197.61,46.3L198.04,46.8L201.49,52.91L201.92,53.62L204.93,56.71L205.36,56.94L207.95,57.43L208.38,57.39L211.82,56.12L212.25,55.8L214.83,53.1L215.26,52.49L220.43,44.31L220.86,44.27L222.15,45.53L222.58,46.29L228.18,57.65L228.61,58.06L231.62,59.58L232.05,59.69L246.26,61.74L246.69,61.95L249.28,64.27L249.71,64.88L251.86,69.33L252.29,70.56L255.73,80.04L256.16,80.06L257.03,78.62L257.46,77.23L262.62,58.23L263.05,57.52L265.64,54.91L266.07,54.63L276.83,48.54L277.26,48.56L279.41,49.43L279.84,49.73L286.3,53.6L286.73,53.65L289.75,53.17L290.18,52.98L294.05,50.25L294.48,49.89L297.93,48.1L298.36,48.11L300.51,49.11L300.94,49.46L306.54,53.91L306.97,54.05L309.55,54.1L309.98,53.99L312.99,52.43L313.42,52.08L319.45,47.57L319.88,47.58L322.04,48.88L322.47,49.34L328.06,54.52L328.49,54.67L331.08,54.75L331.51,54.63L334.52,52.93L334.95,52.57L341.41,46.96L341.84,47.02L343.56,48.29L343.99,48.81L349.59,55.12L350.02,55.33L352.6,55.71L353.03,55.63L356.05,54.17L356.48,53.81L359.49,50.43L359.92,49.85L363.37,46.17L363.8,46.12L365.09,46.73L365.52,47.18L368.53,52.04L368.96,52.71L371.98,56.05L372.41,56.3L374.99,56.87L375.42,56.84L378.43,55.7L378.86,55.41L381.45,52.85L381.88,52.24L387.05,44.99L387.48,44.95L388.77,46.05L389.2,46.72L395.23,57.25L395.66,57.58L398.67,58.68L399.1,58.71L402.97,58.1L403.41,57.95L406.42,56.05L406.85,55.61L409.43,51.81L409.86,50.93L414.17,42.54L414.6,42.63L415.89,44.74L416.32,45.94L421.06,58.85L421.49,59.46L424.5,61.98L424.93,62.23L430.1,65.58L430.53,66.06L433.97,71.1L434.4,71.83L436.99,74.99L437.42,75.07L438.71,74.13L439.14,73.47L440,71.78" style="vector-effect: non-scaling-stroke; fill: none; stroke: rgb(0, 0, 0); stroke-opacity: 1; stroke-width: 1px; opacity: 1; stroke-dasharray: 9px, 9px;"/></g><g class="points"/><g class="text"/></g><g class="trace scatter trace414919" style="stroke-miterlimit: 2; opacity: 1;"><g class="fills"/><g class="errorbars"/><g class="lines"><path class="js-line" d="M0,58.67L0.43,53.88L0.86,55.2L1.29,56.18L5.6,61.91L6.03,61.39L8.61,58.18L9.04,58.31L10.76,58.32L11.19,58.04L13.35,56.73L13.78,56.78L15.07,56.58L15.5,55.89L18.08,50.65L18.51,49.42L22.82,37.15L23.25,37.72L24.54,43.12L24.97,45.84L27.55,59.34L27.98,60.34L30.14,63.51L30.57,63.85L33.15,65.17L33.58,65.02L35.73,64.6L36.16,64.79L38.32,66.82L38.75,67.56L44.77,78.17L45.21,77.35L48.65,68.92L49.08,67.13L51.23,61.95L51.66,61.42L53.39,60.76L53.82,61.03L55.97,62.49L56.4,62.27L58.55,61.55L58.98,61.76L62.86,65.49L63.29,65.94L65.87,69.71L66.3,70.68L70.18,79.46L70.61,79.28L74.91,64.63L75.34,62.67L77.06,58.36L77.5,58.42L80.08,59.59L80.51,59.77L82.23,59.19L82.66,58.86L87.4,55.9L87.83,55.32L89.98,52.58L90.41,52.78L91.7,52.57L92.13,51.73L93.86,46.24L94.29,44.93L96.87,38.74L97.3,39L98.16,40.69L98.59,42.38L102.9,62.19L103.33,62.55L105.05,63.28L105.48,63.08L108.06,61.48L108.49,61.78L113.66,68.34L114.09,68.4L115.38,69.67L115.81,70.39L120.55,79.07L120.98,78.43L124.42,67.73L124.85,66.25L127.44,60.34L127.87,59.93L130.45,59.64L130.88,59.61L135.19,59.68L135.62,60.2L137.77,61.81L138.2,61.87L140.78,62.29L141.21,62.7L144.23,67.65L144.66,68.57L146.81,74.83L147.24,76.46L150.25,85.66L150.68,84.57L156.28,56.17L156.71,55.73L158.43,55.17L158.86,54.54L160.59,52.98L161.02,53.42L163.6,56.94L164.03,56.24L166.61,49.68L167.05,49.52L171.78,45.25L172.21,45.35L173.93,47.26L174.36,48.09L177.38,54.53L177.81,54.65L179.96,54.85L180.39,55.16L184.27,59.03L184.7,58.47L187.28,53.25L187.71,53.39L189,52.75L189.43,52L193.74,43.8L194.17,43.52L195.89,45.33L196.32,46.03L198.47,51.67L198.9,53.06L201.92,59.8L202.35,59.53L204.93,55.55L205.36,56.33L207.51,60.91L207.95,60.37L210.96,53.53L211.39,53.47L212.68,53.6L213.11,53.17L214.83,48.97L215.26,47.86L219.14,41.06L219.57,41.49L220.86,44.87L221.29,46.66L225.17,61.38L225.6,61.95L226.89,61.74L227.32,61.58L229.9,60.87L230.33,60.36L232.05,59.38L232.49,59.57L234.64,60.52L235.07,60.29L237.65,59.61L238.08,59.82L239.8,60.01L240.23,59.77L241.53,60.14L241.96,60.92L244.11,63.81L244.54,63.55L245.83,63.1L246.26,63.32L249.71,67.96L250.14,69.04L252.72,79.14L253.15,81.34L254.44,86.94L254.87,86.23L257.03,71L257.46,67.71L259.61,54.7L260.04,53.85L261.33,54L261.76,53.84L264.34,51.67L264.77,51.92L266.07,52.1L266.5,51.71L267.79,51.25L268.22,51.54L269.51,51.88L269.94,51.55L272.09,49.77L272.52,49.48L275.54,47.91L275.97,48.4L277.26,49.62L277.69,49.5L279.41,49.36L279.84,50.11L282.86,55.35L283.29,55.68L284.58,55.56L285.01,55.15L287.16,53.83L287.59,53.9L288.88,53.74L289.32,53.26L291.9,48.76L292.33,48.91L293.19,49.24L293.62,48.88L295.77,46.36L296.2,46.51L297.5,47.42L297.93,47.9L302.66,55.07L303.09,54.92L305.24,54.2L305.68,54.35L309.55,54.8L309.98,54.37L312.99,50.46L313.42,50.07L314.72,47.77L315.15,46.84L316.44,45.36L316.87,45.6L321.17,51.67L321.6,52.65L322.9,53.7L323.33,53.36L324.62,53.01L325.05,53.66L326.77,55.21L327.2,54.97L331.94,53.88L332.37,53.89L333.66,52.84L334.09,51.98L337.1,45.91L337.53,45.81L340.98,46.58L341.41,46.91L342.7,49.04L343.13,50.11L345.71,56.1L346.14,56.3L347.87,56.37L348.3,56.27L351.31,55.16L351.74,54.77L353.46,53.43L353.89,53.43L356.48,53.79L356.91,53.05L359.92,45.08L360.35,44.73L362.94,43.85L363.37,44.53L365.09,50L365.52,51.42L368.53,57.12L368.96,57.47L370.68,57.15L371.12,57.09L374.13,57.83L374.56,58.06L375.42,57.51L375.85,56.61L378,52.55L378.43,52.21L380.59,49.85L381.02,49.06L384.46,42.52L384.89,42.29L386.18,42.71L386.61,43.41L388.34,48.43L388.77,49.96L391.35,56.67L391.78,57.38L393.93,60.05L394.36,60.29L396.95,60.51L397.38,60.27L399.53,58.42L399.96,58.65L401.68,59.35L402.11,58.91L407.71,50.9L408.14,49.35L412.45,37.46L412.88,37.47L413.74,39.43L414.17,41.47L418.47,64.51L418.9,65.45L419.77,66.18L420.2,65.94L422.78,63.27L423.21,63.35L424.93,64.25L425.36,64.86L427.08,66.96L427.51,66.92L429.24,67.02L429.67,67.49L432.68,73.31L433.11,74.08L435.26,76.53L435.69,76.35L437.85,73.74L438.28,72.62L440,65.39" style="vector-effect: non-scaling-stroke; fill: none; stroke: rgb(204, 102, 119); stroke-opacity: 1; stroke-width: 2px; opacity: 1;"/></g><g class="points"/><g class="text"/></g><g class="trace scatter trace45fd4f" style="stroke-miterlimit: 2; opacity: 1;"><g class="fills"/><g class="errorbars"/><g class="lines"><path class="js-line" d="M0,58.93L3.87,59.46L4.31,59.44L10.33,58.51L10.76,58.37L14.21,56.35L14.64,55.93L16.79,53.02L17.22,52.19L19.8,45.14L20.23,43.65L22.82,37.4L23.25,37.75L24.11,40.41L24.54,42.69L27.98,61.69L28.41,62.62L30.14,64.05L30.57,64.12L35.3,64.5L35.73,64.72L38.75,67.42L39.18,68.02L45.21,77.2L45.64,76.99L46.93,74.67L47.36,73.39L51.23,62.36L51.66,61.84L53.82,60.84L54.25,60.86L58.12,61.94L58.55,62.12L62.43,64.83L62.86,65.32L65.44,69.44L65.87,70.37L70.18,80L70.61,79.92L71.47,78.44L71.9,77.01L76.2,59.72L76.63,59.11L78.36,58.24L78.79,58.23L85.24,57.95L85.68,57.81L88.69,55.88L89.12,55.45L91.7,51.45L92.13,50.49L96.87,38.42L97.3,38.58L98.16,40.61L98.59,42.45L102.47,61.26L102.9,62L104.62,63.08L105.05,63.1L110.22,63.58L110.65,63.75L113.23,65.76L113.66,66.24L116.67,71.44L117.1,72.42L120.55,78.66L120.98,78.54L122.27,76.05L122.7,74.56L126.58,61.18L127.01,60.59L129.16,59.59L129.59,59.59L137.34,61.04L137.77,61.17L141.21,62.75L141.64,63.1L144.23,66.34L144.66,67.15L147.24,74.28L147.67,75.87L150.25,83.78L150.68,83.77L151.55,81.49L151.98,79.21L155.85,56.48L156.28,55.73L158,54.84L158.43,54.85L162.31,54.58L162.74,54.37L165.32,52.33L165.75,51.84L171.78,44.6L172.21,44.73L173.5,46.31L173.93,47.17L178.67,56.57L179.1,56.89L181.25,57.31L181.68,57.24L185.56,55.31L185.99,54.95L189,51.43L189.43,50.76L194.6,43.26L195.03,43.43L196.32,45.53L196.75,46.69L201.06,57.68L201.49,58.09L203.64,58.76L204.07,58.69L207.51,57.51L207.95,57.29L211.39,54.6L211.82,54.1L214.4,49.81L214.83,48.88L218.71,40.95L219.14,40.97L220,42.1L220.43,43.26L225.17,59.73L225.6,60.21L227.32,60.87L227.75,60.85L238.51,60.33L238.94,60.38L244.11,61.68L244.54,61.92L247.12,64.25L247.55,64.85L249.71,69.46L250.14,70.79L254.44,86.6L254.87,86.09L255.73,81.97L256.16,78.49L259.18,55.19L259.61,54.01L260.9,52.57L261.33,52.51L266.93,52.49L267.36,52.27L271.66,49.07L272.09,48.73L274.68,47.52L275.11,47.55L277.26,48.87L277.69,49.34L282.43,54.06L282.86,54.24L285.44,54.35L285.87,54.22L288.88,52.64L289.32,52.29L295.77,46.9L296.2,46.92L297.93,47.92L298.36,48.4L303.52,54.69L303.95,54.88L306.54,55L306.97,54.88L309.98,53.13L310.41,52.78L317.73,46.16L318.16,46.31L319.88,48.1L320.31,48.81L324.62,55.13L325.05,55.41L327.2,55.88L327.63,55.81L330.65,54.39L331.08,54.07L334.52,50.45L334.95,49.84L338.83,45.31L339.26,45.19L340.55,45.76L340.98,46.31L343.56,51.74L343.99,52.67L346.58,56.29L347.01,56.54L349.16,56.82L349.59,56.74L352.6,55.31L353.03,55L356.48,51.26L356.91,50.62L361.64,43.94L362.07,43.93L363.37,45.24L363.8,46.09L368.96,57.48L369.39,57.75L371.55,58.08L371.98,58L375.42,56.47L375.85,56.2L378.86,53.24L379.3,52.63L382.74,46.02L383.17,45.09L385.32,42.02L385.75,42.06L386.61,43.14L387.05,44.17L391.78,58.62L392.21,59.09L394.36,59.89L394.79,59.85L399.96,58.56L400.39,58.41L403.84,56.43L404.27,56.04L406.85,52.39L407.28,51.53L410.29,43.08L410.72,41.71L412.45,38.13L412.88,38.23L413.74,40.22L414.17,42.1L418.04,61.58L418.47,62.32L420.2,63.43L420.63,63.48L425.36,63.95L425.79,64.16L428.38,66.26L428.81,66.77L431.82,71.92L432.25,72.84L435.26,77.93L435.69,77.94L436.56,77.02L436.99,76.07L440,65.22" style="vector-effect: non-scaling-stroke; fill: none; stroke: rgb(0, 0, 0); stroke-opacity: 1; stroke-width: 1px; opacity: 1; stroke-dasharray: 9px, 9px;"/></g><g class="points"/><g class="text"/></g><g class="trace scatter trace582346" style="stroke-miterlimit: 2; opacity: 1;"><g class="fills"/><g class="errorbars"/><g class="lines"><path class="js-line" d="M0,38.67L0.86,31.36L1.29,31.27L3.87,32.59L4.31,33.02L5.6,34.88L6.03,35.73L9.04,41.76L9.47,41.97L10.76,42.97L11.19,43.6L13.35,46.17L13.78,45.99L15.5,45.59L15.93,46.31L17.65,48.26L18.08,47.81L20.67,43.08L21.1,41.11L23.25,26.41L23.68,22.93L25.4,14.01L25.83,13.62L26.69,14.81L27.12,16.03L32.29,30.6L32.72,31.51L36.16,36.5L36.59,36.9L39.61,39.69L40.04,39.89L41.33,39.29L41.76,38.77L43.05,36.16L43.48,34.61L46.07,26.01L46.5,24.63L48.65,18.48L49.08,18.74L51.23,22.22L51.66,23.17L56.4,34.35L56.83,35.13L62,42.01L62.43,42.4L65.44,43.4L65.87,43.21L67.59,40.99L68.02,39.88L69.75,31.51L70.18,29.22L72.76,18.67L73.19,16.98L74.48,14.21L74.91,14.35L76.2,18.55L76.63,20.56L78.79,27.88L79.22,28.93L83.52,37.64L83.95,38.35L89.55,45.85L89.98,45.77L92.56,41.54L92.99,41.83L93.86,42.34L94.29,41.93L95.58,37.64L96.01,35.53L99.88,15.23L100.31,14.92L101.17,15.77L101.6,16.83L107.2,32.28L107.63,33.17L111.08,38.82L111.51,39.3L114.09,40.61L114.52,40.25L117.1,38.93L117.53,38.69L118.83,36.02L119.26,34.5L123.13,19.84L123.56,18.82L124.85,18.23L125.28,18.39L126.58,19.98L127.01,21.12L131.74,32.78L132.17,33.61L136.05,39.71L136.48,40.11L142.07,46.41L142.5,46.45L145.52,46.9L145.95,46.57L148.1,43.33L148.53,41.77L153.7,11.29L154.13,11.15L154.99,12.92L155.42,14.68L158.43,25.1L158.86,26.14L161.45,31.7L161.88,31.86L163.17,32.42L163.6,32.81L164.89,36.2L165.32,37.93L166.18,39.5L166.61,39.2L175.23,22.2L175.66,22.05L176.52,22.08L176.95,22.57L182.11,29.94L182.54,30.52L184.7,33.22L185.13,34.37L187.28,39.59L187.71,39.08L189,38.18L189.43,38.51L191.15,39.42L191.59,38.88L192.88,35.97L193.31,34.7L197.61,21.57L198.04,21.12L198.9,20.79L199.33,21.08L201.49,24.4L201.92,25.28L205.36,33.91L205.79,33.87L207.08,33.74L207.51,34.29L208.81,37.95L209.24,39.53L210.96,42.75L211.39,42.21L213.54,40.59L213.97,40.96L215.26,41.76L215.69,41.41L217.42,36.38L217.85,34.95L220.43,22.97L220.86,21.18L222.58,17.96L223.01,18.15L224.31,20.38L224.74,21.4L231.19,36.82L231.62,37.61L237.65,45.88L238.08,46.02L239.8,46.98L240.23,47.78L241.96,49.53L242.39,49L243.68,47.71L244.11,48.1L246.69,52.77L247.12,52.52L248.41,52.59L248.85,52.84L250.14,53.19L250.57,52.85L251.86,50.56L252.29,49.03L253.58,38.85L254.01,33.76L256.59,10.98L257.03,9.22L257.89,8.04L258.32,8.81L259.61,14.74L260.04,17.16L261.76,22.85L262.19,23.9L264.77,29.58L265.21,29.91L266.93,31.58L267.36,32.07L268.22,32.26L268.65,31.9L269.94,31.7L270.37,32.04L271.66,32.45L272.09,32.16L275.54,29.38L275.97,28.73L277.69,26.56L278.12,26.67L279.84,26.45L280.27,25.94L281.57,25.46L282,25.69L283.72,27.5L284.15,28.17L287.59,33.08L288.02,33.21L289.75,34.33L290.18,35L291.47,36.64L291.9,35.97L294.05,31.62L294.48,31.54L295.77,30.32L296.2,29.45L298.79,24.69L299.22,24.33L300.94,24.21L301.37,24.33L302.66,25.64L303.09,26.51L305.68,30.34L306.11,30.62L310.84,35L311.27,35.78L312.56,36.2L312.99,35.71L316.44,32.74L316.87,31.41L319.45,25.07L319.88,24.91L322.04,23.83L322.47,24.23L325.05,28.22L325.48,28.12L326.77,28.93L327.2,29.74L329.35,32.24L329.78,32.71L332.37,34.23L332.8,34.29L335.81,36.65L336.24,36.34L337.53,33.94L337.96,32.62L340.98,25.28L341.41,24.56L343.99,22.17L344.42,22.26L345.71,23.85L346.14,24.8L350.88,32.9L351.31,33.53L353.46,36.28L353.89,36.29L356.91,35.9L357.34,36.49L359.06,38.69L359.49,38.01L362.07,28.67L362.5,27.26L365.52,20.08L365.95,20.26L368.96,24.82L369.39,25.82L373.27,33.17L373.7,33.75L375.42,35.43L375.85,36.51L377.57,40.44L378,40.6L379.73,39.75L380.16,39.42L382.31,37.7L382.74,36.95L384.46,31.74L384.89,29.84L387.91,19.16L388.34,18.43L389.2,18.02L389.63,18.3L391.78,22.27L392.21,23.23L400.82,39.67L401.25,39.93L402.11,41.21L402.54,42.29L405.13,46.33L405.56,46.47L408.14,45.51L408.57,45.86L409.43,44.97L409.86,43.98L411.59,35.49L412.02,32.59L415.46,12.85L415.89,12.74L416.75,14.16L417.18,15.42L421.49,28.05L421.92,28.87L426.65,36.95L427.08,37.31L428.81,37.74L429.24,37.65L431.82,38.34L432.25,37.86L433.54,35.29L433.97,34.19L439.14,16.67L439.57,16.74L440,17.41" style="vector-effect: non-scaling-stroke; fill: none; stroke: rgb(221, 204, 119); stroke-opacity: 1; stroke-width: 2px; opacity: 1;"/></g><g class="points"/><g class="text"/></g><g class="trace scatter tracecfd470" style="stroke-miterlimit: 2; opacity: 1;"><g class="fills"/><g class="errorbars"/><g class="lines"><path class="js-line" d="M0,20L5.17,32.41L5.6,33.26L10.76,41.5L11.19,42.05L15.5,46.17L15.93,46.42L18.08,46.66L18.51,46.38L19.8,44.47L20.23,43.32L21.96,35.43L22.39,32.57L25.4,14.12L25.83,13.61L26.69,14.41L27.12,15.49L33.15,32.18L33.58,32.96L37.46,38.29L37.89,38.66L40.04,39.57L40.47,39.5L42.19,37.95L42.62,37.19L44.77,30.76L45.21,29.08L48.22,19.83L48.65,19.55L49.94,20.36L50.37,21.04L60.27,39.76L60.7,40.26L64.15,43.23L64.58,43.34L66.3,42.84L66.73,42.38L68.45,38.43L68.88,36.85L73.62,16.38L74.05,16.47L75.34,18.8L75.77,19.97L81.37,33.76L81.8,34.57L86.54,41.73L86.97,42.25L90.41,45.19L90.84,45.37L92.56,45.15L92.99,44.78L94.29,42.49L94.72,41.25L96.44,33.04L96.87,30.24L99.88,14.88L100.31,14.7L101.17,15.86L101.6,16.95L107.63,32.91L108.06,33.72L112.37,39.87L112.8,40.29L115.38,41.61L115.81,41.56L117.1,40.66L117.53,40.05L119.26,35.55L119.69,33.89L123.56,18.35L123.99,17.98L124.85,18.36L125.28,19L128.73,27.28L129.16,28.3L134.32,38.2L134.76,38.86L139.49,44.94L139.92,45.36L144.23,48.34L144.66,48.42L146.38,47.69L146.81,47.13L148.1,44L148.53,42.29L150.25,31.35L150.68,27.74L153.27,12.3L153.7,12.25L154.99,15.39L155.42,16.98L159.3,28.74L159.73,29.63L163.6,35.57L164.03,35.99L166.18,37.28L166.61,37.34L168.34,36.51L168.77,36.03L170.92,31.76L171.35,30.56L174.79,22.15L175.23,21.78L176.52,22L176.95,22.41L179.53,26.67L179.96,27.5L185.56,36.49L185.99,36.99L188.57,38.94L189,39.04L190.72,38.5L191.15,38.08L192.88,34.84L193.31,33.63L198.04,20.07L198.47,20.04L199.77,21.27L200.2,22.01L209.24,38.79L209.67,39.34L212.68,41.97L213.11,42.12L214.83,41.75L215.26,41.33L216.99,37.84L217.42,36.42L222.15,17.57L222.58,17.48L223.87,19.17L224.31,20.15L231.19,35.91L231.62,36.66L237.22,44.46L237.65,44.93L243.68,50.23L244.11,50.51L247.98,52.27L248.41,52.3L250.14,51.55L250.57,51.03L251.86,47.92L252.29,46.18L254.01,33.92L254.44,29.58L257.03,9.47L257.46,9.37L258.32,11.59L258.75,13.39L262.19,25.72L262.62,26.66L265.64,31.19L266.07,31.64L269.08,33.51L269.51,33.57L271.66,32.96L272.09,32.66L274.68,29.56L275.11,28.95L278.55,25.15L278.98,25.03L280.7,25.52L281.14,25.82L284.58,29.54L285.01,30.03L289.32,33.9L289.75,34.1L291.9,34.21L292.33,34.02L294.48,31.94L294.91,31.28L299.65,24.42L300.08,24.28L301.8,24.86L302.23,25.25L306.11,30.22L306.54,30.79L310.41,34.7L310.84,34.95L312.99,35.31L313.42,35.18L315.15,33.77L315.58,33.17L321.17,23.58L321.6,23.47L323.33,24.3L323.76,24.77L328.92,32.31L329.35,32.87L332.8,36.17L333.23,36.36L335.38,36.26L335.81,35.96L337.53,33.72L337.96,32.88L343.13,22.26L343.56,22.22L344.85,23.1L345.28,23.65L350.45,32.4L350.88,33.09L354.76,37.6L355.19,37.87L357.34,38.23L357.77,38.03L359.49,35.99L359.92,35.15L362.5,27.49L362.94,26.06L365.09,21.12L365.52,20.81L366.81,21.37L367.24,21.91L370.68,28.53L371.12,29.39L375.85,37.34L376.28,37.87L379.3,40.51L379.73,40.66L381.45,40.33L381.88,39.93L383.6,36.6L384.03,35.29L388.77,18.8L389.2,18.69L390.49,20.04L390.92,20.89L399.53,38.63L399.96,39.28L404.7,44.79L405.13,45.11L407.28,45.87L407.71,45.79L409,44.69L409.43,43.96L411.15,38.26L411.59,35.99L415.46,14.54L415.89,14.36L416.75,15.57L417.18,16.69L422.78,31.97L423.21,32.8L427.51,39.01L427.95,39.42L430.53,40.57L430.96,40.47L432.68,38.7L433.11,37.85L435.26,30.6L435.69,28.72L438.28,19.37L438.71,18.83L439.57,18.79L440,19.21" style="vector-effect: non-scaling-stroke; fill: none; stroke: rgb(0, 0, 0); stroke-opacity: 1; stroke-width: 1px; opacity: 1; stroke-dasharray: 9px, 9px;"/></g><g class="points"/><g class="text"/></g></g></g><g class="overplot"/><path class="xlines-above crisp" d="M79,357.1666666666667H520" style="fill: none; stroke-width: 1px; stroke: rgb(36, 36, 36); stroke-opacity: 1;"/><path class="ylines-above crisp" d="M79.5,263.3333333333333V356.6666666666667" style="fill: none; stroke-width: 1px; stroke: rgb(36, 36, 36); stroke-opacity: 1;"/><g class="overlines-above"/><g class="xaxislayer-above"><path class="x2tick ticks crisp" d="M0,357.6666666666667v5" transform="translate(80,0)" style="stroke: rgb(68, 68, 68); stroke-opacity: 1; stroke-width: 1px;"/><path class="x2tick ticks crisp" d="M0,357.6666666666667v5" transform="translate(190.22,0)" style="stroke: rgb(68, 68, 68); stroke-opacity: 1; stroke-width: 1px;"/><path class="x2tick ticks crisp" d="M0,357.6666666666667v5" transform="translate(300.43,0)" style="stroke: rgb(68, 68, 68); stroke-opacity: 1; stroke-width: 1px;"/><path class="x2tick ticks crisp" d="M0,357.6666666666667v5" transform="translate(410.65,0)" style="stroke: rgb(68, 68, 68); stroke-opacity: 1; stroke-width: 1px;"/></g><g class="yaxislayer-above"><path class="y2tick ticks crisp" d="M79,0h-5" transform="translate(0,350.00333333333333)" style="stroke: rgb(68, 68, 68); stroke-opacity: 1; stroke-width: 1px;"/><path class="y2tick ticks crisp" d="M79,0h-5" transform="translate(0,323.3333333333333)" style="stroke: rgb(68, 68, 68); stroke-opacity: 1; stroke-width: 1px;"/><path class="y2tick ticks crisp" d="M79,0h-5" transform="translate(0,296.6633333333333)" style="stroke: rgb(68, 68, 68); stroke-opacity: 1; stroke-width: 1px;"/><path class="y2tick ticks crisp" d="M79,0h-5" transform="translate(0,270.00333333333333)" style="stroke: rgb(68, 68, 68); stroke-opacity: 1; stroke-width: 1px;"/><g class="y2tick"><text text-anchor="end" x="71.6" y="4.199999999999999" transform="translate(0,350.00333333333333)" style="font-family: 'Open Sans', verdana, arial, sans-serif; font-size: 12px; fill: rgb(36, 36, 36); fill-opacity: 1; white-space: pre; opacity: 1;">−20</text></g><g class="y2tick"><text text-anchor="end" x="71.6" y="4.199999999999999" style="font-family: 'Open Sans', verdana, arial, sans-serif; font-size: 12px; fill: rgb(36, 36, 36); fill-opacity: 1; white-space: pre; opacity: 1;" transform="translate(0,323.3333333333333)">0</text></g><g class="y2tick"><text text-anchor="end" x="71.6" y="4.199999999999999" style="font-family: 'Open Sans', verdana, arial, sans-serif; font-size: 12px; fill: rgb(36, 36, 36); fill-opacity: 1; white-space: pre; opacity: 1;" transform="translate(0,296.6633333333333)">20</text></g><g class="y2tick"><text text-anchor="end" x="71.6" y="4.199999999999999" style="font-family: 'Open Sans', verdana, arial, sans-serif; font-size: 12px; fill: rgb(36, 36, 36); fill-opacity: 1; white-space: pre; opacity: 1;" transform="translate(0,270.00333333333333)">40</text></g></g><g class="overaxes-above"/></g><g class="subplot x3y3"><g class="layer-subplot"><g class="shapelayer"/><g class="imagelayer"/></g><g class="gridlayer"><g class="x3"/><g class="y3"/></g><g class="zerolinelayer"/><path class="xlines-below"/><path class="ylines-below"/><g class="overlines-below"/><g class="xaxislayer-below"/><g class="yaxislayer-below"/><g class="overaxes-below"/><g class="plot" transform="translate(80,426.6666666666667)" clip-path="url(#clipb13ea6x3y3plot)"><g class="scatterlayer mlayer"><g class="trace scatter trace7afba7" style="stroke-miterlimit: 2; opacity: 1;"><g class="fills"/><g class="errorbars"/><g class="lines"><path class="js-line" d="M0,6.21L1.29,45.85L1.72,51.47L3.87,72.99L4.31,74.73L5.6,76.91L6.03,78.93L6.89,81.48L7.32,80.77L8.18,79.21L8.61,79.51L10.76,86.34L11.19,85.92L12.92,83.53L13.35,85.04L14.21,89.51L14.64,88.37L15.07,87.29L15.5,88.2L15.93,89.54L16.36,90.73L16.79,88.2L17.22,85.8L17.65,86.36L18.08,87.54L18.94,90L19.37,89.75L20.67,87.65L21.1,88.63L22.82,90.08L23.25,90.26L24.54,89.48L24.97,90.43L25.83,90.9L26.26,91.4L26.69,91.4L27.12,89.69L28.41,86.39L28.85,86.85L31,89.91L31.43,89.03L32.72,86.51L33.15,87.02L34.44,90.7L34.87,90.53L35.3,89.68L36.16,90L36.59,90.14L37.89,90.15L38.32,90.67L39.18,91.62L39.61,89.95L40.9,87.6L41.33,87.92L43.05,87.66L43.48,86.42L44.34,81.64L44.77,82.38L45.21,85.59L45.64,87.95L46.07,86.97L46.5,87.18L47.36,91.19L47.79,88.23L48.22,87.23L48.65,88.13L49.94,89.79L50.37,89.96L52.09,90.76L52.52,90.98L53.39,90.28L53.82,89.26L55.54,83.67L55.97,84.92L57.26,90.55L57.69,89.12L58.12,88.06L58.55,88.42L58.98,89.35L60.7,91.21L61.14,90.76L62.43,91.39L62.86,91.81L64.15,91.77L64.58,91.03L66.3,89.97L66.73,89.91L68.88,89.34L69.32,87.93L70.61,86.88L71.04,86.66L72.33,83.32L72.76,86.07L73.19,87.81L73.62,85.09L74.91,75.33L75.34,75.7L76.63,84.2L77.06,87.89L77.5,88.78L77.93,86.03L78.36,85.1L78.79,85.46L79.22,86.34L80.08,87.1L80.51,86.66L81.37,86.85L81.8,88.22L82.66,90.22L83.09,89.96L83.52,90.58L83.95,90.67L84.38,91.6L85.24,90L85.68,88.65L86.54,87.23L86.97,87.93L87.4,88.03L87.83,86.43L89.55,79.67L89.98,83.39L90.41,88.3L90.84,85.62L91.27,80.1L92.13,74.11L92.56,75.4L94.72,90.45L95.15,90.55L95.58,90.34L96.01,91.14L96.87,90.57L97.3,90.24L98.59,90.43L99.02,90L99.88,90.67L100.31,91.21L100.74,92.41L101.17,91.81L101.6,90.96L102.47,91.5L102.9,92.21L104.19,91.94L104.62,92.29L105.48,92.57L105.91,91.45L107.63,85.12L108.06,85.77L109.35,90L109.78,88.81L110.65,87.44L111.08,85.84L112.8,79.46L113.23,81.16L114.09,83.95L114.52,82.38L115.81,76.73L116.24,78L118.4,87.25L118.83,87.04L120.12,86.48L120.55,86.73L121.41,89.7L121.84,88.49L122.7,87.86L123.13,89.15L124.42,90.88L124.85,90.31L126.58,83.65L127.01,84.08L128.73,88.73L129.16,87.93L129.59,88.34L131.31,88.8L131.74,88.41L132.6,88.14L133.03,87.34L133.46,87.44L133.89,86.64L134.32,86.61L134.76,87.73L135.62,88.79L136.05,88.01L137.34,85.93L137.77,86.39L140.35,90.86L140.78,91.64L141.64,90.33L142.07,88.88L143.8,85.24L144.23,84.93L147.24,80.09L147.67,81.59L148.53,82.43L148.96,81.33L149.82,77.85L150.25,80.32L151.12,87.17L151.55,83.48L151.98,84.37L152.41,87.11L152.84,89.8L153.27,88.45L153.7,85.82L154.99,80.38L155.42,81.8L156.71,87.13L157.14,86.88L157.57,85.48L158.43,85.47L158.86,85.4L160.16,82.37L160.59,83.31L161.45,87.75L161.88,86.09L162.31,81.69L163.6,73.99L164.03,76.59L164.89,89.94L165.32,87.53L165.75,82.13L166.18,80.86L166.61,83.29L167.91,91.72L168.34,90.36L168.77,90.41L169.2,91.91L170.06,91.46L170.49,90.84L171.78,89.8L172.21,90.12L173.5,91.35L173.93,91.12L175.66,91.08L176.09,92.1L176.52,92.91L176.95,92.09L178.24,85.29L178.67,83.29L179.53,81.11L179.96,81.51L180.39,82.46L181.68,85.8L182.11,84.8L182.54,84.35L182.97,81.75L184.27,76.05L184.7,77.63L185.99,91.36L186.42,86.15L186.85,84.43L187.28,85.79L187.71,88.78L188.14,88.76L188.57,86.3L189,85.77L189.43,86.77L190.29,89.43L190.72,88.6L191.15,86.66L191.59,86.82L192.02,86.28L192.45,86.55L192.88,87.92L195.46,88.69L195.89,88.81L196.75,89.21L197.18,88.38L197.61,87.09L198.04,87.75L198.47,89.15L200.2,92.2L200.63,90.54L201.92,86.53L202.35,88.73L202.78,92.2L203.21,87.1L204.5,75.39L204.93,77.26L205.79,89.3L206.22,88.87L206.65,81.24L207.51,74.3L207.95,75.96L209.24,89.47L209.67,83.46L210.53,78.8L210.96,81.63L211.82,90.74L212.25,90.51L212.68,86.68L213.11,84.56L213.54,84.72L213.97,86.71L214.83,92.72L215.26,91.31L215.69,90.07L217.42,89.18L217.85,89.89L218.71,88.73L219.14,88.01L220,88.4L220.43,89.05L223.01,90.89L223.44,90.32L225.6,84.92L226.03,85.76L226.89,86.43L227.32,86.56L228.61,87.52L229.04,87.86L229.9,89.65L230.33,89.38L230.76,87.36L231.62,85.95L232.05,86.49L232.92,88.9L233.35,91.19L235.07,91.58L235.5,90.47L237.22,87.08L237.65,87.93L238.94,92.23L239.37,90.53L241.1,86.61L241.53,87.95L241.96,90.02L242.39,88.14L243.68,77.69L244.11,78.31L245.4,90.45L245.83,89.34L246.26,88.67L247.55,92.03L247.98,90.87L249.28,85.16L249.71,83.09L252.72,71.57L253.15,75.23L254.01,91.74L254.44,89.91L254.87,90.79L255.73,89.13L256.16,90.92L256.59,91.38L257.03,88.61L258.75,75.96L259.18,78.09L260.47,85.68L260.9,83.61L261.33,82.44L261.76,82.67L262.19,84.22L263.05,85.86L263.48,85.57L264.34,85.94L264.77,87.32L265.21,87.96L265.64,87.06L266.07,87.21L266.5,86.34L267.36,86.99L267.79,88.69L268.22,88.81L268.65,86.15L269.51,82.46L269.94,83.3L271.23,88.53L271.66,88.21L272.52,87.5L272.95,87.69L273.82,89.36L274.25,87.93L276.4,86.86L276.83,87.79L277.69,88.96L278.12,86.64L279.41,80.31L279.84,82.54L281.14,88.96L281.57,89.03L282.43,87.15L282.86,85.75L283.72,85.36L284.15,85.86L285.87,91L286.3,89.52L288.02,89.29L288.45,87.55L289.32,88.61L289.75,90.73L290.18,89.45L290.61,84.65L291.47,80.4L291.9,83.71L292.76,91.95L293.19,88.51L293.62,87.05L294.05,88.43L294.91,92.27L295.34,90.49L295.77,89.91L296.2,90.68L297.93,91.65L298.36,91.43L300.08,90.76L300.51,90.66L302.23,87.28L302.66,88.64L303.09,90.21L303.52,89.83L303.95,87.75L304.81,85.86L305.24,86.63L307.4,91.89L307.83,92.92L309.55,85.8L309.98,86.46L310.84,91.49L311.27,90.28L311.7,88.66L312.13,88.21L312.56,88.82L312.99,90.39L313.86,90.57L314.29,92.55L316.01,84.77L316.44,86.17L317.3,92.28L317.73,88.08L318.59,83.85L319.02,85.38L319.88,88.98L320.31,88.29L322.04,85.63L322.47,87L322.9,88.01L323.33,85.79L324.62,79.03L325.05,81.87L326.34,88.67L326.77,87.59L327.63,87.56L328.06,87.9L330.22,87.08L330.65,87.98L331.08,88.48L331.51,88.08L331.94,86.73L333.23,82.51L333.66,83.47L334.95,92.92L335.38,90.54L336.67,87.48L337.1,87.91L337.96,91.4L338.4,89.19L339.26,85.95L339.69,86.9L341.41,91.93L341.84,90.35L342.7,89.2L343.13,89.98L343.99,92.34L344.42,90.8L345.28,89.05L345.71,89.84L347.01,92.38L347.44,91.28L349.16,89.57L349.59,89.67L350.45,90.15L350.88,89.46L352.6,85.45L353.03,85.89L354.32,87.87L354.76,86.3L356.48,76.23L356.91,77.23L358.2,91.02L358.63,85.96L359.49,82.79L359.92,85.17L361.21,91.72L361.64,91.19L362.5,90.88L362.94,89.79L364.23,90.75L364.66,89.86L365.52,88.55L365.95,89.93L366.81,92.39L367.24,91.72L368.53,92.48L368.96,91.95L369.82,91.16L370.25,89.42L371.12,88.27L371.55,88.62L372.84,89.67L373.27,91.13L373.7,91.39L374.13,88.91L374.99,84.49L375.42,84.81L375.85,87.89L376.28,90.29L376.71,87.3L377.57,83.31L378,83.75L379.73,86.95L380.16,85.56L381.88,84.05L382.31,83.91L383.17,83.69L383.6,83.77L385.32,81.98L385.75,82.29L388.34,88.93L388.77,89.1L389.63,88.87L390.06,88.33L390.92,86.58L391.35,86.82L391.78,86.91L392.64,88.21L393.07,87.57L393.5,88.34L393.93,87.86L394.36,87.76L395.23,87.28L395.66,86.7L396.95,86.5L397.38,86.99L398.67,90.73L399.1,90L399.53,89.49L400.39,88.82L400.82,86.62L401.68,84.05L402.11,85.82L402.97,91.41L403.41,90.24L403.84,88.3L404.7,86.36L405.13,86.75L406.42,90.64L406.85,89.23L407.28,88.97L407.71,90.43L408.14,92.29L408.57,89.59L409.43,86.54L409.86,86.81L410.29,87.55L411.15,88.64L411.59,88.06L414.6,85.2L415.03,85.3L416.75,85.36L417.18,84.84L418.47,81.79L418.9,80L419.33,79.02L419.77,79.24L420.2,80.21L421.06,81.62L421.49,79.78L421.92,78.92L422.35,79.4L422.78,80.9L424.07,83.77L424.5,84.32L425.36,86.01L425.79,85.43L426.65,82.28L427.08,82.46L427.51,83.56L427.95,83.57L428.38,81.36L429.67,76.55L430.1,78.02L431.82,85.92L432.25,85.85L432.68,86.19L433.11,85.51L435.69,85.45L436.13,84.72L436.56,84.05L436.99,85.09L437.85,88.13L438.28,86.63L439.14,82.88L439.57,83.17L440,84.67" style="vector-effect: non-scaling-stroke; fill: none; stroke: rgb(136, 136, 136); stroke-opacity: 1; stroke-width: 2px; opacity: 1;"/></g><g class="points"/><g class="text"/></g></g></g><g class="overplot"/><path class="xlines-above crisp" d="M79,520.5H520" style="fill: none; stroke-width: 1px; stroke: rgb(36, 36, 36); stroke-opacity: 1;"/><path class="ylines-above crisp" d="M79.5,426.6666666666667V520" style="fill: none; stroke-width: 1px; stroke: rgb(36, 36, 36); stroke-opacity: 1;"/><g class="overlines-above"/><g class="xaxislayer-above"><path class="x3tick ticks crisp" d="M0,521v5" transform="translate(80,0)" style="stroke: rgb(68, 68, 68); stroke-opacity: 1; stroke-width: 1px;"/><path class="x3tick ticks crisp" d="M0,521v5" transform="translate(190.22,0)" style="stroke: rgb(68, 68, 68); stroke-opacity: 1; stroke-width: 1px;"/><path class="x3tick ticks crisp" d="M0,521v5" transform="translate(300.43,0)" style="stroke: rgb(68, 68, 68); stroke-opacity: 1; stroke-width: 1px;"/><path class="x3tick ticks crisp" d="M0,521v5" transform="translate(410.65,0)" style="stroke: rgb(68, 68, 68); stroke-opacity: 1; stroke-width: 1px;"/></g><g class="yaxislayer-above"><path class="y3tick ticks crisp" d="M79,0h-5" transform="translate(0,519.9966666666667)" style="stroke: rgb(68, 68, 68); stroke-opacity: 1; stroke-width: 1px;"/><path class="y3tick ticks crisp" d="M79,0h-5" transform="translate(0,488.88666666666666)" style="stroke: rgb(68, 68, 68); stroke-opacity: 1; stroke-width: 1px;"/><path class="y3tick ticks crisp" d="M79,0h-5" transform="translate(0,457.7766666666667)" style="stroke: rgb(68, 68, 68); stroke-opacity: 1; stroke-width: 1px;"/><path class="y3tick ticks crisp" d="M79,0h-5" transform="translate(0,426.6666666666667)" style="stroke: rgb(68, 68, 68); stroke-opacity: 1; stroke-width: 1px;"/><g class="y3tick"><text text-anchor="end" x="71.6" y="4.199999999999999" transform="translate(0,519.9966666666667)" style="font-family: 'Open Sans', verdana, arial, sans-serif; font-size: 12px; fill: rgb(36, 36, 36); fill-opacity: 1; white-space: pre; opacity: 1;">0</text></g><g class="y3tick"><text text-anchor="end" x="71.6" y="4.199999999999999" style="font-family: 'Open Sans', verdana, arial, sans-serif; font-size: 12px; fill: rgb(36, 36, 36); fill-opacity: 1; white-space: pre; opacity: 1;" transform="translate(0,488.88666666666666)">5</text></g><g class="y3tick"><text text-anchor="end" x="71.6" y="4.199999999999999" style="font-family: 'Open Sans', verdana, arial, sans-serif; font-size: 12px; fill: rgb(36, 36, 36); fill-opacity: 1; white-space: pre; opacity: 1;" transform="translate(0,457.7766666666667)">10</text></g><g class="y3tick"><text text-anchor="end" x="71.6" y="4.199999999999999" style="font-family: 'Open Sans', verdana, arial, sans-serif; font-size: 12px; fill: rgb(36, 36, 36); fill-opacity: 1; white-space: pre; opacity: 1;" transform="translate(0,426.6666666666667)">15</text></g></g><g class="overaxes-above"/></g></g><g class="polarlayer"/><g class="smithlayer"/><g class="ternarylayer"/><g class="geolayer"/><g class="funnelarealayer"/><g class="pielayer"/><g class="iciclelayer"/><g class="treemaplayer"/><g class="sunburstlayer"/><g class="glimages"/><defs id="topdefs-b13ea6"><g class="clips"/><clipPath id="legendb13ea6"><rect width="357" height="48" x="0" y="0"/></clipPath></defs><g class="layer-above"><g class="imagelayer"/><g class="shapelayer"/></g><g class="infolayer"><g class="legend" pointer-events="all" transform="translate(158.60000000000002,30.999999999999986)"><rect class="bg" shape-rendering="crispEdges" width="357" height="48" x="0" y="0" style="stroke: rgb(68, 68, 68); stroke-opacity: 1; fill: rgb(255, 255, 255); fill-opacity: 1; stroke-width: 0px;"/><g class="scrollbox" transform="" clip-path="url(#legendb13ea6)"><g class="groups"><g class="traces" transform="translate(0,14.5)" style="opacity: 1;"><text class="legendtext" text-anchor="start" x="40" y="4.680000000000001" style="font-family: 'Open Sans', verdana, arial, sans-serif; font-size: 12px; fill: rgb(36, 36, 36); fill-opacity: 1; white-space: pre;">x+y+z</text><g class="layers" style="opacity: 1;"><g class="legendfill"/><g class="legendlines"><path class="js-line" d="M5,0h30" style="fill: none; stroke: rgb(68, 170, 153); stroke-opacity: 1; stroke-width: 2px;"/></g><g class="legendsymbols"><g class="legendpoints"/></g></g><rect class="legendtoggle" x="0" y="-9.5" width="74.5625" height="19" style="fill: rgb(0, 0, 0); fill-opacity: 0;"/></g><g class="traces" transform="translate(101.65625,14.5)" style="opacity: 1;"><text class="legendtext" text-anchor="start" x="40" y="4.680000000000001" style="font-family: 'Open Sans', verdana, arial, sans-serif; font-size: 12px; fill: rgb(36, 36, 36); fill-opacity: 1; white-space: pre;">measured</text><g class="layers" style="opacity: 1;"><g class="legendfill"/><g class="legendlines"><path class="js-line" d="M5,0h30" style="fill: none; stroke: rgb(136, 34, 85); stroke-opacity: 1; stroke-dasharray: 3px, 3px; stroke-width: 1px;"/></g><g class="legendsymbols"><g class="legendpoints"/></g></g><rect class="legendtoggle" x="0" y="-9.5" width="99.15625" height="19" style="fill: rgb(0, 0, 0); fill-opacity: 0;"/></g><g class="traces" transform="translate(203.3125,14.5)" style="opacity: 1;"><text class="legendtext" text-anchor="start" x="40" y="4.680000000000001" style="font-family: 'Open Sans', verdana, arial, sans-serif; font-size: 12px; fill: rgb(36, 36, 36); fill-opacity: 1; white-space: pre;">true</text><g class="layers" style="opacity: 1;"><g class="legendfill"/><g class="legendlines"><path class="js-line" d="M5,0h30" style="fill: none; stroke: rgb(0, 0, 0); stroke-opacity: 1; stroke-dasharray: 9px, 9px; stroke-width: 1px;"/></g><g class="legendsymbols"><g class="legendpoints"/></g></g><rect class="legendtoggle" x="0" y="-9.5" width="66" height="19" style="fill: rgb(0, 0, 0); fill-opacity: 0;"/></g><g class="traces" transform="translate(304.96875,14.5)" style="opacity: 1;"><text class="legendtext" text-anchor="start" x="40" y="4.680000000000001" style="font-family: 'Open Sans', verdana, arial, sans-serif; font-size: 12px; fill: rgb(36, 36, 36); fill-opacity: 1; white-space: pre;">x</text><g class="layers" style="opacity: 1;"><g class="legendfill"/><g class="legendlines"><path class="js-line" d="M5,0h30" style="fill: none; stroke: rgb(136, 204, 238); stroke-opacity: 1; stroke-width: 2px;"/></g><g class="legendsymbols"><g class="legendpoints"/></g></g><rect class="legendtoggle" x="0" y="-9.5" width="49.5" height="19" style="fill: rgb(0, 0, 0); fill-opacity: 0;"/></g><g class="traces" transform="translate(0,33.5)" style="opacity: 1;"><text class="legendtext" text-anchor="start" x="40" y="4.680000000000001" style="font-family: 'Open Sans', verdana, arial, sans-serif; font-size: 12px; fill: rgb(36, 36, 36); fill-opacity: 1; white-space: pre;">y</text><g class="layers" style="opacity: 1;"><g class="legendfill"/><g class="legendlines"><path class="js-line" d="M5,0h30" style="fill: none; stroke: rgb(204, 102, 119); stroke-opacity: 1; stroke-width: 2px;"/></g><g class="legendsymbols"><g class="legendpoints"/></g></g><rect class="legendtoggle" x="0" y="-9.5" width="49.5" height="19" style="fill: rgb(0, 0, 0); fill-opacity: 0;"/></g><g class="traces" transform="translate(101.65625,33.5)" style="opacity: 1;"><text class="legendtext" text-anchor="start" x="40" y="4.680000000000001" style="font-family: 'Open Sans', verdana, arial, sans-serif; font-size: 12px; fill: rgb(36, 36, 36); fill-opacity: 1; white-space: pre;">z</text><g class="layers" style="opacity: 1;"><g class="legendfill"/><g class="legendlines"><path class="js-line" d="M5,0h30" style="fill: none; stroke: rgb(221, 204, 119); stroke-opacity: 1; stroke-width: 2px;"/></g><g class="legendsymbols"><g class="legendpoints"/></g></g><rect class="legendtoggle" x="0" y="-9.5" width="48.5" height="19" style="fill: rgb(0, 0, 0); fill-opacity: 0;"/></g><g class="traces" transform="translate(203.3125,33.5)" style="opacity: 1;"><text class="legendtext" text-anchor="start" x="40" y="4.680000000000001" style="font-family: 'Open Sans', verdana, arial, sans-serif; font-size: 12px; fill: rgb(36, 36, 36); fill-opacity: 1; white-space: pre;">distance</text><g class="layers" style="opacity: 1;"><g class="legendfill"/><g class="legendlines"><path class="js-line" d="M5,0h30" style="fill: none; stroke: rgb(136, 136, 136); stroke-opacity: 1; stroke-width: 2px;"/></g><g class="legendsymbols"><g class="legendpoints"/></g></g><rect class="legendtoggle" x="0" y="-9.5" width="89.609375" height="19" style="fill: rgb(0, 0, 0); fill-opacity: 0;"/></g></g></g><rect class="scrollbar" rx="20" ry="3" width="0" height="0" x="0" y="0" style="fill: rgb(128, 139, 164); fill-opacity: 1;"/></g><g class="g-gtitle"/><g class="g-xtitle"/><g class="g-x2title"/><g class="g-x3title"><text class="x3title" x="300" y="549.8" text-anchor="middle" style="font-family: 'Open Sans', verdana, arial, sans-serif; font-size: 14px; fill: rgb(36, 36, 36); opacity: 1; font-weight: normal; white-space: pre;">Time (s)</text></g><g class="g-ytitle"/><g class="g-y2title"/><g class="g-y3title"/><g class="annotation" data-index="0" style="opacity: 1;"><g class="annotation-text-g" transform="rotate(0,300,86.99999999999999)"><g class="cursor-pointer" transform="translate(164,74)"><rect class="bg" x="0.5" y="0.5" width="271" height="25" style="stroke-width: 1px; stroke: rgb(0, 0, 0); stroke-opacity: 0; fill: rgb(0, 0, 0); fill-opacity: 0;"/><text class="annotation-text" text-anchor="middle" x="135.8125" y="19" style="font-family: 'Open Sans', verdana, arial, sans-serif; font-size: 16px; fill: rgb(36, 36, 36); fill-opacity: 1; white-space: pre;">Observation - Noise volatility: 1e+00</text></g></g></g><g class="annotation" data-index="1" style="opacity: 1;"><g class="annotation-text-g" transform="rotate(0,300,250.33333333333331)"><g class="cursor-pointer" transform="translate(189,237)"><rect class="bg" x="0.5" y="0.5" width="221" height="25" style="stroke-width: 1px; stroke: rgb(0, 0, 0); stroke-opacity: 0; fill: rgb(0, 0, 0); fill-opacity: 0;"/><text class="annotation-text" text-anchor="middle" x="110.859375" y="19" style="font-family: 'Open Sans', verdana, arial, sans-serif; font-size: 16px; fill: rgb(36, 36, 36); fill-opacity: 1; white-space: pre;">States - Noise volatility: 1e-02</text></g></g></g><g class="annotation" data-index="2" style="opacity: 1;"><g class="annotation-text-g" transform="rotate(0,300,413.6666666666667)"><g class="cursor-pointer" transform="translate(218,401)"><rect class="bg" x="0.5" y="0.5" width="163" height="25" style="stroke-width: 1px; stroke: rgb(0, 0, 0); stroke-opacity: 0; fill: rgb(0, 0, 0); fill-opacity: 0;"/><text class="annotation-text" text-anchor="middle" x="81.828125" y="19" style="font-family: 'Open Sans', verdana, arial, sans-serif; font-size: 16px; fill: rgb(36, 36, 36); fill-opacity: 1; white-space: pre;">Phase-space distance</text></g></g></g></g></svg>