<svg class="main-svg" xmlns="http://www.w3.org/2000/svg" xmlns:xlink="http://www.w3.org/1999/xlink" width="600" height="600" style="" viewBox="0 0 600 600"><rect x="0" y="0" width="600" height="600" style="fill: rgb(255, 255, 255); fill-opacity: 1;"/><defs id="defs-4936c2"><g class="clips"><clipPath id="clip4936c2xyplot" class="plotclip"><rect width="440" height="93.33333333333333"/></clipPath><clipPath id="clip4936c2x2y2plot" class="plotclip"><rect width="440" height="93.33333333333336"/></clipPath><clipPath id="clip4936c2x3y3plot" class="plotclip"><rect width="440" height="93.33333333333334"/></clipPath><clipPath class="axesclip" id="clip4936c2x"><rect x="80" y="0" width="440" height="600"/></clipPath><clipPath class="axesclip" id="clip4936c2y"><rect x="0" y="100" width="600" height="93.33333333333333"/></clipPath><clipPath class="axesclip" id="clip4936c2xy"><rect x="80" y="100" width="440" height="93.33333333333333"/></clipPath><clipPath class="axesclip" id="clip4936c2y2"><rect x="0" y="263.3333333333333" width="600" height="93.33333333333336"/></clipPath><clipPath class="axesclip" id="clip4936c2xy2"><rect x="80" y="263.3333333333333" width="440" height="93.33333333333336"/></clipPath><clipPath class="axesclip" id="clip4936c2y3"><rect x="0" y="426.6666666666667" width="600" height="93.33333333333334"/></clipPath><clipPath class="axesclip" id="clip4936c2xy3"><rect x="80" y="426.6666666666667" width="440" height="93.33333333333334"/></clipPath><clipPath class="axesclip" id="clip4936c2x2"><rect x="80" y="0" width="440" height="600"/></clipPath><clipPath class="axesclip" id="clip4936c2x2y"><rect x="80" y="100" width="440" height="93.33333333333333"/></clipPath><clipPath class="axesclip" id="clip4936c2x2y2"><rect x="80" y="263.3333333333333" width="440" height="93.33333333333336"/></clipPath><clipPath class="axesclip" id="clip4936c2x2y3"><rect x="80" y="426.6666666666667" width="440" height="93.33333333333334"/></clipPath><clipPath class="axesclip" id="clip4936c2x3"><rect x="80" y="0" width="440" height="600"/></clipPath><clipPath class="axesclip" id="clip4936c2x3y"><rect x="80" y="100" width="440" height="93.33333333333333"/></clipPath><clipPath class="axesclip" id="clip4936c2x3y2"><rect x="80" y="263.3333333333333" width="440" height="93.33333333333336"/></clipPath><clipPath class="axesclip" id="clip4936c2x3y3"><rect x="80" y="426.6666666666667" width="440" height="93.33333333333334"/></clipPath></g><g class="gradients"/><g class="patterns"/></defs><g class="bglayer"/><g class="layer-below"><g class="imagelayer"/><g class="shapelayer"/></g><g class="cartesianlayer"><g class="subplot xy"><g class="layer-subplot"><g class="shapelayer"/><g class="imagelayer"/></g><g class="gridlayer"><g class="x"/><g class="y"/></g><g class="zerolinelayer"/><path class="xlines-below"/><path class="ylines-below"/><g class="overlines-below"/><g class="xaxislayer-below"/><g class="yaxislayer-below"/><g class="overaxes-below"/><g class="plot" transform="translate(80,100)" clip-path="url(#clip4936c2xyplot)"><g class="scatterlayer mlayer"><g class="trace scatter trace9139ea" style="stroke-miterlimit: 2; opacity: 1;"><g class="fills"/><g class="errorbars"/><g class="lines"><path class="js-line" d="M0,-63.9L1.72,-123.87L3.01,-55.81L3.44,-5.25L6.03,326.8L6.46,325.18L12.05,134.11L12.49,107.37L13.35,81.91L13.78,93.65L15.93,224.49L19.8,153.41L20.23,137.43L21.96,50.76L22.39,16.79L23.68,-47.39L24.54,-27.74L24.97,-5.28L26.26,55.3L26.69,51L29.28,-91.84L29.71,-88.31L31,-28.7L31.43,8L33.58,146.25L34.01,141.16L37.46,37.68L37.89,33.46L38.32,38.3L38.75,54.5L43.05,214.08L43.91,176L44.34,132.78L46.07,18.67L46.5,31.25L47.36,45.02L47.79,30.11L51.66,-43.77L52.09,-40.89L52.52,-34.02L53.39,-3.63L53.82,25.23L55.97,198.95L56.4,194.85L58.98,80.45L59.41,79.36L60.27,82.58L60.7,86.18L62.86,124.87L63.29,120.01L63.72,107.08L66.3,24.03L66.73,17.02L67.16,15.37L67.59,18.58L68.02,22.65L68.45,21.92L68.88,12.24L71.04,-81.21L71.9,-30.88L72.33,15.78L73.62,88.09L74.05,61.59L76.2,-158.87L76.63,-158.51L77.06,-135.06L80.08,88.57L80.51,115.64L81.8,154.1L83.52,120.45L83.95,115.95L84.81,97.89L85.24,78.98L88.69,-116.86L89.12,-186.1L90.41,-306.93L92.13,-93.81L92.56,-36.42L93.86,38.65L94.29,45.48L96.44,96.69L96.87,96.17L97.3,92.39L98.16,75.41L98.59,59.61L100.31,-8.73L100.74,-2.27L102.9,73.68L103.33,71.08L103.76,69.21L104.19,71.58L105.05,81.05L105.48,76.54L106.34,30.57L106.77,-5.19L108.06,-79.74L109.35,-28.22L109.78,3.43L111.51,177.78L111.94,240.52L113.23,334.64L114.95,171L115.38,130.26L116.67,70.84L117.1,71.37L118.83,93.33L119.26,85.38L121.41,-0.75L121.84,7.97L124.42,101.39L124.85,98.42L125.71,64.93L126.14,37.41L127.87,-40.49L129.16,-19.77L129.59,-16.89L134.76,-147.31L135.62,-113.51L136.05,-81.93L137.77,1.87L138.2,6.47L138.63,8.02L139.06,6.54L140.78,-23.83L141.21,-16.75L141.64,3.16L144.23,130.49L144.66,141.35L148.96,262.2L149.82,200.48L150.25,143.25L151.55,31.16L151.98,38.01L153.27,78.55L153.7,66.76L155.85,-62.31L156.28,-58.01L158,1.5L161.02,-209.1L161.88,-147.98L162.31,-86.64L164.46,215.6L164.89,193.26L167.05,-32.9L167.48,-27.56L168.34,-10.91L169.63,-14.44L170.06,-8.41L171.78,56.18L172.21,73.87L173.07,92.19L173.5,90.86L173.93,84.66L176.09,51.97L176.52,51.54L176.95,46.61L177.38,31.4L180.82,-273.5L182.97,-103.97L183.41,-33.91L185.13,184.84L185.56,170.92L187.28,36.56L187.71,56.91L190.29,219.96L192.88,151.1L193.31,138.94L194.6,117.17L196.32,155.52L196.75,146.2L197.18,123.91L199.33,20.06L199.77,21.07L200.63,51.76L201.06,84.61L202.35,170.71L202.78,152.75L203.21,102.34L205.36,-185.14L205.79,-159.4L208.38,228.8L208.81,208.36L211.39,-82.27L211.82,-70.82L214.4,102.11L214.83,93.59L215.69,72.62L216.13,78.63L218.28,163.33L219.57,127.99L220,114.51L222.15,62.29L222.58,65.41L226.46,267.66L230.33,197.66L230.76,164.37L232.49,79.24L232.92,86.86L234.64,139.07L235.5,112.01L235.93,87.96L237.65,17.88L238.08,23.43L239.37,53.8L239.8,41.77L241.53,-60.28L241.96,-38.6L242.39,15.12L244.11,258.71L244.54,245.83L246.69,74.59L247.12,86.62L247.98,100.91L248.41,87.43L250.57,-63.07L251,-58.73L251.43,-33.64L253.58,111.19L254.01,102.65L255.3,66.87L255.73,70.6L256.59,87.98L257.03,84.64L257.46,65.31L259.61,-94.73L260.04,-79.66L261.76,36.34L262.19,26.67L267.79,-172.9L269.08,-84.44L269.51,-37.44L271.23,61.1L271.66,84.01L277.26,209.84L278.12,173.49L278.55,114.62L280.7,-136.65L281.14,-129.06L282.43,-42.62L282.86,-1.25L285.01,141.28L285.44,139.78L287.16,105.12L289.75,206.1L290.18,180.67L290.61,129.83L292.33,-52.24L292.76,-35.9L294.48,57.74L294.91,48.85L297.06,-30.25L297.5,-30.11L298.79,-2.17L299.22,12.15L301.37,105.03L301.8,136.01L302.66,182.4L303.95,129.79L304.38,91.4L306.11,-0.62L306.54,-9.01L307.4,-17.3L307.83,-11.06L308.26,6.86L310.41,153.12L310.84,149.85L311.27,134.3L312.56,97.6L314.29,127.82L314.72,114.63L316.01,-11.71L316.44,-59.08L317.3,-89.52L317.73,-60.09L318.16,-8.43L319.88,146.52L320.31,157.75L322.47,271.48L323.76,149.24L324.19,73.78L325.48,-67.68L325.91,-74.11L330.65,-144.95L331.51,-126.2L331.94,-99.5L334.52,97.2L334.95,87.55L336.24,2.2L336.67,-35.8L337.96,-98.81L338.83,-47.57L339.26,-5.76L340.98,85.5L341.41,76.75L343.56,-24.43L343.99,-17.87L346.14,77.41L346.58,76.79L347.01,68.85L351.74,-82.8L352.17,-112.21L353.89,-190.36L355.19,-105.36L355.62,-44.96L357.77,226.76L358.2,209.64L360.78,-18.62L361.21,-18.03L361.64,-15.18L362.5,-27.8L362.94,-47.02L364.23,-84.48L365.09,-33.85L365.52,0.16L366.38,31.03L366.81,24.76L367.67,8.17L368.1,10.18L368.53,17.07L368.96,22.34L369.39,20.36L369.82,9.18L372.84,-74.63L373.7,-52.64L374.13,-21.25L375.42,77.37L375.85,73.1L376.28,45.25L384.03,-268.7L386.18,-125.35L386.61,-91.1L388.34,-45.02L391.78,-153.9L393.93,-85.5L394.36,-60.1L397.38,86.28L397.81,85.73L399.53,29.42L399.96,39.43L402.11,197.71L402.54,192.21L405.56,40.69L405.99,49.3L407.71,140.77L408.57,108.98L409,74.32L412.45,-191.34L412.88,-202.92L413.74,-209.79L415.46,-139.33L415.89,-101.14L420.2,340.17L420.63,321.4L423.64,56.5L424.07,42.11L424.5,36.36L424.93,46.1L427.08,198.27L427.51,177.77L430.53,-101.38L430.96,-97.33L431.82,-86.37L434.83,-154.01L436.13,-109.7L436.56,-71.4L438.28,31.22L438.71,14.99L440,-70.71" style="vector-effect: non-scaling-stroke; fill: none; stroke: rgb(136, 34, 85); stroke-opacity: 1; stroke-width: 1px; opacity: 1; stroke-dasharray: 3px, 3px;"/></g><g class="points"/><g class="text"/></g><g class="trace scatter tracedab776" style="stroke-miterlimit: 2; opacity: 1;"><g class="fills"/><g class="errorbars"/><g class="lines"><path class="js-line" d="M0,54.83L2.58,56.87L3.01,56.97L5.6,56.64L6.03,56.32L7.75,53.63L8.18,52.56L9.9,45.91L10.33,43.51L12.92,22.47L13.35,18.49L15.07,8.42L15.5,8.4L16.36,11.74L16.79,14.78L21.1,46.53L21.53,48.32L24.54,56.74L24.97,57.66L35.3,78.7L35.73,78.79L36.59,77.88L37.03,76.8L38.75,68.79L39.18,66.25L42.19,52.81L42.62,52.08L44.34,51.24L44.77,51.38L46.5,53.07L46.93,53.67L53.39,63.27L53.82,63.99L57.69,72.22L58.12,73.36L62.43,84.34L62.86,84.43L63.72,82.95L64.15,81.24L65.87,68.31L66.3,64.27L68.88,47.64L69.32,46.53L70.61,45.12L71.04,45.09L72.76,46.17L73.19,46.58L77.06,49.18L77.5,49.26L79.22,48.79L79.65,48.41L81.37,46.1L81.8,45.13L83.95,37.71L84.38,35.68L88.69,16.58L89.12,16.55L89.98,18.2L90.41,19.76L96.87,48.34L97.3,49.35L100.31,54.49L100.74,55.03L103.76,57.67L104.19,57.88L106.34,58.05L106.77,57.79L108.49,55.77L108.92,54.95L110.65,49.8L111.08,47.9L113.23,34.33L113.66,30.6L116.67,8.13L117.1,7.94L117.96,11.08L118.4,14.11L122.7,46.64L123.13,48.43L126.14,57.14L126.58,58.08L136.05,76.95L136.48,77.2L137.34,76.92L137.77,76.35L139.06,72.83L139.49,71.04L143.8,53.58L144.23,53L145.52,52.5L145.95,52.64L147.67,54.26L148.1,54.88L154.13,65.81L154.56,66.69L160.59,79.36L161.02,79.51L161.88,78.75L162.31,77.78L164.03,70.35L164.46,67.82L167.48,53.03L167.91,51.98L169.63,50.12L170.06,50.2L172.21,52.05L172.64,52.61L186.85,72.18L187.28,73.16L192.88,88.82L193.31,88.56L194.17,85.55L194.6,82.64L198.9,43.75L199.33,42.61L200.63,41.2L201.06,41.17L207.51,43.11L207.95,42.86L209.67,40.85L210.1,40.06L212.68,33.13L213.11,31.71L216.13,23.56L216.56,23.17L217.42,23.22L217.85,23.65L219.57,27.59L220,28.93L224.74,41.67L225.17,42.42L227.75,45.23L228.18,45.45L229.9,45.36L230.33,45.03L232.05,42.47L232.49,41.5L235.07,32.77L235.5,30.9L238.51,20.3L238.94,19.92L239.8,20.38L240.23,21.18L241.96,27.13L242.39,29.01L246.26,43.28L246.69,44.4L249.28,48.58L249.71,48.98L251.86,49.86L252.29,49.83L254.01,48.49L254.44,47.86L256.16,43.88L256.59,42.46L258.75,32.07L259.18,29.49L261.76,16.79L262.19,16.09L263.05,16.59L263.48,17.71L265.64,28.53L266.07,30.96L269.08,44.05L269.51,45.36L272.95,52.62L273.39,53.27L277.26,57.41L277.69,57.67L279.41,57.61L279.84,57.4L281.57,55.69L282,54.87L284.15,48.12L284.58,46.04L286.73,30.88L287.16,27.03L289.75,9.13L290.18,8.92L291.04,11.68L291.47,14.41L296.2,47.21L296.63,48.85L299.65,56.9L300.08,57.82L310.41,79.1L310.84,78.92L312.13,76.16L312.56,74.45L317.3,51.62L317.73,50.96L319.02,50.32L319.45,50.39L321.17,51.9L321.6,52.55L334.52,72.7L334.95,73.7L340.12,86.3L340.55,85.88L341.41,82.99L341.84,80.35L346.14,45.8L346.58,44.7L347.87,43.42L348.3,43.43L350.88,45.04L351.31,45.36L353.89,46.29L354.32,46.27L356.48,45.01L356.91,44.53L358.63,41.25L359.06,40.04L362.07,28.21L362.5,26.29L364.66,19.76L365.09,19.59L365.95,20.5L366.38,21.54L368.96,32.17L369.39,34L372.41,43.67L372.84,44.59L375.85,48.8L376.28,49.02L378.43,49.03L378.86,48.71L380.59,46.12L381.02,45.06L383.17,37.18L383.6,35.02L387.48,17.6L387.91,17.37L388.77,18.59L389.2,19.95L396.09,47.23L396.52,48.12L399.53,52.39L399.96,52.77L402.54,53.98L402.97,53.87L404.7,52.62L405.13,51.97L407.28,46.19L407.71,44.37L409.86,31.07L410.29,27.72L412.88,11.51L413.31,11.07L414.17,13.03L414.6,15.24L420.2,49.95L420.63,51.36L424.5,60.75L424.93,61.62L433.11,79.03L433.54,79.16L434.4,78.43L434.83,77.47L436.56,69.89L436.99,67.37L440,53.01" style="vector-effect: non-scaling-stroke; fill: none; stroke: rgb(68, 170, 153); stroke-opacity: 1; stroke-width: 2px; opacity: 1;"/></g><g class="points"/><g class="text"/></g><g class="trace scatter trace6cb209" style="stroke-miterlimit: 2; opacity: 1;"><g class="fills"/><g class="errorbars"/><g class="lines"><path class="js-line" d="M0,38.85L4.74,49.77L5.17,50.52L9.04,55.86L9.47,56.27L12.49,58.02L12.92,58.05L14.64,57.55L15.07,57.24L16.79,54.67L17.22,53.62L18.94,46.96L19.37,44.57L21.96,23.41L22.39,19.32L24.11,8.05L24.54,7.72L25.4,10.6L25.83,13.53L30.57,48.43L31,50.07L34.44,59.2L34.87,60.13L43.48,77.31L43.91,77.34L44.77,76.48L45.21,75.55L46.93,68.61L47.36,66.39L50.37,53.98L50.8,53.18L52.52,52.11L52.95,52.27L55.11,54.37L55.54,54.97L59.84,62.05L60.27,62.86L64.15,71.15L64.58,72.24L68.88,81.65L69.32,81.56L70.18,80.02L70.61,78.42L72.76,64.24L73.19,61.03L75.34,50.17L75.77,49.19L77.06,47.94L77.5,47.96L79.22,49.14L79.65,49.62L86.11,56.06L86.54,56.22L88.69,56.02L89.12,55.76L90.84,53.46L91.27,52.45L92.99,46.34L93.42,44.15L95.58,28.78L96.01,25.04L98.16,10.27L98.59,9.57L99.02,9.92L99.45,11.29L101.17,23.71L101.6,27.39L104.62,46.43L105.05,48.12L108.06,56.46L108.49,57.38L119.26,79.58L119.69,79.43L120.55,78L120.98,76.6L123.13,64.63L123.56,61.9L125.71,52.4L126.14,51.45L127.87,50.15L128.3,50.26L130.45,52.29L130.88,52.85L142.07,69.43L142.5,70.29L145.52,77.86L145.95,79.21L148.96,87.26L149.39,87.31L150.25,85.39L150.68,83.14L152.41,66.79L152.84,61.99L154.99,45.67L155.42,44.28L157.14,42.27L157.57,42.34L160.16,43.95L160.59,44.27L163.17,45.34L163.6,45.28L165.32,44.19L165.75,43.65L167.48,40.21L167.91,38.99L170.92,27.81L171.35,26.13L173.5,20.99L173.93,20.94L174.79,21.91L175.23,22.84L177.81,32.23L178.24,33.85L181.68,43.69L182.11,44.43L184.7,47.28L185.13,47.46L186.85,47.39L187.28,47.09L189,44.83L189.43,43.93L191.59,37L192.02,35.1L195.89,18.81L196.32,18.35L197.18,18.95L197.61,19.87L199.77,29.14L200.2,31.26L203.64,44.19L204.07,45.23L207.08,50.29L207.51,50.73L209.67,51.92L210.1,51.94L211.82,51.06L212.25,50.55L213.97,46.95L214.4,45.62L216.56,35.61L216.99,32.95L220.43,14.28L220.86,14.06L221.72,15.87L222.15,17.72L228.18,48.19L228.61,49.31L232.49,56.64L232.92,57.27L238.94,64.35L239.37,64.8L245.83,72.27L246.26,72.97L248.85,78.68L249.28,79.93L253.15,91.5L253.58,91.23L254.44,87.8L254.87,84.34L259.18,40.78L259.61,39.72L260.9,38.4L261.33,38.36L264.34,39.56L264.77,39.7L266.93,39.99L267.36,39.87L269.51,38.24L269.94,37.72L272.95,32.31L273.39,31.4L276.4,26.67L276.83,26.48L278.12,26.79L278.55,27.23L280.7,30.98L281.14,31.87L285.44,39.32L285.87,39.72L288.02,40.77L288.45,40.75L290.61,39.32L291.04,38.73L293.62,33.61L294.05,32.53L297.5,25.53L297.93,25.24L299.22,25.6L299.65,26.11L302.23,31.8L302.66,32.88L306.54,40.57L306.97,41.07L309.12,42.27L309.55,42.26L311.27,41.36L311.7,40.9L313.86,37.17L314.29,36.13L319.02,24.11L319.45,23.82L320.31,24.02L320.74,24.48L322.47,28.25L322.9,29.51L327.2,40.6L327.63,41.32L329.78,43.67L330.22,43.89L331.94,43.85L332.37,43.64L334.09,41.58L334.52,40.76L337.1,33.58L337.53,32.06L340.98,22.1L341.41,21.88L342.27,22.37L342.7,23.09L344.85,29.78L345.28,31.37L348.73,41.65L349.16,42.54L351.74,45.99L352.17,46.28L353.89,46.55L354.32,46.37L356.05,44.56L356.48,43.81L358.63,37.85L359.06,36.25L363.37,19.94L363.8,19.58L364.66,20.13L365.09,21L367.24,29.31L367.67,31.25L371.12,43.37L371.55,44.39L374.56,48.99L374.99,49.36L377.14,49.93L377.57,49.79L379.3,48.03L379.73,47.26L381.45,42.59L381.88,40.89L384.89,24.78L385.32,22.38L387.05,16.27L387.48,16.11L388.34,17.62L388.77,19.17L395.23,47.76L395.66,48.76L398.67,53.92L399.1,54.42L402.11,56.68L402.54,56.81L404.27,56.59L404.7,56.33L406.42,53.96L406.85,52.98L408.57,46.89L409,44.73L411.15,29.13L411.59,25.24L413.74,9.8L414.17,9.01L414.6,9.28L415.03,10.64L416.75,23.45L417.18,27.26L420.2,46.78L420.63,48.53L423.64,57.04L424.07,57.97L433.97,78.49L434.4,78.46L435.26,77.36L435.69,76.25L437.42,68.35L437.85,65.83L440,55.02" style="vector-effect: non-scaling-stroke; fill: none; stroke: rgb(0, 0, 0); stroke-opacity: 1; stroke-width: 1px; opacity: 1; stroke-dasharray: 9px, 9px;"/></g><g class="points"/><g class="text"/></g></g></g><g class="overplot"/><path class="xlines-above crisp" d="M79,193.83333333333331H520" style="fill: none; stroke-width: 1px; stroke: rgb(36, 36, 36); stroke-opacity: 1;"/><path class="ylines-above crisp" d="M79.5,100V193.33333333333331" style="fill: none; stroke-width: 1px; stroke: rgb(36, 36, 36); stroke-opacity: 1;"/><g class="overlines-above"/><g class="xaxislayer-above"><path class="xtick ticks crisp" d="M0,194.33333333333331v5" transform="translate(80,0)" style="stroke: rgb(68, 68, 68); stroke-opacity: 1; stroke-width: 1px;"/><path class="xtick ticks crisp" d="M0,194.33333333333331v5" transform="translate(190.22,0)" style="stroke: rgb(68, 68, 68); stroke-opacity: 1; stroke-width: 1px;"/><path class="xtick ticks crisp" d="M0,194.33333333333331v5" transform="translate(300.43,0)" style="stroke: rgb(68, 68, 68); stroke-opacity: 1; stroke-width: 1px;"/><path class="xtick ticks crisp" d="M0,194.33333333333331v5" transform="translate(410.65,0)" style="stroke: rgb(68, 68, 68); stroke-opacity: 1; stroke-width: 1px;"/></g><g class="yaxislayer-above"><path class="ytick ticks crisp" d="M79,0h-5" transform="translate(0,175.82999999999998)" style="stroke: rgb(68, 68, 68); stroke-opacity: 1; stroke-width: 1px;"/><path class="ytick ticks crisp" d="M79,0h-5" transform="translate(0,152.5)" style="stroke: rgb(68, 68, 68); stroke-opacity: 1; stroke-width: 1px;"/><path class="ytick ticks crisp" d="M79,0h-5" transform="translate(0,129.17000000000002)" style="stroke: rgb(68, 68, 68); stroke-opacity: 1; stroke-width: 1px;"/><path class="ytick ticks crisp" d="M79,0h-5" transform="translate(0,105.83)" style="stroke: rgb(68, 68, 68); stroke-opacity: 1; stroke-width: 1px;"/><g class="ytick"><text text-anchor="end" x="71.6" y="4.199999999999999" transform="translate(0,175.82999999999998)" style="font-family: 'Open Sans', verdana, arial, sans-serif; font-size: 12px; fill: rgb(36, 36, 36); fill-opacity: 1; white-space: pre; opacity: 1;">0</text></g><g class="ytick"><text text-anchor="end" x="71.6" y="4.199999999999999" style="font-family: 'Open Sans', verdana, arial, sans-serif; font-size: 12px; fill: rgb(36, 36, 36); fill-opacity: 1; white-space: pre; opacity: 1;" transform="translate(0,152.5)">20</text></g><g class="ytick"><text text-anchor="end" x="71.6" y="4.199999999999999" style="font-family: 'Open Sans', verdana, arial, sans-serif; font-size: 12px; fill: rgb(36, 36, 36); fill-opacity: 1; white-space: pre; opacity: 1;" transform="translate(0,129.17000000000002)">40</text></g><g class="ytick"><text text-anchor="end" x="71.6" y="4.199999999999999" style="font-family: 'Open Sans', verdana, arial, sans-serif; font-size: 12px; fill: rgb(36, 36, 36); fill-opacity: 1; white-space: pre; opacity: 1;" transform="translate(0,105.83)">60</text></g></g><g class="overaxes-above"/></g><g class="subplot x2y2"><g class="layer-subplot"><g class="shapelayer"/><g class="imagelayer"/></g><g class="gridlayer"><g class="x2"/><g class="y2"/></g><g class="zerolinelayer"/><path class="xlines-below"/><path class="ylines-below"/><g class="overlines-below"/><g class="xaxislayer-below"/><g class="yaxislayer-below"/><g class="overaxes-below"/><g class="plot" transform="translate(80,263.3333333333333)" clip-path="url(#clip4936c2x2y2plot)"><g class="scatterlayer mlayer"><g class="trace scatter tracebda06f" style="stroke-miterlimit: 2; opacity: 1;"><g class="fills"/><g class="errorbars"/><g class="lines"><path class="js-line" d="M0,58.67L3.01,58.32L3.44,58.19L6.89,56.53L7.32,56.17L9.9,52.91L10.33,52.13L15.07,42.35L15.5,42.35L16.36,43.36L16.79,44.34L22.39,59.49L22.82,60L25.83,62.12L26.26,62.33L31,65.01L31.43,65.41L34.44,69.41L34.87,70.16L38.32,75.07L38.75,75.15L40.04,74.24L40.47,73.58L46.5,63.08L46.93,62.75L49.94,61.47L50.37,61.42L53.82,61.65L54.25,61.78L57.69,63.79L58.12,64.21L60.7,67.9L61.14,68.74L65.44,77.42L65.87,77.45L66.73,76.54L67.16,75.63L73.19,60.14L73.62,59.66L76.63,57.5L77.06,57.26L81.37,54.42L81.8,53.99L85.24,49.2L85.68,48.47L88.26,45.23L88.69,45.09L89.98,45.73L90.41,46.26L93.42,52.24L93.86,53.11L96.87,57.44L97.3,57.78L99.88,58.85L100.31,58.91L104.62,58.57L105.05,58.47L108.06,56.9L108.49,56.56L111.08,53.56L111.51,52.85L114.52,46.14L114.95,45.08L116.67,42.25L117.1,42.21L117.96,43.12L118.4,44.06L123.99,59.55L124.42,60.11L127.44,62.48L127.87,62.7L133.03,66.11L133.46,66.55L136.91,71.29L137.34,71.92L139.92,74.37L140.35,74.34L141.64,73.28L142.07,72.65L147.67,63.8L148.1,63.52L151.12,62.67L151.55,62.71L155.42,64.1L155.85,64.42L158.86,67.77L159.3,68.42L164.03,75.09L164.46,75.09L165.75,74.05L166.18,73.4L172.64,61.98L173.07,61.69L176.09,60.76L176.52,60.73L183.84,61.08L184.27,61.21L187.71,63.1L188.14,63.55L190.72,67.35L191.15,68.29L195.89,79.11L196.32,78.76L197.61,75.41L198.04,73.75L201.92,60.45L202.35,59.64L204.93,56.5L205.36,56.16L212.68,50.32L213.11,49.86L216.13,47.44L216.56,47.35L218.28,47.89L218.71,48.24L225.6,54.89L226.03,55.06L229.04,55.14L229.47,55.01L232.49,52.98L232.92,52.55L238.94,46.24L239.37,46.28L241.1,47.7L241.53,48.3L247.12,56.09L247.55,56.37L250.14,56.83L250.57,56.78L253.58,55.65L254.01,55.35L257.03,52.22L257.46,51.58L262.19,44.91L262.62,44.94L263.91,46.09L264.34,46.79L269.94,56.78L270.37,57.12L273.82,58.67L274.25,58.72L278.12,58.51L278.55,58.36L282.43,55.84L282.86,55.38L285.44,51.37L285.87,50.45L289.75,42.59L290.18,42.54L291.04,43.41L291.47,44.29L297.5,59.54L297.93,60.01L300.94,61.96L301.37,62.17L306.11,65.3L306.54,65.74L309.55,69.94L309.98,70.69L313.42,75.34L313.86,75.33L315.15,74.09L315.58,73.33L321.17,62.62L321.6,62.3L325.05,61.06L325.48,61.05L331.94,61.69L332.37,61.87L335.38,63.93L335.81,64.41L338.4,68.61L338.83,69.59L342.7,78.05L343.13,78.1L343.99,77.11L344.42,76.1L350.02,59.91L350.45,59.34L353.89,56.42L354.32,56.15L359.06,52.46L359.49,51.96L364.66,46.16L365.09,46.14L366.38,46.88L366.81,47.38L373.27,56.03L373.7,56.22L376.28,56.67L376.71,56.59L379.73,55.19L380.16,54.82L383.17,51.11L383.6,50.41L387.48,45.41L387.91,45.38L389.2,46.3L389.63,46.91L395.66,56.53L396.09,56.85L399.1,57.89L399.53,57.9L402.97,57.21L403.41,57L405.99,55.05L406.42,54.58L409,50.53L409.43,49.65L412.88,43.34L413.31,43.24L414.6,44.54L415.03,45.47L420.63,59.15L421.06,59.66L424.07,61.98L424.5,62.15L428.38,64.4L428.81,64.77L432.25,69.16L432.68,69.87L436.13,74.88L436.56,75.03L437.85,74.33L438.28,73.74L440,70.34" style="vector-effect: non-scaling-stroke; fill: none; stroke: rgb(136, 204, 238); stroke-opacity: 1; stroke-width: 2px; opacity: 1;"/></g><g class="points"/><g class="text"/></g><g class="trace scatter trace21b358" style="stroke-miterlimit: 2; opacity: 1;"><g class="fills"/><g class="errorbars"/><g class="lines"><path class="js-line" d="M0,58.8L11.62,58.73L12.05,58.62L15.93,56.77L16.36,56.44L18.94,53.19L19.37,52.41L24.54,42.14L24.97,42.4L26.26,45.03L26.69,46.39L31,58.91L31.43,59.6L34.01,62.1L34.44,62.37L40.04,66.11L40.47,66.59L44.34,72.19L44.77,72.83L46.93,74.57L47.36,74.5L48.65,73.29L49.08,72.62L54.68,63.49L55.11,63.17L58.12,62.08L58.55,62.09L62,62.9L62.43,63.12L65.44,65.72L65.87,66.29L68.88,71.68L69.32,72.58L71.9,76.33L72.33,76.31L73.62,74.75L74.05,73.79L79.22,62.01L79.65,61.52L82.23,59.76L82.66,59.58L89.98,56.68L90.41,56.32L92.99,53.21L93.42,52.49L98.59,42.77L99.02,42.86L100.31,44.94L100.74,46.12L105.48,58.65L105.91,59.21L108.92,61.57L109.35,61.79L114.95,65.15L115.38,65.56L118.4,69.92L118.83,70.71L121.84,75.31L122.27,75.48L123.56,74.77L123.99,74.13L130.45,62.24L130.88,61.91L133.89,60.73L134.32,60.69L139.06,61.01L139.49,61.09L143.37,62.8L143.8,63.13L146.38,66.27L146.81,67.03L149.82,74.59L150.25,75.79L151.98,78.58L152.41,78.47L153.7,75.88L154.13,74.42L158.43,60.55L158.86,59.79L161.45,57.03L161.88,56.75L167.91,52.17L168.34,51.7L173.5,46.58L173.93,46.62L175.66,47.81L176.09,48.35L181.68,55.34L182.11,55.58L184.7,56.06L185.13,56L187.71,55.03L188.14,54.76L191.15,51.74L191.59,51.17L195.89,45.81L196.32,45.7L197.61,46.3L198.04,46.8L201.49,52.91L201.92,53.62L204.93,56.71L205.36,56.94L207.95,57.43L208.38,57.39L211.82,56.12L212.25,55.8L214.83,53.1L215.26,52.49L220.43,44.31L220.86,44.27L222.15,45.53L222.58,46.29L228.18,57.65L228.61,58.06L231.62,59.58L232.05,59.69L246.26,61.74L246.69,61.95L249.28,64.27L249.71,64.88L251.86,69.33L252.29,70.56L255.73,80.04L256.16,80.06L257.03,78.62L257.46,77.23L262.62,58.23L263.05,57.52L265.64,54.91L266.07,54.63L276.83,48.54L277.26,48.56L279.41,49.43L279.84,49.73L286.3,53.6L286.73,53.65L289.75,53.17L290.18,52.98L294.05,50.25L294.48,49.89L297.93,48.1L298.36,48.11L300.51,49.11L300.94,49.46L306.54,53.91L306.97,54.05L309.55,54.1L309.98,53.99L312.99,52.43L313.42,52.08L319.45,47.57L319.88,47.58L322.04,48.88L322.47,49.34L328.06,54.52L328.49,54.67L331.08,54.75L331.51,54.63L334.52,52.93L334.95,52.57L341.41,46.96L341.84,47.02L343.56,48.29L343.99,48.81L349.59,55.12L350.02,55.33L352.6,55.71L353.03,55.63L356.05,54.17L356.48,53.81L359.49,50.43L359.92,49.85L363.37,46.17L363.8,46.12L365.09,46.73L365.52,47.18L368.53,52.04L368.96,52.71L371.98,56.05L372.41,56.3L374.99,56.87L375.42,56.84L378.43,55.7L378.86,55.41L381.45,52.85L381.88,52.24L387.05,44.99L387.48,44.95L388.77,46.05L389.2,46.72L395.23,57.25L395.66,57.58L398.67,58.68L399.1,58.71L402.97,58.1L403.41,57.95L406.42,56.05L406.85,55.61L409.43,51.81L409.86,50.93L414.17,42.54L414.6,42.63L415.89,44.74L416.32,45.94L421.06,58.85L421.49,59.46L424.5,61.98L424.93,62.23L430.1,65.58L430.53,66.06L433.97,71.1L434.4,71.83L436.99,74.99L437.42,75.07L438.71,74.13L439.14,73.47L440,71.78" style="vector-effect: non-scaling-stroke; fill: none; stroke: rgb(0, 0, 0); stroke-opacity: 1; stroke-width: 1px; opacity: 1; stroke-dasharray: 9px, 9px;"/></g><g class="points"/><g class="text"/></g><g class="trace scatter tracec77d63" style="stroke-miterlimit: 2; opacity: 1;"><g class="fills"/><g class="errorbars"/><g class="lines"><path class="js-line" d="M0,58.67L6.03,55.13L6.46,54.6L9.04,49.79L9.47,48.67L13.78,37.62L14.21,38.15L15.5,43.51L15.93,46.2L18.94,61.41L19.37,62.22L21.1,63.45L21.53,63.48L26.26,63.76L26.69,63.95L29.71,66.19L30.14,66.69L32.72,70.87L33.15,71.76L36.59,78.04L37.03,78.11L37.89,77.29L38.32,76.37L43.48,61.08L43.91,60.71L46.07,60.2L46.5,60.26L53.82,62.53L54.25,62.8L57.26,65.85L57.69,66.51L60.27,72.37L60.7,73.66L63.72,81.74L64.15,81.84L65.01,80.31L65.44,78.61L69.75,57.9L70.18,57.3L71.9,56.49L72.33,56.5L76.2,56.11L76.63,55.92L79.65,53.67L80.08,53.18L82.66,49.2L83.09,48.37L86.54,42.4L86.97,42.29L87.83,43.04L88.26,43.84L90.41,50.78L90.84,52.4L93.42,58.95L93.86,59.42L96.01,60.18L96.44,60.14L103.76,58.2L104.19,58.01L107.2,55.74L107.63,55.23L110.22,50.74L110.65,49.69L115.38,37.58L115.81,38L117.1,43.06L117.53,45.79L120.55,61.67L120.98,62.52L122.7,63.82L123.13,63.86L128.3,64.45L128.73,64.68L131.74,67.45L132.17,68.04L138.2,77.13L138.63,76.97L139.92,74.84L140.35,73.65L144.66,62.21L145.09,61.8L147.24,61.22L147.67,61.29L151.55,62.82L151.98,63.09L155.85,66.79L156.28,67.42L159.73,74.43L160.16,75.41L162.31,78.51L162.74,78.44L164.03,76.19L164.46,74.83L168.77,60.88L169.2,60.39L171.35,59.63L171.78,59.65L183.84,62L184.27,62.23L187.28,65.03L187.71,65.72L190.29,72.11L190.72,73.62L194.17,84.74L194.6,84.35L195.46,80.97L195.89,78.09L199.33,55.96L199.77,55.09L201.49,54.06L201.92,54.1L205.36,53.91L205.79,53.75L208.81,51.79L209.24,51.34L214.4,45.78L214.83,45.71L216.13,46.38L216.56,46.93L222.15,55.57L222.58,55.81L225.17,56.07L225.6,55.98L228.61,54.42L229.04,54.09L232.05,50.57L232.49,49.92L236.79,44.12L237.22,44.07L238.51,45.25L238.94,46.1L244.11,57.38L244.54,57.7L246.69,58.03L247.12,57.96L250.57,56.37L251,56.07L254.01,53.16L254.44,52.56L257.46,46.93L257.89,45.95L260.47,41.94L260.9,42.09L262.19,44.34L262.62,45.68L266.5,58.13L266.93,58.72L269.08,59.86L269.51,59.89L274.25,58.98L274.68,58.88L278.98,57.03L279.41,56.64L282,53.49L282.43,52.72L285.01,46.35L285.44,44.97L288.02,38.01L288.45,37.88L289.32,39.41L289.75,41.09L294.05,61.71L294.48,62.36L296.2,63.28L296.63,63.28L301.37,63.66L301.8,63.86L304.81,66.39L305.24,66.94L308.26,72.4L308.69,73.36L311.7,78.37L312.13,78.27L313.42,75.84L313.86,74.4L317.73,61.31L318.16,60.71L319.88,59.72L320.31,59.69L325.48,60.73L325.91,60.84L331.94,62.99L332.37,63.31L334.95,66.41L335.38,67.15L337.96,73.84L338.4,75.31L340.98,82.97L341.41,83.14L342.27,81.51L342.7,79.65L347.01,56.74L347.44,56.17L349.16,55.5L349.59,55.49L353.03,55.07L353.46,54.87L356.48,52.57L356.91,52.12L359.92,47.59L360.35,46.87L362.94,43.99L363.37,44.02L364.66,45.52L365.09,46.5L369.82,57.26L370.25,57.58L372.41,57.99L372.84,57.93L376.28,56.48L376.71,56.15L379.73,53.01L380.16,52.39L385.75,42.76L386.18,42.8L387.48,44.64L387.91,45.8L392.21,57.89L392.64,58.36L394.79,59.21L395.23,59.2L399.1,58.11L399.53,57.92L403.41,55.4L403.84,54.95L406.42,50.95L406.85,50.07L411.59,39.42L412.02,39.71L413.31,43.6L413.74,45.75L417.18,60.97L417.61,61.71L419.33,62.93L419.77,63L424.93,63.7L425.36,63.95L428.38,66.89L428.81,67.49L431.82,73.37L432.25,74.35L434.83,78.31L435.26,78.19L436.56,75.85L436.99,74.46L440,63.64" style="vector-effect: non-scaling-stroke; fill: none; stroke: rgb(204, 102, 119); stroke-opacity: 1; stroke-width: 2px; opacity: 1;"/></g><g class="points"/><g class="text"/></g><g class="trace scatter traceab182f" style="stroke-miterlimit: 2; opacity: 1;"><g class="fills"/><g class="errorbars"/><g class="lines"><path class="js-line" d="M0,58.93L3.87,59.46L4.31,59.44L10.33,58.51L10.76,58.37L14.21,56.35L14.64,55.93L16.79,53.02L17.22,52.19L19.8,45.14L20.23,43.65L22.82,37.4L23.25,37.75L24.11,40.41L24.54,42.69L27.98,61.69L28.41,62.62L30.14,64.05L30.57,64.12L35.3,64.5L35.73,64.72L38.75,67.42L39.18,68.02L45.21,77.2L45.64,76.99L46.93,74.67L47.36,73.39L51.23,62.36L51.66,61.84L53.82,60.84L54.25,60.86L58.12,61.94L58.55,62.12L62.43,64.83L62.86,65.32L65.44,69.44L65.87,70.37L70.18,80L70.61,79.92L71.47,78.44L71.9,77.01L76.2,59.72L76.63,59.11L78.36,58.24L78.79,58.23L85.24,57.95L85.68,57.81L88.69,55.88L89.12,55.45L91.7,51.45L92.13,50.49L96.87,38.42L97.3,38.58L98.16,40.61L98.59,42.45L102.47,61.26L102.9,62L104.62,63.08L105.05,63.1L110.22,63.58L110.65,63.75L113.23,65.76L113.66,66.24L116.67,71.44L117.1,72.42L120.55,78.66L120.98,78.54L122.27,76.05L122.7,74.56L126.58,61.18L127.01,60.59L129.16,59.59L129.59,59.59L137.34,61.04L137.77,61.17L141.21,62.75L141.64,63.1L144.23,66.34L144.66,67.15L147.24,74.28L147.67,75.87L150.25,83.78L150.68,83.77L151.55,81.49L151.98,79.21L155.85,56.48L156.28,55.73L158,54.84L158.43,54.85L162.31,54.58L162.74,54.37L165.32,52.33L165.75,51.84L171.78,44.6L172.21,44.73L173.5,46.31L173.93,47.17L178.67,56.57L179.1,56.89L181.25,57.31L181.68,57.24L185.56,55.31L185.99,54.95L189,51.43L189.43,50.76L194.6,43.26L195.03,43.43L196.32,45.53L196.75,46.69L201.06,57.68L201.49,58.09L203.64,58.76L204.07,58.69L207.51,57.51L207.95,57.29L211.39,54.6L211.82,54.1L214.4,49.81L214.83,48.88L218.71,40.95L219.14,40.97L220,42.1L220.43,43.26L225.17,59.73L225.6,60.21L227.32,60.87L227.75,60.85L238.51,60.33L238.94,60.38L244.11,61.68L244.54,61.92L247.12,64.25L247.55,64.85L249.71,69.46L250.14,70.79L254.44,86.6L254.87,86.09L255.73,81.97L256.16,78.49L259.18,55.19L259.61,54.01L260.9,52.57L261.33,52.51L266.93,52.49L267.36,52.27L271.66,49.07L272.09,48.73L274.68,47.52L275.11,47.55L277.26,48.87L277.69,49.34L282.43,54.06L282.86,54.24L285.44,54.35L285.87,54.22L288.88,52.64L289.32,52.29L295.77,46.9L296.2,46.92L297.93,47.92L298.36,48.4L303.52,54.69L303.95,54.88L306.54,55L306.97,54.88L309.98,53.13L310.41,52.78L317.73,46.16L318.16,46.31L319.88,48.1L320.31,48.81L324.62,55.13L325.05,55.41L327.2,55.88L327.63,55.81L330.65,54.39L331.08,54.07L334.52,50.45L334.95,49.84L338.83,45.31L339.26,45.19L340.55,45.76L340.98,46.31L343.56,51.74L343.99,52.67L346.58,56.29L347.01,56.54L349.16,56.82L349.59,56.74L352.6,55.31L353.03,55L356.48,51.26L356.91,50.62L361.64,43.94L362.07,43.93L363.37,45.24L363.8,46.09L368.96,57.48L369.39,57.75L371.55,58.08L371.98,58L375.42,56.47L375.85,56.2L378.86,53.24L379.3,52.63L382.74,46.02L383.17,45.09L385.32,42.02L385.75,42.06L386.61,43.14L387.05,44.17L391.78,58.62L392.21,59.09L394.36,59.89L394.79,59.85L399.96,58.56L400.39,58.41L403.84,56.43L404.27,56.04L406.85,52.39L407.28,51.53L410.29,43.08L410.72,41.71L412.45,38.13L412.88,38.23L413.74,40.22L414.17,42.1L418.04,61.58L418.47,62.32L420.2,63.43L420.63,63.48L425.36,63.95L425.79,64.16L428.38,66.26L428.81,66.77L431.82,71.92L432.25,72.84L435.26,77.93L435.69,77.94L436.56,77.02L436.99,76.07L440,65.22" style="vector-effect: non-scaling-stroke; fill: none; stroke: rgb(0, 0, 0); stroke-opacity: 1; stroke-width: 1px; opacity: 1; stroke-dasharray: 9px, 9px;"/></g><g class="points"/><g class="text"/></g><g class="trace scatter traceada802" style="stroke-miterlimit: 2; opacity: 1;"><g class="fills"/><g class="errorbars"/><g class="lines"><path class="js-line" d="M0,38.67L3.44,43.1L3.87,43.54L7.75,46.29L8.18,46.35L9.47,45.88L9.9,45.42L11.19,42.69L11.62,41.2L13.35,31.75L13.78,28.64L16.36,14.34L16.79,14.03L17.65,15.09L18.08,16.18L23.68,31.75L24.11,32.58L27.98,38.4L28.41,38.87L31,40.72L31.43,40.81L33.15,40.21L33.58,39.73L35.3,35.96L35.73,34.53L40.04,18.82L40.47,18.58L41.33,19.06L41.76,19.69L45.64,28.71L46.07,29.69L50.37,37.68L50.8,38.32L55.97,44.49L56.4,44.82L58.98,45.74L59.41,45.59L60.7,44.16L61.14,43.28L62.86,36.82L63.29,34.36L66.73,14.73L67.16,14.32L68.02,15.25L68.45,16.3L74.48,32.41L74.91,33.19L78.79,38.55L79.22,38.93L81.8,40.13L82.23,40.05L83.95,38.54L84.38,37.78L86.11,32.81L86.54,31.14L89.98,19.27L90.41,18.87L91.27,19.01L91.7,19.49L93.86,24L94.29,25.07L99.45,36.02L99.88,36.74L105.05,43.81L105.48,44.27L108.92,46.66L109.35,46.73L111.08,45.99L111.51,45.48L112.8,42.71L113.23,41.23L114.95,31.94L115.38,28.86L117.96,14.14L118.4,13.71L119.26,14.66L119.69,15.76L125.28,31.51L125.71,32.34L129.59,38.01L130.02,38.43L132.6,39.88L133.03,39.87L134.76,38.69L135.19,38.09L136.91,34.03L137.34,32.6L141.21,20.06L141.64,19.73L142.94,20.39L143.37,21L147.24,29.34L147.67,30.25L151.98,37.79L152.41,38.4L155.42,41.37L155.85,41.62L157.57,41.85L158,41.66L159.3,40.19L159.73,39.35L161.88,32.14L162.31,30.16L165.32,18.75L165.75,18.21L166.61,18.29L167.05,18.83L169.63,24.69L170.06,25.78L174.79,35.79L175.23,36.54L179.96,43.21L180.39,43.68L185.56,48.28L185.99,48.54L189,49.52L189.43,49.34L190.72,47.93L191.15,47.02L192.45,42.22L192.88,39.76L197.18,11.32L197.61,11.73L199.33,17.65L199.77,19.36L202.78,28.27L203.21,29.14L206.65,34.16L207.08,34.56L209.67,35.91L210.1,35.92L211.82,35L212.25,34.49L214.4,30.46L214.83,29.45L217.85,23.57L218.28,23.24L219.57,23.22L220,23.5L222.58,26.89L223.01,27.58L229.47,36.7L229.9,37.06L232.05,37.93L232.49,37.86L234.21,36.48L234.64,35.82L236.79,30.46L237.22,29.08L240.23,21.39L240.67,21.08L241.96,21.48L242.39,21.97L244.97,26.73L245.4,27.63L250.57,36.79L251,37.36L254.01,40.25L254.44,40.45L256.16,40.52L256.59,40.28L257.89,38.6L258.32,37.66L260.47,30L260.9,28.03L263.48,19.1L263.91,18.68L264.77,18.88L265.21,19.39L267.79,24.93L268.22,25.96L273.39,36.42L273.82,37.14L278.98,44.16L279.41,44.57L282.43,46.37L282.86,46.37L284.58,45.32L285.01,44.66L286.3,41.19L286.73,39.42L289.32,22.89L289.75,20.1L291.47,14.42L291.9,14.54L293.19,17.24L293.62,18.58L297.93,30.53L298.36,31.42L302.66,38.45L303.09,38.96L306.11,41.15L306.54,41.19L308.26,40.16L308.69,39.56L310.41,35.25L310.84,33.63L314.72,18.7L315.15,18.3L316.01,18.54L316.44,19.08L318.59,24.06L319.02,25.17L324.19,36.2L324.62,36.93L329.35,43.38L329.78,43.84L334.52,47.51L334.95,47.63L336.67,47.43L337.1,47.08L338.4,44.91L338.83,43.69L340.55,35.24L340.98,32.22L343.99,13.32L344.42,12.96L345.28,14.14L345.71,15.36L350.88,30.42L351.31,31.25L354.76,36.13L355.19,36.53L357.77,37.88L358.2,37.88L359.92,36.86L360.35,36.29L362.07,32.54L362.5,31.25L366.38,20.97L366.81,20.8L368.1,21.61L368.53,22.21L378.43,38.75L378.86,39.12L381.02,39.94L381.45,39.84L382.74,38.77L383.17,38.1L384.89,33.59L385.32,32.02L388.77,20.09L389.2,19.61L390.06,19.57L390.49,19.96L392.64,23.98L393.07,24.95L399.1,36.73L399.53,37.39L403.84,42.69L404.27,43.04L406.42,43.8L406.85,43.7L408.14,42.53L408.57,41.78L410.29,36.24L410.72,34.14L414.6,15.61L415.03,15.52L416.32,17.71L416.75,18.91L422.35,33.48L422.78,34.31L426.65,39.88L427.08,40.31L429.67,41.56L430.1,41.5L431.39,40.52L431.82,39.88L433.54,35.39L433.97,33.78L437.85,18.99L438.28,18.57L439.14,18.73L439.57,19.23L440,19.94" style="vector-effect: non-scaling-stroke; fill: none; stroke: rgb(221, 204, 119); stroke-opacity: 1; stroke-width: 2px; opacity: 1;"/></g><g class="points"/><g class="text"/></g><g class="trace scatter trace31f282" style="stroke-miterlimit: 2; opacity: 1;"><g class="fills"/><g class="errorbars"/><g class="lines"><path class="js-line" d="M0,20L5.17,32.41L5.6,33.26L10.76,41.5L11.19,42.05L15.5,46.17L15.93,46.42L18.08,46.66L18.51,46.38L19.8,44.47L20.23,43.32L21.96,35.43L22.39,32.57L25.4,14.12L25.83,13.61L26.69,14.41L27.12,15.49L33.15,32.18L33.58,32.96L37.46,38.29L37.89,38.66L40.04,39.57L40.47,39.5L42.19,37.95L42.62,37.19L44.77,30.76L45.21,29.08L48.22,19.83L48.65,19.55L49.94,20.36L50.37,21.04L60.27,39.76L60.7,40.26L64.15,43.23L64.58,43.34L66.3,42.84L66.73,42.38L68.45,38.43L68.88,36.85L73.62,16.38L74.05,16.47L75.34,18.8L75.77,19.97L81.37,33.76L81.8,34.57L86.54,41.73L86.97,42.25L90.41,45.19L90.84,45.37L92.56,45.15L92.99,44.78L94.29,42.49L94.72,41.25L96.44,33.04L96.87,30.24L99.88,14.88L100.31,14.7L101.17,15.86L101.6,16.95L107.63,32.91L108.06,33.72L112.37,39.87L112.8,40.29L115.38,41.61L115.81,41.56L117.1,40.66L117.53,40.05L119.26,35.55L119.69,33.89L123.56,18.35L123.99,17.98L124.85,18.36L125.28,19L128.73,27.28L129.16,28.3L134.32,38.2L134.76,38.86L139.49,44.94L139.92,45.36L144.23,48.34L144.66,48.42L146.38,47.69L146.81,47.13L148.1,44L148.53,42.29L150.25,31.35L150.68,27.74L153.27,12.3L153.7,12.25L154.99,15.39L155.42,16.98L159.3,28.74L159.73,29.63L163.6,35.57L164.03,35.99L166.18,37.28L166.61,37.34L168.34,36.51L168.77,36.03L170.92,31.76L171.35,30.56L174.79,22.15L175.23,21.78L176.52,22L176.95,22.41L179.53,26.67L179.96,27.5L185.56,36.49L185.99,36.99L188.57,38.94L189,39.04L190.72,38.5L191.15,38.08L192.88,34.84L193.31,33.63L198.04,20.07L198.47,20.04L199.77,21.27L200.2,22.01L209.24,38.79L209.67,39.34L212.68,41.97L213.11,42.12L214.83,41.75L215.26,41.33L216.99,37.84L217.42,36.42L222.15,17.57L222.58,17.48L223.87,19.17L224.31,20.15L231.19,35.91L231.62,36.66L237.22,44.46L237.65,44.93L243.68,50.23L244.11,50.51L247.98,52.27L248.41,52.3L250.14,51.55L250.57,51.03L251.86,47.92L252.29,46.18L254.01,33.92L254.44,29.58L257.03,9.47L257.46,9.37L258.32,11.59L258.75,13.39L262.19,25.72L262.62,26.66L265.64,31.19L266.07,31.64L269.08,33.51L269.51,33.57L271.66,32.96L272.09,32.66L274.68,29.56L275.11,28.95L278.55,25.15L278.98,25.03L280.7,25.52L281.14,25.82L284.58,29.54L285.01,30.03L289.32,33.9L289.75,34.1L291.9,34.21L292.33,34.02L294.48,31.94L294.91,31.28L299.65,24.42L300.08,24.28L301.8,24.86L302.23,25.25L306.11,30.22L306.54,30.79L310.41,34.7L310.84,34.95L312.99,35.31L313.42,35.18L315.15,33.77L315.58,33.17L321.17,23.58L321.6,23.47L323.33,24.3L323.76,24.77L328.92,32.31L329.35,32.87L332.8,36.17L333.23,36.36L335.38,36.26L335.81,35.96L337.53,33.72L337.96,32.88L343.13,22.26L343.56,22.22L344.85,23.1L345.28,23.65L350.45,32.4L350.88,33.09L354.76,37.6L355.19,37.87L357.34,38.23L357.77,38.03L359.49,35.99L359.92,35.15L362.5,27.49L362.94,26.06L365.09,21.12L365.52,20.81L366.81,21.37L367.24,21.91L370.68,28.53L371.12,29.39L375.85,37.34L376.28,37.87L379.3,40.51L379.73,40.66L381.45,40.33L381.88,39.93L383.6,36.6L384.03,35.29L388.77,18.8L389.2,18.69L390.49,20.04L390.92,20.89L399.53,38.63L399.96,39.28L404.7,44.79L405.13,45.11L407.28,45.87L407.71,45.79L409,44.69L409.43,43.96L411.15,38.26L411.59,35.99L415.46,14.54L415.89,14.36L416.75,15.57L417.18,16.69L422.78,31.97L423.21,32.8L427.51,39.01L427.95,39.42L430.53,40.57L430.96,40.47L432.68,38.7L433.11,37.85L435.26,30.6L435.69,28.72L438.28,19.37L438.71,18.83L439.57,18.79L440,19.21" style="vector-effect: non-scaling-stroke; fill: none; stroke: rgb(0, 0, 0); stroke-opacity: 1; stroke-width: 1px; opacity: 1; stroke-dasharray: 9px, 9px;"/></g><g class="points"/><g class="text"/></g></g></g><g class="overplot"/><path class="xlines-above crisp" d="M79,357.1666666666667H520" style="fill: none; stroke-width: 1px; stroke: rgb(36, 36, 36); stroke-opacity: 1;"/><path class="ylines-above crisp" d="M79.5,263.3333333333333V356.6666666666667" style="fill: none; stroke-width: 1px; stroke: rgb(36, 36, 36); stroke-opacity: 1;"/><g class="overlines-above"/><g class="xaxislayer-above"><path class="x2tick ticks crisp" d="M0,357.6666666666667v5" transform="translate(80,0)" style="stroke: rgb(68, 68, 68); stroke-opacity: 1; stroke-width: 1px;"/><path class="x2tick ticks crisp" d="M0,357.6666666666667v5" transform="translate(190.22,0)" style="stroke: rgb(68, 68, 68); stroke-opacity: 1; stroke-width: 1px;"/><path class="x2tick ticks crisp" d="M0,357.6666666666667v5" transform="translate(300.43,0)" style="stroke: rgb(68, 68, 68); stroke-opacity: 1; stroke-width: 1px;"/><path class="x2tick ticks crisp" d="M0,357.6666666666667v5" transform="translate(410.65,0)" style="stroke: rgb(68, 68, 68); stroke-opacity: 1; stroke-width: 1px;"/></g><g class="yaxislayer-above"><path class="y2tick ticks crisp" d="M79,0h-5" transform="translate(0,350.00333333333333)" style="stroke: rgb(68, 68, 68); stroke-opacity: 1; stroke-width: 1px;"/><path class="y2tick ticks crisp" d="M79,0h-5" transform="translate(0,323.3333333333333)" style="stroke: rgb(68, 68, 68); stroke-opacity: 1; stroke-width: 1px;"/><path class="y2tick ticks crisp" d="M79,0h-5" transform="translate(0,296.6633333333333)" style="stroke: rgb(68, 68, 68); stroke-opacity: 1; stroke-width: 1px;"/><path class="y2tick ticks crisp" d="M79,0h-5" transform="translate(0,270.00333333333333)" style="stroke: rgb(68, 68, 68); stroke-opacity: 1; stroke-width: 1px;"/><g class="y2tick"><text text-anchor="end" x="71.6" y="4.199999999999999" transform="translate(0,350.00333333333333)" style="font-family: 'Open Sans', verdana, arial, sans-serif; font-size: 12px; fill: rgb(36, 36, 36); fill-opacity: 1; white-space: pre; opacity: 1;">−20</text></g><g class="y2tick"><text text-anchor="end" x="71.6" y="4.199999999999999" style="font-family: 'Open Sans', verdana, arial, sans-serif; font-size: 12px; fill: rgb(36, 36, 36); fill-opacity: 1; white-space: pre; opacity: 1;" transform="translate(0,323.3333333333333)">0</text></g><g class="y2tick"><text text-anchor="end" x="71.6" y="4.199999999999999" style="font-family: 'Open Sans', verdana, arial, sans-serif; font-size: 12px; fill: rgb(36, 36, 36); fill-opacity: 1; white-space: pre; opacity: 1;" transform="translate(0,296.6633333333333)">20</text></g><g class="y2tick"><text text-anchor="end" x="71.6" y="4.199999999999999" style="font-family: 'Open Sans', verdana, arial, sans-serif; font-size: 12px; fill: rgb(36, 36, 36); fill-opacity: 1; white-space: pre; opacity: 1;" transform="translate(0,270.00333333333333)">40</text></g></g><g class="overaxes-above"/></g><g class="subplot x3y3"><g class="layer-subplot"><g class="shapelayer"/><g class="imagelayer"/></g><g class="gridlayer"><g class="x3"/><g class="y3"/></g><g class="zerolinelayer"/><path class="xlines-below"/><path class="ylines-below"/><g class="overlines-below"/><g class="xaxislayer-below"/><g class="yaxislayer-below"/><g class="overaxes-below"/><g class="plot" transform="translate(80,426.6666666666667)" clip-path="url(#clip4936c2x3y3plot)"><g class="scatterlayer mlayer"><g class="trace scatter trace02ceca" style="stroke-miterlimit: 2; opacity: 1;"><g class="fills"/><g class="errorbars"/><g class="lines"><path class="js-line" d="M0,6.21L6.46,36.96L6.89,37.75L7.75,38.24L8.18,37.76L9.47,32.58L9.9,29.34L11.62,5.93L12.05,-2.33L16.36,-70.7L18.51,-52.38L18.94,-47.96L20.67,-38.32L23.25,-51.92L23.68,-55.09L24.54,-58.42L26.26,-46.26L26.69,-39.9L31,23.42L31.43,26.77L33.15,34.26L33.58,34.39L34.44,32.05L34.87,29.61L37.03,7.97L37.46,3.21L40.04,-10.77L40.47,-9.85L42.19,-1.05L42.62,1.32L43.91,5.4L44.34,5.38L45.21,3.45L45.64,1.89L47.79,-4.63L48.22,-4.52L48.65,-3.79L49.94,2.11L50.37,4.83L55.54,36.06L55.97,37.72L58.12,43.53L58.55,43.69L59.41,42.55L59.84,41.26L61.14,31.95L61.57,27.04L66.73,-42.48L68.45,-33.14L68.88,-30.55L72.76,-24.4L73.19,-22.1L74.91,-5.48L75.34,-0.16L78.79,34.4L79.22,36.84L80.94,41.8L81.37,41.76L82.23,39.55L82.66,37.47L84.38,22.92L84.81,17.7L89.98,-39.26L91.7,-32.87L92.13,-29.73L95.15,-14.57L95.58,-15.45L96.01,-17.36L99.45,-38.95L100.74,-31.28L101.17,-26.81L105.05,11.8L105.48,14.14L107.2,19.55L107.63,20.08L108.49,19.46L108.92,18.42L110.22,11.53L110.65,7.62L117.1,-118.92L119.26,-85.52L119.69,-73.3L123.13,-3.06L123.56,1.16L128.3,39.91L128.73,41.9L130.45,46.3L130.88,46.58L131.74,45.82L132.17,44.61L133.46,38.46L133.89,35.49L136.05,11.72L136.48,5.53L141.21,-47.7L142.94,-40.67L143.37,-37.46L148.1,-7.34L148.53,-8.44L152.84,-52.49L154.13,-44.95L154.56,-40.14L158,-14.15L158.43,-14.39L158.86,-15.41L162.31,-45.02L162.74,-49.89L164.89,-62.32L166.61,-52.24L167.05,-47.13L171.35,-6.61L171.78,-6.45L175.23,-11.05L175.66,-10.33L176.09,-9.02L178.24,1.63L178.67,4.14L182.11,20.93L182.54,22.07L183.84,24.33L184.27,24.3L185.56,21.83L185.99,20.33L187.28,11.79L187.71,7.16L194.6,-147.27L196.75,-101.14L197.18,-82.98L200.63,34.12L201.06,42.43L203.21,67.73L203.64,70.01L204.93,72.38L205.36,72.15L207.51,67.61L207.95,66.16L210.53,53.86L210.96,51.29L215.26,28.61L215.69,27.92L216.56,28L216.99,28.72L220,36.07L220.43,36.02L221.72,36.3L222.15,36.94L223.44,40.77L223.87,42.62L226.89,53.16L227.32,53.63L228.18,53.88L228.61,53.6L229.47,52.28L229.9,51.08L231.62,42.45L232.05,39.22L234.21,17.35L234.64,11.66L240.67,-53.82L242.39,-46.89L242.82,-43.88L248.41,-8.29L248.85,-8.11L249.71,-9.91L250.14,-12.31L256.16,-130.8L257.89,-98.06L258.32,-83.24L261.33,5.39L261.76,11.1L263.48,22.72L263.91,24.54L268.22,43.08L268.65,43.37L269.51,42.74L269.94,41.96L271.23,37.54L271.66,35.2L275.11,9.02L275.54,5.74L278.98,-9.42L279.41,-9.24L280.7,-6.7L281.14,-5.28L283.72,8.1L284.15,10.63L286.3,18.88L286.73,18.62L287.59,15.13L288.02,12.08L291.04,-7.66L291.47,-6.71L294.91,6.92L295.34,6.92L296.63,4.56L297.06,3.28L299.65,-2.38L300.08,-2.51L301.37,-1.87L301.8,-1.48L304.38,0.48L304.81,0.15L306.11,-2.99L306.54,-4.85L311.7,-65.91L312.13,-71.49L313.86,-81.39L316.01,-59.63L316.44,-52.25L319.88,-1.79L320.31,1.78L322.9,14.44L323.33,16.31L325.91,24.95L326.34,25.9L328.49,29.3L328.92,29.08L330.65,25.86L331.08,24.31L332.8,13.17L333.23,9.06L340.98,-124.63L343.56,-83.52L343.99,-69.7L347.87,38.32L348.3,45.68L350.88,73.47L351.31,76.02L353.46,83.24L353.89,83.83L355.62,85.1L356.05,85.04L357.77,83.08L358.2,82.44L360.78,77.16L361.21,76.3L362.94,74.72L363.37,74.76L364.66,75.72L365.09,76.39L367.24,77.77L367.67,78.03L371.55,82.04L371.98,82.53L375.42,84.61L375.85,84.85L379.73,86.32L380.16,86.29L381.88,85.82L382.31,85.42L387.05,82.37L387.48,82.5L395.66,85.29L396.09,85.36L399.53,85.49L399.96,85.35L402.54,84.48L402.97,83.98L405.56,79.99L405.99,78.92L408.57,71.04L409,69.17L412.02,59.84L412.45,59.65L413.74,60.97L414.17,61.76L416.75,68.58L417.18,70.15L420.2,78.88L420.63,79.69L422.78,82.12L423.21,82.42L429.24,86.29L429.67,86.3L431.82,85.47L432.25,84.98L436.13,80.04L436.56,80.21L440,82.8" style="vector-effect: non-scaling-stroke; fill: none; stroke: rgb(136, 136, 136); stroke-opacity: 1; stroke-width: 2px; opacity: 1;"/></g><g class="points"/><g class="text"/></g></g></g><g class="overplot"/><path class="xlines-above crisp" d="M79,520.5H520" style="fill: none; stroke-width: 1px; stroke: rgb(36, 36, 36); stroke-opacity: 1;"/><path class="ylines-above crisp" d="M79.5,426.6666666666667V520" style="fill: none; stroke-width: 1px; stroke: rgb(36, 36, 36); stroke-opacity: 1;"/><g class="overlines-above"/><g class="xaxislayer-above"><path class="x3tick ticks crisp" d="M0,521v5" transform="translate(80,0)" style="stroke: rgb(68, 68, 68); stroke-opacity: 1; stroke-width: 1px;"/><path class="x3tick ticks crisp" d="M0,521v5" transform="translate(190.22,0)" style="stroke: rgb(68, 68, 68); stroke-opacity: 1; stroke-width: 1px;"/><path class="x3tick ticks crisp" d="M0,521v5" transform="translate(300.43,0)" style="stroke: rgb(68, 68, 68); stroke-opacity: 1; stroke-width: 1px;"/><path class="x3tick ticks crisp" d="M0,521v5" transform="translate(410.65,0)" style="stroke: rgb(68, 68, 68); stroke-opacity: 1; stroke-width: 1px;"/></g><g class="yaxislayer-above"><path class="y3tick ticks crisp" d="M79,0h-5" transform="translate(0,519.9966666666667)" style="stroke: rgb(68, 68, 68); stroke-opacity: 1; stroke-width: 1px;"/><path class="y3tick ticks crisp" d="M79,0h-5" transform="translate(0,488.88666666666666)" style="stroke: rgb(68, 68, 68); stroke-opacity: 1; stroke-width: 1px;"/><path class="y3tick ticks crisp" d="M79,0h-5" transform="translate(0,457.7766666666667)" style="stroke: rgb(68, 68, 68); stroke-opacity: 1; stroke-width: 1px;"/><path class="y3tick ticks crisp" d="M79,0h-5" transform="translate(0,426.6666666666667)" style="stroke: rgb(68, 68, 68); stroke-opacity: 1; stroke-width: 1px;"/><g class="y3tick"><text text-anchor="end" x="71.6" y="4.199999999999999" transform="translate(0,519.9966666666667)" style="font-family: 'Open Sans', verdana, arial, sans-serif; font-size: 12px; fill: rgb(36, 36, 36); fill-opacity: 1; white-space: pre; opacity: 1;">0</text></g><g class="y3tick"><text text-anchor="end" x="71.6" y="4.199999999999999" style="font-family: 'Open Sans', verdana, arial, sans-serif; font-size: 12px; fill: rgb(36, 36, 36); fill-opacity: 1; white-space: pre; opacity: 1;" transform="translate(0,488.88666666666666)">5</text></g><g class="y3tick"><text text-anchor="end" x="71.6" y="4.199999999999999" style="font-family: 'Open Sans', verdana, arial, sans-serif; font-size: 12px; fill: rgb(36, 36, 36); fill-opacity: 1; white-space: pre; opacity: 1;" transform="translate(0,457.7766666666667)">10</text></g><g class="y3tick"><text text-anchor="end" x="71.6" y="4.199999999999999" style="font-family: 'Open Sans', verdana, arial, sans-serif; font-size: 12px; fill: rgb(36, 36, 36); fill-opacity: 1; white-space: pre; opacity: 1;" transform="translate(0,426.6666666666667)">15</text></g></g><g class="overaxes-above"/></g></g><g class="polarlayer"/><g class="smithlayer"/><g class="ternarylayer"/><g class="geolayer"/><g class="funnelarealayer"/><g class="pielayer"/><g class="iciclelayer"/><g class="treemaplayer"/><g class="sunburstlayer"/><g class="glimages"/><defs id="topdefs-4936c2"><g class="clips"/><clipPath id="legend4936c2"><rect width="357" height="48" x="0" y="0"/></clipPath></defs><g class="layer-above"><g class="imagelayer"/><g class="shapelayer"/></g><g class="infolayer"><g class="legend" pointer-events="all" transform="translate(158.60000000000002,30.999999999999986)"><rect class="bg" shape-rendering="crispEdges" width="357" height="48" x="0" y="0" style="stroke: rgb(68, 68, 68); stroke-opacity: 1; fill: rgb(255, 255, 255); fill-opacity: 1; stroke-width: 0px;"/><g class="scrollbox" transform="" clip-path="url(#legend4936c2)"><g class="groups"><g class="traces" transform="translate(0,14.5)" style="opacity: 1;"><text class="legendtext" text-anchor="start" x="40" y="4.680000000000001" style="font-family: 'Open Sans', verdana, arial, sans-serif; font-size: 12px; fill: rgb(36, 36, 36); fill-opacity: 1; white-space: pre;">measured</text><g class="layers" style="opacity: 1;"><g class="legendfill"/><g class="legendlines"><path class="js-line" d="M5,0h30" style="fill: none; stroke: rgb(136, 34, 85); stroke-opacity: 1; stroke-dasharray: 3px, 3px; stroke-width: 1px;"/></g><g class="legendsymbols"><g class="legendpoints"/></g></g><rect class="legendtoggle" x="0" y="-9.5" width="99.15625" height="19" style="fill: rgb(0, 0, 0); fill-opacity: 0;"/></g><g class="traces" transform="translate(101.65625,14.5)" style="opacity: 1;"><text class="legendtext" text-anchor="start" x="40" y="4.680000000000001" style="font-family: 'Open Sans', verdana, arial, sans-serif; font-size: 12px; fill: rgb(36, 36, 36); fill-opacity: 1; white-space: pre;">x+y+z</text><g class="layers" style="opacity: 1;"><g class="legendfill"/><g class="legendlines"><path class="js-line" d="M5,0h30" style="fill: none; stroke: rgb(68, 170, 153); stroke-opacity: 1; stroke-width: 2px;"/></g><g class="legendsymbols"><g class="legendpoints"/></g></g><rect class="legendtoggle" x="0" y="-9.5" width="74.5625" height="19" style="fill: rgb(0, 0, 0); fill-opacity: 0;"/></g><g class="traces" transform="translate(203.3125,14.5)" style="opacity: 1;"><text class="legendtext" text-anchor="start" x="40" y="4.680000000000001" style="font-family: 'Open Sans', verdana, arial, sans-serif; font-size: 12px; fill: rgb(36, 36, 36); fill-opacity: 1; white-space: pre;">true</text><g class="layers" style="opacity: 1;"><g class="legendfill"/><g class="legendlines"><path class="js-line" d="M5,0h30" style="fill: none; stroke: rgb(0, 0, 0); stroke-opacity: 1; stroke-dasharray: 9px, 9px; stroke-width: 1px;"/></g><g class="legendsymbols"><g class="legendpoints"/></g></g><rect class="legendtoggle" x="0" y="-9.5" width="66" height="19" style="fill: rgb(0, 0, 0); fill-opacity: 0;"/></g><g class="traces" transform="translate(304.96875,14.5)" style="opacity: 1;"><text class="legendtext" text-anchor="start" x="40" y="4.680000000000001" style="font-family: 'Open Sans', verdana, arial, sans-serif; font-size: 12px; fill: rgb(36, 36, 36); fill-opacity: 1; white-space: pre;">x</text><g class="layers" style="opacity: 1;"><g class="legendfill"/><g class="legendlines"><path class="js-line" d="M5,0h30" style="fill: none; stroke: rgb(136, 204, 238); stroke-opacity: 1; stroke-width: 2px;"/></g><g class="legendsymbols"><g class="legendpoints"/></g></g><rect class="legendtoggle" x="0" y="-9.5" width="49.5" height="19" style="fill: rgb(0, 0, 0); fill-opacity: 0;"/></g><g class="traces" transform="translate(0,33.5)" style="opacity: 1;"><text class="legendtext" text-anchor="start" x="40" y="4.680000000000001" style="font-family: 'Open Sans', verdana, arial, sans-serif; font-size: 12px; fill: rgb(36, 36, 36); fill-opacity: 1; white-space: pre;">y</text><g class="layers" style="opacity: 1;"><g class="legendfill"/><g class="legendlines"><path class="js-line" d="M5,0h30" style="fill: none; stroke: rgb(204, 102, 119); stroke-opacity: 1; stroke-width: 2px;"/></g><g class="legendsymbols"><g class="legendpoints"/></g></g><rect class="legendtoggle" x="0" y="-9.5" width="49.5" height="19" style="fill: rgb(0, 0, 0); fill-opacity: 0;"/></g><g class="traces" transform="translate(101.65625,33.5)" style="opacity: 1;"><text class="legendtext" text-anchor="start" x="40" y="4.680000000000001" style="font-family: 'Open Sans', verdana, arial, sans-serif; font-size: 12px; fill: rgb(36, 36, 36); fill-opacity: 1; white-space: pre;">z</text><g class="layers" style="opacity: 1;"><g class="legendfill"/><g class="legendlines"><path class="js-line" d="M5,0h30" style="fill: none; stroke: rgb(221, 204, 119); stroke-opacity: 1; stroke-width: 2px;"/></g><g class="legendsymbols"><g class="legendpoints"/></g></g><rect class="legendtoggle" x="0" y="-9.5" width="48.5" height="19" style="fill: rgb(0, 0, 0); fill-opacity: 0;"/></g><g class="traces" transform="translate(203.3125,33.5)" style="opacity: 1;"><text class="legendtext" text-anchor="start" x="40" y="4.680000000000001" style="font-family: 'Open Sans', verdana, arial, sans-serif; font-size: 12px; fill: rgb(36, 36, 36); fill-opacity: 1; white-space: pre;">distance</text><g class="layers" style="opacity: 1;"><g class="legendfill"/><g class="legendlines"><path class="js-line" d="M5,0h30" style="fill: none; stroke: rgb(136, 136, 136); stroke-opacity: 1; stroke-width: 2px;"/></g><g class="legendsymbols"><g class="legendpoints"/></g></g><rect class="legendtoggle" x="0" y="-9.5" width="89.609375" height="19" style="fill: rgb(0, 0, 0); fill-opacity: 0;"/></g></g></g><rect class="scrollbar" rx="20" ry="3" width="0" height="0" x="0" y="0" style="fill: rgb(128, 139, 164); fill-opacity: 1;"/></g><g class="g-gtitle"/><g class="g-xtitle"/><g class="g-x2title"/><g class="g-x3title"><text class="x3title" x="300" y="549.8" text-anchor="middle" style="font-family: 'Open Sans', verdana, arial, sans-serif; font-size: 14px; fill: rgb(36, 36, 36); opacity: 1; font-weight: normal; white-space: pre;">Time (s)</text></g><g class="g-ytitle"/><g class="g-y2title"/><g class="g-y3title"/><g class="annotation" data-index="0" style="opacity: 1;"><g class="annotation-text-g" transform="rotate(0,300,86.99999999999999)"><g class="cursor-pointer" transform="translate(164,74)"><rect class="bg" x="0.5" y="0.5" width="271" height="25" style="stroke-width: 1px; stroke: rgb(0, 0, 0); stroke-opacity: 0; fill: rgb(0, 0, 0); fill-opacity: 0;"/><text class="annotation-text" text-anchor="middle" x="135.8125" y="19" style="font-family: 'Open Sans', verdana, arial, sans-serif; font-size: 16px; fill: rgb(36, 36, 36); fill-opacity: 1; white-space: pre;">Observation - Noise volatility: 1e+02</text></g></g></g><g class="annotation" data-index="1" style="opacity: 1;"><g class="annotation-text-g" transform="rotate(0,300,250.33333333333331)"><g class="cursor-pointer" transform="translate(189,237)"><rect class="bg" x="0.5" y="0.5" width="221" height="25" style="stroke-width: 1px; stroke: rgb(0, 0, 0); stroke-opacity: 0; fill: rgb(0, 0, 0); fill-opacity: 0;"/><text class="annotation-text" text-anchor="middle" x="110.859375" y="19" style="font-family: 'Open Sans', verdana, arial, sans-serif; font-size: 16px; fill: rgb(36, 36, 36); fill-opacity: 1; white-space: pre;">States - Noise volatility: 1e-02</text></g></g></g><g class="annotation" data-index="2" style="opacity: 1;"><g class="annotation-text-g" transform="rotate(0,300,413.6666666666667)"><g class="cursor-pointer" transform="translate(218,401)"><rect class="bg" x="0.5" y="0.5" width="163" height="25" style="stroke-width: 1px; stroke: rgb(0, 0, 0); stroke-opacity: 0; fill: rgb(0, 0, 0); fill-opacity: 0;"/><text class="annotation-text" text-anchor="middle" x="81.828125" y="19" style="font-family: 'Open Sans', verdana, arial, sans-serif; font-size: 16px; fill: rgb(36, 36, 36); fill-opacity: 1; white-space: pre;">Phase-space distance</text></g></g></g></g></svg>