<svg class="main-svg" xmlns="http://www.w3.org/2000/svg" xmlns:xlink="http://www.w3.org/1999/xlink" width="600" height="600" style="" viewBox="0 0 600 600"><rect x="0" y="0" width="600" height="600" style="fill: rgb(255, 255, 255); fill-opacity: 1;"/><defs id="defs-0cc83a"><g class="clips"><clipPath id="clip0cc83axyplot" class="plotclip"><rect width="440" height="93.33333333333333"/></clipPath><clipPath id="clip0cc83ax2y2plot" class="plotclip"><rect width="440" height="93.33333333333336"/></clipPath><clipPath id="clip0cc83ax3y3plot" class="plotclip"><rect width="440" height="93.33333333333334"/></clipPath><clipPath class="axesclip" id="clip0cc83ax"><rect x="80" y="0" width="440" height="600"/></clipPath><clipPath class="axesclip" id="clip0cc83ay"><rect x="0" y="100" width="600" height="93.33333333333333"/></clipPath><clipPath class="axesclip" id="clip0cc83axy"><rect x="80" y="100" width="440" height="93.33333333333333"/></clipPath><clipPath class="axesclip" id="clip0cc83ay2"><rect x="0" y="263.3333333333333" width="600" height="93.33333333333336"/></clipPath><clipPath class="axesclip" id="clip0cc83axy2"><rect x="80" y="263.3333333333333" width="440" height="93.33333333333336"/></clipPath><clipPath class="axesclip" id="clip0cc83ay3"><rect x="0" y="426.6666666666667" width="600" height="93.33333333333334"/></clipPath><clipPath class="axesclip" id="clip0cc83axy3"><rect x="80" y="426.6666666666667" width="440" height="93.33333333333334"/></clipPath><clipPath class="axesclip" id="clip0cc83ax2"><rect x="80" y="0" width="440" height="600"/></clipPath><clipPath class="axesclip" id="clip0cc83ax2y"><rect x="80" y="100" width="440" height="93.33333333333333"/></clipPath><clipPath class="axesclip" id="clip0cc83ax2y2"><rect x="80" y="263.3333333333333" width="440" height="93.33333333333336"/></clipPath><clipPath class="axesclip" id="clip0cc83ax2y3"><rect x="80" y="426.6666666666667" width="440" height="93.33333333333334"/></clipPath><clipPath class="axesclip" id="clip0cc83ax3"><rect x="80" y="0" width="440" height="600"/></clipPath><clipPath class="axesclip" id="clip0cc83ax3y"><rect x="80" y="100" width="440" height="93.33333333333333"/></clipPath><clipPath class="axesclip" id="clip0cc83ax3y2"><rect x="80" y="263.3333333333333" width="440" height="93.33333333333336"/></clipPath><clipPath class="axesclip" id="clip0cc83ax3y3"><rect x="80" y="426.6666666666667" width="440" height="93.33333333333334"/></clipPath></g><g class="gradients"/><g class="patterns"/></defs><g class="bglayer"/><g class="layer-below"><g class="imagelayer"/><g class="shapelayer"/></g><g class="cartesianlayer"><g class="subplot xy"><g class="layer-subplot"><g class="shapelayer"/><g class="imagelayer"/></g><g class="gridlayer"><g class="x"/><g class="y"/></g><g class="zerolinelayer"/><path class="xlines-below"/><path class="ylines-below"/><g class="overlines-below"/><g class="xaxislayer-below"/><g class="yaxislayer-below"/><g class="overaxes-below"/><g class="plot" transform="translate(80,100)" clip-path="url(#clip0cc83axyplot)"><g class="scatterlayer mlayer"><g class="trace scatter tracebe8bda" style="stroke-miterlimit: 2; opacity: 1;"><g class="fills"/><g class="errorbars"/><g class="lines"><path class="js-line" d="M0,54.83L0.43,39.89L0.86,41.03L1.29,42.12L6.03,52.22L6.46,52.86L10.33,57.11L10.76,57.4L13.35,58.08L13.78,58.01L15.5,56.94L15.93,56.4L17.65,52.45L18.08,50.94L19.8,41.93L20.23,38.81L24.54,7.69L24.97,8.58L26.26,17.18L26.69,21.11L29.71,44.31L30.14,46.45L33.15,56.36L33.58,57.38L43.05,77.16L43.48,77.43L44.34,77.12L44.77,76.48L46.07,72.59L46.5,70.7L50.37,53.89L50.8,53.08L52.52,52.02L52.95,52.19L54.68,53.87L55.11,54.47L60.7,63.66L61.14,64.49L65.44,74.46L65.87,75.62L68.88,81.56L69.32,81.47L70.18,79.88L70.61,78.27L72.76,64.24L73.19,61.06L75.34,50.02L75.77,49L77.06,47.76L77.5,47.81L79.22,49.13L79.65,49.63L85.68,55.83L86.11,56.03L88.26,56.09L88.69,55.85L90.41,53.88L90.84,53.11L92.56,48.15L92.99,46.29L95.15,32.42L95.58,28.84L98.16,10.34L98.59,9.62L99.02,9.95L99.45,11.3L101.17,23.7L101.6,27.4L104.62,46.46L105.05,48.16L108.06,56.33L108.49,57.25L119.26,79.58L119.69,79.42L120.55,77.94L120.98,76.53L123.13,64.63L123.56,61.93L125.71,52.41L126.14,51.43L127.87,50.06L128.3,50.17L130.45,52.2L130.88,52.76L141.21,67.8L141.64,68.57L145.09,76.66L145.52,77.94L148.96,87.42L149.39,87.46L150.25,85.44L150.68,83.15L152.41,66.78L152.84,62L154.99,45.59L155.42,44.17L156.71,42.27L157.14,42.19L159.73,43.43L160.16,43.72L163.6,45.37L164.03,45.29L165.32,44.29L165.75,43.69L167.91,38.95L168.34,37.64L173.5,21.06L173.93,21L174.79,21.95L175.23,22.87L177.81,32.19L178.24,33.77L181.68,43.39L182.11,44.17L184.7,47.39L185.13,47.6L186.85,47.4L187.28,47.1L189,44.96L189.43,44.08L191.59,37.13L192.02,35.24L195.89,18.94L196.32,18.49L197.18,19.05L197.61,19.95L199.77,29.13L200.2,31.26L203.64,44.17L204.07,45.15L207.51,50.84L207.95,51.25L209.67,51.95L210.1,51.91L211.82,50.95L212.25,50.47L213.97,47.01L214.4,45.68L216.56,35.67L216.99,33.04L220.43,14.37L220.86,14.14L221.72,15.92L222.15,17.76L228.18,48.38L228.61,49.5L232.05,56.03L232.49,56.67L237.22,62.5L237.65,62.96L245.83,72.29L246.26,72.98L248.85,78.65L249.28,79.87L253.15,91.5L253.58,91.24L254.44,87.8L254.87,84.33L259.18,40.64L259.61,39.56L260.9,38.34L261.33,38.32L267.79,39.47L268.22,39.24L270.37,37.1L270.8,36.45L276.83,26.64L277.26,26.6L278.55,27.31L278.98,27.79L281.57,32.62L282,33.53L285.44,39.42L285.87,39.81L288.02,40.86L288.45,40.86L290.18,39.91L290.61,39.4L293.62,33.59L294.05,32.54L297.5,25.47L297.93,25.19L299.22,25.59L299.65,26.11L301.8,30.8L302.23,31.93L306.11,39.95L306.54,40.52L308.69,42.19L309.12,42.3L310.84,41.83L311.27,41.45L313.42,38.18L313.86,37.26L319.45,23.92L319.88,23.9L321.17,25.35L321.6,26.26L328.49,42.37L328.92,42.83L331.08,43.87L331.51,43.83L333.23,42.8L333.66,42.27L335.38,38.83L335.81,37.64L340.98,22.16L341.41,21.93L342.27,22.38L342.7,23.07L344.42,28.17L344.85,29.77L348.73,41.62L349.16,42.49L351.74,45.86L352.17,46.11L353.89,46.31L354.32,46.15L356.05,44.54L356.48,43.87L358.2,39.5L358.63,37.98L363.8,19.47L364.23,19.54L365.09,20.95L365.52,22.23L371.98,45.18L372.41,46.01L375.42,49.67L375.85,49.86L377.57,49.65L378,49.36L379.73,47.04L380.16,46.13L381.88,40.64L382.31,38.76L387.05,16.19L387.48,16.04L388.34,17.55L388.77,19.1L395.23,47.71L395.66,48.73L398.67,53.92L399.1,54.41L402.54,56.95L402.97,56.98L404.7,56.34L405.13,55.93L406.85,53.02L407.28,51.87L409,44.76L409.43,42.21L412.45,17.46L412.88,14.13L414.17,8.79L414.6,9.08L415.46,12.86L415.89,15.98L420.2,47.08L420.63,48.79L423.64,57.03L424.07,57.96L433.97,78.27L434.4,78.23L435.26,77.14L435.69,76.04L437.42,68.28L437.85,65.79L440,54.9" style="vector-effect: non-scaling-stroke; fill: none; stroke: rgb(68, 170, 153); stroke-opacity: 1; stroke-width: 2px; opacity: 1;"/></g><g class="points"/><g class="text"/></g><g class="trace scatter trace58c89c" style="stroke-miterlimit: 2; opacity: 1;"><g class="fills"/><g class="errorbars"/><g class="lines"><path class="js-line" d="M0,38.75L5.6,51.51L6.03,52.23L9.9,56.78L10.33,57.12L12.92,58.08L13.35,58.07L15.07,57.38L15.5,56.95L17.22,53.73L17.65,52.45L19.37,44.69L19.8,41.94L24.54,7.69L24.97,8.58L26.26,17.18L26.69,21.11L29.71,44.29L30.14,46.44L33.15,56.36L33.58,57.39L43.48,77.43L43.91,77.44L44.77,76.48L45.21,75.51L46.93,68.59L47.36,66.36L50.37,53.89L50.8,53.08L52.52,52.02L52.95,52.2L54.68,53.88L55.11,54.46L61.14,64.48L61.57,65.35L65.87,75.61L66.3,76.77L68.88,81.58L69.32,81.47L70.18,79.89L70.61,78.27L72.76,64.24L73.19,61.05L75.34,50.02L75.77,49L77.06,47.76L77.5,47.81L79.22,49.13L79.65,49.64L85.68,55.83L86.11,56.03L88.26,56.09L88.69,55.84L90.41,53.86L90.84,53.13L92.56,48.15L92.99,46.3L95.15,32.42L95.58,28.83L98.16,10.34L98.59,9.62L99.02,9.94L99.45,11.3L101.17,23.7L101.6,27.41L104.62,46.46L105.05,48.15L108.06,56.32L108.49,57.25L119.26,79.58L119.69,79.42L120.55,77.94L120.98,76.53L123.13,64.63L123.56,61.93L125.71,52.42L126.14,51.43L127.87,50.06L128.3,50.17L130.45,52.2L130.88,52.76L141.64,68.56L142.07,69.39L145.52,77.94L145.95,79.29L148.96,87.44L149.39,87.47L150.25,85.44L150.68,83.15L152.84,62.01L153.27,57.5L155.42,44.18L155.85,43.22L157.14,42.21L157.57,42.29L161.02,44.31L161.45,44.58L163.6,45.39L164.03,45.29L165.32,44.28L165.75,43.69L167.91,38.94L168.34,37.65L173.5,21.06L173.93,21L174.79,21.96L175.23,22.88L177.81,32.2L178.24,33.77L181.68,43.39L182.11,44.17L184.7,47.4L185.13,47.6L186.85,47.39L187.28,47.08L189,44.96L189.43,44.09L191.59,37.15L192.02,35.24L195.89,18.94L196.32,18.49L197.18,19.05L197.61,19.95L199.77,29.13L200.2,31.26L203.64,44.18L204.07,45.14L207.51,50.84L207.95,51.27L210.1,51.91L210.53,51.77L212.25,50.46L212.68,49.87L214.4,45.67L214.83,44.14L217.42,30.25L217.85,27.38L220.43,14.37L220.86,14.14L221.72,15.92L222.15,17.76L228.18,48.38L228.61,49.5L232.05,56.04L232.49,56.67L237.65,62.96L238.08,63.41L245.83,72.3L246.26,72.97L248.85,78.66L249.28,79.88L253.15,91.51L253.58,91.25L254.44,87.8L254.87,84.33L259.18,40.66L259.61,39.58L260.9,38.36L261.33,38.34L267.36,39.66L267.79,39.47L269.94,37.68L270.37,37.11L274.25,29.76L274.68,28.96L276.83,26.65L277.26,26.61L278.55,27.31L278.98,27.79L281.57,32.61L282,33.52L285.44,39.42L285.87,39.81L288.02,40.86L288.45,40.86L290.18,39.92L290.61,39.42L293.62,33.6L294.05,32.55L297.5,25.47L297.93,25.19L299.22,25.59L299.65,26.11L301.8,30.8L302.23,31.93L306.11,39.95L306.54,40.52L308.69,42.2L309.12,42.3L310.84,41.84L311.27,41.45L313.42,38.18L313.86,37.26L319.45,23.92L319.88,23.9L321.17,25.34L321.6,26.26L328.49,42.37L328.92,42.84L331.08,43.87L331.51,43.82L333.23,42.8L333.66,42.27L335.38,38.83L335.81,37.64L340.98,22.16L341.41,21.94L342.27,22.37L342.7,23.07L344.42,28.17L344.85,29.77L348.73,41.62L349.16,42.49L351.74,45.86L352.17,46.12L353.89,46.32L354.32,46.14L356.05,44.54L356.48,43.86L358.2,39.51L358.63,37.98L363.8,19.47L364.23,19.54L365.52,22.23L365.95,23.76L371.55,44.29L371.98,45.18L374.99,49.37L375.42,49.68L377.14,49.83L377.57,49.65L379.3,47.79L379.73,47.03L381.45,42.34L381.88,40.64L385.32,22.15L385.75,20.04L387.05,16.19L387.48,16.04L388.34,17.55L388.77,19.1L395.23,47.7L395.66,48.73L398.67,53.92L399.1,54.41L402.54,56.95L402.97,56.98L404.7,56.34L405.13,55.94L406.85,53.03L407.28,51.87L409,44.76L409.43,42.22L412.45,17.46L412.88,14.12L414.17,8.79L414.6,9.08L415.46,12.86L415.89,15.98L420.2,47.07L420.63,48.8L423.64,57.04L424.07,57.95L433.97,78.28L434.4,78.23L435.26,77.14L435.69,76.04L437.42,68.28L437.85,65.79L440,54.9" style="vector-effect: non-scaling-stroke; fill: none; stroke: rgb(136, 34, 85); stroke-opacity: 1; stroke-width: 1px; opacity: 1; stroke-dasharray: 3px, 3px;"/></g><g class="points"/><g class="text"/></g><g class="trace scatter tracee54f4f" style="stroke-miterlimit: 2; opacity: 1;"><g class="fills"/><g class="errorbars"/><g class="lines"><path class="js-line" d="M0,38.85L4.74,49.77L5.17,50.52L9.04,55.86L9.47,56.27L12.49,58.02L12.92,58.05L14.64,57.55L15.07,57.24L16.79,54.67L17.22,53.62L18.94,46.96L19.37,44.57L21.96,23.41L22.39,19.32L24.11,8.05L24.54,7.72L25.4,10.6L25.83,13.53L30.57,48.43L31,50.07L34.44,59.2L34.87,60.13L43.48,77.31L43.91,77.34L44.77,76.48L45.21,75.55L46.93,68.61L47.36,66.39L50.37,53.98L50.8,53.18L52.52,52.11L52.95,52.27L55.11,54.37L55.54,54.97L59.84,62.05L60.27,62.86L64.15,71.15L64.58,72.24L68.88,81.65L69.32,81.56L70.18,80.02L70.61,78.42L72.76,64.24L73.19,61.03L75.34,50.17L75.77,49.19L77.06,47.94L77.5,47.96L79.22,49.14L79.65,49.62L86.11,56.06L86.54,56.22L88.69,56.02L89.12,55.76L90.84,53.46L91.27,52.45L92.99,46.34L93.42,44.15L95.58,28.78L96.01,25.04L98.16,10.27L98.59,9.57L99.02,9.92L99.45,11.29L101.17,23.71L101.6,27.39L104.62,46.43L105.05,48.12L108.06,56.46L108.49,57.38L119.26,79.58L119.69,79.43L120.55,78L120.98,76.6L123.13,64.63L123.56,61.9L125.71,52.4L126.14,51.45L127.87,50.15L128.3,50.26L130.45,52.29L130.88,52.85L142.07,69.43L142.5,70.29L145.52,77.86L145.95,79.21L148.96,87.26L149.39,87.31L150.25,85.39L150.68,83.14L152.41,66.79L152.84,61.99L154.99,45.67L155.42,44.28L157.14,42.27L157.57,42.34L160.16,43.95L160.59,44.27L163.17,45.34L163.6,45.28L165.32,44.19L165.75,43.65L167.48,40.21L167.91,38.99L170.92,27.81L171.35,26.13L173.5,20.99L173.93,20.94L174.79,21.91L175.23,22.84L177.81,32.23L178.24,33.85L181.68,43.69L182.11,44.43L184.7,47.28L185.13,47.46L186.85,47.39L187.28,47.09L189,44.83L189.43,43.93L191.59,37L192.02,35.1L195.89,18.81L196.32,18.35L197.18,18.95L197.61,19.87L199.77,29.14L200.2,31.26L203.64,44.19L204.07,45.23L207.08,50.29L207.51,50.73L209.67,51.92L210.1,51.94L211.82,51.06L212.25,50.55L213.97,46.95L214.4,45.62L216.56,35.61L216.99,32.95L220.43,14.28L220.86,14.06L221.72,15.87L222.15,17.72L228.18,48.19L228.61,49.31L232.49,56.64L232.92,57.27L238.94,64.35L239.37,64.8L245.83,72.27L246.26,72.97L248.85,78.68L249.28,79.93L253.15,91.5L253.58,91.23L254.44,87.8L254.87,84.34L259.18,40.78L259.61,39.72L260.9,38.4L261.33,38.36L264.34,39.56L264.77,39.7L266.93,39.99L267.36,39.87L269.51,38.24L269.94,37.72L272.95,32.31L273.39,31.4L276.4,26.67L276.83,26.48L278.12,26.79L278.55,27.23L280.7,30.98L281.14,31.87L285.44,39.32L285.87,39.72L288.02,40.77L288.45,40.75L290.61,39.32L291.04,38.73L293.62,33.61L294.05,32.53L297.5,25.53L297.93,25.24L299.22,25.6L299.65,26.11L302.23,31.8L302.66,32.88L306.54,40.57L306.97,41.07L309.12,42.27L309.55,42.26L311.27,41.36L311.7,40.9L313.86,37.17L314.29,36.13L319.02,24.11L319.45,23.82L320.31,24.02L320.74,24.48L322.47,28.25L322.9,29.51L327.2,40.6L327.63,41.32L329.78,43.67L330.22,43.89L331.94,43.85L332.37,43.64L334.09,41.58L334.52,40.76L337.1,33.58L337.53,32.06L340.98,22.1L341.41,21.88L342.27,22.37L342.7,23.09L344.85,29.78L345.28,31.37L348.73,41.65L349.16,42.54L351.74,45.99L352.17,46.28L353.89,46.55L354.32,46.37L356.05,44.56L356.48,43.81L358.63,37.85L359.06,36.25L363.37,19.94L363.8,19.58L364.66,20.13L365.09,21L367.24,29.31L367.67,31.25L371.12,43.37L371.55,44.39L374.56,48.99L374.99,49.36L377.14,49.93L377.57,49.79L379.3,48.03L379.73,47.26L381.45,42.59L381.88,40.89L384.89,24.78L385.32,22.38L387.05,16.27L387.48,16.11L388.34,17.62L388.77,19.17L395.23,47.76L395.66,48.76L398.67,53.92L399.1,54.42L402.11,56.68L402.54,56.81L404.27,56.59L404.7,56.33L406.42,53.96L406.85,52.98L408.57,46.89L409,44.73L411.15,29.13L411.59,25.24L413.74,9.8L414.17,9.01L414.6,9.28L415.03,10.64L416.75,23.45L417.18,27.26L420.2,46.78L420.63,48.53L423.64,57.04L424.07,57.97L433.97,78.49L434.4,78.46L435.26,77.36L435.69,76.25L437.42,68.35L437.85,65.83L440,55.02" style="vector-effect: non-scaling-stroke; fill: none; stroke: rgb(0, 0, 0); stroke-opacity: 1; stroke-width: 1px; opacity: 1; stroke-dasharray: 9px, 9px;"/></g><g class="points"/><g class="text"/></g></g></g><g class="overplot"/><path class="xlines-above crisp" d="M79,193.83333333333331H520" style="fill: none; stroke-width: 1px; stroke: rgb(36, 36, 36); stroke-opacity: 1;"/><path class="ylines-above crisp" d="M79.5,100V193.33333333333331" style="fill: none; stroke-width: 1px; stroke: rgb(36, 36, 36); stroke-opacity: 1;"/><g class="overlines-above"/><g class="xaxislayer-above"><path class="xtick ticks crisp" d="M0,194.33333333333331v5" transform="translate(80,0)" style="stroke: rgb(68, 68, 68); stroke-opacity: 1; stroke-width: 1px;"/><path class="xtick ticks crisp" d="M0,194.33333333333331v5" transform="translate(190.22,0)" style="stroke: rgb(68, 68, 68); stroke-opacity: 1; stroke-width: 1px;"/><path class="xtick ticks crisp" d="M0,194.33333333333331v5" transform="translate(300.43,0)" style="stroke: rgb(68, 68, 68); stroke-opacity: 1; stroke-width: 1px;"/><path class="xtick ticks crisp" d="M0,194.33333333333331v5" transform="translate(410.65,0)" style="stroke: rgb(68, 68, 68); stroke-opacity: 1; stroke-width: 1px;"/></g><g class="yaxislayer-above"><path class="ytick ticks crisp" d="M79,0h-5" transform="translate(0,175.82999999999998)" style="stroke: rgb(68, 68, 68); stroke-opacity: 1; stroke-width: 1px;"/><path class="ytick ticks crisp" d="M79,0h-5" transform="translate(0,152.5)" style="stroke: rgb(68, 68, 68); stroke-opacity: 1; stroke-width: 1px;"/><path class="ytick ticks crisp" d="M79,0h-5" transform="translate(0,129.17000000000002)" style="stroke: rgb(68, 68, 68); stroke-opacity: 1; stroke-width: 1px;"/><path class="ytick ticks crisp" d="M79,0h-5" transform="translate(0,105.83)" style="stroke: rgb(68, 68, 68); stroke-opacity: 1; stroke-width: 1px;"/><g class="ytick"><text text-anchor="end" x="71.6" y="4.199999999999999" transform="translate(0,175.82999999999998)" style="font-family: 'Open Sans', verdana, arial, sans-serif; font-size: 12px; fill: rgb(36, 36, 36); fill-opacity: 1; white-space: pre; opacity: 1;">0</text></g><g class="ytick"><text text-anchor="end" x="71.6" y="4.199999999999999" style="font-family: 'Open Sans', verdana, arial, sans-serif; font-size: 12px; fill: rgb(36, 36, 36); fill-opacity: 1; white-space: pre; opacity: 1;" transform="translate(0,152.5)">20</text></g><g class="ytick"><text text-anchor="end" x="71.6" y="4.199999999999999" style="font-family: 'Open Sans', verdana, arial, sans-serif; font-size: 12px; fill: rgb(36, 36, 36); fill-opacity: 1; white-space: pre; opacity: 1;" transform="translate(0,129.17000000000002)">40</text></g><g class="ytick"><text text-anchor="end" x="71.6" y="4.199999999999999" style="font-family: 'Open Sans', verdana, arial, sans-serif; font-size: 12px; fill: rgb(36, 36, 36); fill-opacity: 1; white-space: pre; opacity: 1;" transform="translate(0,105.83)">60</text></g></g><g class="overaxes-above"/></g><g class="subplot x2y2"><g class="layer-subplot"><g class="shapelayer"/><g class="imagelayer"/></g><g class="gridlayer"><g class="x2"/><g class="y2"/></g><g class="zerolinelayer"/><path class="xlines-below"/><path class="ylines-below"/><g class="overlines-below"/><g class="xaxislayer-below"/><g class="yaxislayer-below"/><g class="overaxes-below"/><g class="plot" transform="translate(80,263.3333333333333)" clip-path="url(#clip0cc83ax2y2plot)"><g class="scatterlayer mlayer"><g class="trace scatter trace2156ed" style="stroke-miterlimit: 2; opacity: 1;"><g class="fills"/><g class="errorbars"/><g class="lines"><path class="js-line" d="M0,58.67L0.43,54.6L0.86,56.63L1.29,56.89L8.18,59.02L8.61,58.96L11.62,58.69L12.05,58.45L15.07,57.6L15.5,57.1L17.22,55.63L17.65,55.08L20.23,50.78L20.67,49.48L24.11,41.88L24.54,41.67L26.69,46.31L27.12,47.77L31,58.9L31.43,59.59L35.3,63.08L35.73,63.17L39.18,64.9L39.61,65.65L41.33,67.67L41.76,68.27L46.93,74.58L47.36,74.49L49.08,72.58L49.51,71.81L54.25,63.37L54.68,63.35L55.97,62.95L56.4,62.87L57.69,62.47L58.12,62.25L60.27,62.47L60.7,62.69L62.43,63.03L62.86,63.41L67.16,68.29L67.59,69.15L71.9,76.16L72.33,76.24L74.05,73.63L74.48,72.63L78.79,62.64L79.22,62.2L81.8,60.4L82.23,60.17L91.27,55.5L91.7,55.13L94.72,50.02L95.15,49.05L98.16,42.63L98.59,42.45L100.31,44.96L100.74,46.11L105.48,58.68L105.91,59.32L108.06,61.03L108.49,61.34L113.23,64.09L113.66,64.49L114.52,65.51L114.95,66.07L116.67,67.13L117.1,67.86L122.27,75.45L122.7,75.43L124.42,73.31L124.85,72.38L128.73,64.18L129.16,63.9L131.74,62.02L132.17,61.94L134.32,61.16L134.76,60.97L140.78,61.49L141.21,61.7L143.8,63.35L144.23,63.81L145.95,65.36L146.38,66.64L148.53,70.86L148.96,72L151.98,78.43L152.41,78.44L153.7,75.78L154.13,74.2L157.57,63.32L158,62.86L173.5,46.61L173.93,46.61L175.66,47.83L176.09,48.44L182.97,56.16L183.41,56.23L186.42,55.5L186.85,55.33L188.57,54.58L189,54.19L192.02,50.6L192.45,49.85L195.89,45.68L196.32,45.62L197.61,46.3L198.04,46.83L201.49,53.01L201.92,53.79L205.36,57L205.79,57.28L207.95,57.56L208.38,57.32L212.68,55.62L213.11,55.12L216.99,49.52L217.42,48.63L220.43,43.99L220.86,44.1L221.72,44.72L222.15,45.36L224.31,50.35L224.74,51.54L227.75,57.32L228.18,57.79L230.76,59.38L231.19,59.52L235.93,60.16L236.36,60.01L246.26,61.52L246.69,61.96L249.71,64.44L250.14,65.08L251.86,69.25L252.29,70.69L256.16,79.96L256.59,79.61L258.32,73.13L258.75,71.12L261.33,63.05L261.76,62.51L264.34,60.31L264.77,59.62L268.22,54.59L268.65,54.13L274.68,49.28L275.11,49.07L277.69,48.63L278.12,48.78L280.27,50.01L280.7,50.37L286.73,53.71L287.16,53.79L289.32,53.34L289.75,53.22L298.36,48.08L298.79,48.16L300.94,49.51L301.37,50.01L307.4,54.15L307.83,54.15L309.55,54.21L309.98,54.06L313.86,51.85L314.29,51.39L318.59,47.71L319.02,47.62L320.74,47.95L321.17,48.27L325.48,52.7L325.91,53.17L328.49,54.61L328.92,54.68L332.37,54.46L332.8,54.05L334.52,52.83L334.95,52.52L340.98,46.96L341.41,46.95L343.13,47.81L343.56,48.31L349.59,55.14L350.02,55.35L352.6,55.58L353.03,55.56L355.62,54.63L356.05,54.32L358.63,51.55L359.06,51L363.37,46.11L363.8,46.08L365.09,46.67L365.52,47.14L367.67,50.48L368.1,51.25L371.12,55.35L371.55,55.75L374.99,57.04L375.42,56.85L381.45,52.76L381.88,52.17L387.05,44.84L387.48,44.99L388.77,46.03L389.2,46.66L392.21,52.94L392.64,53.93L395.66,57.77L396.09,58.05L398.24,58.73L398.67,58.68L401.68,58.51L402.11,58.18L402.97,58L403.41,57.94L408.14,54.07L408.57,53.42L411.59,46.87L412.02,45.26L414.17,42.36L414.6,42.93L415.46,43.77L415.89,44.78L421.49,59.81L421.92,60.35L425.36,62.37L425.79,62.55L427.95,64.32L428.38,64.8L430.53,65.52L430.96,66.58L437.42,74.91L437.85,74.73L439.14,73.45L439.57,72.66L440,71.78" style="vector-effect: non-scaling-stroke; fill: none; stroke: rgb(136, 204, 238); stroke-opacity: 1; stroke-width: 2px; opacity: 1;"/></g><g class="points"/><g class="text"/></g><g class="trace scatter trace30c8e6" style="stroke-miterlimit: 2; opacity: 1;"><g class="fills"/><g class="errorbars"/><g class="lines"><path class="js-line" d="M0,58.8L11.62,58.73L12.05,58.62L15.93,56.77L16.36,56.44L18.94,53.19L19.37,52.41L24.54,42.14L24.97,42.4L26.26,45.03L26.69,46.39L31,58.91L31.43,59.6L34.01,62.1L34.44,62.37L40.04,66.11L40.47,66.59L44.34,72.19L44.77,72.83L46.93,74.57L47.36,74.5L48.65,73.29L49.08,72.62L54.68,63.49L55.11,63.17L58.12,62.08L58.55,62.09L62,62.9L62.43,63.12L65.44,65.72L65.87,66.29L68.88,71.68L69.32,72.58L71.9,76.33L72.33,76.31L73.62,74.75L74.05,73.79L79.22,62.01L79.65,61.52L82.23,59.76L82.66,59.58L89.98,56.68L90.41,56.32L92.99,53.21L93.42,52.49L98.59,42.77L99.02,42.86L100.31,44.94L100.74,46.12L105.48,58.65L105.91,59.21L108.92,61.57L109.35,61.79L114.95,65.15L115.38,65.56L118.4,69.92L118.83,70.71L121.84,75.31L122.27,75.48L123.56,74.77L123.99,74.13L130.45,62.24L130.88,61.91L133.89,60.73L134.32,60.69L139.06,61.01L139.49,61.09L143.37,62.8L143.8,63.13L146.38,66.27L146.81,67.03L149.82,74.59L150.25,75.79L151.98,78.58L152.41,78.47L153.7,75.88L154.13,74.42L158.43,60.55L158.86,59.79L161.45,57.03L161.88,56.75L167.91,52.17L168.34,51.7L173.5,46.58L173.93,46.62L175.66,47.81L176.09,48.35L181.68,55.34L182.11,55.58L184.7,56.06L185.13,56L187.71,55.03L188.14,54.76L191.15,51.74L191.59,51.17L195.89,45.81L196.32,45.7L197.61,46.3L198.04,46.8L201.49,52.91L201.92,53.62L204.93,56.71L205.36,56.94L207.95,57.43L208.38,57.39L211.82,56.12L212.25,55.8L214.83,53.1L215.26,52.49L220.43,44.31L220.86,44.27L222.15,45.53L222.58,46.29L228.18,57.65L228.61,58.06L231.62,59.58L232.05,59.69L246.26,61.74L246.69,61.95L249.28,64.27L249.71,64.88L251.86,69.33L252.29,70.56L255.73,80.04L256.16,80.06L257.03,78.62L257.46,77.23L262.62,58.23L263.05,57.52L265.64,54.91L266.07,54.63L276.83,48.54L277.26,48.56L279.41,49.43L279.84,49.73L286.3,53.6L286.73,53.65L289.75,53.17L290.18,52.98L294.05,50.25L294.48,49.89L297.93,48.1L298.36,48.11L300.51,49.11L300.94,49.46L306.54,53.91L306.97,54.05L309.55,54.1L309.98,53.99L312.99,52.43L313.42,52.08L319.45,47.57L319.88,47.58L322.04,48.88L322.47,49.34L328.06,54.52L328.49,54.67L331.08,54.75L331.51,54.63L334.52,52.93L334.95,52.57L341.41,46.96L341.84,47.02L343.56,48.29L343.99,48.81L349.59,55.12L350.02,55.33L352.6,55.71L353.03,55.63L356.05,54.17L356.48,53.81L359.49,50.43L359.92,49.85L363.37,46.17L363.8,46.12L365.09,46.73L365.52,47.18L368.53,52.04L368.96,52.71L371.98,56.05L372.41,56.3L374.99,56.87L375.42,56.84L378.43,55.7L378.86,55.41L381.45,52.85L381.88,52.24L387.05,44.99L387.48,44.95L388.77,46.05L389.2,46.72L395.23,57.25L395.66,57.58L398.67,58.68L399.1,58.71L402.97,58.1L403.41,57.95L406.42,56.05L406.85,55.61L409.43,51.81L409.86,50.93L414.17,42.54L414.6,42.63L415.89,44.74L416.32,45.94L421.06,58.85L421.49,59.46L424.5,61.98L424.93,62.23L430.1,65.58L430.53,66.06L433.97,71.1L434.4,71.83L436.99,74.99L437.42,75.07L438.71,74.13L439.14,73.47L440,71.78" style="vector-effect: non-scaling-stroke; fill: none; stroke: rgb(0, 0, 0); stroke-opacity: 1; stroke-width: 1px; opacity: 1; stroke-dasharray: 9px, 9px;"/></g><g class="points"/><g class="text"/></g><g class="trace scatter trace74505c" style="stroke-miterlimit: 2; opacity: 1;"><g class="fills"/><g class="errorbars"/><g class="lines"><path class="js-line" d="M0,58.67L0.43,60.49L0.86,58L2.58,58.89L3.01,59.16L6.03,59.36L6.46,59.09L11.19,58.2L11.62,57.98L16.36,53.88L16.79,52.88L18.08,50.33L18.51,49.09L22.82,37.66L23.25,37.99L24.11,40.56L24.54,42.93L28.41,62.46L28.85,63.03L30.57,64.2L31,64.2L35.3,64.6L35.73,64.93L38.75,67.64L39.18,68.35L40.9,71.11L41.33,71.9L44.34,77.55L44.77,77.26L45.21,77.19L46.07,76.29L46.5,75.82L51.66,62.35L52.09,61.82L53.39,61.14L53.82,61.08L59.41,62.23L59.84,63.47L60.7,62.91L61.14,63.6L65.01,68.42L65.44,69.23L69.32,80.13L69.75,79.84L70.18,80.12L70.61,80.85L71.04,78.72L71.9,77.25L72.33,74.99L76.63,59.79L77.06,59.34L78.79,58.81L79.22,58.76L81.8,58.54L82.23,58.4L83.52,58.09L83.95,58.34L86.54,57.22L86.97,57.13L90.84,53.19L91.27,52.18L92.56,49.5L92.99,48.28L96.44,38.89L96.87,38.66L97.73,39.29L98.16,40.81L100.31,52.51L100.74,55.03L102.9,61.99L103.33,62.48L105.05,63.21L105.48,63.12L107.63,62.72L108.06,62.97L108.92,63.02L109.35,63.63L110.65,63.77L111.08,64.12L112.8,65.79L113.23,65.9L115.38,68.86L115.81,69.72L120.55,79.4L120.98,78.6L122.7,74.33L123.13,73.02L126.14,63.19L126.58,62.11L127.87,60.57L128.3,60.37L130.88,60.15L131.31,60.26L133.46,60.15L133.89,60.28L134.76,60.77L135.19,60.89L137.77,61.12L138.2,61.3L141.21,62.87L141.64,63.16L145.52,69.16L145.95,70.78L147.24,74.45L147.67,76.07L150.25,84.54L150.68,84.88L152.84,73.17L153.27,70.47L154.99,60.66L155.42,59.08L157.57,56.63L158,56.46L164.46,53.22L164.89,52.46L171.78,44.76L172.21,44.88L173.93,47.26L174.36,48.13L177.81,55.49L178.24,55.85L180.39,57.19L180.82,57.17L183.41,56.9L183.84,56.6L186.42,54.44L186.85,53.96L189,51.56L189.43,50.89L194.17,43.23L194.6,43.37L195.89,44.73L196.32,45.63L201.06,57.78L201.49,58.2L202.78,58.58L203.21,58.47L204.5,58.21L204.93,58.23L206.65,58.25L207.08,58.02L208.38,57.02L208.81,56.66L212.25,53.63L212.68,53.04L216.56,44.94L216.99,43.7L219.14,40.98L219.57,41.45L220.86,44.84L221.29,46.71L224.74,59.3L225.17,59.87L226.46,60.7L226.89,60.94L228.61,60.7L229.04,60.69L237.22,60.16L237.65,60.31L242.39,61.32L242.82,61.62L245.83,62.79L246.26,63.05L249.71,68.86L250.14,70.27L251.86,76.66L252.29,79.4L254.01,87.38L254.44,87.95L255.73,82.18L256.16,78.79L258.75,59.48L259.18,57.51L260.9,55.49L261.33,55.32L263.91,53.81L264.34,53.14L275.11,47.67L275.54,47.65L278.12,49.81L278.55,50.2L283.29,54.49L283.72,54.58L285.44,54.44L285.87,54.12L287.59,53.64L288.02,53.22L289.32,52.35L289.75,52.02L295.34,46.88L295.77,46.82L298.36,48.42L298.79,48.98L303.52,54.74L303.95,54.78L305.68,55.16L306.11,55.11L309.55,53.58L309.98,53.21L313.86,49.29L314.29,48.61L316.44,46.41L316.87,46.17L318.16,46.55L318.59,46.8L320.31,48.96L320.74,49.63L323.76,54.26L324.19,54.53L326.77,55.83L327.2,55.71L328.92,55.32L329.35,54.99L330.65,54.31L331.08,54.07L334.95,49.9L335.38,49.2L338.83,45.5L339.26,45.18L340.55,45.81L340.98,46.44L343.13,50.65L343.56,51.76L346.14,55.87L346.58,56.38L350.45,56.44L350.88,56.34L353.03,54.87L353.46,54.58L356.91,50.86L357.34,49.94L361.64,43.9L362.07,43.99L363.37,45.24L363.8,46.02L368.53,57.11L368.96,57.46L371.55,58.06L371.98,57.84L373.7,57.48L374.13,57.3L376.28,55.65L376.71,55.43L381.02,49.63L381.45,48.61L384.89,42.32L385.32,42.19L386.18,42.38L386.61,43.31L388.34,48.77L388.77,50.26L391.35,57.79L391.78,58.29L393.5,59.97L393.93,59.91L396.52,59.77L396.95,59.62L398.24,59.14L398.67,58.64L400.39,58.58L400.82,58.36L401.68,57.94L402.11,57.44L402.97,56.95L403.41,56.79L407.28,51.57L407.71,50.7L412.45,38.28L412.88,38.3L414.17,42.17L414.6,44.17L417.61,60.75L418.04,61.76L419.77,63.61L420.2,63.77L424.93,63.98L425.36,64.29L429.24,67.31L429.67,67.95L433.97,76.31L434.4,77.66L436.13,77.56L436.56,76.83L437.85,73.9L438.28,71.99L440,65.59" style="vector-effect: non-scaling-stroke; fill: none; stroke: rgb(204, 102, 119); stroke-opacity: 1; stroke-width: 2px; opacity: 1;"/></g><g class="points"/><g class="text"/></g><g class="trace scatter tracedb8f28" style="stroke-miterlimit: 2; opacity: 1;"><g class="fills"/><g class="errorbars"/><g class="lines"><path class="js-line" d="M0,58.93L3.87,59.46L4.31,59.44L10.33,58.51L10.76,58.37L14.21,56.35L14.64,55.93L16.79,53.02L17.22,52.19L19.8,45.14L20.23,43.65L22.82,37.4L23.25,37.75L24.11,40.41L24.54,42.69L27.98,61.69L28.41,62.62L30.14,64.05L30.57,64.12L35.3,64.5L35.73,64.72L38.75,67.42L39.18,68.02L45.21,77.2L45.64,76.99L46.93,74.67L47.36,73.39L51.23,62.36L51.66,61.84L53.82,60.84L54.25,60.86L58.12,61.94L58.55,62.12L62.43,64.83L62.86,65.32L65.44,69.44L65.87,70.37L70.18,80L70.61,79.92L71.47,78.44L71.9,77.01L76.2,59.72L76.63,59.11L78.36,58.24L78.79,58.23L85.24,57.95L85.68,57.81L88.69,55.88L89.12,55.45L91.7,51.45L92.13,50.49L96.87,38.42L97.3,38.58L98.16,40.61L98.59,42.45L102.47,61.26L102.9,62L104.62,63.08L105.05,63.1L110.22,63.58L110.65,63.75L113.23,65.76L113.66,66.24L116.67,71.44L117.1,72.42L120.55,78.66L120.98,78.54L122.27,76.05L122.7,74.56L126.58,61.18L127.01,60.59L129.16,59.59L129.59,59.59L137.34,61.04L137.77,61.17L141.21,62.75L141.64,63.1L144.23,66.34L144.66,67.15L147.24,74.28L147.67,75.87L150.25,83.78L150.68,83.77L151.55,81.49L151.98,79.21L155.85,56.48L156.28,55.73L158,54.84L158.43,54.85L162.31,54.58L162.74,54.37L165.32,52.33L165.75,51.84L171.78,44.6L172.21,44.73L173.5,46.31L173.93,47.17L178.67,56.57L179.1,56.89L181.25,57.31L181.68,57.24L185.56,55.31L185.99,54.95L189,51.43L189.43,50.76L194.6,43.26L195.03,43.43L196.32,45.53L196.75,46.69L201.06,57.68L201.49,58.09L203.64,58.76L204.07,58.69L207.51,57.51L207.95,57.29L211.39,54.6L211.82,54.1L214.4,49.81L214.83,48.88L218.71,40.95L219.14,40.97L220,42.1L220.43,43.26L225.17,59.73L225.6,60.21L227.32,60.87L227.75,60.85L238.51,60.33L238.94,60.38L244.11,61.68L244.54,61.92L247.12,64.25L247.55,64.85L249.71,69.46L250.14,70.79L254.44,86.6L254.87,86.09L255.73,81.97L256.16,78.49L259.18,55.19L259.61,54.01L260.9,52.57L261.33,52.51L266.93,52.49L267.36,52.27L271.66,49.07L272.09,48.73L274.68,47.52L275.11,47.55L277.26,48.87L277.69,49.34L282.43,54.06L282.86,54.24L285.44,54.35L285.87,54.22L288.88,52.64L289.32,52.29L295.77,46.9L296.2,46.92L297.93,47.92L298.36,48.4L303.52,54.69L303.95,54.88L306.54,55L306.97,54.88L309.98,53.13L310.41,52.78L317.73,46.16L318.16,46.31L319.88,48.1L320.31,48.81L324.62,55.13L325.05,55.41L327.2,55.88L327.63,55.81L330.65,54.39L331.08,54.07L334.52,50.45L334.95,49.84L338.83,45.31L339.26,45.19L340.55,45.76L340.98,46.31L343.56,51.74L343.99,52.67L346.58,56.29L347.01,56.54L349.16,56.82L349.59,56.74L352.6,55.31L353.03,55L356.48,51.26L356.91,50.62L361.64,43.94L362.07,43.93L363.37,45.24L363.8,46.09L368.96,57.48L369.39,57.75L371.55,58.08L371.98,58L375.42,56.47L375.85,56.2L378.86,53.24L379.3,52.63L382.74,46.02L383.17,45.09L385.32,42.02L385.75,42.06L386.61,43.14L387.05,44.17L391.78,58.62L392.21,59.09L394.36,59.89L394.79,59.85L399.96,58.56L400.39,58.41L403.84,56.43L404.27,56.04L406.85,52.39L407.28,51.53L410.29,43.08L410.72,41.71L412.45,38.13L412.88,38.23L413.74,40.22L414.17,42.1L418.04,61.58L418.47,62.32L420.2,63.43L420.63,63.48L425.36,63.95L425.79,64.16L428.38,66.26L428.81,66.77L431.82,71.92L432.25,72.84L435.26,77.93L435.69,77.94L436.56,77.02L436.99,76.07L440,65.22" style="vector-effect: non-scaling-stroke; fill: none; stroke: rgb(0, 0, 0); stroke-opacity: 1; stroke-width: 1px; opacity: 1; stroke-dasharray: 9px, 9px;"/></g><g class="points"/><g class="text"/></g><g class="trace scatter tracedda027" style="stroke-miterlimit: 2; opacity: 1;"><g class="fills"/><g class="errorbars"/><g class="lines"><path class="js-line" d="M0,38.67L0.43,23.84L0.86,25.59L1.29,26.53L7.32,36.99L7.75,37.57L12.92,44.29L13.35,44.34L17.22,46.79L17.65,46.92L19.37,45.36L19.8,44.64L21.1,40.14L21.53,38.01L25.83,13.57L26.26,13.72L28.41,19.96L28.85,21.46L33.58,32.76L34.01,33.45L37.03,37.51L37.46,38.02L40.47,39.62L40.9,38.94L42.19,38.03L42.62,37.51L47.79,20.11L48.22,19.71L49.51,19.52L49.94,19.76L59.41,38.71L59.84,38.82L62,41.78L62.43,41.97L64.58,43.36L65.01,43.41L66.73,42.34L67.16,41.61L68.88,36.64L69.32,33.86L70.18,30.27L70.61,27.05L71.47,23.15L71.9,20.66L74.05,15.67L74.48,16.31L75.34,17.8L75.77,19.1L80.94,32.37L81.37,33.17L84.81,39.61L85.24,40.18L89.98,44.86L90.41,44.73L92.56,44.89L92.99,44.62L94.29,42.35L94.72,41.19L96.44,33.05L96.87,30.32L99.88,14.88L100.31,14.78L101.17,15.93L101.6,17.05L107.2,32.1L107.63,32.97L112.37,39.7L112.8,40.1L114.52,40.98L114.95,40.87L116.67,41.04L117.1,40.43L118.4,37.9L118.83,36.53L120.12,31.98L120.55,29.32L123.99,18.09L124.42,17.93L126.58,20.77L127.01,22.17L134.32,37.76L134.76,38.05L140.78,46.06L141.21,46.24L143.37,47.46L143.8,47.6L145.09,48.13L145.52,48.01L147.24,46.83L147.67,45.32L149.39,36.85L149.82,34.1L153.27,11.68L153.7,11.8L154.56,12.77L154.99,13.84L158,22.5L158.43,23.4L165.32,37.42L165.75,37.27L167.05,37.22L167.48,37.27L170.06,33.81L170.49,32.8L174.79,22.17L175.23,22.05L176.09,21.59L176.52,22.01L181.68,30.27L182.11,31.4L183.84,33.84L184.27,34.53L186.85,38.21L187.28,38.25L188.57,38.77L189,38.97L190.72,38.8L191.15,38.08L192.02,36.99L192.45,35.91L194.6,29.29L195.03,27.67L197.61,20.69L198.04,20.07L198.9,20.36L199.33,20.81L201.06,23.68L201.49,24.59L203.21,28.85L203.64,30.15L207.95,36.88L208.38,37.93L210.53,40.48L210.96,40.5L212.68,41.66L213.11,42.05L214.4,41.99L214.83,41.78L216.13,40.03L216.56,38.95L218.28,32.9L218.71,30.85L221.72,18.21L222.15,17.76L223.01,17.97L223.44,18.56L226.03,24.7L226.46,25.96L233.35,39.43L233.78,40.02L234.64,41.14L235.07,42.27L236.79,44.02L237.22,44.49L238.94,45.85L239.37,46.68L241.96,48.66L242.39,48.56L243.25,49.39L243.68,49.97L246.26,52.16L246.69,51.94L249.71,52.84L250.14,52.42L251,51.28L251.43,50.25L252.29,46.17L252.72,43.28L254.44,28.57L254.87,24.48L257.03,9.19L257.46,8.43L258.75,11.06L259.18,13.01L261.76,19.57L262.19,20.23L264.34,24.89L264.77,25.99L267.79,31.92L268.22,32.22L270.37,33.21L270.8,33.21L274.25,30.19L274.68,29.57L278.12,25.52L278.55,25.45L280.7,25.41L281.14,25.86L284.15,28.73L284.58,29.57L286.73,31.92L287.16,32.22L291.04,34.95L291.47,34.52L294.48,31.95L294.91,31.34L300.08,24.14L300.51,24.32L301.8,24.8L302.23,25.22L307.83,32.46L308.26,32.56L310.41,34.68L310.84,35.19L313.42,35.17L313.86,34.78L315.15,33.93L315.58,33.31L318.16,27.85L318.59,26.99L321.17,23.51L321.6,23.43L322.9,24.08L323.33,24.64L331.51,35.15L331.94,35.2L334.52,36.76L334.95,36.5L336.24,35.64L336.67,35.04L338.4,31.81L338.83,30.72L342.7,22.52L343.13,22.34L343.99,22.21L344.42,22.54L345.71,24.37L346.14,25.15L347.44,27.22L347.87,28.02L353.03,35.9L353.46,36.25L356.05,37.89L356.48,37.98L358.2,37.87L358.63,37.54L360.78,33L361.21,31.71L365.09,21.11L365.52,20.76L367.24,21.98L367.67,22.62L377.57,39.39L378,39.75L379.73,40.39L380.16,40.48L381.88,39.92L382.31,39.25L384.03,35.15L384.46,33.53L388.77,18.87L389.2,18.78L390.49,20.1L390.92,21.33L394.36,28.66L394.79,29.71L396.52,33.06L396.95,33.95L402.97,43.5L403.41,43.69L405.13,45.3L405.56,45.56L406.85,45.82L407.28,45.87L409,44.64L409.43,44.16L411.15,38.21L411.59,35.99L415.46,14.32L415.89,14.23L417.18,16.52L417.61,17.79L421.49,29.01L421.92,29.97L426.22,37.25L426.65,37.78L429.24,39.8L429.67,39.95L430.96,40.26L431.39,39.91L432.25,39.06L432.68,38.7L436.56,25L436.99,23.04L438.71,18.39L439.14,18.27L440,18.7" style="vector-effect: non-scaling-stroke; fill: none; stroke: rgb(221, 204, 119); stroke-opacity: 1; stroke-width: 2px; opacity: 1;"/></g><g class="points"/><g class="text"/></g><g class="trace scatter trace5d3d4f" style="stroke-miterlimit: 2; opacity: 1;"><g class="fills"/><g class="errorbars"/><g class="lines"><path class="js-line" d="M0,20L5.17,32.41L5.6,33.26L10.76,41.5L11.19,42.05L15.5,46.17L15.93,46.42L18.08,46.66L18.51,46.38L19.8,44.47L20.23,43.32L21.96,35.43L22.39,32.57L25.4,14.12L25.83,13.61L26.69,14.41L27.12,15.49L33.15,32.18L33.58,32.96L37.46,38.29L37.89,38.66L40.04,39.57L40.47,39.5L42.19,37.95L42.62,37.19L44.77,30.76L45.21,29.08L48.22,19.83L48.65,19.55L49.94,20.36L50.37,21.04L60.27,39.76L60.7,40.26L64.15,43.23L64.58,43.34L66.3,42.84L66.73,42.38L68.45,38.43L68.88,36.85L73.62,16.38L74.05,16.47L75.34,18.8L75.77,19.97L81.37,33.76L81.8,34.57L86.54,41.73L86.97,42.25L90.41,45.19L90.84,45.37L92.56,45.15L92.99,44.78L94.29,42.49L94.72,41.25L96.44,33.04L96.87,30.24L99.88,14.88L100.31,14.7L101.17,15.86L101.6,16.95L107.63,32.91L108.06,33.72L112.37,39.87L112.8,40.29L115.38,41.61L115.81,41.56L117.1,40.66L117.53,40.05L119.26,35.55L119.69,33.89L123.56,18.35L123.99,17.98L124.85,18.36L125.28,19L128.73,27.28L129.16,28.3L134.32,38.2L134.76,38.86L139.49,44.94L139.92,45.36L144.23,48.34L144.66,48.42L146.38,47.69L146.81,47.13L148.1,44L148.53,42.29L150.25,31.35L150.68,27.74L153.27,12.3L153.7,12.25L154.99,15.39L155.42,16.98L159.3,28.74L159.73,29.63L163.6,35.57L164.03,35.99L166.18,37.28L166.61,37.34L168.34,36.51L168.77,36.03L170.92,31.76L171.35,30.56L174.79,22.15L175.23,21.78L176.52,22L176.95,22.41L179.53,26.67L179.96,27.5L185.56,36.49L185.99,36.99L188.57,38.94L189,39.04L190.72,38.5L191.15,38.08L192.88,34.84L193.31,33.63L198.04,20.07L198.47,20.04L199.77,21.27L200.2,22.01L209.24,38.79L209.67,39.34L212.68,41.97L213.11,42.12L214.83,41.75L215.26,41.33L216.99,37.84L217.42,36.42L222.15,17.57L222.58,17.48L223.87,19.17L224.31,20.15L231.19,35.91L231.62,36.66L237.22,44.46L237.65,44.93L243.68,50.23L244.11,50.51L247.98,52.27L248.41,52.3L250.14,51.55L250.57,51.03L251.86,47.92L252.29,46.18L254.01,33.92L254.44,29.58L257.03,9.47L257.46,9.37L258.32,11.59L258.75,13.39L262.19,25.72L262.62,26.66L265.64,31.19L266.07,31.64L269.08,33.51L269.51,33.57L271.66,32.96L272.09,32.66L274.68,29.56L275.11,28.95L278.55,25.15L278.98,25.03L280.7,25.52L281.14,25.82L284.58,29.54L285.01,30.03L289.32,33.9L289.75,34.1L291.9,34.21L292.33,34.02L294.48,31.94L294.91,31.28L299.65,24.42L300.08,24.28L301.8,24.86L302.23,25.25L306.11,30.22L306.54,30.79L310.41,34.7L310.84,34.95L312.99,35.31L313.42,35.18L315.15,33.77L315.58,33.17L321.17,23.58L321.6,23.47L323.33,24.3L323.76,24.77L328.92,32.31L329.35,32.87L332.8,36.17L333.23,36.36L335.38,36.26L335.81,35.96L337.53,33.72L337.96,32.88L343.13,22.26L343.56,22.22L344.85,23.1L345.28,23.65L350.45,32.4L350.88,33.09L354.76,37.6L355.19,37.87L357.34,38.23L357.77,38.03L359.49,35.99L359.92,35.15L362.5,27.49L362.94,26.06L365.09,21.12L365.52,20.81L366.81,21.37L367.24,21.91L370.68,28.53L371.12,29.39L375.85,37.34L376.28,37.87L379.3,40.51L379.73,40.66L381.45,40.33L381.88,39.93L383.6,36.6L384.03,35.29L388.77,18.8L389.2,18.69L390.49,20.04L390.92,20.89L399.53,38.63L399.96,39.28L404.7,44.79L405.13,45.11L407.28,45.87L407.71,45.79L409,44.69L409.43,43.96L411.15,38.26L411.59,35.99L415.46,14.54L415.89,14.36L416.75,15.57L417.18,16.69L422.78,31.97L423.21,32.8L427.51,39.01L427.95,39.42L430.53,40.57L430.96,40.47L432.68,38.7L433.11,37.85L435.26,30.6L435.69,28.72L438.28,19.37L438.71,18.83L439.57,18.79L440,19.21" style="vector-effect: non-scaling-stroke; fill: none; stroke: rgb(0, 0, 0); stroke-opacity: 1; stroke-width: 1px; opacity: 1; stroke-dasharray: 9px, 9px;"/></g><g class="points"/><g class="text"/></g></g></g><g class="overplot"/><path class="xlines-above crisp" d="M79,357.1666666666667H520" style="fill: none; stroke-width: 1px; stroke: rgb(36, 36, 36); stroke-opacity: 1;"/><path class="ylines-above crisp" d="M79.5,263.3333333333333V356.6666666666667" style="fill: none; stroke-width: 1px; stroke: rgb(36, 36, 36); stroke-opacity: 1;"/><g class="overlines-above"/><g class="xaxislayer-above"><path class="x2tick ticks crisp" d="M0,357.6666666666667v5" transform="translate(80,0)" style="stroke: rgb(68, 68, 68); stroke-opacity: 1; stroke-width: 1px;"/><path class="x2tick ticks crisp" d="M0,357.6666666666667v5" transform="translate(190.22,0)" style="stroke: rgb(68, 68, 68); stroke-opacity: 1; stroke-width: 1px;"/><path class="x2tick ticks crisp" d="M0,357.6666666666667v5" transform="translate(300.43,0)" style="stroke: rgb(68, 68, 68); stroke-opacity: 1; stroke-width: 1px;"/><path class="x2tick ticks crisp" d="M0,357.6666666666667v5" transform="translate(410.65,0)" style="stroke: rgb(68, 68, 68); stroke-opacity: 1; stroke-width: 1px;"/></g><g class="yaxislayer-above"><path class="y2tick ticks crisp" d="M79,0h-5" transform="translate(0,350.00333333333333)" style="stroke: rgb(68, 68, 68); stroke-opacity: 1; stroke-width: 1px;"/><path class="y2tick ticks crisp" d="M79,0h-5" transform="translate(0,323.3333333333333)" style="stroke: rgb(68, 68, 68); stroke-opacity: 1; stroke-width: 1px;"/><path class="y2tick ticks crisp" d="M79,0h-5" transform="translate(0,296.6633333333333)" style="stroke: rgb(68, 68, 68); stroke-opacity: 1; stroke-width: 1px;"/><path class="y2tick ticks crisp" d="M79,0h-5" transform="translate(0,270.00333333333333)" style="stroke: rgb(68, 68, 68); stroke-opacity: 1; stroke-width: 1px;"/><g class="y2tick"><text text-anchor="end" x="71.6" y="4.199999999999999" transform="translate(0,350.00333333333333)" style="font-family: 'Open Sans', verdana, arial, sans-serif; font-size: 12px; fill: rgb(36, 36, 36); fill-opacity: 1; white-space: pre; opacity: 1;">−20</text></g><g class="y2tick"><text text-anchor="end" x="71.6" y="4.199999999999999" style="font-family: 'Open Sans', verdana, arial, sans-serif; font-size: 12px; fill: rgb(36, 36, 36); fill-opacity: 1; white-space: pre; opacity: 1;" transform="translate(0,323.3333333333333)">0</text></g><g class="y2tick"><text text-anchor="end" x="71.6" y="4.199999999999999" style="font-family: 'Open Sans', verdana, arial, sans-serif; font-size: 12px; fill: rgb(36, 36, 36); fill-opacity: 1; white-space: pre; opacity: 1;" transform="translate(0,296.6633333333333)">20</text></g><g class="y2tick"><text text-anchor="end" x="71.6" y="4.199999999999999" style="font-family: 'Open Sans', verdana, arial, sans-serif; font-size: 12px; fill: rgb(36, 36, 36); fill-opacity: 1; white-space: pre; opacity: 1;" transform="translate(0,270.00333333333333)">40</text></g></g><g class="overaxes-above"/></g><g class="subplot x3y3"><g class="layer-subplot"><g class="shapelayer"/><g class="imagelayer"/></g><g class="gridlayer"><g class="x3"/><g class="y3"/></g><g class="zerolinelayer"/><path class="xlines-below"/><path class="ylines-below"/><g class="overlines-below"/><g class="xaxislayer-below"/><g class="yaxislayer-below"/><g class="overaxes-below"/><g class="plot" transform="translate(80,426.6666666666667)" clip-path="url(#clip0cc83ax3y3plot)"><g class="scatterlayer mlayer"><g class="trace scatter trace60f50d" style="stroke-miterlimit: 2; opacity: 1;"><g class="fills"/><g class="errorbars"/><g class="lines"><path class="js-line" d="M0,6.21L0.86,74.32L1.29,75.61L5.6,89.2L6.03,89L6.46,88.22L6.89,88.89L7.32,90.21L8.18,91.29L8.61,90.21L9.9,92.69L10.33,91.36L10.76,91.29L11.19,92.59L11.62,92.3L12.05,90.94L13.35,92.74L13.78,92.46L14.64,92.1L15.07,91.04L15.5,92.74L15.93,92.41L16.36,92.66L16.79,91.66L17.22,92.66L19.37,92.94L19.8,91.89L20.23,91.45L20.67,92.46L21.1,91.8L21.53,92.67L21.96,92.67L22.39,90.74L23.68,92.08L24.11,91.44L24.54,90.67L24.97,92.99L26.26,93.03L26.69,91.8L27.12,92.25L27.55,90.99L29.28,92.68L29.71,92.91L30.14,91.86L30.57,92.4L31,92.35L33.15,91.74L33.58,91.83L34.01,91.26L34.44,91.89L34.87,91.68L37.03,90.98L37.46,91.81L38.75,92.04L39.18,90.78L39.61,92.43L40.04,92.16L40.47,91.84L40.9,90.99L41.33,91.92L42.19,92.83L42.62,91.71L43.05,90.33L43.48,91.82L44.34,88.97L44.77,92.36L45.64,92.69L46.07,92.19L47.36,93.18L47.79,91.27L48.65,92.93L49.08,91.32L49.51,91.25L49.94,89.6L51.23,92.1L51.66,89.38L52.95,91.95L53.39,91.59L53.82,91.86L54.25,90.46L54.68,92.19L55.11,91.59L55.54,91.63L55.97,91.97L56.4,91.22L56.83,92.63L57.26,92.12L57.69,91.23L58.98,92.84L59.41,91.35L59.84,89.59L60.27,92.43L60.7,90.65L61.14,92.73L61.57,93.19L62,91.97L62.43,91.94L62.86,92.97L64.15,92.18L64.58,91.84L65.87,92.66L66.3,92.73L67.16,92.85L67.59,91.26L68.02,91.24L68.45,92.98L68.88,91.74L69.32,86.01L70.18,92.18L70.61,87.13L71.47,92.34L71.9,91.7L72.33,91.89L72.76,90.81L73.19,91.48L73.62,91.38L74.91,85.76L75.34,87.31L76.2,88.61L76.63,87.88L77.06,88.23L77.5,90.01L78.36,88.87L78.79,89.13L79.22,89.1L80.51,89.1L80.94,89.87L81.37,89.76L81.8,90.55L83.52,91.62L83.95,91.99L86.11,92.4L86.54,91.84L86.97,92.98L87.4,92.63L87.83,91.22L88.26,92.03L88.69,91.16L89.12,92.24L89.55,91.33L89.98,92.21L90.84,90.51L91.27,92.26L91.7,90.41L92.13,92.33L92.99,92.38L93.42,92.36L95.15,92.76L95.58,91.96L96.44,92.72L96.87,91.79L97.3,89.97L97.73,92.83L98.59,91.41L99.02,92.6L100.74,93.24L101.17,92.91L102.04,92.16L102.47,92.79L105.91,92.56L106.34,91.58L108.06,92.86L108.49,92.54L108.92,92.67L109.35,91.1L110.65,93.08L111.08,92.55L111.51,90.3L111.94,90.44L112.37,91.28L113.66,90.97L114.09,91.29L114.95,87.87L115.38,89.42L116.67,92.85L117.1,92.04L117.96,91.59L118.4,91.17L118.83,90.37L119.26,92.56L119.69,90.66L120.12,92.9L120.55,88.56L120.98,92.59L121.41,91.68L121.84,92.92L123.56,91.62L123.99,92.63L124.85,92.75L125.28,91.05L126.14,85.27L126.58,86.82L127.01,88.71L128.3,87.78L128.73,89.2L129.59,87.67L130.02,88.32L131.31,87.94L131.74,87.93L133.03,88.57L133.46,89.21L134.32,90.08L134.76,89.06L135.19,88.89L135.62,89.78L136.91,90.86L137.34,89.78L138.2,91.94L138.63,92.14L139.49,92.75L139.92,92.04L140.35,91.19L140.78,92.94L142.5,89.54L142.94,89.65L143.8,89.62L144.23,91.62L144.66,91.09L145.09,91.46L145.52,91.45L145.95,90.21L146.38,90.55L146.81,90.32L147.24,90.1L147.67,92.34L149.39,86.76L149.82,88.47L150.25,88.89L150.68,86.64L151.12,92.72L151.55,90.38L151.98,91.51L152.41,92.83L152.84,92.68L153.27,88.48L153.7,89.91L154.13,86.37L156.28,76.93L156.71,79.72L157.14,79.8L157.57,77.65L158.86,73.26L159.3,73.58L159.73,73.63L160.16,74.92L164.89,91.3L165.32,90.58L165.75,92.25L166.18,91.66L166.61,92.48L168.34,92.64L168.77,92.42L169.63,93.01L170.06,93.07L174.36,92.97L174.79,93.19L175.23,91.82L175.66,93.2L176.09,92.47L176.52,93.25L178.24,90.19L178.67,91.34L180.82,92.32L181.25,92.18L181.68,91.36L182.11,92.38L182.54,91.86L182.97,89.25L184.7,92.89L185.13,92.52L185.56,92.9L185.99,90.94L186.42,91.35L186.85,91.38L187.28,93.04L187.71,91.37L189,92.56L189.43,92.64L190.29,92.81L190.72,91.86L191.59,92.39L192.02,92.15L193.74,92.55L194.17,92.51L194.6,92.56L195.03,91.84L196.32,92.41L196.75,92.51L197.61,91.72L198.04,93.16L201.49,92.46L201.92,91.38L202.35,92.79L202.78,92.06L203.21,90.93L203.64,88.43L204.07,89.86L204.5,90.89L205.36,91.95L205.79,90.46L206.22,89.16L206.65,89.77L207.08,90.48L207.51,89.84L207.95,92.06L208.38,91.96L208.81,90.95L209.67,91.45L210.1,90.83L211.39,92.75L211.82,92.87L212.68,91.64L213.11,92.99L213.97,93.06L214.4,93.04L214.83,93.17L215.26,92.39L216.13,93L216.56,92.13L216.99,93.04L217.42,92.45L217.85,92.44L219.14,92.68L219.57,91.96L220,91.06L220.43,91.28L220.86,92.05L222.58,91.8L223.01,92.24L227.32,92.11L227.75,92.56L229.9,92.7L230.33,91.03L232.05,93.23L232.49,92.49L232.92,91.96L233.35,92.99L233.78,93.07L234.21,91.48L234.64,92.57L235.07,90.76L235.5,92.46L235.93,92.14L236.36,91.6L237.22,93.02L237.65,92.42L238.51,92.2L238.94,90.91L239.37,93.22L239.8,92.96L240.23,91.68L240.67,92.92L241.1,92.39L241.53,91.82L241.96,91.71L242.39,89.16L242.82,88.23L243.25,90.04L244.11,92.02L244.54,91.42L244.97,89.77L245.4,91.04L245.83,92.18L246.26,90.89L246.69,93.23L247.55,92.97L247.98,91.62L248.41,91.22L248.85,89.62L249.28,87.55L249.71,87.79L250.14,88.07L251,85.44L251.43,86.04L251.86,87.08L252.29,92.14L252.72,88.94L253.15,88.59L254.44,85.28L254.87,89.68L255.73,92.08L256.16,91.61L256.59,92.42L258.32,81.95L258.75,77.04L259.18,78.04L259.61,75.97L261.33,66.34L261.76,64.35L262.62,59.9L263.05,60.27L263.48,60.69L265.21,69.29L265.64,72.11L268.22,86.05L268.65,87.43L270.8,91.47L271.23,91.23L271.66,91.76L273.39,92.64L273.82,92.12L275.11,92.62L275.54,92.75L275.97,92.85L276.4,92.17L277.26,92.63L277.69,91.82L278.12,92.49L278.55,91.72L278.98,91.09L279.41,91.87L280.7,92.72L281.14,92.53L282,92.71L282.43,91.76L282.86,91.41L283.29,92.06L283.72,92.26L284.15,91.51L284.58,92.99L285.01,91.84L285.44,92.91L285.87,91.81L286.3,92.81L287.16,92.56L287.59,91.89L288.02,92.82L288.45,91.96L289.32,92.77L289.75,92.78L290.61,91.21L291.04,90L291.9,92.91L292.33,92.41L294.05,93.05L294.48,93.2L296.2,92.8L296.63,92.91L299.65,93.12L300.08,92.48L300.94,92.91L301.37,91.73L302.23,92.68L302.66,92.61L303.95,92.02L304.38,93.15L304.81,92.04L305.24,93.14L306.11,92.6L306.54,92.97L307.83,92.71L308.26,91.7L308.69,92.97L309.12,92.53L309.55,92.32L310.41,92.81L310.84,92.17L312.13,92.99L312.56,92.23L313.42,92.99L313.86,91.98L314.29,93.09L314.72,92.26L315.15,92.44L316.01,92.15L316.44,92.98L317.3,92.98L317.73,91.95L318.59,92.11L319.02,92.57L319.88,92.81L320.31,92.52L321.17,92.37L321.6,92.42L322.9,92.54L323.33,91.71L324.19,89.94L324.62,90.72L325.05,92.81L325.48,92.71L325.91,92.49L326.34,92.13L326.77,92.91L328.06,91.72L328.49,92.69L328.92,92.69L329.35,91.92L331.51,92.75L331.94,91.17L332.37,91.1L332.8,93L333.23,92.14L333.66,92.71L334.09,92.81L334.52,92.23L334.95,92.93L336.24,92.72L336.67,92.86L338.83,92L339.26,93.15L342.27,92.49L342.7,93.16L343.99,92.54L344.42,92.7L345.28,92.36L345.71,92.77L346.14,92.2L346.58,92.77L347.01,92.34L347.44,93.2L347.87,92.95L348.3,92.77L350.02,92.95L350.45,92.81L351.31,91.58L351.74,92.95L353.46,92.41L353.89,92.26L354.32,92.5L354.76,91.7L356.48,91.23L356.91,91.57L358.2,92.62L358.63,91.93L359.92,92.65L360.35,92.84L365.09,93.07L365.52,92.92L365.95,92.39L366.38,93.06L367.24,92.84L367.67,92.96L369.82,92.91L370.25,92.06L373.27,92.94L373.7,92.06L374.56,91.9L374.99,90.86L375.42,92.91L375.85,91.34L376.28,90.47L376.71,92.28L377.14,91.38L377.57,92.38L383.17,92.46L383.6,91.71L384.03,92.32L384.46,91.68L384.89,92.16L385.75,91.87L386.18,92.61L387.05,92.25L387.48,92.85L390.06,92.16L390.49,92.56L390.92,90.43L391.35,91.39L391.78,90.59L392.21,92.53L392.64,90.89L393.07,92.65L393.5,91.34L393.93,92.02L394.36,91.66L394.79,92.2L395.23,90.01L395.66,91.22L396.09,90.13L396.95,91.28L397.38,90.57L398.24,92.51L398.67,91.11L399.53,92.79L399.96,90.96L400.82,92.22L401.25,91.16L401.68,92.86L402.11,90.7L403.41,92.92L403.84,91.42L404.7,92.96L405.13,92.24L407.71,92.54L408.14,92.11L408.57,92.03L409,92.81L409.43,91.46L409.86,92.9L411.59,92.46L412.02,89.84L412.88,92.12L413.31,91.43L413.74,92.63L414.17,92.24L414.6,91.09L415.89,92.66L416.32,92.91L417.18,92.22L417.61,91.82L418.47,92.2L418.9,90.53L419.33,90.22L419.77,91.13L421.06,91.08L421.49,91.34L425.36,91.38L425.79,90.98L426.65,91.17L427.08,91.42L427.95,90.51L428.38,89.43L428.81,90.51L429.24,90.23L429.67,90.34L430.1,91.63L430.53,90.54L430.96,92.34L431.39,91.73L431.82,92.71L433.54,90.39L433.97,92.57L434.4,88.93L434.83,92.34L435.26,91.52L435.69,92.47L436.99,92.42L437.42,92.47L437.85,90.06L438.28,91.46L438.71,90.3L439.14,91.16L439.57,90.83L440,90.35" style="vector-effect: non-scaling-stroke; fill: none; stroke: rgb(136, 136, 136); stroke-opacity: 1; stroke-width: 2px; opacity: 1;"/></g><g class="points"/><g class="text"/></g></g></g><g class="overplot"/><path class="xlines-above crisp" d="M79,520.5H520" style="fill: none; stroke-width: 1px; stroke: rgb(36, 36, 36); stroke-opacity: 1;"/><path class="ylines-above crisp" d="M79.5,426.6666666666667V520" style="fill: none; stroke-width: 1px; stroke: rgb(36, 36, 36); stroke-opacity: 1;"/><g class="overlines-above"/><g class="xaxislayer-above"><path class="x3tick ticks crisp" d="M0,521v5" transform="translate(80,0)" style="stroke: rgb(68, 68, 68); stroke-opacity: 1; stroke-width: 1px;"/><path class="x3tick ticks crisp" d="M0,521v5" transform="translate(190.22,0)" style="stroke: rgb(68, 68, 68); stroke-opacity: 1; stroke-width: 1px;"/><path class="x3tick ticks crisp" d="M0,521v5" transform="translate(300.43,0)" style="stroke: rgb(68, 68, 68); stroke-opacity: 1; stroke-width: 1px;"/><path class="x3tick ticks crisp" d="M0,521v5" transform="translate(410.65,0)" style="stroke: rgb(68, 68, 68); stroke-opacity: 1; stroke-width: 1px;"/></g><g class="yaxislayer-above"><path class="y3tick ticks crisp" d="M79,0h-5" transform="translate(0,519.9966666666667)" style="stroke: rgb(68, 68, 68); stroke-opacity: 1; stroke-width: 1px;"/><path class="y3tick ticks crisp" d="M79,0h-5" transform="translate(0,488.88666666666666)" style="stroke: rgb(68, 68, 68); stroke-opacity: 1; stroke-width: 1px;"/><path class="y3tick ticks crisp" d="M79,0h-5" transform="translate(0,457.7766666666667)" style="stroke: rgb(68, 68, 68); stroke-opacity: 1; stroke-width: 1px;"/><path class="y3tick ticks crisp" d="M79,0h-5" transform="translate(0,426.6666666666667)" style="stroke: rgb(68, 68, 68); stroke-opacity: 1; stroke-width: 1px;"/><g class="y3tick"><text text-anchor="end" x="71.6" y="4.199999999999999" transform="translate(0,519.9966666666667)" style="font-family: 'Open Sans', verdana, arial, sans-serif; font-size: 12px; fill: rgb(36, 36, 36); fill-opacity: 1; white-space: pre; opacity: 1;">0</text></g><g class="y3tick"><text text-anchor="end" x="71.6" y="4.199999999999999" style="font-family: 'Open Sans', verdana, arial, sans-serif; font-size: 12px; fill: rgb(36, 36, 36); fill-opacity: 1; white-space: pre; opacity: 1;" transform="translate(0,488.88666666666666)">5</text></g><g class="y3tick"><text text-anchor="end" x="71.6" y="4.199999999999999" style="font-family: 'Open Sans', verdana, arial, sans-serif; font-size: 12px; fill: rgb(36, 36, 36); fill-opacity: 1; white-space: pre; opacity: 1;" transform="translate(0,457.7766666666667)">10</text></g><g class="y3tick"><text text-anchor="end" x="71.6" y="4.199999999999999" style="font-family: 'Open Sans', verdana, arial, sans-serif; font-size: 12px; fill: rgb(36, 36, 36); fill-opacity: 1; white-space: pre; opacity: 1;" transform="translate(0,426.6666666666667)">15</text></g></g><g class="overaxes-above"/></g></g><g class="polarlayer"/><g class="smithlayer"/><g class="ternarylayer"/><g class="geolayer"/><g class="funnelarealayer"/><g class="pielayer"/><g class="iciclelayer"/><g class="treemaplayer"/><g class="sunburstlayer"/><g class="glimages"/><defs id="topdefs-0cc83a"><g class="clips"/><clipPath id="legend0cc83a"><rect width="357" height="48" x="0" y="0"/></clipPath></defs><g class="layer-above"><g class="imagelayer"/><g class="shapelayer"/></g><g class="infolayer"><g class="legend" pointer-events="all" transform="translate(158.60000000000002,30.999999999999986)"><rect class="bg" shape-rendering="crispEdges" width="357" height="48" x="0" y="0" style="stroke: rgb(68, 68, 68); stroke-opacity: 1; fill: rgb(255, 255, 255); fill-opacity: 1; stroke-width: 0px;"/><g class="scrollbox" transform="" clip-path="url(#legend0cc83a)"><g class="groups"><g class="traces" transform="translate(0,14.5)" style="opacity: 1;"><text class="legendtext" text-anchor="start" x="40" y="4.680000000000001" style="font-family: 'Open Sans', verdana, arial, sans-serif; font-size: 12px; fill: rgb(36, 36, 36); fill-opacity: 1; white-space: pre;">x+y+z</text><g class="layers" style="opacity: 1;"><g class="legendfill"/><g class="legendlines"><path class="js-line" d="M5,0h30" style="fill: none; stroke: rgb(68, 170, 153); stroke-opacity: 1; stroke-width: 2px;"/></g><g class="legendsymbols"><g class="legendpoints"/></g></g><rect class="legendtoggle" x="0" y="-9.5" width="74.5625" height="19" style="fill: rgb(0, 0, 0); fill-opacity: 0;"/></g><g class="traces" transform="translate(101.65625,14.5)" style="opacity: 1;"><text class="legendtext" text-anchor="start" x="40" y="4.680000000000001" style="font-family: 'Open Sans', verdana, arial, sans-serif; font-size: 12px; fill: rgb(36, 36, 36); fill-opacity: 1; white-space: pre;">measured</text><g class="layers" style="opacity: 1;"><g class="legendfill"/><g class="legendlines"><path class="js-line" d="M5,0h30" style="fill: none; stroke: rgb(136, 34, 85); stroke-opacity: 1; stroke-dasharray: 3px, 3px; stroke-width: 1px;"/></g><g class="legendsymbols"><g class="legendpoints"/></g></g><rect class="legendtoggle" x="0" y="-9.5" width="99.15625" height="19" style="fill: rgb(0, 0, 0); fill-opacity: 0;"/></g><g class="traces" transform="translate(203.3125,14.5)" style="opacity: 1;"><text class="legendtext" text-anchor="start" x="40" y="4.680000000000001" style="font-family: 'Open Sans', verdana, arial, sans-serif; font-size: 12px; fill: rgb(36, 36, 36); fill-opacity: 1; white-space: pre;">true</text><g class="layers" style="opacity: 1;"><g class="legendfill"/><g class="legendlines"><path class="js-line" d="M5,0h30" style="fill: none; stroke: rgb(0, 0, 0); stroke-opacity: 1; stroke-dasharray: 9px, 9px; stroke-width: 1px;"/></g><g class="legendsymbols"><g class="legendpoints"/></g></g><rect class="legendtoggle" x="0" y="-9.5" width="66" height="19" style="fill: rgb(0, 0, 0); fill-opacity: 0;"/></g><g class="traces" transform="translate(304.96875,14.5)" style="opacity: 1;"><text class="legendtext" text-anchor="start" x="40" y="4.680000000000001" style="font-family: 'Open Sans', verdana, arial, sans-serif; font-size: 12px; fill: rgb(36, 36, 36); fill-opacity: 1; white-space: pre;">x</text><g class="layers" style="opacity: 1;"><g class="legendfill"/><g class="legendlines"><path class="js-line" d="M5,0h30" style="fill: none; stroke: rgb(136, 204, 238); stroke-opacity: 1; stroke-width: 2px;"/></g><g class="legendsymbols"><g class="legendpoints"/></g></g><rect class="legendtoggle" x="0" y="-9.5" width="49.5" height="19" style="fill: rgb(0, 0, 0); fill-opacity: 0;"/></g><g class="traces" transform="translate(0,33.5)" style="opacity: 1;"><text class="legendtext" text-anchor="start" x="40" y="4.680000000000001" style="font-family: 'Open Sans', verdana, arial, sans-serif; font-size: 12px; fill: rgb(36, 36, 36); fill-opacity: 1; white-space: pre;">y</text><g class="layers" style="opacity: 1;"><g class="legendfill"/><g class="legendlines"><path class="js-line" d="M5,0h30" style="fill: none; stroke: rgb(204, 102, 119); stroke-opacity: 1; stroke-width: 2px;"/></g><g class="legendsymbols"><g class="legendpoints"/></g></g><rect class="legendtoggle" x="0" y="-9.5" width="49.5" height="19" style="fill: rgb(0, 0, 0); fill-opacity: 0;"/></g><g class="traces" transform="translate(101.65625,33.5)" style="opacity: 1;"><text class="legendtext" text-anchor="start" x="40" y="4.680000000000001" style="font-family: 'Open Sans', verdana, arial, sans-serif; font-size: 12px; fill: rgb(36, 36, 36); fill-opacity: 1; white-space: pre;">z</text><g class="layers" style="opacity: 1;"><g class="legendfill"/><g class="legendlines"><path class="js-line" d="M5,0h30" style="fill: none; stroke: rgb(221, 204, 119); stroke-opacity: 1; stroke-width: 2px;"/></g><g class="legendsymbols"><g class="legendpoints"/></g></g><rect class="legendtoggle" x="0" y="-9.5" width="48.5" height="19" style="fill: rgb(0, 0, 0); fill-opacity: 0;"/></g><g class="traces" transform="translate(203.3125,33.5)" style="opacity: 1;"><text class="legendtext" text-anchor="start" x="40" y="4.680000000000001" style="font-family: 'Open Sans', verdana, arial, sans-serif; font-size: 12px; fill: rgb(36, 36, 36); fill-opacity: 1; white-space: pre;">distance</text><g class="layers" style="opacity: 1;"><g class="legendfill"/><g class="legendlines"><path class="js-line" d="M5,0h30" style="fill: none; stroke: rgb(136, 136, 136); stroke-opacity: 1; stroke-width: 2px;"/></g><g class="legendsymbols"><g class="legendpoints"/></g></g><rect class="legendtoggle" x="0" y="-9.5" width="89.609375" height="19" style="fill: rgb(0, 0, 0); fill-opacity: 0;"/></g></g></g><rect class="scrollbar" rx="20" ry="3" width="0" height="0" x="0" y="0" style="fill: rgb(128, 139, 164); fill-opacity: 1;"/></g><g class="g-gtitle"/><g class="g-xtitle"/><g class="g-x2title"/><g class="g-x3title"><text class="x3title" x="300" y="549.8" text-anchor="middle" style="font-family: 'Open Sans', verdana, arial, sans-serif; font-size: 14px; fill: rgb(36, 36, 36); opacity: 1; font-weight: normal; white-space: pre;">Time (s)</text></g><g class="g-ytitle"/><g class="g-y2title"/><g class="g-y3title"/><g class="annotation" data-index="0" style="opacity: 1;"><g class="annotation-text-g" transform="rotate(0,300,86.99999999999999)"><g class="cursor-pointer" transform="translate(166,74)"><rect class="bg" x="0.5" y="0.5" width="267" height="25" style="stroke-width: 1px; stroke: rgb(0, 0, 0); stroke-opacity: 0; fill: rgb(0, 0, 0); fill-opacity: 0;"/><text class="annotation-text" text-anchor="middle" x="133.8125" y="19" style="font-family: 'Open Sans', verdana, arial, sans-serif; font-size: 16px; fill: rgb(36, 36, 36); fill-opacity: 1; white-space: pre;">Observation - Noise volatility: 1e-01</text></g></g></g><g class="annotation" data-index="1" style="opacity: 1;"><g class="annotation-text-g" transform="rotate(0,300,250.33333333333331)"><g class="cursor-pointer" transform="translate(189,237)"><rect class="bg" x="0.5" y="0.5" width="221" height="25" style="stroke-width: 1px; stroke: rgb(0, 0, 0); stroke-opacity: 0; fill: rgb(0, 0, 0); fill-opacity: 0;"/><text class="annotation-text" text-anchor="middle" x="110.859375" y="19" style="font-family: 'Open Sans', verdana, arial, sans-serif; font-size: 16px; fill: rgb(36, 36, 36); fill-opacity: 1; white-space: pre;">States - Noise volatility: 1e-02</text></g></g></g><g class="annotation" data-index="2" style="opacity: 1;"><g class="annotation-text-g" transform="rotate(0,300,413.6666666666667)"><g class="cursor-pointer" transform="translate(218,401)"><rect class="bg" x="0.5" y="0.5" width="163" height="25" style="stroke-width: 1px; stroke: rgb(0, 0, 0); stroke-opacity: 0; fill: rgb(0, 0, 0); fill-opacity: 0;"/><text class="annotation-text" text-anchor="middle" x="81.828125" y="19" style="font-family: 'Open Sans', verdana, arial, sans-serif; font-size: 16px; fill: rgb(36, 36, 36); fill-opacity: 1; white-space: pre;">Phase-space distance</text></g></g></g></g></svg>